%TF.GenerationSoftware,KiCad,Pcbnew,8.0.1*%
%TF.CreationDate,2024-04-07T18:53:55+05:30*%
%TF.ProjectId,Mitayi-Pico-RP2040,4d697461-7969-42d5-9069-636f2d525032,0.6*%
%TF.SameCoordinates,PX73df160PY5f2d3c0*%
%TF.FileFunction,Soldermask,Bot*%
%TF.FilePolarity,Negative*%
%FSLAX46Y46*%
G04 Gerber Fmt 4.6, Leading zero omitted, Abs format (unit mm)*
G04 Created by KiCad (PCBNEW 8.0.1) date 2024-04-07 18:53:55*
%MOMM*%
%LPD*%
G01*
G04 APERTURE LIST*
G04 Aperture macros list*
%AMRoundRect*
0 Rectangle with rounded corners*
0 $1 Rounding radius*
0 $2 $3 $4 $5 $6 $7 $8 $9 X,Y pos of 4 corners*
0 Add a 4 corners polygon primitive as box body*
4,1,4,$2,$3,$4,$5,$6,$7,$8,$9,$2,$3,0*
0 Add four circle primitives for the rounded corners*
1,1,$1+$1,$2,$3*
1,1,$1+$1,$4,$5*
1,1,$1+$1,$6,$7*
1,1,$1+$1,$8,$9*
0 Add four rect primitives between the rounded corners*
20,1,$1+$1,$2,$3,$4,$5,0*
20,1,$1+$1,$4,$5,$6,$7,0*
20,1,$1+$1,$6,$7,$8,$9,0*
20,1,$1+$1,$8,$9,$2,$3,0*%
%AMOutline5P*
0 Free polygon, 5 corners , with rotation*
0 The origin of the aperture is its center*
0 number of corners: always 5*
0 $1 to $10 corner X, Y*
0 $11 Rotation angle, in degrees counterclockwise*
0 create outline with 5 corners*
4,1,5,$1,$2,$3,$4,$5,$6,$7,$8,$9,$10,$1,$2,$11*%
%AMOutline6P*
0 Free polygon, 6 corners , with rotation*
0 The origin of the aperture is its center*
0 number of corners: always 6*
0 $1 to $12 corner X, Y*
0 $13 Rotation angle, in degrees counterclockwise*
0 create outline with 6 corners*
4,1,6,$1,$2,$3,$4,$5,$6,$7,$8,$9,$10,$11,$12,$1,$2,$13*%
%AMOutline7P*
0 Free polygon, 7 corners , with rotation*
0 The origin of the aperture is its center*
0 number of corners: always 7*
0 $1 to $14 corner X, Y*
0 $15 Rotation angle, in degrees counterclockwise*
0 create outline with 7 corners*
4,1,7,$1,$2,$3,$4,$5,$6,$7,$8,$9,$10,$11,$12,$13,$14,$1,$2,$15*%
%AMOutline8P*
0 Free polygon, 8 corners , with rotation*
0 The origin of the aperture is its center*
0 number of corners: always 8*
0 $1 to $16 corner X, Y*
0 $17 Rotation angle, in degrees counterclockwise*
0 create outline with 8 corners*
4,1,8,$1,$2,$3,$4,$5,$6,$7,$8,$9,$10,$11,$12,$13,$14,$15,$16,$1,$2,$17*%
G04 Aperture macros list end*
%ADD10C,0.150000*%
%ADD11C,0.000000*%
%ADD12R,1.600000X3.200000*%
%ADD13O,1.600000X1.700000*%
%ADD14R,1.600000X1.700000*%
%ADD15C,1.500000*%
%ADD16R,3.200000X1.600000*%
%ADD17O,1.700000X1.600000*%
%ADD18C,0.650000*%
%ADD19O,2.100000X1.000000*%
%ADD20O,1.600000X1.000000*%
%ADD21RoundRect,0.200000X-0.450000X0.200000X-0.450000X-0.200000X0.450000X-0.200000X0.450000X0.200000X0*%
%ADD22R,1.700000X1.700000*%
%ADD23O,1.700000X1.700000*%
%ADD24Outline5P,-0.400000X0.650000X0.400000X0.650000X0.400000X-0.650000X-0.080000X-0.650000X-0.400000X-0.330000X270.000000*%
G04 APERTURE END LIST*
D10*
X10069771Y11200000D02*
X10069771Y11085714D01*
X10069771Y11085714D02*
X10098342Y11028571D01*
X10098342Y11028571D02*
X10155485Y10971428D01*
X10155485Y10971428D02*
X10269771Y10942857D01*
X10269771Y10942857D02*
X10469771Y10942857D01*
X10469771Y10942857D02*
X10584057Y10971428D01*
X10584057Y10971428D02*
X10641200Y11028571D01*
X10641200Y11028571D02*
X10669771Y11085714D01*
X10669771Y11085714D02*
X10669771Y11200000D01*
X10669771Y11200000D02*
X10641200Y11257142D01*
X10641200Y11257142D02*
X10584057Y11314285D01*
X10584057Y11314285D02*
X10469771Y11342857D01*
X10469771Y11342857D02*
X10269771Y11342857D01*
X10269771Y11342857D02*
X10155485Y11314285D01*
X10155485Y11314285D02*
X10098342Y11257142D01*
X10098342Y11257142D02*
X10069771Y11200000D01*
X10641200Y10714286D02*
X10669771Y10628571D01*
X10669771Y10628571D02*
X10669771Y10485714D01*
X10669771Y10485714D02*
X10641200Y10428571D01*
X10641200Y10428571D02*
X10612628Y10400000D01*
X10612628Y10400000D02*
X10555485Y10371429D01*
X10555485Y10371429D02*
X10498342Y10371429D01*
X10498342Y10371429D02*
X10441200Y10400000D01*
X10441200Y10400000D02*
X10412628Y10428571D01*
X10412628Y10428571D02*
X10384057Y10485714D01*
X10384057Y10485714D02*
X10355485Y10600000D01*
X10355485Y10600000D02*
X10326914Y10657143D01*
X10326914Y10657143D02*
X10298342Y10685714D01*
X10298342Y10685714D02*
X10241200Y10714286D01*
X10241200Y10714286D02*
X10184057Y10714286D01*
X10184057Y10714286D02*
X10126914Y10685714D01*
X10126914Y10685714D02*
X10098342Y10657143D01*
X10098342Y10657143D02*
X10069771Y10600000D01*
X10069771Y10600000D02*
X10069771Y10457143D01*
X10069771Y10457143D02*
X10098342Y10371429D01*
X10669771Y10114285D02*
X10069771Y10114285D01*
X10355485Y10114285D02*
X10355485Y9771428D01*
X10669771Y9771428D02*
X10069771Y9771428D01*
X10069771Y9542857D02*
X10669771Y9400000D01*
X10669771Y9400000D02*
X10241200Y9285714D01*
X10241200Y9285714D02*
X10669771Y9171429D01*
X10669771Y9171429D02*
X10069771Y9028571D01*
D11*
%TO.C,G\u002A\u002A\u002A*%
G36*
X8419980Y11850425D02*
G01*
X8466995Y11850316D01*
X8510842Y11850046D01*
X8550204Y11849638D01*
X8583762Y11849110D01*
X8610197Y11848485D01*
X8628191Y11847781D01*
X8636427Y11847021D01*
X8637443Y11846750D01*
X8641139Y11845539D01*
X8644370Y11843398D01*
X8647383Y11839331D01*
X8650428Y11832340D01*
X8653751Y11821430D01*
X8657600Y11805605D01*
X8662224Y11783868D01*
X8667869Y11755224D01*
X8674784Y11718675D01*
X8683215Y11673226D01*
X8693412Y11617880D01*
X8696776Y11599693D01*
X8706896Y11546233D01*
X8715482Y11503073D01*
X8722645Y11469711D01*
X8728498Y11445647D01*
X8733151Y11430383D01*
X8736715Y11423417D01*
X8736751Y11423383D01*
X8744364Y11418976D01*
X8760736Y11411291D01*
X8784290Y11400959D01*
X8813445Y11388613D01*
X8846623Y11374883D01*
X8882245Y11360402D01*
X8918731Y11345803D01*
X8954503Y11331716D01*
X8987981Y11318774D01*
X9017586Y11307609D01*
X9041739Y11298852D01*
X9058862Y11293136D01*
X9067374Y11291092D01*
X9073968Y11293899D01*
X9088700Y11302353D01*
X9110361Y11315752D01*
X9137851Y11333389D01*
X9170066Y11354555D01*
X9205904Y11378542D01*
X9244263Y11404644D01*
X9281070Y11429698D01*
X9317038Y11453787D01*
X9349429Y11475083D01*
X9377142Y11492879D01*
X9399074Y11506466D01*
X9414122Y11515138D01*
X9421182Y11518185D01*
X9421856Y11518084D01*
X9430460Y11512763D01*
X9446510Y11499417D01*
X9469924Y11478121D01*
X9500620Y11448951D01*
X9538517Y11411984D01*
X9583532Y11367296D01*
X9596685Y11354128D01*
X9639243Y11311142D01*
X9673822Y11275545D01*
X9700528Y11247222D01*
X9719471Y11226057D01*
X9730758Y11211932D01*
X9734496Y11204733D01*
X9732078Y11198798D01*
X9723993Y11184518D01*
X9710917Y11163266D01*
X9693567Y11136160D01*
X9672658Y11104315D01*
X9648908Y11068849D01*
X9623032Y11030880D01*
X9599960Y10997054D01*
X9575941Y10961249D01*
X9554686Y10928938D01*
X9536913Y10901237D01*
X9523336Y10879264D01*
X9514671Y10864138D01*
X9511634Y10856974D01*
X9512183Y10854053D01*
X9516887Y10841507D01*
X9525624Y10822241D01*
X9537447Y10798285D01*
X9551409Y10771669D01*
X9554136Y10766589D01*
X9569074Y10737587D01*
X9580102Y10714017D01*
X9586622Y10697233D01*
X9588039Y10688590D01*
X9583641Y10684980D01*
X9569933Y10677577D01*
X9546797Y10666550D01*
X9514085Y10651835D01*
X9471648Y10633366D01*
X9419335Y10611077D01*
X9356998Y10584902D01*
X9284488Y10554775D01*
X9223502Y10529544D01*
X9156405Y10501792D01*
X9098340Y10477795D01*
X9048640Y10457289D01*
X9006636Y10440009D01*
X8971661Y10425691D01*
X8943048Y10414071D01*
X8920129Y10404882D01*
X8902237Y10397862D01*
X8888703Y10392745D01*
X8878860Y10389268D01*
X8872041Y10387164D01*
X8867578Y10386170D01*
X8864804Y10386022D01*
X8863050Y10386454D01*
X8861650Y10387201D01*
X8861271Y10387456D01*
X8854945Y10394230D01*
X8843931Y10408026D01*
X8829670Y10426982D01*
X8813604Y10449236D01*
X8774041Y10500051D01*
X8723886Y10551264D01*
X8669993Y10592473D01*
X8611678Y10624111D01*
X8548257Y10646608D01*
X8479047Y10660396D01*
X8424075Y10664061D01*
X8357890Y10659012D01*
X8293776Y10644095D01*
X8232697Y10619974D01*
X8175614Y10587311D01*
X8123488Y10546770D01*
X8077283Y10499013D01*
X8037959Y10444703D01*
X8006480Y10384505D01*
X7983806Y10319079D01*
X7977892Y10291112D01*
X7972593Y10242841D01*
X7971788Y10191605D01*
X7975481Y10141728D01*
X7983673Y10097536D01*
X8003674Y10037571D01*
X8035139Y9974701D01*
X8075264Y9917983D01*
X8123346Y9868131D01*
X8178682Y9825861D01*
X8240570Y9791887D01*
X8308308Y9766926D01*
X8324723Y9762534D01*
X8345150Y9758394D01*
X8366908Y9755896D01*
X8393239Y9754702D01*
X8427387Y9754472D01*
X8455496Y9754887D01*
X8493864Y9757205D01*
X8527154Y9762292D01*
X8558941Y9770989D01*
X8592802Y9784135D01*
X8632315Y9802570D01*
X8637363Y9805058D01*
X8662133Y9817903D01*
X8682057Y9829972D01*
X8700202Y9843513D01*
X8719638Y9860776D01*
X8743432Y9884010D01*
X8764913Y9906595D01*
X8788634Y9933716D01*
X8809965Y9960200D01*
X8826029Y9982610D01*
X8833902Y9994486D01*
X8848185Y10013939D01*
X8858928Y10024878D01*
X8867024Y10028303D01*
X8873698Y10026384D01*
X8889675Y10020564D01*
X8913847Y10011262D01*
X8945189Y9998903D01*
X8982676Y9983910D01*
X9025280Y9966708D01*
X9071979Y9947721D01*
X9121744Y9927373D01*
X9173553Y9906088D01*
X9226378Y9884290D01*
X9279194Y9862403D01*
X9330976Y9840852D01*
X9380699Y9820060D01*
X9427337Y9800451D01*
X9469864Y9782450D01*
X9507256Y9766481D01*
X9538486Y9752967D01*
X9562529Y9742333D01*
X9578361Y9735003D01*
X9584954Y9731400D01*
X9585790Y9730507D01*
X9587823Y9726203D01*
X9587399Y9719557D01*
X9583948Y9709092D01*
X9576901Y9693333D01*
X9565690Y9670802D01*
X9549744Y9640022D01*
X9506226Y9556768D01*
X9542045Y9503144D01*
X9548032Y9494219D01*
X9564265Y9470219D01*
X9584644Y9440273D01*
X9607722Y9406502D01*
X9632047Y9371029D01*
X9656172Y9335979D01*
X9672665Y9311816D01*
X9692619Y9281849D01*
X9709641Y9255443D01*
X9722869Y9233972D01*
X9731439Y9218807D01*
X9734488Y9211323D01*
X9734295Y9210459D01*
X9728881Y9202284D01*
X9716792Y9187842D01*
X9699050Y9168156D01*
X9676676Y9144246D01*
X9650693Y9117133D01*
X9622123Y9087838D01*
X9591988Y9057382D01*
X9561311Y9026786D01*
X9531112Y8997070D01*
X9502415Y8969255D01*
X9476241Y8944363D01*
X9453613Y8923414D01*
X9435552Y8907429D01*
X9423081Y8897430D01*
X9417222Y8894435D01*
X9411161Y8898037D01*
X9396985Y8907235D01*
X9375820Y8921288D01*
X9348744Y8939470D01*
X9316837Y8961057D01*
X9281178Y8985325D01*
X9242845Y9011548D01*
X9205275Y9037157D01*
X9169517Y9061222D01*
X9137450Y9082489D01*
X9110158Y9100256D01*
X9088721Y9113818D01*
X9074221Y9122471D01*
X9067740Y9125512D01*
X9065747Y9125170D01*
X9054378Y9121606D01*
X9035048Y9114663D01*
X9009282Y9104953D01*
X8978604Y9093090D01*
X8944539Y9079690D01*
X8908612Y9065364D01*
X8872348Y9050729D01*
X8837270Y9036396D01*
X8804904Y9022980D01*
X8776774Y9011095D01*
X8754406Y9001355D01*
X8739323Y8994373D01*
X8733051Y8990764D01*
X8732987Y8990673D01*
X8730755Y8983394D01*
X8726827Y8966527D01*
X8721456Y8941322D01*
X8714897Y8909028D01*
X8707403Y8870896D01*
X8699230Y8828177D01*
X8690631Y8782119D01*
X8681704Y8734227D01*
X8672138Y8684441D01*
X8664086Y8644574D01*
X8657424Y8614065D01*
X8652029Y8592348D01*
X8647775Y8578860D01*
X8644539Y8573037D01*
X8637208Y8571167D01*
X8620225Y8569494D01*
X8595171Y8568111D01*
X8563519Y8567016D01*
X8526741Y8566208D01*
X8486310Y8565686D01*
X8443698Y8565446D01*
X8400379Y8565489D01*
X8357826Y8565811D01*
X8317510Y8566412D01*
X8280904Y8567290D01*
X8249481Y8568443D01*
X8224715Y8569869D01*
X8208077Y8571568D01*
X8201040Y8573536D01*
X8200844Y8573841D01*
X8198242Y8582094D01*
X8193957Y8599848D01*
X8188249Y8625860D01*
X8181377Y8658888D01*
X8173600Y8697689D01*
X8165177Y8741022D01*
X8156368Y8787644D01*
X8147467Y8834636D01*
X8138662Y8879536D01*
X8130588Y8919109D01*
X8123482Y8952238D01*
X8117587Y8977808D01*
X8113140Y8994702D01*
X8110382Y9001804D01*
X8104808Y9005225D01*
X8090173Y9012518D01*
X8068265Y9022737D01*
X8040663Y9035205D01*
X8008948Y9049242D01*
X7974700Y9064170D01*
X7939497Y9079311D01*
X7904920Y9093984D01*
X7872548Y9107512D01*
X7843961Y9119215D01*
X7820740Y9128415D01*
X7804463Y9134432D01*
X7796711Y9136589D01*
X7796070Y9136456D01*
X7787769Y9132190D01*
X7771639Y9122419D01*
X7748726Y9107828D01*
X7720076Y9089098D01*
X7686738Y9066914D01*
X7649758Y9041958D01*
X7610182Y9014912D01*
X7601718Y9009099D01*
X7562674Y8982444D01*
X7526508Y8958011D01*
X7494257Y8936482D01*
X7466957Y8918540D01*
X7445645Y8904868D01*
X7431358Y8896148D01*
X7425134Y8893063D01*
X7419528Y8896811D01*
X7407229Y8907461D01*
X7389278Y8923981D01*
X7366716Y8945340D01*
X7340583Y8970505D01*
X7311917Y8998443D01*
X7281759Y9028123D01*
X7251148Y9058512D01*
X7221125Y9088578D01*
X7192729Y9117288D01*
X7167000Y9143611D01*
X7144978Y9166513D01*
X7127702Y9184964D01*
X7116213Y9197930D01*
X7111550Y9204379D01*
X7112055Y9207829D01*
X7117422Y9219306D01*
X7128516Y9238432D01*
X7145501Y9265466D01*
X7168540Y9300663D01*
X7197797Y9344283D01*
X7233434Y9396583D01*
X7242319Y9409566D01*
X7269107Y9448946D01*
X7293612Y9485325D01*
X7315163Y9517686D01*
X7333091Y9545010D01*
X7346726Y9566279D01*
X7355399Y9580475D01*
X7358438Y9586580D01*
X7357714Y9590093D01*
X7353347Y9603243D01*
X7345612Y9623976D01*
X7335188Y9650664D01*
X7322750Y9681683D01*
X7308974Y9715407D01*
X7294538Y9750210D01*
X7280117Y9784466D01*
X7266388Y9816550D01*
X7254027Y9844837D01*
X7243711Y9867700D01*
X7236116Y9883513D01*
X7231919Y9890652D01*
X7227624Y9893049D01*
X7214599Y9897302D01*
X7192875Y9902796D01*
X7162004Y9909631D01*
X7121538Y9917903D01*
X7071028Y9927712D01*
X7010026Y9939155D01*
X6998917Y9941218D01*
X6952250Y9950031D01*
X6909146Y9958399D01*
X6870826Y9966069D01*
X6838515Y9972789D01*
X6813436Y9978305D01*
X6796812Y9982364D01*
X6789867Y9984713D01*
X6787978Y9991216D01*
X6786264Y10007455D01*
X6784821Y10031888D01*
X6783653Y10063044D01*
X6782760Y10099449D01*
X6782144Y10139631D01*
X6781807Y10182117D01*
X6781750Y10225435D01*
X6781975Y10268110D01*
X6782483Y10308672D01*
X6783278Y10345646D01*
X6784360Y10377560D01*
X6785731Y10402942D01*
X6787393Y10420319D01*
X6789348Y10428217D01*
X6793082Y10430585D01*
X6804683Y10434582D01*
X6824394Y10439679D01*
X6852780Y10446001D01*
X6890409Y10453672D01*
X6937847Y10462818D01*
X6995660Y10473562D01*
X7023972Y10478758D01*
X7076588Y10488468D01*
X7119712Y10496543D01*
X7154305Y10503199D01*
X7181326Y10508651D01*
X7201736Y10513116D01*
X7216494Y10516811D01*
X7226562Y10519952D01*
X7232898Y10522755D01*
X7236464Y10525436D01*
X7238219Y10528212D01*
X7238348Y10528531D01*
X7241605Y10536484D01*
X7248437Y10553129D01*
X7258277Y10577089D01*
X7270562Y10606987D01*
X7284723Y10641446D01*
X7300197Y10679088D01*
X7308524Y10699391D01*
X7324510Y10738814D01*
X7336685Y10769724D01*
X7345443Y10793273D01*
X7351181Y10810615D01*
X7354293Y10822904D01*
X7355173Y10831294D01*
X7354217Y10836938D01*
X7354120Y10837178D01*
X7349474Y10845354D01*
X7339296Y10861455D01*
X7324319Y10884378D01*
X7305274Y10913022D01*
X7282896Y10946283D01*
X7257916Y10983060D01*
X7231066Y11022250D01*
X7228573Y11025876D01*
X7202040Y11064606D01*
X7177572Y11100592D01*
X7155875Y11132774D01*
X7137657Y11160091D01*
X7123626Y11181484D01*
X7114489Y11195892D01*
X7110953Y11202254D01*
X7111965Y11204995D01*
X7119847Y11215493D01*
X7135169Y11233000D01*
X7157563Y11257123D01*
X7186662Y11287467D01*
X7222095Y11323640D01*
X7263495Y11365248D01*
X7264866Y11366617D01*
X7304403Y11405988D01*
X7336953Y11438133D01*
X7363254Y11463723D01*
X7384046Y11483426D01*
X7400067Y11497912D01*
X7412058Y11507848D01*
X7420757Y11513903D01*
X7426903Y11516748D01*
X7431235Y11517050D01*
X7431414Y11517007D01*
X7439292Y11513021D01*
X7455105Y11503464D01*
X7477755Y11489053D01*
X7506145Y11470505D01*
X7539176Y11448538D01*
X7575751Y11423868D01*
X7614771Y11397212D01*
X7652974Y11371150D01*
X7690426Y11346019D01*
X7723890Y11323996D01*
X7752349Y11305733D01*
X7774788Y11291881D01*
X7790192Y11283091D01*
X7797545Y11280014D01*
X7801179Y11280689D01*
X7814715Y11285089D01*
X7835828Y11292995D01*
X7862903Y11303714D01*
X7894322Y11316557D01*
X7928468Y11330832D01*
X7963724Y11345847D01*
X7998473Y11360911D01*
X8031099Y11375332D01*
X8059984Y11388420D01*
X8083512Y11399482D01*
X8100064Y11407829D01*
X8108026Y11412767D01*
X8110313Y11416036D01*
X8113931Y11424893D01*
X8118230Y11439542D01*
X8123404Y11460838D01*
X8129643Y11489637D01*
X8137141Y11526794D01*
X8146088Y11573164D01*
X8156677Y11629603D01*
X8160684Y11651095D01*
X8170856Y11704753D01*
X8179444Y11748472D01*
X8186611Y11782984D01*
X8192519Y11809018D01*
X8197332Y11827308D01*
X8201211Y11838584D01*
X8204321Y11843578D01*
X8206350Y11844589D01*
X8214386Y11846318D01*
X8228458Y11847704D01*
X8249405Y11848774D01*
X8278069Y11849554D01*
X8315288Y11850071D01*
X8361903Y11850353D01*
X8418753Y11850426D01*
X8419980Y11850425D01*
G37*
%TD*%
D12*
%TO.C,J4*%
X1300000Y21010000D03*
D13*
X1300000Y19400000D03*
D12*
X3840000Y21010000D03*
D13*
X3840000Y19400000D03*
D12*
X6380000Y21010000D03*
D14*
X6380000Y19400000D03*
D12*
X8920000Y21010000D03*
D13*
X8920000Y19400000D03*
D12*
X11460000Y21010000D03*
D13*
X11460000Y19400000D03*
D12*
X14000000Y21010000D03*
D13*
X14000000Y19400000D03*
D12*
X16540000Y21010000D03*
D13*
X16540000Y19400000D03*
D12*
X19080000Y21010000D03*
D13*
X19080000Y19400000D03*
D12*
X21620000Y21010000D03*
D13*
X21620000Y19400000D03*
D12*
X24160000Y21010000D03*
D13*
X24160000Y19400000D03*
D12*
X26700000Y21010000D03*
D13*
X26700000Y19400000D03*
D12*
X29240000Y21010000D03*
D14*
X29240000Y19400000D03*
D12*
X31780000Y21010000D03*
D13*
X31780000Y19400000D03*
D12*
X34320000Y21010000D03*
D13*
X34320000Y19400000D03*
D12*
X36860000Y21010000D03*
D13*
X36860000Y19400000D03*
D12*
X39400000Y21010000D03*
D13*
X39400000Y19400000D03*
D12*
X41940000Y21010000D03*
D13*
X41940000Y19400000D03*
D12*
X44480000Y21010000D03*
D13*
X44480000Y19400000D03*
D12*
X47020000Y21010000D03*
D13*
X47020000Y19400000D03*
D12*
X49560000Y21010000D03*
D14*
X49560000Y19400000D03*
%TD*%
D12*
%TO.C,J3*%
X1300000Y-10000D03*
D13*
X1300000Y1600000D03*
D12*
X3840000Y-10000D03*
D13*
X3840000Y1600000D03*
D12*
X6380000Y-10000D03*
D13*
X6380000Y1600000D03*
D12*
X8920000Y-10000D03*
D13*
X8920000Y1600000D03*
D12*
X11460000Y-10000D03*
D13*
X11460000Y1600000D03*
D12*
X14000000Y-10000D03*
D13*
X14000000Y1600000D03*
D12*
X16540000Y-10000D03*
D13*
X16540000Y1600000D03*
D12*
X19080000Y-10000D03*
D13*
X19080000Y1600000D03*
D12*
X21620000Y-10000D03*
D13*
X21620000Y1600000D03*
D12*
X24160000Y-10000D03*
D13*
X24160000Y1600000D03*
D12*
X26700000Y-10000D03*
D13*
X26700000Y1600000D03*
D12*
X29240000Y-10000D03*
D13*
X29240000Y1600000D03*
D12*
X31780000Y-10000D03*
D13*
X31780000Y1600000D03*
D12*
X34320000Y-10000D03*
D13*
X34320000Y1600000D03*
D12*
X36860000Y-10000D03*
D13*
X36860000Y1600000D03*
D12*
X39400000Y-10000D03*
D13*
X39400000Y1600000D03*
D12*
X41940000Y-10000D03*
D13*
X41940000Y1600000D03*
D12*
X44480000Y-10000D03*
D13*
X44480000Y1600000D03*
D12*
X47020000Y-10000D03*
D13*
X47020000Y1600000D03*
D12*
X49560000Y-10000D03*
D14*
X49560000Y1600000D03*
%TD*%
D15*
%TO.C,H3*%
X49510000Y17000000D03*
%TD*%
D16*
%TO.C,J5*%
X51010000Y7950000D03*
D17*
X49400000Y7950000D03*
D16*
X51010000Y10490000D03*
D17*
X49400000Y10490000D03*
D16*
X51010000Y13030000D03*
D17*
X49400000Y13030000D03*
%TD*%
D15*
%TO.C,H2*%
X49510000Y4000000D03*
%TD*%
D18*
%TO.C,J2*%
X5030000Y13400000D03*
X5030000Y7620000D03*
D19*
X5560000Y14830000D03*
D20*
X1380000Y14830000D03*
D19*
X5560000Y6190000D03*
D20*
X1380000Y6190000D03*
%TD*%
D15*
%TO.C,H4*%
X1510000Y17000000D03*
%TD*%
%TO.C,H1*%
X1510000Y4000000D03*
%TD*%
D21*
%TO.C,J9*%
X1375000Y9858334D03*
%TD*%
D22*
%TO.C,J1*%
X43400000Y6675000D03*
D23*
X45940000Y6675000D03*
X43400000Y9215000D03*
X45940000Y9215000D03*
X43400000Y11755000D03*
X45940000Y11755000D03*
X43400000Y14295000D03*
X45940000Y14295000D03*
%TD*%
D21*
%TO.C,J8*%
X1375000Y11141667D03*
%TD*%
%TO.C,J7*%
X1375000Y8575000D03*
%TD*%
D24*
%TO.C,J10*%
X1375000Y12425000D03*
%TD*%
M02*
