%TF.GenerationSoftware,KiCad,Pcbnew,8.0.1*%
%TF.CreationDate,2024-04-07T18:53:55+05:30*%
%TF.ProjectId,Mitayi-Pico-RP2040,4d697461-7969-42d5-9069-636f2d525032,0.6*%
%TF.SameCoordinates,PX73df160PY5f2d3c0*%
%TF.FileFunction,Legend,Top*%
%TF.FilePolarity,Positive*%
%FSLAX46Y46*%
G04 Gerber Fmt 4.6, Leading zero omitted, Abs format (unit mm)*
G04 Created by KiCad (PCBNEW 8.0.1) date 2024-04-07 18:53:55*
%MOMM*%
%LPD*%
G01*
G04 APERTURE LIST*
%ADD10C,0.150000*%
%ADD11C,0.120000*%
%ADD12C,0.000000*%
G04 APERTURE END LIST*
D10*
X47300000Y15650000D02*
X47300000Y5350000D01*
X42050000Y15650000D02*
X47300000Y15650000D01*
X42050000Y15650000D02*
X42050000Y5350000D01*
X47300000Y5350000D02*
X42050000Y5350000D01*
X3516033Y16833333D02*
X3516033Y17266667D01*
X3516033Y17266667D02*
X3782700Y17033333D01*
X3782700Y17033333D02*
X3782700Y17133333D01*
X3782700Y17133333D02*
X3816033Y17200000D01*
X3816033Y17200000D02*
X3849366Y17233333D01*
X3849366Y17233333D02*
X3916033Y17266667D01*
X3916033Y17266667D02*
X4082700Y17266667D01*
X4082700Y17266667D02*
X4149366Y17233333D01*
X4149366Y17233333D02*
X4182700Y17200000D01*
X4182700Y17200000D02*
X4216033Y17133333D01*
X4216033Y17133333D02*
X4216033Y16933333D01*
X4216033Y16933333D02*
X4182700Y16866667D01*
X4182700Y16866667D02*
X4149366Y16833333D01*
X4216033Y17600000D02*
X4216033Y17733334D01*
X4216033Y17733334D02*
X4182700Y17800000D01*
X4182700Y17800000D02*
X4149366Y17833334D01*
X4149366Y17833334D02*
X4049366Y17900000D01*
X4049366Y17900000D02*
X3916033Y17933334D01*
X3916033Y17933334D02*
X3649366Y17933334D01*
X3649366Y17933334D02*
X3582700Y17900000D01*
X3582700Y17900000D02*
X3549366Y17866667D01*
X3549366Y17866667D02*
X3516033Y17800000D01*
X3516033Y17800000D02*
X3516033Y17666667D01*
X3516033Y17666667D02*
X3549366Y17600000D01*
X3549366Y17600000D02*
X3582700Y17566667D01*
X3582700Y17566667D02*
X3649366Y17533334D01*
X3649366Y17533334D02*
X3816033Y17533334D01*
X3816033Y17533334D02*
X3882700Y17566667D01*
X3882700Y17566667D02*
X3916033Y17600000D01*
X3916033Y17600000D02*
X3949366Y17666667D01*
X3949366Y17666667D02*
X3949366Y17800000D01*
X3949366Y17800000D02*
X3916033Y17866667D01*
X3916033Y17866667D02*
X3882700Y17900000D01*
X3882700Y17900000D02*
X3816033Y17933334D01*
X21316033Y16933333D02*
X21316033Y17366667D01*
X21316033Y17366667D02*
X21582700Y17133333D01*
X21582700Y17133333D02*
X21582700Y17233333D01*
X21582700Y17233333D02*
X21616033Y17300000D01*
X21616033Y17300000D02*
X21649366Y17333333D01*
X21649366Y17333333D02*
X21716033Y17366667D01*
X21716033Y17366667D02*
X21882700Y17366667D01*
X21882700Y17366667D02*
X21949366Y17333333D01*
X21949366Y17333333D02*
X21982700Y17300000D01*
X21982700Y17300000D02*
X22016033Y17233333D01*
X22016033Y17233333D02*
X22016033Y17033333D01*
X22016033Y17033333D02*
X21982700Y16966667D01*
X21982700Y16966667D02*
X21949366Y16933333D01*
X21382700Y17633334D02*
X21349366Y17666667D01*
X21349366Y17666667D02*
X21316033Y17733334D01*
X21316033Y17733334D02*
X21316033Y17900000D01*
X21316033Y17900000D02*
X21349366Y17966667D01*
X21349366Y17966667D02*
X21382700Y18000000D01*
X21382700Y18000000D02*
X21449366Y18033334D01*
X21449366Y18033334D02*
X21516033Y18033334D01*
X21516033Y18033334D02*
X21616033Y18000000D01*
X21616033Y18000000D02*
X22016033Y17600000D01*
X22016033Y17600000D02*
X22016033Y18033334D01*
X43045238Y4340867D02*
X43045238Y4302772D01*
X43083333Y4417058D02*
X43083333Y4302772D01*
X43121428Y4493248D02*
X43121428Y4302772D01*
X43159523Y4569439D02*
X43159523Y4302772D01*
X43197618Y4607534D02*
X43197618Y4302772D01*
X43235714Y4683724D02*
X43235714Y4302772D01*
X43273809Y4759915D02*
X43273809Y4302772D01*
X43311904Y4836105D02*
X43311904Y4302772D01*
X43349999Y4912296D02*
X43349999Y4302772D01*
X43388095Y4836105D02*
X43388095Y4302772D01*
X43426190Y4759915D02*
X43426190Y4302772D01*
X43464285Y4683724D02*
X43464285Y4302772D01*
X43502380Y4607534D02*
X43502380Y4302772D01*
X43540476Y4569439D02*
X43540476Y4302772D01*
X43578571Y4493248D02*
X43578571Y4302772D01*
X43616666Y4417058D02*
X43616666Y4302772D01*
X43654761Y4302772D02*
X43349999Y4874200D01*
X43349999Y4874200D02*
X43045238Y4302772D01*
X43654761Y4340867D02*
X43654761Y4302772D01*
X43349999Y4912296D02*
X43692857Y4302772D01*
X43692857Y4302772D02*
X43007142Y4302772D01*
X43007142Y4302772D02*
X43349999Y4912296D01*
X27016033Y3566667D02*
X27016033Y3166667D01*
X27016033Y3366667D02*
X26316033Y3366667D01*
X26316033Y3366667D02*
X26416033Y3300000D01*
X26416033Y3300000D02*
X26482700Y3233333D01*
X26482700Y3233333D02*
X26516033Y3166667D01*
X27016033Y4233334D02*
X27016033Y3833334D01*
X27016033Y4033334D02*
X26316033Y4033334D01*
X26316033Y4033334D02*
X26416033Y3966667D01*
X26416033Y3966667D02*
X26482700Y3900000D01*
X26482700Y3900000D02*
X26516033Y3833334D01*
X46782700Y16866667D02*
X46749366Y16900000D01*
X46749366Y16900000D02*
X46716033Y16966667D01*
X46716033Y16966667D02*
X46716033Y17133333D01*
X46716033Y17133333D02*
X46749366Y17200000D01*
X46749366Y17200000D02*
X46782700Y17233333D01*
X46782700Y17233333D02*
X46849366Y17266667D01*
X46849366Y17266667D02*
X46916033Y17266667D01*
X46916033Y17266667D02*
X47016033Y17233333D01*
X47016033Y17233333D02*
X47416033Y16833333D01*
X47416033Y16833333D02*
X47416033Y17266667D01*
X46782700Y17533334D02*
X46749366Y17566667D01*
X46749366Y17566667D02*
X46716033Y17633334D01*
X46716033Y17633334D02*
X46716033Y17800000D01*
X46716033Y17800000D02*
X46749366Y17866667D01*
X46749366Y17866667D02*
X46782700Y17900000D01*
X46782700Y17900000D02*
X46849366Y17933334D01*
X46849366Y17933334D02*
X46916033Y17933334D01*
X46916033Y17933334D02*
X47016033Y17900000D01*
X47016033Y17900000D02*
X47416033Y17500000D01*
X47416033Y17500000D02*
X47416033Y17933334D01*
X8799366Y3133334D02*
X9266033Y3133334D01*
X8532700Y2966667D02*
X9032700Y2800001D01*
X9032700Y2800001D02*
X9032700Y3233334D01*
X47416033Y3566667D02*
X47416033Y3166667D01*
X47416033Y3366667D02*
X46716033Y3366667D01*
X46716033Y3366667D02*
X46816033Y3300000D01*
X46816033Y3300000D02*
X46882700Y3233333D01*
X46882700Y3233333D02*
X46916033Y3166667D01*
X47416033Y3900000D02*
X47416033Y4033334D01*
X47416033Y4033334D02*
X47382700Y4100000D01*
X47382700Y4100000D02*
X47349366Y4133334D01*
X47349366Y4133334D02*
X47249366Y4200000D01*
X47249366Y4200000D02*
X47116033Y4233334D01*
X47116033Y4233334D02*
X46849366Y4233334D01*
X46849366Y4233334D02*
X46782700Y4200000D01*
X46782700Y4200000D02*
X46749366Y4166667D01*
X46749366Y4166667D02*
X46716033Y4100000D01*
X46716033Y4100000D02*
X46716033Y3966667D01*
X46716033Y3966667D02*
X46749366Y3900000D01*
X46749366Y3900000D02*
X46782700Y3866667D01*
X46782700Y3866667D02*
X46849366Y3833334D01*
X46849366Y3833334D02*
X47016033Y3833334D01*
X47016033Y3833334D02*
X47082700Y3866667D01*
X47082700Y3866667D02*
X47116033Y3900000D01*
X47116033Y3900000D02*
X47149366Y3966667D01*
X47149366Y3966667D02*
X47149366Y4100000D01*
X47149366Y4100000D02*
X47116033Y4166667D01*
X47116033Y4166667D02*
X47082700Y4200000D01*
X47082700Y4200000D02*
X47016033Y4233334D01*
X23316667Y7633967D02*
X23316667Y7667300D01*
X23283333Y7567300D02*
X23283333Y7667300D01*
X23250000Y7500634D02*
X23250000Y7667300D01*
X23216667Y7433967D02*
X23216667Y7667300D01*
X23183333Y7400634D02*
X23183333Y7667300D01*
X23150000Y7333967D02*
X23150000Y7667300D01*
X23116667Y7267300D02*
X23116667Y7667300D01*
X23083333Y7200634D02*
X23083333Y7667300D01*
X23050000Y7133967D02*
X23050000Y7667300D01*
X23016667Y7200634D02*
X23016667Y7667300D01*
X22983333Y7267300D02*
X22983333Y7667300D01*
X22950000Y7333967D02*
X22950000Y7667300D01*
X22916667Y7400634D02*
X22916667Y7667300D01*
X22883333Y7433967D02*
X22883333Y7667300D01*
X22850000Y7500634D02*
X22850000Y7667300D01*
X22816667Y7567300D02*
X22816667Y7667300D01*
X22783333Y7667300D02*
X23050000Y7167300D01*
X23050000Y7167300D02*
X23316667Y7667300D01*
X22783333Y7633967D02*
X22783333Y7667300D01*
X23050000Y7133967D02*
X22750000Y7667300D01*
X22750000Y7667300D02*
X23350000Y7667300D01*
X23350000Y7667300D02*
X23050000Y7133967D01*
X27754762Y15559134D02*
X27754762Y15597229D01*
X27716666Y15482943D02*
X27716666Y15597229D01*
X27678571Y15406753D02*
X27678571Y15597229D01*
X27640476Y15330562D02*
X27640476Y15597229D01*
X27602381Y15292467D02*
X27602381Y15597229D01*
X27564285Y15216277D02*
X27564285Y15597229D01*
X27526190Y15140086D02*
X27526190Y15597229D01*
X27488095Y15063896D02*
X27488095Y15597229D01*
X27450000Y14987705D02*
X27450000Y15597229D01*
X27411904Y15063896D02*
X27411904Y15597229D01*
X27373809Y15140086D02*
X27373809Y15597229D01*
X27335714Y15216277D02*
X27335714Y15597229D01*
X27297619Y15292467D02*
X27297619Y15597229D01*
X27259523Y15330562D02*
X27259523Y15597229D01*
X27221428Y15406753D02*
X27221428Y15597229D01*
X27183333Y15482943D02*
X27183333Y15597229D01*
X27145238Y15597229D02*
X27450000Y15025800D01*
X27450000Y15025800D02*
X27754762Y15597229D01*
X27145238Y15559134D02*
X27145238Y15597229D01*
X27450000Y14987705D02*
X27107142Y15597229D01*
X27107142Y15597229D02*
X27792857Y15597229D01*
X27792857Y15597229D02*
X27450000Y14987705D01*
%TO.C,JP6*%
X22785000Y6890000D02*
X23285000Y6890000D01*
X23735000Y6440000D02*
X23735000Y4435000D01*
X22335000Y4440000D02*
X22335000Y6440000D01*
X23285000Y3990000D02*
X22785000Y3990000D01*
X23285000Y6890000D02*
G75*
G02*
X23735000Y6440000I0J-450000D01*
G01*
X22335000Y6440000D02*
G75*
G02*
X22785000Y6890000I450000J0D01*
G01*
X23735000Y4440000D02*
G75*
G02*
X23285000Y3990000I-450000J0D01*
G01*
X22785000Y3990000D02*
G75*
G02*
X22335000Y4440000I0J450000D01*
G01*
D11*
%TO.C,JP5*%
X31542379Y17780000D02*
X31877621Y17780000D01*
X31542379Y17020000D02*
X31877621Y17020000D01*
D12*
%TO.C,kibuzzard-66126165*%
G36*
X23318651Y3180692D02*
G01*
X23350599Y3159439D01*
X23373936Y3078874D01*
X23368935Y3039980D01*
X23353377Y3003309D01*
X23326152Y2975528D01*
X23286147Y2964415D01*
X23237807Y2978306D01*
X23207248Y3015532D01*
X23191691Y3068317D01*
X23187246Y3129991D01*
X23187801Y3151105D01*
X23189468Y3171107D01*
X23226139Y3183331D01*
X23269478Y3187776D01*
X23318651Y3180692D01*
G37*
G36*
X23646192Y2730867D02*
G01*
X23507286Y2730867D01*
X23289481Y2730867D01*
X22688294Y2730867D01*
X22492714Y2730867D01*
X22353808Y2730867D01*
X22353808Y2907741D01*
X22492714Y2907741D01*
X22571613Y2864402D01*
X22624120Y2851067D01*
X22688294Y2846622D01*
X22749969Y2851484D01*
X22801642Y2866069D01*
X22844008Y2888989D01*
X22877762Y2918854D01*
X22919990Y2996641D01*
X22929575Y3042480D01*
X22932769Y3091097D01*
X22932769Y3142215D01*
X23052784Y3142215D01*
X23059514Y3049673D01*
X23079701Y2975034D01*
X23113347Y2918298D01*
X23159835Y2878478D01*
X23218546Y2854586D01*
X23289481Y2846622D01*
X23342265Y2852040D01*
X23387271Y2868292D01*
X23455057Y2924410D01*
X23494506Y2999975D01*
X23507286Y3081096D01*
X23495617Y3165551D01*
X23457279Y3235560D01*
X23388937Y3283344D01*
X23342682Y3296679D01*
X23287258Y3301124D01*
X23251698Y3296123D01*
X23210582Y3282232D01*
X23248920Y3354464D01*
X23310594Y3401692D01*
X23388382Y3427806D01*
X23475059Y3436696D01*
X23467281Y3553378D01*
X23378103Y3546710D01*
X23297259Y3526708D01*
X23226139Y3493648D01*
X23166132Y3447809D01*
X23117931Y3389468D01*
X23082232Y3318904D01*
X23060146Y3236393D01*
X23052784Y3142215D01*
X22932769Y3142215D01*
X22932769Y3548933D01*
X22564946Y3548933D01*
X22564946Y3435585D01*
X22794974Y3435585D01*
X22794974Y3098876D01*
X22786779Y3034285D01*
X22762192Y2993863D01*
X22724271Y2972610D01*
X22676071Y2965526D01*
X22606617Y2982195D01*
X22544943Y3016644D01*
X22492714Y2907741D01*
X22353808Y2907741D01*
X22353808Y3669133D01*
X22492714Y3669133D01*
X23507286Y3669133D01*
X23646192Y3669133D01*
X23646192Y2730867D01*
G37*
D11*
%TO.C,D2*%
X34150000Y16295000D02*
X36435000Y16295000D01*
X36435000Y17765000D02*
X34150000Y17765000D01*
X36435000Y16295000D02*
X36435000Y17765000D01*
%TO.C,C17*%
X37327836Y8870000D02*
X37112164Y8870000D01*
X37327836Y8150000D02*
X37112164Y8150000D01*
%TO.C,C12*%
X24310000Y5297836D02*
X24310000Y5082164D01*
X25030000Y5297836D02*
X25030000Y5082164D01*
D12*
%TO.C,kibuzzard-660C3D9D*%
G36*
X18317162Y3036103D02*
G01*
X18348833Y2964427D01*
X18337720Y2914977D01*
X18309383Y2884973D01*
X18269934Y2870527D01*
X18224373Y2866638D01*
X18190479Y2867749D01*
X18158809Y2871083D01*
X18158809Y3057773D01*
X18232151Y3057773D01*
X18317162Y3036103D01*
G37*
G36*
X18257710Y3330584D02*
G01*
X18288825Y3319472D01*
X18309939Y3296136D01*
X18317718Y3256686D01*
X18291048Y3193901D01*
X18212149Y3171120D01*
X18158809Y3171120D01*
X18158809Y3328917D01*
X18188813Y3332251D01*
X18221039Y3333362D01*
X18257710Y3330584D01*
G37*
G36*
X19710967Y3536322D02*
G01*
X19794422Y3511007D01*
X19871334Y3469896D01*
X19938748Y3414571D01*
X19994073Y3347157D01*
X20035184Y3270245D01*
X20060499Y3186790D01*
X20069047Y3100000D01*
X20060499Y3013210D01*
X20035184Y2929755D01*
X19994073Y2852843D01*
X19938748Y2785429D01*
X19871334Y2730104D01*
X19794422Y2688993D01*
X19710967Y2663678D01*
X19624177Y2655130D01*
X19577875Y2655130D01*
X19467861Y2655130D01*
X18864453Y2655130D01*
X18213260Y2655130D01*
X18022125Y2655130D01*
X17975823Y2655130D01*
X17889033Y2663678D01*
X17805578Y2688993D01*
X17728666Y2730104D01*
X17682811Y2767736D01*
X18022125Y2767736D01*
X18070187Y2758985D01*
X18118804Y2752734D01*
X18166865Y2748984D01*
X18213260Y2747734D01*
X18268128Y2750373D01*
X18319384Y2758291D01*
X18365501Y2772459D01*
X18404951Y2793851D01*
X18462180Y2860526D01*
X18478015Y2907337D01*
X18483294Y2964427D01*
X18477043Y3011100D01*
X18458291Y3055550D01*
X18422036Y3094444D01*
X18363279Y3124447D01*
X18427176Y3184455D01*
X18445095Y3225016D01*
X18451068Y3271133D01*
X18441066Y3335585D01*
X18403284Y3393926D01*
X18326608Y3436153D01*
X18287903Y3444488D01*
X18545524Y3444488D01*
X18545524Y3331140D01*
X18726658Y3331140D01*
X18726658Y2756624D01*
X18864453Y2756624D01*
X18864453Y3331140D01*
X19045586Y3331140D01*
X19045586Y3444488D01*
X19124485Y3444488D01*
X19124485Y2756624D01*
X19247834Y2756624D01*
X19247834Y3213348D01*
X19289135Y3137103D01*
X19328585Y3060983D01*
X19366182Y2984986D01*
X19401927Y2908988D01*
X19435820Y2832868D01*
X19467861Y2756624D01*
X19577875Y2756624D01*
X19577875Y3444488D01*
X19454526Y3444488D01*
X19454526Y3021101D01*
X19434940Y3064440D01*
X19411743Y3114446D01*
X19385629Y3168620D01*
X19357292Y3224460D01*
X19327427Y3281273D01*
X19296729Y3338363D01*
X19265614Y3393509D01*
X19234499Y3444488D01*
X19124485Y3444488D01*
X19045586Y3444488D01*
X18545524Y3444488D01*
X18287903Y3444488D01*
X18270489Y3448238D01*
X18199925Y3452266D01*
X18107691Y3447266D01*
X18022125Y3435598D01*
X18022125Y2767736D01*
X17682811Y2767736D01*
X17661252Y2785429D01*
X17605927Y2852843D01*
X17564816Y2929755D01*
X17539501Y3013210D01*
X17530953Y3100000D01*
X17539501Y3186790D01*
X17564816Y3270245D01*
X17605927Y3347157D01*
X17661252Y3414571D01*
X17728666Y3469896D01*
X17805578Y3511007D01*
X17889033Y3536322D01*
X17975823Y3544870D01*
X18022125Y3544870D01*
X19577875Y3544870D01*
X19624177Y3544870D01*
X19710967Y3536322D01*
G37*
D11*
%TO.C,C13*%
X9200000Y14950580D02*
X9200000Y14669420D01*
X10220000Y14950580D02*
X10220000Y14669420D01*
%TO.C,C6*%
X30240000Y5187836D02*
X30240000Y4972164D01*
X30960000Y5187836D02*
X30960000Y4972164D01*
%TO.C,C11*%
X21177836Y16265000D02*
X20962164Y16265000D01*
X21177836Y15545000D02*
X20962164Y15545000D01*
D12*
%TO.C,kibuzzard-631DD065*%
G36*
X44457745Y16809080D02*
G01*
X44487590Y16742405D01*
X44471080Y16674460D01*
X44415200Y16610325D01*
X44352653Y16640170D01*
X44312330Y16668745D01*
X44283120Y16741135D01*
X44314235Y16808445D01*
X44385990Y16831305D01*
X44457745Y16809080D01*
G37*
G36*
X44415200Y16472530D02*
G01*
X44469175Y16440780D01*
X44499655Y16405855D01*
X44509180Y16361405D01*
X44475525Y16296000D01*
X44384720Y16268695D01*
X44298995Y16294730D01*
X44262800Y16371565D01*
X44281850Y16440780D01*
X44336460Y16506185D01*
X44415200Y16472530D01*
G37*
G36*
X43791789Y16807651D02*
G01*
X43835445Y16786220D01*
X43863544Y16747644D01*
X43872910Y16689065D01*
X43863385Y16627311D01*
X43834810Y16586830D01*
X43787503Y16564446D01*
X43721780Y16556985D01*
X43658280Y16556985D01*
X43658280Y16810985D01*
X43697015Y16814160D01*
X43735750Y16814795D01*
X43791789Y16807651D01*
G37*
G36*
X42243500Y17172512D02*
G01*
X44656500Y17172512D01*
X44921083Y17172512D01*
X44921083Y15927488D01*
X44656500Y15927488D01*
X42243500Y15927488D01*
X41978917Y15927488D01*
X41978917Y16941795D01*
X42243500Y16941795D01*
X42243500Y16155665D01*
X42747690Y16155665D01*
X42812460Y16155665D01*
X42981370Y16155665D01*
X43010580Y16224404D01*
X43044870Y16301080D01*
X43081700Y16380296D01*
X43118530Y16456655D01*
X43155836Y16377915D01*
X43191555Y16299175D01*
X43223781Y16223927D01*
X43250610Y16155665D01*
X43419520Y16155665D01*
X43502070Y16155665D01*
X43658280Y16155665D01*
X43658280Y16352515D01*
X44116750Y16352515D01*
X44135800Y16262980D01*
X44189775Y16195670D01*
X44273595Y16153760D01*
X44325189Y16142806D01*
X44382180Y16139155D01*
X44452348Y16144235D01*
X44510450Y16159475D01*
X44594905Y16210910D01*
X44641895Y16281395D01*
X44656500Y16358865D01*
X44649039Y16416015D01*
X44626655Y16468085D01*
X44586174Y16515710D01*
X44524420Y16559525D01*
X44573950Y16599371D01*
X44608240Y16647790D01*
X44628243Y16700971D01*
X44634910Y16755105D01*
X44618241Y16839560D01*
X44568235Y16904965D01*
X44489971Y16946875D01*
X44388530Y16960845D01*
X44323125Y16955448D01*
X44269150Y16939255D01*
X44191680Y16884645D01*
X44149135Y16810350D01*
X44135800Y16730975D01*
X44156120Y16639535D01*
X44185330Y16597625D01*
X44232320Y16558255D01*
X44180568Y16514599D01*
X44144690Y16464910D01*
X44123735Y16410459D01*
X44116750Y16352515D01*
X43658280Y16352515D01*
X43658280Y16421095D01*
X43714160Y16421095D01*
X43808069Y16428080D01*
X43886598Y16449035D01*
X43949745Y16483960D01*
X43995959Y16534548D01*
X44023687Y16602493D01*
X44032930Y16687795D01*
X44023758Y16772250D01*
X43996241Y16839348D01*
X43950380Y16889090D01*
X43887868Y16923309D01*
X43810398Y16943841D01*
X43717970Y16950685D01*
X43668440Y16949415D01*
X43611290Y16946240D01*
X43553505Y16940525D01*
X43502070Y16931635D01*
X43502070Y16155665D01*
X43419520Y16155665D01*
X43385230Y16238850D01*
X43361894Y16289650D01*
X43335065Y16344260D01*
X43305379Y16401569D01*
X43273470Y16460465D01*
X43240132Y16518885D01*
X43206160Y16574765D01*
X43406820Y16941795D01*
X43249340Y16941795D01*
X43118530Y16690335D01*
X42994070Y16941795D01*
X42825160Y16941795D01*
X43030900Y16570955D01*
X42999785Y16515234D01*
X42967400Y16457290D01*
X42935174Y16399029D01*
X42904535Y16342355D01*
X42875960Y16288380D01*
X42849925Y16238215D01*
X42812460Y16155665D01*
X42747690Y16155665D01*
X42747690Y16285205D01*
X42399710Y16285205D01*
X42399710Y16506185D01*
X42677840Y16506185D01*
X42677840Y16635725D01*
X42399710Y16635725D01*
X42399710Y16812255D01*
X42719750Y16812255D01*
X42719750Y16941795D01*
X42243500Y16941795D01*
X41978917Y16941795D01*
X41978917Y17172512D01*
X42243500Y17172512D01*
G37*
%TO.C,kibuzzard-632CA15B*%
G36*
X28484885Y15994990D02*
G01*
X28307085Y15994990D01*
X28345185Y16067380D01*
X28390270Y16140405D01*
X28437895Y16209620D01*
X28484885Y16271850D01*
X28484885Y15994990D01*
G37*
G36*
X25910912Y16333128D02*
G01*
X25955045Y16311220D01*
X25983620Y16273755D01*
X25993145Y16219780D01*
X25957585Y16131515D01*
X25910912Y16108179D01*
X25842015Y16100400D01*
X25807725Y16100400D01*
X25807725Y16336620D01*
X25833125Y16339795D01*
X25854715Y16340430D01*
X25910912Y16333128D01*
G37*
G36*
X26576234Y16333286D02*
G01*
X26619890Y16311855D01*
X26647989Y16273279D01*
X26657355Y16214700D01*
X26647830Y16152946D01*
X26619255Y16112465D01*
X26571947Y16090081D01*
X26506225Y16082620D01*
X26442725Y16082620D01*
X26442725Y16336620D01*
X26481460Y16339795D01*
X26520195Y16340430D01*
X26576234Y16333286D01*
G37*
G36*
X27862426Y16334239D02*
G01*
X27903860Y16281375D01*
X27922557Y16227259D01*
X27933776Y16158891D01*
X27937515Y16076270D01*
X27933776Y15992944D01*
X27922557Y15924152D01*
X27903860Y15869895D01*
X27862426Y15817031D01*
X27805435Y15799410D01*
X27749238Y15817031D01*
X27707645Y15869895D01*
X27688595Y15924152D01*
X27677165Y15992944D01*
X27673355Y16076270D01*
X27673941Y16088970D01*
X27735585Y16088970D01*
X27754635Y16029915D01*
X27806705Y16005150D01*
X27856870Y16029915D01*
X27876555Y16088970D01*
X27856870Y16148660D01*
X27806705Y16174060D01*
X27754635Y16148660D01*
X27735585Y16088970D01*
X27673941Y16088970D01*
X27677165Y16158891D01*
X27688595Y16227259D01*
X27707645Y16281375D01*
X27749238Y16334239D01*
X27805435Y16351860D01*
X27862426Y16334239D01*
G37*
G36*
X29132426Y16334239D02*
G01*
X29173860Y16281375D01*
X29192557Y16227259D01*
X29203776Y16158891D01*
X29207515Y16076270D01*
X29203776Y15992944D01*
X29192557Y15924152D01*
X29173860Y15869895D01*
X29132426Y15817031D01*
X29075435Y15799410D01*
X29019238Y15817031D01*
X28977645Y15869895D01*
X28958595Y15924152D01*
X28947165Y15992944D01*
X28943355Y16076270D01*
X28943941Y16088970D01*
X29005585Y16088970D01*
X29024635Y16029915D01*
X29076705Y16005150D01*
X29126870Y16029915D01*
X29146555Y16088970D01*
X29126870Y16148660D01*
X29076705Y16174060D01*
X29024635Y16148660D01*
X29005585Y16088970D01*
X28943941Y16088970D01*
X28947165Y16158891D01*
X28958595Y16227259D01*
X28977645Y16281375D01*
X29019238Y16334239D01*
X29075435Y16351860D01*
X29132426Y16334239D01*
G37*
G36*
X25651515Y16749793D02*
G01*
X29348485Y16749793D01*
X29771818Y16749793D01*
X29771818Y15400207D01*
X29348485Y15400207D01*
X25651515Y15400207D01*
X25228182Y15400207D01*
X25228182Y15681300D01*
X25651515Y15681300D01*
X25807725Y15681300D01*
X25807725Y15970860D01*
X25889005Y15970860D01*
X25932026Y15898946D01*
X25972190Y15827985D01*
X26008544Y15756071D01*
X26040135Y15681300D01*
X26203965Y15681300D01*
X26286515Y15681300D01*
X26442725Y15681300D01*
X26442725Y15946730D01*
X26498605Y15946730D01*
X26592514Y15953715D01*
X26671043Y15974670D01*
X26734190Y16009595D01*
X26780404Y16060183D01*
X26808132Y16128128D01*
X26817375Y16213430D01*
X26808203Y16297885D01*
X26780686Y16364983D01*
X26765854Y16381070D01*
X26907545Y16381070D01*
X26985015Y16271850D01*
X27065025Y16331540D01*
X27142495Y16349320D01*
X27216155Y16323285D01*
X27245365Y16248990D01*
X27221870Y16181680D01*
X27162180Y16113100D01*
X27124715Y16076746D01*
X27084710Y16038805D01*
X27044705Y15998482D01*
X27007240Y15954985D01*
X26974220Y15907836D01*
X26947550Y15856560D01*
X26929929Y15800680D01*
X26924055Y15739720D01*
X26923420Y15713050D01*
X26926595Y15681300D01*
X27439675Y15681300D01*
X27439675Y15810840D01*
X27101855Y15810840D01*
X27115190Y15852750D01*
X27147575Y15897835D01*
X27188215Y15941015D01*
X27226315Y15977210D01*
X27291085Y16040710D01*
X27320718Y16076270D01*
X27532385Y16076270D01*
X27536751Y15978797D01*
X27549848Y15894660D01*
X27571676Y15823857D01*
X27602235Y15766390D01*
X27655857Y15709946D01*
X27723591Y15676079D01*
X27805435Y15664790D01*
X27887279Y15676079D01*
X27955013Y15709946D01*
X28008635Y15766390D01*
X28039194Y15823857D01*
X28052409Y15866720D01*
X28157225Y15866720D01*
X28484885Y15866720D01*
X28484885Y15681300D01*
X28641095Y15681300D01*
X28641095Y15866720D01*
X28726185Y15866720D01*
X28726185Y15994990D01*
X28641095Y15994990D01*
X28641095Y16076270D01*
X28802385Y16076270D01*
X28806751Y15978797D01*
X28819848Y15894660D01*
X28841676Y15823857D01*
X28872235Y15766390D01*
X28925857Y15709946D01*
X28993591Y15676079D01*
X29075435Y15664790D01*
X29157279Y15676079D01*
X29225013Y15709946D01*
X29278635Y15766390D01*
X29309194Y15823857D01*
X29331023Y15894660D01*
X29344119Y15978797D01*
X29348485Y16076270D01*
X29344119Y16173147D01*
X29331023Y16256769D01*
X29309194Y16327135D01*
X29278635Y16384245D01*
X29225013Y16440337D01*
X29157279Y16473992D01*
X29075435Y16485210D01*
X28994861Y16473921D01*
X28927551Y16440054D01*
X28873505Y16383610D01*
X28842390Y16326301D01*
X28820165Y16255975D01*
X28806830Y16172631D01*
X28802385Y16076270D01*
X28641095Y16076270D01*
X28641095Y16467430D01*
X28501395Y16467430D01*
X28450595Y16413296D01*
X28399795Y16352495D01*
X28350265Y16287884D01*
X28303275Y16222320D01*
X28259460Y16157074D01*
X28219455Y16093415D01*
X28184848Y16033884D01*
X28157225Y15981020D01*
X28157225Y15866720D01*
X28052409Y15866720D01*
X28061023Y15894660D01*
X28074119Y15978797D01*
X28078485Y16076270D01*
X28074119Y16173147D01*
X28061023Y16256769D01*
X28039194Y16327135D01*
X28008635Y16384245D01*
X27955013Y16440337D01*
X27887279Y16473992D01*
X27805435Y16485210D01*
X27724861Y16473921D01*
X27657551Y16440054D01*
X27603505Y16383610D01*
X27572390Y16326301D01*
X27550165Y16255975D01*
X27536830Y16172631D01*
X27532385Y16076270D01*
X27320718Y16076270D01*
X27348235Y16109290D01*
X27388875Y16182315D01*
X27404115Y16260420D01*
X27383795Y16358845D01*
X27329185Y16429330D01*
X27250445Y16471240D01*
X27157735Y16485210D01*
X27091536Y16478860D01*
X27025020Y16459810D01*
X26962314Y16427425D01*
X26907545Y16381070D01*
X26765854Y16381070D01*
X26734825Y16414725D01*
X26672313Y16448944D01*
X26594843Y16469476D01*
X26502415Y16476320D01*
X26452885Y16475050D01*
X26395735Y16471875D01*
X26337950Y16466160D01*
X26286515Y16457270D01*
X26286515Y15681300D01*
X26203965Y15681300D01*
X26167770Y15764485D01*
X26123955Y15852115D01*
X26076965Y15935935D01*
X26031245Y16008960D01*
X26086807Y16044837D01*
X26123955Y16094050D01*
X26144910Y16153105D01*
X26151895Y16218510D01*
X26146656Y16280264D01*
X26130940Y16333445D01*
X26070615Y16414090D01*
X26027435Y16441713D01*
X25976635Y16461080D01*
X25918850Y16472510D01*
X25854715Y16476320D01*
X25810265Y16475050D01*
X25756925Y16471875D01*
X25701680Y16465525D01*
X25651515Y16456000D01*
X25651515Y15681300D01*
X25228182Y15681300D01*
X25228182Y16749793D01*
X25651515Y16749793D01*
G37*
D11*
%TO.C,C19*%
X8117836Y5600000D02*
X7902164Y5600000D01*
X8117836Y4880000D02*
X7902164Y4880000D01*
%TO.C,R2*%
X18450000Y8003641D02*
X18450000Y7696359D01*
X19210000Y8003641D02*
X19210000Y7696359D01*
%TO.C,R7*%
X38123641Y17340000D02*
X37816359Y17340000D01*
X38123641Y16580000D02*
X37816359Y16580000D01*
%TO.C,R10*%
X33626359Y10600000D02*
X33933641Y10600000D01*
X33626359Y9840000D02*
X33933641Y9840000D01*
D12*
%TO.C,kibuzzard-66126574*%
G36*
X32898300Y4213531D02*
G01*
X32922113Y4142094D01*
X32922113Y4018269D01*
X32898300Y3949212D01*
X32823688Y3927781D01*
X32668113Y3927781D01*
X32650650Y3945244D01*
X32650650Y4218294D01*
X32668113Y4235756D01*
X32823688Y4235756D01*
X32898300Y4213531D01*
G37*
G36*
X34927919Y3839675D02*
G01*
X34949350Y3767444D01*
X34949350Y3657906D01*
X34927919Y3585675D01*
X34855688Y3564244D01*
X34765200Y3564244D01*
X34693763Y3585675D01*
X34673125Y3657906D01*
X34673125Y3861106D01*
X34855688Y3861106D01*
X34927919Y3839675D01*
G37*
G36*
X33758725Y4214325D02*
G01*
X33779363Y4142094D01*
X33779363Y3657906D01*
X33758725Y3585675D01*
X33687288Y3564244D01*
X33593625Y3564244D01*
X33522188Y3585675D01*
X33501550Y3657906D01*
X33501550Y4142094D01*
X33522188Y4214325D01*
X33593625Y4235756D01*
X33687288Y4235756D01*
X33758725Y4214325D01*
G37*
G36*
X35680129Y3058890D02*
G01*
X35150963Y3058890D01*
X34889025Y3058890D01*
X34298475Y3058890D01*
X33719038Y3058890D01*
X32617313Y3058890D01*
X32449038Y3058890D01*
X31919871Y3058890D01*
X31415205Y3058890D01*
X31524425Y3422956D01*
X32449038Y3422956D01*
X32482375Y3389619D01*
X32617313Y3389619D01*
X32650650Y3422956D01*
X32650650Y3748394D01*
X32669700Y3765856D01*
X32776063Y3765856D01*
X32934813Y3422956D01*
X32955450Y3395969D01*
X32996725Y3389619D01*
X33125313Y3389619D01*
X33152300Y3427719D01*
X33046422Y3648381D01*
X33298350Y3648381D01*
X33315416Y3537653D01*
X33366613Y3456294D01*
X33449163Y3406287D01*
X33560288Y3389619D01*
X33719038Y3389619D01*
X33828972Y3406486D01*
X33855712Y3422956D01*
X34125438Y3422956D01*
X34157188Y3389619D01*
X34298475Y3389619D01*
X34328638Y3422956D01*
X34328638Y3618219D01*
X34298475Y3648381D01*
X34471513Y3648381D01*
X34488578Y3537653D01*
X34539775Y3456294D01*
X34622325Y3406287D01*
X34733450Y3389619D01*
X34889025Y3389619D01*
X35000150Y3406287D01*
X35082700Y3456294D01*
X35133897Y3537653D01*
X35150963Y3648381D01*
X35150963Y3776969D01*
X35133897Y3887697D01*
X35082700Y3969056D01*
X35000150Y4019062D01*
X34889025Y4035731D01*
X34673125Y4035731D01*
X34673125Y4142094D01*
X34694556Y4214325D01*
X34765200Y4235756D01*
X35057300Y4235756D01*
X35090638Y4267506D01*
X35090638Y4377044D01*
X35057300Y4410381D01*
X34733450Y4410381D01*
X34622325Y4393712D01*
X34539775Y4343706D01*
X34488578Y4262347D01*
X34471513Y4151619D01*
X34471513Y3648381D01*
X34298475Y3648381D01*
X34157188Y3648381D01*
X34125438Y3616631D01*
X34125438Y3422956D01*
X33855712Y3422956D01*
X33911125Y3457087D01*
X33962322Y3538645D01*
X33979388Y3648381D01*
X33979388Y4151619D01*
X33962322Y4261355D01*
X33911125Y4342913D01*
X33828972Y4393514D01*
X33719038Y4410381D01*
X33560288Y4410381D01*
X33449163Y4393712D01*
X33366613Y4343706D01*
X33315416Y4262347D01*
X33298350Y4151619D01*
X33298350Y3648381D01*
X33046422Y3648381D01*
X32982438Y3781731D01*
X32982438Y3788081D01*
X33060931Y3840645D01*
X33108026Y3920020D01*
X33123725Y4026206D01*
X33123725Y4150031D01*
X33106263Y4259966D01*
X33053875Y4342119D01*
X32970531Y4393316D01*
X32860200Y4410381D01*
X32482375Y4410381D01*
X32449038Y4377044D01*
X32449038Y3422956D01*
X31524425Y3422956D01*
X31919871Y4741110D01*
X32449038Y4741110D01*
X35150963Y4741110D01*
X35680129Y4741110D01*
X36184795Y4741110D01*
X35680129Y3058890D01*
G37*
%TO.C,kibuzzard-631DCDB3*%
G36*
X10257261Y16737770D02*
G01*
X10101686Y16737770D01*
X10135023Y16801111D01*
X10174473Y16865008D01*
X10216144Y16925571D01*
X10257261Y16980023D01*
X10257261Y16737770D01*
G37*
G36*
X9431602Y17266910D02*
G01*
X10468398Y17266910D01*
X10607304Y17266910D01*
X10607304Y16333090D01*
X10468398Y16333090D01*
X9431602Y16333090D01*
X9292696Y16333090D01*
X9292696Y16509964D01*
X9431602Y16509964D01*
X9510501Y16466625D01*
X9563007Y16453290D01*
X9627182Y16448845D01*
X9688856Y16453707D01*
X9740529Y16468292D01*
X9782896Y16491211D01*
X9816650Y16521076D01*
X9858877Y16598864D01*
X9864454Y16625534D01*
X9970558Y16625534D01*
X10257261Y16625534D01*
X10257261Y16463291D01*
X10393944Y16463291D01*
X10393944Y16625534D01*
X10468398Y16625534D01*
X10468398Y16737770D01*
X10393944Y16737770D01*
X10393944Y17151155D01*
X10271707Y17151155D01*
X10227257Y17103788D01*
X10182807Y17050587D01*
X10139468Y16994052D01*
X10098352Y16936684D01*
X10060014Y16879593D01*
X10025009Y16823892D01*
X9994728Y16771802D01*
X9970558Y16725546D01*
X9970558Y16625534D01*
X9864454Y16625534D01*
X9868462Y16644703D01*
X9871657Y16693320D01*
X9871657Y17151155D01*
X9503833Y17151155D01*
X9503833Y17037808D01*
X9733862Y17037808D01*
X9733862Y16701099D01*
X9725666Y16636507D01*
X9701080Y16596086D01*
X9663159Y16574833D01*
X9614958Y16567749D01*
X9545505Y16584417D01*
X9483831Y16618866D01*
X9431602Y16509964D01*
X9292696Y16509964D01*
X9292696Y17266910D01*
X9431602Y17266910D01*
G37*
D11*
%TO.C,C10*%
X23010000Y16122164D02*
X23010000Y16337836D01*
X23730000Y16122164D02*
X23730000Y16337836D01*
%TO.C,U3*%
X23760000Y14430000D02*
X24410000Y14430000D01*
X23760000Y13780000D02*
X23760000Y14430000D01*
X23760000Y7860000D02*
X23760000Y7210000D01*
X30980000Y14430000D02*
X30330000Y14430000D01*
X30980000Y13780000D02*
X30980000Y14430000D01*
X30980000Y7860000D02*
X30980000Y7210000D01*
X30980000Y7210000D02*
X30330000Y7210000D01*
%TO.C,R5*%
X20896359Y12205000D02*
X21203641Y12205000D01*
X20896359Y11445000D02*
X21203641Y11445000D01*
%TO.C,C2*%
X33662164Y13110000D02*
X33877836Y13110000D01*
X33662164Y12390000D02*
X33877836Y12390000D01*
%TO.C,U1*%
X10825000Y12585000D02*
X10825000Y12325000D01*
X10825000Y7135000D02*
X10825000Y7395000D01*
X13550000Y12585000D02*
X10825000Y12585000D01*
X13550000Y12585000D02*
X16275000Y12585000D01*
X13550000Y7135000D02*
X10825000Y7135000D01*
X13550000Y7135000D02*
X16275000Y7135000D01*
X16275000Y12585000D02*
X16275000Y12325000D01*
X16275000Y7395000D02*
X17950000Y7395000D01*
X16275000Y7135000D02*
X16275000Y7395000D01*
%TO.C,C5*%
X21082836Y11080000D02*
X20867164Y11080000D01*
X21082836Y10360000D02*
X20867164Y10360000D01*
%TO.C,R1*%
X18450000Y10333641D02*
X18450000Y10026359D01*
X19210000Y10333641D02*
X19210000Y10026359D01*
%TO.C,C4*%
X21167836Y14290000D02*
X20952164Y14290000D01*
X21167836Y13570000D02*
X20952164Y13570000D01*
%TO.C,C1*%
X7940000Y6802164D02*
X7940000Y7017836D01*
X8660000Y6802164D02*
X8660000Y7017836D01*
%TO.C,J5*%
X50630000Y6620000D02*
X48700000Y6620000D01*
%TO.C,JP1*%
X11917621Y17880000D02*
X11582379Y17880000D01*
X11917621Y17120000D02*
X11582379Y17120000D01*
%TO.C,R9*%
X17656359Y17680000D02*
X17963641Y17680000D01*
X17656359Y16920000D02*
X17963641Y16920000D01*
%TO.C,C9*%
X33887836Y11990000D02*
X33672164Y11990000D01*
X33887836Y11270000D02*
X33672164Y11270000D01*
%TO.C,C8*%
X31582164Y16460000D02*
X31797836Y16460000D01*
X31582164Y15740000D02*
X31797836Y15740000D01*
%TO.C,C15*%
X18570000Y14649420D02*
X18570000Y14930580D01*
X19590000Y14649420D02*
X19590000Y14930580D01*
%TO.C,J2*%
X-1470000Y15210000D02*
X-1470000Y5810000D01*
X430000Y15210000D02*
X-1470000Y15210000D01*
X430000Y5810000D02*
X-1470000Y5810000D01*
X4330000Y15210000D02*
X2330000Y15210000D01*
X4330000Y5810000D02*
X2330000Y5810000D01*
%TO.C,C16*%
X11787836Y14120000D02*
X11572164Y14120000D01*
X11787836Y13400000D02*
X11572164Y13400000D01*
%TO.C,JP4*%
X11582379Y16130000D02*
X11917621Y16130000D01*
X11582379Y15370000D02*
X11917621Y15370000D01*
%TO.C,R4*%
X7920000Y9503641D02*
X7920000Y9196359D01*
X8680000Y9503641D02*
X8680000Y9196359D01*
%TO.C,Y1*%
X35400000Y9430000D02*
X38700000Y9430000D01*
X38700000Y9430000D02*
X38700000Y13430000D01*
%TO.C,R8*%
X8133641Y4550000D02*
X7826359Y4550000D01*
X8133641Y3790000D02*
X7826359Y3790000D01*
%TO.C,D1*%
X8300000Y17750000D02*
X5150000Y17750000D01*
X8300000Y16050000D02*
X5150000Y16050000D01*
X8300000Y16050000D02*
X8300000Y17750000D01*
%TO.C,D3*%
X4000000Y3465000D02*
X6285000Y3465000D01*
X6285000Y4935000D02*
X4000000Y4935000D01*
X6285000Y3465000D02*
X6285000Y4935000D01*
%TO.C,J6*%
X-37500Y14410000D02*
X212500Y14410000D01*
X-37500Y6610000D02*
X212500Y6610000D01*
X2512500Y14410000D02*
X4362500Y14410000D01*
X2512500Y6610000D02*
X4362500Y6610000D01*
X4362500Y14410000D02*
X4362500Y13960000D01*
X4362500Y6610000D02*
X4362500Y7060000D01*
X4912500Y12210000D02*
X4462500Y12210000D01*
X4912500Y12210000D02*
X4912500Y11760000D01*
D12*
%TO.C,kibuzzard-631DCE60*%
G36*
X29397159Y17866910D02*
G01*
X30402841Y17866910D01*
X30541747Y17866910D01*
X30541747Y16933090D01*
X30402841Y16933090D01*
X29397159Y16933090D01*
X29258253Y16933090D01*
X29258253Y17109964D01*
X29397159Y17109964D01*
X29476058Y17066625D01*
X29528565Y17053290D01*
X29592739Y17048845D01*
X29654414Y17053707D01*
X29706087Y17068292D01*
X29735872Y17084405D01*
X29945006Y17084405D01*
X29976676Y17072181D01*
X30022793Y17060513D01*
X30076133Y17052179D01*
X30130584Y17048845D01*
X30194203Y17053012D01*
X30249488Y17065514D01*
X30296438Y17085516D01*
X30335054Y17112186D01*
X30386172Y17182751D01*
X30402841Y17271095D01*
X30395309Y17335548D01*
X30372713Y17389628D01*
X30335054Y17433338D01*
X30282085Y17466428D01*
X30213558Y17488653D01*
X30129473Y17500013D01*
X30135029Y17563354D01*
X30140586Y17637808D01*
X30377282Y17637808D01*
X30377282Y17751155D01*
X30026127Y17751155D01*
X30021960Y17666283D01*
X30016126Y17578356D01*
X30008347Y17487928D01*
X29998346Y17395555D01*
X30074744Y17393194D01*
X30135029Y17386109D01*
X30215595Y17359439D01*
X30253378Y17318323D01*
X30262823Y17265539D01*
X30257267Y17228867D01*
X30236709Y17197197D01*
X30195593Y17174416D01*
X30129473Y17165526D01*
X30077522Y17168027D01*
X30035017Y17175527D01*
X29972787Y17197752D01*
X29945006Y17084405D01*
X29735872Y17084405D01*
X29748453Y17091211D01*
X29782207Y17121076D01*
X29824435Y17198864D01*
X29834020Y17244703D01*
X29837214Y17293320D01*
X29837214Y17751155D01*
X29469391Y17751155D01*
X29469391Y17637808D01*
X29699419Y17637808D01*
X29699419Y17301099D01*
X29691224Y17236507D01*
X29666637Y17196086D01*
X29628716Y17174833D01*
X29580516Y17167749D01*
X29511062Y17184417D01*
X29449388Y17218866D01*
X29397159Y17109964D01*
X29258253Y17109964D01*
X29258253Y17866910D01*
X29397159Y17866910D01*
G37*
D11*
%TO.C,SW1*%
X9450000Y5900000D02*
X9450000Y4700000D01*
X10300000Y6900000D02*
X14500000Y6900000D01*
X10300000Y6350000D02*
X10300000Y6900000D01*
X10300000Y4250000D02*
X10300000Y3700000D01*
X10300000Y3700000D02*
X14500000Y3700000D01*
X14500000Y6900000D02*
X14500000Y6350000D01*
X14500000Y3700000D02*
X14500000Y4250000D01*
%TO.C,C18*%
X37082164Y14690000D02*
X37297836Y14690000D01*
X37082164Y13970000D02*
X37297836Y13970000D01*
D12*
%TO.C,kibuzzard-631DCCC7*%
G36*
X11937430Y3325862D02*
G01*
X11976046Y3306693D01*
X12001049Y3273911D01*
X12009383Y3226683D01*
X11978268Y3149451D01*
X11937430Y3129031D01*
X11877144Y3122225D01*
X11847141Y3122225D01*
X11847141Y3328918D01*
X11869366Y3331696D01*
X11888257Y3332251D01*
X11937430Y3325862D01*
G37*
G36*
X11710457Y3551538D02*
G01*
X13289543Y3551538D01*
X13335845Y3551538D01*
X13423936Y3542862D01*
X13508641Y3517167D01*
X13586706Y3475440D01*
X13655131Y3419286D01*
X13711285Y3350861D01*
X13753012Y3272796D01*
X13778707Y3188091D01*
X13787383Y3100000D01*
X13778707Y3011909D01*
X13753012Y2927204D01*
X13711285Y2849139D01*
X13655131Y2780714D01*
X13586706Y2724560D01*
X13508641Y2682833D01*
X13423936Y2657138D01*
X13335845Y2648462D01*
X13289543Y2648462D01*
X11710457Y2648462D01*
X11664155Y2648462D01*
X11576064Y2657138D01*
X11491359Y2682833D01*
X11413294Y2724560D01*
X11375578Y2755512D01*
X11710457Y2755512D01*
X11847141Y2755512D01*
X11847141Y3008877D01*
X11918261Y3008877D01*
X11955904Y2945953D01*
X11991048Y2883862D01*
X12022857Y2820937D01*
X12050499Y2755512D01*
X12193851Y2755512D01*
X12177411Y2793295D01*
X12250524Y2793295D01*
X12327201Y2759402D01*
X12386930Y2745650D01*
X12463884Y2741066D01*
X12541857Y2746931D01*
X12605384Y2764526D01*
X12654464Y2793851D01*
X12701553Y2857609D01*
X12717249Y2943314D01*
X12712527Y2995126D01*
X12698358Y3037214D01*
X12650019Y3099444D01*
X12585566Y3139449D01*
X12518336Y3166675D01*
X12475553Y3183344D01*
X12436659Y3203902D01*
X12408322Y3230572D01*
X12397209Y3265576D01*
X12409310Y3309409D01*
X12445610Y3335708D01*
X12506112Y3344475D01*
X12584455Y3333363D01*
X12646129Y3306693D01*
X12654972Y3330029D01*
X12789481Y3330029D01*
X12970614Y3330029D01*
X12970614Y2755512D01*
X13108409Y2755512D01*
X13108409Y3330029D01*
X13289543Y3330029D01*
X13289543Y3443376D01*
X12789481Y3443376D01*
X12789481Y3330029D01*
X12654972Y3330029D01*
X12686134Y3412261D01*
X12606680Y3444488D01*
X12555424Y3455322D01*
X12496111Y3458934D01*
X12428016Y3452884D01*
X12370416Y3434733D01*
X12323311Y3404483D01*
X12276222Y3339474D01*
X12260526Y3253353D01*
X12278306Y3171676D01*
X12323311Y3116669D01*
X12383874Y3079997D01*
X12448327Y3054439D01*
X12494999Y3034992D01*
X12537227Y3011656D01*
X12568342Y2982207D01*
X12580566Y2944425D01*
X12575565Y2911643D01*
X12557229Y2882751D01*
X12521114Y2862748D01*
X12463884Y2855525D01*
X12408461Y2859414D01*
X12362205Y2871082D01*
X12290529Y2904420D01*
X12250524Y2793295D01*
X12177411Y2793295D01*
X12162180Y2828299D01*
X12123842Y2904976D01*
X12082726Y2978318D01*
X12042721Y3042215D01*
X12091338Y3073608D01*
X12123842Y3116669D01*
X12142178Y3168342D01*
X12148289Y3225571D01*
X12143705Y3279606D01*
X12129954Y3326139D01*
X12077169Y3396704D01*
X12039387Y3420873D01*
X11994937Y3437820D01*
X11944375Y3447821D01*
X11888257Y3451155D01*
X11849363Y3450044D01*
X11802691Y3447266D01*
X11754351Y3441709D01*
X11710457Y3433375D01*
X11710457Y2755512D01*
X11375578Y2755512D01*
X11344869Y2780714D01*
X11288715Y2849139D01*
X11246988Y2927204D01*
X11221293Y3011909D01*
X11212617Y3100000D01*
X11221293Y3188091D01*
X11246988Y3272796D01*
X11288715Y3350861D01*
X11344869Y3419286D01*
X11413294Y3475440D01*
X11491359Y3517167D01*
X11576064Y3542862D01*
X11664155Y3551538D01*
X11710457Y3551538D01*
G37*
D11*
%TO.C,C7*%
X21077836Y10080000D02*
X20862164Y10080000D01*
X21077836Y9360000D02*
X20862164Y9360000D01*
%TO.C,R6*%
X20896359Y13205000D02*
X21203641Y13205000D01*
X20896359Y12445000D02*
X21203641Y12445000D01*
D12*
%TO.C,kibuzzard-631DCD0C*%
G36*
X34134898Y15813916D02*
G01*
X34180459Y15762243D01*
X34203796Y15687789D01*
X34210463Y15601111D01*
X34208380Y15552077D01*
X34202129Y15507211D01*
X34174348Y15433312D01*
X34123230Y15384417D01*
X34044887Y15366637D01*
X34032663Y15366637D01*
X34020439Y15367749D01*
X34020439Y15830029D01*
X34040442Y15832807D01*
X34060444Y15833363D01*
X34134898Y15813916D01*
G37*
G36*
X35801773Y15813916D02*
G01*
X35847334Y15762243D01*
X35870671Y15687789D01*
X35877338Y15601111D01*
X35875255Y15552077D01*
X35869004Y15507211D01*
X35841223Y15433312D01*
X35790105Y15384417D01*
X35711762Y15366637D01*
X35699538Y15366637D01*
X35687314Y15367749D01*
X35687314Y15830029D01*
X35707317Y15832807D01*
X35727319Y15833363D01*
X35801773Y15813916D01*
G37*
G36*
X33883756Y16044870D02*
G01*
X36016244Y16044870D01*
X36062546Y16044870D01*
X36149336Y16036322D01*
X36232791Y16011007D01*
X36309703Y15969896D01*
X36377117Y15914571D01*
X36432443Y15847157D01*
X36473553Y15770245D01*
X36498869Y15686790D01*
X36507417Y15600000D01*
X36498869Y15513210D01*
X36473553Y15429755D01*
X36432443Y15352843D01*
X36377117Y15285429D01*
X36309703Y15230104D01*
X36232791Y15188993D01*
X36149336Y15163678D01*
X36062546Y15155130D01*
X36016244Y15155130D01*
X33883756Y15155130D01*
X33837454Y15155130D01*
X33750664Y15163678D01*
X33667209Y15188993D01*
X33590297Y15230104D01*
X33548505Y15264402D01*
X33883756Y15264402D01*
X33958765Y15251623D01*
X34030441Y15247734D01*
X34097532Y15252595D01*
X34158790Y15267181D01*
X34213102Y15292323D01*
X34259358Y15328855D01*
X34297002Y15377333D01*
X34325478Y15438313D01*
X34343396Y15512628D01*
X34349369Y15601111D01*
X34343952Y15687650D01*
X34327700Y15760576D01*
X34301725Y15820861D01*
X34267137Y15869478D01*
X34223937Y15906566D01*
X34172125Y15932264D01*
X34124022Y15944488D01*
X34458272Y15944488D01*
X34458272Y15256624D01*
X34890548Y15256624D01*
X34890548Y15369971D01*
X34596067Y15369971D01*
X34596067Y15944488D01*
X35005007Y15944488D01*
X35005007Y15256624D01*
X35446173Y15256624D01*
X35446173Y15264402D01*
X35550631Y15264402D01*
X35625640Y15251623D01*
X35697316Y15247734D01*
X35764407Y15252595D01*
X35825665Y15267181D01*
X35879977Y15292323D01*
X35926233Y15328855D01*
X35963877Y15377333D01*
X35992353Y15438313D01*
X36010271Y15512628D01*
X36016244Y15601111D01*
X36010827Y15687650D01*
X35994575Y15760576D01*
X35968600Y15820861D01*
X35934012Y15869478D01*
X35890812Y15906566D01*
X35839000Y15932264D01*
X35779965Y15947266D01*
X35715096Y15952266D01*
X35638419Y15948933D01*
X35550631Y15935598D01*
X35550631Y15264402D01*
X35446173Y15264402D01*
X35446173Y15369971D01*
X35141691Y15369971D01*
X35141691Y15563329D01*
X35385054Y15563329D01*
X35385054Y15676676D01*
X35141691Y15676676D01*
X35141691Y15831140D01*
X35421726Y15831140D01*
X35421726Y15944488D01*
X35005007Y15944488D01*
X34596067Y15944488D01*
X34458272Y15944488D01*
X34124022Y15944488D01*
X34113090Y15947266D01*
X34048221Y15952266D01*
X33971544Y15948933D01*
X33883756Y15935598D01*
X33883756Y15264402D01*
X33548505Y15264402D01*
X33522883Y15285429D01*
X33467557Y15352843D01*
X33426447Y15429755D01*
X33401131Y15513210D01*
X33392583Y15600000D01*
X33401131Y15686790D01*
X33426447Y15770245D01*
X33467557Y15847157D01*
X33522883Y15914571D01*
X33590297Y15969896D01*
X33667209Y16011007D01*
X33750664Y16036322D01*
X33837454Y16044870D01*
X33883756Y16044870D01*
G37*
D11*
%TO.C,C14*%
X16615000Y16035000D02*
X16615000Y13325000D01*
X16615000Y13325000D02*
X18185000Y13325000D01*
X18185000Y13325000D02*
X18185000Y16035000D01*
%TO.C,R3*%
X7920000Y14246359D02*
X7920000Y14553641D01*
X8680000Y14246359D02*
X8680000Y14553641D01*
D12*
%TO.C,kibuzzard-660C15DD*%
G36*
X35463045Y5783663D02*
G01*
X35192853Y5783663D01*
X35324298Y6311269D01*
X35331600Y6311269D01*
X35463045Y5783663D01*
G37*
G36*
X38314671Y6306705D02*
G01*
X38338404Y6223639D01*
X38338404Y6070287D01*
X38314671Y5989046D01*
X38232518Y5964400D01*
X38039002Y5964400D01*
X38018920Y5984482D01*
X38018920Y6311269D01*
X38039002Y6331351D01*
X38232518Y6331351D01*
X38314671Y6306705D01*
G37*
G36*
X40431483Y6066635D02*
G01*
X40456129Y5984482D01*
X40456129Y5663172D01*
X40431483Y5581019D01*
X40348417Y5557286D01*
X40255311Y5557286D01*
X40173158Y5581019D01*
X40149424Y5663172D01*
X40149424Y5984482D01*
X40173158Y6066635D01*
X40255311Y6090368D01*
X40348417Y6090368D01*
X40431483Y6066635D01*
G37*
G36*
X41064671Y5054022D02*
G01*
X40684332Y5054022D01*
X40383104Y5054022D01*
X39742310Y5054022D01*
X38940861Y5054022D01*
X37980582Y5054022D01*
X37100631Y5054022D01*
X36384986Y5054022D01*
X35059582Y5054022D01*
X34491812Y5054022D01*
X33843716Y5054022D01*
X33365402Y5054022D01*
X32315668Y5054022D01*
X31935329Y5054022D01*
X31367742Y5054022D01*
X31470525Y5396631D01*
X32315668Y5396631D01*
X32354006Y5358293D01*
X32503707Y5358293D01*
X32534742Y5366508D01*
X32542045Y5396631D01*
X32542045Y6263803D01*
X32549347Y6263803D01*
X32739213Y5650393D01*
X32784853Y5613880D01*
X32938206Y5613880D01*
X32983846Y5650393D01*
X33170060Y6261977D01*
X33177362Y6261977D01*
X33177362Y5396631D01*
X33215701Y5358293D01*
X33365402Y5358293D01*
X33403740Y5396631D01*
X33650199Y5396631D01*
X33688538Y5358293D01*
X33843716Y5358293D01*
X33882054Y5396631D01*
X33882054Y6369689D01*
X34031755Y6369689D01*
X34070093Y6331351D01*
X34278214Y6331351D01*
X34298296Y6311269D01*
X34298296Y5396631D01*
X34338460Y5358293D01*
X34491812Y5358293D01*
X34530151Y5396631D01*
X34862414Y5396631D01*
X34884322Y5358293D01*
X35059582Y5358293D01*
X35086053Y5366508D01*
X35097920Y5396631D01*
X35149038Y5597450D01*
X35505034Y5597450D01*
X35556152Y5396631D01*
X35567106Y5366508D01*
X35594490Y5358293D01*
X35769750Y5358293D01*
X35791658Y5396631D01*
X35503689Y6492006D01*
X35857380Y6492006D01*
X36191469Y5787315D01*
X36191469Y5396631D01*
X36229808Y5358293D01*
X36384986Y5358293D01*
X36423324Y5396631D01*
X36907114Y5396631D01*
X36945453Y5358293D01*
X37100631Y5358293D01*
X37138969Y5396631D01*
X37787066Y5396631D01*
X37825404Y5358293D01*
X37980582Y5358293D01*
X38018920Y5396631D01*
X38745519Y5396631D01*
X38783857Y5358293D01*
X38940861Y5358293D01*
X38969158Y5365595D01*
X38977373Y5396631D01*
X38977373Y5655870D01*
X39169064Y5655870D01*
X39188689Y5528532D01*
X39247566Y5434969D01*
X39342498Y5377462D01*
X39470292Y5358293D01*
X39742310Y5358293D01*
X39772433Y5366508D01*
X39780648Y5394805D01*
X39780648Y5520773D01*
X39742310Y5559112D01*
X39506804Y5559112D01*
X39425564Y5583757D01*
X39404168Y5655870D01*
X39919396Y5655870D01*
X39939021Y5528532D01*
X39997897Y5434969D01*
X40092830Y5377462D01*
X40220624Y5358293D01*
X40383104Y5358293D01*
X40509757Y5377690D01*
X40604918Y5435882D01*
X40664479Y5529673D01*
X40684332Y5655870D01*
X40684332Y5991785D01*
X40664479Y6117981D01*
X40604918Y6211773D01*
X40509757Y6269964D01*
X40383104Y6289362D01*
X40220624Y6289362D01*
X40092830Y6270192D01*
X39997897Y6212685D01*
X39939021Y6119122D01*
X39919396Y5991785D01*
X39919396Y5655870D01*
X39404168Y5655870D01*
X39400918Y5666823D01*
X39400918Y5980831D01*
X39425564Y6063897D01*
X39506804Y6088543D01*
X39742310Y6088543D01*
X39772433Y6096758D01*
X39780648Y6125055D01*
X39780648Y6251023D01*
X39742310Y6289362D01*
X39470292Y6289362D01*
X39342498Y6270192D01*
X39247566Y6212685D01*
X39188689Y6119122D01*
X39169064Y5991785D01*
X39169064Y5655870D01*
X38977373Y5655870D01*
X38977373Y6251023D01*
X38940861Y6287536D01*
X38939035Y6289362D01*
X38782031Y6289362D01*
X38745519Y6251023D01*
X38745519Y5396631D01*
X38018920Y5396631D01*
X38018920Y5741674D01*
X38040828Y5761756D01*
X38270856Y5761756D01*
X38397281Y5781153D01*
X38491757Y5839345D01*
X38550633Y5933136D01*
X38570259Y6059333D01*
X38570259Y6234593D01*
X38550633Y6360789D01*
X38496914Y6446365D01*
X38745519Y6446365D01*
X38782031Y6409853D01*
X38940861Y6409853D01*
X38977373Y6446365D01*
X38977373Y6607020D01*
X38940861Y6641707D01*
X38782031Y6641707D01*
X38745519Y6605195D01*
X38745519Y6446365D01*
X38496914Y6446365D01*
X38491757Y6454581D01*
X38397281Y6512772D01*
X38270856Y6532170D01*
X37825404Y6532170D01*
X37787066Y6493832D01*
X37787066Y5396631D01*
X37138969Y5396631D01*
X37138969Y6493832D01*
X37100631Y6532170D01*
X36945453Y6532170D01*
X36907114Y6493832D01*
X36907114Y5396631D01*
X36423324Y5396631D01*
X36423324Y5787315D01*
X36757413Y6492006D01*
X36758326Y6521216D01*
X36731854Y6532170D01*
X36538338Y6532170D01*
X36494523Y6493832D01*
X36315612Y6050205D01*
X36302833Y6050205D01*
X36120270Y6493832D01*
X36076455Y6532170D01*
X35882939Y6532170D01*
X35858293Y6520303D01*
X35857380Y6492006D01*
X35503689Y6492006D01*
X35503209Y6493832D01*
X35448440Y6532170D01*
X35205632Y6532170D01*
X35150863Y6493832D01*
X34862414Y5396631D01*
X34530151Y5396631D01*
X34530151Y6311269D01*
X34552058Y6331351D01*
X34760179Y6331351D01*
X34798518Y6369689D01*
X34798518Y6493832D01*
X34760179Y6532170D01*
X34070093Y6532170D01*
X34031755Y6493832D01*
X34031755Y6369689D01*
X33882054Y6369689D01*
X33882054Y6493832D01*
X33843716Y6532170D01*
X33688538Y6532170D01*
X33650199Y6493832D01*
X33650199Y5396631D01*
X33403740Y5396631D01*
X33403740Y6493832D01*
X33365402Y6532170D01*
X33095209Y6532170D01*
X33060523Y6506611D01*
X32865181Y5862165D01*
X32854227Y5862165D01*
X32660711Y6506611D01*
X32626024Y6532170D01*
X32354006Y6532170D01*
X32315668Y6493832D01*
X32315668Y5396631D01*
X31470525Y5396631D01*
X31935329Y6945978D01*
X32315668Y6945978D01*
X40684332Y6945978D01*
X41064671Y6945978D01*
X41632258Y6945978D01*
X41064671Y5054022D01*
G37*
D11*
%TO.C,U2*%
X13110000Y15350000D02*
X13110000Y16150000D01*
X13110000Y15350000D02*
X13110000Y14550000D01*
X16230000Y15350000D02*
X16230000Y17150000D01*
X16230000Y15350000D02*
X16230000Y14550000D01*
%TO.C,R11*%
X20816359Y8710000D02*
X21123641Y8710000D01*
X20816359Y7950000D02*
X21123641Y7950000D01*
%TO.C,SW2*%
X16665000Y6885000D02*
X16665000Y6335000D01*
X16665000Y3685000D02*
X16665000Y4235000D01*
X20865000Y6885000D02*
X16665000Y6885000D01*
X20865000Y6335000D02*
X20865000Y6885000D01*
X20865000Y4235000D02*
X20865000Y3685000D01*
X20865000Y3685000D02*
X16665000Y3685000D01*
X21715000Y4685000D02*
X21715000Y5885000D01*
D12*
%TO.C,kibuzzard-631DCDA0*%
G36*
X9440492Y18366910D02*
G01*
X10459508Y18366910D01*
X10598414Y18366910D01*
X10598414Y17433090D01*
X10459508Y17433090D01*
X9440492Y17433090D01*
X9301586Y17433090D01*
X9301586Y17609964D01*
X9440492Y17609964D01*
X9519391Y17566625D01*
X9571897Y17553290D01*
X9636072Y17548845D01*
X9697746Y17553707D01*
X9749419Y17568292D01*
X9791786Y17591211D01*
X9825540Y17621076D01*
X9867767Y17698864D01*
X9877352Y17744703D01*
X9880547Y17793320D01*
X9880547Y18107804D01*
X10002784Y18107804D01*
X10047234Y17994456D01*
X10115021Y18021682D01*
X10186141Y18061131D01*
X10186141Y17676639D01*
X10041678Y17676639D01*
X10041678Y17563291D01*
X10459508Y17563291D01*
X10459508Y17676639D01*
X10322824Y17676639D01*
X10322824Y18251155D01*
X10229479Y18251155D01*
X10181696Y18207816D01*
X10122799Y18167811D01*
X10060569Y18133363D01*
X10002784Y18107804D01*
X9880547Y18107804D01*
X9880547Y18251155D01*
X9512723Y18251155D01*
X9512723Y18137808D01*
X9742752Y18137808D01*
X9742752Y17801099D01*
X9734556Y17736507D01*
X9709970Y17696086D01*
X9672049Y17674833D01*
X9623848Y17667749D01*
X9554395Y17684417D01*
X9492721Y17718866D01*
X9440492Y17609964D01*
X9301586Y17609964D01*
X9301586Y18366910D01*
X9440492Y18366910D01*
G37*
%TD*%
M02*
