%TF.GenerationSoftware,KiCad,Pcbnew,8.0.1*%
%TF.CreationDate,2024-04-07T18:53:55+05:30*%
%TF.ProjectId,Mitayi-Pico-RP2040,4d697461-7969-42d5-9069-636f2d525032,0.6*%
%TF.SameCoordinates,PX73df160PY5f2d3c0*%
%TF.FileFunction,Paste,Top*%
%TF.FilePolarity,Positive*%
%FSLAX46Y46*%
G04 Gerber Fmt 4.6, Leading zero omitted, Abs format (unit mm)*
G04 Created by KiCad (PCBNEW 8.0.1) date 2024-04-07 18:53:55*
%MOMM*%
%LPD*%
G01*
G04 APERTURE LIST*
G04 Aperture macros list*
%AMRoundRect*
0 Rectangle with rounded corners*
0 $1 Rounding radius*
0 $2 $3 $4 $5 $6 $7 $8 $9 X,Y pos of 4 corners*
0 Add a 4 corners polygon primitive as box body*
4,1,4,$2,$3,$4,$5,$6,$7,$8,$9,$2,$3,0*
0 Add four circle primitives for the rounded corners*
1,1,$1+$1,$2,$3*
1,1,$1+$1,$4,$5*
1,1,$1+$1,$6,$7*
1,1,$1+$1,$8,$9*
0 Add four rect primitives between the rounded corners*
20,1,$1+$1,$2,$3,$4,$5,0*
20,1,$1+$1,$4,$5,$6,$7,0*
20,1,$1+$1,$6,$7,$8,$9,0*
20,1,$1+$1,$8,$9,$2,$3,0*%
G04 Aperture macros list end*
%ADD10RoundRect,0.160000X-0.197500X-0.160000X0.197500X-0.160000X0.197500X0.160000X-0.197500X0.160000X0*%
%ADD11RoundRect,0.218750X0.218750X0.256250X-0.218750X0.256250X-0.218750X-0.256250X0.218750X-0.256250X0*%
%ADD12RoundRect,0.140000X0.140000X0.170000X-0.140000X0.170000X-0.140000X-0.170000X0.140000X-0.170000X0*%
%ADD13RoundRect,0.140000X-0.170000X0.140000X-0.170000X-0.140000X0.170000X-0.140000X0.170000X0.140000X0*%
%ADD14RoundRect,0.225000X-0.250000X0.225000X-0.250000X-0.225000X0.250000X-0.225000X0.250000X0.225000X0*%
%ADD15RoundRect,0.135000X-0.185000X0.135000X-0.185000X-0.135000X0.185000X-0.135000X0.185000X0.135000X0*%
%ADD16RoundRect,0.135000X0.135000X0.185000X-0.135000X0.185000X-0.135000X-0.185000X0.135000X-0.185000X0*%
%ADD17RoundRect,0.135000X-0.135000X-0.185000X0.135000X-0.185000X0.135000X0.185000X-0.135000X0.185000X0*%
%ADD18RoundRect,0.140000X0.170000X-0.140000X0.170000X0.140000X-0.170000X0.140000X-0.170000X-0.140000X0*%
%ADD19RoundRect,0.250000X0.292217X-0.292217X0.292217X0.292217X-0.292217X0.292217X-0.292217X-0.292217X0*%
%ADD20RoundRect,0.050000X0.050000X-0.387500X0.050000X0.387500X-0.050000X0.387500X-0.050000X-0.387500X0*%
%ADD21RoundRect,0.050000X0.387500X-0.050000X0.387500X0.050000X-0.387500X0.050000X-0.387500X-0.050000X0*%
%ADD22RoundRect,0.140000X-0.140000X-0.170000X0.140000X-0.170000X0.140000X0.170000X-0.140000X0.170000X0*%
%ADD23RoundRect,0.150000X0.650000X0.150000X-0.650000X0.150000X-0.650000X-0.150000X0.650000X-0.150000X0*%
%ADD24RoundRect,0.160000X0.197500X0.160000X-0.197500X0.160000X-0.197500X-0.160000X0.197500X-0.160000X0*%
%ADD25RoundRect,0.225000X0.250000X-0.225000X0.250000X0.225000X-0.250000X0.225000X-0.250000X-0.225000X0*%
%ADD26R,1.450000X0.600000*%
%ADD27R,1.450000X0.300000*%
%ADD28R,1.200000X1.400000*%
%ADD29R,1.000000X1.000000*%
%ADD30R,1.900000X1.500000*%
%ADD31R,1.150000X1.700000*%
%ADD32RoundRect,0.250000X0.275000X-0.312500X0.275000X0.312500X-0.275000X0.312500X-0.275000X-0.312500X0*%
%ADD33RoundRect,0.135000X0.185000X-0.135000X0.185000X0.135000X-0.185000X0.135000X-0.185000X-0.135000X0*%
%ADD34RoundRect,0.150000X-0.150000X0.512500X-0.150000X-0.512500X0.150000X-0.512500X0.150000X0.512500X0*%
G04 APERTURE END LIST*
D10*
%TO.C,JP5*%
X31112500Y17400000D03*
X32307500Y17400000D03*
%TD*%
D11*
%TO.C,D2*%
X35737500Y17030000D03*
X34162500Y17030000D03*
%TD*%
D12*
%TO.C,C17*%
X37700000Y8510000D03*
X36740000Y8510000D03*
%TD*%
D13*
%TO.C,C12*%
X24670000Y5670000D03*
X24670000Y4710000D03*
%TD*%
D14*
%TO.C,C13*%
X9710000Y15585000D03*
X9710000Y14035000D03*
%TD*%
D13*
%TO.C,C6*%
X30600000Y5560000D03*
X30600000Y4600000D03*
%TD*%
D12*
%TO.C,C11*%
X21550000Y15905000D03*
X20590000Y15905000D03*
%TD*%
%TO.C,C19*%
X8490000Y5240000D03*
X7530000Y5240000D03*
%TD*%
D15*
%TO.C,R2*%
X18830000Y8360000D03*
X18830000Y7340000D03*
%TD*%
D16*
%TO.C,R7*%
X38480000Y16960000D03*
X37460000Y16960000D03*
%TD*%
D17*
%TO.C,R10*%
X33270000Y10220000D03*
X34290000Y10220000D03*
%TD*%
D18*
%TO.C,C10*%
X23370000Y15750000D03*
X23370000Y16710000D03*
%TD*%
D19*
%TO.C,U3*%
X26732500Y10182500D03*
X28007500Y10182500D03*
X26732500Y11457500D03*
X28007500Y11457500D03*
D20*
X24770000Y7382500D03*
X25170000Y7382500D03*
X25570000Y7382500D03*
X25970000Y7382500D03*
X26370000Y7382500D03*
X26770000Y7382500D03*
X27170000Y7382500D03*
X27570000Y7382500D03*
X27970000Y7382500D03*
X28370000Y7382500D03*
X28770000Y7382500D03*
X29170000Y7382500D03*
X29570000Y7382500D03*
X29970000Y7382500D03*
D21*
X30807500Y8220000D03*
X30807500Y8620000D03*
X30807500Y9020000D03*
X30807500Y9420000D03*
X30807500Y9820000D03*
X30807500Y10220000D03*
X30807500Y10620000D03*
X30807500Y11020000D03*
X30807500Y11420000D03*
X30807500Y11820000D03*
X30807500Y12220000D03*
X30807500Y12620000D03*
X30807500Y13020000D03*
X30807500Y13420000D03*
D20*
X29970000Y14257500D03*
X29570000Y14257500D03*
X29170000Y14257500D03*
X28770000Y14257500D03*
X28370000Y14257500D03*
X27970000Y14257500D03*
X27570000Y14257500D03*
X27170000Y14257500D03*
X26770000Y14257500D03*
X26370000Y14257500D03*
X25970000Y14257500D03*
X25570000Y14257500D03*
X25170000Y14257500D03*
X24770000Y14257500D03*
D21*
X23932500Y13420000D03*
X23932500Y13020000D03*
X23932500Y12620000D03*
X23932500Y12220000D03*
X23932500Y11820000D03*
X23932500Y11420000D03*
X23932500Y11020000D03*
X23932500Y10620000D03*
X23932500Y10220000D03*
X23932500Y9820000D03*
X23932500Y9420000D03*
X23932500Y9020000D03*
X23932500Y8620000D03*
X23932500Y8220000D03*
%TD*%
D17*
%TO.C,R5*%
X20540000Y11825000D03*
X21560000Y11825000D03*
%TD*%
D22*
%TO.C,C2*%
X33290000Y12750000D03*
X34250000Y12750000D03*
%TD*%
D23*
%TO.C,U1*%
X17150000Y7955000D03*
X17150000Y9225000D03*
X17150000Y10495000D03*
X17150000Y11765000D03*
X9950000Y11765000D03*
X9950000Y10495000D03*
X9950000Y9225000D03*
X9950000Y7955000D03*
%TD*%
D12*
%TO.C,C5*%
X21455000Y10720000D03*
X20495000Y10720000D03*
%TD*%
D15*
%TO.C,R1*%
X18830000Y10690000D03*
X18830000Y9670000D03*
%TD*%
D12*
%TO.C,C4*%
X21540000Y13930000D03*
X20580000Y13930000D03*
%TD*%
D18*
%TO.C,C1*%
X8300000Y6430000D03*
X8300000Y7390000D03*
%TD*%
D24*
%TO.C,JP1*%
X12347500Y17500000D03*
X11152500Y17500000D03*
%TD*%
D17*
%TO.C,R9*%
X17300000Y17300000D03*
X18320000Y17300000D03*
%TD*%
D12*
%TO.C,C9*%
X34260000Y11630000D03*
X33300000Y11630000D03*
%TD*%
D22*
%TO.C,C8*%
X31210000Y16100000D03*
X32170000Y16100000D03*
%TD*%
D25*
%TO.C,C15*%
X19080000Y14015000D03*
X19080000Y15565000D03*
%TD*%
D26*
%TO.C,J2*%
X6475000Y13760000D03*
X6475000Y12960000D03*
D27*
X6475000Y11760000D03*
X6475000Y10760000D03*
X6475000Y10260000D03*
X6475000Y9260000D03*
D26*
X6475000Y8060000D03*
X6475000Y7260000D03*
X6475000Y7260000D03*
X6475000Y8060000D03*
D27*
X6475000Y8760000D03*
X6475000Y9760000D03*
X6475000Y11260000D03*
X6475000Y12260000D03*
D26*
X6475000Y12960000D03*
X6475000Y13760000D03*
%TD*%
D12*
%TO.C,C16*%
X12160000Y13760000D03*
X11200000Y13760000D03*
%TD*%
D10*
%TO.C,JP4*%
X11152500Y15750000D03*
X12347500Y15750000D03*
%TD*%
D15*
%TO.C,R4*%
X8300000Y9860000D03*
X8300000Y8840000D03*
%TD*%
D28*
%TO.C,Y1*%
X37900000Y10330000D03*
X37900000Y12530000D03*
X36200000Y12530000D03*
X36200000Y10330000D03*
%TD*%
D16*
%TO.C,R8*%
X8490000Y4170000D03*
X7470000Y4170000D03*
%TD*%
D29*
%TO.C,D1*%
X7650000Y16900000D03*
X5150000Y16900000D03*
%TD*%
D11*
%TO.C,D3*%
X5587500Y4200000D03*
X4012500Y4200000D03*
%TD*%
D30*
%TO.C,J6*%
X1362500Y11510000D03*
X1362500Y9510000D03*
%TD*%
D31*
%TO.C,SW1*%
X10225000Y5300000D03*
X14575000Y5300000D03*
%TD*%
D22*
%TO.C,C18*%
X36710000Y14330000D03*
X37670000Y14330000D03*
%TD*%
D12*
%TO.C,C7*%
X21450000Y9720000D03*
X20490000Y9720000D03*
%TD*%
D17*
%TO.C,R6*%
X20540000Y12825000D03*
X21560000Y12825000D03*
%TD*%
D32*
%TO.C,C14*%
X17400000Y14147500D03*
X17400000Y15922500D03*
%TD*%
D33*
%TO.C,R3*%
X8300000Y13890000D03*
X8300000Y14910000D03*
%TD*%
D34*
%TO.C,U2*%
X15620000Y16487500D03*
X14670000Y16487500D03*
X13720000Y16487500D03*
X13720000Y14212500D03*
X15620000Y14212500D03*
%TD*%
D17*
%TO.C,R11*%
X20460000Y8330000D03*
X21480000Y8330000D03*
%TD*%
D31*
%TO.C,SW2*%
X20940000Y5285000D03*
X16590000Y5285000D03*
%TD*%
M02*
