%TF.GenerationSoftware,KiCad,Pcbnew,8.0.1*%
%TF.CreationDate,2024-04-07T18:53:55+05:30*%
%TF.ProjectId,Mitayi-Pico-RP2040,4d697461-7969-42d5-9069-636f2d525032,0.6*%
%TF.SameCoordinates,PX73df160PY5f2d3c0*%
%TF.FileFunction,Other,User*%
%FSLAX46Y46*%
G04 Gerber Fmt 4.6, Leading zero omitted, Abs format (unit mm)*
G04 Created by KiCad (PCBNEW 8.0.1) date 2024-04-07 18:53:55*
%MOMM*%
%LPD*%
G01*
G04 APERTURE LIST*
%ADD10C,0.050000*%
G04 APERTURE END LIST*
D10*
%TO.C,JP6*%
X23835000Y6990000D02*
X22235000Y6990000D01*
X23835000Y6990000D02*
X23835000Y3890000D01*
X22235000Y3890000D02*
X22235000Y6990000D01*
X22235000Y3890000D02*
X23835000Y3890000D01*
%TO.C,J3*%
X-500000Y3400000D02*
X-500000Y-200000D01*
X-500000Y-200000D02*
X51350000Y-200000D01*
X51350000Y3400000D02*
X-500000Y3400000D01*
X51350000Y-200000D02*
X51350000Y3400000D01*
%TO.C,JP5*%
X30610000Y17870000D02*
X32810000Y17870000D01*
X30610000Y16930000D02*
X30610000Y17870000D01*
X32810000Y17870000D02*
X32810000Y16930000D01*
X32810000Y16930000D02*
X30610000Y16930000D01*
%TO.C,D2*%
X33470000Y17760000D02*
X36430000Y17760000D01*
X33470000Y16300000D02*
X33470000Y17760000D01*
X36430000Y17760000D02*
X36430000Y16300000D01*
X36430000Y16300000D02*
X33470000Y16300000D01*
%TO.C,C17*%
X36310000Y8970000D02*
X38130000Y8970000D01*
X36310000Y8050000D02*
X36310000Y8970000D01*
X38130000Y8970000D02*
X38130000Y8050000D01*
X38130000Y8050000D02*
X36310000Y8050000D01*
%TO.C,C12*%
X24210000Y6100000D02*
X25130000Y6100000D01*
X24210000Y4280000D02*
X24210000Y6100000D01*
X25130000Y6100000D02*
X25130000Y4280000D01*
X25130000Y4280000D02*
X24210000Y4280000D01*
%TO.C,C13*%
X8980000Y16290000D02*
X10440000Y16290000D01*
X8980000Y13330000D02*
X8980000Y16290000D01*
X10440000Y16290000D02*
X10440000Y13330000D01*
X10440000Y13330000D02*
X8980000Y13330000D01*
%TO.C,C6*%
X30140000Y5990000D02*
X31060000Y5990000D01*
X30140000Y4170000D02*
X30140000Y5990000D01*
X31060000Y5990000D02*
X31060000Y4170000D01*
X31060000Y4170000D02*
X30140000Y4170000D01*
%TO.C,C11*%
X20160000Y16365000D02*
X21980000Y16365000D01*
X20160000Y15445000D02*
X20160000Y16365000D01*
X21980000Y16365000D02*
X21980000Y15445000D01*
X21980000Y15445000D02*
X20160000Y15445000D01*
%TO.C,C19*%
X7100000Y5700000D02*
X8920000Y5700000D01*
X7100000Y4780000D02*
X7100000Y5700000D01*
X8920000Y5700000D02*
X8920000Y4780000D01*
X8920000Y4780000D02*
X7100000Y4780000D01*
%TO.C,R2*%
X18360000Y8780000D02*
X19300000Y8780000D01*
X18360000Y6920000D02*
X18360000Y8780000D01*
X19300000Y8780000D02*
X19300000Y6920000D01*
X19300000Y6920000D02*
X18360000Y6920000D01*
%TO.C,R7*%
X37040000Y17430000D02*
X38900000Y17430000D01*
X37040000Y16490000D02*
X37040000Y17430000D01*
X38900000Y17430000D02*
X38900000Y16490000D01*
X38900000Y16490000D02*
X37040000Y16490000D01*
%TO.C,H3*%
X50628034Y17000000D02*
G75*
G02*
X48391966Y17000000I-1118034J0D01*
G01*
X48391966Y17000000D02*
G75*
G02*
X50628034Y17000000I1118034J0D01*
G01*
%TO.C,R10*%
X32850000Y10690000D02*
X34710000Y10690000D01*
X32850000Y9750000D02*
X32850000Y10690000D01*
X34710000Y10690000D02*
X34710000Y9750000D01*
X34710000Y9750000D02*
X32850000Y9750000D01*
%TO.C,C10*%
X22910000Y17140000D02*
X23830000Y17140000D01*
X22910000Y15320000D02*
X22910000Y17140000D01*
X23830000Y17140000D02*
X23830000Y15320000D01*
X23830000Y15320000D02*
X22910000Y15320000D01*
%TO.C,U3*%
X23250000Y14940000D02*
X23250000Y6700000D01*
X23250000Y6700000D02*
X31490000Y6700000D01*
X31490000Y14940000D02*
X23250000Y14940000D01*
X31490000Y6700000D02*
X31490000Y14940000D01*
%TO.C,R5*%
X20120000Y12295000D02*
X21980000Y12295000D01*
X20120000Y11355000D02*
X20120000Y12295000D01*
X21980000Y12295000D02*
X21980000Y11355000D01*
X21980000Y11355000D02*
X20120000Y11355000D01*
%TO.C,C2*%
X32860000Y13210000D02*
X34680000Y13210000D01*
X32860000Y12290000D02*
X32860000Y13210000D01*
X34680000Y13210000D02*
X34680000Y12290000D01*
X34680000Y12290000D02*
X32860000Y12290000D01*
%TO.C,U1*%
X8900000Y12720000D02*
X8900000Y7000000D01*
X8900000Y7000000D02*
X18200000Y7000000D01*
X18200000Y12720000D02*
X8900000Y12720000D01*
X18200000Y7000000D02*
X18200000Y12720000D01*
%TO.C,C5*%
X20065000Y11180000D02*
X21885000Y11180000D01*
X20065000Y10260000D02*
X20065000Y11180000D01*
X21885000Y11180000D02*
X21885000Y10260000D01*
X21885000Y10260000D02*
X20065000Y10260000D01*
%TO.C,R1*%
X18360000Y11110000D02*
X19300000Y11110000D01*
X18360000Y9250000D02*
X18360000Y11110000D01*
X19300000Y11110000D02*
X19300000Y9250000D01*
X19300000Y9250000D02*
X18360000Y9250000D01*
%TO.C,C4*%
X20150000Y14390000D02*
X21970000Y14390000D01*
X20150000Y13470000D02*
X20150000Y14390000D01*
X21970000Y14390000D02*
X21970000Y13470000D01*
X21970000Y13470000D02*
X20150000Y13470000D01*
%TO.C,C1*%
X7840000Y7820000D02*
X8760000Y7820000D01*
X7840000Y6000000D02*
X7840000Y7820000D01*
X8760000Y7820000D02*
X8760000Y6000000D01*
X8760000Y6000000D02*
X7840000Y6000000D01*
%TO.C,J5*%
X47600000Y14800000D02*
X47600000Y6150000D01*
X47600000Y6150000D02*
X51200000Y6150000D01*
X51200000Y14800000D02*
X47600000Y14800000D01*
X51200000Y6150000D02*
X51200000Y14800000D01*
%TO.C,JP1*%
X10650000Y17970000D02*
X12850000Y17970000D01*
X10650000Y17030000D02*
X10650000Y17970000D01*
X12850000Y17970000D02*
X12850000Y17030000D01*
X12850000Y17030000D02*
X10650000Y17030000D01*
%TO.C,R9*%
X16880000Y17770000D02*
X18740000Y17770000D01*
X16880000Y16830000D02*
X16880000Y17770000D01*
X18740000Y17770000D02*
X18740000Y16830000D01*
X18740000Y16830000D02*
X16880000Y16830000D01*
%TO.C,C9*%
X32870000Y12090000D02*
X34690000Y12090000D01*
X32870000Y11170000D02*
X32870000Y12090000D01*
X34690000Y12090000D02*
X34690000Y11170000D01*
X34690000Y11170000D02*
X32870000Y11170000D01*
%TO.C,C8*%
X30780000Y16560000D02*
X32600000Y16560000D01*
X30780000Y15640000D02*
X30780000Y16560000D01*
X32600000Y16560000D02*
X32600000Y15640000D01*
X32600000Y15640000D02*
X30780000Y15640000D01*
%TO.C,C15*%
X18350000Y16270000D02*
X19810000Y16270000D01*
X18350000Y13310000D02*
X18350000Y16270000D01*
X19810000Y16270000D02*
X19810000Y13310000D01*
X19810000Y13310000D02*
X18350000Y13310000D01*
%TO.C,H2*%
X50628034Y4000000D02*
G75*
G02*
X48391966Y4000000I-1118034J0D01*
G01*
X48391966Y4000000D02*
G75*
G02*
X50628034Y4000000I1118034J0D01*
G01*
%TO.C,J2*%
X-1720000Y15830000D02*
X-1720000Y5190000D01*
X7700000Y15830000D02*
X-1720000Y15830000D01*
X7700000Y15830000D02*
X7700000Y5190000D01*
X7700000Y5190000D02*
X-1720000Y5190000D01*
%TO.C,C16*%
X10770000Y14220000D02*
X12590000Y14220000D01*
X10770000Y13300000D02*
X10770000Y14220000D01*
X12590000Y14220000D02*
X12590000Y13300000D01*
X12590000Y13300000D02*
X10770000Y13300000D01*
%TO.C,JP4*%
X10650000Y16220000D02*
X12850000Y16220000D01*
X10650000Y15280000D02*
X10650000Y16220000D01*
X12850000Y16220000D02*
X12850000Y15280000D01*
X12850000Y15280000D02*
X10650000Y15280000D01*
%TO.C,R4*%
X7830000Y10280000D02*
X8770000Y10280000D01*
X7830000Y8420000D02*
X7830000Y10280000D01*
X8770000Y10280000D02*
X8770000Y8420000D01*
X8770000Y8420000D02*
X7830000Y8420000D01*
%TO.C,Y1*%
X35350000Y13530000D02*
X35350000Y9330000D01*
X35350000Y9330000D02*
X38750000Y9330000D01*
X38750000Y13530000D02*
X35350000Y13530000D01*
X38750000Y9330000D02*
X38750000Y13530000D01*
%TO.C,R8*%
X7050000Y4640000D02*
X8910000Y4640000D01*
X7050000Y3700000D02*
X7050000Y4640000D01*
X8910000Y4640000D02*
X8910000Y3700000D01*
X8910000Y3700000D02*
X7050000Y3700000D01*
%TO.C,D1*%
X4400000Y15950000D02*
X4400000Y17850000D01*
X8400000Y17850000D02*
X4400000Y17850000D01*
X8400000Y15950000D02*
X4400000Y15950000D01*
X8400000Y15950000D02*
X8400000Y17850000D01*
%TO.C,D3*%
X3320000Y4930000D02*
X6280000Y4930000D01*
X3320000Y3470000D02*
X3320000Y4930000D01*
X6280000Y4930000D02*
X6280000Y3470000D01*
X6280000Y3470000D02*
X3320000Y3470000D01*
%TO.C,H4*%
X2628034Y17000000D02*
G75*
G02*
X391966Y17000000I-1118034J0D01*
G01*
X391966Y17000000D02*
G75*
G02*
X2628034Y17000000I1118034J0D01*
G01*
%TO.C,J6*%
X-1040000Y14910000D02*
X-1040000Y6110000D01*
X-1040000Y14910000D02*
X5060000Y14910000D01*
X5060000Y14910000D02*
X5060000Y6110000D01*
X5060000Y6110000D02*
X-1040000Y6110000D01*
%TO.C,H1*%
X2628034Y4000000D02*
G75*
G02*
X391966Y4000000I-1118034J0D01*
G01*
X391966Y4000000D02*
G75*
G02*
X2628034Y4000000I1118034J0D01*
G01*
%TO.C,SW1*%
X9450000Y6900000D02*
X15350000Y6900000D01*
X15350000Y3700000D01*
X9450000Y3700000D01*
X9450000Y6900000D01*
%TO.C,C18*%
X36280000Y14790000D02*
X38100000Y14790000D01*
X36280000Y13870000D02*
X36280000Y14790000D01*
X38100000Y14790000D02*
X38100000Y13870000D01*
X38100000Y13870000D02*
X36280000Y13870000D01*
%TO.C,C7*%
X20060000Y10180000D02*
X21880000Y10180000D01*
X20060000Y9260000D02*
X20060000Y10180000D01*
X21880000Y10180000D02*
X21880000Y9260000D01*
X21880000Y9260000D02*
X20060000Y9260000D01*
%TO.C,R6*%
X20120000Y13295000D02*
X21980000Y13295000D01*
X20120000Y12355000D02*
X20120000Y13295000D01*
X21980000Y13295000D02*
X21980000Y12355000D01*
X21980000Y12355000D02*
X20120000Y12355000D01*
%TO.C,C14*%
X16520000Y16735000D02*
X18280000Y16735000D01*
X16520000Y13335000D02*
X16520000Y16735000D01*
X18280000Y16735000D02*
X18280000Y13335000D01*
X18280000Y13335000D02*
X16520000Y13335000D01*
%TO.C,R3*%
X7830000Y15330000D02*
X8770000Y15330000D01*
X7830000Y13470000D02*
X7830000Y15330000D01*
X8770000Y15330000D02*
X8770000Y13470000D01*
X8770000Y13470000D02*
X7830000Y13470000D01*
%TO.C,U2*%
X12970000Y17400000D02*
X12970000Y13300000D01*
X12970000Y13300000D02*
X16370000Y13300000D01*
X16370000Y17400000D02*
X12970000Y17400000D01*
X16370000Y13300000D02*
X16370000Y17400000D01*
%TO.C,R11*%
X20040000Y8800000D02*
X21900000Y8800000D01*
X20040000Y7860000D02*
X20040000Y8800000D01*
X21900000Y8800000D02*
X21900000Y7860000D01*
X21900000Y7860000D02*
X20040000Y7860000D01*
%TO.C,SW2*%
X21715000Y3685000D02*
X15815000Y3685000D01*
X15815000Y6885000D01*
X21715000Y6885000D01*
X21715000Y3685000D01*
%TD*%
M02*
