%TF.GenerationSoftware,KiCad,Pcbnew,8.0.1*%
%TF.CreationDate,2024-04-07T18:53:55+05:30*%
%TF.ProjectId,Mitayi-Pico-RP2040,4d697461-7969-42d5-9069-636f2d525032,0.6*%
%TF.SameCoordinates,PX73df160PY5f2d3c0*%
%TF.FileFunction,AssemblyDrawing,Bot*%
%FSLAX46Y46*%
G04 Gerber Fmt 4.6, Leading zero omitted, Abs format (unit mm)*
G04 Created by KiCad (PCBNEW 8.0.1) date 2024-04-07 18:53:55*
%MOMM*%
%LPD*%
G01*
G04 APERTURE LIST*
%ADD10C,0.070000*%
%ADD11C,0.100000*%
G04 APERTURE END LIST*
D10*
X26425714Y18734855D02*
X26425714Y19034855D01*
X26425714Y18891998D02*
X26254285Y18891998D01*
X26254285Y18734855D02*
X26254285Y19034855D01*
X25997142Y18749140D02*
X26025714Y18734855D01*
X26025714Y18734855D02*
X26082857Y18734855D01*
X26082857Y18734855D02*
X26111428Y18749140D01*
X26111428Y18749140D02*
X26125714Y18777712D01*
X26125714Y18777712D02*
X26125714Y18891998D01*
X26125714Y18891998D02*
X26111428Y18920569D01*
X26111428Y18920569D02*
X26082857Y18934855D01*
X26082857Y18934855D02*
X26025714Y18934855D01*
X26025714Y18934855D02*
X25997142Y18920569D01*
X25997142Y18920569D02*
X25982857Y18891998D01*
X25982857Y18891998D02*
X25982857Y18863426D01*
X25982857Y18863426D02*
X26125714Y18834855D01*
X25725714Y18734855D02*
X25725714Y18891998D01*
X25725714Y18891998D02*
X25739999Y18920569D01*
X25739999Y18920569D02*
X25768571Y18934855D01*
X25768571Y18934855D02*
X25825714Y18934855D01*
X25825714Y18934855D02*
X25854285Y18920569D01*
X25725714Y18749140D02*
X25754285Y18734855D01*
X25754285Y18734855D02*
X25825714Y18734855D01*
X25825714Y18734855D02*
X25854285Y18749140D01*
X25854285Y18749140D02*
X25868571Y18777712D01*
X25868571Y18777712D02*
X25868571Y18806283D01*
X25868571Y18806283D02*
X25854285Y18834855D01*
X25854285Y18834855D02*
X25825714Y18849140D01*
X25825714Y18849140D02*
X25754285Y18849140D01*
X25754285Y18849140D02*
X25725714Y18863426D01*
X25454285Y18734855D02*
X25454285Y19034855D01*
X25454285Y18749140D02*
X25482856Y18734855D01*
X25482856Y18734855D02*
X25539999Y18734855D01*
X25539999Y18734855D02*
X25568570Y18749140D01*
X25568570Y18749140D02*
X25582856Y18763426D01*
X25582856Y18763426D02*
X25597142Y18791998D01*
X25597142Y18791998D02*
X25597142Y18877712D01*
X25597142Y18877712D02*
X25582856Y18906283D01*
X25582856Y18906283D02*
X25568570Y18920569D01*
X25568570Y18920569D02*
X25539999Y18934855D01*
X25539999Y18934855D02*
X25482856Y18934855D01*
X25482856Y18934855D02*
X25454285Y18920569D01*
X25197141Y18749140D02*
X25225713Y18734855D01*
X25225713Y18734855D02*
X25282856Y18734855D01*
X25282856Y18734855D02*
X25311427Y18749140D01*
X25311427Y18749140D02*
X25325713Y18777712D01*
X25325713Y18777712D02*
X25325713Y18891998D01*
X25325713Y18891998D02*
X25311427Y18920569D01*
X25311427Y18920569D02*
X25282856Y18934855D01*
X25282856Y18934855D02*
X25225713Y18934855D01*
X25225713Y18934855D02*
X25197141Y18920569D01*
X25197141Y18920569D02*
X25182856Y18891998D01*
X25182856Y18891998D02*
X25182856Y18863426D01*
X25182856Y18863426D02*
X25325713Y18834855D01*
X25054284Y18734855D02*
X25054284Y18934855D01*
X25054284Y18877712D02*
X25039998Y18906283D01*
X25039998Y18906283D02*
X25025713Y18920569D01*
X25025713Y18920569D02*
X24997141Y18934855D01*
X24997141Y18934855D02*
X24968570Y18934855D01*
X24868570Y18849140D02*
X24639999Y18849140D01*
X24511427Y19006283D02*
X24497141Y19020569D01*
X24497141Y19020569D02*
X24468570Y19034855D01*
X24468570Y19034855D02*
X24397141Y19034855D01*
X24397141Y19034855D02*
X24368570Y19020569D01*
X24368570Y19020569D02*
X24354284Y19006283D01*
X24354284Y19006283D02*
X24339998Y18977712D01*
X24339998Y18977712D02*
X24339998Y18949140D01*
X24339998Y18949140D02*
X24354284Y18906283D01*
X24354284Y18906283D02*
X24525712Y18734855D01*
X24525712Y18734855D02*
X24339998Y18734855D01*
X25529999Y19564855D02*
X25529999Y19350569D01*
X25529999Y19350569D02*
X25544284Y19307712D01*
X25544284Y19307712D02*
X25572856Y19279140D01*
X25572856Y19279140D02*
X25615713Y19264855D01*
X25615713Y19264855D02*
X25644284Y19264855D01*
X25258571Y19464855D02*
X25258571Y19264855D01*
X25329999Y19579140D02*
X25401428Y19364855D01*
X25401428Y19364855D02*
X25215713Y19364855D01*
X1586905Y9689855D02*
X1586905Y9989855D01*
X1586905Y9989855D02*
X1515476Y9989855D01*
X1515476Y9989855D02*
X1472619Y9975569D01*
X1472619Y9975569D02*
X1444048Y9946998D01*
X1444048Y9946998D02*
X1429762Y9918426D01*
X1429762Y9918426D02*
X1415476Y9861283D01*
X1415476Y9861283D02*
X1415476Y9818426D01*
X1415476Y9818426D02*
X1429762Y9761283D01*
X1429762Y9761283D02*
X1444048Y9732712D01*
X1444048Y9732712D02*
X1472619Y9704140D01*
X1472619Y9704140D02*
X1515476Y9689855D01*
X1515476Y9689855D02*
X1586905Y9689855D01*
X1286905Y9689855D02*
X1286905Y9989855D01*
X1286905Y9989855D02*
X1172619Y9989855D01*
X1172619Y9989855D02*
X1144048Y9975569D01*
X1144048Y9975569D02*
X1129762Y9961283D01*
X1129762Y9961283D02*
X1115476Y9932712D01*
X1115476Y9932712D02*
X1115476Y9889855D01*
X1115476Y9889855D02*
X1129762Y9861283D01*
X1129762Y9861283D02*
X1144048Y9846998D01*
X1144048Y9846998D02*
X1172619Y9832712D01*
X1172619Y9832712D02*
X1286905Y9832712D01*
X45209999Y9846998D02*
X45109999Y9846998D01*
X45067142Y9689855D02*
X45209999Y9689855D01*
X45209999Y9689855D02*
X45209999Y9989855D01*
X45209999Y9989855D02*
X45067142Y9989855D01*
X44967141Y9989855D02*
X44767141Y9689855D01*
X44767141Y9989855D02*
X44967141Y9689855D01*
X44652856Y9689855D02*
X44652856Y9989855D01*
X44652856Y9989855D02*
X44538570Y9989855D01*
X44538570Y9989855D02*
X44509999Y9975569D01*
X44509999Y9975569D02*
X44495713Y9961283D01*
X44495713Y9961283D02*
X44481427Y9932712D01*
X44481427Y9932712D02*
X44481427Y9889855D01*
X44481427Y9889855D02*
X44495713Y9861283D01*
X44495713Y9861283D02*
X44509999Y9846998D01*
X44509999Y9846998D02*
X44538570Y9832712D01*
X44538570Y9832712D02*
X44652856Y9832712D01*
X44309999Y9861283D02*
X44338570Y9875569D01*
X44338570Y9875569D02*
X44352856Y9889855D01*
X44352856Y9889855D02*
X44367142Y9918426D01*
X44367142Y9918426D02*
X44367142Y9932712D01*
X44367142Y9932712D02*
X44352856Y9961283D01*
X44352856Y9961283D02*
X44338570Y9975569D01*
X44338570Y9975569D02*
X44309999Y9989855D01*
X44309999Y9989855D02*
X44252856Y9989855D01*
X44252856Y9989855D02*
X44224285Y9975569D01*
X44224285Y9975569D02*
X44209999Y9961283D01*
X44209999Y9961283D02*
X44195713Y9932712D01*
X44195713Y9932712D02*
X44195713Y9918426D01*
X44195713Y9918426D02*
X44209999Y9889855D01*
X44209999Y9889855D02*
X44224285Y9875569D01*
X44224285Y9875569D02*
X44252856Y9861283D01*
X44252856Y9861283D02*
X44309999Y9861283D01*
X44309999Y9861283D02*
X44338570Y9846998D01*
X44338570Y9846998D02*
X44352856Y9832712D01*
X44352856Y9832712D02*
X44367142Y9804140D01*
X44367142Y9804140D02*
X44367142Y9746998D01*
X44367142Y9746998D02*
X44352856Y9718426D01*
X44352856Y9718426D02*
X44338570Y9704140D01*
X44338570Y9704140D02*
X44309999Y9689855D01*
X44309999Y9689855D02*
X44252856Y9689855D01*
X44252856Y9689855D02*
X44224285Y9704140D01*
X44224285Y9704140D02*
X44209999Y9718426D01*
X44209999Y9718426D02*
X44195713Y9746998D01*
X44195713Y9746998D02*
X44195713Y9804140D01*
X44195713Y9804140D02*
X44209999Y9832712D01*
X44209999Y9832712D02*
X44224285Y9846998D01*
X44224285Y9846998D02*
X44252856Y9861283D01*
X44804999Y10564855D02*
X44804999Y10350569D01*
X44804999Y10350569D02*
X44819284Y10307712D01*
X44819284Y10307712D02*
X44847856Y10279140D01*
X44847856Y10279140D02*
X44890713Y10264855D01*
X44890713Y10264855D02*
X44919284Y10264855D01*
X44504999Y10264855D02*
X44676428Y10264855D01*
X44590713Y10264855D02*
X44590713Y10564855D01*
X44590713Y10564855D02*
X44619285Y10521998D01*
X44619285Y10521998D02*
X44647856Y10493426D01*
X44647856Y10493426D02*
X44676428Y10479140D01*
X1641666Y10989855D02*
X1641666Y11289855D01*
X1641666Y11289855D02*
X1570237Y11289855D01*
X1570237Y11289855D02*
X1527380Y11275569D01*
X1527380Y11275569D02*
X1498809Y11246998D01*
X1498809Y11246998D02*
X1484523Y11218426D01*
X1484523Y11218426D02*
X1470237Y11161283D01*
X1470237Y11161283D02*
X1470237Y11118426D01*
X1470237Y11118426D02*
X1484523Y11061283D01*
X1484523Y11061283D02*
X1498809Y11032712D01*
X1498809Y11032712D02*
X1527380Y11004140D01*
X1527380Y11004140D02*
X1570237Y10989855D01*
X1570237Y10989855D02*
X1641666Y10989855D01*
X1341666Y10989855D02*
X1341666Y11289855D01*
X1341666Y11289855D02*
X1241666Y11075569D01*
X1241666Y11075569D02*
X1141666Y11289855D01*
X1141666Y11289855D02*
X1141666Y10989855D01*
X1874999Y8039855D02*
X1774999Y7739855D01*
X1774999Y7739855D02*
X1674999Y8039855D01*
X1474999Y7896998D02*
X1432142Y7882712D01*
X1432142Y7882712D02*
X1417856Y7868426D01*
X1417856Y7868426D02*
X1403570Y7839855D01*
X1403570Y7839855D02*
X1403570Y7796998D01*
X1403570Y7796998D02*
X1417856Y7768426D01*
X1417856Y7768426D02*
X1432142Y7754140D01*
X1432142Y7754140D02*
X1460713Y7739855D01*
X1460713Y7739855D02*
X1574999Y7739855D01*
X1574999Y7739855D02*
X1574999Y8039855D01*
X1574999Y8039855D02*
X1474999Y8039855D01*
X1474999Y8039855D02*
X1446428Y8025569D01*
X1446428Y8025569D02*
X1432142Y8011283D01*
X1432142Y8011283D02*
X1417856Y7982712D01*
X1417856Y7982712D02*
X1417856Y7954140D01*
X1417856Y7954140D02*
X1432142Y7925569D01*
X1432142Y7925569D02*
X1446428Y7911283D01*
X1446428Y7911283D02*
X1474999Y7896998D01*
X1474999Y7896998D02*
X1574999Y7896998D01*
X1274999Y8039855D02*
X1274999Y7796998D01*
X1274999Y7796998D02*
X1260713Y7768426D01*
X1260713Y7768426D02*
X1246428Y7754140D01*
X1246428Y7754140D02*
X1217856Y7739855D01*
X1217856Y7739855D02*
X1160713Y7739855D01*
X1160713Y7739855D02*
X1132142Y7754140D01*
X1132142Y7754140D02*
X1117856Y7768426D01*
X1117856Y7768426D02*
X1103570Y7796998D01*
X1103570Y7796998D02*
X1103570Y8039855D01*
X974999Y7754140D02*
X932142Y7739855D01*
X932142Y7739855D02*
X860713Y7739855D01*
X860713Y7739855D02*
X832142Y7754140D01*
X832142Y7754140D02*
X817856Y7768426D01*
X817856Y7768426D02*
X803570Y7796998D01*
X803570Y7796998D02*
X803570Y7825569D01*
X803570Y7825569D02*
X817856Y7854140D01*
X817856Y7854140D02*
X832142Y7868426D01*
X832142Y7868426D02*
X860713Y7882712D01*
X860713Y7882712D02*
X917856Y7896998D01*
X917856Y7896998D02*
X946427Y7911283D01*
X946427Y7911283D02*
X960713Y7925569D01*
X960713Y7925569D02*
X974999Y7954140D01*
X974999Y7954140D02*
X974999Y7982712D01*
X974999Y7982712D02*
X960713Y8011283D01*
X960713Y8011283D02*
X946427Y8025569D01*
X946427Y8025569D02*
X917856Y8039855D01*
X917856Y8039855D02*
X846427Y8039855D01*
X846427Y8039855D02*
X803570Y8025569D01*
X1653571Y12525569D02*
X1682143Y12539855D01*
X1682143Y12539855D02*
X1725000Y12539855D01*
X1725000Y12539855D02*
X1767857Y12525569D01*
X1767857Y12525569D02*
X1796428Y12496998D01*
X1796428Y12496998D02*
X1810714Y12468426D01*
X1810714Y12468426D02*
X1825000Y12411283D01*
X1825000Y12411283D02*
X1825000Y12368426D01*
X1825000Y12368426D02*
X1810714Y12311283D01*
X1810714Y12311283D02*
X1796428Y12282712D01*
X1796428Y12282712D02*
X1767857Y12254140D01*
X1767857Y12254140D02*
X1725000Y12239855D01*
X1725000Y12239855D02*
X1696428Y12239855D01*
X1696428Y12239855D02*
X1653571Y12254140D01*
X1653571Y12254140D02*
X1639285Y12268426D01*
X1639285Y12268426D02*
X1639285Y12368426D01*
X1639285Y12368426D02*
X1696428Y12368426D01*
X1510714Y12239855D02*
X1510714Y12539855D01*
X1510714Y12539855D02*
X1339285Y12239855D01*
X1339285Y12239855D02*
X1339285Y12539855D01*
X1196428Y12239855D02*
X1196428Y12539855D01*
X1196428Y12539855D02*
X1124999Y12539855D01*
X1124999Y12539855D02*
X1082142Y12525569D01*
X1082142Y12525569D02*
X1053571Y12496998D01*
X1053571Y12496998D02*
X1039285Y12468426D01*
X1039285Y12468426D02*
X1024999Y12411283D01*
X1024999Y12411283D02*
X1024999Y12368426D01*
X1024999Y12368426D02*
X1039285Y12311283D01*
X1039285Y12311283D02*
X1053571Y12282712D01*
X1053571Y12282712D02*
X1082142Y12254140D01*
X1082142Y12254140D02*
X1124999Y12239855D01*
X1124999Y12239855D02*
X1196428Y12239855D01*
D11*
%TO.C,J4*%
X30000Y20035000D02*
X30000Y18130000D01*
X30000Y18130000D02*
X50830000Y18130000D01*
X665000Y20670000D02*
X30000Y20035000D01*
X50830000Y20670000D02*
X665000Y20670000D01*
X50830000Y18130000D02*
X50830000Y20670000D01*
%TO.C,J9*%
X1975000Y9508334D02*
X775000Y9508334D01*
X775000Y10208334D01*
X1975000Y10208334D01*
X1975000Y9508334D01*
%TO.C,J1*%
X42130000Y15565000D02*
X42130000Y6675000D01*
X42130000Y6675000D02*
X43400000Y5405000D01*
X43400000Y5405000D02*
X47210000Y5405000D01*
X47210000Y15565000D02*
X42130000Y15565000D01*
X47210000Y5405000D02*
X47210000Y15565000D01*
%TO.C,J8*%
X1975000Y10791667D02*
X775000Y10791667D01*
X775000Y11491667D01*
X1975000Y11491667D01*
X1975000Y10791667D01*
%TO.C,J7*%
X1975000Y8225000D02*
X775000Y8225000D01*
X775000Y8925000D01*
X1975000Y8925000D01*
X1975000Y8225000D01*
%TO.C,J10*%
X775000Y12075000D02*
X775000Y12425000D01*
X1125000Y12775000D02*
X775000Y12425000D01*
X1125000Y12775000D02*
X1975000Y12775000D01*
X1975000Y12775000D02*
X1975000Y12075000D01*
X1975000Y12075000D02*
X775000Y12075000D01*
%TD*%
M02*
