G04 #@! TF.GenerationSoftware,KiCad,Pcbnew,(5.99.0-12085-gf4905cb1ae)*
G04 #@! TF.CreationDate,2021-08-26T19:19:28+05:30*
G04 #@! TF.ProjectId,Mitayi-Pico-RP2040,4d697461-7969-42d5-9069-636f2d525032,0.2*
G04 #@! TF.SameCoordinates,Original*
G04 #@! TF.FileFunction,AssemblyDrawing,Bot*
%FSLAX46Y46*%
G04 Gerber Fmt 4.6, Leading zero omitted, Abs format (unit mm)*
G04 Created by KiCad (PCBNEW (5.99.0-12085-gf4905cb1ae)) date 2021-08-26 19:19:28*
%MOMM*%
%LPD*%
G01*
G04 APERTURE LIST*
%ADD10C,0.150000*%
%ADD11C,0.120000*%
%ADD12C,0.040000*%
%ADD13C,0.100000*%
G04 APERTURE END LIST*
D10*
X155863333Y-72416666D02*
X155863333Y-71716666D01*
X155463333Y-72416666D01*
X155463333Y-71716666D01*
X154730000Y-72350000D02*
X154763333Y-72383333D01*
X154863333Y-72416666D01*
X154930000Y-72416666D01*
X155030000Y-72383333D01*
X155096666Y-72316666D01*
X155130000Y-72250000D01*
X155163333Y-72116666D01*
X155163333Y-72016666D01*
X155130000Y-71883333D01*
X155096666Y-71816666D01*
X155030000Y-71750000D01*
X154930000Y-71716666D01*
X154863333Y-71716666D01*
X154763333Y-71750000D01*
X154730000Y-71783333D01*
X154430000Y-72416666D02*
X154430000Y-71716666D01*
X154163333Y-71716666D01*
X154096666Y-71750000D01*
X154063333Y-71783333D01*
X154030000Y-71850000D01*
X154030000Y-71950000D01*
X154063333Y-72016666D01*
X154096666Y-72050000D01*
X154163333Y-72083333D01*
X154430000Y-72083333D01*
X153363333Y-72416666D02*
X153763333Y-72416666D01*
X153563333Y-72416666D02*
X153563333Y-71716666D01*
X153630000Y-71816666D01*
X153696666Y-71883333D01*
X153763333Y-71916666D01*
X152696666Y-72416666D02*
X153096666Y-72416666D01*
X152896666Y-72416666D02*
X152896666Y-71716666D01*
X152963333Y-71816666D01*
X153030000Y-71883333D01*
X153096666Y-71916666D01*
X152030000Y-72416666D02*
X152430000Y-72416666D01*
X152230000Y-72416666D02*
X152230000Y-71716666D01*
X152296666Y-71816666D01*
X152363333Y-71883333D01*
X152430000Y-71916666D01*
X151796666Y-71716666D02*
X151330000Y-71716666D01*
X151630000Y-72416666D01*
X151063333Y-72150000D02*
X150530000Y-72150000D01*
X150263333Y-71716666D02*
X149830000Y-71716666D01*
X150063333Y-71983333D01*
X149963333Y-71983333D01*
X149896666Y-72016666D01*
X149863333Y-72050000D01*
X149830000Y-72116666D01*
X149830000Y-72283333D01*
X149863333Y-72350000D01*
X149896666Y-72383333D01*
X149963333Y-72416666D01*
X150163333Y-72416666D01*
X150230000Y-72383333D01*
X150263333Y-72350000D01*
X149530000Y-72350000D02*
X149496666Y-72383333D01*
X149530000Y-72416666D01*
X149563333Y-72383333D01*
X149530000Y-72350000D01*
X149530000Y-72416666D01*
X149263333Y-71716666D02*
X148830000Y-71716666D01*
X149063333Y-71983333D01*
X148963333Y-71983333D01*
X148896666Y-72016666D01*
X148863333Y-72050000D01*
X148830000Y-72116666D01*
X148830000Y-72283333D01*
X148863333Y-72350000D01*
X148896666Y-72383333D01*
X148963333Y-72416666D01*
X149163333Y-72416666D01*
X149230000Y-72383333D01*
X149263333Y-72350000D01*
X148696666Y-72483333D02*
X148163333Y-72483333D01*
X148030000Y-72383333D02*
X147930000Y-72416666D01*
X147763333Y-72416666D01*
X147696666Y-72383333D01*
X147663333Y-72350000D01*
X147630000Y-72283333D01*
X147630000Y-72216666D01*
X147663333Y-72150000D01*
X147696666Y-72116666D01*
X147763333Y-72083333D01*
X147896666Y-72050000D01*
X147963333Y-72016666D01*
X147996666Y-71983333D01*
X148030000Y-71916666D01*
X148030000Y-71850000D01*
X147996666Y-71783333D01*
X147963333Y-71750000D01*
X147896666Y-71716666D01*
X147730000Y-71716666D01*
X147630000Y-71750000D01*
X147196666Y-71716666D02*
X147063333Y-71716666D01*
X146996666Y-71750000D01*
X146930000Y-71816666D01*
X146896666Y-71950000D01*
X146896666Y-72183333D01*
X146930000Y-72316666D01*
X146996666Y-72383333D01*
X147063333Y-72416666D01*
X147196666Y-72416666D01*
X147263333Y-72383333D01*
X147330000Y-72316666D01*
X147363333Y-72183333D01*
X147363333Y-71950000D01*
X147330000Y-71816666D01*
X147263333Y-71750000D01*
X147196666Y-71716666D01*
X146696666Y-71716666D02*
X146296666Y-71716666D01*
X146496666Y-72416666D02*
X146496666Y-71716666D01*
X146096666Y-71783333D02*
X146063333Y-71750000D01*
X145996666Y-71716666D01*
X145830000Y-71716666D01*
X145763333Y-71750000D01*
X145730000Y-71783333D01*
X145696666Y-71850000D01*
X145696666Y-71916666D01*
X145730000Y-72016666D01*
X146130000Y-72416666D01*
X145696666Y-72416666D01*
X145430000Y-71783333D02*
X145396666Y-71750000D01*
X145330000Y-71716666D01*
X145163333Y-71716666D01*
X145096666Y-71750000D01*
X145063333Y-71783333D01*
X145030000Y-71850000D01*
X145030000Y-71916666D01*
X145063333Y-72016666D01*
X145463333Y-72416666D01*
X145030000Y-72416666D01*
X144796666Y-71716666D02*
X144363333Y-71716666D01*
X144596666Y-71983333D01*
X144496666Y-71983333D01*
X144430000Y-72016666D01*
X144396666Y-72050000D01*
X144363333Y-72116666D01*
X144363333Y-72283333D01*
X144396666Y-72350000D01*
X144430000Y-72383333D01*
X144496666Y-72416666D01*
X144696666Y-72416666D01*
X144763333Y-72383333D01*
X144796666Y-72350000D01*
D11*
X149746666Y-76066666D02*
X150313333Y-76066666D01*
X150380000Y-76100000D01*
X150413333Y-76133333D01*
X150446666Y-76200000D01*
X150446666Y-76333333D01*
X150413333Y-76400000D01*
X150380000Y-76433333D01*
X150313333Y-76466666D01*
X149746666Y-76466666D01*
X150446666Y-77166666D02*
X150446666Y-76766666D01*
X150446666Y-76966666D02*
X149746666Y-76966666D01*
X149846666Y-76900000D01*
X149913333Y-76833333D01*
X149946666Y-76766666D01*
D10*
X157519047Y-71772380D02*
X157185714Y-72772380D01*
X156852380Y-71772380D01*
X155947619Y-72772380D02*
X156280952Y-72296190D01*
X156519047Y-72772380D02*
X156519047Y-71772380D01*
X156138095Y-71772380D01*
X156042857Y-71820000D01*
X155995238Y-71867619D01*
X155947619Y-71962857D01*
X155947619Y-72105714D01*
X155995238Y-72200952D01*
X156042857Y-72248571D01*
X156138095Y-72296190D01*
X156519047Y-72296190D01*
X155566666Y-71867619D02*
X155519047Y-71820000D01*
X155423809Y-71772380D01*
X155185714Y-71772380D01*
X155090476Y-71820000D01*
X155042857Y-71867619D01*
X154995238Y-71962857D01*
X154995238Y-72058095D01*
X155042857Y-72200952D01*
X155614285Y-72772380D01*
X154995238Y-72772380D01*
X154804761Y-72867619D02*
X154042857Y-72867619D01*
X153614285Y-71772380D02*
X153423809Y-71772380D01*
X153328571Y-71820000D01*
X153233333Y-71915238D01*
X153185714Y-72105714D01*
X153185714Y-72439047D01*
X153233333Y-72629523D01*
X153328571Y-72724761D01*
X153423809Y-72772380D01*
X153614285Y-72772380D01*
X153709523Y-72724761D01*
X153804761Y-72629523D01*
X153852380Y-72439047D01*
X153852380Y-72105714D01*
X153804761Y-71915238D01*
X153709523Y-71820000D01*
X153614285Y-71772380D01*
X152757142Y-71772380D02*
X152757142Y-72581904D01*
X152709523Y-72677142D01*
X152661904Y-72724761D01*
X152566666Y-72772380D01*
X152376190Y-72772380D01*
X152280952Y-72724761D01*
X152233333Y-72677142D01*
X152185714Y-72581904D01*
X152185714Y-71772380D01*
X151852380Y-71772380D02*
X151280952Y-71772380D01*
X151566666Y-72772380D02*
X151566666Y-71772380D01*
D12*
X154616666Y-73347619D02*
X154616666Y-73533333D01*
X154629047Y-73570476D01*
X154653809Y-73595238D01*
X154690952Y-73607619D01*
X154715714Y-73607619D01*
X154492857Y-73607619D02*
X154492857Y-73347619D01*
X154393809Y-73347619D01*
X154369047Y-73360000D01*
X154356666Y-73372380D01*
X154344285Y-73397142D01*
X154344285Y-73434285D01*
X154356666Y-73459047D01*
X154369047Y-73471428D01*
X154393809Y-73483809D01*
X154492857Y-73483809D01*
X154245238Y-73372380D02*
X154232857Y-73360000D01*
X154208095Y-73347619D01*
X154146190Y-73347619D01*
X154121428Y-73360000D01*
X154109047Y-73372380D01*
X154096666Y-73397142D01*
X154096666Y-73421904D01*
X154109047Y-73459047D01*
X154257619Y-73607619D01*
X154096666Y-73607619D01*
D10*
X160650000Y-117206666D02*
X160650000Y-116506666D01*
X160650000Y-116840000D02*
X160250000Y-116840000D01*
X160250000Y-117206666D02*
X160250000Y-116506666D01*
X159650000Y-117173333D02*
X159716666Y-117206666D01*
X159850000Y-117206666D01*
X159916666Y-117173333D01*
X159950000Y-117106666D01*
X159950000Y-116840000D01*
X159916666Y-116773333D01*
X159850000Y-116740000D01*
X159716666Y-116740000D01*
X159650000Y-116773333D01*
X159616666Y-116840000D01*
X159616666Y-116906666D01*
X159950000Y-116973333D01*
X159016666Y-117206666D02*
X159016666Y-116840000D01*
X159050000Y-116773333D01*
X159116666Y-116740000D01*
X159250000Y-116740000D01*
X159316666Y-116773333D01*
X159016666Y-117173333D02*
X159083333Y-117206666D01*
X159250000Y-117206666D01*
X159316666Y-117173333D01*
X159350000Y-117106666D01*
X159350000Y-117040000D01*
X159316666Y-116973333D01*
X159250000Y-116940000D01*
X159083333Y-116940000D01*
X159016666Y-116906666D01*
X158383333Y-117206666D02*
X158383333Y-116506666D01*
X158383333Y-117173333D02*
X158450000Y-117206666D01*
X158583333Y-117206666D01*
X158650000Y-117173333D01*
X158683333Y-117140000D01*
X158716666Y-117073333D01*
X158716666Y-116873333D01*
X158683333Y-116806666D01*
X158650000Y-116773333D01*
X158583333Y-116740000D01*
X158450000Y-116740000D01*
X158383333Y-116773333D01*
X157783333Y-117173333D02*
X157850000Y-117206666D01*
X157983333Y-117206666D01*
X158050000Y-117173333D01*
X158083333Y-117106666D01*
X158083333Y-116840000D01*
X158050000Y-116773333D01*
X157983333Y-116740000D01*
X157850000Y-116740000D01*
X157783333Y-116773333D01*
X157750000Y-116840000D01*
X157750000Y-116906666D01*
X158083333Y-116973333D01*
X157450000Y-117206666D02*
X157450000Y-116740000D01*
X157450000Y-116873333D02*
X157416666Y-116806666D01*
X157383333Y-116773333D01*
X157316666Y-116740000D01*
X157250000Y-116740000D01*
X157183333Y-117273333D02*
X156650000Y-117273333D01*
X156516666Y-116573333D02*
X156483333Y-116540000D01*
X156416666Y-116506666D01*
X156250000Y-116506666D01*
X156183333Y-116540000D01*
X156150000Y-116573333D01*
X156116666Y-116640000D01*
X156116666Y-116706666D01*
X156150000Y-116806666D01*
X156550000Y-117206666D01*
X156116666Y-117206666D01*
X158016666Y-90196666D02*
X158516666Y-90196666D01*
X158616666Y-90163333D01*
X158683333Y-90096666D01*
X158716666Y-89996666D01*
X158716666Y-89930000D01*
X158016666Y-90463333D02*
X158016666Y-90896666D01*
X158283333Y-90663333D01*
X158283333Y-90763333D01*
X158316666Y-90830000D01*
X158350000Y-90863333D01*
X158416666Y-90896666D01*
X158583333Y-90896666D01*
X158650000Y-90863333D01*
X158683333Y-90830000D01*
X158716666Y-90763333D01*
X158716666Y-90563333D01*
X158683333Y-90496666D01*
X158650000Y-90463333D01*
D13*
X149280000Y-79950000D02*
X151980000Y-79950000D01*
X148280000Y-78950000D02*
X149280000Y-79950000D01*
X148280000Y-78950000D02*
X148280000Y-73250000D01*
X148280000Y-73250000D02*
X151980000Y-73250000D01*
X151980000Y-79950000D02*
X151980000Y-73250000D01*
X153875000Y-73220000D02*
X153875000Y-73760000D01*
X154925000Y-73760000D02*
X154925000Y-73220000D01*
X153875000Y-73760000D02*
X154925000Y-73760000D01*
X154925000Y-73220000D02*
X153875000Y-73220000D01*
X157130000Y-65030000D02*
X157130000Y-115830000D01*
X159670000Y-65665000D02*
X159035000Y-65030000D01*
X157130000Y-115830000D02*
X159670000Y-115830000D01*
X159035000Y-65030000D02*
X157130000Y-65030000D01*
X159670000Y-115830000D02*
X159670000Y-65665000D01*
M02*
