G04 #@! TF.GenerationSoftware,KiCad,Pcbnew,(5.99.0-12085-gf4905cb1ae)*
G04 #@! TF.CreationDate,2021-08-26T19:19:28+05:30*
G04 #@! TF.ProjectId,Mitayi-Pico-RP2040,4d697461-7969-42d5-9069-636f2d525032,0.2*
G04 #@! TF.SameCoordinates,Original*
G04 #@! TF.FileFunction,Soldermask,Top*
G04 #@! TF.FilePolarity,Negative*
%FSLAX46Y46*%
G04 Gerber Fmt 4.6, Leading zero omitted, Abs format (unit mm)*
G04 Created by KiCad (PCBNEW (5.99.0-12085-gf4905cb1ae)) date 2021-08-26 19:19:28*
%MOMM*%
%LPD*%
G01*
G04 APERTURE LIST*
G04 Aperture macros list*
%AMRoundRect*
0 Rectangle with rounded corners*
0 $1 Rounding radius*
0 $2 $3 $4 $5 $6 $7 $8 $9 X,Y pos of 4 corners*
0 Add a 4 corners polygon primitive as box body*
4,1,4,$2,$3,$4,$5,$6,$7,$8,$9,$2,$3,0*
0 Add four circle primitives for the rounded corners*
1,1,$1+$1,$2,$3*
1,1,$1+$1,$4,$5*
1,1,$1+$1,$6,$7*
1,1,$1+$1,$8,$9*
0 Add four rect primitives between the rounded corners*
20,1,$1+$1,$2,$3,$4,$5,0*
20,1,$1+$1,$4,$5,$6,$7,0*
20,1,$1+$1,$6,$7,$8,$9,0*
20,1,$1+$1,$8,$9,$2,$3,0*%
G04 Aperture macros list end*
%ADD10RoundRect,0.135000X-0.185000X0.135000X-0.185000X-0.135000X0.185000X-0.135000X0.185000X0.135000X0*%
%ADD11RoundRect,0.237500X0.237500X-0.300000X0.237500X0.300000X-0.237500X0.300000X-0.237500X-0.300000X0*%
%ADD12RoundRect,0.155000X-0.155000X0.212500X-0.155000X-0.212500X0.155000X-0.212500X0.155000X0.212500X0*%
%ADD13RoundRect,0.155000X0.155000X-0.212500X0.155000X0.212500X-0.155000X0.212500X-0.155000X-0.212500X0*%
%ADD14RoundRect,0.237500X-0.250000X-0.237500X0.250000X-0.237500X0.250000X0.237500X-0.250000X0.237500X0*%
%ADD15RoundRect,0.135000X0.135000X0.185000X-0.135000X0.185000X-0.135000X-0.185000X0.135000X-0.185000X0*%
%ADD16RoundRect,0.225000X0.250000X-0.225000X0.250000X0.225000X-0.250000X0.225000X-0.250000X-0.225000X0*%
%ADD17RoundRect,0.155000X0.212500X0.155000X-0.212500X0.155000X-0.212500X-0.155000X0.212500X-0.155000X0*%
%ADD18RoundRect,0.160000X-0.197500X-0.160000X0.197500X-0.160000X0.197500X0.160000X-0.197500X0.160000X0*%
%ADD19RoundRect,0.160000X0.197500X0.160000X-0.197500X0.160000X-0.197500X-0.160000X0.197500X-0.160000X0*%
%ADD20C,1.500000*%
%ADD21RoundRect,0.160000X-0.160000X0.197500X-0.160000X-0.197500X0.160000X-0.197500X0.160000X0.197500X0*%
%ADD22RoundRect,0.155000X-0.212500X-0.155000X0.212500X-0.155000X0.212500X0.155000X-0.212500X0.155000X0*%
%ADD23R,1.400000X1.200000*%
%ADD24RoundRect,0.050000X-0.387500X-0.050000X0.387500X-0.050000X0.387500X0.050000X-0.387500X0.050000X0*%
%ADD25RoundRect,0.050000X-0.050000X-0.387500X0.050000X-0.387500X0.050000X0.387500X-0.050000X0.387500X0*%
%ADD26RoundRect,0.144000X-1.456000X-1.456000X1.456000X-1.456000X1.456000X1.456000X-1.456000X1.456000X0*%
%ADD27RoundRect,0.150000X0.150000X-0.650000X0.150000X0.650000X-0.150000X0.650000X-0.150000X-0.650000X0*%
%ADD28RoundRect,0.135000X-0.135000X-0.185000X0.135000X-0.185000X0.135000X0.185000X-0.135000X0.185000X0*%
%ADD29O,1.600000X1.700000*%
%ADD30R,1.600000X3.200000*%
%ADD31RoundRect,0.225000X-0.225000X-0.250000X0.225000X-0.250000X0.225000X0.250000X-0.225000X0.250000X0*%
%ADD32C,0.670000*%
%ADD33R,0.300000X1.450000*%
%ADD34RoundRect,0.500000X0.000000X0.300000X0.000000X0.300000X0.000000X-0.300000X0.000000X-0.300000X0*%
%ADD35R,1.100000X1.100000*%
%ADD36R,0.400000X1.350000*%
%ADD37R,1.500000X1.900000*%
%ADD38O,1.200000X1.900000*%
%ADD39C,1.450000*%
%ADD40R,1.200000X1.900000*%
%ADD41R,1.700000X1.150000*%
%ADD42R,3.200000X1.600000*%
%ADD43O,1.700000X1.600000*%
%ADD44RoundRect,0.250000X-0.312500X-0.275000X0.312500X-0.275000X0.312500X0.275000X-0.312500X0.275000X0*%
%ADD45RoundRect,0.150000X0.512500X0.150000X-0.512500X0.150000X-0.512500X-0.150000X0.512500X-0.150000X0*%
G04 APERTURE END LIST*
D10*
X156300000Y-96500000D03*
X156300000Y-97520000D03*
D11*
X156030000Y-100812500D03*
X156030000Y-99087500D03*
D12*
X148990000Y-104012500D03*
X148990000Y-105147500D03*
D13*
X144930000Y-89057500D03*
X144930000Y-87922500D03*
D14*
X154077500Y-106500000D03*
X155902500Y-106500000D03*
D15*
X155480000Y-76400000D03*
X154460000Y-76400000D03*
D16*
X153090000Y-76285000D03*
X153090000Y-74735000D03*
D12*
X144800000Y-93952500D03*
X144800000Y-95087500D03*
D13*
X153605000Y-86837500D03*
X153605000Y-85702500D03*
D17*
X146477500Y-103660000D03*
X145342500Y-103660000D03*
D18*
X147302500Y-84370000D03*
X148497500Y-84370000D03*
D19*
X156067500Y-105140000D03*
X154872500Y-105140000D03*
D20*
X156000000Y-114510000D03*
D21*
X149020000Y-97982500D03*
X149020000Y-99177500D03*
D22*
X154812500Y-89170000D03*
X155947500Y-89170000D03*
D23*
X149100000Y-102450000D03*
X151300000Y-102450000D03*
X151300000Y-100750000D03*
X149100000Y-100750000D03*
D24*
X146382500Y-89770000D03*
X146382500Y-90170000D03*
X146382500Y-90570000D03*
X146382500Y-90970000D03*
X146382500Y-91370000D03*
X146382500Y-91770000D03*
X146382500Y-92170000D03*
X146382500Y-92570000D03*
X146382500Y-92970000D03*
X146382500Y-93370000D03*
X146382500Y-93770000D03*
X146382500Y-94170000D03*
X146382500Y-94570000D03*
X146382500Y-94970000D03*
D25*
X147220000Y-95807500D03*
X147620000Y-95807500D03*
X148020000Y-95807500D03*
X148420000Y-95807500D03*
X148820000Y-95807500D03*
X149220000Y-95807500D03*
X149620000Y-95807500D03*
X150020000Y-95807500D03*
X150420000Y-95807500D03*
X150820000Y-95807500D03*
X151220000Y-95807500D03*
X151620000Y-95807500D03*
X152020000Y-95807500D03*
X152420000Y-95807500D03*
D24*
X153257500Y-94970000D03*
X153257500Y-94570000D03*
X153257500Y-94170000D03*
X153257500Y-93770000D03*
X153257500Y-93370000D03*
X153257500Y-92970000D03*
X153257500Y-92570000D03*
X153257500Y-92170000D03*
X153257500Y-91770000D03*
X153257500Y-91370000D03*
X153257500Y-90970000D03*
X153257500Y-90570000D03*
X153257500Y-90170000D03*
X153257500Y-89770000D03*
D25*
X152420000Y-88932500D03*
X152020000Y-88932500D03*
X151620000Y-88932500D03*
X151220000Y-88932500D03*
X150820000Y-88932500D03*
X150420000Y-88932500D03*
X150020000Y-88932500D03*
X149620000Y-88932500D03*
X149220000Y-88932500D03*
X148820000Y-88932500D03*
X148420000Y-88932500D03*
X148020000Y-88932500D03*
X147620000Y-88932500D03*
X147220000Y-88932500D03*
D26*
X149820000Y-92370000D03*
D21*
X150725000Y-85652500D03*
X150725000Y-86847500D03*
D13*
X147125000Y-86837500D03*
X147125000Y-85702500D03*
D12*
X150150000Y-98002500D03*
X150150000Y-99137500D03*
D27*
X144655000Y-82350000D03*
X145925000Y-82350000D03*
X147195000Y-82350000D03*
X148465000Y-82350000D03*
X148465000Y-75150000D03*
X147195000Y-75150000D03*
X145925000Y-75150000D03*
X144655000Y-75150000D03*
D13*
X149320000Y-86842500D03*
X149320000Y-85707500D03*
D18*
X144872500Y-84370000D03*
X146067500Y-84370000D03*
D13*
X152630000Y-86827500D03*
X152630000Y-85692500D03*
D22*
X144642500Y-73400000D03*
X145777500Y-73400000D03*
D28*
X154440000Y-75370000D03*
X155460000Y-75370000D03*
D29*
X146950000Y-114400000D03*
D30*
X146950000Y-116010000D03*
D29*
X149490000Y-114400000D03*
D30*
X149490000Y-116010000D03*
D29*
X152030000Y-114400000D03*
D30*
X152030000Y-116010000D03*
D18*
X145312500Y-102600000D03*
X146507500Y-102600000D03*
D12*
X151170000Y-98002500D03*
X151170000Y-99137500D03*
X155200000Y-96122500D03*
X155200000Y-97257500D03*
D31*
X153815000Y-84080000D03*
X155365000Y-84080000D03*
D20*
X143000000Y-114510000D03*
D32*
X146610000Y-70080000D03*
X152410000Y-70080000D03*
D33*
X152910000Y-71530000D03*
X152110000Y-71530000D03*
X150760000Y-71530000D03*
X149760000Y-71530000D03*
X149260000Y-71530000D03*
X148260000Y-71530000D03*
X146910000Y-71530000D03*
X146110000Y-71530000D03*
X146410000Y-71530000D03*
X147210000Y-71530000D03*
X147760000Y-71530000D03*
X148760000Y-71530000D03*
X150260000Y-71530000D03*
X151260000Y-71530000D03*
X151810000Y-71530000D03*
X152610000Y-71530000D03*
D34*
X153830000Y-70610000D03*
X145190000Y-70610000D03*
X153830000Y-66430000D03*
X145190000Y-66430000D03*
D22*
X154402500Y-77460000D03*
X155537500Y-77460000D03*
D28*
X154440000Y-74400000D03*
X155460000Y-74400000D03*
D19*
X148047500Y-73400000D03*
X146852500Y-73400000D03*
D35*
X155900000Y-72900000D03*
X155900000Y-70100000D03*
D20*
X156000000Y-66510000D03*
D36*
X150810000Y-69062500D03*
X150160000Y-69062500D03*
X149510000Y-69062500D03*
X148860000Y-69062500D03*
X148210000Y-69062500D03*
D37*
X150510000Y-66362500D03*
D38*
X146010000Y-66362500D03*
D39*
X152010000Y-69062500D03*
D40*
X152410000Y-66362500D03*
D39*
X147010000Y-69062500D03*
D38*
X153010000Y-66362500D03*
D40*
X146610000Y-66362500D03*
D37*
X148510000Y-66362500D03*
D20*
X143000000Y-66510000D03*
D41*
X145900000Y-105125000D03*
X145900000Y-109475000D03*
D12*
X151430000Y-104022500D03*
X151430000Y-105157500D03*
D13*
X148420000Y-86837500D03*
X148420000Y-85702500D03*
D21*
X151725000Y-85652500D03*
X151725000Y-86847500D03*
D42*
X138990000Y-66300000D03*
D43*
X140600000Y-66300000D03*
D42*
X138990000Y-68840000D03*
D43*
X140600000Y-68840000D03*
D42*
X138990000Y-71380000D03*
D43*
X140600000Y-71380000D03*
D42*
X138990000Y-73920000D03*
D43*
X140600000Y-73920000D03*
X140600000Y-76460000D03*
D42*
X138990000Y-76460000D03*
D43*
X140600000Y-79000000D03*
D42*
X138990000Y-79000000D03*
X138990000Y-81540000D03*
D43*
X140600000Y-81540000D03*
D42*
X138990000Y-84080000D03*
D43*
X140600000Y-84080000D03*
X140600000Y-86620000D03*
D42*
X138990000Y-86620000D03*
X138990000Y-89160000D03*
D43*
X140600000Y-89160000D03*
D42*
X138990000Y-91700000D03*
D43*
X140600000Y-91700000D03*
D42*
X138990000Y-94240000D03*
D43*
X140600000Y-94240000D03*
D42*
X138990000Y-96780000D03*
D43*
X140600000Y-96780000D03*
D42*
X138990000Y-99320000D03*
D43*
X140600000Y-99320000D03*
D42*
X138990000Y-101860000D03*
D43*
X140600000Y-101860000D03*
D42*
X138990000Y-104400000D03*
D43*
X140600000Y-104400000D03*
X140600000Y-106940000D03*
D42*
X138990000Y-106940000D03*
X138990000Y-109480000D03*
D43*
X140600000Y-109480000D03*
D42*
X138990000Y-112020000D03*
D43*
X140600000Y-112020000D03*
D42*
X138990000Y-114560000D03*
D43*
X140600000Y-114560000D03*
D44*
X153447500Y-82400000D03*
X155222500Y-82400000D03*
D10*
X155350000Y-86930000D03*
X155350000Y-87950000D03*
D18*
X152802500Y-73300000D03*
X153997500Y-73300000D03*
D45*
X155187500Y-80720000D03*
X155187500Y-79770000D03*
X155187500Y-78820000D03*
X152912500Y-78820000D03*
X152912500Y-80720000D03*
D42*
X160010000Y-66300000D03*
D43*
X158400000Y-66300000D03*
D42*
X160010000Y-68840000D03*
D43*
X158400000Y-68840000D03*
D42*
X160010000Y-71380000D03*
D43*
X158400000Y-71380000D03*
X158400000Y-73920000D03*
D42*
X160010000Y-73920000D03*
D43*
X158400000Y-76460000D03*
D42*
X160010000Y-76460000D03*
X160010000Y-79000000D03*
D43*
X158400000Y-79000000D03*
D42*
X160010000Y-81540000D03*
D43*
X158400000Y-81540000D03*
X158400000Y-84080000D03*
D42*
X160010000Y-84080000D03*
X160010000Y-86620000D03*
D43*
X158400000Y-86620000D03*
D42*
X160010000Y-89160000D03*
D43*
X158400000Y-89160000D03*
D42*
X160010000Y-91700000D03*
D43*
X158400000Y-91700000D03*
D42*
X160010000Y-94240000D03*
D43*
X158400000Y-94240000D03*
X158400000Y-96780000D03*
D42*
X160010000Y-96780000D03*
D43*
X158400000Y-99320000D03*
D42*
X160010000Y-99320000D03*
X160010000Y-101860000D03*
D43*
X158400000Y-101860000D03*
X158400000Y-104400000D03*
D42*
X160010000Y-104400000D03*
X160010000Y-106940000D03*
D43*
X158400000Y-106940000D03*
X158400000Y-109480000D03*
D42*
X160010000Y-109480000D03*
X160010000Y-112020000D03*
D43*
X158400000Y-112020000D03*
D42*
X160010000Y-114560000D03*
D43*
X158400000Y-114560000D03*
M02*
