G04 #@! TF.GenerationSoftware,KiCad,Pcbnew,(5.99.0-12085-gf4905cb1ae)*
G04 #@! TF.CreationDate,2021-08-26T19:19:28+05:30*
G04 #@! TF.ProjectId,Mitayi-Pico-RP2040,4d697461-7969-42d5-9069-636f2d525032,0.2*
G04 #@! TF.SameCoordinates,Original*
G04 #@! TF.FileFunction,Other,User*
%FSLAX46Y46*%
G04 Gerber Fmt 4.6, Leading zero omitted, Abs format (unit mm)*
G04 Created by KiCad (PCBNEW (5.99.0-12085-gf4905cb1ae)) date 2021-08-26 19:19:28*
%MOMM*%
%LPD*%
G01*
G04 APERTURE LIST*
%ADD10C,0.050000*%
G04 APERTURE END LIST*
D10*
X156770000Y-97940000D02*
X155830000Y-97940000D01*
X156770000Y-96080000D02*
X156770000Y-97940000D01*
X155830000Y-96080000D02*
X156770000Y-96080000D01*
X155830000Y-97940000D02*
X155830000Y-96080000D01*
X155300000Y-98300000D02*
X156760000Y-98300000D01*
X156760000Y-101600000D02*
X155300000Y-101600000D01*
X156760000Y-98300000D02*
X156760000Y-101600000D01*
X155300000Y-101600000D02*
X155300000Y-98300000D01*
X148530000Y-105660000D02*
X148530000Y-103500000D01*
X149450000Y-105660000D02*
X148530000Y-105660000D01*
X149450000Y-103500000D02*
X149450000Y-105660000D01*
X148530000Y-103500000D02*
X149450000Y-103500000D01*
X145390000Y-87410000D02*
X145390000Y-89570000D01*
X144470000Y-89570000D02*
X144470000Y-87410000D01*
X144470000Y-87410000D02*
X145390000Y-87410000D01*
X145390000Y-89570000D02*
X144470000Y-89570000D01*
X156640000Y-107230000D02*
X153340000Y-107230000D01*
X153340000Y-105770000D02*
X156640000Y-105770000D01*
X156640000Y-105770000D02*
X156640000Y-107230000D01*
X153340000Y-107230000D02*
X153340000Y-105770000D01*
X155900000Y-75930000D02*
X155900000Y-76870000D01*
X154040000Y-76870000D02*
X154040000Y-75930000D01*
X154040000Y-75930000D02*
X155900000Y-75930000D01*
X155900000Y-76870000D02*
X154040000Y-76870000D01*
X153820000Y-74030000D02*
X153820000Y-76990000D01*
X152360000Y-74030000D02*
X153820000Y-74030000D01*
X152360000Y-76990000D02*
X152360000Y-74030000D01*
X153820000Y-76990000D02*
X152360000Y-76990000D01*
X145260000Y-95600000D02*
X144340000Y-95600000D01*
X144340000Y-95600000D02*
X144340000Y-93440000D01*
X145260000Y-93440000D02*
X145260000Y-95600000D01*
X144340000Y-93440000D02*
X145260000Y-93440000D01*
X154065000Y-85190000D02*
X154065000Y-87350000D01*
X154065000Y-87350000D02*
X153145000Y-87350000D01*
X153145000Y-85190000D02*
X154065000Y-85190000D01*
X153145000Y-87350000D02*
X153145000Y-85190000D01*
X146990000Y-103200000D02*
X146990000Y-104120000D01*
X144830000Y-103200000D02*
X146990000Y-103200000D01*
X144830000Y-104120000D02*
X144830000Y-103200000D01*
X146990000Y-104120000D02*
X144830000Y-104120000D01*
X146800000Y-84840000D02*
X146800000Y-83900000D01*
X146800000Y-83900000D02*
X149000000Y-83900000D01*
X149000000Y-83900000D02*
X149000000Y-84840000D01*
X149000000Y-84840000D02*
X146800000Y-84840000D01*
X154370000Y-105610000D02*
X154370000Y-104670000D01*
X156570000Y-104670000D02*
X156570000Y-105610000D01*
X156570000Y-105610000D02*
X154370000Y-105610000D01*
X154370000Y-104670000D02*
X156570000Y-104670000D01*
X157118034Y-114510000D02*
G75*
G03*
X157118034Y-114510000I-1118034J0D01*
G01*
X148550000Y-99680000D02*
X148550000Y-97480000D01*
X149490000Y-99680000D02*
X148550000Y-99680000D01*
X148550000Y-97480000D02*
X149490000Y-97480000D01*
X149490000Y-97480000D02*
X149490000Y-99680000D01*
X154300000Y-89630000D02*
X154300000Y-88710000D01*
X156460000Y-89630000D02*
X154300000Y-89630000D01*
X156460000Y-88710000D02*
X156460000Y-89630000D01*
X154300000Y-88710000D02*
X156460000Y-88710000D01*
X152300000Y-99900000D02*
X148100000Y-99900000D01*
X148100000Y-99900000D02*
X148100000Y-103300000D01*
X152300000Y-103300000D02*
X152300000Y-99900000D01*
X148100000Y-103300000D02*
X152300000Y-103300000D01*
X145700000Y-88250000D02*
X145700000Y-96490000D01*
X145700000Y-96490000D02*
X153940000Y-96490000D01*
X153940000Y-96490000D02*
X153940000Y-88250000D01*
X153940000Y-88250000D02*
X145700000Y-88250000D01*
X150255000Y-85150000D02*
X151195000Y-85150000D01*
X150255000Y-87350000D02*
X150255000Y-85150000D01*
X151195000Y-87350000D02*
X150255000Y-87350000D01*
X151195000Y-85150000D02*
X151195000Y-87350000D01*
X147585000Y-87350000D02*
X146665000Y-87350000D01*
X147585000Y-85190000D02*
X147585000Y-87350000D01*
X146665000Y-85190000D02*
X147585000Y-85190000D01*
X146665000Y-87350000D02*
X146665000Y-85190000D01*
X149690000Y-97490000D02*
X150610000Y-97490000D01*
X150610000Y-97490000D02*
X150610000Y-99650000D01*
X150610000Y-99650000D02*
X149690000Y-99650000D01*
X149690000Y-99650000D02*
X149690000Y-97490000D01*
X143700000Y-83400000D02*
X149420000Y-83400000D01*
X149420000Y-83400000D02*
X149420000Y-74100000D01*
X143700000Y-74100000D02*
X143700000Y-83400000D01*
X149420000Y-74100000D02*
X143700000Y-74100000D01*
X149780000Y-87355000D02*
X148860000Y-87355000D01*
X148860000Y-87355000D02*
X148860000Y-85195000D01*
X148860000Y-85195000D02*
X149780000Y-85195000D01*
X149780000Y-85195000D02*
X149780000Y-87355000D01*
X144370000Y-83900000D02*
X146570000Y-83900000D01*
X146570000Y-84840000D02*
X144370000Y-84840000D01*
X144370000Y-84840000D02*
X144370000Y-83900000D01*
X146570000Y-83900000D02*
X146570000Y-84840000D01*
X153090000Y-87340000D02*
X152170000Y-87340000D01*
X152170000Y-87340000D02*
X152170000Y-85180000D01*
X153090000Y-85180000D02*
X153090000Y-87340000D01*
X152170000Y-85180000D02*
X153090000Y-85180000D01*
X146290000Y-73860000D02*
X144130000Y-73860000D01*
X146290000Y-72940000D02*
X146290000Y-73860000D01*
X144130000Y-73860000D02*
X144130000Y-72940000D01*
X144130000Y-72940000D02*
X146290000Y-72940000D01*
X155880000Y-75840000D02*
X154020000Y-75840000D01*
X155880000Y-74900000D02*
X155880000Y-75840000D01*
X154020000Y-74900000D02*
X155880000Y-74900000D01*
X154020000Y-75840000D02*
X154020000Y-74900000D01*
X153800000Y-116200000D02*
X153800000Y-112600000D01*
X153800000Y-112600000D02*
X145150000Y-112600000D01*
X145150000Y-112600000D02*
X145150000Y-116200000D01*
X145150000Y-116200000D02*
X153800000Y-116200000D01*
X144810000Y-103070000D02*
X144810000Y-102130000D01*
X147010000Y-103070000D02*
X144810000Y-103070000D01*
X147010000Y-102130000D02*
X147010000Y-103070000D01*
X144810000Y-102130000D02*
X147010000Y-102130000D01*
X150710000Y-97490000D02*
X151630000Y-97490000D01*
X151630000Y-97490000D02*
X151630000Y-99650000D01*
X150710000Y-99650000D02*
X150710000Y-97490000D01*
X151630000Y-99650000D02*
X150710000Y-99650000D01*
X154740000Y-95610000D02*
X155660000Y-95610000D01*
X154740000Y-97770000D02*
X154740000Y-95610000D01*
X155660000Y-97770000D02*
X154740000Y-97770000D01*
X155660000Y-95610000D02*
X155660000Y-97770000D01*
X156070000Y-84810000D02*
X153110000Y-84810000D01*
X153110000Y-84810000D02*
X153110000Y-83350000D01*
X156070000Y-83350000D02*
X156070000Y-84810000D01*
X153110000Y-83350000D02*
X156070000Y-83350000D01*
X144118034Y-114510000D02*
G75*
G03*
X144118034Y-114510000I-1118034J0D01*
G01*
X154510000Y-72430000D02*
X144510000Y-72430000D01*
X144510000Y-72430000D02*
X144510000Y-63430000D01*
X144510000Y-63430000D02*
X154510000Y-63430000D01*
X154510000Y-63430000D02*
X154510000Y-72430000D01*
X153890000Y-77000000D02*
X156050000Y-77000000D01*
X156050000Y-77000000D02*
X156050000Y-77920000D01*
X153890000Y-77920000D02*
X153890000Y-77000000D01*
X156050000Y-77920000D02*
X153890000Y-77920000D01*
X155880000Y-74870000D02*
X154020000Y-74870000D01*
X154020000Y-74870000D02*
X154020000Y-73930000D01*
X154020000Y-73930000D02*
X155880000Y-73930000D01*
X155880000Y-73930000D02*
X155880000Y-74870000D01*
X146350000Y-72930000D02*
X148550000Y-72930000D01*
X148550000Y-72930000D02*
X148550000Y-73870000D01*
X146350000Y-73870000D02*
X146350000Y-72930000D01*
X148550000Y-73870000D02*
X146350000Y-73870000D01*
X154750000Y-73700000D02*
X154750000Y-69300000D01*
X154750000Y-69300000D02*
X157050000Y-69300000D01*
X157050000Y-69300000D02*
X157050000Y-73700000D01*
X154750000Y-73700000D02*
X157050000Y-73700000D01*
X157118034Y-66510000D02*
G75*
G03*
X157118034Y-66510000I-1118034J0D01*
G01*
X153910000Y-63960000D02*
X145110000Y-63960000D01*
X153910000Y-63960000D02*
X153910000Y-70060000D01*
X153910000Y-70060000D02*
X145110000Y-70060000D01*
X145110000Y-70060000D02*
X145110000Y-63960000D01*
X144118034Y-66510000D02*
G75*
G03*
X144118034Y-66510000I-1118034J0D01*
G01*
X147500000Y-104350000D02*
X144300000Y-104350000D01*
X144300000Y-104350000D02*
X144300000Y-110250000D01*
X144300000Y-110250000D02*
X147500000Y-110250000D01*
X147500000Y-110250000D02*
X147500000Y-104350000D01*
X150970000Y-105670000D02*
X150970000Y-103510000D01*
X150970000Y-103510000D02*
X151890000Y-103510000D01*
X151890000Y-103510000D02*
X151890000Y-105670000D01*
X151890000Y-105670000D02*
X150970000Y-105670000D01*
X147960000Y-85190000D02*
X148880000Y-85190000D01*
X148880000Y-85190000D02*
X148880000Y-87350000D01*
X148880000Y-87350000D02*
X147960000Y-87350000D01*
X147960000Y-87350000D02*
X147960000Y-85190000D01*
X152195000Y-85150000D02*
X152195000Y-87350000D01*
X151255000Y-85150000D02*
X152195000Y-85150000D01*
X152195000Y-87350000D02*
X151255000Y-87350000D01*
X151255000Y-87350000D02*
X151255000Y-85150000D01*
X138800000Y-116350000D02*
X142400000Y-116350000D01*
X138800000Y-64500000D02*
X138800000Y-116350000D01*
X142400000Y-64500000D02*
X138800000Y-64500000D01*
X142400000Y-116350000D02*
X142400000Y-64500000D01*
X156035000Y-83280000D02*
X152635000Y-83280000D01*
X152635000Y-81520000D02*
X156035000Y-81520000D01*
X152635000Y-83280000D02*
X152635000Y-81520000D01*
X156035000Y-81520000D02*
X156035000Y-83280000D01*
X154880000Y-86510000D02*
X155820000Y-86510000D01*
X155820000Y-86510000D02*
X155820000Y-88370000D01*
X154880000Y-88370000D02*
X154880000Y-86510000D01*
X155820000Y-88370000D02*
X154880000Y-88370000D01*
X152300000Y-73770000D02*
X152300000Y-72830000D01*
X154500000Y-73770000D02*
X152300000Y-73770000D01*
X152300000Y-72830000D02*
X154500000Y-72830000D01*
X154500000Y-72830000D02*
X154500000Y-73770000D01*
X156100000Y-78070000D02*
X152000000Y-78070000D01*
X152000000Y-81470000D02*
X156100000Y-81470000D01*
X152000000Y-78070000D02*
X152000000Y-81470000D01*
X156100000Y-81470000D02*
X156100000Y-78070000D01*
M02*
