G04 #@! TF.GenerationSoftware,KiCad,Pcbnew,(5.99.0-12085-gf4905cb1ae)*
G04 #@! TF.CreationDate,2021-08-26T19:19:28+05:30*
G04 #@! TF.ProjectId,Mitayi-Pico-RP2040,4d697461-7969-42d5-9069-636f2d525032,0.2*
G04 #@! TF.SameCoordinates,Original*
G04 #@! TF.FileFunction,Copper,L2,Bot*
G04 #@! TF.FilePolarity,Positive*
%FSLAX46Y46*%
G04 Gerber Fmt 4.6, Leading zero omitted, Abs format (unit mm)*
G04 Created by KiCad (PCBNEW (5.99.0-12085-gf4905cb1ae)) date 2021-08-26 19:19:28*
%MOMM*%
%LPD*%
G01*
G04 APERTURE LIST*
G04 Aperture macros list*
%AMRoundRect*
0 Rectangle with rounded corners*
0 $1 Rounding radius*
0 $2 $3 $4 $5 $6 $7 $8 $9 X,Y pos of 4 corners*
0 Add a 4 corners polygon primitive as box body*
4,1,4,$2,$3,$4,$5,$6,$7,$8,$9,$2,$3,0*
0 Add four circle primitives for the rounded corners*
1,1,$1+$1,$2,$3*
1,1,$1+$1,$4,$5*
1,1,$1+$1,$6,$7*
1,1,$1+$1,$8,$9*
0 Add four rect primitives between the rounded corners*
20,1,$1+$1,$2,$3,$4,$5,0*
20,1,$1+$1,$4,$5,$6,$7,0*
20,1,$1+$1,$6,$7,$8,$9,0*
20,1,$1+$1,$8,$9,$2,$3,0*%
G04 Aperture macros list end*
G04 #@! TA.AperFunction,ComponentPad*
%ADD10C,0.600000*%
G04 #@! TD*
G04 #@! TA.AperFunction,ComponentPad*
%ADD11O,1.600000X1.700000*%
G04 #@! TD*
G04 #@! TA.AperFunction,ComponentPad*
%ADD12R,1.600000X3.200000*%
G04 #@! TD*
G04 #@! TA.AperFunction,ComponentPad*
%ADD13RoundRect,0.500000X0.000000X0.300000X0.000000X0.300000X0.000000X-0.300000X0.000000X-0.300000X0*%
G04 #@! TD*
G04 #@! TA.AperFunction,ComponentPad*
%ADD14O,1.200000X1.900000*%
G04 #@! TD*
G04 #@! TA.AperFunction,ComponentPad*
%ADD15C,1.450000*%
G04 #@! TD*
G04 #@! TA.AperFunction,ComponentPad*
%ADD16R,3.200000X1.600000*%
G04 #@! TD*
G04 #@! TA.AperFunction,ComponentPad*
%ADD17O,1.700000X1.600000*%
G04 #@! TD*
G04 #@! TA.AperFunction,SMDPad,CuDef*
%ADD18R,2.000000X1.500000*%
G04 #@! TD*
G04 #@! TA.AperFunction,SMDPad,CuDef*
%ADD19R,2.000000X3.800000*%
G04 #@! TD*
G04 #@! TA.AperFunction,SMDPad,CuDef*
%ADD20RoundRect,0.135000X-0.135000X-0.185000X0.135000X-0.185000X0.135000X0.185000X-0.135000X0.185000X0*%
G04 #@! TD*
G04 #@! TA.AperFunction,ViaPad*
%ADD21C,0.500000*%
G04 #@! TD*
G04 #@! TA.AperFunction,Conductor*
%ADD22C,0.200000*%
G04 #@! TD*
G04 #@! TA.AperFunction,Conductor*
%ADD23C,0.300000*%
G04 #@! TD*
G04 APERTURE END LIST*
D10*
X149820000Y-91095000D03*
X151095000Y-91095000D03*
X149820000Y-92370000D03*
X149820000Y-93645000D03*
X148545000Y-92370000D03*
X151095000Y-92370000D03*
X148545000Y-93645000D03*
X148545000Y-91095000D03*
X151095000Y-93645000D03*
D11*
X146950000Y-114400000D03*
D12*
X146950000Y-116010000D03*
D11*
X149490000Y-114400000D03*
D12*
X149490000Y-116010000D03*
D11*
X152030000Y-114400000D03*
D12*
X152030000Y-116010000D03*
D13*
X153830000Y-70610000D03*
X145190000Y-70610000D03*
X153830000Y-66430000D03*
X145190000Y-66430000D03*
D14*
X146010000Y-66362500D03*
D15*
X152010000Y-69062500D03*
X147010000Y-69062500D03*
D14*
X153010000Y-66362500D03*
D16*
X138990000Y-66300000D03*
D17*
X140600000Y-66300000D03*
D16*
X138990000Y-68840000D03*
D17*
X140600000Y-68840000D03*
D16*
X138990000Y-71380000D03*
D17*
X140600000Y-71380000D03*
D16*
X138990000Y-73920000D03*
D17*
X140600000Y-73920000D03*
X140600000Y-76460000D03*
D16*
X138990000Y-76460000D03*
D17*
X140600000Y-79000000D03*
D16*
X138990000Y-79000000D03*
X138990000Y-81540000D03*
D17*
X140600000Y-81540000D03*
D16*
X138990000Y-84080000D03*
D17*
X140600000Y-84080000D03*
X140600000Y-86620000D03*
D16*
X138990000Y-86620000D03*
X138990000Y-89160000D03*
D17*
X140600000Y-89160000D03*
D16*
X138990000Y-91700000D03*
D17*
X140600000Y-91700000D03*
D16*
X138990000Y-94240000D03*
D17*
X140600000Y-94240000D03*
D16*
X138990000Y-96780000D03*
D17*
X140600000Y-96780000D03*
D16*
X138990000Y-99320000D03*
D17*
X140600000Y-99320000D03*
D16*
X138990000Y-101860000D03*
D17*
X140600000Y-101860000D03*
D16*
X138990000Y-104400000D03*
D17*
X140600000Y-104400000D03*
X140600000Y-106940000D03*
D16*
X138990000Y-106940000D03*
X138990000Y-109480000D03*
D17*
X140600000Y-109480000D03*
D16*
X138990000Y-112020000D03*
D17*
X140600000Y-112020000D03*
D16*
X138990000Y-114560000D03*
D17*
X140600000Y-114560000D03*
D18*
X146980000Y-78900000D03*
X146980000Y-76600000D03*
D19*
X153280000Y-76600000D03*
D18*
X146980000Y-74300000D03*
D20*
X153890000Y-73490000D03*
X154910000Y-73490000D03*
D16*
X160010000Y-66300000D03*
D17*
X158400000Y-66300000D03*
D16*
X160010000Y-68840000D03*
D17*
X158400000Y-68840000D03*
D16*
X160010000Y-71380000D03*
D17*
X158400000Y-71380000D03*
X158400000Y-73920000D03*
D16*
X160010000Y-73920000D03*
D17*
X158400000Y-76460000D03*
D16*
X160010000Y-76460000D03*
X160010000Y-79000000D03*
D17*
X158400000Y-79000000D03*
D16*
X160010000Y-81540000D03*
D17*
X158400000Y-81540000D03*
X158400000Y-84080000D03*
D16*
X160010000Y-84080000D03*
X160010000Y-86620000D03*
D17*
X158400000Y-86620000D03*
D16*
X160010000Y-89160000D03*
D17*
X158400000Y-89160000D03*
D16*
X160010000Y-91700000D03*
D17*
X158400000Y-91700000D03*
D16*
X160010000Y-94240000D03*
D17*
X158400000Y-94240000D03*
X158400000Y-96780000D03*
D16*
X160010000Y-96780000D03*
D17*
X158400000Y-99320000D03*
D16*
X160010000Y-99320000D03*
X160010000Y-101860000D03*
D17*
X158400000Y-101860000D03*
X158400000Y-104400000D03*
D16*
X160010000Y-104400000D03*
X160010000Y-106940000D03*
D17*
X158400000Y-106940000D03*
X158400000Y-109480000D03*
D16*
X160010000Y-109480000D03*
X160010000Y-112020000D03*
D17*
X158400000Y-112020000D03*
D16*
X160010000Y-114560000D03*
D17*
X158400000Y-114560000D03*
D21*
X152600000Y-103000000D03*
X149500000Y-67800000D03*
X145600000Y-80500000D03*
X150516352Y-97000358D03*
X152349500Y-94553260D03*
X149000000Y-73500000D03*
X141500000Y-93000000D03*
X142300000Y-80500000D03*
X146500000Y-99700000D03*
X142300000Y-71000000D03*
X142300000Y-77800000D03*
X154300000Y-81500000D03*
X147800000Y-106700000D03*
X149500000Y-112000000D03*
X148400000Y-112000000D03*
X142000000Y-100200000D03*
X156150500Y-83261588D03*
X156800000Y-68900000D03*
X144800000Y-113800000D03*
X157400000Y-113200000D03*
X149400000Y-74700000D03*
X145300000Y-72400000D03*
X154400000Y-85700000D03*
X157400000Y-105600000D03*
X144800000Y-97800000D03*
X152300000Y-82500000D03*
X152300000Y-74000000D03*
X142800000Y-103500000D03*
X144900000Y-96100000D03*
X144800000Y-115400000D03*
X142000000Y-100900000D03*
X156236444Y-88236444D03*
X150200000Y-105500000D03*
X146800000Y-106700000D03*
X142700000Y-69400000D03*
X146100000Y-86000000D03*
X143600000Y-110800000D03*
X145200000Y-68700000D03*
X143600000Y-109200000D03*
X157300000Y-110800000D03*
X141500000Y-95500000D03*
X141300000Y-110800000D03*
X149200000Y-79200000D03*
X150600000Y-112000000D03*
X146000000Y-100200000D03*
X142300000Y-75200000D03*
X157400000Y-90400000D03*
X144800000Y-114600000D03*
X141600000Y-82800000D03*
X150200000Y-103900000D03*
X156272881Y-86572881D03*
X149400000Y-75900000D03*
X149200000Y-77900000D03*
X143600000Y-110000000D03*
X157500000Y-77700000D03*
X153900000Y-115400000D03*
X153000000Y-89100000D03*
X148800000Y-106700000D03*
X142000000Y-72900000D03*
X141300000Y-105700000D03*
X148000000Y-94600000D03*
X143600000Y-68000000D03*
X141500000Y-98000000D03*
X153900000Y-113800000D03*
X141300000Y-108200000D03*
X152300000Y-83400000D03*
X141300000Y-113200000D03*
X157400000Y-108200000D03*
X157500000Y-80300000D03*
X141600000Y-85400000D03*
X153900000Y-114600000D03*
X157500000Y-72700000D03*
X146100000Y-86800000D03*
X145153562Y-101053562D03*
X153100000Y-79600000D03*
X143800000Y-95600000D03*
X144500000Y-72400000D03*
X152800000Y-84200000D03*
X150078395Y-86281222D03*
X149826988Y-97170828D03*
X151900000Y-98500000D03*
X148300000Y-70187002D03*
X150809500Y-70355498D03*
X147600000Y-102300000D03*
X150300000Y-94819020D03*
X156400000Y-84700000D03*
X147270092Y-90482254D03*
X145278798Y-90563606D03*
X144050500Y-89600000D03*
X147300000Y-91900000D03*
X147500000Y-92900000D03*
X147439859Y-94022935D03*
X147314428Y-94738905D03*
X145900000Y-95600000D03*
X149029287Y-94428605D03*
X153050500Y-95600000D03*
X153400000Y-97100000D03*
X153000000Y-104900000D03*
X149148511Y-84400000D03*
X153379875Y-88499500D03*
X154549500Y-88300000D03*
X153063556Y-106663556D03*
X154681610Y-89995735D03*
X155363024Y-90153780D03*
X155800000Y-90700000D03*
X156597651Y-92425039D03*
X156042782Y-92850979D03*
X155950980Y-93544431D03*
X154802125Y-93988587D03*
X154674060Y-94676267D03*
X154660341Y-95439659D03*
X152100000Y-97200000D03*
X152774346Y-96787173D03*
X154100000Y-80300000D03*
X156250500Y-75200000D03*
X146100000Y-87804356D03*
X145400000Y-83600000D03*
X146353780Y-81136976D03*
X147422430Y-89799541D03*
X148042664Y-90316308D03*
X146949500Y-83600000D03*
X148600000Y-76800000D03*
X147600000Y-87900000D03*
X148741023Y-90106296D03*
X148800000Y-80400000D03*
X149133475Y-83303042D03*
X149439791Y-90074256D03*
X154900000Y-71900000D03*
D22*
X145400001Y-86897249D02*
G75*
G03*
X145546446Y-87250802I500001J0D01*
G01*
X147050499Y-88243392D02*
G75*
G03*
X147196946Y-88596946I499997J-1D01*
G01*
X147896218Y-89296218D02*
G75*
G02*
X148042664Y-89649771I-353556J-353553D01*
G01*
X146500226Y-85400226D02*
G75*
G02*
X146353780Y-85046673I353556J353553D01*
G01*
X146504552Y-85404552D02*
G75*
G02*
X146650999Y-85758106I-353550J-353553D01*
G01*
X146797445Y-89097445D02*
G75*
G02*
X146650999Y-88743892I353556J353553D01*
G01*
X146504552Y-85404552D02*
X146500226Y-85400226D01*
X147422430Y-89722430D02*
X146797445Y-89097445D01*
X146353780Y-85046673D02*
X146353780Y-81136976D01*
X147422430Y-89799541D02*
X147422430Y-89722430D01*
X146650999Y-88743892D02*
X146650999Y-85758106D01*
X145400000Y-86897249D02*
X145400000Y-83600000D01*
X146100000Y-87804356D02*
X145546446Y-87250802D01*
X148599999Y-79592893D02*
G75*
G02*
X148453554Y-79946446I-500001J0D01*
G01*
X147846447Y-80553553D02*
G75*
G03*
X147700000Y-80907107I353550J-353553D01*
G01*
X148345949Y-80854051D02*
G75*
G03*
X148199502Y-81207605I353550J-353553D01*
G01*
X148199503Y-87392395D02*
G75*
G03*
X148345948Y-87745948I500001J0D01*
G01*
X148741023Y-88348130D02*
G75*
G03*
X148594576Y-87994576I-499997J1D01*
G01*
X149439791Y-88146898D02*
G75*
G03*
X149293344Y-87793344I-499997J1D01*
G01*
X148745458Y-83691059D02*
G75*
G03*
X148599011Y-84044613I353550J-353553D01*
G01*
X148745457Y-87245457D02*
G75*
G02*
X148599011Y-86891904I353556J353553D01*
G01*
X148300480Y-100499520D02*
X141860000Y-106940000D01*
X141860000Y-106940000D02*
X140600000Y-106940000D01*
X148300480Y-95157412D02*
X148300480Y-100499520D01*
X149029287Y-94428605D02*
X148300480Y-95157412D01*
X149415974Y-94819020D02*
X150300000Y-94819020D01*
X148700000Y-101200000D02*
X148700000Y-95534994D01*
X147600000Y-102300000D02*
X148700000Y-101200000D01*
X148700000Y-95534994D02*
X149415974Y-94819020D01*
X157060000Y-101860000D02*
X158400000Y-101860000D01*
X156500480Y-101300480D02*
X157060000Y-101860000D01*
X156500480Y-93308677D02*
X156500480Y-101300480D01*
X156042782Y-92850979D02*
X156500480Y-93308677D01*
X156900000Y-104400000D02*
X158400000Y-104400000D01*
X156100000Y-93693451D02*
X156100000Y-103600000D01*
X155950980Y-93544431D02*
X156100000Y-93693451D01*
X156100000Y-103600000D02*
X156900000Y-104400000D01*
X151099500Y-88499500D02*
X153379875Y-88499500D01*
X149148511Y-86548511D02*
X151099500Y-88499500D01*
X149148511Y-84400000D02*
X149148511Y-86548511D01*
X148600000Y-79592893D02*
X148600000Y-76800000D01*
X147846447Y-80553553D02*
X148453554Y-79946446D01*
X147700000Y-87800000D02*
X147700000Y-80907107D01*
X147600000Y-87900000D02*
X147700000Y-87800000D01*
X144300000Y-72200000D02*
X144500000Y-72400000D01*
X144300000Y-68465000D02*
X144300000Y-72200000D01*
X144765000Y-68000000D02*
X144300000Y-68465000D01*
X146400000Y-68000000D02*
X144765000Y-68000000D01*
X147600000Y-66800000D02*
X146400000Y-68000000D01*
X154900000Y-67900000D02*
X152300000Y-67900000D01*
X152300000Y-67900000D02*
X151200000Y-66800000D01*
X155700000Y-68700000D02*
X154900000Y-67900000D01*
X151200000Y-66800000D02*
X147600000Y-66800000D01*
X155700000Y-73200000D02*
X155700000Y-68700000D01*
X155400000Y-73500000D02*
X155700000Y-73200000D01*
X157520000Y-99320000D02*
X158400000Y-99320000D01*
X156900000Y-98700000D02*
X157520000Y-99320000D01*
X156597651Y-92425039D02*
X156900000Y-92727388D01*
X156900000Y-92727388D02*
X156900000Y-98700000D01*
X151156160Y-98500000D02*
X149826988Y-97170828D01*
X151900000Y-98500000D02*
X151156160Y-98500000D01*
X152030000Y-102370000D02*
X152030000Y-114400000D01*
X153100000Y-101300000D02*
X152030000Y-102370000D01*
X153100000Y-97577127D02*
X153100000Y-101300000D01*
X152774346Y-97251473D02*
X153100000Y-97577127D01*
X152774346Y-96787173D02*
X152774346Y-97251473D01*
X151630480Y-107369520D02*
X146950000Y-112050000D01*
X151630480Y-102204514D02*
X151630480Y-107369520D01*
X152600000Y-97700000D02*
X152600000Y-101234994D01*
X152600000Y-101234994D02*
X151630480Y-102204514D01*
X152100000Y-97200000D02*
X152600000Y-97700000D01*
X146950000Y-112050000D02*
X146950000Y-114400000D01*
X153600480Y-104299520D02*
X153000000Y-104900000D01*
X153600480Y-97300480D02*
X153600480Y-104299520D01*
X153400000Y-97100000D02*
X153600480Y-97300480D01*
X147196946Y-88596946D02*
X147896218Y-89296218D01*
X147050499Y-83700999D02*
X147050499Y-88243392D01*
X146949500Y-83600000D02*
X147050499Y-83700999D01*
X148042664Y-89649771D02*
X148042664Y-90316308D01*
X151180980Y-94819020D02*
X150300000Y-94819020D01*
X152300000Y-93700000D02*
X151180980Y-94819020D01*
X152300000Y-90577127D02*
X152300000Y-93700000D01*
X154000000Y-88877127D02*
X152300000Y-90577127D01*
X154000000Y-87200000D02*
X154000000Y-88877127D01*
X156400000Y-84700000D02*
X156400000Y-84800000D01*
X156400000Y-84800000D02*
X154000000Y-87200000D01*
X151918778Y-86281222D02*
X152800000Y-85400000D01*
X150078395Y-86281222D02*
X151918778Y-86281222D01*
X152800000Y-85400000D02*
X152800000Y-84200000D01*
X148745458Y-83691059D02*
X149133475Y-83303042D01*
X148599011Y-86891904D02*
X148599011Y-84044613D01*
X149293344Y-87793344D02*
X148745457Y-87245457D01*
X149439791Y-90074256D02*
X149439791Y-88146898D01*
X148345949Y-80854051D02*
X148800000Y-80400000D01*
X148199502Y-87392395D02*
X148199502Y-81207605D01*
X148594576Y-87994576D02*
X148345948Y-87745948D01*
X148741023Y-90106296D02*
X148741023Y-88348130D01*
X154600000Y-80300000D02*
X154100000Y-80300000D01*
X156300000Y-78600000D02*
X154600000Y-80300000D01*
X156300000Y-75249500D02*
X156300000Y-78600000D01*
X156250500Y-75200000D02*
X156300000Y-75249500D01*
X149457271Y-95542729D02*
X149100000Y-95900000D01*
X152993229Y-95542729D02*
X149457271Y-95542729D01*
X149100000Y-102100000D02*
X141720000Y-109480000D01*
X153050500Y-95600000D02*
X152993229Y-95542729D01*
X149100000Y-95900000D02*
X149100000Y-102100000D01*
X141720000Y-109480000D02*
X140600000Y-109480000D01*
X151367199Y-96149511D02*
X150516352Y-97000358D01*
X153350489Y-96149511D02*
X151367199Y-96149511D01*
X153600480Y-95899520D02*
X153350489Y-96149511D01*
X153600480Y-95000480D02*
X153600480Y-95899520D01*
X152349500Y-94553260D02*
X153153260Y-94553260D01*
X153153260Y-94553260D02*
X153600480Y-95000480D01*
X154000000Y-105727112D02*
X153063556Y-106663556D01*
X154000000Y-89700000D02*
X154000000Y-105727112D01*
X154549500Y-89150500D02*
X154000000Y-89700000D01*
X154549500Y-88300000D02*
X154549500Y-89150500D01*
X154900480Y-110300480D02*
X156620000Y-112020000D01*
X154900480Y-95679798D02*
X154900480Y-110300480D01*
X154660341Y-95439659D02*
X154900480Y-95679798D01*
X156620000Y-112020000D02*
X158400000Y-112020000D01*
X155300000Y-107700000D02*
X157080000Y-109480000D01*
X155300000Y-95980397D02*
X155300000Y-107700000D01*
X157080000Y-109480000D02*
X158400000Y-109480000D01*
X155300480Y-95302687D02*
X155300480Y-95979917D01*
X155300480Y-95979917D02*
X155300000Y-95980397D01*
X154674060Y-94676267D02*
X155300480Y-95302687D01*
X146438905Y-94738905D02*
X143400000Y-91700000D01*
X147314428Y-94738905D02*
X146438905Y-94738905D01*
X143400000Y-91700000D02*
X140600000Y-91700000D01*
X156300000Y-86600000D02*
X156272881Y-86572881D01*
X156300000Y-88172888D02*
X156300000Y-86600000D01*
X156236444Y-88236444D02*
X156300000Y-88172888D01*
D23*
X158400000Y-76400000D02*
X158400000Y-76460000D01*
X143800000Y-99700000D02*
X143800000Y-95600000D01*
X155500000Y-73500000D02*
X158400000Y-76400000D01*
X154910000Y-73490000D02*
X154910000Y-78990000D01*
X154910000Y-78990000D02*
X154300000Y-79600000D01*
X145153562Y-101053562D02*
X143800000Y-99700000D01*
X154300000Y-79600000D02*
X153100000Y-79600000D01*
X154910000Y-73490000D02*
X154920000Y-73500000D01*
X155400000Y-73500000D02*
X155500000Y-73500000D01*
X154920000Y-73500000D02*
X155400000Y-73500000D01*
X150809500Y-70109500D02*
X150000000Y-69300000D01*
X150809500Y-70355498D02*
X150809500Y-70109500D01*
X150000000Y-69300000D02*
X149187002Y-69300000D01*
X149187002Y-69300000D02*
X148300000Y-70187002D01*
D22*
X143850480Y-69550480D02*
X143850480Y-72527607D01*
X144850499Y-88010057D02*
X147270092Y-90429650D01*
X140600000Y-66300000D02*
X143850480Y-69550480D01*
X147270092Y-90429650D02*
X147270092Y-90482254D01*
X143850480Y-72527607D02*
X144850499Y-73527626D01*
X144850499Y-73527626D02*
X144850499Y-88010057D01*
X143450960Y-72693093D02*
X143450960Y-71150960D01*
X144450989Y-73693122D02*
X143450960Y-72693093D01*
X145278798Y-89421202D02*
X144450989Y-88593393D01*
X141140000Y-68840000D02*
X140600000Y-68840000D01*
X143450960Y-71150960D02*
X141140000Y-68840000D01*
X145278798Y-90563606D02*
X145278798Y-89421202D01*
X144450989Y-88593393D02*
X144450989Y-73693122D01*
X140600000Y-71380000D02*
X141572861Y-71380000D01*
X141572861Y-71380000D02*
X143800000Y-73607139D01*
X143800000Y-89349500D02*
X144050500Y-89600000D01*
X143800000Y-73607139D02*
X143800000Y-89349500D01*
X147300000Y-91900000D02*
X145530012Y-91900000D01*
X143400000Y-76900000D02*
X142960000Y-76460000D01*
X142960000Y-76460000D02*
X140600000Y-76460000D01*
X145530012Y-91900000D02*
X143400000Y-89769988D01*
X143400000Y-89769988D02*
X143400000Y-76900000D01*
X141720000Y-86620000D02*
X140600000Y-86620000D01*
X147500000Y-92900000D02*
X145965006Y-92900000D01*
X145965006Y-92900000D02*
X143000000Y-89934994D01*
X143000000Y-87900000D02*
X141720000Y-86620000D01*
X143000000Y-89934994D02*
X143000000Y-87900000D01*
X141560000Y-89160000D02*
X140600000Y-89160000D01*
X147439859Y-94022935D02*
X146422935Y-94022935D01*
X146422935Y-94022935D02*
X141560000Y-89160000D01*
X146000000Y-95500000D02*
X146000000Y-95000000D01*
X146000000Y-95000000D02*
X145240000Y-94240000D01*
X145240000Y-94240000D02*
X140600000Y-94240000D01*
X156486445Y-85478548D02*
X157051452Y-85478548D01*
X155200000Y-89477345D02*
X155200000Y-86764993D01*
X155200000Y-86764993D02*
X156486445Y-85478548D01*
X157051452Y-85478548D02*
X158400000Y-84130000D01*
X158400000Y-84130000D02*
X158400000Y-84080000D01*
X154681610Y-89995735D02*
X155200000Y-89477345D01*
X155363024Y-90153780D02*
X155363024Y-90136976D01*
X157380000Y-86620000D02*
X158400000Y-86620000D01*
X157000000Y-88500000D02*
X157000000Y-87000000D01*
X157000000Y-87000000D02*
X157380000Y-86620000D01*
X155363024Y-90136976D02*
X157000000Y-88500000D01*
X157340000Y-89160000D02*
X158400000Y-89160000D01*
X155800000Y-90700000D02*
X157340000Y-89160000D01*
X154802125Y-93988587D02*
X155700000Y-94886462D01*
X155700000Y-105600000D02*
X157040000Y-106940000D01*
X157040000Y-106940000D02*
X158400000Y-106940000D01*
X155700000Y-94886462D02*
X155700000Y-105600000D01*
D23*
X153280000Y-76600000D02*
X153280000Y-74100000D01*
X153280000Y-74100000D02*
X153890000Y-73490000D01*
X146980000Y-74300000D02*
X147500000Y-73780000D01*
X148838683Y-68800481D02*
X150206909Y-68800481D01*
X147500000Y-73780000D02*
X147500000Y-70139164D01*
X152500000Y-71900000D02*
X154900000Y-71900000D01*
X151500000Y-70093572D02*
X151500000Y-70900000D01*
X147500000Y-70139164D02*
X148838683Y-68800481D01*
X150206909Y-68800481D02*
X151500000Y-70093572D01*
X151500000Y-70900000D02*
X152500000Y-71900000D01*
G04 #@! TA.AperFunction,Conductor*
G36*
X154438815Y-95833424D02*
G01*
X154464401Y-95850455D01*
X154470454Y-95852346D01*
X154470456Y-95852347D01*
X154537520Y-95873299D01*
X154585916Y-95910234D01*
X154599980Y-95958250D01*
X154599980Y-110246549D01*
X154599637Y-110251213D01*
X154598055Y-110255822D01*
X154598363Y-110264031D01*
X154598363Y-110264032D01*
X154599917Y-110305428D01*
X154599980Y-110308766D01*
X154599980Y-110328428D01*
X154600729Y-110332453D01*
X154600847Y-110333728D01*
X154601160Y-110338557D01*
X154602254Y-110367688D01*
X154605496Y-110375235D01*
X154605497Y-110375238D01*
X154607238Y-110379290D01*
X154612960Y-110398125D01*
X154615271Y-110410533D01*
X154619582Y-110417526D01*
X154619582Y-110417527D01*
X154629632Y-110433831D01*
X154635641Y-110445399D01*
X154646444Y-110470543D01*
X154650458Y-110475429D01*
X154655647Y-110480618D01*
X154668476Y-110496848D01*
X154669700Y-110498833D01*
X154674012Y-110505828D01*
X154680553Y-110510802D01*
X154697778Y-110523900D01*
X154706840Y-110531811D01*
X156369381Y-112194352D01*
X156372434Y-112197889D01*
X156374575Y-112202269D01*
X156380600Y-112207858D01*
X156410960Y-112236021D01*
X156413366Y-112238337D01*
X156427277Y-112252248D01*
X156430648Y-112254561D01*
X156431623Y-112255371D01*
X156435267Y-112258570D01*
X156450623Y-112272814D01*
X156456646Y-112278401D01*
X156464274Y-112281444D01*
X156464275Y-112281445D01*
X156466298Y-112282252D01*
X156468371Y-112283079D01*
X156485733Y-112292350D01*
X156496146Y-112299493D01*
X156504137Y-112301389D01*
X156504141Y-112301391D01*
X156522778Y-112305813D01*
X156535200Y-112309741D01*
X156560622Y-112319883D01*
X156566915Y-112320500D01*
X156574256Y-112320500D01*
X156594804Y-112322905D01*
X156605066Y-112325340D01*
X156613208Y-112324232D01*
X156613210Y-112324232D01*
X156634656Y-112321313D01*
X156646658Y-112320500D01*
X157332393Y-112320500D01*
X157389601Y-112341322D01*
X157415918Y-112378768D01*
X157446119Y-112460852D01*
X157553226Y-112633599D01*
X157692881Y-112781280D01*
X157859379Y-112897863D01*
X158045919Y-112978586D01*
X158050331Y-112979508D01*
X158050335Y-112979509D01*
X158163038Y-113003053D01*
X158244880Y-113020151D01*
X158251539Y-113020500D01*
X159731000Y-113020500D01*
X159788208Y-113041322D01*
X159818648Y-113094045D01*
X159820000Y-113109500D01*
X159820000Y-113371000D01*
X159799178Y-113428208D01*
X159746455Y-113458648D01*
X159731000Y-113460000D01*
X158565694Y-113460000D01*
X158553671Y-113464376D01*
X158550000Y-113470734D01*
X158550000Y-114394306D01*
X158554376Y-114406329D01*
X158560734Y-114410000D01*
X159731000Y-114410000D01*
X159788208Y-114430822D01*
X159818648Y-114483545D01*
X159820000Y-114499000D01*
X159820000Y-114621000D01*
X159799178Y-114678208D01*
X159746455Y-114708648D01*
X159731000Y-114710000D01*
X157271450Y-114710000D01*
X157259427Y-114714376D01*
X157256868Y-114718808D01*
X157257010Y-114719804D01*
X157304207Y-114915641D01*
X157306949Y-114923605D01*
X157390323Y-115106975D01*
X157394528Y-115114287D01*
X157511066Y-115278576D01*
X157516577Y-115284962D01*
X157662085Y-115424255D01*
X157668696Y-115429476D01*
X157837914Y-115538739D01*
X157845413Y-115542626D01*
X158032234Y-115617917D01*
X158040316Y-115620311D01*
X158159829Y-115643650D01*
X158211986Y-115675051D01*
X158231756Y-115732631D01*
X158209889Y-115789448D01*
X158156617Y-115818916D01*
X158142771Y-115820000D01*
X153119500Y-115820000D01*
X153062292Y-115799178D01*
X153031852Y-115746455D01*
X153030500Y-115731000D01*
X153030500Y-114496665D01*
X155044994Y-114496665D01*
X155045358Y-114500999D01*
X155056733Y-114636455D01*
X155060592Y-114682414D01*
X155111971Y-114861595D01*
X155197176Y-115027385D01*
X155312959Y-115173468D01*
X155349866Y-115204878D01*
X155443965Y-115284962D01*
X155454912Y-115294279D01*
X155498034Y-115318379D01*
X155613829Y-115383095D01*
X155613834Y-115383097D01*
X155617627Y-115385217D01*
X155621758Y-115386559D01*
X155621762Y-115386561D01*
X155790767Y-115441474D01*
X155790769Y-115441474D01*
X155794907Y-115442819D01*
X155979998Y-115464890D01*
X155984327Y-115464557D01*
X155984331Y-115464557D01*
X156161517Y-115450923D01*
X156161522Y-115450922D01*
X156165851Y-115450589D01*
X156248620Y-115427480D01*
X156341194Y-115401633D01*
X156341197Y-115401632D01*
X156345387Y-115400462D01*
X156511768Y-115316417D01*
X156591621Y-115254029D01*
X156655223Y-115204338D01*
X156655227Y-115204335D01*
X156658655Y-115201656D01*
X156682986Y-115173468D01*
X156777612Y-115063843D01*
X156777614Y-115063840D01*
X156780454Y-115060550D01*
X156782600Y-115056772D01*
X156782603Y-115056768D01*
X156870378Y-114902255D01*
X156872526Y-114898474D01*
X156883505Y-114865470D01*
X156929989Y-114725736D01*
X156929990Y-114725731D01*
X156931364Y-114721601D01*
X156954727Y-114536668D01*
X156955099Y-114510000D01*
X156954217Y-114500999D01*
X156943771Y-114394469D01*
X157262489Y-114394469D01*
X157265094Y-114406994D01*
X157268907Y-114410000D01*
X158234306Y-114410000D01*
X158246329Y-114405624D01*
X158250000Y-114399266D01*
X158250000Y-113480231D01*
X158245624Y-113468208D01*
X158240788Y-113465416D01*
X158145261Y-113474530D01*
X158136989Y-113476123D01*
X157943699Y-113532827D01*
X157935875Y-113535957D01*
X157756794Y-113628189D01*
X157749701Y-113632744D01*
X157591305Y-113757166D01*
X157585189Y-113762990D01*
X157453175Y-113915122D01*
X157448277Y-113921990D01*
X157347415Y-114096335D01*
X157343899Y-114104013D01*
X157277824Y-114294290D01*
X157275826Y-114302487D01*
X157262489Y-114394469D01*
X156943771Y-114394469D01*
X156937334Y-114328824D01*
X156936909Y-114324487D01*
X156883033Y-114146040D01*
X156880989Y-114142196D01*
X156880987Y-114142191D01*
X156822521Y-114032234D01*
X156795522Y-113981456D01*
X156776500Y-113958132D01*
X156680459Y-113840376D01*
X156677710Y-113837005D01*
X156670382Y-113830942D01*
X156537442Y-113720964D01*
X156537441Y-113720963D01*
X156534085Y-113718187D01*
X156370116Y-113629529D01*
X156365788Y-113628189D01*
X156246632Y-113591305D01*
X156192049Y-113574409D01*
X156187720Y-113573954D01*
X156187715Y-113573953D01*
X156011001Y-113555379D01*
X156010997Y-113555379D01*
X156006668Y-113554924D01*
X155902420Y-113564411D01*
X155825369Y-113571423D01*
X155825366Y-113571424D01*
X155821032Y-113571818D01*
X155642214Y-113624448D01*
X155477023Y-113710807D01*
X155331752Y-113827608D01*
X155258319Y-113915122D01*
X155229152Y-113949883D01*
X155211935Y-113970401D01*
X155122135Y-114133746D01*
X155120820Y-114137892D01*
X155120819Y-114137894D01*
X155067086Y-114307280D01*
X155067085Y-114307285D01*
X155065772Y-114311424D01*
X155044994Y-114496665D01*
X153030500Y-114496665D01*
X153030500Y-114299200D01*
X153015120Y-114147784D01*
X152970598Y-114005713D01*
X152955687Y-113958132D01*
X152955686Y-113958130D01*
X152954338Y-113953828D01*
X152888491Y-113835038D01*
X152857985Y-113780003D01*
X152857984Y-113780002D01*
X152855797Y-113776056D01*
X152723523Y-113621729D01*
X152562919Y-113497152D01*
X152520183Y-113476123D01*
X152380545Y-113407413D01*
X152381696Y-113405073D01*
X152342123Y-113371406D01*
X152330500Y-113327431D01*
X152330500Y-102531337D01*
X152351322Y-102474129D01*
X152356567Y-102468404D01*
X153148047Y-101676924D01*
X153203223Y-101651196D01*
X153262028Y-101666952D01*
X153296947Y-101716822D01*
X153299980Y-101739857D01*
X153299980Y-104138183D01*
X153279158Y-104195391D01*
X153273913Y-104201116D01*
X153051711Y-104423318D01*
X152996535Y-104449046D01*
X152988235Y-104449383D01*
X152976245Y-104449310D01*
X152938231Y-104449078D01*
X152932138Y-104450820D01*
X152932134Y-104450820D01*
X152837728Y-104477802D01*
X152814155Y-104484539D01*
X152705019Y-104553399D01*
X152679522Y-104582269D01*
X152632624Y-104635371D01*
X152619596Y-104650122D01*
X152564754Y-104766932D01*
X152563778Y-104773197D01*
X152563778Y-104773199D01*
X152552649Y-104844680D01*
X152544901Y-104894440D01*
X152561633Y-105022394D01*
X152613605Y-105140510D01*
X152696639Y-105239291D01*
X152804060Y-105310796D01*
X152810113Y-105312687D01*
X152810115Y-105312688D01*
X152826158Y-105317700D01*
X152927233Y-105349278D01*
X152976759Y-105350186D01*
X153049912Y-105351527D01*
X153049914Y-105351527D01*
X153056255Y-105351643D01*
X153180755Y-105317700D01*
X153290724Y-105250179D01*
X153294975Y-105245483D01*
X153294977Y-105245481D01*
X153373068Y-105159207D01*
X153373069Y-105159206D01*
X153377322Y-105154507D01*
X153408593Y-105089965D01*
X153430823Y-105044083D01*
X153430824Y-105044080D01*
X153433588Y-105038375D01*
X153437206Y-105016874D01*
X153450731Y-104936477D01*
X153454997Y-104911120D01*
X153455063Y-104905698D01*
X153455264Y-104905167D01*
X153455345Y-104904263D01*
X153455597Y-104904286D01*
X153476579Y-104848748D01*
X153481123Y-104843848D01*
X153547567Y-104777404D01*
X153602743Y-104751676D01*
X153661548Y-104767432D01*
X153696467Y-104817302D01*
X153699500Y-104840337D01*
X153699500Y-105565775D01*
X153678678Y-105622983D01*
X153673433Y-105628708D01*
X153115267Y-106186874D01*
X153060091Y-106212602D01*
X153051791Y-106212939D01*
X153039801Y-106212866D01*
X153001787Y-106212634D01*
X152995694Y-106214376D01*
X152995690Y-106214376D01*
X152901284Y-106241358D01*
X152877711Y-106248095D01*
X152768575Y-106316955D01*
X152716503Y-106375915D01*
X152692121Y-106403523D01*
X152683152Y-106413678D01*
X152628310Y-106530488D01*
X152627334Y-106536753D01*
X152627334Y-106536755D01*
X152611337Y-106639500D01*
X152608457Y-106657996D01*
X152625189Y-106785950D01*
X152677161Y-106904066D01*
X152760195Y-107002847D01*
X152867616Y-107074352D01*
X152873669Y-107076243D01*
X152873671Y-107076244D01*
X152889714Y-107081256D01*
X152990789Y-107112834D01*
X153040315Y-107113742D01*
X153113468Y-107115083D01*
X153113470Y-107115083D01*
X153119811Y-107115199D01*
X153244311Y-107081256D01*
X153354280Y-107013735D01*
X153358531Y-107009039D01*
X153358533Y-107009037D01*
X153436624Y-106922763D01*
X153436625Y-106922762D01*
X153440878Y-106918063D01*
X153450471Y-106898263D01*
X153494379Y-106807639D01*
X153494380Y-106807636D01*
X153497144Y-106801931D01*
X153518553Y-106674676D01*
X153518619Y-106669254D01*
X153518820Y-106668723D01*
X153518901Y-106667819D01*
X153519153Y-106667842D01*
X153540135Y-106612304D01*
X153544679Y-106607404D01*
X154174352Y-105977731D01*
X154177889Y-105974678D01*
X154182269Y-105972537D01*
X154216022Y-105936151D01*
X154218337Y-105933746D01*
X154232248Y-105919835D01*
X154234561Y-105916464D01*
X154235371Y-105915489D01*
X154238570Y-105911845D01*
X154252814Y-105896489D01*
X154258401Y-105890466D01*
X154263079Y-105878741D01*
X154272350Y-105861379D01*
X154279493Y-105850966D01*
X154281389Y-105842975D01*
X154281391Y-105842971D01*
X154285813Y-105824334D01*
X154289741Y-105811912D01*
X154299883Y-105786490D01*
X154300500Y-105780197D01*
X154300500Y-105772856D01*
X154302905Y-105752306D01*
X154305340Y-105742046D01*
X154301313Y-105712456D01*
X154300500Y-105700454D01*
X154300500Y-95907511D01*
X154321322Y-95850303D01*
X154374045Y-95819863D01*
X154438815Y-95833424D01*
G37*
G04 #@! TD.AperFunction*
G04 #@! TA.AperFunction,Conductor*
G36*
X149538816Y-97520230D02*
G01*
X149572732Y-97542806D01*
X149631048Y-97581624D01*
X149637101Y-97583515D01*
X149637103Y-97583516D01*
X149671676Y-97594317D01*
X149754221Y-97620106D01*
X149781119Y-97620599D01*
X149817201Y-97621261D01*
X149878502Y-97647313D01*
X150905541Y-98674352D01*
X150908594Y-98677889D01*
X150910735Y-98682269D01*
X150916760Y-98687858D01*
X150947120Y-98716021D01*
X150949526Y-98718337D01*
X150963437Y-98732248D01*
X150966808Y-98734561D01*
X150967783Y-98735371D01*
X150971427Y-98738570D01*
X150986784Y-98752815D01*
X150992806Y-98758401D01*
X151004534Y-98763080D01*
X151021893Y-98772349D01*
X151032306Y-98779492D01*
X151040300Y-98781389D01*
X151058933Y-98785811D01*
X151071362Y-98789742D01*
X151090947Y-98797556D01*
X151090953Y-98797557D01*
X151096782Y-98799883D01*
X151103075Y-98800500D01*
X151110415Y-98800500D01*
X151130966Y-98802905D01*
X151141226Y-98805340D01*
X151149368Y-98804232D01*
X151149370Y-98804232D01*
X151170816Y-98801313D01*
X151182818Y-98800500D01*
X151522578Y-98800500D01*
X151579786Y-98821322D01*
X151590705Y-98832232D01*
X151596639Y-98839291D01*
X151704060Y-98910796D01*
X151710113Y-98912687D01*
X151710115Y-98912688D01*
X151715544Y-98914384D01*
X151827233Y-98949278D01*
X151876759Y-98950186D01*
X151949912Y-98951527D01*
X151949914Y-98951527D01*
X151956255Y-98951643D01*
X152080755Y-98917700D01*
X152163933Y-98866629D01*
X152223578Y-98854439D01*
X152277105Y-98883442D01*
X152299500Y-98942473D01*
X152299500Y-101073657D01*
X152278678Y-101130865D01*
X152273433Y-101136590D01*
X151456128Y-101953895D01*
X151452591Y-101956948D01*
X151448211Y-101959089D01*
X151442622Y-101965114D01*
X151414459Y-101995474D01*
X151412143Y-101997880D01*
X151398232Y-102011791D01*
X151395919Y-102015162D01*
X151395109Y-102016137D01*
X151391910Y-102019781D01*
X151378394Y-102034352D01*
X151372079Y-102041160D01*
X151367402Y-102052884D01*
X151358131Y-102070247D01*
X151350988Y-102080660D01*
X151349091Y-102088654D01*
X151344669Y-102107287D01*
X151340738Y-102119716D01*
X151332924Y-102139301D01*
X151332923Y-102139307D01*
X151330597Y-102145136D01*
X151329980Y-102151429D01*
X151329980Y-102158769D01*
X151327575Y-102179319D01*
X151325140Y-102189580D01*
X151326248Y-102197722D01*
X151326248Y-102197724D01*
X151329167Y-102219170D01*
X151329980Y-102231172D01*
X151329980Y-107208183D01*
X151309158Y-107265391D01*
X151303913Y-107271116D01*
X146775648Y-111799381D01*
X146772111Y-111802434D01*
X146767731Y-111804575D01*
X146762142Y-111810600D01*
X146733979Y-111840960D01*
X146731663Y-111843366D01*
X146717752Y-111857277D01*
X146715439Y-111860648D01*
X146714629Y-111861623D01*
X146711430Y-111865267D01*
X146697185Y-111880624D01*
X146691599Y-111886646D01*
X146686922Y-111898370D01*
X146677651Y-111915733D01*
X146670508Y-111926146D01*
X146668611Y-111934140D01*
X146664189Y-111952773D01*
X146660258Y-111965202D01*
X146652444Y-111984787D01*
X146652443Y-111984793D01*
X146650117Y-111990622D01*
X146649500Y-111996915D01*
X146649500Y-112004255D01*
X146647095Y-112024805D01*
X146644660Y-112035066D01*
X146645768Y-112043208D01*
X146645768Y-112043210D01*
X146648687Y-112064656D01*
X146649500Y-112076658D01*
X146649500Y-113332393D01*
X146628678Y-113389601D01*
X146591232Y-113415918D01*
X146509148Y-113446119D01*
X146336401Y-113553226D01*
X146188720Y-113692881D01*
X146072137Y-113859379D01*
X145991414Y-114045919D01*
X145990492Y-114050331D01*
X145990491Y-114050335D01*
X145970660Y-114145261D01*
X145949849Y-114244880D01*
X145949500Y-114251539D01*
X145949500Y-115731000D01*
X145928678Y-115788208D01*
X145875955Y-115818648D01*
X145860500Y-115820000D01*
X140881248Y-115820000D01*
X140824040Y-115799178D01*
X140793600Y-115746455D01*
X140804172Y-115686500D01*
X140850808Y-115647367D01*
X140858964Y-115645113D01*
X140858951Y-115645068D01*
X141056301Y-115587173D01*
X141064125Y-115584043D01*
X141243206Y-115491811D01*
X141250299Y-115487256D01*
X141408695Y-115362834D01*
X141414811Y-115357010D01*
X141546825Y-115204878D01*
X141551723Y-115198010D01*
X141652585Y-115023665D01*
X141656101Y-115015987D01*
X141722176Y-114825710D01*
X141724174Y-114817513D01*
X141737511Y-114725531D01*
X141734906Y-114713006D01*
X141731093Y-114710000D01*
X139269000Y-114710000D01*
X139211792Y-114689178D01*
X139181352Y-114636455D01*
X139180000Y-114621000D01*
X139180000Y-114499000D01*
X139180850Y-114496665D01*
X142044994Y-114496665D01*
X142045358Y-114500999D01*
X142056733Y-114636455D01*
X142060592Y-114682414D01*
X142111971Y-114861595D01*
X142197176Y-115027385D01*
X142312959Y-115173468D01*
X142349866Y-115204878D01*
X142443965Y-115284962D01*
X142454912Y-115294279D01*
X142498034Y-115318379D01*
X142613829Y-115383095D01*
X142613834Y-115383097D01*
X142617627Y-115385217D01*
X142621758Y-115386559D01*
X142621762Y-115386561D01*
X142790767Y-115441474D01*
X142790769Y-115441474D01*
X142794907Y-115442819D01*
X142979998Y-115464890D01*
X142984327Y-115464557D01*
X142984331Y-115464557D01*
X143161517Y-115450923D01*
X143161522Y-115450922D01*
X143165851Y-115450589D01*
X143248620Y-115427480D01*
X143341194Y-115401633D01*
X143341197Y-115401632D01*
X143345387Y-115400462D01*
X143511768Y-115316417D01*
X143591621Y-115254029D01*
X143655223Y-115204338D01*
X143655227Y-115204335D01*
X143658655Y-115201656D01*
X143682986Y-115173468D01*
X143777612Y-115063843D01*
X143777614Y-115063840D01*
X143780454Y-115060550D01*
X143782600Y-115056772D01*
X143782603Y-115056768D01*
X143870378Y-114902255D01*
X143872526Y-114898474D01*
X143883505Y-114865470D01*
X143929989Y-114725736D01*
X143929990Y-114725731D01*
X143931364Y-114721601D01*
X143954727Y-114536668D01*
X143955099Y-114510000D01*
X143954217Y-114500999D01*
X143937334Y-114328824D01*
X143936909Y-114324487D01*
X143883033Y-114146040D01*
X143880989Y-114142196D01*
X143880987Y-114142191D01*
X143822521Y-114032234D01*
X143795522Y-113981456D01*
X143776500Y-113958132D01*
X143680459Y-113840376D01*
X143677710Y-113837005D01*
X143670382Y-113830942D01*
X143537442Y-113720964D01*
X143537441Y-113720963D01*
X143534085Y-113718187D01*
X143370116Y-113629529D01*
X143365788Y-113628189D01*
X143246632Y-113591305D01*
X143192049Y-113574409D01*
X143187720Y-113573954D01*
X143187715Y-113573953D01*
X143011001Y-113555379D01*
X143010997Y-113555379D01*
X143006668Y-113554924D01*
X142902420Y-113564411D01*
X142825369Y-113571423D01*
X142825366Y-113571424D01*
X142821032Y-113571818D01*
X142642214Y-113624448D01*
X142477023Y-113710807D01*
X142331752Y-113827608D01*
X142258319Y-113915122D01*
X142229152Y-113949883D01*
X142211935Y-113970401D01*
X142122135Y-114133746D01*
X142120820Y-114137892D01*
X142120819Y-114137894D01*
X142067086Y-114307280D01*
X142067085Y-114307285D01*
X142065772Y-114311424D01*
X142044994Y-114496665D01*
X139180850Y-114496665D01*
X139200822Y-114441792D01*
X139253545Y-114411352D01*
X139269000Y-114410000D01*
X140434306Y-114410000D01*
X140446329Y-114405624D01*
X140450000Y-114399266D01*
X140450000Y-113475694D01*
X140448195Y-113470734D01*
X140750000Y-113470734D01*
X140750000Y-114394306D01*
X140754376Y-114406329D01*
X140760734Y-114410000D01*
X141728550Y-114410000D01*
X141740573Y-114405624D01*
X141743132Y-114401192D01*
X141742990Y-114400196D01*
X141695793Y-114204359D01*
X141693051Y-114196395D01*
X141609677Y-114013025D01*
X141605472Y-114005713D01*
X141488934Y-113841424D01*
X141483423Y-113835038D01*
X141337915Y-113695745D01*
X141331304Y-113690524D01*
X141162086Y-113581261D01*
X141154587Y-113577374D01*
X140967766Y-113502083D01*
X140959684Y-113499689D01*
X140762465Y-113461175D01*
X140753671Y-113464376D01*
X140750000Y-113470734D01*
X140448195Y-113470734D01*
X140445624Y-113463671D01*
X140439266Y-113460000D01*
X139269000Y-113460000D01*
X139211792Y-113439178D01*
X139181352Y-113386455D01*
X139180000Y-113371000D01*
X139180000Y-113109500D01*
X139200822Y-113052292D01*
X139253545Y-113021852D01*
X139269000Y-113020500D01*
X140700800Y-113020500D01*
X140790136Y-113011426D01*
X140847729Y-113005576D01*
X140847731Y-113005576D01*
X140852216Y-113005120D01*
X140981669Y-112964552D01*
X141041868Y-112945687D01*
X141041870Y-112945686D01*
X141046172Y-112944338D01*
X141223944Y-112845797D01*
X141378271Y-112713523D01*
X141502848Y-112552919D01*
X141592587Y-112370545D01*
X141604857Y-112323442D01*
X141642686Y-112178213D01*
X141643822Y-112173852D01*
X141645156Y-112148403D01*
X141654223Y-111975381D01*
X141654223Y-111975379D01*
X141654459Y-111970874D01*
X141624065Y-111769903D01*
X141605521Y-111719500D01*
X141555437Y-111583378D01*
X141553881Y-111579148D01*
X141446774Y-111406401D01*
X141307119Y-111258720D01*
X141140621Y-111142137D01*
X140954081Y-111061414D01*
X140949669Y-111060492D01*
X140949665Y-111060491D01*
X140833527Y-111036229D01*
X140755120Y-111019849D01*
X140748461Y-111019500D01*
X139269000Y-111019500D01*
X139211792Y-110998678D01*
X139181352Y-110945955D01*
X139180000Y-110930500D01*
X139180000Y-110569500D01*
X139200822Y-110512292D01*
X139253545Y-110481852D01*
X139269000Y-110480500D01*
X140700800Y-110480500D01*
X140798827Y-110470543D01*
X140847729Y-110465576D01*
X140847731Y-110465576D01*
X140852216Y-110465120D01*
X141026404Y-110410533D01*
X141041868Y-110405687D01*
X141041870Y-110405686D01*
X141046172Y-110404338D01*
X141183117Y-110328428D01*
X141219997Y-110307985D01*
X141219998Y-110307984D01*
X141223944Y-110305797D01*
X141378271Y-110173523D01*
X141502848Y-110012919D01*
X141592311Y-109831106D01*
X141636251Y-109788969D01*
X141675389Y-109783678D01*
X141675342Y-109782425D01*
X141724947Y-109780563D01*
X141728286Y-109780500D01*
X141747948Y-109780500D01*
X141751973Y-109779751D01*
X141753248Y-109779633D01*
X141758077Y-109779320D01*
X141787208Y-109778226D01*
X141794755Y-109774984D01*
X141794758Y-109774983D01*
X141798810Y-109773242D01*
X141817645Y-109767520D01*
X141821974Y-109766714D01*
X141821976Y-109766713D01*
X141830053Y-109765209D01*
X141853352Y-109750848D01*
X141864919Y-109744839D01*
X141884286Y-109736518D01*
X141890063Y-109734036D01*
X141894949Y-109730022D01*
X141900138Y-109724833D01*
X141916368Y-109712004D01*
X141918353Y-109710780D01*
X141918354Y-109710780D01*
X141925348Y-109706468D01*
X141943420Y-109682702D01*
X141951331Y-109673640D01*
X149274352Y-102350619D01*
X149277889Y-102347566D01*
X149282269Y-102345425D01*
X149316022Y-102309039D01*
X149318337Y-102306634D01*
X149332248Y-102292723D01*
X149334561Y-102289352D01*
X149335371Y-102288377D01*
X149338570Y-102284733D01*
X149352815Y-102269376D01*
X149358401Y-102263354D01*
X149363080Y-102251626D01*
X149372349Y-102234267D01*
X149379492Y-102223854D01*
X149383685Y-102206185D01*
X149385811Y-102197227D01*
X149389742Y-102184798D01*
X149397556Y-102165213D01*
X149397557Y-102165207D01*
X149399883Y-102159378D01*
X149400500Y-102153085D01*
X149400500Y-102145745D01*
X149402905Y-102125195D01*
X149403442Y-102122931D01*
X149405340Y-102114934D01*
X149401764Y-102088654D01*
X149401313Y-102085344D01*
X149400500Y-102073342D01*
X149400500Y-97594317D01*
X149421322Y-97537109D01*
X149474045Y-97506669D01*
X149538816Y-97520230D01*
G37*
G04 #@! TD.AperFunction*
G04 #@! TA.AperFunction,Conductor*
G36*
X151691548Y-107837432D02*
G01*
X151726467Y-107887302D01*
X151729500Y-107910337D01*
X151729500Y-113332393D01*
X151708678Y-113389601D01*
X151671232Y-113415918D01*
X151589148Y-113446119D01*
X151416401Y-113553226D01*
X151268720Y-113692881D01*
X151152137Y-113859379D01*
X151071414Y-114045919D01*
X151070492Y-114050331D01*
X151070491Y-114050335D01*
X151050660Y-114145261D01*
X151029849Y-114244880D01*
X151029500Y-114251539D01*
X151029500Y-115731000D01*
X151008678Y-115788208D01*
X150955955Y-115818648D01*
X150940500Y-115820000D01*
X150679000Y-115820000D01*
X150621792Y-115799178D01*
X150591352Y-115746455D01*
X150590000Y-115731000D01*
X150590000Y-114565694D01*
X150585624Y-114553671D01*
X150579266Y-114550000D01*
X149655694Y-114550000D01*
X149643671Y-114554376D01*
X149640000Y-114560734D01*
X149640000Y-115731000D01*
X149619178Y-115788208D01*
X149566455Y-115818648D01*
X149551000Y-115820000D01*
X149429000Y-115820000D01*
X149371792Y-115799178D01*
X149341352Y-115746455D01*
X149340000Y-115731000D01*
X149340000Y-114565694D01*
X149335624Y-114553671D01*
X149329266Y-114550000D01*
X148405694Y-114550000D01*
X148393671Y-114554376D01*
X148390000Y-114560734D01*
X148390000Y-115731000D01*
X148369178Y-115788208D01*
X148316455Y-115818648D01*
X148301000Y-115820000D01*
X148039500Y-115820000D01*
X147982292Y-115799178D01*
X147951852Y-115746455D01*
X147950500Y-115731000D01*
X147950500Y-114299200D01*
X147944236Y-114237535D01*
X148391175Y-114237535D01*
X148394376Y-114246329D01*
X148400734Y-114250000D01*
X149324306Y-114250000D01*
X149336329Y-114245624D01*
X149340000Y-114239266D01*
X149340000Y-113271450D01*
X149339074Y-113268907D01*
X149640000Y-113268907D01*
X149640000Y-114234306D01*
X149644376Y-114246329D01*
X149650734Y-114250000D01*
X150569769Y-114250000D01*
X150581792Y-114245624D01*
X150584584Y-114240788D01*
X150575470Y-114145261D01*
X150573877Y-114136989D01*
X150517173Y-113943699D01*
X150514043Y-113935875D01*
X150421811Y-113756794D01*
X150417256Y-113749701D01*
X150292834Y-113591305D01*
X150287010Y-113585189D01*
X150134878Y-113453175D01*
X150128010Y-113448277D01*
X149953665Y-113347415D01*
X149945987Y-113343899D01*
X149755710Y-113277824D01*
X149747513Y-113275826D01*
X149655531Y-113262489D01*
X149643006Y-113265094D01*
X149640000Y-113268907D01*
X149339074Y-113268907D01*
X149335624Y-113259427D01*
X149331192Y-113256868D01*
X149330196Y-113257010D01*
X149134359Y-113304207D01*
X149126395Y-113306949D01*
X148943025Y-113390323D01*
X148935713Y-113394528D01*
X148771424Y-113511066D01*
X148765038Y-113516577D01*
X148625745Y-113662085D01*
X148620524Y-113668696D01*
X148511261Y-113837914D01*
X148507374Y-113845413D01*
X148432083Y-114032234D01*
X148429689Y-114040316D01*
X148391175Y-114237535D01*
X147944236Y-114237535D01*
X147935120Y-114147784D01*
X147890598Y-114005713D01*
X147875687Y-113958132D01*
X147875686Y-113958130D01*
X147874338Y-113953828D01*
X147808491Y-113835038D01*
X147777985Y-113780003D01*
X147777984Y-113780002D01*
X147775797Y-113776056D01*
X147643523Y-113621729D01*
X147482919Y-113497152D01*
X147440183Y-113476123D01*
X147300545Y-113407413D01*
X147301696Y-113405073D01*
X147262123Y-113371406D01*
X147250500Y-113327431D01*
X147250500Y-112211336D01*
X147271322Y-112154128D01*
X147276568Y-112148403D01*
X151577568Y-107847404D01*
X151632743Y-107821676D01*
X151691548Y-107837432D01*
G37*
G04 #@! TD.AperFunction*
G04 #@! TA.AperFunction,Conductor*
G36*
X155334480Y-108163741D02*
G01*
X155352913Y-108177884D01*
X156829381Y-109654352D01*
X156832434Y-109657889D01*
X156834575Y-109662269D01*
X156840600Y-109667858D01*
X156870960Y-109696021D01*
X156873366Y-109698337D01*
X156887277Y-109712248D01*
X156890648Y-109714561D01*
X156891623Y-109715371D01*
X156895267Y-109718570D01*
X156902019Y-109724833D01*
X156916646Y-109738401D01*
X156928374Y-109743080D01*
X156945733Y-109752349D01*
X156956146Y-109759492D01*
X156964140Y-109761389D01*
X156982773Y-109765811D01*
X156995202Y-109769742D01*
X157014787Y-109777556D01*
X157014793Y-109777557D01*
X157020622Y-109779883D01*
X157026915Y-109780500D01*
X157034255Y-109780500D01*
X157054806Y-109782905D01*
X157065066Y-109785340D01*
X157073208Y-109784232D01*
X157073210Y-109784232D01*
X157094656Y-109781313D01*
X157106658Y-109780500D01*
X157332393Y-109780500D01*
X157389601Y-109801322D01*
X157415918Y-109838768D01*
X157446119Y-109920852D01*
X157553226Y-110093599D01*
X157692881Y-110241280D01*
X157859379Y-110357863D01*
X158045919Y-110438586D01*
X158050331Y-110439508D01*
X158050335Y-110439509D01*
X158163038Y-110463053D01*
X158244880Y-110480151D01*
X158251539Y-110480500D01*
X159731000Y-110480500D01*
X159788208Y-110501322D01*
X159818648Y-110554045D01*
X159820000Y-110569500D01*
X159820000Y-110930500D01*
X159799178Y-110987708D01*
X159746455Y-111018148D01*
X159731000Y-111019500D01*
X158299200Y-111019500D01*
X158209864Y-111028574D01*
X158152271Y-111034424D01*
X158152269Y-111034424D01*
X158147784Y-111034880D01*
X158066059Y-111060491D01*
X157958132Y-111094313D01*
X157958130Y-111094314D01*
X157953828Y-111095662D01*
X157776056Y-111194203D01*
X157621729Y-111326477D01*
X157497152Y-111487081D01*
X157407413Y-111669455D01*
X157405073Y-111668304D01*
X157371406Y-111707877D01*
X157327431Y-111719500D01*
X156781337Y-111719500D01*
X156724129Y-111698678D01*
X156718404Y-111693433D01*
X155227047Y-110202076D01*
X155201319Y-110146900D01*
X155200980Y-110139143D01*
X155200980Y-108240817D01*
X155221802Y-108183609D01*
X155274525Y-108153169D01*
X155334480Y-108163741D01*
G37*
G04 #@! TD.AperFunction*
G04 #@! TA.AperFunction,Conductor*
G36*
X155734000Y-106063261D02*
G01*
X155752433Y-106077404D01*
X156789381Y-107114352D01*
X156792434Y-107117889D01*
X156794575Y-107122269D01*
X156800600Y-107127858D01*
X156830960Y-107156021D01*
X156833366Y-107158337D01*
X156847277Y-107172248D01*
X156850648Y-107174561D01*
X156851623Y-107175371D01*
X156855267Y-107178570D01*
X156862019Y-107184833D01*
X156876646Y-107198401D01*
X156888374Y-107203080D01*
X156905733Y-107212349D01*
X156916146Y-107219492D01*
X156924140Y-107221389D01*
X156942773Y-107225811D01*
X156955202Y-107229742D01*
X156974787Y-107237556D01*
X156974793Y-107237557D01*
X156980622Y-107239883D01*
X156986915Y-107240500D01*
X156994255Y-107240500D01*
X157014806Y-107242905D01*
X157025066Y-107245340D01*
X157033208Y-107244232D01*
X157033210Y-107244232D01*
X157054656Y-107241313D01*
X157066658Y-107240500D01*
X157332393Y-107240500D01*
X157389601Y-107261322D01*
X157415918Y-107298768D01*
X157446119Y-107380852D01*
X157553226Y-107553599D01*
X157692881Y-107701280D01*
X157859379Y-107817863D01*
X158045919Y-107898586D01*
X158050331Y-107899508D01*
X158050335Y-107899509D01*
X158163038Y-107923053D01*
X158244880Y-107940151D01*
X158251539Y-107940500D01*
X159731000Y-107940500D01*
X159788208Y-107961322D01*
X159818648Y-108014045D01*
X159820000Y-108029500D01*
X159820000Y-108390500D01*
X159799178Y-108447708D01*
X159746455Y-108478148D01*
X159731000Y-108479500D01*
X158299200Y-108479500D01*
X158209864Y-108488574D01*
X158152271Y-108494424D01*
X158152269Y-108494424D01*
X158147784Y-108494880D01*
X158066059Y-108520491D01*
X157958132Y-108554313D01*
X157958130Y-108554314D01*
X157953828Y-108555662D01*
X157776056Y-108654203D01*
X157621729Y-108786477D01*
X157497152Y-108947081D01*
X157407413Y-109129455D01*
X157405073Y-109128304D01*
X157371406Y-109167877D01*
X157327431Y-109179500D01*
X157241337Y-109179500D01*
X157184129Y-109158678D01*
X157178404Y-109153433D01*
X155626567Y-107601596D01*
X155600839Y-107546420D01*
X155600500Y-107538663D01*
X155600500Y-106140337D01*
X155621322Y-106083129D01*
X155674045Y-106052689D01*
X155734000Y-106063261D01*
G37*
G04 #@! TD.AperFunction*
G04 #@! TA.AperFunction,Conductor*
G36*
X147107846Y-102221134D02*
G01*
X147142765Y-102271004D01*
X147145346Y-102291581D01*
X147144901Y-102294440D01*
X147161633Y-102422394D01*
X147213605Y-102540510D01*
X147296639Y-102639291D01*
X147404060Y-102710796D01*
X147410113Y-102712687D01*
X147410115Y-102712688D01*
X147415544Y-102714384D01*
X147527233Y-102749278D01*
X147576759Y-102750186D01*
X147649912Y-102751527D01*
X147649914Y-102751527D01*
X147656255Y-102751643D01*
X147780755Y-102717700D01*
X147854062Y-102672690D01*
X147913707Y-102660500D01*
X147967235Y-102689503D01*
X147989596Y-102746127D01*
X147970329Y-102803877D01*
X147963562Y-102811467D01*
X141701238Y-109073791D01*
X141646062Y-109099519D01*
X141587257Y-109083763D01*
X141558768Y-109046768D01*
X141557413Y-109047429D01*
X141555438Y-109043379D01*
X141553881Y-109039148D01*
X141446774Y-108866401D01*
X141307119Y-108718720D01*
X141140621Y-108602137D01*
X140954081Y-108521414D01*
X140949669Y-108520492D01*
X140949665Y-108520491D01*
X140833527Y-108496229D01*
X140755120Y-108479849D01*
X140748461Y-108479500D01*
X139269000Y-108479500D01*
X139211792Y-108458678D01*
X139181352Y-108405955D01*
X139180000Y-108390500D01*
X139180000Y-108029500D01*
X139200822Y-107972292D01*
X139253545Y-107941852D01*
X139269000Y-107940500D01*
X140700800Y-107940500D01*
X140790136Y-107931426D01*
X140847729Y-107925576D01*
X140847731Y-107925576D01*
X140852216Y-107925120D01*
X140981669Y-107884552D01*
X141041868Y-107865687D01*
X141041870Y-107865686D01*
X141046172Y-107864338D01*
X141223944Y-107765797D01*
X141378271Y-107633523D01*
X141502848Y-107472919D01*
X141592587Y-107290545D01*
X141594927Y-107291696D01*
X141628594Y-107252123D01*
X141672569Y-107240500D01*
X141806069Y-107240500D01*
X141810733Y-107240843D01*
X141815342Y-107242425D01*
X141823551Y-107242117D01*
X141823552Y-107242117D01*
X141864948Y-107240563D01*
X141868286Y-107240500D01*
X141887948Y-107240500D01*
X141891973Y-107239751D01*
X141893248Y-107239633D01*
X141898077Y-107239320D01*
X141927208Y-107238226D01*
X141934755Y-107234984D01*
X141934758Y-107234983D01*
X141938810Y-107233242D01*
X141957645Y-107227520D01*
X141961974Y-107226714D01*
X141961976Y-107226713D01*
X141970053Y-107225209D01*
X141993352Y-107210848D01*
X142004919Y-107204839D01*
X142024286Y-107196518D01*
X142030063Y-107194036D01*
X142034949Y-107190022D01*
X142040138Y-107184833D01*
X142056368Y-107172004D01*
X142058353Y-107170780D01*
X142058354Y-107170780D01*
X142065348Y-107166468D01*
X142083420Y-107142702D01*
X142091331Y-107133640D01*
X146993865Y-102231106D01*
X147049041Y-102205378D01*
X147107846Y-102221134D01*
G37*
G04 #@! TD.AperFunction*
G04 #@! TA.AperFunction,Conductor*
G36*
X149672077Y-87497815D02*
G01*
X149679395Y-87504366D01*
X150848881Y-88673852D01*
X150851934Y-88677389D01*
X150854075Y-88681769D01*
X150860100Y-88687358D01*
X150890460Y-88715521D01*
X150892866Y-88717837D01*
X150906777Y-88731748D01*
X150910148Y-88734061D01*
X150911123Y-88734871D01*
X150914767Y-88738070D01*
X150929311Y-88751561D01*
X150936146Y-88757901D01*
X150947874Y-88762580D01*
X150965233Y-88771849D01*
X150975646Y-88778992D01*
X150983640Y-88780889D01*
X151002273Y-88785311D01*
X151014702Y-88789242D01*
X151034287Y-88797056D01*
X151034293Y-88797057D01*
X151040122Y-88799383D01*
X151046415Y-88800000D01*
X151053755Y-88800000D01*
X151074306Y-88802405D01*
X151084566Y-88804840D01*
X151092708Y-88803732D01*
X151092710Y-88803732D01*
X151114156Y-88800813D01*
X151126158Y-88800000D01*
X153002453Y-88800000D01*
X153059661Y-88820822D01*
X153070580Y-88831732D01*
X153076514Y-88838791D01*
X153183935Y-88910296D01*
X153189988Y-88912187D01*
X153189990Y-88912188D01*
X153291747Y-88943979D01*
X153307108Y-88948778D01*
X153307333Y-88948782D01*
X153358264Y-88977249D01*
X153379880Y-89034161D01*
X153359857Y-89091654D01*
X153353822Y-89098334D01*
X152125648Y-90326508D01*
X152122111Y-90329561D01*
X152117731Y-90331702D01*
X152112142Y-90337727D01*
X152083979Y-90368087D01*
X152081663Y-90370493D01*
X152067752Y-90384404D01*
X152065439Y-90387775D01*
X152064629Y-90388750D01*
X152061430Y-90392394D01*
X152051578Y-90403015D01*
X152041599Y-90413773D01*
X152037200Y-90424800D01*
X152036922Y-90425497D01*
X152027651Y-90442860D01*
X152020508Y-90453273D01*
X152018611Y-90461267D01*
X152014189Y-90479900D01*
X152010258Y-90492329D01*
X152002444Y-90511914D01*
X152002443Y-90511920D01*
X152000117Y-90517749D01*
X151999500Y-90524042D01*
X151999500Y-90531382D01*
X151997095Y-90551932D01*
X151994660Y-90562193D01*
X151995768Y-90570335D01*
X151995768Y-90570337D01*
X151998687Y-90591783D01*
X151999500Y-90603785D01*
X151999500Y-93538663D01*
X151978678Y-93595871D01*
X151973433Y-93601596D01*
X151082576Y-94492453D01*
X151027400Y-94518181D01*
X151019643Y-94518520D01*
X150676583Y-94518520D01*
X150619375Y-94497698D01*
X150609164Y-94487620D01*
X150599193Y-94476048D01*
X150490906Y-94405861D01*
X150482454Y-94403333D01*
X150373348Y-94370703D01*
X150373349Y-94370703D01*
X150367273Y-94368886D01*
X150360934Y-94368847D01*
X150360932Y-94368847D01*
X150301448Y-94368484D01*
X150238231Y-94368098D01*
X150232138Y-94369840D01*
X150232134Y-94369840D01*
X150146286Y-94394376D01*
X150114155Y-94403559D01*
X150005019Y-94472419D01*
X150000821Y-94477173D01*
X150000818Y-94477175D01*
X149990873Y-94488435D01*
X149937396Y-94517531D01*
X149924165Y-94518520D01*
X149573402Y-94518520D01*
X149516194Y-94497698D01*
X149485754Y-94444975D01*
X149484590Y-94435302D01*
X149484378Y-94432046D01*
X149484420Y-94428605D01*
X149470251Y-94329666D01*
X149467025Y-94307140D01*
X149467025Y-94307139D01*
X149466126Y-94300864D01*
X149427128Y-94215093D01*
X149415340Y-94189166D01*
X149415339Y-94189165D01*
X149412715Y-94183393D01*
X149361546Y-94124008D01*
X149332623Y-94090441D01*
X149332622Y-94090440D01*
X149328480Y-94085633D01*
X149220193Y-94015446D01*
X149206675Y-94011403D01*
X149130385Y-93988587D01*
X149096560Y-93978471D01*
X149090221Y-93978432D01*
X149090219Y-93978432D01*
X149030735Y-93978069D01*
X148967518Y-93977683D01*
X148961425Y-93979425D01*
X148961421Y-93979425D01*
X148908032Y-93994684D01*
X148843442Y-94013144D01*
X148734306Y-94082004D01*
X148648883Y-94178727D01*
X148594041Y-94295537D01*
X148593065Y-94301802D01*
X148593065Y-94301804D01*
X148576327Y-94409310D01*
X148574188Y-94423045D01*
X148574324Y-94424089D01*
X148553578Y-94478988D01*
X148549039Y-94483881D01*
X148126132Y-94906789D01*
X148122591Y-94909846D01*
X148118211Y-94911987D01*
X148112620Y-94918014D01*
X148084459Y-94948372D01*
X148082143Y-94950778D01*
X148068232Y-94964689D01*
X148065919Y-94968060D01*
X148065109Y-94969035D01*
X148061910Y-94972679D01*
X148047972Y-94987705D01*
X148042079Y-94994058D01*
X148037402Y-95005782D01*
X148028131Y-95023145D01*
X148020988Y-95033558D01*
X148019091Y-95041552D01*
X148014669Y-95060185D01*
X148010738Y-95072614D01*
X148002924Y-95092199D01*
X148002923Y-95092205D01*
X148000597Y-95098034D01*
X147999980Y-95104327D01*
X147999980Y-95111667D01*
X147997575Y-95132217D01*
X147995140Y-95142478D01*
X147996248Y-95150620D01*
X147996248Y-95150622D01*
X147999167Y-95172068D01*
X147999980Y-95184070D01*
X147999980Y-100338183D01*
X147979158Y-100395391D01*
X147973913Y-100401116D01*
X141761596Y-106613433D01*
X141706420Y-106639161D01*
X141698663Y-106639500D01*
X141667607Y-106639500D01*
X141610399Y-106618678D01*
X141584081Y-106581231D01*
X141567718Y-106536755D01*
X141553881Y-106499148D01*
X141446774Y-106326401D01*
X141307119Y-106178720D01*
X141140621Y-106062137D01*
X140954081Y-105981414D01*
X140949669Y-105980492D01*
X140949665Y-105980491D01*
X140833527Y-105956229D01*
X140755120Y-105939849D01*
X140748461Y-105939500D01*
X139269000Y-105939500D01*
X139211792Y-105918678D01*
X139181352Y-105865955D01*
X139180000Y-105850500D01*
X139180000Y-105489500D01*
X139200822Y-105432292D01*
X139253545Y-105401852D01*
X139269000Y-105400500D01*
X140700800Y-105400500D01*
X140790136Y-105391426D01*
X140847729Y-105385576D01*
X140847731Y-105385576D01*
X140852216Y-105385120D01*
X140949194Y-105354729D01*
X141041868Y-105325687D01*
X141041870Y-105325686D01*
X141046172Y-105324338D01*
X141223944Y-105225797D01*
X141378271Y-105093523D01*
X141428945Y-105028195D01*
X141500088Y-104936477D01*
X141502848Y-104932919D01*
X141516949Y-104904263D01*
X141581440Y-104773199D01*
X141592587Y-104750545D01*
X141604857Y-104703442D01*
X141642686Y-104558213D01*
X141643822Y-104553852D01*
X141647277Y-104487920D01*
X141654223Y-104355381D01*
X141654223Y-104355379D01*
X141654459Y-104350874D01*
X141624065Y-104149903D01*
X141620546Y-104140337D01*
X141555437Y-103963378D01*
X141553881Y-103959148D01*
X141446774Y-103786401D01*
X141307119Y-103638720D01*
X141140621Y-103522137D01*
X140954081Y-103441414D01*
X140949669Y-103440492D01*
X140949665Y-103440491D01*
X140833527Y-103416229D01*
X140755120Y-103399849D01*
X140748461Y-103399500D01*
X139269000Y-103399500D01*
X139211792Y-103378678D01*
X139181352Y-103325955D01*
X139180000Y-103310500D01*
X139180000Y-102949500D01*
X139200822Y-102892292D01*
X139253545Y-102861852D01*
X139269000Y-102860500D01*
X140700800Y-102860500D01*
X140790136Y-102851426D01*
X140847729Y-102845576D01*
X140847731Y-102845576D01*
X140852216Y-102845120D01*
X140983823Y-102803877D01*
X141041868Y-102785687D01*
X141041870Y-102785686D01*
X141046172Y-102784338D01*
X141223944Y-102685797D01*
X141378271Y-102553523D01*
X141502848Y-102392919D01*
X141545766Y-102305699D01*
X141561552Y-102273616D01*
X141592587Y-102210545D01*
X141603948Y-102166932D01*
X141642686Y-102018213D01*
X141643822Y-102013852D01*
X141654459Y-101810874D01*
X141624065Y-101609903D01*
X141605521Y-101559500D01*
X141583978Y-101500950D01*
X141553881Y-101419148D01*
X141446774Y-101246401D01*
X141307119Y-101098720D01*
X141140621Y-100982137D01*
X140954081Y-100901414D01*
X140949669Y-100900492D01*
X140949665Y-100900491D01*
X140833527Y-100876229D01*
X140755120Y-100859849D01*
X140748461Y-100859500D01*
X139269000Y-100859500D01*
X139211792Y-100838678D01*
X139181352Y-100785955D01*
X139180000Y-100770500D01*
X139180000Y-100409500D01*
X139200822Y-100352292D01*
X139253545Y-100321852D01*
X139269000Y-100320500D01*
X140700800Y-100320500D01*
X140790136Y-100311426D01*
X140847729Y-100305576D01*
X140847731Y-100305576D01*
X140852216Y-100305120D01*
X140981669Y-100264552D01*
X141041868Y-100245687D01*
X141041870Y-100245686D01*
X141046172Y-100244338D01*
X141223944Y-100145797D01*
X141378271Y-100013523D01*
X141502848Y-99852919D01*
X141529312Y-99799138D01*
X141566390Y-99723784D01*
X141592587Y-99670545D01*
X141643822Y-99473852D01*
X141654459Y-99270874D01*
X141624065Y-99069903D01*
X141553881Y-98879148D01*
X141446774Y-98706401D01*
X141423954Y-98682269D01*
X141310216Y-98561995D01*
X141307119Y-98558720D01*
X141140621Y-98442137D01*
X140954081Y-98361414D01*
X140949669Y-98360492D01*
X140949665Y-98360491D01*
X140833527Y-98336229D01*
X140755120Y-98319849D01*
X140748461Y-98319500D01*
X139269000Y-98319500D01*
X139211792Y-98298678D01*
X139181352Y-98245955D01*
X139180000Y-98230500D01*
X139180000Y-97869500D01*
X139200822Y-97812292D01*
X139253545Y-97781852D01*
X139269000Y-97780500D01*
X140700800Y-97780500D01*
X140790136Y-97771426D01*
X140847729Y-97765576D01*
X140847731Y-97765576D01*
X140852216Y-97765120D01*
X140981669Y-97724552D01*
X141041868Y-97705687D01*
X141041870Y-97705686D01*
X141046172Y-97704338D01*
X141201540Y-97618216D01*
X141219997Y-97607985D01*
X141219998Y-97607984D01*
X141223944Y-97605797D01*
X141378271Y-97473523D01*
X141403879Y-97440510D01*
X141471095Y-97353855D01*
X141502848Y-97312919D01*
X141592587Y-97130545D01*
X141643822Y-96933852D01*
X141648038Y-96853399D01*
X141654223Y-96735381D01*
X141654223Y-96735379D01*
X141654459Y-96730874D01*
X141624065Y-96529903D01*
X141618638Y-96515151D01*
X141569469Y-96381515D01*
X141553881Y-96339148D01*
X141446774Y-96166401D01*
X141307119Y-96018720D01*
X141140621Y-95902137D01*
X140954081Y-95821414D01*
X140949669Y-95820492D01*
X140949665Y-95820491D01*
X140833527Y-95796229D01*
X140755120Y-95779849D01*
X140748461Y-95779500D01*
X139269000Y-95779500D01*
X139211792Y-95758678D01*
X139181352Y-95705955D01*
X139180000Y-95690500D01*
X139180000Y-95594440D01*
X143344901Y-95594440D01*
X143361633Y-95722394D01*
X143413605Y-95840510D01*
X143423555Y-95852347D01*
X143428628Y-95858382D01*
X143449500Y-95915650D01*
X143449500Y-99653117D01*
X143447506Y-99671848D01*
X143445049Y-99683261D01*
X143445914Y-99690566D01*
X143448883Y-99715654D01*
X143449363Y-99723784D01*
X143449500Y-99725441D01*
X143449500Y-99729115D01*
X143450103Y-99732735D01*
X143452534Y-99747344D01*
X143453125Y-99751493D01*
X143458764Y-99799138D01*
X143461716Y-99805286D01*
X143462691Y-99808368D01*
X143463812Y-99815103D01*
X143467305Y-99821576D01*
X143467306Y-99821580D01*
X143482868Y-99850421D01*
X143484217Y-99852919D01*
X143486607Y-99857349D01*
X143488492Y-99861048D01*
X143509274Y-99904326D01*
X143512592Y-99908274D01*
X143513954Y-99909636D01*
X143514526Y-99910260D01*
X143516275Y-99912333D01*
X143519222Y-99917794D01*
X143556164Y-99951943D01*
X143558659Y-99954341D01*
X144684012Y-101079694D01*
X144709328Y-101131088D01*
X144713956Y-101166477D01*
X144715195Y-101175956D01*
X144767167Y-101294072D01*
X144850201Y-101392853D01*
X144957622Y-101464358D01*
X144963675Y-101466249D01*
X144963677Y-101466250D01*
X144979720Y-101471262D01*
X145080795Y-101502840D01*
X145130321Y-101503748D01*
X145203474Y-101505089D01*
X145203476Y-101505089D01*
X145209817Y-101505205D01*
X145334317Y-101471262D01*
X145444286Y-101403741D01*
X145448537Y-101399045D01*
X145448539Y-101399043D01*
X145526630Y-101312769D01*
X145526631Y-101312768D01*
X145530884Y-101308069D01*
X145562349Y-101243126D01*
X145584385Y-101197645D01*
X145584386Y-101197642D01*
X145587150Y-101191937D01*
X145591434Y-101166477D01*
X145600847Y-101110523D01*
X145608559Y-101064682D01*
X145608695Y-101053562D01*
X145592124Y-100937849D01*
X145591300Y-100932097D01*
X145591300Y-100932096D01*
X145590401Y-100925821D01*
X145545792Y-100827708D01*
X145539615Y-100814123D01*
X145539614Y-100814122D01*
X145536990Y-100808350D01*
X145452755Y-100710590D01*
X145344468Y-100640403D01*
X145338393Y-100638586D01*
X145226912Y-100605245D01*
X145226909Y-100605245D01*
X145220835Y-100603428D01*
X145221018Y-100602816D01*
X145175610Y-100579928D01*
X144176567Y-99580885D01*
X144150839Y-99525709D01*
X144150500Y-99517952D01*
X144150500Y-95918437D01*
X144170932Y-95865415D01*
X144169521Y-95864464D01*
X144173065Y-95859210D01*
X144177322Y-95854507D01*
X144205558Y-95796229D01*
X144230823Y-95744083D01*
X144230824Y-95744080D01*
X144233588Y-95738375D01*
X144254997Y-95611120D01*
X144255133Y-95600000D01*
X144236839Y-95472259D01*
X144183428Y-95354788D01*
X144099193Y-95257028D01*
X143990906Y-95186841D01*
X143983253Y-95184552D01*
X143922885Y-95166498D01*
X143867273Y-95149866D01*
X143860934Y-95149827D01*
X143860932Y-95149827D01*
X143801448Y-95149464D01*
X143738231Y-95149078D01*
X143732138Y-95150820D01*
X143732134Y-95150820D01*
X143657790Y-95172068D01*
X143614155Y-95184539D01*
X143505019Y-95253399D01*
X143465702Y-95297917D01*
X143431778Y-95336329D01*
X143419596Y-95350122D01*
X143364754Y-95466932D01*
X143344901Y-95594440D01*
X139180000Y-95594440D01*
X139180000Y-95329500D01*
X139200822Y-95272292D01*
X139253545Y-95241852D01*
X139269000Y-95240500D01*
X140700800Y-95240500D01*
X140790136Y-95231426D01*
X140847729Y-95225576D01*
X140847731Y-95225576D01*
X140852216Y-95225120D01*
X140963359Y-95190290D01*
X141041868Y-95165687D01*
X141041870Y-95165686D01*
X141046172Y-95164338D01*
X141174764Y-95093058D01*
X141219997Y-95067985D01*
X141219998Y-95067984D01*
X141223944Y-95065797D01*
X141378271Y-94933523D01*
X141401607Y-94903439D01*
X141486674Y-94793770D01*
X141502848Y-94772919D01*
X141592587Y-94590545D01*
X141594927Y-94591696D01*
X141628594Y-94552123D01*
X141672569Y-94540500D01*
X145078664Y-94540500D01*
X145135872Y-94561322D01*
X145141597Y-94566568D01*
X145663236Y-95088208D01*
X145688964Y-95143383D01*
X145673207Y-95202188D01*
X145647794Y-95226410D01*
X145610383Y-95250014D01*
X145610380Y-95250016D01*
X145605019Y-95253399D01*
X145565702Y-95297917D01*
X145531778Y-95336329D01*
X145519596Y-95350122D01*
X145464754Y-95466932D01*
X145444901Y-95594440D01*
X145461633Y-95722394D01*
X145513605Y-95840510D01*
X145596639Y-95939291D01*
X145704060Y-96010796D01*
X145710113Y-96012687D01*
X145710115Y-96012688D01*
X145747831Y-96024471D01*
X145827233Y-96049278D01*
X145876759Y-96050186D01*
X145949912Y-96051527D01*
X145949914Y-96051527D01*
X145956255Y-96051643D01*
X146080755Y-96017700D01*
X146190724Y-95950179D01*
X146194975Y-95945483D01*
X146194977Y-95945481D01*
X146273068Y-95859207D01*
X146273069Y-95859206D01*
X146277322Y-95854507D01*
X146305558Y-95796229D01*
X146330823Y-95744083D01*
X146330824Y-95744080D01*
X146333588Y-95738375D01*
X146354997Y-95611120D01*
X146355133Y-95600000D01*
X146336839Y-95472259D01*
X146308481Y-95409889D01*
X146300500Y-95373052D01*
X146300500Y-95128405D01*
X146321322Y-95071197D01*
X146374045Y-95040757D01*
X146389500Y-95039405D01*
X146393161Y-95039405D01*
X146413709Y-95041810D01*
X146423971Y-95044245D01*
X146432113Y-95043137D01*
X146432115Y-95043137D01*
X146453561Y-95040218D01*
X146465563Y-95039405D01*
X146937006Y-95039405D01*
X146994214Y-95060227D01*
X147005133Y-95071137D01*
X147006375Y-95072614D01*
X147011067Y-95078196D01*
X147118488Y-95149701D01*
X147124541Y-95151592D01*
X147124543Y-95151593D01*
X147158338Y-95162151D01*
X147241661Y-95188183D01*
X147291187Y-95189091D01*
X147364340Y-95190432D01*
X147364342Y-95190432D01*
X147370683Y-95190548D01*
X147495183Y-95156605D01*
X147507379Y-95149117D01*
X147580326Y-95104327D01*
X147605152Y-95089084D01*
X147609403Y-95084388D01*
X147609405Y-95084386D01*
X147687496Y-94998112D01*
X147687497Y-94998111D01*
X147691750Y-94993412D01*
X147707067Y-94961798D01*
X147745251Y-94882988D01*
X147745252Y-94882985D01*
X147748016Y-94877280D01*
X147769425Y-94750025D01*
X147769561Y-94738905D01*
X147751267Y-94611164D01*
X147697856Y-94493693D01*
X147698657Y-94493329D01*
X147686503Y-94438964D01*
X147714519Y-94384914D01*
X147720336Y-94380518D01*
X147720304Y-94380479D01*
X147725180Y-94376431D01*
X147730583Y-94373114D01*
X147734834Y-94368418D01*
X147734836Y-94368416D01*
X147812927Y-94282142D01*
X147812928Y-94282141D01*
X147817181Y-94277442D01*
X147830948Y-94249028D01*
X147870682Y-94167018D01*
X147870683Y-94167015D01*
X147873447Y-94161310D01*
X147880096Y-94121792D01*
X147894285Y-94037447D01*
X147894856Y-94034055D01*
X147894992Y-94022935D01*
X147878505Y-93907810D01*
X147877597Y-93901470D01*
X147877597Y-93901469D01*
X147876698Y-93895194D01*
X147834952Y-93803378D01*
X147825912Y-93783496D01*
X147825911Y-93783495D01*
X147823287Y-93777723D01*
X147778026Y-93725195D01*
X147743195Y-93684771D01*
X147743194Y-93684770D01*
X147739052Y-93679963D01*
X147630765Y-93609776D01*
X147617247Y-93605733D01*
X147527448Y-93578877D01*
X147507132Y-93572801D01*
X147500793Y-93572762D01*
X147500791Y-93572762D01*
X147441307Y-93572399D01*
X147378090Y-93572013D01*
X147371997Y-93573755D01*
X147371993Y-93573755D01*
X147297233Y-93595122D01*
X147254014Y-93607474D01*
X147144878Y-93676334D01*
X147140680Y-93681088D01*
X147140677Y-93681090D01*
X147130732Y-93692350D01*
X147077255Y-93721446D01*
X147064024Y-93722435D01*
X146584273Y-93722435D01*
X146527065Y-93701613D01*
X146521340Y-93696368D01*
X146177405Y-93352433D01*
X146151677Y-93297257D01*
X146167433Y-93238452D01*
X146217303Y-93203533D01*
X146240338Y-93200500D01*
X147122578Y-93200500D01*
X147179786Y-93221322D01*
X147190705Y-93232232D01*
X147196639Y-93239291D01*
X147304060Y-93310796D01*
X147310113Y-93312687D01*
X147310115Y-93312688D01*
X147326158Y-93317700D01*
X147427233Y-93349278D01*
X147476759Y-93350186D01*
X147549912Y-93351527D01*
X147549914Y-93351527D01*
X147556255Y-93351643D01*
X147680755Y-93317700D01*
X147790724Y-93250179D01*
X147794975Y-93245483D01*
X147794977Y-93245481D01*
X147873068Y-93159207D01*
X147873069Y-93159206D01*
X147877322Y-93154507D01*
X147905359Y-93096639D01*
X147930823Y-93044083D01*
X147930824Y-93044080D01*
X147933588Y-93038375D01*
X147954997Y-92911120D01*
X147955133Y-92900000D01*
X147939308Y-92789500D01*
X147937738Y-92778535D01*
X147937738Y-92778534D01*
X147936839Y-92772259D01*
X147912128Y-92717911D01*
X147886053Y-92660561D01*
X147886052Y-92660560D01*
X147883428Y-92654788D01*
X147831082Y-92594037D01*
X147803336Y-92561836D01*
X147803335Y-92561835D01*
X147799193Y-92557028D01*
X147690906Y-92486841D01*
X147670433Y-92480718D01*
X147573353Y-92451684D01*
X147573351Y-92451684D01*
X147567273Y-92449866D01*
X147563837Y-92449845D01*
X147511395Y-92421373D01*
X147489081Y-92364731D01*
X147508396Y-92306997D01*
X147531481Y-92286554D01*
X147585323Y-92253495D01*
X147590724Y-92250179D01*
X147594975Y-92245483D01*
X147594977Y-92245481D01*
X147673068Y-92159207D01*
X147673069Y-92159206D01*
X147677322Y-92154507D01*
X147711874Y-92083192D01*
X147730823Y-92044083D01*
X147730824Y-92044080D01*
X147733588Y-92038375D01*
X147738046Y-92011880D01*
X147747728Y-91954327D01*
X147754997Y-91911120D01*
X147755133Y-91900000D01*
X147736839Y-91772259D01*
X147683428Y-91654788D01*
X147617848Y-91578678D01*
X147603336Y-91561836D01*
X147603335Y-91561835D01*
X147599193Y-91557028D01*
X147490906Y-91486841D01*
X147477388Y-91482798D01*
X147373348Y-91451683D01*
X147373349Y-91451683D01*
X147367273Y-91449866D01*
X147360934Y-91449827D01*
X147360932Y-91449827D01*
X147301448Y-91449464D01*
X147238231Y-91449078D01*
X147232138Y-91450820D01*
X147232134Y-91450820D01*
X147137728Y-91477802D01*
X147114155Y-91484539D01*
X147005019Y-91553399D01*
X147000821Y-91558153D01*
X147000818Y-91558155D01*
X146990873Y-91569415D01*
X146937396Y-91598511D01*
X146924165Y-91599500D01*
X145691349Y-91599500D01*
X145634141Y-91578678D01*
X145628416Y-91573433D01*
X145221247Y-91166264D01*
X145195519Y-91111088D01*
X145211275Y-91052283D01*
X145261145Y-91017364D01*
X145285809Y-91014346D01*
X145312262Y-91014831D01*
X145328711Y-91015133D01*
X145328713Y-91015133D01*
X145335053Y-91015249D01*
X145459553Y-90981306D01*
X145569522Y-90913785D01*
X145573773Y-90909089D01*
X145573775Y-90909087D01*
X145651866Y-90822813D01*
X145651867Y-90822812D01*
X145656120Y-90818113D01*
X145681513Y-90765702D01*
X145709621Y-90707689D01*
X145709622Y-90707686D01*
X145712386Y-90701981D01*
X145716307Y-90678678D01*
X145728906Y-90603785D01*
X145733795Y-90574726D01*
X145733931Y-90563606D01*
X145716947Y-90445013D01*
X145716536Y-90442141D01*
X145716536Y-90442140D01*
X145715637Y-90435865D01*
X145669788Y-90335025D01*
X145664850Y-90324165D01*
X145662226Y-90318394D01*
X145658089Y-90313593D01*
X145658088Y-90313591D01*
X145600874Y-90247191D01*
X145579298Y-90189096D01*
X145579298Y-89475138D01*
X145579641Y-89470471D01*
X145581224Y-89465860D01*
X145579361Y-89416239D01*
X145579298Y-89412900D01*
X145579298Y-89393254D01*
X145578546Y-89389217D01*
X145578432Y-89387981D01*
X145578117Y-89383116D01*
X145578102Y-89382699D01*
X145578026Y-89380678D01*
X145596700Y-89322733D01*
X145648251Y-89290348D01*
X145708558Y-89298676D01*
X145729895Y-89314425D01*
X146793429Y-90377959D01*
X146819157Y-90433134D01*
X146818436Y-90454581D01*
X146814993Y-90476694D01*
X146821412Y-90525783D01*
X146830043Y-90591783D01*
X146831725Y-90604648D01*
X146883697Y-90722764D01*
X146966731Y-90821545D01*
X147074152Y-90893050D01*
X147080205Y-90894941D01*
X147080207Y-90894942D01*
X147096250Y-90899954D01*
X147197325Y-90931532D01*
X147246851Y-90932440D01*
X147320004Y-90933781D01*
X147320006Y-90933781D01*
X147326347Y-90933897D01*
X147450847Y-90899954D01*
X147560816Y-90832433D01*
X147565067Y-90827737D01*
X147565069Y-90827735D01*
X147643160Y-90741461D01*
X147643161Y-90741460D01*
X147647414Y-90736761D01*
X147650180Y-90731053D01*
X147655074Y-90720952D01*
X147698757Y-90678548D01*
X147759477Y-90674144D01*
X147784482Y-90685673D01*
X147846724Y-90727104D01*
X147852777Y-90728995D01*
X147852779Y-90728996D01*
X147868822Y-90734008D01*
X147969897Y-90765586D01*
X148019423Y-90766494D01*
X148092576Y-90767835D01*
X148092578Y-90767835D01*
X148098919Y-90767951D01*
X148223419Y-90734008D01*
X148233830Y-90727616D01*
X148327984Y-90669805D01*
X148333388Y-90666487D01*
X148337639Y-90661791D01*
X148337641Y-90661789D01*
X148415732Y-90575515D01*
X148415733Y-90575514D01*
X148419986Y-90570815D01*
X148426434Y-90557506D01*
X148470115Y-90515102D01*
X148530835Y-90510696D01*
X148541546Y-90514738D01*
X148545083Y-90517092D01*
X148551134Y-90518982D01*
X148551135Y-90518983D01*
X148567930Y-90524230D01*
X148668256Y-90555574D01*
X148717782Y-90556482D01*
X148790935Y-90557823D01*
X148790937Y-90557823D01*
X148797278Y-90557939D01*
X148921778Y-90523996D01*
X148929943Y-90518983D01*
X149026343Y-90459793D01*
X149031747Y-90456475D01*
X149043890Y-90443059D01*
X149097716Y-90414618D01*
X149159189Y-90428697D01*
X149243851Y-90485052D01*
X149249904Y-90486943D01*
X149249906Y-90486944D01*
X149265949Y-90491956D01*
X149367024Y-90523534D01*
X149416550Y-90524442D01*
X149489703Y-90525783D01*
X149489705Y-90525783D01*
X149496046Y-90525899D01*
X149620546Y-90491956D01*
X149626641Y-90488214D01*
X149697000Y-90445013D01*
X149730515Y-90424435D01*
X149734766Y-90419739D01*
X149734768Y-90419737D01*
X149812859Y-90333463D01*
X149812860Y-90333462D01*
X149817113Y-90328763D01*
X149863004Y-90234045D01*
X149870614Y-90218339D01*
X149870615Y-90218336D01*
X149873379Y-90212631D01*
X149877339Y-90189096D01*
X149884964Y-90143771D01*
X149894788Y-90085376D01*
X149894924Y-90074256D01*
X149876630Y-89946515D01*
X149823219Y-89829044D01*
X149819082Y-89824243D01*
X149819081Y-89824241D01*
X149761867Y-89757841D01*
X149740291Y-89699746D01*
X149740291Y-88180978D01*
X149741643Y-88165523D01*
X149742520Y-88160550D01*
X149744927Y-88146899D01*
X149741767Y-88128977D01*
X149740689Y-88120506D01*
X149734674Y-88044082D01*
X149732880Y-88021285D01*
X149728887Y-88004650D01*
X149704283Y-87902168D01*
X149703466Y-87898765D01*
X149674733Y-87829397D01*
X149656585Y-87785583D01*
X149656582Y-87785578D01*
X149655247Y-87782354D01*
X149589411Y-87674920D01*
X149553555Y-87632938D01*
X149548575Y-87626061D01*
X149547380Y-87623281D01*
X149543389Y-87618424D01*
X149540436Y-87613571D01*
X149528480Y-87553877D01*
X149557691Y-87500464D01*
X149614402Y-87478323D01*
X149672077Y-87497815D01*
G37*
G04 #@! TD.AperFunction*
G04 #@! TA.AperFunction,Conductor*
G36*
X156134000Y-104063261D02*
G01*
X156152433Y-104077404D01*
X156649381Y-104574352D01*
X156652434Y-104577889D01*
X156654575Y-104582269D01*
X156660600Y-104587858D01*
X156690960Y-104616021D01*
X156693366Y-104618337D01*
X156707277Y-104632248D01*
X156710648Y-104634561D01*
X156711623Y-104635371D01*
X156715267Y-104638570D01*
X156722594Y-104645366D01*
X156736646Y-104658401D01*
X156744274Y-104661444D01*
X156744275Y-104661445D01*
X156746298Y-104662252D01*
X156748371Y-104663079D01*
X156765733Y-104672350D01*
X156776146Y-104679493D01*
X156784137Y-104681389D01*
X156784141Y-104681391D01*
X156802778Y-104685813D01*
X156815200Y-104689741D01*
X156840622Y-104699883D01*
X156846915Y-104700500D01*
X156854256Y-104700500D01*
X156874804Y-104702905D01*
X156885066Y-104705340D01*
X156893208Y-104704232D01*
X156893210Y-104704232D01*
X156914656Y-104701313D01*
X156926658Y-104700500D01*
X157332393Y-104700500D01*
X157389601Y-104721322D01*
X157415918Y-104758768D01*
X157446119Y-104840852D01*
X157553226Y-105013599D01*
X157556323Y-105016874D01*
X157582053Y-105044083D01*
X157692881Y-105161280D01*
X157859379Y-105277863D01*
X158045919Y-105358586D01*
X158050331Y-105359508D01*
X158050335Y-105359509D01*
X158163038Y-105383053D01*
X158244880Y-105400151D01*
X158251539Y-105400500D01*
X159731000Y-105400500D01*
X159788208Y-105421322D01*
X159818648Y-105474045D01*
X159820000Y-105489500D01*
X159820000Y-105850500D01*
X159799178Y-105907708D01*
X159746455Y-105938148D01*
X159731000Y-105939500D01*
X158299200Y-105939500D01*
X158209864Y-105948574D01*
X158152271Y-105954424D01*
X158152269Y-105954424D01*
X158147784Y-105954880D01*
X158083131Y-105975141D01*
X157958132Y-106014313D01*
X157958130Y-106014314D01*
X157953828Y-106015662D01*
X157776056Y-106114203D01*
X157621729Y-106246477D01*
X157497152Y-106407081D01*
X157407413Y-106589455D01*
X157405073Y-106588304D01*
X157371406Y-106627877D01*
X157327431Y-106639500D01*
X157201337Y-106639500D01*
X157144129Y-106618678D01*
X157138404Y-106613433D01*
X156026567Y-105501596D01*
X156000839Y-105446420D01*
X156000500Y-105438663D01*
X156000500Y-104140337D01*
X156021322Y-104083129D01*
X156074045Y-104052689D01*
X156134000Y-104063261D01*
G37*
G04 #@! TD.AperFunction*
G04 #@! TA.AperFunction,Conductor*
G36*
X156934480Y-99163740D02*
G01*
X156952912Y-99177883D01*
X157244380Y-99469352D01*
X157269381Y-99494353D01*
X157272435Y-99497891D01*
X157274575Y-99502269D01*
X157280600Y-99507858D01*
X157310947Y-99536009D01*
X157313353Y-99538325D01*
X157327276Y-99552248D01*
X157330659Y-99554569D01*
X157331619Y-99555366D01*
X157335273Y-99558575D01*
X157350618Y-99572810D01*
X157350621Y-99572812D01*
X157356646Y-99578401D01*
X157360737Y-99580033D01*
X157395341Y-99622842D01*
X157444562Y-99756622D01*
X157444565Y-99756627D01*
X157446119Y-99760852D01*
X157553226Y-99933599D01*
X157692881Y-100081280D01*
X157859379Y-100197863D01*
X158045919Y-100278586D01*
X158050331Y-100279508D01*
X158050335Y-100279509D01*
X158163038Y-100303053D01*
X158244880Y-100320151D01*
X158251539Y-100320500D01*
X159731000Y-100320500D01*
X159788208Y-100341322D01*
X159818648Y-100394045D01*
X159820000Y-100409500D01*
X159820000Y-100770500D01*
X159799178Y-100827708D01*
X159746455Y-100858148D01*
X159731000Y-100859500D01*
X158299200Y-100859500D01*
X158209864Y-100868574D01*
X158152271Y-100874424D01*
X158152269Y-100874424D01*
X158147784Y-100874880D01*
X158066059Y-100900491D01*
X157958132Y-100934313D01*
X157958130Y-100934314D01*
X157953828Y-100935662D01*
X157776056Y-101034203D01*
X157621729Y-101166477D01*
X157497152Y-101327081D01*
X157407413Y-101509455D01*
X157405073Y-101508304D01*
X157371406Y-101547877D01*
X157327431Y-101559500D01*
X157221337Y-101559500D01*
X157164129Y-101538678D01*
X157158405Y-101533433D01*
X156827048Y-101202077D01*
X156801319Y-101146901D01*
X156800980Y-101139144D01*
X156800980Y-99240816D01*
X156821802Y-99183608D01*
X156874525Y-99153168D01*
X156934480Y-99163740D01*
G37*
G04 #@! TD.AperFunction*
G04 #@! TA.AperFunction,Conductor*
G36*
X153661548Y-89744559D02*
G01*
X153696467Y-89794429D01*
X153699500Y-89817464D01*
X153699500Y-94459664D01*
X153678678Y-94516872D01*
X153625955Y-94547312D01*
X153566000Y-94536740D01*
X153547573Y-94522602D01*
X153403876Y-94378905D01*
X153400827Y-94375373D01*
X153398685Y-94370991D01*
X153362299Y-94337238D01*
X153359894Y-94334923D01*
X153345983Y-94321012D01*
X153342612Y-94318699D01*
X153341637Y-94317889D01*
X153337993Y-94314690D01*
X153322636Y-94300445D01*
X153316614Y-94294859D01*
X153304886Y-94290180D01*
X153287527Y-94280911D01*
X153277114Y-94273768D01*
X153267745Y-94271545D01*
X153250487Y-94267449D01*
X153238058Y-94263518D01*
X153218473Y-94255704D01*
X153218467Y-94255703D01*
X153212638Y-94253377D01*
X153206345Y-94252760D01*
X153199005Y-94252760D01*
X153178455Y-94250355D01*
X153177887Y-94250220D01*
X153168194Y-94247920D01*
X153160052Y-94249028D01*
X153160050Y-94249028D01*
X153138604Y-94251947D01*
X153126602Y-94252760D01*
X152726083Y-94252760D01*
X152668875Y-94231938D01*
X152658664Y-94221860D01*
X152648693Y-94210288D01*
X152540406Y-94140101D01*
X152486596Y-94124008D01*
X152437753Y-94087667D01*
X152423697Y-94028432D01*
X152449165Y-93975807D01*
X152474356Y-93950616D01*
X152477891Y-93947565D01*
X152482269Y-93945425D01*
X152516009Y-93909053D01*
X152518324Y-93906648D01*
X152532248Y-93892724D01*
X152534569Y-93889341D01*
X152535366Y-93888381D01*
X152538575Y-93884727D01*
X152552810Y-93869382D01*
X152552812Y-93869379D01*
X152558401Y-93863354D01*
X152563078Y-93851630D01*
X152572352Y-93834262D01*
X152574844Y-93830630D01*
X152574845Y-93830628D01*
X152579492Y-93823854D01*
X152581389Y-93815860D01*
X152581390Y-93815858D01*
X152585811Y-93797227D01*
X152589742Y-93784798D01*
X152597556Y-93765213D01*
X152597557Y-93765207D01*
X152599883Y-93759378D01*
X152600500Y-93753085D01*
X152600500Y-93745745D01*
X152602905Y-93725195D01*
X152603442Y-93722931D01*
X152605340Y-93714934D01*
X152603262Y-93699660D01*
X152601313Y-93685344D01*
X152600500Y-93673342D01*
X152600500Y-90738464D01*
X152621322Y-90681256D01*
X152626567Y-90675531D01*
X153547567Y-89754531D01*
X153602743Y-89728803D01*
X153661548Y-89744559D01*
G37*
G04 #@! TD.AperFunction*
G04 #@! TA.AperFunction,Conductor*
G36*
X143295871Y-92021322D02*
G01*
X143301596Y-92026567D01*
X145062596Y-93787567D01*
X145088324Y-93842743D01*
X145072568Y-93901548D01*
X145022698Y-93936467D01*
X144999663Y-93939500D01*
X141667607Y-93939500D01*
X141610399Y-93918678D01*
X141584081Y-93881231D01*
X141579722Y-93869382D01*
X141553881Y-93799148D01*
X141446774Y-93626401D01*
X141307119Y-93478720D01*
X141140621Y-93362137D01*
X140954081Y-93281414D01*
X140949669Y-93280492D01*
X140949665Y-93280491D01*
X140820449Y-93253497D01*
X140755120Y-93239849D01*
X140748461Y-93239500D01*
X139269000Y-93239500D01*
X139211792Y-93218678D01*
X139181352Y-93165955D01*
X139180000Y-93150500D01*
X139180000Y-92789500D01*
X139200822Y-92732292D01*
X139253545Y-92701852D01*
X139269000Y-92700500D01*
X140700800Y-92700500D01*
X140790136Y-92691426D01*
X140847729Y-92685576D01*
X140847731Y-92685576D01*
X140852216Y-92685120D01*
X141028925Y-92629743D01*
X141041868Y-92625687D01*
X141041870Y-92625686D01*
X141046172Y-92624338D01*
X141198529Y-92539885D01*
X141219997Y-92527985D01*
X141219998Y-92527984D01*
X141223944Y-92525797D01*
X141378271Y-92393523D01*
X141502848Y-92232919D01*
X141508555Y-92221322D01*
X141592587Y-92050545D01*
X141594927Y-92051696D01*
X141628594Y-92012123D01*
X141672569Y-92000500D01*
X143238663Y-92000500D01*
X143295871Y-92021322D01*
G37*
G04 #@! TD.AperFunction*
G04 #@! TA.AperFunction,Conductor*
G36*
X141615529Y-89650509D02*
G01*
X141645126Y-89670097D01*
X143222596Y-91247567D01*
X143248324Y-91302743D01*
X143232568Y-91361548D01*
X143182698Y-91396467D01*
X143159663Y-91399500D01*
X141667607Y-91399500D01*
X141610399Y-91378678D01*
X141584081Y-91341231D01*
X141569921Y-91302743D01*
X141553881Y-91259148D01*
X141446774Y-91086401D01*
X141307119Y-90938720D01*
X141148616Y-90827735D01*
X141144310Y-90824720D01*
X141140621Y-90822137D01*
X140954081Y-90741414D01*
X140949669Y-90740492D01*
X140949665Y-90740491D01*
X140833527Y-90716229D01*
X140755120Y-90699849D01*
X140748461Y-90699500D01*
X139269000Y-90699500D01*
X139211792Y-90678678D01*
X139181352Y-90625955D01*
X139180000Y-90610500D01*
X139180000Y-90249500D01*
X139200822Y-90192292D01*
X139253545Y-90161852D01*
X139269000Y-90160500D01*
X140700800Y-90160500D01*
X140790136Y-90151426D01*
X140847729Y-90145576D01*
X140847731Y-90145576D01*
X140852216Y-90145120D01*
X141032036Y-90088768D01*
X141041868Y-90085687D01*
X141041870Y-90085686D01*
X141046172Y-90084338D01*
X141223944Y-89985797D01*
X141378271Y-89853523D01*
X141381935Y-89848800D01*
X141500086Y-89696480D01*
X141500087Y-89696479D01*
X141502848Y-89692919D01*
X141504839Y-89688872D01*
X141506715Y-89685870D01*
X141554687Y-89648387D01*
X141615529Y-89650509D01*
G37*
G04 #@! TD.AperFunction*
G04 #@! TA.AperFunction,Conductor*
G36*
X158011018Y-85023483D02*
G01*
X158045919Y-85038586D01*
X158050331Y-85039508D01*
X158050335Y-85039509D01*
X158156684Y-85061726D01*
X158244880Y-85080151D01*
X158251539Y-85080500D01*
X159731000Y-85080500D01*
X159788208Y-85101322D01*
X159818648Y-85154045D01*
X159820000Y-85169500D01*
X159820000Y-85530500D01*
X159799178Y-85587708D01*
X159746455Y-85618148D01*
X159731000Y-85619500D01*
X158299200Y-85619500D01*
X158209864Y-85628574D01*
X158152271Y-85634424D01*
X158152269Y-85634424D01*
X158147784Y-85634880D01*
X158102529Y-85649062D01*
X157958132Y-85694313D01*
X157958130Y-85694314D01*
X157953828Y-85695662D01*
X157867730Y-85743387D01*
X157803283Y-85779111D01*
X157776056Y-85794203D01*
X157621729Y-85926477D01*
X157618970Y-85930034D01*
X157618969Y-85930035D01*
X157579915Y-85980383D01*
X157497152Y-86087081D01*
X157407413Y-86269455D01*
X157405645Y-86268585D01*
X157370768Y-86309569D01*
X157330143Y-86321123D01*
X157312792Y-86321774D01*
X157305245Y-86325016D01*
X157305242Y-86325017D01*
X157301190Y-86326758D01*
X157282355Y-86332480D01*
X157278026Y-86333286D01*
X157278024Y-86333287D01*
X157269947Y-86334791D01*
X157262954Y-86339102D01*
X157262953Y-86339102D01*
X157246649Y-86349152D01*
X157235081Y-86355161D01*
X157209937Y-86365964D01*
X157205051Y-86369978D01*
X157199862Y-86375167D01*
X157183632Y-86387996D01*
X157181647Y-86389220D01*
X157174652Y-86393532D01*
X157169678Y-86400073D01*
X157156580Y-86417298D01*
X157148669Y-86426360D01*
X156825648Y-86749381D01*
X156822111Y-86752434D01*
X156817731Y-86754575D01*
X156812142Y-86760600D01*
X156783979Y-86790960D01*
X156781663Y-86793366D01*
X156767752Y-86807277D01*
X156765439Y-86810648D01*
X156764629Y-86811623D01*
X156761430Y-86815267D01*
X156759459Y-86817392D01*
X156741599Y-86836646D01*
X156736922Y-86848370D01*
X156727651Y-86865733D01*
X156720508Y-86876146D01*
X156718611Y-86884140D01*
X156714189Y-86902773D01*
X156710258Y-86915202D01*
X156702444Y-86934787D01*
X156702443Y-86934793D01*
X156700117Y-86940622D01*
X156699500Y-86946915D01*
X156699500Y-86954255D01*
X156697095Y-86974805D01*
X156694660Y-86985066D01*
X156695768Y-86993208D01*
X156695768Y-86993210D01*
X156698687Y-87014656D01*
X156699500Y-87026658D01*
X156699500Y-88338663D01*
X156678678Y-88395871D01*
X156673433Y-88401595D01*
X156091971Y-88983058D01*
X155652433Y-89422596D01*
X155597257Y-89448325D01*
X155538452Y-89432569D01*
X155503533Y-89382699D01*
X155500500Y-89359664D01*
X155500500Y-86926330D01*
X155521322Y-86869122D01*
X155526567Y-86863397D01*
X156584849Y-85805115D01*
X156640025Y-85779387D01*
X156647782Y-85779048D01*
X156997521Y-85779048D01*
X157002185Y-85779391D01*
X157006794Y-85780973D01*
X157015003Y-85780665D01*
X157015004Y-85780665D01*
X157056400Y-85779111D01*
X157059738Y-85779048D01*
X157079400Y-85779048D01*
X157083425Y-85778299D01*
X157084700Y-85778181D01*
X157089529Y-85777868D01*
X157118660Y-85776774D01*
X157126207Y-85773532D01*
X157126210Y-85773531D01*
X157130262Y-85771790D01*
X157149097Y-85766068D01*
X157153426Y-85765262D01*
X157153428Y-85765261D01*
X157161505Y-85763757D01*
X157184804Y-85749396D01*
X157196371Y-85743387D01*
X157215738Y-85735066D01*
X157221515Y-85732584D01*
X157226401Y-85728570D01*
X157231590Y-85723381D01*
X157247820Y-85710552D01*
X157249805Y-85709328D01*
X157249806Y-85709328D01*
X157256800Y-85705016D01*
X157274872Y-85681250D01*
X157282783Y-85672188D01*
X157912740Y-85042231D01*
X157967916Y-85016503D01*
X158011018Y-85023483D01*
G37*
G04 #@! TD.AperFunction*
G04 #@! TA.AperFunction,Conductor*
G36*
X157449315Y-87079665D02*
G01*
X157473907Y-87105670D01*
X157553226Y-87233599D01*
X157692881Y-87381280D01*
X157859379Y-87497863D01*
X158045919Y-87578586D01*
X158050331Y-87579508D01*
X158050335Y-87579509D01*
X158129256Y-87595996D01*
X158244880Y-87620151D01*
X158251539Y-87620500D01*
X159731000Y-87620500D01*
X159788208Y-87641322D01*
X159818648Y-87694045D01*
X159820000Y-87709500D01*
X159820000Y-88070500D01*
X159799178Y-88127708D01*
X159746455Y-88158148D01*
X159731000Y-88159500D01*
X158299200Y-88159500D01*
X158209864Y-88168574D01*
X158152271Y-88174424D01*
X158152269Y-88174424D01*
X158147784Y-88174880D01*
X158084053Y-88194852D01*
X157958132Y-88234313D01*
X157958130Y-88234314D01*
X157953828Y-88235662D01*
X157911350Y-88259208D01*
X157790864Y-88325995D01*
X157776056Y-88334203D01*
X157621729Y-88466477D01*
X157618970Y-88470034D01*
X157618969Y-88470035D01*
X157560243Y-88545744D01*
X157497152Y-88627081D01*
X157495163Y-88631122D01*
X157495163Y-88631123D01*
X157425916Y-88771852D01*
X157407413Y-88809455D01*
X157405073Y-88808304D01*
X157371406Y-88847877D01*
X157327431Y-88859500D01*
X157312052Y-88859500D01*
X157308027Y-88860249D01*
X157306752Y-88860367D01*
X157301918Y-88860680D01*
X157294403Y-88860963D01*
X157281890Y-88861432D01*
X157223942Y-88842770D01*
X157191547Y-88791225D01*
X157199864Y-88730916D01*
X157213304Y-88711969D01*
X157216020Y-88709041D01*
X157218337Y-88706634D01*
X157232248Y-88692723D01*
X157234561Y-88689352D01*
X157235371Y-88688377D01*
X157238570Y-88684733D01*
X157252814Y-88669377D01*
X157258401Y-88663354D01*
X157263079Y-88651629D01*
X157272350Y-88634267D01*
X157279493Y-88623854D01*
X157281389Y-88615863D01*
X157281391Y-88615859D01*
X157285813Y-88597222D01*
X157289741Y-88584800D01*
X157299883Y-88559378D01*
X157300500Y-88553085D01*
X157300500Y-88545744D01*
X157302905Y-88525194D01*
X157305340Y-88514934D01*
X157301313Y-88485344D01*
X157300500Y-88473342D01*
X157300500Y-87161337D01*
X157321322Y-87104129D01*
X157326567Y-87098404D01*
X157335334Y-87089637D01*
X157390510Y-87063909D01*
X157449315Y-87079665D01*
G37*
G04 #@! TD.AperFunction*
G04 #@! TA.AperFunction,Conductor*
G36*
X142855871Y-76781322D02*
G01*
X142861596Y-76786567D01*
X143073433Y-76998404D01*
X143099161Y-77053580D01*
X143099500Y-77061337D01*
X143099500Y-87359663D01*
X143078678Y-87416871D01*
X143025955Y-87447311D01*
X142966000Y-87436739D01*
X142947567Y-87422596D01*
X141970619Y-86445648D01*
X141967566Y-86442111D01*
X141965425Y-86437731D01*
X141929039Y-86403978D01*
X141926634Y-86401663D01*
X141912723Y-86387752D01*
X141909352Y-86385439D01*
X141908377Y-86384629D01*
X141904733Y-86381430D01*
X141889376Y-86367185D01*
X141883354Y-86361599D01*
X141871626Y-86356920D01*
X141854267Y-86347651D01*
X141843854Y-86340508D01*
X141834485Y-86338285D01*
X141817227Y-86334189D01*
X141804798Y-86330258D01*
X141785213Y-86322444D01*
X141785207Y-86322443D01*
X141779378Y-86320117D01*
X141773085Y-86319500D01*
X141765745Y-86319500D01*
X141745195Y-86317095D01*
X141744627Y-86316960D01*
X141734934Y-86314660D01*
X141726792Y-86315768D01*
X141726790Y-86315768D01*
X141705344Y-86318687D01*
X141693342Y-86319500D01*
X141667607Y-86319500D01*
X141610399Y-86298678D01*
X141584081Y-86261231D01*
X141555437Y-86183378D01*
X141553881Y-86179148D01*
X141446774Y-86006401D01*
X141307119Y-85858720D01*
X141140621Y-85742137D01*
X140954081Y-85661414D01*
X140949669Y-85660492D01*
X140949665Y-85660491D01*
X140833527Y-85636229D01*
X140755120Y-85619849D01*
X140748461Y-85619500D01*
X139269000Y-85619500D01*
X139211792Y-85598678D01*
X139181352Y-85545955D01*
X139180000Y-85530500D01*
X139180000Y-85169500D01*
X139200822Y-85112292D01*
X139253545Y-85081852D01*
X139269000Y-85080500D01*
X140700800Y-85080500D01*
X140790136Y-85071426D01*
X140847729Y-85065576D01*
X140847731Y-85065576D01*
X140852216Y-85065120D01*
X140994979Y-85020381D01*
X141041868Y-85005687D01*
X141041870Y-85005686D01*
X141046172Y-85004338D01*
X141223944Y-84905797D01*
X141378271Y-84773523D01*
X141424481Y-84713950D01*
X141444474Y-84688175D01*
X141502848Y-84612919D01*
X141521442Y-84575132D01*
X141577817Y-84460561D01*
X141592587Y-84430545D01*
X141596764Y-84414512D01*
X141642686Y-84238213D01*
X141643822Y-84233852D01*
X141645596Y-84200000D01*
X141654223Y-84035381D01*
X141654223Y-84035379D01*
X141654459Y-84030874D01*
X141624065Y-83829903D01*
X141607375Y-83784539D01*
X141582681Y-83717424D01*
X141553881Y-83639148D01*
X141446774Y-83466401D01*
X141307119Y-83318720D01*
X141140621Y-83202137D01*
X140954081Y-83121414D01*
X140949669Y-83120492D01*
X140949665Y-83120491D01*
X140833527Y-83096229D01*
X140755120Y-83079849D01*
X140748461Y-83079500D01*
X139269000Y-83079500D01*
X139211792Y-83058678D01*
X139181352Y-83005955D01*
X139180000Y-82990500D01*
X139180000Y-82629500D01*
X139200822Y-82572292D01*
X139253545Y-82541852D01*
X139269000Y-82540500D01*
X140700800Y-82540500D01*
X140790136Y-82531426D01*
X140847729Y-82525576D01*
X140847731Y-82525576D01*
X140852216Y-82525120D01*
X140981669Y-82484552D01*
X141041868Y-82465687D01*
X141041870Y-82465686D01*
X141046172Y-82464338D01*
X141223944Y-82365797D01*
X141378271Y-82233523D01*
X141502848Y-82072919D01*
X141592587Y-81890545D01*
X141643822Y-81693852D01*
X141649310Y-81589126D01*
X141654223Y-81495381D01*
X141654223Y-81495379D01*
X141654459Y-81490874D01*
X141624065Y-81289903D01*
X141614966Y-81265171D01*
X141561068Y-81118683D01*
X141553881Y-81099148D01*
X141446774Y-80926401D01*
X141399959Y-80876895D01*
X141310216Y-80781995D01*
X141307119Y-80778720D01*
X141140621Y-80662137D01*
X140954081Y-80581414D01*
X140949669Y-80580492D01*
X140949665Y-80580491D01*
X140833527Y-80556229D01*
X140755120Y-80539849D01*
X140748461Y-80539500D01*
X139269000Y-80539500D01*
X139211792Y-80518678D01*
X139181352Y-80465955D01*
X139180000Y-80450500D01*
X139180000Y-80089500D01*
X139200822Y-80032292D01*
X139253545Y-80001852D01*
X139269000Y-80000500D01*
X140700800Y-80000500D01*
X140790136Y-79991426D01*
X140847729Y-79985576D01*
X140847731Y-79985576D01*
X140852216Y-79985120D01*
X140964712Y-79949866D01*
X141041868Y-79925687D01*
X141041870Y-79925686D01*
X141046172Y-79924338D01*
X141159564Y-79861484D01*
X141219997Y-79827985D01*
X141219998Y-79827984D01*
X141223944Y-79825797D01*
X141378271Y-79693523D01*
X141416846Y-79643793D01*
X141450379Y-79600562D01*
X141502848Y-79532919D01*
X141592587Y-79350545D01*
X141616654Y-79258153D01*
X141642686Y-79158213D01*
X141643822Y-79153852D01*
X141646731Y-79098350D01*
X141654223Y-78955381D01*
X141654223Y-78955379D01*
X141654459Y-78950874D01*
X141624065Y-78749903D01*
X141621316Y-78742430D01*
X141580839Y-78632418D01*
X141553881Y-78559148D01*
X141446774Y-78386401D01*
X141307119Y-78238720D01*
X141140621Y-78122137D01*
X140954081Y-78041414D01*
X140949669Y-78040492D01*
X140949665Y-78040491D01*
X140833527Y-78016229D01*
X140755120Y-77999849D01*
X140748461Y-77999500D01*
X139269000Y-77999500D01*
X139211792Y-77978678D01*
X139181352Y-77925955D01*
X139180000Y-77910500D01*
X139180000Y-77549500D01*
X139200822Y-77492292D01*
X139253545Y-77461852D01*
X139269000Y-77460500D01*
X140700800Y-77460500D01*
X140790136Y-77451426D01*
X140847729Y-77445576D01*
X140847731Y-77445576D01*
X140852216Y-77445120D01*
X140981669Y-77404552D01*
X141041868Y-77385687D01*
X141041870Y-77385686D01*
X141046172Y-77384338D01*
X141223944Y-77285797D01*
X141378271Y-77153523D01*
X141389311Y-77139291D01*
X141500088Y-76996477D01*
X141502848Y-76992919D01*
X141516452Y-76965273D01*
X141592587Y-76810545D01*
X141594927Y-76811696D01*
X141628594Y-76772123D01*
X141672569Y-76760500D01*
X142798663Y-76760500D01*
X142855871Y-76781322D01*
G37*
G04 #@! TD.AperFunction*
G04 #@! TA.AperFunction,Conductor*
G36*
X141649440Y-71881550D02*
G01*
X143473433Y-73705543D01*
X143499161Y-73760719D01*
X143499500Y-73768476D01*
X143499500Y-76359663D01*
X143478678Y-76416871D01*
X143425955Y-76447311D01*
X143366000Y-76436739D01*
X143347567Y-76422596D01*
X143210619Y-76285648D01*
X143207566Y-76282111D01*
X143205425Y-76277731D01*
X143169039Y-76243978D01*
X143166634Y-76241663D01*
X143152723Y-76227752D01*
X143149352Y-76225439D01*
X143148377Y-76224629D01*
X143144733Y-76221430D01*
X143129376Y-76207185D01*
X143123354Y-76201599D01*
X143111626Y-76196920D01*
X143094267Y-76187651D01*
X143083854Y-76180508D01*
X143074485Y-76178285D01*
X143057227Y-76174189D01*
X143044798Y-76170258D01*
X143025213Y-76162444D01*
X143025207Y-76162443D01*
X143019378Y-76160117D01*
X143013085Y-76159500D01*
X143005745Y-76159500D01*
X142985195Y-76157095D01*
X142984627Y-76156960D01*
X142974934Y-76154660D01*
X142966792Y-76155768D01*
X142966790Y-76155768D01*
X142945344Y-76158687D01*
X142933342Y-76159500D01*
X141667607Y-76159500D01*
X141610399Y-76138678D01*
X141584081Y-76101231D01*
X141557257Y-76028323D01*
X141553881Y-76019148D01*
X141446774Y-75846401D01*
X141307119Y-75698720D01*
X141140621Y-75582137D01*
X140954081Y-75501414D01*
X140949669Y-75500492D01*
X140949665Y-75500491D01*
X140833527Y-75476229D01*
X140755120Y-75459849D01*
X140748461Y-75459500D01*
X139269000Y-75459500D01*
X139211792Y-75438678D01*
X139181352Y-75385955D01*
X139180000Y-75370500D01*
X139180000Y-75009500D01*
X139200822Y-74952292D01*
X139253545Y-74921852D01*
X139269000Y-74920500D01*
X140700800Y-74920500D01*
X140790136Y-74911426D01*
X140847729Y-74905576D01*
X140847731Y-74905576D01*
X140852216Y-74905120D01*
X140981669Y-74864552D01*
X141041868Y-74845687D01*
X141041870Y-74845686D01*
X141046172Y-74844338D01*
X141223944Y-74745797D01*
X141378271Y-74613523D01*
X141417662Y-74562741D01*
X141500088Y-74456477D01*
X141502848Y-74452919D01*
X141592587Y-74270545D01*
X141604493Y-74224840D01*
X141642686Y-74078213D01*
X141643822Y-74073852D01*
X141644058Y-74069352D01*
X141654223Y-73875381D01*
X141654223Y-73875379D01*
X141654459Y-73870874D01*
X141624065Y-73669903D01*
X141553881Y-73479148D01*
X141446774Y-73306401D01*
X141307119Y-73158720D01*
X141140621Y-73042137D01*
X140954081Y-72961414D01*
X140949669Y-72960492D01*
X140949665Y-72960491D01*
X140833527Y-72936229D01*
X140755120Y-72919849D01*
X140748461Y-72919500D01*
X139269000Y-72919500D01*
X139211792Y-72898678D01*
X139181352Y-72845955D01*
X139180000Y-72830500D01*
X139180000Y-72469500D01*
X139200822Y-72412292D01*
X139253545Y-72381852D01*
X139269000Y-72380500D01*
X140700800Y-72380500D01*
X140790136Y-72371426D01*
X140847729Y-72365576D01*
X140847731Y-72365576D01*
X140852216Y-72365120D01*
X140981669Y-72324552D01*
X141041868Y-72305687D01*
X141041870Y-72305686D01*
X141046172Y-72304338D01*
X141174037Y-72233461D01*
X141219997Y-72207985D01*
X141219998Y-72207984D01*
X141223944Y-72205797D01*
X141378271Y-72073523D01*
X141502848Y-71912919D01*
X141506650Y-71905192D01*
X141550586Y-71863054D01*
X141611332Y-71859015D01*
X141649440Y-71881550D01*
G37*
G04 #@! TD.AperFunction*
G04 #@! TA.AperFunction,Conductor*
G36*
X145024437Y-65200822D02*
G01*
X145054877Y-65253545D01*
X145044305Y-65313500D01*
X144997669Y-65352633D01*
X144987250Y-65355719D01*
X144927436Y-65369528D01*
X144918111Y-65372812D01*
X144765480Y-65446597D01*
X144757114Y-65451866D01*
X144624632Y-65557624D01*
X144617624Y-65564632D01*
X144511866Y-65697114D01*
X144506597Y-65705480D01*
X144432812Y-65858111D01*
X144429528Y-65867436D01*
X144391122Y-66033790D01*
X144390067Y-66041156D01*
X144390000Y-66043492D01*
X144390000Y-66264306D01*
X144394376Y-66276329D01*
X144400734Y-66280000D01*
X145054306Y-66280000D01*
X145066329Y-66275624D01*
X145077082Y-66256999D01*
X145123719Y-66217867D01*
X145154158Y-66212500D01*
X146894306Y-66212500D01*
X146906329Y-66208124D01*
X146910000Y-66201766D01*
X146910000Y-65967672D01*
X146909755Y-65963008D01*
X146895670Y-65828994D01*
X146893739Y-65819909D01*
X146838160Y-65648857D01*
X146834386Y-65640380D01*
X146744459Y-65484621D01*
X146739006Y-65477114D01*
X146618654Y-65343451D01*
X146609426Y-65335143D01*
X146580842Y-65281391D01*
X146593496Y-65221841D01*
X146641468Y-65184357D01*
X146668975Y-65180000D01*
X152351025Y-65180000D01*
X152408233Y-65200822D01*
X152438673Y-65253545D01*
X152428101Y-65313500D01*
X152410574Y-65335143D01*
X152401346Y-65343451D01*
X152280994Y-65477114D01*
X152275541Y-65484621D01*
X152185614Y-65640380D01*
X152181840Y-65648857D01*
X152126261Y-65819909D01*
X152124330Y-65828994D01*
X152110245Y-65963008D01*
X152110000Y-65967672D01*
X152110000Y-66196806D01*
X152114376Y-66208829D01*
X152120734Y-66212500D01*
X153868825Y-66212500D01*
X153926033Y-66233322D01*
X153952457Y-66271059D01*
X153954375Y-66276329D01*
X153960734Y-66280000D01*
X154614305Y-66280000D01*
X154626328Y-66275624D01*
X154629999Y-66269266D01*
X154629999Y-66043491D01*
X154629932Y-66041153D01*
X154628879Y-66033796D01*
X154590472Y-65867436D01*
X154587188Y-65858111D01*
X154513403Y-65705480D01*
X154508134Y-65697114D01*
X154402376Y-65564632D01*
X154395368Y-65557624D01*
X154262886Y-65451866D01*
X154254520Y-65446597D01*
X154101889Y-65372812D01*
X154092564Y-65369528D01*
X154032750Y-65355719D01*
X153981692Y-65322561D01*
X153963893Y-65264342D01*
X153987681Y-65208302D01*
X154041925Y-65180663D01*
X154052771Y-65180000D01*
X157996570Y-65180000D01*
X158053778Y-65200822D01*
X158084218Y-65253545D01*
X158073646Y-65313500D01*
X158023184Y-65353927D01*
X157958135Y-65374312D01*
X157958133Y-65374313D01*
X157953828Y-65375662D01*
X157776056Y-65474203D01*
X157621729Y-65606477D01*
X157618970Y-65610034D01*
X157618969Y-65610035D01*
X157603848Y-65629529D01*
X157497152Y-65767081D01*
X157407413Y-65949455D01*
X157406278Y-65953812D01*
X157406277Y-65953815D01*
X157382918Y-66043491D01*
X157356178Y-66146148D01*
X157355942Y-66150646D01*
X157355942Y-66150648D01*
X157349164Y-66280000D01*
X157345541Y-66349126D01*
X157375935Y-66550097D01*
X157377490Y-66554324D01*
X157377491Y-66554327D01*
X157400819Y-66617731D01*
X157446119Y-66740852D01*
X157553226Y-66913599D01*
X157692881Y-67061280D01*
X157859379Y-67177863D01*
X158045919Y-67258586D01*
X158050331Y-67259508D01*
X158050335Y-67259509D01*
X158163038Y-67283053D01*
X158244880Y-67300151D01*
X158251539Y-67300500D01*
X159731000Y-67300500D01*
X159788208Y-67321322D01*
X159818648Y-67374045D01*
X159820000Y-67389500D01*
X159820000Y-67750500D01*
X159799178Y-67807708D01*
X159746455Y-67838148D01*
X159731000Y-67839500D01*
X158299200Y-67839500D01*
X158209864Y-67848574D01*
X158152271Y-67854424D01*
X158152269Y-67854424D01*
X158147784Y-67854880D01*
X158066059Y-67880491D01*
X157958132Y-67914313D01*
X157958130Y-67914314D01*
X157953828Y-67915662D01*
X157776056Y-68014203D01*
X157621729Y-68146477D01*
X157618970Y-68150034D01*
X157618969Y-68150035D01*
X157577576Y-68203399D01*
X157497152Y-68307081D01*
X157495163Y-68311122D01*
X157495163Y-68311123D01*
X157489530Y-68322570D01*
X157407413Y-68489455D01*
X157406278Y-68493812D01*
X157406277Y-68493815D01*
X157375467Y-68612095D01*
X157356178Y-68686148D01*
X157355942Y-68690646D01*
X157355942Y-68690648D01*
X157347895Y-68844215D01*
X157345541Y-68889126D01*
X157375935Y-69090097D01*
X157377490Y-69094324D01*
X157377491Y-69094327D01*
X157411027Y-69185474D01*
X157446119Y-69280852D01*
X157553226Y-69453599D01*
X157692881Y-69601280D01*
X157859379Y-69717863D01*
X158045919Y-69798586D01*
X158050331Y-69799508D01*
X158050335Y-69799509D01*
X158163038Y-69823053D01*
X158244880Y-69840151D01*
X158251539Y-69840500D01*
X159731000Y-69840500D01*
X159788208Y-69861322D01*
X159818648Y-69914045D01*
X159820000Y-69929500D01*
X159820000Y-70191000D01*
X159799178Y-70248208D01*
X159746455Y-70278648D01*
X159731000Y-70280000D01*
X158565694Y-70280000D01*
X158553671Y-70284376D01*
X158550000Y-70290734D01*
X158550000Y-71214306D01*
X158554376Y-71226329D01*
X158560734Y-71230000D01*
X159731000Y-71230000D01*
X159788208Y-71250822D01*
X159818648Y-71303545D01*
X159820000Y-71319000D01*
X159820000Y-71441000D01*
X159799178Y-71498208D01*
X159746455Y-71528648D01*
X159731000Y-71530000D01*
X158565694Y-71530000D01*
X158553671Y-71534376D01*
X158550000Y-71540734D01*
X158550000Y-72464306D01*
X158554376Y-72476329D01*
X158560734Y-72480000D01*
X159731000Y-72480000D01*
X159788208Y-72500822D01*
X159818648Y-72553545D01*
X159820000Y-72569000D01*
X159820000Y-72830500D01*
X159799178Y-72887708D01*
X159746455Y-72918148D01*
X159731000Y-72919500D01*
X158299200Y-72919500D01*
X158209864Y-72928574D01*
X158152271Y-72934424D01*
X158152269Y-72934424D01*
X158147784Y-72934880D01*
X158066059Y-72960491D01*
X157958132Y-72994313D01*
X157958130Y-72994314D01*
X157953828Y-72995662D01*
X157776056Y-73094203D01*
X157621729Y-73226477D01*
X157618970Y-73230034D01*
X157618969Y-73230035D01*
X157583350Y-73275955D01*
X157497152Y-73387081D01*
X157407413Y-73569455D01*
X157406278Y-73573812D01*
X157406277Y-73573815D01*
X157369679Y-73714316D01*
X157356178Y-73766148D01*
X157355942Y-73770646D01*
X157355942Y-73770648D01*
X157347412Y-73933430D01*
X157345541Y-73969126D01*
X157375935Y-74170097D01*
X157446119Y-74360852D01*
X157553226Y-74533599D01*
X157692881Y-74681280D01*
X157859379Y-74797863D01*
X158045919Y-74878586D01*
X158050331Y-74879508D01*
X158050335Y-74879509D01*
X158163038Y-74903053D01*
X158244880Y-74920151D01*
X158251539Y-74920500D01*
X159731000Y-74920500D01*
X159788208Y-74941322D01*
X159818648Y-74994045D01*
X159820000Y-75009500D01*
X159820000Y-75370500D01*
X159799178Y-75427708D01*
X159746455Y-75458148D01*
X159731000Y-75459500D01*
X158299200Y-75459500D01*
X158147784Y-75474880D01*
X158064281Y-75501048D01*
X158003467Y-75498287D01*
X157974736Y-75479054D01*
X155969153Y-73473471D01*
X155943425Y-73418295D01*
X155956187Y-73365741D01*
X155958401Y-73363354D01*
X155963080Y-73351626D01*
X155972349Y-73334267D01*
X155979492Y-73323854D01*
X155984411Y-73303126D01*
X155985811Y-73297227D01*
X155989742Y-73284798D01*
X155997556Y-73265213D01*
X155997557Y-73265207D01*
X155999883Y-73259378D01*
X156000500Y-73253085D01*
X156000500Y-73245745D01*
X156002905Y-73225195D01*
X156003442Y-73222931D01*
X156005340Y-73214934D01*
X156001313Y-73185344D01*
X156000500Y-73173342D01*
X156000500Y-71538808D01*
X157256868Y-71538808D01*
X157257010Y-71539804D01*
X157304207Y-71735641D01*
X157306949Y-71743605D01*
X157390323Y-71926975D01*
X157394528Y-71934287D01*
X157511066Y-72098576D01*
X157516577Y-72104962D01*
X157662085Y-72244255D01*
X157668696Y-72249476D01*
X157837914Y-72358739D01*
X157845413Y-72362626D01*
X158032234Y-72437917D01*
X158040316Y-72440311D01*
X158237535Y-72478825D01*
X158246329Y-72475624D01*
X158250000Y-72469266D01*
X158250000Y-71545694D01*
X158245624Y-71533671D01*
X158239266Y-71530000D01*
X157271450Y-71530000D01*
X157259427Y-71534376D01*
X157256868Y-71538808D01*
X156000500Y-71538808D01*
X156000500Y-71214469D01*
X157262489Y-71214469D01*
X157265094Y-71226994D01*
X157268907Y-71230000D01*
X158234306Y-71230000D01*
X158246329Y-71225624D01*
X158250000Y-71219266D01*
X158250000Y-70300231D01*
X158245624Y-70288208D01*
X158240788Y-70285416D01*
X158145261Y-70294530D01*
X158136989Y-70296123D01*
X157943699Y-70352827D01*
X157935875Y-70355957D01*
X157756794Y-70448189D01*
X157749701Y-70452744D01*
X157591305Y-70577166D01*
X157585189Y-70582990D01*
X157453175Y-70735122D01*
X157448277Y-70741990D01*
X157347415Y-70916335D01*
X157343899Y-70924013D01*
X157277824Y-71114290D01*
X157275826Y-71122487D01*
X157262489Y-71214469D01*
X156000500Y-71214469D01*
X156000500Y-68753931D01*
X156000843Y-68749267D01*
X156002425Y-68744658D01*
X156000563Y-68695052D01*
X156000500Y-68691714D01*
X156000500Y-68672052D01*
X155999751Y-68668027D01*
X155999633Y-68666752D01*
X155999319Y-68661911D01*
X155999282Y-68660904D01*
X155998226Y-68632792D01*
X155994984Y-68625245D01*
X155994983Y-68625242D01*
X155993242Y-68621190D01*
X155987520Y-68602355D01*
X155986714Y-68598026D01*
X155986713Y-68598024D01*
X155985209Y-68589947D01*
X155970848Y-68566648D01*
X155964839Y-68555081D01*
X155956518Y-68535714D01*
X155954036Y-68529937D01*
X155950022Y-68525051D01*
X155944833Y-68519862D01*
X155932004Y-68503632D01*
X155930780Y-68501647D01*
X155930780Y-68501646D01*
X155926468Y-68494652D01*
X155919241Y-68489156D01*
X155902702Y-68476580D01*
X155893640Y-68468669D01*
X155150619Y-67725648D01*
X155147566Y-67722111D01*
X155145425Y-67717731D01*
X155109039Y-67683978D01*
X155106634Y-67681663D01*
X155092723Y-67667752D01*
X155089352Y-67665439D01*
X155088377Y-67664629D01*
X155084733Y-67661430D01*
X155069376Y-67647185D01*
X155063354Y-67641599D01*
X155051626Y-67636920D01*
X155034267Y-67627651D01*
X155023854Y-67620508D01*
X155014485Y-67618285D01*
X154997227Y-67614189D01*
X154984798Y-67610258D01*
X154965213Y-67602444D01*
X154965207Y-67602443D01*
X154959378Y-67600117D01*
X154953085Y-67599500D01*
X154945745Y-67599500D01*
X154925195Y-67597095D01*
X154924627Y-67596960D01*
X154914934Y-67594660D01*
X154906792Y-67595768D01*
X154906790Y-67595768D01*
X154885344Y-67598687D01*
X154873342Y-67599500D01*
X154258154Y-67599500D01*
X154200946Y-67578678D01*
X154170506Y-67525955D01*
X154181078Y-67466000D01*
X154219418Y-67430372D01*
X154254520Y-67413403D01*
X154262886Y-67408134D01*
X154395368Y-67302376D01*
X154402376Y-67295368D01*
X154508134Y-67162886D01*
X154513403Y-67154520D01*
X154587188Y-67001889D01*
X154590472Y-66992564D01*
X154628878Y-66826210D01*
X154629933Y-66818844D01*
X154630000Y-66816508D01*
X154630000Y-66595694D01*
X154625624Y-66583671D01*
X154619266Y-66580000D01*
X153071175Y-66580000D01*
X153013967Y-66559178D01*
X152987543Y-66521441D01*
X152985625Y-66516171D01*
X152979266Y-66512500D01*
X152125694Y-66512500D01*
X152113671Y-66516876D01*
X152110000Y-66523234D01*
X152110000Y-66757328D01*
X152110245Y-66761992D01*
X152124330Y-66896006D01*
X152126261Y-66905091D01*
X152181840Y-67076143D01*
X152185614Y-67084620D01*
X152224656Y-67152243D01*
X152235228Y-67212198D01*
X152204788Y-67264921D01*
X152147580Y-67285743D01*
X152090372Y-67264921D01*
X152084647Y-67259676D01*
X151450619Y-66625648D01*
X151447566Y-66622111D01*
X151445425Y-66617731D01*
X151409039Y-66583978D01*
X151406634Y-66581663D01*
X151392723Y-66567752D01*
X151389352Y-66565439D01*
X151388377Y-66564629D01*
X151384733Y-66561430D01*
X151369376Y-66547185D01*
X151363354Y-66541599D01*
X151351626Y-66536920D01*
X151334267Y-66527651D01*
X151323854Y-66520508D01*
X151308549Y-66516876D01*
X151297227Y-66514189D01*
X151284798Y-66510258D01*
X151265213Y-66502444D01*
X151265207Y-66502443D01*
X151259378Y-66500117D01*
X151253085Y-66499500D01*
X151245745Y-66499500D01*
X151225195Y-66497095D01*
X151224627Y-66496960D01*
X151223384Y-66496665D01*
X155044994Y-66496665D01*
X155045358Y-66500999D01*
X155057550Y-66646185D01*
X155060592Y-66682414D01*
X155111971Y-66861595D01*
X155197176Y-67027385D01*
X155199882Y-67030799D01*
X155304572Y-67162886D01*
X155312959Y-67173468D01*
X155358467Y-67212198D01*
X155448553Y-67288867D01*
X155454912Y-67294279D01*
X155498034Y-67318379D01*
X155613829Y-67383095D01*
X155613834Y-67383097D01*
X155617627Y-67385217D01*
X155621758Y-67386559D01*
X155621762Y-67386561D01*
X155790767Y-67441474D01*
X155790769Y-67441474D01*
X155794907Y-67442819D01*
X155979998Y-67464890D01*
X155984327Y-67464557D01*
X155984331Y-67464557D01*
X156161517Y-67450923D01*
X156161522Y-67450922D01*
X156165851Y-67450589D01*
X156248620Y-67427480D01*
X156341194Y-67401633D01*
X156341197Y-67401632D01*
X156345387Y-67400462D01*
X156511768Y-67316417D01*
X156603751Y-67244552D01*
X156655223Y-67204338D01*
X156655227Y-67204335D01*
X156658655Y-67201656D01*
X156661502Y-67198358D01*
X156777612Y-67063843D01*
X156777614Y-67063840D01*
X156780454Y-67060550D01*
X156782600Y-67056772D01*
X156782603Y-67056768D01*
X156863934Y-66913599D01*
X156872526Y-66898474D01*
X156883505Y-66865470D01*
X156929989Y-66725736D01*
X156929990Y-66725731D01*
X156931364Y-66721601D01*
X156946461Y-66602102D01*
X156954416Y-66539132D01*
X156954416Y-66539127D01*
X156954727Y-66536668D01*
X156955099Y-66510000D01*
X156954293Y-66501774D01*
X156947820Y-66435763D01*
X156936909Y-66324487D01*
X156883033Y-66146040D01*
X156880989Y-66142196D01*
X156880987Y-66142191D01*
X156827265Y-66041156D01*
X156795522Y-65981456D01*
X156772979Y-65953815D01*
X156695769Y-65859148D01*
X156677710Y-65837005D01*
X156670382Y-65830942D01*
X156537442Y-65720964D01*
X156537441Y-65720963D01*
X156534085Y-65718187D01*
X156370116Y-65629529D01*
X156360212Y-65626463D01*
X156286177Y-65603546D01*
X156192049Y-65574409D01*
X156187720Y-65573954D01*
X156187715Y-65573953D01*
X156011001Y-65555379D01*
X156010997Y-65555379D01*
X156006668Y-65554924D01*
X155902420Y-65564411D01*
X155825369Y-65571423D01*
X155825366Y-65571424D01*
X155821032Y-65571818D01*
X155642214Y-65624448D01*
X155477023Y-65710807D01*
X155331752Y-65827608D01*
X155211935Y-65970401D01*
X155209836Y-65974219D01*
X155173039Y-66041153D01*
X155122135Y-66133746D01*
X155120820Y-66137892D01*
X155120819Y-66137894D01*
X155067086Y-66307280D01*
X155067085Y-66307285D01*
X155065772Y-66311424D01*
X155065287Y-66315744D01*
X155065287Y-66315746D01*
X155061543Y-66349126D01*
X155044994Y-66496665D01*
X151223384Y-66496665D01*
X151214934Y-66494660D01*
X151206792Y-66495768D01*
X151206790Y-66495768D01*
X151185344Y-66498687D01*
X151173342Y-66499500D01*
X147653931Y-66499500D01*
X147649267Y-66499157D01*
X147644658Y-66497575D01*
X147636449Y-66497883D01*
X147636448Y-66497883D01*
X147595051Y-66499437D01*
X147591713Y-66499500D01*
X147572052Y-66499500D01*
X147568027Y-66500249D01*
X147566752Y-66500367D01*
X147561923Y-66500680D01*
X147532791Y-66501774D01*
X147525243Y-66505017D01*
X147525239Y-66505018D01*
X147521195Y-66506756D01*
X147502352Y-66512481D01*
X147489947Y-66514791D01*
X147479159Y-66521441D01*
X147466649Y-66529152D01*
X147455081Y-66535161D01*
X147429937Y-66545964D01*
X147425051Y-66549978D01*
X147419862Y-66555167D01*
X147403632Y-66567996D01*
X147401647Y-66569220D01*
X147394652Y-66573532D01*
X147389678Y-66580073D01*
X147376580Y-66597298D01*
X147368669Y-66606360D01*
X147051852Y-66923177D01*
X146996676Y-66948905D01*
X146937871Y-66933149D01*
X146902952Y-66883279D01*
X146900406Y-66850942D01*
X146909756Y-66761975D01*
X146910000Y-66757328D01*
X146910000Y-66528194D01*
X146905624Y-66516171D01*
X146899266Y-66512500D01*
X146045694Y-66512500D01*
X146033671Y-66516876D01*
X146022918Y-66535501D01*
X145976281Y-66574633D01*
X145945842Y-66580000D01*
X144405695Y-66580000D01*
X144393672Y-66584376D01*
X144390001Y-66590734D01*
X144390001Y-66816509D01*
X144390068Y-66818847D01*
X144391121Y-66826204D01*
X144429528Y-66992564D01*
X144432812Y-67001889D01*
X144506597Y-67154520D01*
X144511866Y-67162886D01*
X144617624Y-67295368D01*
X144624632Y-67302376D01*
X144757114Y-67408134D01*
X144765480Y-67413403D01*
X144918111Y-67487188D01*
X144927436Y-67490472D01*
X145071713Y-67523781D01*
X145122771Y-67556939D01*
X145140570Y-67615158D01*
X145116782Y-67671198D01*
X145062538Y-67698837D01*
X145051692Y-67699500D01*
X144818931Y-67699500D01*
X144814267Y-67699157D01*
X144809658Y-67697575D01*
X144801449Y-67697883D01*
X144801448Y-67697883D01*
X144760051Y-67699437D01*
X144756713Y-67699500D01*
X144737052Y-67699500D01*
X144733027Y-67700249D01*
X144731752Y-67700367D01*
X144726923Y-67700680D01*
X144697791Y-67701774D01*
X144690243Y-67705017D01*
X144690239Y-67705018D01*
X144686195Y-67706756D01*
X144667352Y-67712481D01*
X144654947Y-67714791D01*
X144637334Y-67725648D01*
X144631649Y-67729152D01*
X144620081Y-67735161D01*
X144594937Y-67745964D01*
X144590051Y-67749978D01*
X144584862Y-67755167D01*
X144568632Y-67767996D01*
X144566647Y-67769220D01*
X144559652Y-67773532D01*
X144554678Y-67780073D01*
X144541580Y-67797298D01*
X144533669Y-67806360D01*
X144125648Y-68214381D01*
X144122111Y-68217434D01*
X144117731Y-68219575D01*
X144112142Y-68225600D01*
X144083979Y-68255960D01*
X144081663Y-68258366D01*
X144067752Y-68272277D01*
X144065439Y-68275648D01*
X144064629Y-68276623D01*
X144061430Y-68280267D01*
X144056846Y-68285209D01*
X144041599Y-68301646D01*
X144036922Y-68313370D01*
X144027651Y-68330733D01*
X144020508Y-68341146D01*
X144018611Y-68349140D01*
X144014189Y-68367773D01*
X144010258Y-68380202D01*
X144002444Y-68399787D01*
X144002443Y-68399793D01*
X144000117Y-68405622D01*
X143999500Y-68411915D01*
X143999500Y-68419255D01*
X143997095Y-68439805D01*
X143994660Y-68450066D01*
X143995768Y-68458208D01*
X143995768Y-68458210D01*
X143996967Y-68467019D01*
X143998634Y-68479263D01*
X143998687Y-68479656D01*
X143999500Y-68491658D01*
X143999500Y-69059663D01*
X143978678Y-69116871D01*
X143925955Y-69147311D01*
X143866000Y-69136739D01*
X143847567Y-69122596D01*
X141566055Y-66841084D01*
X141540327Y-66785908D01*
X141549132Y-66738857D01*
X141576906Y-66682414D01*
X141592587Y-66650545D01*
X141601135Y-66617731D01*
X141632670Y-66496665D01*
X142044994Y-66496665D01*
X142045358Y-66500999D01*
X142057550Y-66646185D01*
X142060592Y-66682414D01*
X142111971Y-66861595D01*
X142197176Y-67027385D01*
X142199882Y-67030799D01*
X142304572Y-67162886D01*
X142312959Y-67173468D01*
X142358467Y-67212198D01*
X142448553Y-67288867D01*
X142454912Y-67294279D01*
X142498034Y-67318379D01*
X142613829Y-67383095D01*
X142613834Y-67383097D01*
X142617627Y-67385217D01*
X142621758Y-67386559D01*
X142621762Y-67386561D01*
X142790767Y-67441474D01*
X142790769Y-67441474D01*
X142794907Y-67442819D01*
X142979998Y-67464890D01*
X142984327Y-67464557D01*
X142984331Y-67464557D01*
X143161517Y-67450923D01*
X143161522Y-67450922D01*
X143165851Y-67450589D01*
X143248620Y-67427480D01*
X143341194Y-67401633D01*
X143341197Y-67401632D01*
X143345387Y-67400462D01*
X143511768Y-67316417D01*
X143603751Y-67244552D01*
X143655223Y-67204338D01*
X143655227Y-67204335D01*
X143658655Y-67201656D01*
X143661502Y-67198358D01*
X143777612Y-67063843D01*
X143777614Y-67063840D01*
X143780454Y-67060550D01*
X143782600Y-67056772D01*
X143782603Y-67056768D01*
X143863934Y-66913599D01*
X143872526Y-66898474D01*
X143883505Y-66865470D01*
X143929989Y-66725736D01*
X143929990Y-66725731D01*
X143931364Y-66721601D01*
X143946461Y-66602102D01*
X143954416Y-66539132D01*
X143954416Y-66539127D01*
X143954727Y-66536668D01*
X143955099Y-66510000D01*
X143954293Y-66501774D01*
X143947820Y-66435763D01*
X143936909Y-66324487D01*
X143883033Y-66146040D01*
X143880989Y-66142196D01*
X143880987Y-66142191D01*
X143827265Y-66041156D01*
X143795522Y-65981456D01*
X143772979Y-65953815D01*
X143695769Y-65859148D01*
X143677710Y-65837005D01*
X143670382Y-65830942D01*
X143537442Y-65720964D01*
X143537441Y-65720963D01*
X143534085Y-65718187D01*
X143370116Y-65629529D01*
X143360212Y-65626463D01*
X143286177Y-65603546D01*
X143192049Y-65574409D01*
X143187720Y-65573954D01*
X143187715Y-65573953D01*
X143011001Y-65555379D01*
X143010997Y-65555379D01*
X143006668Y-65554924D01*
X142902420Y-65564411D01*
X142825369Y-65571423D01*
X142825366Y-65571424D01*
X142821032Y-65571818D01*
X142642214Y-65624448D01*
X142477023Y-65710807D01*
X142331752Y-65827608D01*
X142211935Y-65970401D01*
X142209836Y-65974219D01*
X142173039Y-66041153D01*
X142122135Y-66133746D01*
X142120820Y-66137892D01*
X142120819Y-66137894D01*
X142067086Y-66307280D01*
X142067085Y-66307285D01*
X142065772Y-66311424D01*
X142065287Y-66315744D01*
X142065287Y-66315746D01*
X142061543Y-66349126D01*
X142044994Y-66496665D01*
X141632670Y-66496665D01*
X141642686Y-66458213D01*
X141643822Y-66453852D01*
X141649310Y-66349126D01*
X141654223Y-66255381D01*
X141654223Y-66255379D01*
X141654459Y-66250874D01*
X141624065Y-66049903D01*
X141621707Y-66043492D01*
X141555437Y-65863378D01*
X141553881Y-65859148D01*
X141446774Y-65686401D01*
X141307119Y-65538720D01*
X141140621Y-65422137D01*
X140975493Y-65350680D01*
X140931259Y-65308851D01*
X140924262Y-65248375D01*
X140957775Y-65197549D01*
X141010839Y-65180000D01*
X144967229Y-65180000D01*
X145024437Y-65200822D01*
G37*
G04 #@! TD.AperFunction*
G04 #@! TA.AperFunction,Conductor*
G36*
X141446411Y-69571984D02*
G01*
X141452853Y-69577824D01*
X143124393Y-71249364D01*
X143150121Y-71304540D01*
X143150460Y-71312297D01*
X143150460Y-72317762D01*
X143129638Y-72374970D01*
X143076915Y-72405410D01*
X143016960Y-72394838D01*
X142998527Y-72380695D01*
X141823480Y-71205648D01*
X141820427Y-71202111D01*
X141818286Y-71197731D01*
X141781900Y-71163978D01*
X141779495Y-71161663D01*
X141765584Y-71147752D01*
X141762213Y-71145439D01*
X141761238Y-71144629D01*
X141757594Y-71141430D01*
X141742237Y-71127185D01*
X141736215Y-71121599D01*
X141724487Y-71116920D01*
X141707128Y-71107651D01*
X141696715Y-71100508D01*
X141687346Y-71098285D01*
X141670088Y-71094189D01*
X141657658Y-71090258D01*
X141638037Y-71082430D01*
X141592618Y-71041891D01*
X141587491Y-71030498D01*
X141579506Y-71008795D01*
X141553881Y-70939148D01*
X141446774Y-70766401D01*
X141435821Y-70754818D01*
X141310216Y-70621995D01*
X141307119Y-70618720D01*
X141140621Y-70502137D01*
X140954081Y-70421414D01*
X140949669Y-70420492D01*
X140949665Y-70420491D01*
X140833565Y-70396237D01*
X140755120Y-70379849D01*
X140748461Y-70379500D01*
X139269000Y-70379500D01*
X139211792Y-70358678D01*
X139181352Y-70305955D01*
X139180000Y-70290500D01*
X139180000Y-69929500D01*
X139200822Y-69872292D01*
X139253545Y-69841852D01*
X139269000Y-69840500D01*
X140700800Y-69840500D01*
X140790136Y-69831426D01*
X140847729Y-69825576D01*
X140847731Y-69825576D01*
X140852216Y-69825120D01*
X141025300Y-69770879D01*
X141041868Y-69765687D01*
X141041870Y-69765686D01*
X141046172Y-69764338D01*
X141159564Y-69701484D01*
X141219997Y-69667985D01*
X141219998Y-69667984D01*
X141223944Y-69665797D01*
X141281384Y-69616565D01*
X141332001Y-69573182D01*
X141388989Y-69551762D01*
X141446411Y-69571984D01*
G37*
G04 #@! TD.AperFunction*
G04 #@! TA.AperFunction,NonConductor*
G36*
X141096056Y-67230525D02*
G01*
X141124787Y-67249758D01*
X143523913Y-69648884D01*
X143549641Y-69704060D01*
X143549980Y-69711817D01*
X143549980Y-70610143D01*
X143529158Y-70667351D01*
X143476435Y-70697791D01*
X143416480Y-70687219D01*
X143398047Y-70673076D01*
X141675576Y-68950605D01*
X141649848Y-68895429D01*
X141649631Y-68883015D01*
X141654223Y-68795381D01*
X141654223Y-68795379D01*
X141654459Y-68790874D01*
X141624065Y-68589903D01*
X141617160Y-68571134D01*
X141583502Y-68479656D01*
X141553881Y-68399148D01*
X141446774Y-68226401D01*
X141437857Y-68216971D01*
X141310216Y-68081995D01*
X141307119Y-68078720D01*
X141140621Y-67962137D01*
X140954081Y-67881414D01*
X140949669Y-67880492D01*
X140949665Y-67880491D01*
X140833527Y-67856229D01*
X140755120Y-67839849D01*
X140748461Y-67839500D01*
X139269000Y-67839500D01*
X139211792Y-67818678D01*
X139181352Y-67765955D01*
X139180000Y-67750500D01*
X139180000Y-67389500D01*
X139200822Y-67332292D01*
X139253545Y-67301852D01*
X139269000Y-67300500D01*
X140700800Y-67300500D01*
X140790136Y-67291426D01*
X140847729Y-67285576D01*
X140847731Y-67285576D01*
X140852216Y-67285120D01*
X141035240Y-67227764D01*
X141096056Y-67230525D01*
G37*
G04 #@! TD.AperFunction*
G04 #@! TA.AperFunction,NonConductor*
G36*
X155394000Y-73893972D02*
G01*
X155412433Y-73908115D01*
X156132077Y-74627759D01*
X156157805Y-74682935D01*
X156142049Y-74741740D01*
X156093602Y-74776266D01*
X156064655Y-74784539D01*
X155955519Y-74853399D01*
X155909438Y-74905576D01*
X155896460Y-74920271D01*
X155870096Y-74950122D01*
X155815254Y-75066932D01*
X155814278Y-75073197D01*
X155814278Y-75073199D01*
X155805710Y-75128231D01*
X155795401Y-75194440D01*
X155812133Y-75322394D01*
X155864105Y-75440510D01*
X155947139Y-75539291D01*
X155952417Y-75542804D01*
X155952420Y-75542807D01*
X155959814Y-75547728D01*
X155995900Y-75596760D01*
X155999500Y-75621816D01*
X155999500Y-78438663D01*
X155978678Y-78495871D01*
X155973433Y-78501596D01*
X155413146Y-79061883D01*
X155357970Y-79087611D01*
X155299165Y-79071855D01*
X155264246Y-79021985D01*
X155261282Y-79002442D01*
X155260569Y-78984283D01*
X155260500Y-78980791D01*
X155260500Y-73971048D01*
X155281322Y-73913840D01*
X155334045Y-73883400D01*
X155394000Y-73893972D01*
G37*
G04 #@! TD.AperFunction*
G04 #@! TA.AperFunction,NonConductor*
G36*
X151095871Y-67121322D02*
G01*
X151101596Y-67126567D01*
X151874047Y-67899018D01*
X151899775Y-67954194D01*
X151884019Y-68012999D01*
X151834149Y-68047918D01*
X151825591Y-68049442D01*
X151825616Y-68049573D01*
X151812827Y-68052013D01*
X151628339Y-68106311D01*
X151620316Y-68109553D01*
X151449897Y-68198646D01*
X151442632Y-68203399D01*
X151410739Y-68229042D01*
X151404111Y-68239986D01*
X151404934Y-68245302D01*
X151998904Y-68839272D01*
X152010497Y-68844678D01*
X152017591Y-68842777D01*
X152621955Y-68238413D01*
X152622590Y-68239048D01*
X152652800Y-68208838D01*
X152690412Y-68200500D01*
X154738663Y-68200500D01*
X154795871Y-68221322D01*
X154801596Y-68226567D01*
X155373433Y-68798404D01*
X155399161Y-68853580D01*
X155399500Y-68861337D01*
X155399500Y-71549863D01*
X155378678Y-71607071D01*
X155325955Y-71637511D01*
X155266000Y-71626939D01*
X155243080Y-71607961D01*
X155199193Y-71557028D01*
X155090906Y-71486841D01*
X155077388Y-71482798D01*
X154973348Y-71451683D01*
X154973349Y-71451683D01*
X154967273Y-71449866D01*
X154960934Y-71449827D01*
X154960932Y-71449827D01*
X154901448Y-71449464D01*
X154838231Y-71449078D01*
X154832138Y-71450820D01*
X154832134Y-71450820D01*
X154746244Y-71475368D01*
X154714155Y-71484539D01*
X154708797Y-71487920D01*
X154708792Y-71487922D01*
X154632960Y-71535769D01*
X154585468Y-71549500D01*
X154528125Y-71549500D01*
X154470917Y-71528678D01*
X154440477Y-71475955D01*
X154451049Y-71416000D01*
X154458569Y-71404975D01*
X154508138Y-71342880D01*
X154513403Y-71334520D01*
X154587188Y-71181889D01*
X154590472Y-71172564D01*
X154628878Y-71006210D01*
X154629933Y-70998844D01*
X154630000Y-70996508D01*
X154630000Y-70775694D01*
X154625624Y-70763671D01*
X154619266Y-70760000D01*
X153045695Y-70760000D01*
X153033672Y-70764376D01*
X153030001Y-70770734D01*
X153030001Y-70996509D01*
X153030068Y-70998847D01*
X153031121Y-71006204D01*
X153069528Y-71172564D01*
X153072812Y-71181889D01*
X153146597Y-71334520D01*
X153151862Y-71342880D01*
X153201431Y-71404975D01*
X153220848Y-71462675D01*
X153198634Y-71519357D01*
X153145183Y-71548499D01*
X153131875Y-71549500D01*
X152682048Y-71549500D01*
X152624840Y-71528678D01*
X152619115Y-71523433D01*
X151876567Y-70780885D01*
X151850839Y-70725709D01*
X151850500Y-70717952D01*
X151850500Y-70176030D01*
X151871322Y-70118822D01*
X151924045Y-70088382D01*
X151950038Y-70087656D01*
X151984114Y-70091719D01*
X151996872Y-70091987D01*
X152053630Y-70114004D01*
X152078636Y-70150524D01*
X152082029Y-70159845D01*
X152086045Y-70174832D01*
X152089869Y-70196518D01*
X152093763Y-70203262D01*
X152100879Y-70215587D01*
X152107437Y-70229651D01*
X152114966Y-70250338D01*
X152119971Y-70256303D01*
X152119974Y-70256308D01*
X152129118Y-70267205D01*
X152138016Y-70279911D01*
X152149027Y-70298982D01*
X152165897Y-70313138D01*
X152176861Y-70324102D01*
X152191018Y-70340973D01*
X152197759Y-70344865D01*
X152210089Y-70351984D01*
X152222795Y-70360882D01*
X152233692Y-70370026D01*
X152233697Y-70370029D01*
X152239662Y-70375034D01*
X152246980Y-70377697D01*
X152246981Y-70377698D01*
X152260349Y-70382563D01*
X152274413Y-70389121D01*
X152293482Y-70400131D01*
X152315168Y-70403955D01*
X152330153Y-70407970D01*
X152343524Y-70412837D01*
X152343527Y-70412838D01*
X152350842Y-70415500D01*
X152469158Y-70415500D01*
X152476473Y-70412838D01*
X152476476Y-70412837D01*
X152489847Y-70407970D01*
X152504832Y-70403955D01*
X152526518Y-70400131D01*
X152545587Y-70389121D01*
X152559651Y-70382563D01*
X152573019Y-70377698D01*
X152573020Y-70377697D01*
X152580338Y-70375034D01*
X152586303Y-70370029D01*
X152586308Y-70370026D01*
X152597205Y-70360882D01*
X152609911Y-70351984D01*
X152622241Y-70344865D01*
X152628982Y-70340973D01*
X152643139Y-70324102D01*
X152654103Y-70313138D01*
X152670973Y-70298982D01*
X152681984Y-70279911D01*
X152690882Y-70267205D01*
X152700026Y-70256308D01*
X152700029Y-70256303D01*
X152705034Y-70250338D01*
X152712563Y-70229651D01*
X152715435Y-70223492D01*
X153030000Y-70223492D01*
X153030000Y-70444306D01*
X153034376Y-70456329D01*
X153040734Y-70460000D01*
X153664306Y-70460000D01*
X153676329Y-70455624D01*
X153680000Y-70449266D01*
X153680000Y-69539235D01*
X153677549Y-69532502D01*
X153980000Y-69532502D01*
X153980000Y-70444306D01*
X153984376Y-70456329D01*
X153990734Y-70460000D01*
X154614305Y-70460000D01*
X154626328Y-70455624D01*
X154629999Y-70449266D01*
X154629999Y-70223491D01*
X154629932Y-70221153D01*
X154628879Y-70213796D01*
X154590472Y-70047436D01*
X154587188Y-70038111D01*
X154513403Y-69885480D01*
X154508134Y-69877114D01*
X154402376Y-69744632D01*
X154395368Y-69737624D01*
X154262886Y-69631866D01*
X154254520Y-69626597D01*
X154101895Y-69552815D01*
X154092557Y-69549527D01*
X153995291Y-69527071D01*
X153982594Y-69528630D01*
X153980284Y-69531107D01*
X153980000Y-69532502D01*
X153677549Y-69532502D01*
X153675624Y-69527212D01*
X153672692Y-69525519D01*
X153671270Y-69525556D01*
X153567443Y-69549527D01*
X153558105Y-69552815D01*
X153405480Y-69626597D01*
X153397114Y-69631866D01*
X153264632Y-69737624D01*
X153257624Y-69744632D01*
X153151866Y-69877114D01*
X153146597Y-69885480D01*
X153072812Y-70038111D01*
X153069528Y-70047436D01*
X153031122Y-70213790D01*
X153030067Y-70221156D01*
X153030000Y-70223492D01*
X152715435Y-70223492D01*
X152719121Y-70215587D01*
X152726237Y-70203262D01*
X152730131Y-70196518D01*
X152733955Y-70174832D01*
X152737970Y-70159847D01*
X152742837Y-70146476D01*
X152742838Y-70146473D01*
X152745500Y-70139158D01*
X152745500Y-70117141D01*
X152746852Y-70101686D01*
X152749324Y-70087667D01*
X152750676Y-70080000D01*
X152746852Y-70058311D01*
X152745500Y-70042859D01*
X152745500Y-70020842D01*
X152742838Y-70013527D01*
X152742837Y-70013524D01*
X152737970Y-70000153D01*
X152733954Y-69985165D01*
X152732774Y-69978469D01*
X152730131Y-69963482D01*
X152719121Y-69944413D01*
X152712563Y-69930349D01*
X152707698Y-69916981D01*
X152707697Y-69916980D01*
X152705034Y-69909662D01*
X152700029Y-69903697D01*
X152700026Y-69903692D01*
X152690882Y-69892795D01*
X152681984Y-69880089D01*
X152674865Y-69867759D01*
X152670973Y-69861018D01*
X152654102Y-69846861D01*
X152643138Y-69835897D01*
X152634477Y-69825576D01*
X152628982Y-69819027D01*
X152609911Y-69808016D01*
X152597205Y-69799118D01*
X152586308Y-69789974D01*
X152586303Y-69789971D01*
X152580338Y-69784966D01*
X152573020Y-69782303D01*
X152573019Y-69782302D01*
X152559651Y-69777437D01*
X152545587Y-69770879D01*
X152533262Y-69763763D01*
X152533263Y-69763763D01*
X152526518Y-69759869D01*
X152516179Y-69758046D01*
X152512977Y-69756379D01*
X152511531Y-69755853D01*
X152511600Y-69755663D01*
X152468699Y-69733331D01*
X151798365Y-69062997D01*
X152227822Y-69062997D01*
X152229723Y-69070091D01*
X152823949Y-69664317D01*
X152835542Y-69669723D01*
X152841285Y-69668184D01*
X152848781Y-69659499D01*
X152853777Y-69652418D01*
X152948767Y-69485204D01*
X152952288Y-69477296D01*
X153012990Y-69294819D01*
X153014911Y-69286362D01*
X153039246Y-69093726D01*
X153039593Y-69088770D01*
X153039925Y-69064992D01*
X153039717Y-69060020D01*
X153020770Y-68866783D01*
X153019085Y-68858274D01*
X152963503Y-68674178D01*
X152960205Y-68666176D01*
X152869917Y-68496367D01*
X152865125Y-68489156D01*
X152843757Y-68462956D01*
X152832767Y-68456405D01*
X152827350Y-68457282D01*
X152233228Y-69051404D01*
X152227822Y-69062997D01*
X151798365Y-69062997D01*
X151196725Y-68461357D01*
X151185132Y-68455951D01*
X151179614Y-68457430D01*
X151162966Y-68477271D01*
X151158067Y-68484425D01*
X151065424Y-68652941D01*
X151062011Y-68660904D01*
X151003861Y-68844215D01*
X151002062Y-68852680D01*
X150997737Y-68891238D01*
X150970667Y-68945768D01*
X150914879Y-68970140D01*
X150856477Y-68952951D01*
X150846359Y-68944249D01*
X150487900Y-68585790D01*
X150476065Y-68571134D01*
X150473725Y-68567510D01*
X150469734Y-68561329D01*
X150444114Y-68541131D01*
X150438017Y-68535714D01*
X150436753Y-68534643D01*
X150434163Y-68532053D01*
X150431183Y-68529924D01*
X150431173Y-68529915D01*
X150419130Y-68521310D01*
X150415774Y-68518791D01*
X150401238Y-68507331D01*
X150378098Y-68489089D01*
X150371659Y-68486828D01*
X150368796Y-68485340D01*
X150363240Y-68481370D01*
X150349551Y-68477276D01*
X150335008Y-68472927D01*
X150317254Y-68467617D01*
X150313276Y-68466324D01*
X150273294Y-68452283D01*
X150273286Y-68452281D01*
X150268003Y-68450426D01*
X150262865Y-68449981D01*
X150260936Y-68449981D01*
X150260127Y-68449946D01*
X150257388Y-68449714D01*
X150251445Y-68447937D01*
X150203323Y-68449828D01*
X150201177Y-68449912D01*
X150197683Y-68449981D01*
X148885573Y-68449981D01*
X148866841Y-68447987D01*
X148862616Y-68447077D01*
X148862612Y-68447077D01*
X148855423Y-68445529D01*
X148823334Y-68449327D01*
X148823021Y-68449364D01*
X148814915Y-68449842D01*
X148813234Y-68449981D01*
X148809568Y-68449981D01*
X148791339Y-68453015D01*
X148787211Y-68453603D01*
X148773005Y-68455284D01*
X148746850Y-68458379D01*
X148746847Y-68458380D01*
X148739545Y-68459244D01*
X148733391Y-68462199D01*
X148730315Y-68463172D01*
X148723580Y-68464293D01*
X148691932Y-68481370D01*
X148681357Y-68487076D01*
X148677619Y-68488981D01*
X148639404Y-68507331D01*
X148639401Y-68507333D01*
X148634357Y-68509755D01*
X148630409Y-68513073D01*
X148629047Y-68514435D01*
X148628423Y-68515007D01*
X148626350Y-68516756D01*
X148620889Y-68519703D01*
X148586740Y-68556645D01*
X148584342Y-68559140D01*
X148176758Y-68966724D01*
X148121582Y-68992452D01*
X148062777Y-68976696D01*
X148027858Y-68926826D01*
X148025250Y-68912475D01*
X148020770Y-68866783D01*
X148019085Y-68858274D01*
X147963503Y-68674178D01*
X147960205Y-68666176D01*
X147869917Y-68496367D01*
X147865125Y-68489156D01*
X147843757Y-68462956D01*
X147832767Y-68456405D01*
X147827350Y-68457282D01*
X146551301Y-69733331D01*
X146508400Y-69755663D01*
X146508469Y-69755853D01*
X146507023Y-69756379D01*
X146503821Y-69758046D01*
X146493482Y-69759869D01*
X146486737Y-69763763D01*
X146486738Y-69763763D01*
X146474413Y-69770879D01*
X146460349Y-69777437D01*
X146446981Y-69782302D01*
X146446980Y-69782303D01*
X146439662Y-69784966D01*
X146433697Y-69789971D01*
X146433692Y-69789974D01*
X146422795Y-69799118D01*
X146410089Y-69808016D01*
X146391018Y-69819027D01*
X146385523Y-69825576D01*
X146376862Y-69835897D01*
X146365898Y-69846861D01*
X146349027Y-69861018D01*
X146345135Y-69867759D01*
X146338016Y-69880089D01*
X146329118Y-69892795D01*
X146319974Y-69903692D01*
X146319971Y-69903697D01*
X146314966Y-69909662D01*
X146312303Y-69916980D01*
X146312302Y-69916981D01*
X146307437Y-69930349D01*
X146300879Y-69944413D01*
X146289869Y-69963482D01*
X146287227Y-69978469D01*
X146286046Y-69985165D01*
X146282030Y-70000153D01*
X146277163Y-70013524D01*
X146277162Y-70013527D01*
X146274500Y-70020842D01*
X146274500Y-70042859D01*
X146273148Y-70058311D01*
X146269324Y-70080000D01*
X146270676Y-70087667D01*
X146273148Y-70101686D01*
X146274500Y-70117141D01*
X146274500Y-70139158D01*
X146277162Y-70146473D01*
X146277163Y-70146476D01*
X146282030Y-70159847D01*
X146286045Y-70174832D01*
X146289869Y-70196518D01*
X146293763Y-70203262D01*
X146300879Y-70215587D01*
X146307437Y-70229651D01*
X146314966Y-70250338D01*
X146319971Y-70256303D01*
X146319974Y-70256308D01*
X146329118Y-70267205D01*
X146338016Y-70279911D01*
X146349027Y-70298982D01*
X146365897Y-70313138D01*
X146376861Y-70324102D01*
X146391018Y-70340973D01*
X146397759Y-70344865D01*
X146410089Y-70351984D01*
X146422795Y-70360882D01*
X146433692Y-70370026D01*
X146433697Y-70370029D01*
X146439662Y-70375034D01*
X146446980Y-70377697D01*
X146446981Y-70377698D01*
X146460349Y-70382563D01*
X146474413Y-70389121D01*
X146493482Y-70400131D01*
X146515168Y-70403955D01*
X146530153Y-70407970D01*
X146543524Y-70412837D01*
X146543527Y-70412838D01*
X146550842Y-70415500D01*
X146669158Y-70415500D01*
X146676473Y-70412838D01*
X146676476Y-70412837D01*
X146689847Y-70407970D01*
X146704832Y-70403955D01*
X146726518Y-70400131D01*
X146745587Y-70389121D01*
X146759651Y-70382563D01*
X146773019Y-70377698D01*
X146773020Y-70377697D01*
X146780338Y-70375034D01*
X146786303Y-70370029D01*
X146786308Y-70370026D01*
X146797205Y-70360882D01*
X146809911Y-70351984D01*
X146822241Y-70344865D01*
X146828982Y-70340973D01*
X146843139Y-70324102D01*
X146854103Y-70313138D01*
X146870973Y-70298982D01*
X146881984Y-70279911D01*
X146890882Y-70267205D01*
X146900026Y-70256308D01*
X146900029Y-70256303D01*
X146905034Y-70250338D01*
X146912563Y-70229651D01*
X146919121Y-70215587D01*
X146926237Y-70203262D01*
X146930131Y-70196518D01*
X146933955Y-70174832D01*
X146937969Y-70159851D01*
X146942218Y-70148175D01*
X146981353Y-70101540D01*
X147019022Y-70089880D01*
X147053672Y-70087214D01*
X147112309Y-70103586D01*
X147146704Y-70153819D01*
X147149500Y-70175952D01*
X147149500Y-73260500D01*
X147128678Y-73317708D01*
X147075955Y-73348148D01*
X147060500Y-73349500D01*
X145960252Y-73349500D01*
X145955968Y-73350352D01*
X145955969Y-73350352D01*
X145910370Y-73359422D01*
X145910369Y-73359422D01*
X145901769Y-73361133D01*
X145835448Y-73405448D01*
X145791133Y-73471769D01*
X145789422Y-73480369D01*
X145789422Y-73480370D01*
X145784767Y-73503772D01*
X145779500Y-73530252D01*
X145779500Y-75069748D01*
X145791133Y-75128231D01*
X145835448Y-75194552D01*
X145901769Y-75238867D01*
X145910369Y-75240578D01*
X145910370Y-75240578D01*
X145943507Y-75247169D01*
X145960252Y-75250500D01*
X147999748Y-75250500D01*
X148016493Y-75247169D01*
X148049630Y-75240578D01*
X148049631Y-75240578D01*
X148058231Y-75238867D01*
X148124552Y-75194552D01*
X148168867Y-75128231D01*
X148180500Y-75069748D01*
X148180500Y-73530252D01*
X148175233Y-73503772D01*
X148170578Y-73480370D01*
X148170578Y-73480369D01*
X148168867Y-73471769D01*
X148124552Y-73405448D01*
X148058231Y-73361133D01*
X148049631Y-73359422D01*
X148049630Y-73359422D01*
X148004031Y-73350352D01*
X148004032Y-73350352D01*
X147999748Y-73349500D01*
X147939500Y-73349500D01*
X147882292Y-73328678D01*
X147851852Y-73275955D01*
X147850500Y-73260500D01*
X147850500Y-70593386D01*
X147871322Y-70536178D01*
X147924045Y-70505738D01*
X147984000Y-70516310D01*
X147994847Y-70524161D01*
X147996639Y-70526293D01*
X148104060Y-70597798D01*
X148110113Y-70599689D01*
X148110115Y-70599690D01*
X148126158Y-70604702D01*
X148227233Y-70636280D01*
X148276759Y-70637188D01*
X148349912Y-70638529D01*
X148349914Y-70638529D01*
X148356255Y-70638645D01*
X148480755Y-70604702D01*
X148590724Y-70537181D01*
X148594975Y-70532485D01*
X148594977Y-70532483D01*
X148673068Y-70446209D01*
X148673069Y-70446208D01*
X148677322Y-70441509D01*
X148694862Y-70405307D01*
X148730823Y-70331085D01*
X148730824Y-70331082D01*
X148733588Y-70325377D01*
X148734640Y-70319125D01*
X148744298Y-70261719D01*
X148769132Y-70213552D01*
X149306117Y-69676567D01*
X149361293Y-69650839D01*
X149369050Y-69650500D01*
X149817953Y-69650500D01*
X149875161Y-69671322D01*
X149880885Y-69676567D01*
X150121300Y-69916981D01*
X150349452Y-70145133D01*
X150375181Y-70200309D01*
X150372871Y-70222215D01*
X150374254Y-70222430D01*
X150355797Y-70340973D01*
X150354401Y-70349938D01*
X150355223Y-70356222D01*
X150367845Y-70452744D01*
X150371133Y-70477892D01*
X150423105Y-70596008D01*
X150506139Y-70694789D01*
X150613560Y-70766294D01*
X150619613Y-70768185D01*
X150619615Y-70768186D01*
X150643647Y-70775694D01*
X150736733Y-70804776D01*
X150786259Y-70805684D01*
X150859412Y-70807025D01*
X150859414Y-70807025D01*
X150865755Y-70807141D01*
X150990255Y-70773198D01*
X151013933Y-70758660D01*
X151073577Y-70746470D01*
X151127105Y-70775472D01*
X151149500Y-70834504D01*
X151149500Y-70853117D01*
X151147506Y-70871848D01*
X151145049Y-70883261D01*
X151145914Y-70890566D01*
X151148883Y-70915654D01*
X151149363Y-70923784D01*
X151149500Y-70925441D01*
X151149500Y-70929115D01*
X151152534Y-70947344D01*
X151153125Y-70951493D01*
X151158764Y-70999138D01*
X151161716Y-71005286D01*
X151162691Y-71008368D01*
X151163812Y-71015103D01*
X151167305Y-71021576D01*
X151167306Y-71021580D01*
X151186607Y-71057349D01*
X151188492Y-71061048D01*
X151209274Y-71104326D01*
X151212592Y-71108274D01*
X151213954Y-71109636D01*
X151214526Y-71110260D01*
X151216275Y-71112333D01*
X151219222Y-71117794D01*
X151256164Y-71151943D01*
X151258659Y-71154341D01*
X152219009Y-72114691D01*
X152230844Y-72129347D01*
X152237175Y-72139152D01*
X152262795Y-72159350D01*
X152268895Y-72164770D01*
X152270159Y-72165841D01*
X152272747Y-72168429D01*
X152275727Y-72170558D01*
X152275737Y-72170567D01*
X152287780Y-72179172D01*
X152291131Y-72181687D01*
X152328811Y-72211392D01*
X152335249Y-72213653D01*
X152338116Y-72215142D01*
X152343670Y-72219111D01*
X152350720Y-72221219D01*
X152350719Y-72221219D01*
X152389629Y-72232856D01*
X152393616Y-72234151D01*
X152433619Y-72248199D01*
X152433624Y-72248200D01*
X152438906Y-72250055D01*
X152444044Y-72250500D01*
X152445973Y-72250500D01*
X152446782Y-72250535D01*
X152449521Y-72250767D01*
X152455464Y-72252544D01*
X152505732Y-72250569D01*
X152509226Y-72250500D01*
X154586566Y-72250500D01*
X154635881Y-72265413D01*
X154704060Y-72310796D01*
X154710113Y-72312687D01*
X154710115Y-72312688D01*
X154731494Y-72319367D01*
X154827233Y-72349278D01*
X154876759Y-72350186D01*
X154949912Y-72351527D01*
X154949914Y-72351527D01*
X154956255Y-72351643D01*
X155080755Y-72317700D01*
X155190724Y-72250179D01*
X155228916Y-72207985D01*
X155244516Y-72190751D01*
X155298345Y-72162311D01*
X155357861Y-72175125D01*
X155395216Y-72223196D01*
X155399500Y-72250477D01*
X155399500Y-72970165D01*
X155378678Y-73027373D01*
X155325955Y-73057813D01*
X155266000Y-73047241D01*
X155247567Y-73033098D01*
X155240404Y-73025935D01*
X155233348Y-73022645D01*
X155233347Y-73022644D01*
X155200948Y-73007536D01*
X155133173Y-72975932D01*
X155126423Y-72975043D01*
X155126422Y-72975043D01*
X155087206Y-72969880D01*
X155087199Y-72969880D01*
X155084316Y-72969500D01*
X154735684Y-72969500D01*
X154732801Y-72969880D01*
X154732794Y-72969880D01*
X154693578Y-72975043D01*
X154693577Y-72975043D01*
X154686827Y-72975932D01*
X154619052Y-73007536D01*
X154586653Y-73022644D01*
X154586652Y-73022645D01*
X154579596Y-73025935D01*
X154495935Y-73109596D01*
X154492645Y-73116652D01*
X154492644Y-73116653D01*
X154480661Y-73142351D01*
X154437613Y-73185399D01*
X154376965Y-73190705D01*
X154327095Y-73155786D01*
X154319339Y-73142351D01*
X154307356Y-73116653D01*
X154307355Y-73116652D01*
X154304065Y-73109596D01*
X154220404Y-73025935D01*
X154213348Y-73022645D01*
X154213347Y-73022644D01*
X154180948Y-73007536D01*
X154113173Y-72975932D01*
X154106423Y-72975043D01*
X154106422Y-72975043D01*
X154067206Y-72969880D01*
X154067199Y-72969880D01*
X154064316Y-72969500D01*
X153715684Y-72969500D01*
X153712801Y-72969880D01*
X153712794Y-72969880D01*
X153673578Y-72975043D01*
X153673577Y-72975043D01*
X153666827Y-72975932D01*
X153599052Y-73007536D01*
X153566653Y-73022644D01*
X153566652Y-73022645D01*
X153559596Y-73025935D01*
X153475935Y-73109596D01*
X153425932Y-73216827D01*
X153425043Y-73223577D01*
X153425043Y-73223578D01*
X153421159Y-73253085D01*
X153419500Y-73265684D01*
X153419500Y-73427952D01*
X153398678Y-73485160D01*
X153393433Y-73490885D01*
X153065309Y-73819009D01*
X153050653Y-73830844D01*
X153040848Y-73837175D01*
X153020650Y-73862795D01*
X153015233Y-73868892D01*
X153014162Y-73870156D01*
X153011572Y-73872746D01*
X153009443Y-73875726D01*
X153009434Y-73875736D01*
X153000829Y-73887779D01*
X152998314Y-73891130D01*
X152968608Y-73928811D01*
X152966347Y-73935249D01*
X152964859Y-73938113D01*
X152960889Y-73943669D01*
X152958782Y-73950713D01*
X152958782Y-73950714D01*
X152947140Y-73989644D01*
X152945843Y-73993633D01*
X152931802Y-74033615D01*
X152931800Y-74033623D01*
X152929945Y-74038906D01*
X152929500Y-74044044D01*
X152929500Y-74045973D01*
X152929465Y-74046782D01*
X152929233Y-74049521D01*
X152927456Y-74055464D01*
X152928350Y-74078213D01*
X152929431Y-74105732D01*
X152929500Y-74109226D01*
X152929500Y-74410500D01*
X152908678Y-74467708D01*
X152855955Y-74498148D01*
X152840500Y-74499500D01*
X152260252Y-74499500D01*
X152255968Y-74500352D01*
X152255969Y-74500352D01*
X152210370Y-74509422D01*
X152210369Y-74509422D01*
X152201769Y-74511133D01*
X152135448Y-74555448D01*
X152091133Y-74621769D01*
X152079500Y-74680252D01*
X152079500Y-78519748D01*
X152080352Y-78524031D01*
X152088179Y-78563378D01*
X152091133Y-78578231D01*
X152135448Y-78644552D01*
X152201769Y-78688867D01*
X152210369Y-78690578D01*
X152210370Y-78690578D01*
X152243507Y-78697169D01*
X152260252Y-78700500D01*
X154299748Y-78700500D01*
X154316493Y-78697169D01*
X154349630Y-78690578D01*
X154349631Y-78690578D01*
X154358231Y-78688867D01*
X154421055Y-78646888D01*
X154480188Y-78632418D01*
X154534790Y-78659344D01*
X154559500Y-78720889D01*
X154559500Y-78807952D01*
X154538678Y-78865160D01*
X154533433Y-78870885D01*
X154180885Y-79223433D01*
X154125709Y-79249161D01*
X154117952Y-79249500D01*
X153413899Y-79249500D01*
X153365494Y-79235186D01*
X153290906Y-79186841D01*
X153277388Y-79182798D01*
X153229090Y-79168354D01*
X153167273Y-79149866D01*
X153160934Y-79149827D01*
X153160932Y-79149827D01*
X153101448Y-79149464D01*
X153038231Y-79149078D01*
X153032138Y-79150820D01*
X153032134Y-79150820D01*
X152937728Y-79177802D01*
X152914155Y-79184539D01*
X152805019Y-79253399D01*
X152719596Y-79350122D01*
X152664754Y-79466932D01*
X152663778Y-79473197D01*
X152663778Y-79473199D01*
X152646336Y-79585226D01*
X152644901Y-79594440D01*
X152647595Y-79615039D01*
X152660669Y-79715020D01*
X152661633Y-79722394D01*
X152713605Y-79840510D01*
X152796639Y-79939291D01*
X152904060Y-80010796D01*
X152910113Y-80012687D01*
X152910115Y-80012688D01*
X152944867Y-80023545D01*
X153027233Y-80049278D01*
X153076759Y-80050186D01*
X153149912Y-80051527D01*
X153149914Y-80051527D01*
X153156255Y-80051643D01*
X153280755Y-80017700D01*
X153368775Y-79963656D01*
X153415343Y-79950500D01*
X153626262Y-79950500D01*
X153683470Y-79971322D01*
X153713910Y-80024045D01*
X153706825Y-80077323D01*
X153664754Y-80166932D01*
X153663778Y-80173197D01*
X153663778Y-80173199D01*
X153648355Y-80272259D01*
X153644901Y-80294440D01*
X153651404Y-80344167D01*
X153659155Y-80403441D01*
X153661633Y-80422394D01*
X153713605Y-80540510D01*
X153796639Y-80639291D01*
X153904060Y-80710796D01*
X153910113Y-80712687D01*
X153910115Y-80712688D01*
X153949191Y-80724896D01*
X154027233Y-80749278D01*
X154076387Y-80750179D01*
X154149912Y-80751527D01*
X154149914Y-80751527D01*
X154156255Y-80751643D01*
X154280755Y-80717700D01*
X154286451Y-80714203D01*
X154367042Y-80664720D01*
X154390724Y-80650179D01*
X154409193Y-80629774D01*
X154463022Y-80601334D01*
X154475177Y-80600500D01*
X154546069Y-80600500D01*
X154550733Y-80600843D01*
X154555342Y-80602425D01*
X154563551Y-80602117D01*
X154563552Y-80602117D01*
X154604948Y-80600563D01*
X154608286Y-80600500D01*
X154627948Y-80600500D01*
X154631973Y-80599751D01*
X154633248Y-80599633D01*
X154638077Y-80599320D01*
X154667208Y-80598226D01*
X154674755Y-80594984D01*
X154674758Y-80594983D01*
X154678810Y-80593242D01*
X154697645Y-80587520D01*
X154701974Y-80586714D01*
X154701976Y-80586713D01*
X154710053Y-80585209D01*
X154733352Y-80570848D01*
X154744919Y-80564839D01*
X154764286Y-80556518D01*
X154770063Y-80554036D01*
X154774949Y-80550022D01*
X154780138Y-80544833D01*
X154796368Y-80532004D01*
X154798353Y-80530780D01*
X154798354Y-80530780D01*
X154805348Y-80526468D01*
X154823420Y-80502702D01*
X154831331Y-80493640D01*
X156474352Y-78850619D01*
X156477889Y-78847566D01*
X156482269Y-78845425D01*
X156516022Y-78809039D01*
X156518337Y-78806634D01*
X156532248Y-78792723D01*
X156534561Y-78789352D01*
X156535371Y-78788377D01*
X156538570Y-78784733D01*
X156552815Y-78769376D01*
X156558401Y-78763354D01*
X156563080Y-78751626D01*
X156572349Y-78734267D01*
X156579492Y-78723854D01*
X156585811Y-78697227D01*
X156589742Y-78684798D01*
X156597556Y-78665213D01*
X156597557Y-78665207D01*
X156599883Y-78659378D01*
X156600500Y-78653085D01*
X156600500Y-78645745D01*
X156602905Y-78625195D01*
X156603442Y-78622931D01*
X156605340Y-78614934D01*
X156601313Y-78585344D01*
X156600500Y-78573342D01*
X156600500Y-75518989D01*
X156621205Y-75465262D01*
X156620022Y-75464464D01*
X156623499Y-75459310D01*
X156623516Y-75459264D01*
X156627822Y-75454507D01*
X156642716Y-75423765D01*
X156681298Y-75344134D01*
X156724980Y-75301729D01*
X156785700Y-75297324D01*
X156824325Y-75320007D01*
X157430413Y-75926095D01*
X157456141Y-75981271D01*
X157447336Y-76028320D01*
X157407413Y-76109455D01*
X157406278Y-76113812D01*
X157406277Y-76113815D01*
X157372372Y-76243979D01*
X157356178Y-76306148D01*
X157355942Y-76310646D01*
X157355942Y-76310648D01*
X157350076Y-76422596D01*
X157345541Y-76509126D01*
X157375935Y-76710097D01*
X157377490Y-76714324D01*
X157377491Y-76714327D01*
X157398756Y-76772123D01*
X157446119Y-76900852D01*
X157553226Y-77073599D01*
X157692881Y-77221280D01*
X157859379Y-77337863D01*
X158045919Y-77418586D01*
X158050331Y-77419508D01*
X158050335Y-77419509D01*
X158151639Y-77440672D01*
X158244880Y-77460151D01*
X158251539Y-77460500D01*
X159731000Y-77460500D01*
X159788208Y-77481322D01*
X159818648Y-77534045D01*
X159820000Y-77549500D01*
X159820000Y-77910500D01*
X159799178Y-77967708D01*
X159746455Y-77998148D01*
X159731000Y-77999500D01*
X158299200Y-77999500D01*
X158209864Y-78008574D01*
X158152271Y-78014424D01*
X158152269Y-78014424D01*
X158147784Y-78014880D01*
X158066059Y-78040491D01*
X157958132Y-78074313D01*
X157958130Y-78074314D01*
X157953828Y-78075662D01*
X157776056Y-78174203D01*
X157621729Y-78306477D01*
X157497152Y-78467081D01*
X157495163Y-78471122D01*
X157495163Y-78471123D01*
X157473385Y-78515381D01*
X157407413Y-78649455D01*
X157406278Y-78653812D01*
X157406277Y-78653815D01*
X157371270Y-78788209D01*
X157356178Y-78846148D01*
X157355942Y-78850646D01*
X157355942Y-78850648D01*
X157345948Y-79041369D01*
X157345541Y-79049126D01*
X157375935Y-79250097D01*
X157377490Y-79254324D01*
X157377491Y-79254327D01*
X157410987Y-79345366D01*
X157446119Y-79440852D01*
X157553226Y-79613599D01*
X157692881Y-79761280D01*
X157859379Y-79877863D01*
X158045919Y-79958586D01*
X158050331Y-79959508D01*
X158050335Y-79959509D01*
X158163038Y-79983053D01*
X158244880Y-80000151D01*
X158251539Y-80000500D01*
X159731000Y-80000500D01*
X159788208Y-80021322D01*
X159818648Y-80074045D01*
X159820000Y-80089500D01*
X159820000Y-80450500D01*
X159799178Y-80507708D01*
X159746455Y-80538148D01*
X159731000Y-80539500D01*
X158299200Y-80539500D01*
X158210634Y-80548496D01*
X158152271Y-80554424D01*
X158152269Y-80554424D01*
X158147784Y-80554880D01*
X158116005Y-80564839D01*
X157958132Y-80614313D01*
X157958130Y-80614314D01*
X157953828Y-80615662D01*
X157776056Y-80714203D01*
X157621729Y-80846477D01*
X157618970Y-80850034D01*
X157618969Y-80850035D01*
X157586601Y-80891764D01*
X157497152Y-81007081D01*
X157407413Y-81189455D01*
X157406278Y-81193812D01*
X157406277Y-81193815D01*
X157383552Y-81281059D01*
X157356178Y-81386148D01*
X157355942Y-81390646D01*
X157355942Y-81390648D01*
X157350454Y-81495381D01*
X157345541Y-81589126D01*
X157375935Y-81790097D01*
X157446119Y-81980852D01*
X157553226Y-82153599D01*
X157692881Y-82301280D01*
X157859379Y-82417863D01*
X158045919Y-82498586D01*
X158050331Y-82499508D01*
X158050335Y-82499509D01*
X158163038Y-82523053D01*
X158244880Y-82540151D01*
X158251539Y-82540500D01*
X159731000Y-82540500D01*
X159788208Y-82561322D01*
X159818648Y-82614045D01*
X159820000Y-82629500D01*
X159820000Y-82990500D01*
X159799178Y-83047708D01*
X159746455Y-83078148D01*
X159731000Y-83079500D01*
X158299200Y-83079500D01*
X158209864Y-83088574D01*
X158152271Y-83094424D01*
X158152269Y-83094424D01*
X158147784Y-83094880D01*
X158138473Y-83097798D01*
X157958132Y-83154313D01*
X157958130Y-83154314D01*
X157953828Y-83155662D01*
X157776056Y-83254203D01*
X157621729Y-83386477D01*
X157497152Y-83547081D01*
X157407413Y-83729455D01*
X157406278Y-83733812D01*
X157406277Y-83733815D01*
X157373889Y-83858153D01*
X157356178Y-83926148D01*
X157355942Y-83930646D01*
X157355942Y-83930648D01*
X157348824Y-84066488D01*
X157345541Y-84129126D01*
X157375935Y-84330097D01*
X157377490Y-84334324D01*
X157377491Y-84334327D01*
X157400401Y-84396595D01*
X157446119Y-84520852D01*
X157448493Y-84524681D01*
X157448494Y-84524683D01*
X157461786Y-84546122D01*
X157474234Y-84605715D01*
X157449077Y-84655952D01*
X156953048Y-85151981D01*
X156897872Y-85177709D01*
X156890115Y-85178048D01*
X156775587Y-85178048D01*
X156718379Y-85157226D01*
X156687939Y-85104503D01*
X156698511Y-85044548D01*
X156709603Y-85029323D01*
X156773065Y-84959211D01*
X156773067Y-84959207D01*
X156777322Y-84954507D01*
X156830167Y-84845436D01*
X156830823Y-84844083D01*
X156830824Y-84844080D01*
X156833588Y-84838375D01*
X156837616Y-84814436D01*
X156854426Y-84714512D01*
X156854997Y-84711120D01*
X156855133Y-84700000D01*
X156836839Y-84572259D01*
X156783428Y-84454788D01*
X156699193Y-84357028D01*
X156590906Y-84286841D01*
X156577388Y-84282798D01*
X156473348Y-84251683D01*
X156473349Y-84251683D01*
X156467273Y-84249866D01*
X156460934Y-84249827D01*
X156460932Y-84249827D01*
X156401448Y-84249464D01*
X156338231Y-84249078D01*
X156332138Y-84250820D01*
X156332134Y-84250820D01*
X156277314Y-84266488D01*
X156214155Y-84284539D01*
X156105019Y-84353399D01*
X156019596Y-84450122D01*
X155964754Y-84566932D01*
X155963778Y-84573197D01*
X155963778Y-84573199D01*
X155950894Y-84655952D01*
X155944901Y-84694440D01*
X155954908Y-84770965D01*
X155941679Y-84830389D01*
X155929592Y-84845436D01*
X153825652Y-86949377D01*
X153822111Y-86952434D01*
X153817731Y-86954575D01*
X153812140Y-86960602D01*
X153783979Y-86990960D01*
X153781663Y-86993366D01*
X153767752Y-87007277D01*
X153765439Y-87010648D01*
X153764629Y-87011623D01*
X153761430Y-87015267D01*
X153752846Y-87024521D01*
X153741599Y-87036646D01*
X153736922Y-87048370D01*
X153727651Y-87065733D01*
X153720508Y-87076146D01*
X153718611Y-87084140D01*
X153714189Y-87102773D01*
X153710258Y-87115202D01*
X153702444Y-87134787D01*
X153702443Y-87134793D01*
X153700117Y-87140622D01*
X153699500Y-87146915D01*
X153699500Y-87154255D01*
X153697095Y-87174805D01*
X153694660Y-87185066D01*
X153695768Y-87193208D01*
X153695768Y-87193210D01*
X153698687Y-87214656D01*
X153699500Y-87226658D01*
X153699500Y-88007643D01*
X153678678Y-88064851D01*
X153625955Y-88095291D01*
X153574221Y-88088571D01*
X153570781Y-88086341D01*
X153447148Y-88049366D01*
X153440809Y-88049327D01*
X153440807Y-88049327D01*
X153381323Y-88048964D01*
X153318106Y-88048578D01*
X153312013Y-88050320D01*
X153312009Y-88050320D01*
X153241402Y-88070500D01*
X153194030Y-88084039D01*
X153084894Y-88152899D01*
X153080696Y-88157653D01*
X153080693Y-88157655D01*
X153070748Y-88168915D01*
X153017271Y-88198011D01*
X153004040Y-88199000D01*
X151260837Y-88199000D01*
X151203629Y-88178178D01*
X151197904Y-88172933D01*
X149897539Y-86872568D01*
X149871811Y-86817392D01*
X149887567Y-86758587D01*
X149937437Y-86723668D01*
X149987012Y-86724684D01*
X150005628Y-86730500D01*
X150055154Y-86731408D01*
X150128307Y-86732749D01*
X150128309Y-86732749D01*
X150134650Y-86732865D01*
X150259150Y-86698922D01*
X150369119Y-86631401D01*
X150387588Y-86610996D01*
X150441417Y-86582556D01*
X150453572Y-86581722D01*
X151864847Y-86581722D01*
X151869511Y-86582065D01*
X151874120Y-86583647D01*
X151882329Y-86583339D01*
X151882330Y-86583339D01*
X151923726Y-86581785D01*
X151927064Y-86581722D01*
X151946726Y-86581722D01*
X151950751Y-86580973D01*
X151952026Y-86580855D01*
X151956855Y-86580542D01*
X151985986Y-86579448D01*
X151993533Y-86576206D01*
X151993536Y-86576205D01*
X151997588Y-86574464D01*
X152016423Y-86568742D01*
X152020752Y-86567936D01*
X152020754Y-86567935D01*
X152028831Y-86566431D01*
X152052130Y-86552070D01*
X152063697Y-86546061D01*
X152083064Y-86537740D01*
X152088841Y-86535258D01*
X152093727Y-86531244D01*
X152098916Y-86526055D01*
X152115146Y-86513226D01*
X152117131Y-86512002D01*
X152117132Y-86512002D01*
X152124126Y-86507690D01*
X152142198Y-86483924D01*
X152150109Y-86474862D01*
X152974352Y-85650619D01*
X152977889Y-85647566D01*
X152982269Y-85645425D01*
X153016022Y-85609039D01*
X153018337Y-85606634D01*
X153032248Y-85592723D01*
X153034561Y-85589352D01*
X153035371Y-85588377D01*
X153038570Y-85584733D01*
X153052815Y-85569376D01*
X153058401Y-85563354D01*
X153063080Y-85551626D01*
X153072349Y-85534267D01*
X153079492Y-85523854D01*
X153085811Y-85497227D01*
X153089742Y-85484798D01*
X153097556Y-85465213D01*
X153097557Y-85465207D01*
X153099883Y-85459378D01*
X153100500Y-85453085D01*
X153100500Y-85445745D01*
X153102905Y-85425195D01*
X153103442Y-85422931D01*
X153105340Y-85414934D01*
X153101313Y-85385344D01*
X153100500Y-85373342D01*
X153100500Y-84573676D01*
X153123515Y-84513952D01*
X153177322Y-84454507D01*
X153200012Y-84407676D01*
X153230823Y-84344083D01*
X153230824Y-84344080D01*
X153233588Y-84338375D01*
X153235731Y-84325640D01*
X153250439Y-84238213D01*
X153254997Y-84211120D01*
X153255133Y-84200000D01*
X153236839Y-84072259D01*
X153183428Y-83954788D01*
X153099193Y-83857028D01*
X152990906Y-83786841D01*
X152977388Y-83782798D01*
X152882998Y-83754569D01*
X152867273Y-83749866D01*
X152860934Y-83749827D01*
X152860932Y-83749827D01*
X152801448Y-83749464D01*
X152738231Y-83749078D01*
X152732138Y-83750820D01*
X152732134Y-83750820D01*
X152637728Y-83777802D01*
X152614155Y-83784539D01*
X152505019Y-83853399D01*
X152457836Y-83906824D01*
X152424241Y-83944863D01*
X152419596Y-83950122D01*
X152364754Y-84066932D01*
X152363778Y-84073197D01*
X152363778Y-84073199D01*
X152351075Y-84154788D01*
X152344901Y-84194440D01*
X152361633Y-84322394D01*
X152413605Y-84440510D01*
X152430460Y-84460561D01*
X152478628Y-84517864D01*
X152499500Y-84575132D01*
X152499500Y-85238663D01*
X152478678Y-85295871D01*
X152473433Y-85301596D01*
X151820374Y-85954655D01*
X151765198Y-85980383D01*
X151757441Y-85980722D01*
X150454978Y-85980722D01*
X150397770Y-85959900D01*
X150387559Y-85949822D01*
X150377588Y-85938250D01*
X150269301Y-85868063D01*
X150255783Y-85864020D01*
X150151743Y-85832905D01*
X150151744Y-85832905D01*
X150145668Y-85831088D01*
X150139329Y-85831049D01*
X150139327Y-85831049D01*
X150079843Y-85830686D01*
X150016626Y-85830300D01*
X150010533Y-85832042D01*
X150010529Y-85832042D01*
X149926231Y-85856135D01*
X149892550Y-85865761D01*
X149783414Y-85934621D01*
X149697991Y-86031344D01*
X149643149Y-86148154D01*
X149642173Y-86154419D01*
X149642173Y-86154421D01*
X149625951Y-86258610D01*
X149617321Y-86274276D01*
X149621644Y-86279428D01*
X149626260Y-86298327D01*
X149635630Y-86369978D01*
X149637890Y-86387264D01*
X149624661Y-86446689D01*
X149576330Y-86483708D01*
X149515511Y-86481000D01*
X149486708Y-86461737D01*
X149475078Y-86450107D01*
X149449350Y-86394931D01*
X149449011Y-86387174D01*
X149449011Y-86309868D01*
X149460488Y-86278337D01*
X149450691Y-86262129D01*
X149449011Y-86244918D01*
X149449011Y-84773676D01*
X149472026Y-84713952D01*
X149525833Y-84654507D01*
X149544259Y-84616477D01*
X149579334Y-84544083D01*
X149579335Y-84544080D01*
X149582099Y-84538375D01*
X149603508Y-84411120D01*
X149603644Y-84400000D01*
X149585350Y-84272259D01*
X149531939Y-84154788D01*
X149447704Y-84057028D01*
X149339417Y-83986841D01*
X149215784Y-83949866D01*
X149209446Y-83949827D01*
X149209444Y-83949827D01*
X149168324Y-83949576D01*
X149126487Y-83949321D01*
X149069408Y-83928151D01*
X149039290Y-83875242D01*
X149050228Y-83815353D01*
X149064098Y-83797390D01*
X149081551Y-83779937D01*
X149136727Y-83754209D01*
X149146109Y-83753885D01*
X149167954Y-83754286D01*
X149183388Y-83754569D01*
X149183390Y-83754569D01*
X149189730Y-83754685D01*
X149314230Y-83720742D01*
X149424199Y-83653221D01*
X149428450Y-83648525D01*
X149428452Y-83648523D01*
X149506543Y-83562249D01*
X149506544Y-83562248D01*
X149510797Y-83557549D01*
X149541727Y-83493711D01*
X149564298Y-83447125D01*
X149564299Y-83447122D01*
X149567063Y-83441417D01*
X149588472Y-83314162D01*
X149588608Y-83303042D01*
X149571967Y-83186841D01*
X149571213Y-83181577D01*
X149571213Y-83181576D01*
X149570314Y-83175301D01*
X149527233Y-83080550D01*
X149519528Y-83063603D01*
X149519527Y-83063602D01*
X149516903Y-83057830D01*
X149432668Y-82960070D01*
X149324381Y-82889883D01*
X149310863Y-82885840D01*
X149206823Y-82854725D01*
X149206824Y-82854725D01*
X149200748Y-82852908D01*
X149194409Y-82852869D01*
X149194407Y-82852869D01*
X149134923Y-82852506D01*
X149071706Y-82852120D01*
X149065613Y-82853862D01*
X149065609Y-82853862D01*
X148971203Y-82880844D01*
X148947630Y-82887581D01*
X148838494Y-82956441D01*
X148831043Y-82964878D01*
X148757890Y-83047708D01*
X148753071Y-83053164D01*
X148698229Y-83169974D01*
X148697253Y-83176239D01*
X148697253Y-83176241D01*
X148684041Y-83261100D01*
X148678376Y-83297482D01*
X148678512Y-83298526D01*
X148657766Y-83353425D01*
X148653227Y-83358319D01*
X148651935Y-83359611D01*
X148596759Y-83385339D01*
X148537954Y-83369583D01*
X148503035Y-83319713D01*
X148500002Y-83296678D01*
X148500002Y-81241683D01*
X148501354Y-81226228D01*
X148503286Y-81215271D01*
X148504638Y-81207604D01*
X148503286Y-81199936D01*
X148503286Y-81192151D01*
X148504058Y-81192151D01*
X148503772Y-81178973D01*
X148505271Y-81167586D01*
X148511285Y-81145143D01*
X148522245Y-81118683D01*
X148533863Y-81098561D01*
X148540856Y-81089448D01*
X148550374Y-81080334D01*
X148549828Y-81079788D01*
X148555332Y-81074283D01*
X148561712Y-81069816D01*
X148572560Y-81054323D01*
X148582528Y-81042443D01*
X148748076Y-80876895D01*
X148803252Y-80851167D01*
X148812634Y-80850843D01*
X148834479Y-80851244D01*
X148849913Y-80851527D01*
X148849915Y-80851527D01*
X148856255Y-80851643D01*
X148980755Y-80817700D01*
X149090724Y-80750179D01*
X149094975Y-80745483D01*
X149094977Y-80745481D01*
X149173068Y-80659207D01*
X149173069Y-80659206D01*
X149177322Y-80654507D01*
X149195083Y-80617849D01*
X149230823Y-80544083D01*
X149230824Y-80544080D01*
X149233588Y-80538375D01*
X149235592Y-80526468D01*
X149248372Y-80450500D01*
X149254997Y-80411120D01*
X149255133Y-80400000D01*
X149240016Y-80294440D01*
X149237738Y-80278535D01*
X149237738Y-80278534D01*
X149236839Y-80272259D01*
X149183428Y-80154788D01*
X149164578Y-80132911D01*
X149103336Y-80061836D01*
X149103335Y-80061835D01*
X149099193Y-80057028D01*
X148990906Y-79986841D01*
X148918406Y-79965158D01*
X148869564Y-79928819D01*
X148855507Y-79869584D01*
X148861682Y-79845834D01*
X148862335Y-79844258D01*
X148862336Y-79844256D01*
X148863674Y-79841025D01*
X148869836Y-79815358D01*
X148892272Y-79721906D01*
X148892273Y-79721900D01*
X148893088Y-79718505D01*
X148897419Y-79663479D01*
X148898762Y-79655080D01*
X148899883Y-79652271D01*
X148900500Y-79645978D01*
X148900500Y-79627829D01*
X148900775Y-79620832D01*
X148900897Y-79619285D01*
X148901974Y-79610828D01*
X148903784Y-79600562D01*
X148903784Y-79600560D01*
X148905136Y-79592893D01*
X148901852Y-79574268D01*
X148900500Y-79558814D01*
X148900500Y-77173676D01*
X148923515Y-77113952D01*
X148977322Y-77054507D01*
X148986376Y-77035819D01*
X149030823Y-76944083D01*
X149030824Y-76944080D01*
X149033588Y-76938375D01*
X149040613Y-76896622D01*
X149054426Y-76814512D01*
X149054997Y-76811120D01*
X149055133Y-76800000D01*
X149036839Y-76672259D01*
X148983428Y-76554788D01*
X148899193Y-76457028D01*
X148790906Y-76386841D01*
X148777388Y-76382798D01*
X148673348Y-76351683D01*
X148673349Y-76351683D01*
X148667273Y-76349866D01*
X148660934Y-76349827D01*
X148660932Y-76349827D01*
X148601448Y-76349464D01*
X148538231Y-76349078D01*
X148532138Y-76350820D01*
X148532134Y-76350820D01*
X148463014Y-76370575D01*
X148414155Y-76384539D01*
X148316991Y-76445845D01*
X148257499Y-76458762D01*
X148203621Y-76430416D01*
X148180500Y-76370575D01*
X148180500Y-75830252D01*
X148168867Y-75771769D01*
X148124552Y-75705448D01*
X148058231Y-75661133D01*
X148049631Y-75659422D01*
X148049630Y-75659422D01*
X148004031Y-75650352D01*
X148004032Y-75650352D01*
X147999748Y-75649500D01*
X145960252Y-75649500D01*
X145955968Y-75650352D01*
X145955969Y-75650352D01*
X145910370Y-75659422D01*
X145910369Y-75659422D01*
X145901769Y-75661133D01*
X145835448Y-75705448D01*
X145791133Y-75771769D01*
X145779500Y-75830252D01*
X145779500Y-77369748D01*
X145791133Y-77428231D01*
X145835448Y-77494552D01*
X145901769Y-77538867D01*
X145910369Y-77540578D01*
X145910370Y-77540578D01*
X145943507Y-77547169D01*
X145960252Y-77550500D01*
X147999748Y-77550500D01*
X148016493Y-77547169D01*
X148049630Y-77540578D01*
X148049631Y-77540578D01*
X148058231Y-77538867D01*
X148124552Y-77494552D01*
X148136501Y-77476669D01*
X148185596Y-77440672D01*
X148246345Y-77444655D01*
X148290322Y-77486754D01*
X148299500Y-77526117D01*
X148299500Y-77831902D01*
X148278678Y-77889110D01*
X148225955Y-77919550D01*
X148166000Y-77908978D01*
X148160218Y-77905337D01*
X148144909Y-77894855D01*
X148056332Y-77855695D01*
X148043562Y-77852214D01*
X148027141Y-77850299D01*
X148021991Y-77850000D01*
X147145694Y-77850000D01*
X147133671Y-77854376D01*
X147130000Y-77860734D01*
X147130000Y-79934306D01*
X147134376Y-79946329D01*
X147140734Y-79950000D01*
X147810163Y-79950000D01*
X147867371Y-79970822D01*
X147897811Y-80023545D01*
X147887239Y-80083500D01*
X147873096Y-80101933D01*
X147658059Y-80316970D01*
X147646174Y-80326942D01*
X147630684Y-80337788D01*
X147620235Y-80352711D01*
X147615012Y-80359455D01*
X147550380Y-80435129D01*
X147484544Y-80542563D01*
X147483209Y-80545787D01*
X147483206Y-80545792D01*
X147475317Y-80564839D01*
X147436325Y-80658974D01*
X147406911Y-80781494D01*
X147406637Y-80784976D01*
X147402580Y-80836526D01*
X147401237Y-80844923D01*
X147400117Y-80847729D01*
X147399500Y-80854022D01*
X147399500Y-80872157D01*
X147399225Y-80879142D01*
X147399101Y-80880717D01*
X147398024Y-80889186D01*
X147394864Y-80907108D01*
X147396216Y-80914775D01*
X147398148Y-80925732D01*
X147399500Y-80941187D01*
X147399500Y-83194034D01*
X147378678Y-83251242D01*
X147325955Y-83281682D01*
X147266000Y-83271110D01*
X147252538Y-83261490D01*
X147248693Y-83257028D01*
X147140406Y-83186841D01*
X147016773Y-83149866D01*
X147010434Y-83149827D01*
X147010432Y-83149827D01*
X146950948Y-83149464D01*
X146887731Y-83149078D01*
X146881638Y-83150820D01*
X146881634Y-83150820D01*
X146767737Y-83183372D01*
X146707009Y-83179072D01*
X146663253Y-83136743D01*
X146654280Y-83097798D01*
X146654280Y-81510652D01*
X146677295Y-81450928D01*
X146731102Y-81391483D01*
X146740695Y-81371683D01*
X146784603Y-81281059D01*
X146784604Y-81281056D01*
X146787368Y-81275351D01*
X146808777Y-81148096D01*
X146808913Y-81136976D01*
X146790619Y-81009235D01*
X146752652Y-80925732D01*
X146739833Y-80897537D01*
X146739832Y-80897536D01*
X146737208Y-80891764D01*
X146652973Y-80794004D01*
X146544686Y-80723817D01*
X146531168Y-80719774D01*
X146427128Y-80688659D01*
X146427129Y-80688659D01*
X146421053Y-80686842D01*
X146414714Y-80686803D01*
X146414712Y-80686803D01*
X146355228Y-80686440D01*
X146292011Y-80686054D01*
X146285918Y-80687796D01*
X146285914Y-80687796D01*
X146217742Y-80707280D01*
X146167935Y-80721515D01*
X146058799Y-80790375D01*
X146033194Y-80819367D01*
X145979012Y-80880717D01*
X145973376Y-80887098D01*
X145918534Y-81003908D01*
X145917558Y-81010173D01*
X145917558Y-81010175D01*
X145900664Y-81118683D01*
X145898681Y-81131416D01*
X145915413Y-81259370D01*
X145967385Y-81377486D01*
X146029118Y-81450926D01*
X146032408Y-81454840D01*
X146053280Y-81512108D01*
X146053280Y-85012594D01*
X146051928Y-85028048D01*
X146048644Y-85046673D01*
X146049996Y-85054341D01*
X146049996Y-85054342D01*
X146051804Y-85064597D01*
X146052882Y-85073067D01*
X146054869Y-85098308D01*
X146060691Y-85172286D01*
X146061506Y-85175681D01*
X146061507Y-85175687D01*
X146073353Y-85225028D01*
X146090105Y-85294805D01*
X146091444Y-85298036D01*
X146091444Y-85298038D01*
X146125133Y-85379370D01*
X146138323Y-85411215D01*
X146204158Y-85518649D01*
X146235825Y-85555725D01*
X146240009Y-85560624D01*
X146244997Y-85567511D01*
X146246190Y-85570289D01*
X146250204Y-85575175D01*
X146263034Y-85588005D01*
X146267775Y-85593135D01*
X146268788Y-85594321D01*
X146274019Y-85601076D01*
X146284461Y-85615989D01*
X146287007Y-85617771D01*
X146288789Y-85620317D01*
X146295172Y-85624786D01*
X146300679Y-85630295D01*
X146300133Y-85630841D01*
X146309645Y-85639949D01*
X146316638Y-85649062D01*
X146328256Y-85669184D01*
X146339216Y-85695644D01*
X146345230Y-85718087D01*
X146346729Y-85729474D01*
X146346443Y-85742652D01*
X146347215Y-85742652D01*
X146347215Y-85750437D01*
X146345863Y-85758105D01*
X146347215Y-85765772D01*
X146349147Y-85776729D01*
X146350499Y-85792184D01*
X146350499Y-87289508D01*
X146329677Y-87346716D01*
X146276954Y-87377156D01*
X146236000Y-87374776D01*
X146167273Y-87354222D01*
X146160934Y-87354183D01*
X146160932Y-87354183D01*
X146110816Y-87353877D01*
X146053736Y-87332706D01*
X146048428Y-87327812D01*
X145783032Y-87062417D01*
X145773059Y-87050531D01*
X145766681Y-87041422D01*
X145766679Y-87041420D01*
X145762211Y-87035039D01*
X145755829Y-87030570D01*
X145750328Y-87025069D01*
X145750876Y-87024521D01*
X145741353Y-87015406D01*
X145734360Y-87006292D01*
X145722746Y-86986177D01*
X145711781Y-86959704D01*
X145705770Y-86937273D01*
X145705443Y-86934787D01*
X145704270Y-86925879D01*
X145704559Y-86912703D01*
X145703783Y-86912703D01*
X145703783Y-86904919D01*
X145705136Y-86897249D01*
X145703764Y-86889464D01*
X145701852Y-86878625D01*
X145700500Y-86863170D01*
X145700500Y-83973676D01*
X145723515Y-83913952D01*
X145777322Y-83854507D01*
X145808435Y-83790290D01*
X145830823Y-83744083D01*
X145830824Y-83744080D01*
X145833588Y-83738375D01*
X145854997Y-83611120D01*
X145855133Y-83600000D01*
X145836839Y-83472259D01*
X145783428Y-83354788D01*
X145734050Y-83297482D01*
X145703336Y-83261836D01*
X145703335Y-83261835D01*
X145699193Y-83257028D01*
X145590906Y-83186841D01*
X145467273Y-83149866D01*
X145460934Y-83149827D01*
X145460932Y-83149827D01*
X145401448Y-83149464D01*
X145338231Y-83149078D01*
X145332138Y-83150820D01*
X145332134Y-83150820D01*
X145264456Y-83170163D01*
X145203729Y-83165863D01*
X145159972Y-83123534D01*
X145150999Y-83084589D01*
X145150999Y-79060734D01*
X145680000Y-79060734D01*
X145680000Y-79691943D01*
X145680311Y-79697184D01*
X145682323Y-79714096D01*
X145685824Y-79726834D01*
X145725144Y-79815358D01*
X145734293Y-79828669D01*
X145801757Y-79896016D01*
X145815092Y-79905145D01*
X145903668Y-79944305D01*
X145916438Y-79947786D01*
X145932859Y-79949701D01*
X145938009Y-79950000D01*
X146814306Y-79950000D01*
X146826329Y-79945624D01*
X146830000Y-79939266D01*
X146830000Y-79065694D01*
X146825624Y-79053671D01*
X146819266Y-79050000D01*
X145695694Y-79050000D01*
X145683671Y-79054376D01*
X145680000Y-79060734D01*
X145150999Y-79060734D01*
X145150999Y-78108009D01*
X145680000Y-78108009D01*
X145680000Y-78734306D01*
X145684376Y-78746329D01*
X145690734Y-78750000D01*
X146814306Y-78750000D01*
X146826329Y-78745624D01*
X146830000Y-78739266D01*
X146830000Y-77865694D01*
X146825624Y-77853671D01*
X146819266Y-77850000D01*
X145938057Y-77850000D01*
X145932816Y-77850311D01*
X145915904Y-77852323D01*
X145903166Y-77855824D01*
X145814642Y-77895144D01*
X145801331Y-77904293D01*
X145733984Y-77971757D01*
X145724855Y-77985092D01*
X145685695Y-78073668D01*
X145682214Y-78086438D01*
X145680299Y-78102859D01*
X145680000Y-78108009D01*
X145150999Y-78108009D01*
X145150999Y-73581557D01*
X145151342Y-73576893D01*
X145152924Y-73572284D01*
X145151062Y-73522677D01*
X145150999Y-73519339D01*
X145150999Y-73499678D01*
X145150250Y-73495653D01*
X145150132Y-73494378D01*
X145149818Y-73489537D01*
X145149428Y-73479148D01*
X145148725Y-73460417D01*
X145145482Y-73452869D01*
X145145481Y-73452865D01*
X145143743Y-73448821D01*
X145138018Y-73429978D01*
X145137212Y-73425651D01*
X145135708Y-73417573D01*
X145121347Y-73394274D01*
X145115338Y-73382707D01*
X145107017Y-73363340D01*
X145104535Y-73357563D01*
X145100521Y-73352677D01*
X145095332Y-73347488D01*
X145082503Y-73331258D01*
X145081279Y-73329273D01*
X145081279Y-73329272D01*
X145076967Y-73322278D01*
X145053201Y-73304206D01*
X145044139Y-73296295D01*
X144689130Y-72941286D01*
X144663402Y-72886110D01*
X144679158Y-72827305D01*
X144705490Y-72802513D01*
X144790724Y-72750179D01*
X144794975Y-72745483D01*
X144794977Y-72745481D01*
X144873068Y-72659207D01*
X144873069Y-72659206D01*
X144877322Y-72654507D01*
X144883968Y-72640789D01*
X144930823Y-72544083D01*
X144930824Y-72544080D01*
X144933588Y-72538375D01*
X144954997Y-72411120D01*
X144955133Y-72400000D01*
X144936839Y-72272259D01*
X144907094Y-72206838D01*
X144886053Y-72160561D01*
X144886052Y-72160560D01*
X144883428Y-72154788D01*
X144834993Y-72098576D01*
X144803336Y-72061836D01*
X144803335Y-72061835D01*
X144799193Y-72057028D01*
X144690906Y-71986841D01*
X144663999Y-71978794D01*
X144615156Y-71942454D01*
X144600500Y-71893526D01*
X144600500Y-71648039D01*
X144621322Y-71590831D01*
X144674045Y-71560391D01*
X144734000Y-71570963D01*
X144745025Y-71578483D01*
X144757120Y-71588138D01*
X144765480Y-71593403D01*
X144918105Y-71667185D01*
X144927443Y-71670473D01*
X145024709Y-71692929D01*
X145037406Y-71691370D01*
X145039716Y-71688893D01*
X145040000Y-71687498D01*
X145040000Y-70770734D01*
X145340000Y-70770734D01*
X145340000Y-71680765D01*
X145344376Y-71692788D01*
X145347308Y-71694481D01*
X145348730Y-71694444D01*
X145452557Y-71670473D01*
X145461895Y-71667185D01*
X145614520Y-71593403D01*
X145622886Y-71588134D01*
X145755368Y-71482376D01*
X145762376Y-71475368D01*
X145868134Y-71342886D01*
X145873403Y-71334520D01*
X145947188Y-71181889D01*
X145950472Y-71172564D01*
X145988878Y-71006210D01*
X145989933Y-70998844D01*
X145990000Y-70996508D01*
X145990000Y-70775694D01*
X145985624Y-70763671D01*
X145979266Y-70760000D01*
X145355694Y-70760000D01*
X145343671Y-70764376D01*
X145340000Y-70770734D01*
X145040000Y-70770734D01*
X145040000Y-69539235D01*
X145037549Y-69532502D01*
X145340000Y-69532502D01*
X145340000Y-70444306D01*
X145344376Y-70456329D01*
X145350734Y-70460000D01*
X145974305Y-70460000D01*
X145986328Y-70455624D01*
X145989999Y-70449266D01*
X145989999Y-70223491D01*
X145989932Y-70221153D01*
X145988879Y-70213796D01*
X145950472Y-70047436D01*
X145947188Y-70038111D01*
X145873403Y-69885480D01*
X145868134Y-69877114D01*
X145762376Y-69744632D01*
X145755368Y-69737624D01*
X145622886Y-69631866D01*
X145614520Y-69626597D01*
X145461895Y-69552815D01*
X145452557Y-69549527D01*
X145355291Y-69527071D01*
X145342594Y-69528630D01*
X145340284Y-69531107D01*
X145340000Y-69532502D01*
X145037549Y-69532502D01*
X145035624Y-69527212D01*
X145032692Y-69525519D01*
X145031270Y-69525556D01*
X144927443Y-69549527D01*
X144918105Y-69552815D01*
X144765480Y-69626597D01*
X144757120Y-69631862D01*
X144745025Y-69641517D01*
X144687325Y-69660934D01*
X144630643Y-69638720D01*
X144601501Y-69585269D01*
X144600500Y-69571961D01*
X144600500Y-68626336D01*
X144621322Y-68569128D01*
X144626568Y-68563403D01*
X144863405Y-68326567D01*
X144918580Y-68300839D01*
X144926337Y-68300500D01*
X146120433Y-68300500D01*
X146177641Y-68321322D01*
X146208081Y-68374045D01*
X146197509Y-68434000D01*
X146188611Y-68446709D01*
X146162962Y-68477276D01*
X146158067Y-68484425D01*
X146065424Y-68652941D01*
X146062011Y-68660904D01*
X146003861Y-68844215D01*
X146002062Y-68852681D01*
X145980625Y-69043795D01*
X145980504Y-69052454D01*
X145996597Y-69244092D01*
X145998161Y-69252612D01*
X146051167Y-69437469D01*
X146054356Y-69445523D01*
X146142260Y-69616565D01*
X146146955Y-69623851D01*
X146176808Y-69661516D01*
X146187702Y-69668218D01*
X146192921Y-69667447D01*
X147610859Y-68249509D01*
X147616265Y-68237916D01*
X147614815Y-68232507D01*
X147589298Y-68211397D01*
X147582120Y-68206555D01*
X147412960Y-68115091D01*
X147404964Y-68111730D01*
X147221262Y-68054865D01*
X147212768Y-68053121D01*
X147021524Y-68033020D01*
X147008499Y-68032929D01*
X147008512Y-68031140D01*
X146955885Y-68017232D01*
X146920795Y-67967483D01*
X146925893Y-67906817D01*
X146943751Y-67881220D01*
X147177787Y-67647185D01*
X147698405Y-67126567D01*
X147753580Y-67100839D01*
X147761337Y-67100500D01*
X151038663Y-67100500D01*
X151095871Y-67121322D01*
G37*
G04 #@! TD.AperFunction*
G04 #@! TA.AperFunction,NonConductor*
G36*
X141697965Y-87022936D02*
G01*
X142196446Y-87521418D01*
X142673433Y-87998405D01*
X142699161Y-88053580D01*
X142699500Y-88061337D01*
X142699500Y-89659663D01*
X142678678Y-89716871D01*
X142625955Y-89747311D01*
X142566000Y-89736739D01*
X142547567Y-89722596D01*
X141810619Y-88985648D01*
X141807566Y-88982111D01*
X141805425Y-88977731D01*
X141769039Y-88943978D01*
X141766634Y-88941663D01*
X141752723Y-88927752D01*
X141749352Y-88925439D01*
X141748377Y-88924629D01*
X141744733Y-88921430D01*
X141729376Y-88907185D01*
X141723354Y-88901599D01*
X141711626Y-88896920D01*
X141694267Y-88887651D01*
X141683854Y-88880508D01*
X141674485Y-88878285D01*
X141657227Y-88874189D01*
X141644805Y-88870261D01*
X141640257Y-88868447D01*
X141594833Y-88827912D01*
X141589703Y-88816511D01*
X141587107Y-88809455D01*
X141553881Y-88719148D01*
X141446774Y-88546401D01*
X141307119Y-88398720D01*
X141140621Y-88282137D01*
X140954081Y-88201414D01*
X140949669Y-88200492D01*
X140949665Y-88200491D01*
X140833527Y-88176229D01*
X140755120Y-88159849D01*
X140748461Y-88159500D01*
X139269000Y-88159500D01*
X139211792Y-88138678D01*
X139181352Y-88085955D01*
X139180000Y-88070500D01*
X139180000Y-87709500D01*
X139200822Y-87652292D01*
X139253545Y-87621852D01*
X139269000Y-87620500D01*
X140700800Y-87620500D01*
X140790136Y-87611426D01*
X140847729Y-87605576D01*
X140847731Y-87605576D01*
X140852216Y-87605120D01*
X141021544Y-87552056D01*
X141041868Y-87545687D01*
X141041870Y-87545686D01*
X141046172Y-87544338D01*
X141223944Y-87445797D01*
X141378271Y-87313523D01*
X141389999Y-87298404D01*
X141484115Y-87177069D01*
X141502848Y-87152919D01*
X141504834Y-87148882D01*
X141504837Y-87148878D01*
X141547380Y-87062417D01*
X141555176Y-87046574D01*
X141599116Y-87004437D01*
X141659862Y-87000402D01*
X141697965Y-87022936D01*
G37*
G04 #@! TD.AperFunction*
G04 #@! TA.AperFunction,NonConductor*
G36*
X157434006Y-89594974D02*
G01*
X157458598Y-89620979D01*
X157553226Y-89773599D01*
X157692881Y-89921280D01*
X157859379Y-90037863D01*
X158045919Y-90118586D01*
X158050331Y-90119508D01*
X158050335Y-90119509D01*
X158163038Y-90143053D01*
X158244880Y-90160151D01*
X158251539Y-90160500D01*
X159731000Y-90160500D01*
X159788208Y-90181322D01*
X159818648Y-90234045D01*
X159820000Y-90249500D01*
X159820000Y-90610500D01*
X159799178Y-90667708D01*
X159746455Y-90698148D01*
X159731000Y-90699500D01*
X158299200Y-90699500D01*
X158209864Y-90708574D01*
X158152271Y-90714424D01*
X158152269Y-90714424D01*
X158147784Y-90714880D01*
X158072527Y-90738464D01*
X157958132Y-90774313D01*
X157958130Y-90774314D01*
X157953828Y-90775662D01*
X157776056Y-90874203D01*
X157621729Y-91006477D01*
X157497152Y-91167081D01*
X157407413Y-91349455D01*
X157406278Y-91353812D01*
X157406277Y-91353815D01*
X157372226Y-91484539D01*
X157356178Y-91546148D01*
X157355942Y-91550646D01*
X157355942Y-91550648D01*
X157350737Y-91649981D01*
X157345541Y-91749126D01*
X157375935Y-91950097D01*
X157377490Y-91954324D01*
X157377491Y-91954327D01*
X157397179Y-92007837D01*
X157446119Y-92140852D01*
X157553226Y-92313599D01*
X157692881Y-92461280D01*
X157859379Y-92577863D01*
X158045919Y-92658586D01*
X158050331Y-92659508D01*
X158050335Y-92659509D01*
X158163038Y-92683053D01*
X158244880Y-92700151D01*
X158251539Y-92700500D01*
X159731000Y-92700500D01*
X159788208Y-92721322D01*
X159818648Y-92774045D01*
X159820000Y-92789500D01*
X159820000Y-93051000D01*
X159799178Y-93108208D01*
X159746455Y-93138648D01*
X159731000Y-93140000D01*
X158565694Y-93140000D01*
X158553671Y-93144376D01*
X158550000Y-93150734D01*
X158550000Y-94074306D01*
X158554376Y-94086329D01*
X158560734Y-94090000D01*
X159731000Y-94090000D01*
X159788208Y-94110822D01*
X159818648Y-94163545D01*
X159820000Y-94179000D01*
X159820000Y-94301000D01*
X159799178Y-94358208D01*
X159746455Y-94388648D01*
X159731000Y-94390000D01*
X158565694Y-94390000D01*
X158553671Y-94394376D01*
X158550000Y-94400734D01*
X158550000Y-95324306D01*
X158554376Y-95336329D01*
X158560734Y-95340000D01*
X159731000Y-95340000D01*
X159788208Y-95360822D01*
X159818648Y-95413545D01*
X159820000Y-95429000D01*
X159820000Y-95690500D01*
X159799178Y-95747708D01*
X159746455Y-95778148D01*
X159731000Y-95779500D01*
X158299200Y-95779500D01*
X158209864Y-95788574D01*
X158152271Y-95794424D01*
X158152269Y-95794424D01*
X158147784Y-95794880D01*
X158068063Y-95819863D01*
X157958132Y-95854313D01*
X157958130Y-95854314D01*
X157953828Y-95855662D01*
X157893799Y-95888937D01*
X157796617Y-95942806D01*
X157776056Y-95954203D01*
X157621729Y-96086477D01*
X157497152Y-96247081D01*
X157407413Y-96429455D01*
X157406278Y-96433812D01*
X157406277Y-96433815D01*
X157375626Y-96551486D01*
X157341056Y-96601598D01*
X157282362Y-96617765D01*
X157227008Y-96592422D01*
X157200895Y-96537427D01*
X157200500Y-96529052D01*
X157200500Y-94780256D01*
X157221322Y-94723048D01*
X157274045Y-94692608D01*
X157334000Y-94703180D01*
X157370519Y-94743419D01*
X157390323Y-94786975D01*
X157394528Y-94794287D01*
X157511066Y-94958576D01*
X157516577Y-94964962D01*
X157662085Y-95104255D01*
X157668696Y-95109476D01*
X157837914Y-95218739D01*
X157845413Y-95222626D01*
X158032234Y-95297917D01*
X158040316Y-95300311D01*
X158237535Y-95338825D01*
X158246329Y-95335624D01*
X158250000Y-95329266D01*
X158250000Y-94405694D01*
X158245624Y-94393671D01*
X158239266Y-94390000D01*
X158159000Y-94390000D01*
X158101792Y-94369178D01*
X158071352Y-94316455D01*
X158070000Y-94301000D01*
X158070000Y-94179000D01*
X158090822Y-94121792D01*
X158143545Y-94091352D01*
X158159000Y-94090000D01*
X158234306Y-94090000D01*
X158246329Y-94085624D01*
X158250000Y-94079266D01*
X158250000Y-93160231D01*
X158245624Y-93148208D01*
X158240788Y-93145416D01*
X158145261Y-93154530D01*
X158136989Y-93156123D01*
X157943699Y-93212827D01*
X157935875Y-93215957D01*
X157756794Y-93308189D01*
X157749701Y-93312744D01*
X157591305Y-93437166D01*
X157585189Y-93442990D01*
X157453175Y-93595122D01*
X157448277Y-93601990D01*
X157366537Y-93743281D01*
X157319867Y-93782373D01*
X157258987Y-93782320D01*
X157212385Y-93743147D01*
X157200500Y-93698714D01*
X157200500Y-92781319D01*
X157200843Y-92776655D01*
X157202425Y-92772046D01*
X157200563Y-92722440D01*
X157200500Y-92719102D01*
X157200500Y-92699440D01*
X157199751Y-92695415D01*
X157199633Y-92694140D01*
X157199319Y-92689299D01*
X157199180Y-92685576D01*
X157198226Y-92660180D01*
X157194984Y-92652633D01*
X157194983Y-92652630D01*
X157193242Y-92648578D01*
X157187520Y-92629743D01*
X157186714Y-92625414D01*
X157186713Y-92625412D01*
X157185209Y-92617335D01*
X157170848Y-92594036D01*
X157164839Y-92582469D01*
X157156518Y-92563102D01*
X157154036Y-92557325D01*
X157150022Y-92552439D01*
X157144833Y-92547250D01*
X157132004Y-92531020D01*
X157130780Y-92529035D01*
X157130780Y-92529034D01*
X157126468Y-92522040D01*
X157102702Y-92503968D01*
X157093640Y-92496057D01*
X157078301Y-92480718D01*
X157053071Y-92424998D01*
X157052784Y-92425039D01*
X157052643Y-92424051D01*
X157052642Y-92424049D01*
X157037294Y-92316874D01*
X157035389Y-92303574D01*
X157035389Y-92303573D01*
X157034490Y-92297298D01*
X156999946Y-92221322D01*
X156983704Y-92185600D01*
X156983703Y-92185599D01*
X156981079Y-92179827D01*
X156896844Y-92082067D01*
X156788557Y-92011880D01*
X156775039Y-92007837D01*
X156670999Y-91976722D01*
X156671000Y-91976722D01*
X156664924Y-91974905D01*
X156658585Y-91974866D01*
X156658583Y-91974866D01*
X156599099Y-91974503D01*
X156535882Y-91974117D01*
X156529789Y-91975859D01*
X156529785Y-91975859D01*
X156443569Y-92000500D01*
X156411806Y-92009578D01*
X156302670Y-92078438D01*
X156217247Y-92175161D01*
X156162405Y-92291971D01*
X156157217Y-92325289D01*
X156127844Y-92378610D01*
X156068735Y-92400593D01*
X155981013Y-92400057D01*
X155974920Y-92401799D01*
X155974916Y-92401799D01*
X155898763Y-92423564D01*
X155856937Y-92435518D01*
X155747801Y-92504378D01*
X155726952Y-92527985D01*
X155668617Y-92594037D01*
X155662378Y-92601101D01*
X155607536Y-92717911D01*
X155606560Y-92724176D01*
X155606560Y-92724178D01*
X155596390Y-92789500D01*
X155587683Y-92845419D01*
X155604415Y-92973373D01*
X155656387Y-93091489D01*
X155660466Y-93096341D01*
X155660651Y-93096639D01*
X155673204Y-93156210D01*
X155651802Y-93202583D01*
X155570576Y-93294553D01*
X155515734Y-93411363D01*
X155514758Y-93417628D01*
X155514758Y-93417630D01*
X155504737Y-93481995D01*
X155495881Y-93538871D01*
X155503237Y-93595122D01*
X155509987Y-93646740D01*
X155512613Y-93666825D01*
X155564585Y-93784941D01*
X155647619Y-93883722D01*
X155683806Y-93907810D01*
X155755040Y-93955227D01*
X155754100Y-93956640D01*
X155791486Y-93994684D01*
X155799500Y-94031592D01*
X155799500Y-94346125D01*
X155778678Y-94403333D01*
X155725955Y-94433773D01*
X155666000Y-94423201D01*
X155647567Y-94409058D01*
X155282775Y-94044266D01*
X155257545Y-93988546D01*
X155257258Y-93988587D01*
X155257117Y-93987599D01*
X155257116Y-93987597D01*
X155242882Y-93888206D01*
X155239863Y-93867122D01*
X155239863Y-93867121D01*
X155238964Y-93860846D01*
X155189968Y-93753085D01*
X155188178Y-93749148D01*
X155188177Y-93749147D01*
X155185553Y-93743375D01*
X155161047Y-93714934D01*
X155105461Y-93650423D01*
X155105460Y-93650422D01*
X155101318Y-93645615D01*
X154993031Y-93575428D01*
X154984248Y-93572801D01*
X154875473Y-93540270D01*
X154875474Y-93540270D01*
X154869398Y-93538453D01*
X154863059Y-93538414D01*
X154863057Y-93538414D01*
X154803573Y-93538051D01*
X154740356Y-93537665D01*
X154734263Y-93539407D01*
X154734259Y-93539407D01*
X154639853Y-93566389D01*
X154616280Y-93573126D01*
X154507144Y-93641986D01*
X154462664Y-93692350D01*
X154456208Y-93699660D01*
X154402732Y-93728756D01*
X154343064Y-93716671D01*
X154305124Y-93669059D01*
X154300500Y-93640745D01*
X154300500Y-90449430D01*
X154321322Y-90392222D01*
X154374045Y-90361782D01*
X154438816Y-90375343D01*
X154480387Y-90403015D01*
X154480390Y-90403017D01*
X154485670Y-90406531D01*
X154491723Y-90408422D01*
X154491725Y-90408423D01*
X154513107Y-90415103D01*
X154608843Y-90445013D01*
X154658369Y-90445921D01*
X154731522Y-90447262D01*
X154731524Y-90447262D01*
X154737865Y-90447378D01*
X154862365Y-90413435D01*
X154882994Y-90400769D01*
X154942639Y-90388579D01*
X154997690Y-90419346D01*
X155055579Y-90488214D01*
X155055584Y-90488219D01*
X155059663Y-90493071D01*
X155167084Y-90564576D01*
X155254168Y-90591783D01*
X155283439Y-90600928D01*
X155331835Y-90637863D01*
X155345891Y-90686968D01*
X155345876Y-90688176D01*
X155344901Y-90694440D01*
X155361633Y-90822394D01*
X155413605Y-90940510D01*
X155496639Y-91039291D01*
X155604060Y-91110796D01*
X155610113Y-91112687D01*
X155610115Y-91112688D01*
X155626158Y-91117700D01*
X155727233Y-91149278D01*
X155776759Y-91150186D01*
X155849912Y-91151527D01*
X155849914Y-91151527D01*
X155856255Y-91151643D01*
X155980755Y-91117700D01*
X156090724Y-91050179D01*
X156094975Y-91045483D01*
X156094977Y-91045481D01*
X156173068Y-90959207D01*
X156173069Y-90959206D01*
X156177322Y-90954507D01*
X156202327Y-90902897D01*
X156230823Y-90844083D01*
X156230824Y-90844080D01*
X156233588Y-90838375D01*
X156235886Y-90824720D01*
X156249599Y-90743206D01*
X156254997Y-90711120D01*
X156255063Y-90705698D01*
X156255264Y-90705167D01*
X156255345Y-90704263D01*
X156255597Y-90704286D01*
X156276579Y-90648748D01*
X156281123Y-90643848D01*
X157320025Y-89604946D01*
X157375201Y-89579218D01*
X157434006Y-89594974D01*
G37*
G04 #@! TD.AperFunction*
G04 #@! TA.AperFunction,NonConductor*
G36*
X151090852Y-95864051D02*
G01*
X151121292Y-95916774D01*
X151110720Y-95976729D01*
X151096577Y-95995162D01*
X150568063Y-96523676D01*
X150512887Y-96549404D01*
X150504587Y-96549741D01*
X150492597Y-96549668D01*
X150454583Y-96549436D01*
X150448490Y-96551178D01*
X150448486Y-96551178D01*
X150362172Y-96575847D01*
X150330507Y-96584897D01*
X150221371Y-96653757D01*
X150149283Y-96735381D01*
X150139697Y-96746235D01*
X150086221Y-96775331D01*
X150029316Y-96763028D01*
X150028970Y-96763777D01*
X150025618Y-96762228D01*
X150024583Y-96762004D01*
X150017894Y-96757669D01*
X150004376Y-96753626D01*
X149900336Y-96722511D01*
X149900337Y-96722511D01*
X149894261Y-96720694D01*
X149887922Y-96720655D01*
X149887920Y-96720655D01*
X149828436Y-96720292D01*
X149765219Y-96719906D01*
X149759126Y-96721648D01*
X149759122Y-96721648D01*
X149674575Y-96745812D01*
X149641143Y-96755367D01*
X149536992Y-96821082D01*
X149477499Y-96833999D01*
X149423621Y-96805653D01*
X149400500Y-96745812D01*
X149400500Y-96061337D01*
X149421322Y-96004129D01*
X149426567Y-95998404D01*
X149555675Y-95869296D01*
X149610851Y-95843568D01*
X149618608Y-95843229D01*
X151033644Y-95843229D01*
X151090852Y-95864051D01*
G37*
G04 #@! TD.AperFunction*
G04 #@! TA.AperFunction,NonConductor*
G36*
X152352023Y-96470833D02*
G01*
X152382463Y-96523556D01*
X152375378Y-96576835D01*
X152339100Y-96654105D01*
X152338124Y-96660370D01*
X152338124Y-96660372D01*
X152332904Y-96693899D01*
X152303529Y-96747223D01*
X152246750Y-96769189D01*
X152219467Y-96765476D01*
X152167273Y-96749866D01*
X152160934Y-96749827D01*
X152160932Y-96749827D01*
X152101448Y-96749464D01*
X152038231Y-96749078D01*
X152032138Y-96750820D01*
X152032134Y-96750820D01*
X151946373Y-96775331D01*
X151914155Y-96784539D01*
X151805019Y-96853399D01*
X151752947Y-96912359D01*
X151730114Y-96938213D01*
X151719596Y-96950122D01*
X151664754Y-97066932D01*
X151663778Y-97073197D01*
X151663778Y-97073199D01*
X151652686Y-97144441D01*
X151644901Y-97194440D01*
X151661633Y-97322394D01*
X151713605Y-97440510D01*
X151796639Y-97539291D01*
X151904060Y-97610796D01*
X151910113Y-97612687D01*
X151910115Y-97612688D01*
X151937556Y-97621261D01*
X152027233Y-97649278D01*
X152054131Y-97649771D01*
X152090213Y-97650433D01*
X152151514Y-97676485D01*
X152273433Y-97798404D01*
X152299161Y-97853580D01*
X152299500Y-97861337D01*
X152299500Y-98058297D01*
X152278678Y-98115505D01*
X152225955Y-98145945D01*
X152162093Y-98132981D01*
X152096227Y-98090290D01*
X152096228Y-98090290D01*
X152090906Y-98086841D01*
X152077388Y-98082798D01*
X152029089Y-98068353D01*
X151967273Y-98049866D01*
X151960934Y-98049827D01*
X151960932Y-98049827D01*
X151901448Y-98049464D01*
X151838231Y-98049078D01*
X151832138Y-98050820D01*
X151832134Y-98050820D01*
X151737728Y-98077802D01*
X151714155Y-98084539D01*
X151605019Y-98153399D01*
X151600821Y-98158153D01*
X151600818Y-98158155D01*
X151590873Y-98169415D01*
X151537396Y-98198511D01*
X151524165Y-98199500D01*
X151317497Y-98199500D01*
X151260289Y-98178678D01*
X151254564Y-98173433D01*
X150650044Y-97568913D01*
X150624316Y-97513737D01*
X150640072Y-97454932D01*
X150685488Y-97422982D01*
X150685169Y-97422245D01*
X150688719Y-97420709D01*
X150689563Y-97420115D01*
X150690990Y-97419726D01*
X150690992Y-97419725D01*
X150697107Y-97418058D01*
X150736943Y-97393599D01*
X150801672Y-97353855D01*
X150807076Y-97350537D01*
X150811327Y-97345841D01*
X150811329Y-97345839D01*
X150889420Y-97259565D01*
X150889421Y-97259564D01*
X150893674Y-97254865D01*
X150912203Y-97216622D01*
X150947175Y-97144441D01*
X150947176Y-97144438D01*
X150949940Y-97138733D01*
X150971349Y-97011478D01*
X150971415Y-97006057D01*
X150971616Y-97005526D01*
X150971697Y-97004621D01*
X150971949Y-97004644D01*
X150992931Y-96949107D01*
X150997475Y-96944207D01*
X151465604Y-96476078D01*
X151520780Y-96450350D01*
X151528537Y-96450011D01*
X152294815Y-96450011D01*
X152352023Y-96470833D01*
G37*
G04 #@! TD.AperFunction*
G04 #@! TA.AperFunction,NonConductor*
G36*
X157334000Y-96972422D02*
G01*
X157373133Y-97019058D01*
X157375348Y-97026214D01*
X157375935Y-97030097D01*
X157446119Y-97220852D01*
X157553226Y-97393599D01*
X157692881Y-97541280D01*
X157785021Y-97605797D01*
X157849708Y-97651091D01*
X157859379Y-97657863D01*
X158045919Y-97738586D01*
X158050331Y-97739508D01*
X158050335Y-97739509D01*
X158163038Y-97763053D01*
X158244880Y-97780151D01*
X158251539Y-97780500D01*
X159731000Y-97780500D01*
X159788208Y-97801322D01*
X159818648Y-97854045D01*
X159820000Y-97869500D01*
X159820000Y-98230500D01*
X159799178Y-98287708D01*
X159746455Y-98318148D01*
X159731000Y-98319500D01*
X158299200Y-98319500D01*
X158209864Y-98328574D01*
X158152271Y-98334424D01*
X158152269Y-98334424D01*
X158147784Y-98334880D01*
X158066059Y-98360491D01*
X157958132Y-98394313D01*
X157958130Y-98394314D01*
X157953828Y-98395662D01*
X157776056Y-98494203D01*
X157621729Y-98626477D01*
X157618970Y-98630034D01*
X157618969Y-98630035D01*
X157521851Y-98755239D01*
X157470335Y-98787680D01*
X157410019Y-98779418D01*
X157388594Y-98763623D01*
X157226567Y-98601596D01*
X157200839Y-98546420D01*
X157200500Y-98538663D01*
X157200500Y-97049498D01*
X157221322Y-96992290D01*
X157274045Y-96961850D01*
X157334000Y-96972422D01*
G37*
G04 #@! TD.AperFunction*
G04 #@! TA.AperFunction,NonConductor*
G36*
X156534000Y-101763261D02*
G01*
X156552433Y-101777404D01*
X156809381Y-102034352D01*
X156812434Y-102037889D01*
X156814575Y-102042269D01*
X156820600Y-102047858D01*
X156850960Y-102076021D01*
X156853366Y-102078337D01*
X156867277Y-102092248D01*
X156870648Y-102094561D01*
X156871623Y-102095371D01*
X156875267Y-102098570D01*
X156884129Y-102106790D01*
X156896646Y-102118401D01*
X156904274Y-102121444D01*
X156904275Y-102121445D01*
X156906298Y-102122252D01*
X156908371Y-102123079D01*
X156925733Y-102132350D01*
X156936146Y-102139493D01*
X156944137Y-102141389D01*
X156944141Y-102141391D01*
X156962778Y-102145813D01*
X156975200Y-102149741D01*
X157000622Y-102159883D01*
X157006915Y-102160500D01*
X157014256Y-102160500D01*
X157034804Y-102162905D01*
X157045066Y-102165340D01*
X157053208Y-102164232D01*
X157053210Y-102164232D01*
X157074656Y-102161313D01*
X157086658Y-102160500D01*
X157332393Y-102160500D01*
X157389601Y-102181322D01*
X157415918Y-102218768D01*
X157446119Y-102300852D01*
X157553226Y-102473599D01*
X157692881Y-102621280D01*
X157859379Y-102737863D01*
X158045919Y-102818586D01*
X158050331Y-102819508D01*
X158050335Y-102819509D01*
X158163038Y-102843053D01*
X158244880Y-102860151D01*
X158251539Y-102860500D01*
X159731000Y-102860500D01*
X159788208Y-102881322D01*
X159818648Y-102934045D01*
X159820000Y-102949500D01*
X159820000Y-103310500D01*
X159799178Y-103367708D01*
X159746455Y-103398148D01*
X159731000Y-103399500D01*
X158299200Y-103399500D01*
X158209864Y-103408574D01*
X158152271Y-103414424D01*
X158152269Y-103414424D01*
X158147784Y-103414880D01*
X158071892Y-103438663D01*
X157958132Y-103474313D01*
X157958130Y-103474314D01*
X157953828Y-103475662D01*
X157776056Y-103574203D01*
X157621729Y-103706477D01*
X157497152Y-103867081D01*
X157407413Y-104049455D01*
X157405073Y-104048304D01*
X157371406Y-104087877D01*
X157327431Y-104099500D01*
X157061337Y-104099500D01*
X157004129Y-104078678D01*
X156998404Y-104073433D01*
X156426567Y-103501596D01*
X156400839Y-103446420D01*
X156400500Y-103438663D01*
X156400500Y-101840337D01*
X156421322Y-101783129D01*
X156474045Y-101752689D01*
X156534000Y-101763261D01*
G37*
G04 #@! TD.AperFunction*
M02*
