G04 #@! TF.GenerationSoftware,KiCad,Pcbnew,(5.99.0-12085-gf4905cb1ae)*
G04 #@! TF.CreationDate,2021-08-26T19:19:28+05:30*
G04 #@! TF.ProjectId,Mitayi-Pico-RP2040,4d697461-7969-42d5-9069-636f2d525032,0.2*
G04 #@! TF.SameCoordinates,Original*
G04 #@! TF.FileFunction,Soldermask,Bot*
G04 #@! TF.FilePolarity,Negative*
%FSLAX46Y46*%
G04 Gerber Fmt 4.6, Leading zero omitted, Abs format (unit mm)*
G04 Created by KiCad (PCBNEW (5.99.0-12085-gf4905cb1ae)) date 2021-08-26 19:19:28*
%MOMM*%
%LPD*%
G01*
G04 APERTURE LIST*
G04 Aperture macros list*
%AMRoundRect*
0 Rectangle with rounded corners*
0 $1 Rounding radius*
0 $2 $3 $4 $5 $6 $7 $8 $9 X,Y pos of 4 corners*
0 Add a 4 corners polygon primitive as box body*
4,1,4,$2,$3,$4,$5,$6,$7,$8,$9,$2,$3,0*
0 Add four circle primitives for the rounded corners*
1,1,$1+$1,$2,$3*
1,1,$1+$1,$4,$5*
1,1,$1+$1,$6,$7*
1,1,$1+$1,$8,$9*
0 Add four rect primitives between the rounded corners*
20,1,$1+$1,$2,$3,$4,$5,0*
20,1,$1+$1,$4,$5,$6,$7,0*
20,1,$1+$1,$6,$7,$8,$9,0*
20,1,$1+$1,$8,$9,$2,$3,0*%
G04 Aperture macros list end*
%ADD10C,1.500000*%
%ADD11O,1.600000X1.700000*%
%ADD12R,1.600000X3.200000*%
%ADD13C,0.670000*%
%ADD14RoundRect,0.500000X0.000000X0.300000X0.000000X0.300000X0.000000X-0.300000X0.000000X-0.300000X0*%
%ADD15O,1.200000X1.900000*%
%ADD16C,1.450000*%
%ADD17R,3.200000X1.600000*%
%ADD18O,1.700000X1.600000*%
%ADD19R,2.000000X1.500000*%
%ADD20R,2.000000X3.800000*%
%ADD21RoundRect,0.135000X-0.135000X-0.185000X0.135000X-0.185000X0.135000X0.185000X-0.135000X0.185000X0*%
G04 APERTURE END LIST*
D10*
X156000000Y-114510000D03*
D11*
X146950000Y-114400000D03*
D12*
X146950000Y-116010000D03*
D11*
X149490000Y-114400000D03*
D12*
X149490000Y-116010000D03*
D11*
X152030000Y-114400000D03*
D12*
X152030000Y-116010000D03*
D10*
X143000000Y-114510000D03*
D13*
X146610000Y-70080000D03*
X152410000Y-70080000D03*
D14*
X153830000Y-70610000D03*
X145190000Y-70610000D03*
X153830000Y-66430000D03*
X145190000Y-66430000D03*
D10*
X156000000Y-66510000D03*
D15*
X146010000Y-66362500D03*
D16*
X152010000Y-69062500D03*
X147010000Y-69062500D03*
D15*
X153010000Y-66362500D03*
D10*
X143000000Y-66510000D03*
D17*
X138990000Y-66300000D03*
D18*
X140600000Y-66300000D03*
D17*
X138990000Y-68840000D03*
D18*
X140600000Y-68840000D03*
D17*
X138990000Y-71380000D03*
D18*
X140600000Y-71380000D03*
D17*
X138990000Y-73920000D03*
D18*
X140600000Y-73920000D03*
X140600000Y-76460000D03*
D17*
X138990000Y-76460000D03*
D18*
X140600000Y-79000000D03*
D17*
X138990000Y-79000000D03*
X138990000Y-81540000D03*
D18*
X140600000Y-81540000D03*
D17*
X138990000Y-84080000D03*
D18*
X140600000Y-84080000D03*
X140600000Y-86620000D03*
D17*
X138990000Y-86620000D03*
X138990000Y-89160000D03*
D18*
X140600000Y-89160000D03*
D17*
X138990000Y-91700000D03*
D18*
X140600000Y-91700000D03*
D17*
X138990000Y-94240000D03*
D18*
X140600000Y-94240000D03*
D17*
X138990000Y-96780000D03*
D18*
X140600000Y-96780000D03*
D17*
X138990000Y-99320000D03*
D18*
X140600000Y-99320000D03*
D17*
X138990000Y-101860000D03*
D18*
X140600000Y-101860000D03*
D17*
X138990000Y-104400000D03*
D18*
X140600000Y-104400000D03*
X140600000Y-106940000D03*
D17*
X138990000Y-106940000D03*
X138990000Y-109480000D03*
D18*
X140600000Y-109480000D03*
D17*
X138990000Y-112020000D03*
D18*
X140600000Y-112020000D03*
D17*
X138990000Y-114560000D03*
D18*
X140600000Y-114560000D03*
D19*
X146980000Y-78900000D03*
X146980000Y-76600000D03*
D20*
X153280000Y-76600000D03*
D19*
X146980000Y-74300000D03*
D21*
X153890000Y-73490000D03*
X154910000Y-73490000D03*
D17*
X160010000Y-66300000D03*
D18*
X158400000Y-66300000D03*
D17*
X160010000Y-68840000D03*
D18*
X158400000Y-68840000D03*
D17*
X160010000Y-71380000D03*
D18*
X158400000Y-71380000D03*
X158400000Y-73920000D03*
D17*
X160010000Y-73920000D03*
D18*
X158400000Y-76460000D03*
D17*
X160010000Y-76460000D03*
X160010000Y-79000000D03*
D18*
X158400000Y-79000000D03*
D17*
X160010000Y-81540000D03*
D18*
X158400000Y-81540000D03*
X158400000Y-84080000D03*
D17*
X160010000Y-84080000D03*
X160010000Y-86620000D03*
D18*
X158400000Y-86620000D03*
D17*
X160010000Y-89160000D03*
D18*
X158400000Y-89160000D03*
D17*
X160010000Y-91700000D03*
D18*
X158400000Y-91700000D03*
D17*
X160010000Y-94240000D03*
D18*
X158400000Y-94240000D03*
X158400000Y-96780000D03*
D17*
X160010000Y-96780000D03*
D18*
X158400000Y-99320000D03*
D17*
X160010000Y-99320000D03*
X160010000Y-101860000D03*
D18*
X158400000Y-101860000D03*
X158400000Y-104400000D03*
D17*
X160010000Y-104400000D03*
X160010000Y-106940000D03*
D18*
X158400000Y-106940000D03*
X158400000Y-109480000D03*
D17*
X160010000Y-109480000D03*
X160010000Y-112020000D03*
D18*
X158400000Y-112020000D03*
D17*
X160010000Y-114560000D03*
D18*
X158400000Y-114560000D03*
M02*
