G04 #@! TF.GenerationSoftware,KiCad,Pcbnew,(5.99.0-11673-ga90656900a)*
G04 #@! TF.CreationDate,2021-08-26T12:12:16+05:30*
G04 #@! TF.ProjectId,Mitayi-Pico-RP2040,4d697461-7969-42d5-9069-636f2d525032,0.1*
G04 #@! TF.SameCoordinates,Original*
G04 #@! TF.FileFunction,OtherDrawing,Comment*
%FSLAX46Y46*%
G04 Gerber Fmt 4.6, Leading zero omitted, Abs format (unit mm)*
G04 Created by KiCad (PCBNEW (5.99.0-11673-ga90656900a)) date 2021-08-26 12:12:16*
%MOMM*%
%LPD*%
G01*
G04 APERTURE LIST*
%ADD10C,0.100000*%
%ADD11C,0.150000*%
%ADD12C,0.080000*%
%ADD13C,0.020000*%
G04 APERTURE END LIST*
D10*
X149500000Y-61400000D02*
X149500000Y-120000000D01*
D11*
X145452380Y-121702380D02*
X144880952Y-121702380D01*
X145166666Y-121702380D02*
X145166666Y-120702380D01*
X145071428Y-120845238D01*
X144976190Y-120940476D01*
X144880952Y-120988095D01*
X145785714Y-120702380D02*
X146404761Y-120702380D01*
X146071428Y-121083333D01*
X146214285Y-121083333D01*
X146309523Y-121130952D01*
X146357142Y-121178571D01*
X146404761Y-121273809D01*
X146404761Y-121511904D01*
X146357142Y-121607142D01*
X146309523Y-121654761D01*
X146214285Y-121702380D01*
X145928571Y-121702380D01*
X145833333Y-121654761D01*
X145785714Y-121607142D01*
X146833333Y-121607142D02*
X146880952Y-121654761D01*
X146833333Y-121702380D01*
X146785714Y-121654761D01*
X146833333Y-121607142D01*
X146833333Y-121702380D01*
X147500000Y-120702380D02*
X147595238Y-120702380D01*
X147690476Y-120750000D01*
X147738095Y-120797619D01*
X147785714Y-120892857D01*
X147833333Y-121083333D01*
X147833333Y-121321428D01*
X147785714Y-121511904D01*
X147738095Y-121607142D01*
X147690476Y-121654761D01*
X147595238Y-121702380D01*
X147500000Y-121702380D01*
X147404761Y-121654761D01*
X147357142Y-121607142D01*
X147309523Y-121511904D01*
X147261904Y-121321428D01*
X147261904Y-121083333D01*
X147309523Y-120892857D01*
X147357142Y-120797619D01*
X147404761Y-120750000D01*
X147500000Y-120702380D01*
X148452380Y-120702380D02*
X148547619Y-120702380D01*
X148642857Y-120750000D01*
X148690476Y-120797619D01*
X148738095Y-120892857D01*
X148785714Y-121083333D01*
X148785714Y-121321428D01*
X148738095Y-121511904D01*
X148690476Y-121607142D01*
X148642857Y-121654761D01*
X148547619Y-121702380D01*
X148452380Y-121702380D01*
X148357142Y-121654761D01*
X148309523Y-121607142D01*
X148261904Y-121511904D01*
X148214285Y-121321428D01*
X148214285Y-121083333D01*
X148261904Y-120892857D01*
X148309523Y-120797619D01*
X148357142Y-120750000D01*
X148452380Y-120702380D01*
X149404761Y-120702380D02*
X149500000Y-120702380D01*
X149595238Y-120750000D01*
X149642857Y-120797619D01*
X149690476Y-120892857D01*
X149738095Y-121083333D01*
X149738095Y-121321428D01*
X149690476Y-121511904D01*
X149642857Y-121607142D01*
X149595238Y-121654761D01*
X149500000Y-121702380D01*
X149404761Y-121702380D01*
X149309523Y-121654761D01*
X149261904Y-121607142D01*
X149214285Y-121511904D01*
X149166666Y-121321428D01*
X149166666Y-121083333D01*
X149214285Y-120892857D01*
X149261904Y-120797619D01*
X149309523Y-120750000D01*
X149404761Y-120702380D01*
X150357142Y-120702380D02*
X150452380Y-120702380D01*
X150547619Y-120750000D01*
X150595238Y-120797619D01*
X150642857Y-120892857D01*
X150690476Y-121083333D01*
X150690476Y-121321428D01*
X150642857Y-121511904D01*
X150595238Y-121607142D01*
X150547619Y-121654761D01*
X150452380Y-121702380D01*
X150357142Y-121702380D01*
X150261904Y-121654761D01*
X150214285Y-121607142D01*
X150166666Y-121511904D01*
X150119047Y-121321428D01*
X150119047Y-121083333D01*
X150166666Y-120892857D01*
X150214285Y-120797619D01*
X150261904Y-120750000D01*
X150357142Y-120702380D01*
X151880952Y-121702380D02*
X151880952Y-121035714D01*
X151880952Y-121130952D02*
X151928571Y-121083333D01*
X152023809Y-121035714D01*
X152166666Y-121035714D01*
X152261904Y-121083333D01*
X152309523Y-121178571D01*
X152309523Y-121702380D01*
X152309523Y-121178571D02*
X152357142Y-121083333D01*
X152452380Y-121035714D01*
X152595238Y-121035714D01*
X152690476Y-121083333D01*
X152738095Y-121178571D01*
X152738095Y-121702380D01*
X153214285Y-121702380D02*
X153214285Y-121035714D01*
X153214285Y-121130952D02*
X153261904Y-121083333D01*
X153357142Y-121035714D01*
X153500000Y-121035714D01*
X153595238Y-121083333D01*
X153642857Y-121178571D01*
X153642857Y-121702380D01*
X153642857Y-121178571D02*
X153690476Y-121083333D01*
X153785714Y-121035714D01*
X153928571Y-121035714D01*
X154023809Y-121083333D01*
X154071428Y-121178571D01*
X154071428Y-121702380D01*
X143000000Y-115010000D02*
X143000000Y-122986420D01*
X156000000Y-115010000D02*
X156000000Y-122986420D01*
X143000000Y-122400000D02*
X144115476Y-122400000D01*
X154884524Y-122400000D02*
X156000000Y-122400000D01*
X143000000Y-122400000D02*
X144126504Y-122986421D01*
X143000000Y-122400000D02*
X144126504Y-121813579D01*
X156000000Y-122400000D02*
X154873496Y-121813579D01*
X156000000Y-122400000D02*
X154873496Y-122986421D01*
X144880952Y-58897619D02*
X144928571Y-58850000D01*
X145023809Y-58802380D01*
X145261904Y-58802380D01*
X145357142Y-58850000D01*
X145404761Y-58897619D01*
X145452380Y-58992857D01*
X145452380Y-59088095D01*
X145404761Y-59230952D01*
X144833333Y-59802380D01*
X145452380Y-59802380D01*
X146404761Y-59802380D02*
X145833333Y-59802380D01*
X146119047Y-59802380D02*
X146119047Y-58802380D01*
X146023809Y-58945238D01*
X145928571Y-59040476D01*
X145833333Y-59088095D01*
X146833333Y-59707142D02*
X146880952Y-59754761D01*
X146833333Y-59802380D01*
X146785714Y-59754761D01*
X146833333Y-59707142D01*
X146833333Y-59802380D01*
X147500000Y-58802380D02*
X147595238Y-58802380D01*
X147690476Y-58850000D01*
X147738095Y-58897619D01*
X147785714Y-58992857D01*
X147833333Y-59183333D01*
X147833333Y-59421428D01*
X147785714Y-59611904D01*
X147738095Y-59707142D01*
X147690476Y-59754761D01*
X147595238Y-59802380D01*
X147500000Y-59802380D01*
X147404761Y-59754761D01*
X147357142Y-59707142D01*
X147309523Y-59611904D01*
X147261904Y-59421428D01*
X147261904Y-59183333D01*
X147309523Y-58992857D01*
X147357142Y-58897619D01*
X147404761Y-58850000D01*
X147500000Y-58802380D01*
X148452380Y-58802380D02*
X148547619Y-58802380D01*
X148642857Y-58850000D01*
X148690476Y-58897619D01*
X148738095Y-58992857D01*
X148785714Y-59183333D01*
X148785714Y-59421428D01*
X148738095Y-59611904D01*
X148690476Y-59707142D01*
X148642857Y-59754761D01*
X148547619Y-59802380D01*
X148452380Y-59802380D01*
X148357142Y-59754761D01*
X148309523Y-59707142D01*
X148261904Y-59611904D01*
X148214285Y-59421428D01*
X148214285Y-59183333D01*
X148261904Y-58992857D01*
X148309523Y-58897619D01*
X148357142Y-58850000D01*
X148452380Y-58802380D01*
X149404761Y-58802380D02*
X149500000Y-58802380D01*
X149595238Y-58850000D01*
X149642857Y-58897619D01*
X149690476Y-58992857D01*
X149738095Y-59183333D01*
X149738095Y-59421428D01*
X149690476Y-59611904D01*
X149642857Y-59707142D01*
X149595238Y-59754761D01*
X149500000Y-59802380D01*
X149404761Y-59802380D01*
X149309523Y-59754761D01*
X149261904Y-59707142D01*
X149214285Y-59611904D01*
X149166666Y-59421428D01*
X149166666Y-59183333D01*
X149214285Y-58992857D01*
X149261904Y-58897619D01*
X149309523Y-58850000D01*
X149404761Y-58802380D01*
X150357142Y-58802380D02*
X150452380Y-58802380D01*
X150547619Y-58850000D01*
X150595238Y-58897619D01*
X150642857Y-58992857D01*
X150690476Y-59183333D01*
X150690476Y-59421428D01*
X150642857Y-59611904D01*
X150595238Y-59707142D01*
X150547619Y-59754761D01*
X150452380Y-59802380D01*
X150357142Y-59802380D01*
X150261904Y-59754761D01*
X150214285Y-59707142D01*
X150166666Y-59611904D01*
X150119047Y-59421428D01*
X150119047Y-59183333D01*
X150166666Y-58992857D01*
X150214285Y-58897619D01*
X150261904Y-58850000D01*
X150357142Y-58802380D01*
X151880952Y-59802380D02*
X151880952Y-59135714D01*
X151880952Y-59230952D02*
X151928571Y-59183333D01*
X152023809Y-59135714D01*
X152166666Y-59135714D01*
X152261904Y-59183333D01*
X152309523Y-59278571D01*
X152309523Y-59802380D01*
X152309523Y-59278571D02*
X152357142Y-59183333D01*
X152452380Y-59135714D01*
X152595238Y-59135714D01*
X152690476Y-59183333D01*
X152738095Y-59278571D01*
X152738095Y-59802380D01*
X153214285Y-59802380D02*
X153214285Y-59135714D01*
X153214285Y-59230952D02*
X153261904Y-59183333D01*
X153357142Y-59135714D01*
X153500000Y-59135714D01*
X153595238Y-59183333D01*
X153642857Y-59278571D01*
X153642857Y-59802380D01*
X153642857Y-59278571D02*
X153690476Y-59183333D01*
X153785714Y-59135714D01*
X153928571Y-59135714D01*
X154023809Y-59183333D01*
X154071428Y-59278571D01*
X154071428Y-59802380D01*
X139000000Y-64500000D02*
X139000000Y-59913580D01*
X160000000Y-64500000D02*
X160000000Y-59913580D01*
X139000000Y-60500000D02*
X144115476Y-60500000D01*
X154884524Y-60500000D02*
X160000000Y-60500000D01*
X139000000Y-60500000D02*
X140126504Y-61086421D01*
X139000000Y-60500000D02*
X140126504Y-59913579D01*
X160000000Y-60500000D02*
X158873496Y-59913579D01*
X160000000Y-60500000D02*
X158873496Y-61086421D01*
X133235714Y-94652857D02*
X133902380Y-94652857D01*
X132854761Y-94890952D02*
X133569047Y-95129047D01*
X133569047Y-94510000D01*
X133330952Y-93986190D02*
X133283333Y-94081428D01*
X133235714Y-94129047D01*
X133140476Y-94176666D01*
X133092857Y-94176666D01*
X132997619Y-94129047D01*
X132950000Y-94081428D01*
X132902380Y-93986190D01*
X132902380Y-93795714D01*
X132950000Y-93700476D01*
X132997619Y-93652857D01*
X133092857Y-93605238D01*
X133140476Y-93605238D01*
X133235714Y-93652857D01*
X133283333Y-93700476D01*
X133330952Y-93795714D01*
X133330952Y-93986190D01*
X133378571Y-94081428D01*
X133426190Y-94129047D01*
X133521428Y-94176666D01*
X133711904Y-94176666D01*
X133807142Y-94129047D01*
X133854761Y-94081428D01*
X133902380Y-93986190D01*
X133902380Y-93795714D01*
X133854761Y-93700476D01*
X133807142Y-93652857D01*
X133711904Y-93605238D01*
X133521428Y-93605238D01*
X133426190Y-93652857D01*
X133378571Y-93700476D01*
X133330952Y-93795714D01*
X133807142Y-93176666D02*
X133854761Y-93129047D01*
X133902380Y-93176666D01*
X133854761Y-93224285D01*
X133807142Y-93176666D01*
X133902380Y-93176666D01*
X132902380Y-92510000D02*
X132902380Y-92414761D01*
X132950000Y-92319523D01*
X132997619Y-92271904D01*
X133092857Y-92224285D01*
X133283333Y-92176666D01*
X133521428Y-92176666D01*
X133711904Y-92224285D01*
X133807142Y-92271904D01*
X133854761Y-92319523D01*
X133902380Y-92414761D01*
X133902380Y-92510000D01*
X133854761Y-92605238D01*
X133807142Y-92652857D01*
X133711904Y-92700476D01*
X133521428Y-92748095D01*
X133283333Y-92748095D01*
X133092857Y-92700476D01*
X132997619Y-92652857D01*
X132950000Y-92605238D01*
X132902380Y-92510000D01*
X132902380Y-91557619D02*
X132902380Y-91462380D01*
X132950000Y-91367142D01*
X132997619Y-91319523D01*
X133092857Y-91271904D01*
X133283333Y-91224285D01*
X133521428Y-91224285D01*
X133711904Y-91271904D01*
X133807142Y-91319523D01*
X133854761Y-91367142D01*
X133902380Y-91462380D01*
X133902380Y-91557619D01*
X133854761Y-91652857D01*
X133807142Y-91700476D01*
X133711904Y-91748095D01*
X133521428Y-91795714D01*
X133283333Y-91795714D01*
X133092857Y-91748095D01*
X132997619Y-91700476D01*
X132950000Y-91652857D01*
X132902380Y-91557619D01*
X132902380Y-90605238D02*
X132902380Y-90510000D01*
X132950000Y-90414761D01*
X132997619Y-90367142D01*
X133092857Y-90319523D01*
X133283333Y-90271904D01*
X133521428Y-90271904D01*
X133711904Y-90319523D01*
X133807142Y-90367142D01*
X133854761Y-90414761D01*
X133902380Y-90510000D01*
X133902380Y-90605238D01*
X133854761Y-90700476D01*
X133807142Y-90748095D01*
X133711904Y-90795714D01*
X133521428Y-90843333D01*
X133283333Y-90843333D01*
X133092857Y-90795714D01*
X132997619Y-90748095D01*
X132950000Y-90700476D01*
X132902380Y-90605238D01*
X132902380Y-89652857D02*
X132902380Y-89557619D01*
X132950000Y-89462380D01*
X132997619Y-89414761D01*
X133092857Y-89367142D01*
X133283333Y-89319523D01*
X133521428Y-89319523D01*
X133711904Y-89367142D01*
X133807142Y-89414761D01*
X133854761Y-89462380D01*
X133902380Y-89557619D01*
X133902380Y-89652857D01*
X133854761Y-89748095D01*
X133807142Y-89795714D01*
X133711904Y-89843333D01*
X133521428Y-89890952D01*
X133283333Y-89890952D01*
X133092857Y-89843333D01*
X132997619Y-89795714D01*
X132950000Y-89748095D01*
X132902380Y-89652857D01*
X133902380Y-88129047D02*
X133235714Y-88129047D01*
X133330952Y-88129047D02*
X133283333Y-88081428D01*
X133235714Y-87986190D01*
X133235714Y-87843333D01*
X133283333Y-87748095D01*
X133378571Y-87700476D01*
X133902380Y-87700476D01*
X133378571Y-87700476D02*
X133283333Y-87652857D01*
X133235714Y-87557619D01*
X133235714Y-87414761D01*
X133283333Y-87319523D01*
X133378571Y-87271904D01*
X133902380Y-87271904D01*
X133902380Y-86795714D02*
X133235714Y-86795714D01*
X133330952Y-86795714D02*
X133283333Y-86748095D01*
X133235714Y-86652857D01*
X133235714Y-86510000D01*
X133283333Y-86414761D01*
X133378571Y-86367142D01*
X133902380Y-86367142D01*
X133378571Y-86367142D02*
X133283333Y-86319523D01*
X133235714Y-86224285D01*
X133235714Y-86081428D01*
X133283333Y-85986190D01*
X133378571Y-85938571D01*
X133902380Y-85938571D01*
X142500000Y-66510000D02*
X134013580Y-66510000D01*
X142500000Y-114510000D02*
X134013580Y-114510000D01*
X134600000Y-66510000D02*
X134600000Y-85125476D01*
X134600000Y-95894524D02*
X134600000Y-114510000D01*
X134600000Y-66510000D02*
X134013579Y-67636504D01*
X134600000Y-66510000D02*
X135186421Y-67636504D01*
X134600000Y-114510000D02*
X135186421Y-113383496D01*
X134600000Y-114510000D02*
X134013579Y-113383496D01*
D12*
X147795714Y-65138690D02*
X147795714Y-64638690D01*
X147986190Y-64638690D01*
X148033809Y-64662500D01*
X148057619Y-64686309D01*
X148081428Y-64733928D01*
X148081428Y-64805357D01*
X148057619Y-64852976D01*
X148033809Y-64876785D01*
X147986190Y-64900595D01*
X147795714Y-64900595D01*
X148581428Y-65091071D02*
X148557619Y-65114880D01*
X148486190Y-65138690D01*
X148438571Y-65138690D01*
X148367142Y-65114880D01*
X148319523Y-65067261D01*
X148295714Y-65019642D01*
X148271904Y-64924404D01*
X148271904Y-64852976D01*
X148295714Y-64757738D01*
X148319523Y-64710119D01*
X148367142Y-64662500D01*
X148438571Y-64638690D01*
X148486190Y-64638690D01*
X148557619Y-64662500D01*
X148581428Y-64686309D01*
X148962380Y-64876785D02*
X149033809Y-64900595D01*
X149057619Y-64924404D01*
X149081428Y-64972023D01*
X149081428Y-65043452D01*
X149057619Y-65091071D01*
X149033809Y-65114880D01*
X148986190Y-65138690D01*
X148795714Y-65138690D01*
X148795714Y-64638690D01*
X148962380Y-64638690D01*
X149010000Y-64662500D01*
X149033809Y-64686309D01*
X149057619Y-64733928D01*
X149057619Y-64781547D01*
X149033809Y-64829166D01*
X149010000Y-64852976D01*
X148962380Y-64876785D01*
X148795714Y-64876785D01*
X149676666Y-64876785D02*
X149843333Y-64876785D01*
X149914761Y-65138690D02*
X149676666Y-65138690D01*
X149676666Y-64638690D01*
X149914761Y-64638690D01*
X150343333Y-65138690D02*
X150343333Y-64638690D01*
X150343333Y-65114880D02*
X150295714Y-65138690D01*
X150200476Y-65138690D01*
X150152857Y-65114880D01*
X150129047Y-65091071D01*
X150105238Y-65043452D01*
X150105238Y-64900595D01*
X150129047Y-64852976D01*
X150152857Y-64829166D01*
X150200476Y-64805357D01*
X150295714Y-64805357D01*
X150343333Y-64829166D01*
X150795714Y-64805357D02*
X150795714Y-65210119D01*
X150771904Y-65257738D01*
X150748095Y-65281547D01*
X150700476Y-65305357D01*
X150629047Y-65305357D01*
X150581428Y-65281547D01*
X150795714Y-65114880D02*
X150748095Y-65138690D01*
X150652857Y-65138690D01*
X150605238Y-65114880D01*
X150581428Y-65091071D01*
X150557619Y-65043452D01*
X150557619Y-64900595D01*
X150581428Y-64852976D01*
X150605238Y-64829166D01*
X150652857Y-64805357D01*
X150748095Y-64805357D01*
X150795714Y-64829166D01*
X151224285Y-65114880D02*
X151176666Y-65138690D01*
X151081428Y-65138690D01*
X151033809Y-65114880D01*
X151010000Y-65067261D01*
X151010000Y-64876785D01*
X151033809Y-64829166D01*
X151081428Y-64805357D01*
X151176666Y-64805357D01*
X151224285Y-64829166D01*
X151248095Y-64876785D01*
X151248095Y-64924404D01*
X151010000Y-64972023D01*
D13*
X150260000Y-66930000D02*
X148760000Y-66930000D01*
X152760000Y-70800000D02*
X152760000Y-66430000D01*
X152400000Y-65930000D02*
X146620000Y-65930000D01*
X151960000Y-66430000D02*
X147060000Y-66430000D01*
X146260000Y-70800000D02*
X146260000Y-66430000D01*
X149760000Y-67430000D02*
X149260000Y-67430000D01*
X152760000Y-65430000D02*
X146260000Y-65430000D01*
X152410000Y-70080000D02*
X152410000Y-66430000D01*
X149760000Y-70800000D02*
X149760000Y-67430000D01*
X150260000Y-70800000D02*
X150260000Y-66930000D01*
X151960000Y-70800000D02*
X151960000Y-66430000D01*
X147060000Y-70800000D02*
X147060000Y-66430000D01*
X146610000Y-70080000D02*
X146610000Y-66430000D01*
X148760000Y-70800000D02*
X148760000Y-66930000D01*
X149260000Y-70800000D02*
X149260000Y-67430000D01*
M02*
