G04 #@! TF.GenerationSoftware,KiCad,Pcbnew,(6.0.6)*
G04 #@! TF.CreationDate,2022-08-20T10:32:50+05:30*
G04 #@! TF.ProjectId,Mitayi-Pico-RP2040,4d697461-7969-42d5-9069-636f2d525032,0.2*
G04 #@! TF.SameCoordinates,PX848f8c0PY6ea0500*
G04 #@! TF.FileFunction,Legend,Bot*
G04 #@! TF.FilePolarity,Positive*
%FSLAX46Y46*%
G04 Gerber Fmt 4.6, Leading zero omitted, Abs format (unit mm)*
G04 Created by KiCad (PCBNEW (6.0.6)) date 2022-08-20 10:32:50*
%MOMM*%
%LPD*%
G01*
G04 APERTURE LIST*
G04 Aperture macros list*
%AMRoundRect*
0 Rectangle with rounded corners*
0 $1 Rounding radius*
0 $2 $3 $4 $5 $6 $7 $8 $9 X,Y pos of 4 corners*
0 Add a 4 corners polygon primitive as box body*
4,1,4,$2,$3,$4,$5,$6,$7,$8,$9,$2,$3,0*
0 Add four circle primitives for the rounded corners*
1,1,$1+$1,$2,$3*
1,1,$1+$1,$4,$5*
1,1,$1+$1,$6,$7*
1,1,$1+$1,$8,$9*
0 Add four rect primitives between the rounded corners*
20,1,$1+$1,$2,$3,$4,$5,0*
20,1,$1+$1,$4,$5,$6,$7,0*
20,1,$1+$1,$6,$7,$8,$9,0*
20,1,$1+$1,$8,$9,$2,$3,0*%
G04 Aperture macros list end*
G04 #@! TA.AperFunction,Profile*
%ADD10C,0.100000*%
G04 #@! TD*
%ADD11C,0.150000*%
%ADD12C,0.200000*%
%ADD13C,0.120000*%
%ADD14C,1.500000*%
%ADD15O,1.600000X1.700000*%
%ADD16R,1.600000X3.200000*%
%ADD17C,0.670000*%
%ADD18RoundRect,0.500000X0.000000X0.300000X0.000000X0.300000X0.000000X-0.300000X0.000000X-0.300000X0*%
%ADD19O,1.200000X1.900000*%
%ADD20C,1.450000*%
%ADD21R,3.200000X1.600000*%
%ADD22O,1.700000X1.600000*%
%ADD23R,2.000000X1.500000*%
%ADD24R,2.000000X3.800000*%
%ADD25RoundRect,0.135000X-0.135000X-0.185000X0.135000X-0.185000X0.135000X0.185000X-0.135000X0.185000X0*%
G04 APERTURE END LIST*
D10*
X0Y51000000D02*
X21000000Y51000000D01*
X21000000Y0D02*
X0Y0D01*
X21000000Y51000000D02*
X21000000Y0D01*
X0Y0D02*
X0Y51000000D01*
D11*
X5397500Y5150000D02*
X5464166Y5183334D01*
X5564166Y5183334D01*
X5664166Y5150000D01*
X5730833Y5083334D01*
X5764166Y5016667D01*
X5797500Y4883334D01*
X5797500Y4783334D01*
X5764166Y4650000D01*
X5730833Y4583334D01*
X5664166Y4516667D01*
X5564166Y4483334D01*
X5497500Y4483334D01*
X5397500Y4516667D01*
X5364166Y4550000D01*
X5364166Y4783334D01*
X5497500Y4783334D01*
X5064166Y4483334D02*
X5064166Y5183334D01*
X4797500Y5183334D01*
X4730833Y5150000D01*
X4697500Y5116667D01*
X4664166Y5050000D01*
X4664166Y4950000D01*
X4697500Y4883334D01*
X4730833Y4850000D01*
X4797500Y4816667D01*
X5064166Y4816667D01*
X3997500Y4483334D02*
X4397500Y4483334D01*
X4197500Y4483334D02*
X4197500Y5183334D01*
X4264166Y5083334D01*
X4330833Y5016667D01*
X4397500Y4983334D01*
X3597500Y4883334D02*
X3664166Y4916667D01*
X3697500Y4950000D01*
X3730833Y5016667D01*
X3730833Y5050000D01*
X3697500Y5116667D01*
X3664166Y5150000D01*
X3597500Y5183334D01*
X3464166Y5183334D01*
X3397500Y5150000D01*
X3364166Y5116667D01*
X3330833Y5050000D01*
X3330833Y5016667D01*
X3364166Y4950000D01*
X3397500Y4916667D01*
X3464166Y4883334D01*
X3597500Y4883334D01*
X3664166Y4850000D01*
X3697500Y4816667D01*
X3730833Y4750000D01*
X3730833Y4616667D01*
X3697500Y4550000D01*
X3664166Y4516667D01*
X3597500Y4483334D01*
X3464166Y4483334D01*
X3397500Y4516667D01*
X3364166Y4550000D01*
X3330833Y4616667D01*
X3330833Y4750000D01*
X3364166Y4816667D01*
X3397500Y4850000D01*
X3464166Y4883334D01*
X4830833Y37250000D02*
X4897500Y37283334D01*
X4997500Y37283334D01*
X5097500Y37250000D01*
X5164166Y37183334D01*
X5197500Y37116667D01*
X5230833Y36983334D01*
X5230833Y36883334D01*
X5197500Y36750000D01*
X5164166Y36683334D01*
X5097500Y36616667D01*
X4997500Y36583334D01*
X4930833Y36583334D01*
X4830833Y36616667D01*
X4797500Y36650000D01*
X4797500Y36883334D01*
X4930833Y36883334D01*
X4497500Y36583334D02*
X4497500Y37283334D01*
X4230833Y37283334D01*
X4164166Y37250000D01*
X4130833Y37216667D01*
X4097500Y37150000D01*
X4097500Y37050000D01*
X4130833Y36983334D01*
X4164166Y36950000D01*
X4230833Y36916667D01*
X4497500Y36916667D01*
X3464166Y37283334D02*
X3797500Y37283334D01*
X3830833Y36950000D01*
X3797500Y36983334D01*
X3730833Y37016667D01*
X3564166Y37016667D01*
X3497500Y36983334D01*
X3464166Y36950000D01*
X3430833Y36883334D01*
X3430833Y36716667D01*
X3464166Y36650000D01*
X3497500Y36616667D01*
X3564166Y36583334D01*
X3730833Y36583334D01*
X3797500Y36616667D01*
X3830833Y36650000D01*
X17233333Y16950000D02*
X17300000Y16983334D01*
X17400000Y16983334D01*
X17500000Y16950000D01*
X17566666Y16883334D01*
X17600000Y16816667D01*
X17633333Y16683334D01*
X17633333Y16583334D01*
X17600000Y16450000D01*
X17566666Y16383334D01*
X17500000Y16316667D01*
X17400000Y16283334D01*
X17333333Y16283334D01*
X17233333Y16316667D01*
X17200000Y16350000D01*
X17200000Y16583334D01*
X17333333Y16583334D01*
X16900000Y16283334D02*
X16900000Y16983334D01*
X16633333Y16983334D01*
X16566666Y16950000D01*
X16533333Y16916667D01*
X16500000Y16850000D01*
X16500000Y16750000D01*
X16533333Y16683334D01*
X16566666Y16650000D01*
X16633333Y16616667D01*
X16900000Y16616667D01*
X16233333Y16916667D02*
X16200000Y16950000D01*
X16133333Y16983334D01*
X15966666Y16983334D01*
X15900000Y16950000D01*
X15866666Y16916667D01*
X15833333Y16850000D01*
X15833333Y16783334D01*
X15866666Y16683334D01*
X16266666Y16283334D01*
X15833333Y16283334D01*
X15233333Y16750000D02*
X15233333Y16283334D01*
X15400000Y17016667D02*
X15566666Y16516667D01*
X15133333Y16516667D01*
X7516666Y3202500D02*
X7483333Y3302500D01*
X7483333Y3469167D01*
X7516666Y3535834D01*
X7550000Y3569167D01*
X7616666Y3602500D01*
X7683333Y3602500D01*
X7750000Y3569167D01*
X7783333Y3535834D01*
X7816666Y3469167D01*
X7850000Y3335834D01*
X7883333Y3269167D01*
X7916666Y3235834D01*
X7983333Y3202500D01*
X8050000Y3202500D01*
X8116666Y3235834D01*
X8150000Y3269167D01*
X8183333Y3335834D01*
X8183333Y3502500D01*
X8150000Y3602500D01*
X8183333Y3835834D02*
X7483333Y4002500D01*
X7983333Y4135834D01*
X7483333Y4269167D01*
X8183333Y4435834D01*
X7483333Y4702500D02*
X8183333Y4702500D01*
X8183333Y4869167D01*
X8150000Y4969167D01*
X8083333Y5035834D01*
X8016666Y5069167D01*
X7883333Y5102500D01*
X7783333Y5102500D01*
X7650000Y5069167D01*
X7583333Y5035834D01*
X7516666Y4969167D01*
X7483333Y4869167D01*
X7483333Y4702500D01*
X7550000Y5802500D02*
X7516666Y5769167D01*
X7483333Y5669167D01*
X7483333Y5602500D01*
X7516666Y5502500D01*
X7583333Y5435834D01*
X7650000Y5402500D01*
X7783333Y5369167D01*
X7883333Y5369167D01*
X8016666Y5402500D01*
X8083333Y5435834D01*
X8150000Y5502500D01*
X8183333Y5602500D01*
X8183333Y5669167D01*
X8150000Y5769167D01*
X8116666Y5802500D01*
X7483333Y6435834D02*
X7483333Y6102500D01*
X8183333Y6102500D01*
X7483333Y6669167D02*
X8183333Y6669167D01*
X7483333Y7069167D02*
X7883333Y6769167D01*
X8183333Y7069167D02*
X7783333Y6669167D01*
X16933333Y3750000D02*
X17000000Y3783334D01*
X17100000Y3783334D01*
X17200000Y3750000D01*
X17266666Y3683334D01*
X17300000Y3616667D01*
X17333333Y3483334D01*
X17333333Y3383334D01*
X17300000Y3250000D01*
X17266666Y3183334D01*
X17200000Y3116667D01*
X17100000Y3083334D01*
X17033333Y3083334D01*
X16933333Y3116667D01*
X16900000Y3150000D01*
X16900000Y3383334D01*
X17033333Y3383334D01*
X16600000Y3083334D02*
X16600000Y3783334D01*
X16200000Y3083334D01*
X16200000Y3783334D01*
X15866666Y3083334D02*
X15866666Y3783334D01*
X15700000Y3783334D01*
X15600000Y3750000D01*
X15533333Y3683334D01*
X15500000Y3616667D01*
X15466666Y3483334D01*
X15466666Y3383334D01*
X15500000Y3250000D01*
X15533333Y3183334D01*
X15600000Y3116667D01*
X15700000Y3083334D01*
X15866666Y3083334D01*
X17333333Y32250000D02*
X17400000Y32283334D01*
X17500000Y32283334D01*
X17600000Y32250000D01*
X17666666Y32183334D01*
X17700000Y32116667D01*
X17733333Y31983334D01*
X17733333Y31883334D01*
X17700000Y31750000D01*
X17666666Y31683334D01*
X17600000Y31616667D01*
X17500000Y31583334D01*
X17433333Y31583334D01*
X17333333Y31616667D01*
X17300000Y31650000D01*
X17300000Y31883334D01*
X17433333Y31883334D01*
X17000000Y31583334D02*
X17000000Y32283334D01*
X16733333Y32283334D01*
X16666666Y32250000D01*
X16633333Y32216667D01*
X16600000Y32150000D01*
X16600000Y32050000D01*
X16633333Y31983334D01*
X16666666Y31950000D01*
X16733333Y31916667D01*
X17000000Y31916667D01*
X16333333Y32216667D02*
X16300000Y32250000D01*
X16233333Y32283334D01*
X16066666Y32283334D01*
X16000000Y32250000D01*
X15966666Y32216667D01*
X15933333Y32150000D01*
X15933333Y32083334D01*
X15966666Y31983334D01*
X16366666Y31583334D01*
X15933333Y31583334D01*
X15600000Y31583334D02*
X15466666Y31583334D01*
X15400000Y31616667D01*
X15366666Y31650000D01*
X15300000Y31750000D01*
X15266666Y31883334D01*
X15266666Y32150000D01*
X15300000Y32216667D01*
X15333333Y32250000D01*
X15400000Y32283334D01*
X15533333Y32283334D01*
X15600000Y32250000D01*
X15633333Y32216667D01*
X15666666Y32150000D01*
X15666666Y31983334D01*
X15633333Y31916667D01*
X15600000Y31883334D01*
X15533333Y31850000D01*
X15400000Y31850000D01*
X15333333Y31883334D01*
X15300000Y31916667D01*
X15266666Y31983334D01*
X17333333Y44850000D02*
X17400000Y44883334D01*
X17500000Y44883334D01*
X17600000Y44850000D01*
X17666666Y44783334D01*
X17700000Y44716667D01*
X17733333Y44583334D01*
X17733333Y44483334D01*
X17700000Y44350000D01*
X17666666Y44283334D01*
X17600000Y44216667D01*
X17500000Y44183334D01*
X17433333Y44183334D01*
X17333333Y44216667D01*
X17300000Y44250000D01*
X17300000Y44483334D01*
X17433333Y44483334D01*
X17000000Y44183334D02*
X17000000Y44883334D01*
X16600000Y44183334D01*
X16600000Y44883334D01*
X16266666Y44183334D02*
X16266666Y44883334D01*
X16100000Y44883334D01*
X16000000Y44850000D01*
X15933333Y44783334D01*
X15900000Y44716667D01*
X15866666Y44583334D01*
X15866666Y44483334D01*
X15900000Y44350000D01*
X15933333Y44283334D01*
X16000000Y44216667D01*
X16100000Y44183334D01*
X16266666Y44183334D01*
X17233333Y22050000D02*
X17300000Y22083334D01*
X17400000Y22083334D01*
X17500000Y22050000D01*
X17566666Y21983334D01*
X17600000Y21916667D01*
X17633333Y21783334D01*
X17633333Y21683334D01*
X17600000Y21550000D01*
X17566666Y21483334D01*
X17500000Y21416667D01*
X17400000Y21383334D01*
X17333333Y21383334D01*
X17233333Y21416667D01*
X17200000Y21450000D01*
X17200000Y21683334D01*
X17333333Y21683334D01*
X16900000Y21383334D02*
X16900000Y22083334D01*
X16500000Y21383334D01*
X16500000Y22083334D01*
X16166666Y21383334D02*
X16166666Y22083334D01*
X16000000Y22083334D01*
X15900000Y22050000D01*
X15833333Y21983334D01*
X15800000Y21916667D01*
X15766666Y21783334D01*
X15766666Y21683334D01*
X15800000Y21550000D01*
X15833333Y21483334D01*
X15900000Y21416667D01*
X16000000Y21383334D01*
X16166666Y21383334D01*
X18000000Y46383334D02*
X17766666Y45683334D01*
X17533333Y46383334D01*
X17333333Y45716667D02*
X17233333Y45683334D01*
X17066666Y45683334D01*
X17000000Y45716667D01*
X16966666Y45750000D01*
X16933333Y45816667D01*
X16933333Y45883334D01*
X16966666Y45950000D01*
X17000000Y45983334D01*
X17066666Y46016667D01*
X17200000Y46050000D01*
X17266666Y46083334D01*
X17300000Y46116667D01*
X17333333Y46183334D01*
X17333333Y46250000D01*
X17300000Y46316667D01*
X17266666Y46350000D01*
X17200000Y46383334D01*
X17033333Y46383334D01*
X16933333Y46350000D01*
X16500000Y46016667D02*
X16500000Y45683334D01*
X16733333Y46383334D02*
X16500000Y46016667D01*
X16266666Y46383334D01*
X16066666Y45716667D02*
X15966666Y45683334D01*
X15800000Y45683334D01*
X15733333Y45716667D01*
X15700000Y45750000D01*
X15666666Y45816667D01*
X15666666Y45883334D01*
X15700000Y45950000D01*
X15733333Y45983334D01*
X15800000Y46016667D01*
X15933333Y46050000D01*
X16000000Y46083334D01*
X16033333Y46116667D01*
X16066666Y46183334D01*
X16066666Y46250000D01*
X16033333Y46316667D01*
X16000000Y46350000D01*
X15933333Y46383334D01*
X15766666Y46383334D01*
X15666666Y46350000D01*
X10850000Y3602500D02*
X10883333Y3535834D01*
X10883333Y3435834D01*
X10850000Y3335834D01*
X10783333Y3269167D01*
X10716666Y3235834D01*
X10583333Y3202500D01*
X10483333Y3202500D01*
X10350000Y3235834D01*
X10283333Y3269167D01*
X10216666Y3335834D01*
X10183333Y3435834D01*
X10183333Y3502500D01*
X10216666Y3602500D01*
X10250000Y3635834D01*
X10483333Y3635834D01*
X10483333Y3502500D01*
X10183333Y3935834D02*
X10883333Y3935834D01*
X10183333Y4335834D01*
X10883333Y4335834D01*
X10183333Y4669167D02*
X10883333Y4669167D01*
X10883333Y4835834D01*
X10850000Y4935834D01*
X10783333Y5002500D01*
X10716666Y5035834D01*
X10583333Y5069167D01*
X10483333Y5069167D01*
X10350000Y5035834D01*
X10283333Y5002500D01*
X10216666Y4935834D01*
X10183333Y4835834D01*
X10183333Y4669167D01*
X4730833Y46350000D02*
X4797500Y46383334D01*
X4897500Y46383334D01*
X4997500Y46350000D01*
X5064166Y46283334D01*
X5097500Y46216667D01*
X5130833Y46083334D01*
X5130833Y45983334D01*
X5097500Y45850000D01*
X5064166Y45783334D01*
X4997500Y45716667D01*
X4897500Y45683334D01*
X4830833Y45683334D01*
X4730833Y45716667D01*
X4697500Y45750000D01*
X4697500Y45983334D01*
X4830833Y45983334D01*
X4397500Y45683334D02*
X4397500Y46383334D01*
X4130833Y46383334D01*
X4064166Y46350000D01*
X4030833Y46316667D01*
X3997500Y46250000D01*
X3997500Y46150000D01*
X4030833Y46083334D01*
X4064166Y46050000D01*
X4130833Y46016667D01*
X4397500Y46016667D01*
X3330833Y45683334D02*
X3730833Y45683334D01*
X3530833Y45683334D02*
X3530833Y46383334D01*
X3597500Y46283334D01*
X3664166Y46216667D01*
X3730833Y46183334D01*
X17733333Y34283334D02*
X17400000Y34283334D01*
X17800000Y34083334D02*
X17566666Y34783334D01*
X17333333Y34083334D01*
X16700000Y34083334D02*
X16933333Y34416667D01*
X17100000Y34083334D02*
X17100000Y34783334D01*
X16833333Y34783334D01*
X16766666Y34750000D01*
X16733333Y34716667D01*
X16700000Y34650000D01*
X16700000Y34550000D01*
X16733333Y34483334D01*
X16766666Y34450000D01*
X16833333Y34416667D01*
X17100000Y34416667D01*
X16400000Y34450000D02*
X16166666Y34450000D01*
X16066666Y34083334D02*
X16400000Y34083334D01*
X16400000Y34783334D01*
X16066666Y34783334D01*
X15533333Y34450000D02*
X15766666Y34450000D01*
X15766666Y34083334D02*
X15766666Y34783334D01*
X15433333Y34783334D01*
X5497500Y16950000D02*
X5564166Y16983334D01*
X5664166Y16983334D01*
X5764166Y16950000D01*
X5830833Y16883334D01*
X5864166Y16816667D01*
X5897500Y16683334D01*
X5897500Y16583334D01*
X5864166Y16450000D01*
X5830833Y16383334D01*
X5764166Y16316667D01*
X5664166Y16283334D01*
X5597500Y16283334D01*
X5497500Y16316667D01*
X5464166Y16350000D01*
X5464166Y16583334D01*
X5597500Y16583334D01*
X5164166Y16283334D02*
X5164166Y16983334D01*
X4897500Y16983334D01*
X4830833Y16950000D01*
X4797500Y16916667D01*
X4764166Y16850000D01*
X4764166Y16750000D01*
X4797500Y16683334D01*
X4830833Y16650000D01*
X4897500Y16616667D01*
X5164166Y16616667D01*
X4097500Y16283334D02*
X4497500Y16283334D01*
X4297500Y16283334D02*
X4297500Y16983334D01*
X4364166Y16883334D01*
X4430833Y16816667D01*
X4497500Y16783334D01*
X3864166Y16983334D02*
X3430833Y16983334D01*
X3664166Y16716667D01*
X3564166Y16716667D01*
X3497500Y16683334D01*
X3464166Y16650000D01*
X3430833Y16583334D01*
X3430833Y16416667D01*
X3464166Y16350000D01*
X3497500Y16316667D01*
X3564166Y16283334D01*
X3764166Y16283334D01*
X3830833Y16316667D01*
X3864166Y16350000D01*
X4730833Y47750000D02*
X4797500Y47783334D01*
X4897500Y47783334D01*
X4997500Y47750000D01*
X5064166Y47683334D01*
X5097500Y47616667D01*
X5130833Y47483334D01*
X5130833Y47383334D01*
X5097500Y47250000D01*
X5064166Y47183334D01*
X4997500Y47116667D01*
X4897500Y47083334D01*
X4830833Y47083334D01*
X4730833Y47116667D01*
X4697500Y47150000D01*
X4697500Y47383334D01*
X4830833Y47383334D01*
X4397500Y47083334D02*
X4397500Y47783334D01*
X4130833Y47783334D01*
X4064166Y47750000D01*
X4030833Y47716667D01*
X3997500Y47650000D01*
X3997500Y47550000D01*
X4030833Y47483334D01*
X4064166Y47450000D01*
X4130833Y47416667D01*
X4397500Y47416667D01*
X3564166Y47783334D02*
X3497500Y47783334D01*
X3430833Y47750000D01*
X3397500Y47716667D01*
X3364166Y47650000D01*
X3330833Y47516667D01*
X3330833Y47350000D01*
X3364166Y47216667D01*
X3397500Y47150000D01*
X3430833Y47116667D01*
X3497500Y47083334D01*
X3564166Y47083334D01*
X3630833Y47116667D01*
X3664166Y47150000D01*
X3697500Y47216667D01*
X3730833Y47350000D01*
X3730833Y47516667D01*
X3697500Y47650000D01*
X3664166Y47716667D01*
X3630833Y47750000D01*
X3564166Y47783334D01*
X18083333Y47983334D02*
X17850000Y47283334D01*
X17616666Y47983334D01*
X17150000Y47650000D02*
X17050000Y47616667D01*
X17016666Y47583334D01*
X16983333Y47516667D01*
X16983333Y47416667D01*
X17016666Y47350000D01*
X17050000Y47316667D01*
X17116666Y47283334D01*
X17383333Y47283334D01*
X17383333Y47983334D01*
X17150000Y47983334D01*
X17083333Y47950000D01*
X17050000Y47916667D01*
X17016666Y47850000D01*
X17016666Y47783334D01*
X17050000Y47716667D01*
X17083333Y47683334D01*
X17150000Y47650000D01*
X17383333Y47650000D01*
X16683333Y47983334D02*
X16683333Y47416667D01*
X16650000Y47350000D01*
X16616666Y47316667D01*
X16550000Y47283334D01*
X16416666Y47283334D01*
X16350000Y47316667D01*
X16316666Y47350000D01*
X16283333Y47416667D01*
X16283333Y47983334D01*
X15983333Y47316667D02*
X15883333Y47283334D01*
X15716666Y47283334D01*
X15650000Y47316667D01*
X15616666Y47350000D01*
X15583333Y47416667D01*
X15583333Y47483334D01*
X15616666Y47550000D01*
X15650000Y47583334D01*
X15716666Y47616667D01*
X15850000Y47650000D01*
X15916666Y47683334D01*
X15950000Y47716667D01*
X15983333Y47783334D01*
X15983333Y47850000D01*
X15950000Y47916667D01*
X15916666Y47950000D01*
X15850000Y47983334D01*
X15683333Y47983334D01*
X15583333Y47950000D01*
D12*
X9557142Y13141429D02*
X8757142Y13370000D01*
X9328571Y13598572D01*
X8757142Y13827143D01*
X9557142Y14055715D01*
X9557142Y14398572D02*
X8757142Y14627143D01*
X9328571Y14855715D01*
X8757142Y15084286D01*
X9557142Y15312858D01*
X9557142Y15655715D02*
X8757142Y15884286D01*
X9328571Y16112858D01*
X8757142Y16341429D01*
X9557142Y16570000D01*
X8871428Y17027143D02*
X8814285Y17084286D01*
X8757142Y17027143D01*
X8814285Y16970000D01*
X8871428Y17027143D01*
X8757142Y17027143D01*
X8814285Y18112858D02*
X8757142Y17998572D01*
X8757142Y17770000D01*
X8814285Y17655715D01*
X8871428Y17598572D01*
X8985714Y17541429D01*
X9328571Y17541429D01*
X9442857Y17598572D01*
X9500000Y17655715D01*
X9557142Y17770000D01*
X9557142Y17998572D01*
X9500000Y18112858D01*
X8757142Y18627143D02*
X9557142Y18627143D01*
X9957142Y18627143D02*
X9900000Y18570000D01*
X9842857Y18627143D01*
X9900000Y18684286D01*
X9957142Y18627143D01*
X9842857Y18627143D01*
X8757142Y19198572D02*
X9557142Y19198572D01*
X9328571Y19198572D02*
X9442857Y19255715D01*
X9500000Y19312858D01*
X9557142Y19427143D01*
X9557142Y19541429D01*
X8814285Y20455715D02*
X8757142Y20341429D01*
X8757142Y20112858D01*
X8814285Y19998572D01*
X8871428Y19941429D01*
X8985714Y19884286D01*
X9328571Y19884286D01*
X9442857Y19941429D01*
X9500000Y19998572D01*
X9557142Y20112858D01*
X9557142Y20341429D01*
X9500000Y20455715D01*
X9557142Y21484286D02*
X8757142Y21484286D01*
X9557142Y20970000D02*
X8928571Y20970000D01*
X8814285Y21027143D01*
X8757142Y21141429D01*
X8757142Y21312858D01*
X8814285Y21427143D01*
X8871428Y21484286D01*
X8757142Y22055715D02*
X9557142Y22055715D01*
X9957142Y22055715D02*
X9900000Y21998572D01*
X9842857Y22055715D01*
X9900000Y22112858D01*
X9957142Y22055715D01*
X9842857Y22055715D01*
X9557142Y22455715D02*
X9557142Y22912858D01*
X9957142Y22627143D02*
X8928571Y22627143D01*
X8814285Y22684286D01*
X8757142Y22798572D01*
X8757142Y22912858D01*
X8814285Y23255715D02*
X8757142Y23370000D01*
X8757142Y23598572D01*
X8814285Y23712858D01*
X8928571Y23770000D01*
X8985714Y23770000D01*
X9100000Y23712858D01*
X9157142Y23598572D01*
X9157142Y23427143D01*
X9214285Y23312858D01*
X9328571Y23255715D01*
X9385714Y23255715D01*
X9500000Y23312858D01*
X9557142Y23427143D01*
X9557142Y23598572D01*
X9500000Y23712858D01*
X9557142Y24112858D02*
X9557142Y24570000D01*
X9957142Y24284286D02*
X8928571Y24284286D01*
X8814285Y24341429D01*
X8757142Y24455715D01*
X8757142Y24570000D01*
X8757142Y25484286D02*
X9385714Y25484286D01*
X9500000Y25427143D01*
X9557142Y25312858D01*
X9557142Y25084286D01*
X9500000Y24970000D01*
X8814285Y25484286D02*
X8757142Y25370000D01*
X8757142Y25084286D01*
X8814285Y24970000D01*
X8928571Y24912858D01*
X9042857Y24912858D01*
X9157142Y24970000D01*
X9214285Y25084286D01*
X9214285Y25370000D01*
X9271428Y25484286D01*
X9557142Y25884286D02*
X9557142Y26341429D01*
X9957142Y26055715D02*
X8928571Y26055715D01*
X8814285Y26112858D01*
X8757142Y26227143D01*
X8757142Y26341429D01*
X8814285Y27198572D02*
X8757142Y27084286D01*
X8757142Y26855715D01*
X8814285Y26741429D01*
X8928571Y26684286D01*
X9385714Y26684286D01*
X9500000Y26741429D01*
X9557142Y26855715D01*
X9557142Y27084286D01*
X9500000Y27198572D01*
X9385714Y27255715D01*
X9271428Y27255715D01*
X9157142Y26684286D01*
X8871428Y27770000D02*
X8814285Y27827143D01*
X8757142Y27770000D01*
X8814285Y27712858D01*
X8871428Y27770000D01*
X8757142Y27770000D01*
X8814285Y28855715D02*
X8757142Y28741429D01*
X8757142Y28512858D01*
X8814285Y28398572D01*
X8871428Y28341429D01*
X8985714Y28284286D01*
X9328571Y28284286D01*
X9442857Y28341429D01*
X9500000Y28398572D01*
X9557142Y28512858D01*
X9557142Y28741429D01*
X9500000Y28855715D01*
X8757142Y29541429D02*
X8814285Y29427143D01*
X8871428Y29370000D01*
X8985714Y29312858D01*
X9328571Y29312858D01*
X9442857Y29370000D01*
X9500000Y29427143D01*
X9557142Y29541429D01*
X9557142Y29712858D01*
X9500000Y29827143D01*
X9442857Y29884286D01*
X9328571Y29941429D01*
X8985714Y29941429D01*
X8871428Y29884286D01*
X8814285Y29827143D01*
X8757142Y29712858D01*
X8757142Y29541429D01*
X8757142Y30455715D02*
X9557142Y30455715D01*
X9442857Y30455715D02*
X9500000Y30512858D01*
X9557142Y30627143D01*
X9557142Y30798572D01*
X9500000Y30912858D01*
X9385714Y30970000D01*
X8757142Y30970000D01*
X9385714Y30970000D02*
X9500000Y31027143D01*
X9557142Y31141429D01*
X9557142Y31312858D01*
X9500000Y31427143D01*
X9385714Y31484286D01*
X8757142Y31484286D01*
D11*
X7138095Y16669167D02*
X7938095Y16669167D01*
X7938095Y16859643D01*
X7900000Y16973929D01*
X7823809Y17050120D01*
X7747619Y17088215D01*
X7595238Y17126310D01*
X7480952Y17126310D01*
X7328571Y17088215D01*
X7252380Y17050120D01*
X7176190Y16973929D01*
X7138095Y16859643D01*
X7138095Y16669167D01*
X7176190Y17773929D02*
X7138095Y17697739D01*
X7138095Y17545358D01*
X7176190Y17469167D01*
X7252380Y17431072D01*
X7557142Y17431072D01*
X7633333Y17469167D01*
X7671428Y17545358D01*
X7671428Y17697739D01*
X7633333Y17773929D01*
X7557142Y17812024D01*
X7480952Y17812024D01*
X7404761Y17431072D01*
X7176190Y18116786D02*
X7138095Y18192977D01*
X7138095Y18345358D01*
X7176190Y18421548D01*
X7252380Y18459643D01*
X7290476Y18459643D01*
X7366666Y18421548D01*
X7404761Y18345358D01*
X7404761Y18231072D01*
X7442857Y18154881D01*
X7519047Y18116786D01*
X7557142Y18116786D01*
X7633333Y18154881D01*
X7671428Y18231072D01*
X7671428Y18345358D01*
X7633333Y18421548D01*
X7138095Y18802500D02*
X7671428Y18802500D01*
X7938095Y18802500D02*
X7900000Y18764405D01*
X7861904Y18802500D01*
X7900000Y18840596D01*
X7938095Y18802500D01*
X7861904Y18802500D01*
X7671428Y19526310D02*
X7023809Y19526310D01*
X6947619Y19488215D01*
X6909523Y19450120D01*
X6871428Y19373929D01*
X6871428Y19259643D01*
X6909523Y19183453D01*
X7176190Y19526310D02*
X7138095Y19450120D01*
X7138095Y19297739D01*
X7176190Y19221548D01*
X7214285Y19183453D01*
X7290476Y19145358D01*
X7519047Y19145358D01*
X7595238Y19183453D01*
X7633333Y19221548D01*
X7671428Y19297739D01*
X7671428Y19450120D01*
X7633333Y19526310D01*
X7671428Y19907262D02*
X7138095Y19907262D01*
X7595238Y19907262D02*
X7633333Y19945358D01*
X7671428Y20021548D01*
X7671428Y20135834D01*
X7633333Y20212024D01*
X7557142Y20250120D01*
X7138095Y20250120D01*
X7176190Y20935834D02*
X7138095Y20859643D01*
X7138095Y20707262D01*
X7176190Y20631072D01*
X7252380Y20592977D01*
X7557142Y20592977D01*
X7633333Y20631072D01*
X7671428Y20707262D01*
X7671428Y20859643D01*
X7633333Y20935834D01*
X7557142Y20973929D01*
X7480952Y20973929D01*
X7404761Y20592977D01*
X7138095Y21659643D02*
X7938095Y21659643D01*
X7176190Y21659643D02*
X7138095Y21583453D01*
X7138095Y21431072D01*
X7176190Y21354881D01*
X7214285Y21316786D01*
X7290476Y21278691D01*
X7519047Y21278691D01*
X7595238Y21316786D01*
X7633333Y21354881D01*
X7671428Y21431072D01*
X7671428Y21583453D01*
X7633333Y21659643D01*
X7138095Y22650120D02*
X7671428Y22650120D01*
X7938095Y22650120D02*
X7900000Y22612024D01*
X7861904Y22650120D01*
X7900000Y22688215D01*
X7938095Y22650120D01*
X7861904Y22650120D01*
X7671428Y23031072D02*
X7138095Y23031072D01*
X7595238Y23031072D02*
X7633333Y23069167D01*
X7671428Y23145358D01*
X7671428Y23259643D01*
X7633333Y23335834D01*
X7557142Y23373929D01*
X7138095Y23373929D01*
X7138095Y24364405D02*
X7938095Y24364405D01*
X7138095Y24821548D02*
X7595238Y24478691D01*
X7938095Y24821548D02*
X7480952Y24364405D01*
X7138095Y25164405D02*
X7671428Y25164405D01*
X7938095Y25164405D02*
X7900000Y25126310D01*
X7861904Y25164405D01*
X7900000Y25202500D01*
X7938095Y25164405D01*
X7861904Y25164405D01*
X7214285Y26002500D02*
X7176190Y25964405D01*
X7138095Y25850120D01*
X7138095Y25773929D01*
X7176190Y25659643D01*
X7252380Y25583453D01*
X7328571Y25545358D01*
X7480952Y25507262D01*
X7595238Y25507262D01*
X7747619Y25545358D01*
X7823809Y25583453D01*
X7900000Y25659643D01*
X7938095Y25773929D01*
X7938095Y25850120D01*
X7900000Y25964405D01*
X7861904Y26002500D01*
X7138095Y26688215D02*
X7557142Y26688215D01*
X7633333Y26650120D01*
X7671428Y26573929D01*
X7671428Y26421548D01*
X7633333Y26345358D01*
X7176190Y26688215D02*
X7138095Y26612024D01*
X7138095Y26421548D01*
X7176190Y26345358D01*
X7252380Y26307262D01*
X7328571Y26307262D01*
X7404761Y26345358D01*
X7442857Y26421548D01*
X7442857Y26612024D01*
X7480952Y26688215D01*
X7138095Y27412024D02*
X7938095Y27412024D01*
X7176190Y27412024D02*
X7138095Y27335834D01*
X7138095Y27183453D01*
X7176190Y27107262D01*
X7214285Y27069167D01*
X7290476Y27031072D01*
X7519047Y27031072D01*
X7595238Y27069167D01*
X7633333Y27107262D01*
X7671428Y27183453D01*
X7671428Y27335834D01*
X7633333Y27412024D01*
X4830833Y39850000D02*
X4897500Y39883334D01*
X4997500Y39883334D01*
X5097500Y39850000D01*
X5164166Y39783334D01*
X5197500Y39716667D01*
X5230833Y39583334D01*
X5230833Y39483334D01*
X5197500Y39350000D01*
X5164166Y39283334D01*
X5097500Y39216667D01*
X4997500Y39183334D01*
X4930833Y39183334D01*
X4830833Y39216667D01*
X4797500Y39250000D01*
X4797500Y39483334D01*
X4930833Y39483334D01*
X4497500Y39183334D02*
X4497500Y39883334D01*
X4230833Y39883334D01*
X4164166Y39850000D01*
X4130833Y39816667D01*
X4097500Y39750000D01*
X4097500Y39650000D01*
X4130833Y39583334D01*
X4164166Y39550000D01*
X4230833Y39516667D01*
X4497500Y39516667D01*
X3497500Y39650000D02*
X3497500Y39183334D01*
X3664166Y39916667D02*
X3830833Y39416667D01*
X3397500Y39416667D01*
X4797500Y3750000D02*
X4864166Y3783334D01*
X4964166Y3783334D01*
X5064166Y3750000D01*
X5130833Y3683334D01*
X5164166Y3616667D01*
X5197500Y3483334D01*
X5197500Y3383334D01*
X5164166Y3250000D01*
X5130833Y3183334D01*
X5064166Y3116667D01*
X4964166Y3083334D01*
X4897500Y3083334D01*
X4797500Y3116667D01*
X4764166Y3150000D01*
X4764166Y3383334D01*
X4897500Y3383334D01*
X4464166Y3083334D02*
X4464166Y3783334D01*
X4064166Y3083334D01*
X4064166Y3783334D01*
X3730833Y3083334D02*
X3730833Y3783334D01*
X3564166Y3783334D01*
X3464166Y3750000D01*
X3397500Y3683334D01*
X3364166Y3616667D01*
X3330833Y3483334D01*
X3330833Y3383334D01*
X3364166Y3250000D01*
X3397500Y3183334D01*
X3464166Y3116667D01*
X3564166Y3083334D01*
X3730833Y3083334D01*
X17333333Y27150000D02*
X17400000Y27183334D01*
X17500000Y27183334D01*
X17600000Y27150000D01*
X17666666Y27083334D01*
X17700000Y27016667D01*
X17733333Y26883334D01*
X17733333Y26783334D01*
X17700000Y26650000D01*
X17666666Y26583334D01*
X17600000Y26516667D01*
X17500000Y26483334D01*
X17433333Y26483334D01*
X17333333Y26516667D01*
X17300000Y26550000D01*
X17300000Y26783334D01*
X17433333Y26783334D01*
X17000000Y26483334D02*
X17000000Y27183334D01*
X16733333Y27183334D01*
X16666666Y27150000D01*
X16633333Y27116667D01*
X16600000Y27050000D01*
X16600000Y26950000D01*
X16633333Y26883334D01*
X16666666Y26850000D01*
X16733333Y26816667D01*
X17000000Y26816667D01*
X16333333Y27116667D02*
X16300000Y27150000D01*
X16233333Y27183334D01*
X16066666Y27183334D01*
X16000000Y27150000D01*
X15966666Y27116667D01*
X15933333Y27050000D01*
X15933333Y26983334D01*
X15966666Y26883334D01*
X16366666Y26483334D01*
X15933333Y26483334D01*
X15700000Y27183334D02*
X15233333Y27183334D01*
X15533333Y26483334D01*
X17316666Y36583334D02*
X17550000Y36916667D01*
X17716666Y36583334D02*
X17716666Y37283334D01*
X17450000Y37283334D01*
X17383333Y37250000D01*
X17350000Y37216667D01*
X17316666Y37150000D01*
X17316666Y37050000D01*
X17350000Y36983334D01*
X17383333Y36950000D01*
X17450000Y36916667D01*
X17716666Y36916667D01*
X17016666Y37283334D02*
X17016666Y36716667D01*
X16983333Y36650000D01*
X16950000Y36616667D01*
X16883333Y36583334D01*
X16750000Y36583334D01*
X16683333Y36616667D01*
X16650000Y36650000D01*
X16616666Y36716667D01*
X16616666Y37283334D01*
X16283333Y36583334D02*
X16283333Y37283334D01*
X15883333Y36583334D01*
X15883333Y37283334D01*
X5497500Y22050000D02*
X5564166Y22083334D01*
X5664166Y22083334D01*
X5764166Y22050000D01*
X5830833Y21983334D01*
X5864166Y21916667D01*
X5897500Y21783334D01*
X5897500Y21683334D01*
X5864166Y21550000D01*
X5830833Y21483334D01*
X5764166Y21416667D01*
X5664166Y21383334D01*
X5597500Y21383334D01*
X5497500Y21416667D01*
X5464166Y21450000D01*
X5464166Y21683334D01*
X5597500Y21683334D01*
X5164166Y21383334D02*
X5164166Y22083334D01*
X4897500Y22083334D01*
X4830833Y22050000D01*
X4797500Y22016667D01*
X4764166Y21950000D01*
X4764166Y21850000D01*
X4797500Y21783334D01*
X4830833Y21750000D01*
X4897500Y21716667D01*
X5164166Y21716667D01*
X4097500Y21383334D02*
X4497500Y21383334D01*
X4297500Y21383334D02*
X4297500Y22083334D01*
X4364166Y21983334D01*
X4430833Y21916667D01*
X4497500Y21883334D01*
X3430833Y21383334D02*
X3830833Y21383334D01*
X3630833Y21383334D02*
X3630833Y22083334D01*
X3697500Y21983334D01*
X3764166Y21916667D01*
X3830833Y21883334D01*
X4830833Y32250000D02*
X4897500Y32283334D01*
X4997500Y32283334D01*
X5097500Y32250000D01*
X5164166Y32183334D01*
X5197500Y32116667D01*
X5230833Y31983334D01*
X5230833Y31883334D01*
X5197500Y31750000D01*
X5164166Y31683334D01*
X5097500Y31616667D01*
X4997500Y31583334D01*
X4930833Y31583334D01*
X4830833Y31616667D01*
X4797500Y31650000D01*
X4797500Y31883334D01*
X4930833Y31883334D01*
X4497500Y31583334D02*
X4497500Y32283334D01*
X4230833Y32283334D01*
X4164166Y32250000D01*
X4130833Y32216667D01*
X4097500Y32150000D01*
X4097500Y32050000D01*
X4130833Y31983334D01*
X4164166Y31950000D01*
X4230833Y31916667D01*
X4497500Y31916667D01*
X3864166Y32283334D02*
X3397500Y32283334D01*
X3697500Y31583334D01*
X17233333Y19550000D02*
X17300000Y19583334D01*
X17400000Y19583334D01*
X17500000Y19550000D01*
X17566666Y19483334D01*
X17600000Y19416667D01*
X17633333Y19283334D01*
X17633333Y19183334D01*
X17600000Y19050000D01*
X17566666Y18983334D01*
X17500000Y18916667D01*
X17400000Y18883334D01*
X17333333Y18883334D01*
X17233333Y18916667D01*
X17200000Y18950000D01*
X17200000Y19183334D01*
X17333333Y19183334D01*
X16900000Y18883334D02*
X16900000Y19583334D01*
X16633333Y19583334D01*
X16566666Y19550000D01*
X16533333Y19516667D01*
X16500000Y19450000D01*
X16500000Y19350000D01*
X16533333Y19283334D01*
X16566666Y19250000D01*
X16633333Y19216667D01*
X16900000Y19216667D01*
X16233333Y19516667D02*
X16200000Y19550000D01*
X16133333Y19583334D01*
X15966666Y19583334D01*
X15900000Y19550000D01*
X15866666Y19516667D01*
X15833333Y19450000D01*
X15833333Y19383334D01*
X15866666Y19283334D01*
X16266666Y18883334D01*
X15833333Y18883334D01*
X15200000Y19583334D02*
X15533333Y19583334D01*
X15566666Y19250000D01*
X15533333Y19283334D01*
X15466666Y19316667D01*
X15300000Y19316667D01*
X15233333Y19283334D01*
X15200000Y19250000D01*
X15166666Y19183334D01*
X15166666Y19016667D01*
X15200000Y18950000D01*
X15233333Y18916667D01*
X15300000Y18883334D01*
X15466666Y18883334D01*
X15533333Y18916667D01*
X15566666Y18950000D01*
X5397500Y9350000D02*
X5464166Y9383334D01*
X5564166Y9383334D01*
X5664166Y9350000D01*
X5730833Y9283334D01*
X5764166Y9216667D01*
X5797500Y9083334D01*
X5797500Y8983334D01*
X5764166Y8850000D01*
X5730833Y8783334D01*
X5664166Y8716667D01*
X5564166Y8683334D01*
X5497500Y8683334D01*
X5397500Y8716667D01*
X5364166Y8750000D01*
X5364166Y8983334D01*
X5497500Y8983334D01*
X5064166Y8683334D02*
X5064166Y9383334D01*
X4797500Y9383334D01*
X4730833Y9350000D01*
X4697500Y9316667D01*
X4664166Y9250000D01*
X4664166Y9150000D01*
X4697500Y9083334D01*
X4730833Y9050000D01*
X4797500Y9016667D01*
X5064166Y9016667D01*
X3997500Y8683334D02*
X4397500Y8683334D01*
X4197500Y8683334D02*
X4197500Y9383334D01*
X4264166Y9283334D01*
X4330833Y9216667D01*
X4397500Y9183334D01*
X3397500Y9383334D02*
X3530833Y9383334D01*
X3597500Y9350000D01*
X3630833Y9316667D01*
X3697500Y9216667D01*
X3730833Y9083334D01*
X3730833Y8816667D01*
X3697500Y8750000D01*
X3664166Y8716667D01*
X3597500Y8683334D01*
X3464166Y8683334D01*
X3397500Y8716667D01*
X3364166Y8750000D01*
X3330833Y8816667D01*
X3330833Y8983334D01*
X3364166Y9050000D01*
X3397500Y9083334D01*
X3464166Y9116667D01*
X3597500Y9116667D01*
X3664166Y9083334D01*
X3697500Y9050000D01*
X3730833Y8983334D01*
X17233333Y11950000D02*
X17300000Y11983334D01*
X17400000Y11983334D01*
X17500000Y11950000D01*
X17566666Y11883334D01*
X17600000Y11816667D01*
X17633333Y11683334D01*
X17633333Y11583334D01*
X17600000Y11450000D01*
X17566666Y11383334D01*
X17500000Y11316667D01*
X17400000Y11283334D01*
X17333333Y11283334D01*
X17233333Y11316667D01*
X17200000Y11350000D01*
X17200000Y11583334D01*
X17333333Y11583334D01*
X16900000Y11283334D02*
X16900000Y11983334D01*
X16633333Y11983334D01*
X16566666Y11950000D01*
X16533333Y11916667D01*
X16500000Y11850000D01*
X16500000Y11750000D01*
X16533333Y11683334D01*
X16566666Y11650000D01*
X16633333Y11616667D01*
X16900000Y11616667D01*
X16233333Y11916667D02*
X16200000Y11950000D01*
X16133333Y11983334D01*
X15966666Y11983334D01*
X15900000Y11950000D01*
X15866666Y11916667D01*
X15833333Y11850000D01*
X15833333Y11783334D01*
X15866666Y11683334D01*
X16266666Y11283334D01*
X15833333Y11283334D01*
X15566666Y11916667D02*
X15533333Y11950000D01*
X15466666Y11983334D01*
X15300000Y11983334D01*
X15233333Y11950000D01*
X15200000Y11916667D01*
X15166666Y11850000D01*
X15166666Y11783334D01*
X15200000Y11683334D01*
X15600000Y11283334D01*
X15166666Y11283334D01*
X17766666Y39783334D02*
X17333333Y39783334D01*
X17566666Y39516667D01*
X17466666Y39516667D01*
X17400000Y39483334D01*
X17366666Y39450000D01*
X17333333Y39383334D01*
X17333333Y39216667D01*
X17366666Y39150000D01*
X17400000Y39116667D01*
X17466666Y39083334D01*
X17666666Y39083334D01*
X17733333Y39116667D01*
X17766666Y39150000D01*
X17133333Y39783334D02*
X16900000Y39083334D01*
X16666666Y39783334D01*
X16500000Y39783334D02*
X16066666Y39783334D01*
X16300000Y39516667D01*
X16200000Y39516667D01*
X16133333Y39483334D01*
X16100000Y39450000D01*
X16066666Y39383334D01*
X16066666Y39216667D01*
X16100000Y39150000D01*
X16133333Y39116667D01*
X16200000Y39083334D01*
X16400000Y39083334D01*
X16466666Y39116667D01*
X16500000Y39150000D01*
X4730833Y44850000D02*
X4797500Y44883334D01*
X4897500Y44883334D01*
X4997500Y44850000D01*
X5064166Y44783334D01*
X5097500Y44716667D01*
X5130833Y44583334D01*
X5130833Y44483334D01*
X5097500Y44350000D01*
X5064166Y44283334D01*
X4997500Y44216667D01*
X4897500Y44183334D01*
X4830833Y44183334D01*
X4730833Y44216667D01*
X4697500Y44250000D01*
X4697500Y44483334D01*
X4830833Y44483334D01*
X4397500Y44183334D02*
X4397500Y44883334D01*
X4130833Y44883334D01*
X4064166Y44850000D01*
X4030833Y44816667D01*
X3997500Y44750000D01*
X3997500Y44650000D01*
X4030833Y44583334D01*
X4064166Y44550000D01*
X4130833Y44516667D01*
X4397500Y44516667D01*
X3730833Y44816667D02*
X3697500Y44850000D01*
X3630833Y44883334D01*
X3464166Y44883334D01*
X3397500Y44850000D01*
X3364166Y44816667D01*
X3330833Y44750000D01*
X3330833Y44683334D01*
X3364166Y44583334D01*
X3764166Y44183334D01*
X3330833Y44183334D01*
X17333333Y24650000D02*
X17400000Y24683334D01*
X17500000Y24683334D01*
X17600000Y24650000D01*
X17666666Y24583334D01*
X17700000Y24516667D01*
X17733333Y24383334D01*
X17733333Y24283334D01*
X17700000Y24150000D01*
X17666666Y24083334D01*
X17600000Y24016667D01*
X17500000Y23983334D01*
X17433333Y23983334D01*
X17333333Y24016667D01*
X17300000Y24050000D01*
X17300000Y24283334D01*
X17433333Y24283334D01*
X17000000Y23983334D02*
X17000000Y24683334D01*
X16733333Y24683334D01*
X16666666Y24650000D01*
X16633333Y24616667D01*
X16600000Y24550000D01*
X16600000Y24450000D01*
X16633333Y24383334D01*
X16666666Y24350000D01*
X16733333Y24316667D01*
X17000000Y24316667D01*
X16333333Y24616667D02*
X16300000Y24650000D01*
X16233333Y24683334D01*
X16066666Y24683334D01*
X16000000Y24650000D01*
X15966666Y24616667D01*
X15933333Y24550000D01*
X15933333Y24483334D01*
X15966666Y24383334D01*
X16366666Y23983334D01*
X15933333Y23983334D01*
X15333333Y24683334D02*
X15466666Y24683334D01*
X15533333Y24650000D01*
X15566666Y24616667D01*
X15633333Y24516667D01*
X15666666Y24383334D01*
X15666666Y24116667D01*
X15633333Y24050000D01*
X15600000Y24016667D01*
X15533333Y23983334D01*
X15400000Y23983334D01*
X15333333Y24016667D01*
X15300000Y24050000D01*
X15266666Y24116667D01*
X15266666Y24283334D01*
X15300000Y24350000D01*
X15333333Y24383334D01*
X15400000Y24416667D01*
X15533333Y24416667D01*
X15600000Y24383334D01*
X15633333Y24350000D01*
X15666666Y24283334D01*
X4830833Y34750000D02*
X4897500Y34783334D01*
X4997500Y34783334D01*
X5097500Y34750000D01*
X5164166Y34683334D01*
X5197500Y34616667D01*
X5230833Y34483334D01*
X5230833Y34383334D01*
X5197500Y34250000D01*
X5164166Y34183334D01*
X5097500Y34116667D01*
X4997500Y34083334D01*
X4930833Y34083334D01*
X4830833Y34116667D01*
X4797500Y34150000D01*
X4797500Y34383334D01*
X4930833Y34383334D01*
X4497500Y34083334D02*
X4497500Y34783334D01*
X4230833Y34783334D01*
X4164166Y34750000D01*
X4130833Y34716667D01*
X4097500Y34650000D01*
X4097500Y34550000D01*
X4130833Y34483334D01*
X4164166Y34450000D01*
X4230833Y34416667D01*
X4497500Y34416667D01*
X3497500Y34783334D02*
X3630833Y34783334D01*
X3697500Y34750000D01*
X3730833Y34716667D01*
X3797500Y34616667D01*
X3830833Y34483334D01*
X3830833Y34216667D01*
X3797500Y34150000D01*
X3764166Y34116667D01*
X3697500Y34083334D01*
X3564166Y34083334D01*
X3497500Y34116667D01*
X3464166Y34150000D01*
X3430833Y34216667D01*
X3430833Y34383334D01*
X3464166Y34450000D01*
X3497500Y34483334D01*
X3564166Y34516667D01*
X3697500Y34516667D01*
X3764166Y34483334D01*
X3797500Y34450000D01*
X3830833Y34383334D01*
X17233333Y6850000D02*
X17300000Y6883334D01*
X17400000Y6883334D01*
X17500000Y6850000D01*
X17566666Y6783334D01*
X17600000Y6716667D01*
X17633333Y6583334D01*
X17633333Y6483334D01*
X17600000Y6350000D01*
X17566666Y6283334D01*
X17500000Y6216667D01*
X17400000Y6183334D01*
X17333333Y6183334D01*
X17233333Y6216667D01*
X17200000Y6250000D01*
X17200000Y6483334D01*
X17333333Y6483334D01*
X16900000Y6183334D02*
X16900000Y6883334D01*
X16633333Y6883334D01*
X16566666Y6850000D01*
X16533333Y6816667D01*
X16500000Y6750000D01*
X16500000Y6650000D01*
X16533333Y6583334D01*
X16566666Y6550000D01*
X16633333Y6516667D01*
X16900000Y6516667D01*
X16233333Y6816667D02*
X16200000Y6850000D01*
X16133333Y6883334D01*
X15966666Y6883334D01*
X15900000Y6850000D01*
X15866666Y6816667D01*
X15833333Y6750000D01*
X15833333Y6683334D01*
X15866666Y6583334D01*
X16266666Y6183334D01*
X15833333Y6183334D01*
X15400000Y6883334D02*
X15333333Y6883334D01*
X15266666Y6850000D01*
X15233333Y6816667D01*
X15200000Y6750000D01*
X15166666Y6616667D01*
X15166666Y6450000D01*
X15200000Y6316667D01*
X15233333Y6250000D01*
X15266666Y6216667D01*
X15333333Y6183334D01*
X15400000Y6183334D01*
X15466666Y6216667D01*
X15500000Y6250000D01*
X15533333Y6316667D01*
X15566666Y6450000D01*
X15566666Y6616667D01*
X15533333Y6750000D01*
X15500000Y6816667D01*
X15466666Y6850000D01*
X15400000Y6883334D01*
X5497500Y19450000D02*
X5564166Y19483334D01*
X5664166Y19483334D01*
X5764166Y19450000D01*
X5830833Y19383334D01*
X5864166Y19316667D01*
X5897500Y19183334D01*
X5897500Y19083334D01*
X5864166Y18950000D01*
X5830833Y18883334D01*
X5764166Y18816667D01*
X5664166Y18783334D01*
X5597500Y18783334D01*
X5497500Y18816667D01*
X5464166Y18850000D01*
X5464166Y19083334D01*
X5597500Y19083334D01*
X5164166Y18783334D02*
X5164166Y19483334D01*
X4897500Y19483334D01*
X4830833Y19450000D01*
X4797500Y19416667D01*
X4764166Y19350000D01*
X4764166Y19250000D01*
X4797500Y19183334D01*
X4830833Y19150000D01*
X4897500Y19116667D01*
X5164166Y19116667D01*
X4097500Y18783334D02*
X4497500Y18783334D01*
X4297500Y18783334D02*
X4297500Y19483334D01*
X4364166Y19383334D01*
X4430833Y19316667D01*
X4497500Y19283334D01*
X3830833Y19416667D02*
X3797500Y19450000D01*
X3730833Y19483334D01*
X3564166Y19483334D01*
X3497500Y19450000D01*
X3464166Y19416667D01*
X3430833Y19350000D01*
X3430833Y19283334D01*
X3464166Y19183334D01*
X3864166Y18783334D01*
X3430833Y18783334D01*
X5397500Y6750000D02*
X5464166Y6783334D01*
X5564166Y6783334D01*
X5664166Y6750000D01*
X5730833Y6683334D01*
X5764166Y6616667D01*
X5797500Y6483334D01*
X5797500Y6383334D01*
X5764166Y6250000D01*
X5730833Y6183334D01*
X5664166Y6116667D01*
X5564166Y6083334D01*
X5497500Y6083334D01*
X5397500Y6116667D01*
X5364166Y6150000D01*
X5364166Y6383334D01*
X5497500Y6383334D01*
X5064166Y6083334D02*
X5064166Y6783334D01*
X4797500Y6783334D01*
X4730833Y6750000D01*
X4697500Y6716667D01*
X4664166Y6650000D01*
X4664166Y6550000D01*
X4697500Y6483334D01*
X4730833Y6450000D01*
X4797500Y6416667D01*
X5064166Y6416667D01*
X3997500Y6083334D02*
X4397500Y6083334D01*
X4197500Y6083334D02*
X4197500Y6783334D01*
X4264166Y6683334D01*
X4330833Y6616667D01*
X4397500Y6583334D01*
X3764166Y6783334D02*
X3297500Y6783334D01*
X3597500Y6083334D01*
X17233333Y5250000D02*
X17300000Y5283334D01*
X17400000Y5283334D01*
X17500000Y5250000D01*
X17566666Y5183334D01*
X17600000Y5116667D01*
X17633333Y4983334D01*
X17633333Y4883334D01*
X17600000Y4750000D01*
X17566666Y4683334D01*
X17500000Y4616667D01*
X17400000Y4583334D01*
X17333333Y4583334D01*
X17233333Y4616667D01*
X17200000Y4650000D01*
X17200000Y4883334D01*
X17333333Y4883334D01*
X16900000Y4583334D02*
X16900000Y5283334D01*
X16633333Y5283334D01*
X16566666Y5250000D01*
X16533333Y5216667D01*
X16500000Y5150000D01*
X16500000Y5050000D01*
X16533333Y4983334D01*
X16566666Y4950000D01*
X16633333Y4916667D01*
X16900000Y4916667D01*
X15833333Y4583334D02*
X16233333Y4583334D01*
X16033333Y4583334D02*
X16033333Y5283334D01*
X16100000Y5183334D01*
X16166666Y5116667D01*
X16233333Y5083334D01*
X15500000Y4583334D02*
X15366666Y4583334D01*
X15300000Y4616667D01*
X15266666Y4650000D01*
X15200000Y4750000D01*
X15166666Y4883334D01*
X15166666Y5150000D01*
X15200000Y5216667D01*
X15233333Y5250000D01*
X15300000Y5283334D01*
X15433333Y5283334D01*
X15500000Y5250000D01*
X15533333Y5216667D01*
X15566666Y5150000D01*
X15566666Y4983334D01*
X15533333Y4916667D01*
X15500000Y4883334D01*
X15433333Y4850000D01*
X15300000Y4850000D01*
X15233333Y4883334D01*
X15200000Y4916667D01*
X15166666Y4983334D01*
X17333333Y29650000D02*
X17400000Y29683334D01*
X17500000Y29683334D01*
X17600000Y29650000D01*
X17666666Y29583334D01*
X17700000Y29516667D01*
X17733333Y29383334D01*
X17733333Y29283334D01*
X17700000Y29150000D01*
X17666666Y29083334D01*
X17600000Y29016667D01*
X17500000Y28983334D01*
X17433333Y28983334D01*
X17333333Y29016667D01*
X17300000Y29050000D01*
X17300000Y29283334D01*
X17433333Y29283334D01*
X17000000Y28983334D02*
X17000000Y29683334D01*
X16733333Y29683334D01*
X16666666Y29650000D01*
X16633333Y29616667D01*
X16600000Y29550000D01*
X16600000Y29450000D01*
X16633333Y29383334D01*
X16666666Y29350000D01*
X16733333Y29316667D01*
X17000000Y29316667D01*
X16333333Y29616667D02*
X16300000Y29650000D01*
X16233333Y29683334D01*
X16066666Y29683334D01*
X16000000Y29650000D01*
X15966666Y29616667D01*
X15933333Y29550000D01*
X15933333Y29483334D01*
X15966666Y29383334D01*
X16366666Y28983334D01*
X15933333Y28983334D01*
X15533333Y29383334D02*
X15600000Y29416667D01*
X15633333Y29450000D01*
X15666666Y29516667D01*
X15666666Y29550000D01*
X15633333Y29616667D01*
X15600000Y29650000D01*
X15533333Y29683334D01*
X15400000Y29683334D01*
X15333333Y29650000D01*
X15300000Y29616667D01*
X15266666Y29550000D01*
X15266666Y29516667D01*
X15300000Y29450000D01*
X15333333Y29416667D01*
X15400000Y29383334D01*
X15533333Y29383334D01*
X15600000Y29350000D01*
X15633333Y29316667D01*
X15666666Y29250000D01*
X15666666Y29116667D01*
X15633333Y29050000D01*
X15600000Y29016667D01*
X15533333Y28983334D01*
X15400000Y28983334D01*
X15333333Y29016667D01*
X15300000Y29050000D01*
X15266666Y29116667D01*
X15266666Y29250000D01*
X15300000Y29316667D01*
X15333333Y29350000D01*
X15400000Y29383334D01*
X17233333Y9450000D02*
X17300000Y9483334D01*
X17400000Y9483334D01*
X17500000Y9450000D01*
X17566666Y9383334D01*
X17600000Y9316667D01*
X17633333Y9183334D01*
X17633333Y9083334D01*
X17600000Y8950000D01*
X17566666Y8883334D01*
X17500000Y8816667D01*
X17400000Y8783334D01*
X17333333Y8783334D01*
X17233333Y8816667D01*
X17200000Y8850000D01*
X17200000Y9083334D01*
X17333333Y9083334D01*
X16900000Y8783334D02*
X16900000Y9483334D01*
X16633333Y9483334D01*
X16566666Y9450000D01*
X16533333Y9416667D01*
X16500000Y9350000D01*
X16500000Y9250000D01*
X16533333Y9183334D01*
X16566666Y9150000D01*
X16633333Y9116667D01*
X16900000Y9116667D01*
X16233333Y9416667D02*
X16200000Y9450000D01*
X16133333Y9483334D01*
X15966666Y9483334D01*
X15900000Y9450000D01*
X15866666Y9416667D01*
X15833333Y9350000D01*
X15833333Y9283334D01*
X15866666Y9183334D01*
X16266666Y8783334D01*
X15833333Y8783334D01*
X15166666Y8783334D02*
X15566666Y8783334D01*
X15366666Y8783334D02*
X15366666Y9483334D01*
X15433333Y9383334D01*
X15500000Y9316667D01*
X15566666Y9283334D01*
X12716666Y3102500D02*
X12683333Y3202500D01*
X12683333Y3369167D01*
X12716666Y3435834D01*
X12750000Y3469167D01*
X12816666Y3502500D01*
X12883333Y3502500D01*
X12950000Y3469167D01*
X12983333Y3435834D01*
X13016666Y3369167D01*
X13050000Y3235834D01*
X13083333Y3169167D01*
X13116666Y3135834D01*
X13183333Y3102500D01*
X13250000Y3102500D01*
X13316666Y3135834D01*
X13350000Y3169167D01*
X13383333Y3235834D01*
X13383333Y3402500D01*
X13350000Y3502500D01*
X13383333Y3735834D02*
X12683333Y3902500D01*
X13183333Y4035834D01*
X12683333Y4169167D01*
X13383333Y4335834D01*
X12683333Y4602500D02*
X13383333Y4602500D01*
X13383333Y4769167D01*
X13350000Y4869167D01*
X13283333Y4935834D01*
X13216666Y4969167D01*
X13083333Y5002500D01*
X12983333Y5002500D01*
X12850000Y4969167D01*
X12783333Y4935834D01*
X12716666Y4869167D01*
X12683333Y4769167D01*
X12683333Y4602500D01*
X12683333Y5302500D02*
X13383333Y5302500D01*
X13383333Y5769167D02*
X13383333Y5902500D01*
X13350000Y5969167D01*
X13283333Y6035834D01*
X13150000Y6069167D01*
X12916666Y6069167D01*
X12783333Y6035834D01*
X12716666Y5969167D01*
X12683333Y5902500D01*
X12683333Y5769167D01*
X12716666Y5702500D01*
X12783333Y5635834D01*
X12916666Y5602500D01*
X13150000Y5602500D01*
X13283333Y5635834D01*
X13350000Y5702500D01*
X13383333Y5769167D01*
X4830833Y29650000D02*
X4897500Y29683334D01*
X4997500Y29683334D01*
X5097500Y29650000D01*
X5164166Y29583334D01*
X5197500Y29516667D01*
X5230833Y29383334D01*
X5230833Y29283334D01*
X5197500Y29150000D01*
X5164166Y29083334D01*
X5097500Y29016667D01*
X4997500Y28983334D01*
X4930833Y28983334D01*
X4830833Y29016667D01*
X4797500Y29050000D01*
X4797500Y29283334D01*
X4930833Y29283334D01*
X4497500Y28983334D02*
X4497500Y29683334D01*
X4230833Y29683334D01*
X4164166Y29650000D01*
X4130833Y29616667D01*
X4097500Y29550000D01*
X4097500Y29450000D01*
X4130833Y29383334D01*
X4164166Y29350000D01*
X4230833Y29316667D01*
X4497500Y29316667D01*
X3697500Y29383334D02*
X3764166Y29416667D01*
X3797500Y29450000D01*
X3830833Y29516667D01*
X3830833Y29550000D01*
X3797500Y29616667D01*
X3764166Y29650000D01*
X3697500Y29683334D01*
X3564166Y29683334D01*
X3497500Y29650000D01*
X3464166Y29616667D01*
X3430833Y29550000D01*
X3430833Y29516667D01*
X3464166Y29450000D01*
X3497500Y29416667D01*
X3564166Y29383334D01*
X3697500Y29383334D01*
X3764166Y29350000D01*
X3797500Y29316667D01*
X3830833Y29250000D01*
X3830833Y29116667D01*
X3797500Y29050000D01*
X3764166Y29016667D01*
X3697500Y28983334D01*
X3564166Y28983334D01*
X3497500Y29016667D01*
X3464166Y29050000D01*
X3430833Y29116667D01*
X3430833Y29250000D01*
X3464166Y29316667D01*
X3497500Y29350000D01*
X3564166Y29383334D01*
X5497500Y24550000D02*
X5564166Y24583334D01*
X5664166Y24583334D01*
X5764166Y24550000D01*
X5830833Y24483334D01*
X5864166Y24416667D01*
X5897500Y24283334D01*
X5897500Y24183334D01*
X5864166Y24050000D01*
X5830833Y23983334D01*
X5764166Y23916667D01*
X5664166Y23883334D01*
X5597500Y23883334D01*
X5497500Y23916667D01*
X5464166Y23950000D01*
X5464166Y24183334D01*
X5597500Y24183334D01*
X5164166Y23883334D02*
X5164166Y24583334D01*
X4897500Y24583334D01*
X4830833Y24550000D01*
X4797500Y24516667D01*
X4764166Y24450000D01*
X4764166Y24350000D01*
X4797500Y24283334D01*
X4830833Y24250000D01*
X4897500Y24216667D01*
X5164166Y24216667D01*
X4097500Y23883334D02*
X4497500Y23883334D01*
X4297500Y23883334D02*
X4297500Y24583334D01*
X4364166Y24483334D01*
X4430833Y24416667D01*
X4497500Y24383334D01*
X3664166Y24583334D02*
X3597500Y24583334D01*
X3530833Y24550000D01*
X3497500Y24516667D01*
X3464166Y24450000D01*
X3430833Y24316667D01*
X3430833Y24150000D01*
X3464166Y24016667D01*
X3497500Y23950000D01*
X3530833Y23916667D01*
X3597500Y23883334D01*
X3664166Y23883334D01*
X3730833Y23916667D01*
X3764166Y23950000D01*
X3797500Y24016667D01*
X3830833Y24150000D01*
X3830833Y24316667D01*
X3797500Y24450000D01*
X3764166Y24516667D01*
X3730833Y24550000D01*
X3664166Y24583334D01*
X4830833Y27200000D02*
X4897500Y27233334D01*
X4997500Y27233334D01*
X5097500Y27200000D01*
X5164166Y27133334D01*
X5197500Y27066667D01*
X5230833Y26933334D01*
X5230833Y26833334D01*
X5197500Y26700000D01*
X5164166Y26633334D01*
X5097500Y26566667D01*
X4997500Y26533334D01*
X4930833Y26533334D01*
X4830833Y26566667D01*
X4797500Y26600000D01*
X4797500Y26833334D01*
X4930833Y26833334D01*
X4497500Y26533334D02*
X4497500Y27233334D01*
X4230833Y27233334D01*
X4164166Y27200000D01*
X4130833Y27166667D01*
X4097500Y27100000D01*
X4097500Y27000000D01*
X4130833Y26933334D01*
X4164166Y26900000D01*
X4230833Y26866667D01*
X4497500Y26866667D01*
X3764166Y26533334D02*
X3630833Y26533334D01*
X3564166Y26566667D01*
X3530833Y26600000D01*
X3464166Y26700000D01*
X3430833Y26833334D01*
X3430833Y27100000D01*
X3464166Y27166667D01*
X3497500Y27200000D01*
X3564166Y27233334D01*
X3697500Y27233334D01*
X3764166Y27200000D01*
X3797500Y27166667D01*
X3830833Y27100000D01*
X3830833Y26933334D01*
X3797500Y26866667D01*
X3764166Y26833334D01*
X3697500Y26800000D01*
X3564166Y26800000D01*
X3497500Y26833334D01*
X3464166Y26866667D01*
X3430833Y26933334D01*
X17583333Y41016667D02*
X16883333Y41250000D01*
X17583333Y41483334D01*
X16816666Y41550000D02*
X16816666Y42083334D01*
X17250000Y42250000D02*
X17250000Y42483334D01*
X16883333Y42583334D02*
X16883333Y42250000D01*
X17583333Y42250000D01*
X17583333Y42583334D01*
X16883333Y42883334D02*
X17583333Y42883334D01*
X16883333Y43283334D01*
X17583333Y43283334D01*
X17233333Y14450000D02*
X17300000Y14483334D01*
X17400000Y14483334D01*
X17500000Y14450000D01*
X17566666Y14383334D01*
X17600000Y14316667D01*
X17633333Y14183334D01*
X17633333Y14083334D01*
X17600000Y13950000D01*
X17566666Y13883334D01*
X17500000Y13816667D01*
X17400000Y13783334D01*
X17333333Y13783334D01*
X17233333Y13816667D01*
X17200000Y13850000D01*
X17200000Y14083334D01*
X17333333Y14083334D01*
X16900000Y13783334D02*
X16900000Y14483334D01*
X16633333Y14483334D01*
X16566666Y14450000D01*
X16533333Y14416667D01*
X16500000Y14350000D01*
X16500000Y14250000D01*
X16533333Y14183334D01*
X16566666Y14150000D01*
X16633333Y14116667D01*
X16900000Y14116667D01*
X16233333Y14416667D02*
X16200000Y14450000D01*
X16133333Y14483334D01*
X15966666Y14483334D01*
X15900000Y14450000D01*
X15866666Y14416667D01*
X15833333Y14350000D01*
X15833333Y14283334D01*
X15866666Y14183334D01*
X16266666Y13783334D01*
X15833333Y13783334D01*
X15600000Y14483334D02*
X15166666Y14483334D01*
X15400000Y14216667D01*
X15300000Y14216667D01*
X15233333Y14183334D01*
X15200000Y14150000D01*
X15166666Y14083334D01*
X15166666Y13916667D01*
X15200000Y13850000D01*
X15233333Y13816667D01*
X15300000Y13783334D01*
X15500000Y13783334D01*
X15566666Y13816667D01*
X15600000Y13850000D01*
X5397500Y11850000D02*
X5464166Y11883334D01*
X5564166Y11883334D01*
X5664166Y11850000D01*
X5730833Y11783334D01*
X5764166Y11716667D01*
X5797500Y11583334D01*
X5797500Y11483334D01*
X5764166Y11350000D01*
X5730833Y11283334D01*
X5664166Y11216667D01*
X5564166Y11183334D01*
X5497500Y11183334D01*
X5397500Y11216667D01*
X5364166Y11250000D01*
X5364166Y11483334D01*
X5497500Y11483334D01*
X5064166Y11183334D02*
X5064166Y11883334D01*
X4797500Y11883334D01*
X4730833Y11850000D01*
X4697500Y11816667D01*
X4664166Y11750000D01*
X4664166Y11650000D01*
X4697500Y11583334D01*
X4730833Y11550000D01*
X4797500Y11516667D01*
X5064166Y11516667D01*
X3997500Y11183334D02*
X4397500Y11183334D01*
X4197500Y11183334D02*
X4197500Y11883334D01*
X4264166Y11783334D01*
X4330833Y11716667D01*
X4397500Y11683334D01*
X3364166Y11883334D02*
X3697500Y11883334D01*
X3730833Y11550000D01*
X3697500Y11583334D01*
X3630833Y11616667D01*
X3464166Y11616667D01*
X3397500Y11583334D01*
X3364166Y11550000D01*
X3330833Y11483334D01*
X3330833Y11316667D01*
X3364166Y11250000D01*
X3397500Y11216667D01*
X3464166Y11183334D01*
X3630833Y11183334D01*
X3697500Y11216667D01*
X3730833Y11250000D01*
X5497500Y14450000D02*
X5564166Y14483334D01*
X5664166Y14483334D01*
X5764166Y14450000D01*
X5830833Y14383334D01*
X5864166Y14316667D01*
X5897500Y14183334D01*
X5897500Y14083334D01*
X5864166Y13950000D01*
X5830833Y13883334D01*
X5764166Y13816667D01*
X5664166Y13783334D01*
X5597500Y13783334D01*
X5497500Y13816667D01*
X5464166Y13850000D01*
X5464166Y14083334D01*
X5597500Y14083334D01*
X5164166Y13783334D02*
X5164166Y14483334D01*
X4897500Y14483334D01*
X4830833Y14450000D01*
X4797500Y14416667D01*
X4764166Y14350000D01*
X4764166Y14250000D01*
X4797500Y14183334D01*
X4830833Y14150000D01*
X4897500Y14116667D01*
X5164166Y14116667D01*
X4097500Y13783334D02*
X4497500Y13783334D01*
X4297500Y13783334D02*
X4297500Y14483334D01*
X4364166Y14383334D01*
X4430833Y14316667D01*
X4497500Y14283334D01*
X3497500Y14250000D02*
X3497500Y13783334D01*
X3664166Y14516667D02*
X3830833Y14016667D01*
X3397500Y14016667D01*
X4730833Y42350000D02*
X4797500Y42383334D01*
X4897500Y42383334D01*
X4997500Y42350000D01*
X5064166Y42283334D01*
X5097500Y42216667D01*
X5130833Y42083334D01*
X5130833Y41983334D01*
X5097500Y41850000D01*
X5064166Y41783334D01*
X4997500Y41716667D01*
X4897500Y41683334D01*
X4830833Y41683334D01*
X4730833Y41716667D01*
X4697500Y41750000D01*
X4697500Y41983334D01*
X4830833Y41983334D01*
X4397500Y41683334D02*
X4397500Y42383334D01*
X4130833Y42383334D01*
X4064166Y42350000D01*
X4030833Y42316667D01*
X3997500Y42250000D01*
X3997500Y42150000D01*
X4030833Y42083334D01*
X4064166Y42050000D01*
X4130833Y42016667D01*
X4397500Y42016667D01*
X3764166Y42383334D02*
X3330833Y42383334D01*
X3564166Y42116667D01*
X3464166Y42116667D01*
X3397500Y42083334D01*
X3364166Y42050000D01*
X3330833Y41983334D01*
X3330833Y41816667D01*
X3364166Y41750000D01*
X3397500Y41716667D01*
X3464166Y41683334D01*
X3664166Y41683334D01*
X3730833Y41716667D01*
X3764166Y41750000D01*
X10783333Y43336667D02*
X10216666Y43336667D01*
X10150000Y43370000D01*
X10116666Y43403334D01*
X10083333Y43470000D01*
X10083333Y43603334D01*
X10116666Y43670000D01*
X10150000Y43703334D01*
X10216666Y43736667D01*
X10783333Y43736667D01*
X10083333Y44436667D02*
X10083333Y44036667D01*
X10083333Y44236667D02*
X10783333Y44236667D01*
X10683333Y44170000D01*
X10616666Y44103334D01*
X10583333Y44036667D01*
X14143333Y42516667D02*
X13643333Y42516667D01*
X13543333Y42483334D01*
X13476666Y42416667D01*
X13443333Y42316667D01*
X13443333Y42250000D01*
X13443333Y42850000D02*
X14143333Y42850000D01*
X14143333Y43116667D01*
X14110000Y43183334D01*
X14076666Y43216667D01*
X14010000Y43250000D01*
X13910000Y43250000D01*
X13843333Y43216667D01*
X13810000Y43183334D01*
X13776666Y43116667D01*
X13776666Y42850000D01*
X14076666Y43516667D02*
X14110000Y43550000D01*
X14143333Y43616667D01*
X14143333Y43783334D01*
X14110000Y43850000D01*
X14076666Y43883334D01*
X14010000Y43916667D01*
X13943333Y43916667D01*
X13843333Y43883334D01*
X13443333Y43483334D01*
X13443333Y43916667D01*
D13*
X13040000Y42810000D02*
X13040000Y41550000D01*
X13040000Y35990000D02*
X13040000Y37250000D01*
X9280000Y42810000D02*
X13040000Y42810000D01*
X7030000Y35990000D02*
X13040000Y35990000D01*
G36*
X13107116Y28769929D02*
G01*
X13146537Y28769605D01*
X13177748Y28768799D01*
X13201875Y28767292D01*
X13220044Y28764869D01*
X13233381Y28761313D01*
X13243013Y28756405D01*
X13250067Y28749931D01*
X13255667Y28741671D01*
X13260942Y28731410D01*
X13261207Y28730861D01*
X13262612Y28727782D01*
X13263884Y28724334D01*
X13265029Y28720017D01*
X13266055Y28714328D01*
X13266968Y28706764D01*
X13267775Y28696823D01*
X13268481Y28684002D01*
X13269095Y28667801D01*
X13269621Y28647715D01*
X13270068Y28623243D01*
X13270441Y28593882D01*
X13270747Y28559131D01*
X13270993Y28518486D01*
X13271185Y28471446D01*
X13271330Y28417508D01*
X13271434Y28356170D01*
X13271504Y28286929D01*
X13271547Y28209284D01*
X13271570Y28122731D01*
X13271578Y28026769D01*
X13271578Y27920896D01*
X13271572Y27819163D01*
X13271553Y27722471D01*
X13271515Y27635220D01*
X13271451Y27556914D01*
X13271357Y27487053D01*
X13271227Y27425142D01*
X13271055Y27370683D01*
X13270836Y27323178D01*
X13270564Y27282130D01*
X13270233Y27247041D01*
X13269838Y27217415D01*
X13269373Y27192754D01*
X13268833Y27172560D01*
X13268211Y27156336D01*
X13267503Y27143585D01*
X13266703Y27133810D01*
X13265805Y27126513D01*
X13264803Y27121196D01*
X13263692Y27117362D01*
X13262466Y27114515D01*
X13261940Y27113512D01*
X13251279Y27098214D01*
X13238657Y27085876D01*
X13237090Y27084752D01*
X13232506Y27081978D01*
X13226845Y27079792D01*
X13218939Y27078124D01*
X13207621Y27076906D01*
X13191725Y27076066D01*
X13170084Y27075535D01*
X13141529Y27075242D01*
X13104895Y27075118D01*
X13059013Y27075092D01*
X13020464Y27075119D01*
X12981924Y27075258D01*
X12951697Y27075571D01*
X12928627Y27076119D01*
X12911559Y27076963D01*
X12899337Y27078163D01*
X12890807Y27079781D01*
X12884812Y27081878D01*
X12880197Y27084514D01*
X12877638Y27086275D01*
X12871389Y27091086D01*
X12866152Y27096594D01*
X12861840Y27103680D01*
X12858361Y27113230D01*
X12855627Y27126127D01*
X12853548Y27143253D01*
X12852034Y27165493D01*
X12850997Y27193730D01*
X12850345Y27228847D01*
X12849991Y27271728D01*
X12849844Y27323256D01*
X12849815Y27384315D01*
X12849810Y27426639D01*
X12849769Y27477089D01*
X12849653Y27518703D01*
X12849424Y27552400D01*
X12849047Y27579098D01*
X12848482Y27599716D01*
X12847692Y27615170D01*
X12846640Y27626379D01*
X12845287Y27634261D01*
X12843597Y27639734D01*
X12841532Y27643716D01*
X12839055Y27647125D01*
X12828294Y27660805D01*
X11847493Y27662147D01*
X10866691Y27663489D01*
X10851990Y27674273D01*
X10851164Y27674896D01*
X10838498Y27687661D01*
X10828185Y27702912D01*
X10826799Y27705870D01*
X10824712Y27711947D01*
X10823035Y27720036D01*
X10821723Y27731189D01*
X10820733Y27746455D01*
X10820022Y27766884D01*
X10819544Y27793527D01*
X10819258Y27827434D01*
X10819118Y27869654D01*
X10819081Y27921238D01*
X10819083Y27938342D01*
X10819153Y27990119D01*
X10819435Y28032754D01*
X10820074Y28067230D01*
X10821216Y28094530D01*
X10823006Y28115637D01*
X10825591Y28131533D01*
X10829114Y28143202D01*
X10833723Y28151626D01*
X10839562Y28157789D01*
X10846777Y28162674D01*
X10855514Y28167263D01*
X10856102Y28167546D01*
X10858931Y28168630D01*
X10862813Y28169622D01*
X10868195Y28170525D01*
X10875522Y28171345D01*
X10885240Y28172084D01*
X10897795Y28172748D01*
X10913632Y28173340D01*
X10933198Y28173864D01*
X10956937Y28174324D01*
X10985296Y28174725D01*
X11018721Y28175070D01*
X11057656Y28175364D01*
X11102549Y28175610D01*
X11153843Y28175813D01*
X11211987Y28175978D01*
X11277424Y28176107D01*
X11350601Y28176205D01*
X11431963Y28176276D01*
X11521957Y28176325D01*
X11621028Y28176355D01*
X11729621Y28176370D01*
X11848182Y28176375D01*
X11863681Y28176375D01*
X11980697Y28176379D01*
X12087800Y28176390D01*
X12185436Y28176414D01*
X12274047Y28176454D01*
X12354081Y28176515D01*
X12425981Y28176601D01*
X12490192Y28176718D01*
X12547159Y28176869D01*
X12597327Y28177059D01*
X12641141Y28177293D01*
X12679046Y28177574D01*
X12711487Y28177909D01*
X12738908Y28178300D01*
X12761754Y28178752D01*
X12780471Y28179271D01*
X12795503Y28179860D01*
X12807295Y28180524D01*
X12816291Y28181267D01*
X12822938Y28182095D01*
X12827679Y28183010D01*
X12830960Y28184019D01*
X12833225Y28185125D01*
X12834919Y28186333D01*
X12847212Y28196282D01*
X12849815Y28461005D01*
X12850020Y28481679D01*
X12850614Y28538082D01*
X12851190Y28585243D01*
X12851785Y28624047D01*
X12852438Y28655377D01*
X12853188Y28680115D01*
X12854071Y28699146D01*
X12855127Y28713353D01*
X12856394Y28723618D01*
X12857908Y28730825D01*
X12859710Y28735857D01*
X12861836Y28739598D01*
X12865165Y28744321D01*
X12871362Y28751586D01*
X12878753Y28757337D01*
X12888488Y28761750D01*
X12901722Y28765001D01*
X12919606Y28767266D01*
X12943293Y28768721D01*
X12973936Y28769542D01*
X13012688Y28769905D01*
X13060701Y28769987D01*
X13107116Y28769929D01*
G37*
G36*
X13107116Y24812569D02*
G01*
X13146537Y24812246D01*
X13177748Y24811439D01*
X13201875Y24809933D01*
X13220044Y24807510D01*
X13233381Y24803953D01*
X13243013Y24799046D01*
X13250067Y24792571D01*
X13255667Y24784311D01*
X13260942Y24774050D01*
X13261207Y24773502D01*
X13262612Y24770422D01*
X13263884Y24766975D01*
X13265029Y24762658D01*
X13266055Y24756968D01*
X13266968Y24749404D01*
X13267775Y24739463D01*
X13268481Y24726643D01*
X13269095Y24710441D01*
X13269621Y24690355D01*
X13270068Y24665883D01*
X13270441Y24636523D01*
X13270747Y24601771D01*
X13270993Y24561127D01*
X13271185Y24514087D01*
X13271330Y24460149D01*
X13271434Y24398810D01*
X13271504Y24329570D01*
X13271547Y24251924D01*
X13271570Y24165372D01*
X13271578Y24069410D01*
X13271578Y23963536D01*
X13271572Y23861803D01*
X13271553Y23765111D01*
X13271515Y23677861D01*
X13271451Y23599554D01*
X13271357Y23529694D01*
X13271227Y23467783D01*
X13271055Y23413323D01*
X13270836Y23365818D01*
X13270564Y23324770D01*
X13270233Y23289682D01*
X13269838Y23260055D01*
X13269373Y23235394D01*
X13268833Y23215200D01*
X13268211Y23198977D01*
X13267503Y23186226D01*
X13266703Y23176450D01*
X13265805Y23169153D01*
X13264803Y23163836D01*
X13263692Y23160003D01*
X13262466Y23157155D01*
X13261940Y23156152D01*
X13251279Y23140855D01*
X13238657Y23128516D01*
X13237090Y23127393D01*
X13232506Y23124618D01*
X13226845Y23122432D01*
X13218939Y23120765D01*
X13207621Y23119546D01*
X13191725Y23118706D01*
X13170084Y23118175D01*
X13141529Y23117882D01*
X13104895Y23117758D01*
X13059013Y23117732D01*
X13020464Y23117759D01*
X12981924Y23117898D01*
X12951697Y23118211D01*
X12928627Y23118759D01*
X12911559Y23119603D01*
X12899337Y23120803D01*
X12890807Y23122422D01*
X12884812Y23124518D01*
X12880197Y23127154D01*
X12877638Y23128916D01*
X12871389Y23133727D01*
X12866152Y23139234D01*
X12861840Y23146321D01*
X12858361Y23155871D01*
X12855627Y23168767D01*
X12853548Y23185894D01*
X12852034Y23208134D01*
X12850997Y23236370D01*
X12850345Y23271488D01*
X12849991Y23314368D01*
X12849844Y23365896D01*
X12849815Y23426955D01*
X12849810Y23469280D01*
X12849769Y23519729D01*
X12849653Y23561343D01*
X12849424Y23595041D01*
X12849047Y23621739D01*
X12848482Y23642356D01*
X12847692Y23657810D01*
X12846640Y23669019D01*
X12845287Y23676902D01*
X12843597Y23682375D01*
X12841532Y23686357D01*
X12839055Y23689765D01*
X12828294Y23703445D01*
X11847493Y23704787D01*
X10866691Y23706129D01*
X10851990Y23716913D01*
X10851164Y23717536D01*
X10838498Y23730301D01*
X10828185Y23745552D01*
X10826799Y23748510D01*
X10824712Y23754587D01*
X10823035Y23762677D01*
X10821723Y23773829D01*
X10820733Y23789095D01*
X10820022Y23809525D01*
X10819544Y23836168D01*
X10819258Y23870074D01*
X10819118Y23912294D01*
X10819081Y23963878D01*
X10819083Y23980982D01*
X10819153Y24032760D01*
X10819435Y24075395D01*
X10820074Y24109871D01*
X10821216Y24137171D01*
X10823006Y24158277D01*
X10825591Y24174173D01*
X10829114Y24185842D01*
X10833723Y24194267D01*
X10839562Y24200430D01*
X10846777Y24205314D01*
X10855514Y24209903D01*
X10856102Y24210186D01*
X10858931Y24211270D01*
X10862813Y24212262D01*
X10868195Y24213166D01*
X10875522Y24213985D01*
X10885240Y24214725D01*
X10897795Y24215388D01*
X10913632Y24215980D01*
X10933198Y24216504D01*
X10956937Y24216964D01*
X10985296Y24217365D01*
X11018721Y24217710D01*
X11057656Y24218004D01*
X11102549Y24218251D01*
X11153843Y24218454D01*
X11211987Y24218618D01*
X11277424Y24218747D01*
X11350601Y24218845D01*
X11431963Y24218917D01*
X11521957Y24218965D01*
X11621028Y24218995D01*
X11729621Y24219011D01*
X11848182Y24219016D01*
X11863681Y24219016D01*
X11980697Y24219019D01*
X12087800Y24219031D01*
X12185436Y24219054D01*
X12274047Y24219094D01*
X12354081Y24219155D01*
X12425981Y24219242D01*
X12490192Y24219358D01*
X12547159Y24219509D01*
X12597327Y24219700D01*
X12641141Y24219933D01*
X12679046Y24220215D01*
X12711487Y24220549D01*
X12738908Y24220940D01*
X12761754Y24221393D01*
X12780471Y24221911D01*
X12795503Y24222500D01*
X12807295Y24223164D01*
X12816291Y24223908D01*
X12822938Y24224735D01*
X12827679Y24225651D01*
X12830960Y24226659D01*
X12833225Y24227765D01*
X12834919Y24228973D01*
X12847212Y24238923D01*
X12849815Y24503645D01*
X12850020Y24524320D01*
X12850614Y24580722D01*
X12851190Y24627884D01*
X12851785Y24666687D01*
X12852438Y24698017D01*
X12853188Y24722756D01*
X12854071Y24741787D01*
X12855127Y24755993D01*
X12856394Y24766258D01*
X12857908Y24773465D01*
X12859710Y24778498D01*
X12861836Y24782238D01*
X12865165Y24786961D01*
X12871362Y24794227D01*
X12878753Y24799978D01*
X12888488Y24804391D01*
X12901722Y24807641D01*
X12919606Y24809906D01*
X12943293Y24811361D01*
X12973936Y24812182D01*
X13012688Y24812546D01*
X13060701Y24812628D01*
X13107116Y24812569D01*
G37*
G36*
X11554226Y26830121D02*
G01*
X11601146Y26829638D01*
X11640518Y26828617D01*
X11673840Y26826923D01*
X11702612Y26824425D01*
X11728334Y26820988D01*
X11752503Y26816480D01*
X11776621Y26810768D01*
X11802186Y26803718D01*
X11840445Y26791206D01*
X11910437Y26760186D01*
X11975129Y26720286D01*
X12034073Y26671761D01*
X12035034Y26670853D01*
X12067784Y26637827D01*
X12095226Y26605137D01*
X12118658Y26570647D01*
X12139376Y26532220D01*
X12158680Y26487720D01*
X12177866Y26435010D01*
X12179205Y26431054D01*
X12207286Y26339858D01*
X12231337Y26244296D01*
X12251643Y26142959D01*
X12268487Y26034436D01*
X12282154Y25917318D01*
X12283108Y25907956D01*
X12291082Y25841985D01*
X12300477Y25785300D01*
X12311590Y25736954D01*
X12324717Y25696002D01*
X12340157Y25661495D01*
X12358205Y25632486D01*
X12379159Y25608029D01*
X12389155Y25598499D01*
X12405866Y25585302D01*
X12423596Y25575677D01*
X12444216Y25569103D01*
X12469595Y25565054D01*
X12501604Y25563009D01*
X12542112Y25562443D01*
X12569490Y25562703D01*
X12627607Y25565490D01*
X12676865Y25571567D01*
X12718074Y25581221D01*
X12752042Y25594743D01*
X12779578Y25612422D01*
X12801491Y25634548D01*
X12818590Y25661411D01*
X12821757Y25667762D01*
X12828535Y25682943D01*
X12834003Y25698542D01*
X12838295Y25715805D01*
X12841547Y25735984D01*
X12843892Y25760327D01*
X12845465Y25790085D01*
X12846400Y25826505D01*
X12846832Y25870838D01*
X12846896Y25924333D01*
X12846882Y25934524D01*
X12846767Y25980035D01*
X12846525Y26016716D01*
X12846085Y26045891D01*
X12845375Y26068882D01*
X12844321Y26087012D01*
X12842851Y26101604D01*
X12840893Y26113979D01*
X12838374Y26125462D01*
X12835222Y26137374D01*
X12823736Y26172388D01*
X12807545Y26205081D01*
X12786974Y26230244D01*
X12760577Y26249184D01*
X12726912Y26263204D01*
X12684536Y26273610D01*
X12680643Y26274313D01*
X12655012Y26277718D01*
X12625632Y26280115D01*
X12598117Y26281024D01*
X12587727Y26281136D01*
X12557639Y26283409D01*
X12535006Y26289156D01*
X12517782Y26299092D01*
X12503916Y26313934D01*
X12503067Y26315112D01*
X12500460Y26319325D01*
X12498337Y26324527D01*
X12496638Y26331766D01*
X12495303Y26342089D01*
X12494269Y26356542D01*
X12493476Y26376174D01*
X12492863Y26402030D01*
X12492370Y26435159D01*
X12491935Y26476608D01*
X12491498Y26527423D01*
X12491414Y26538173D01*
X12491159Y26594707D01*
X12491274Y26642961D01*
X12491752Y26682509D01*
X12492585Y26712925D01*
X12493766Y26733784D01*
X12495287Y26744660D01*
X12496261Y26747546D01*
X12504916Y26763878D01*
X12516774Y26778506D01*
X12532838Y26793911D01*
X12611919Y26795609D01*
X12637825Y26795901D01*
X12721121Y26792748D01*
X12797208Y26783042D01*
X12866912Y26766602D01*
X12931059Y26743248D01*
X12990476Y26712799D01*
X13031415Y26685822D01*
X13086942Y26638983D01*
X13135474Y26584544D01*
X13176910Y26522671D01*
X13211144Y26453524D01*
X13238073Y26377268D01*
X13257594Y26294064D01*
X13259426Y26283808D01*
X13261529Y26270978D01*
X13263300Y26258095D01*
X13264766Y26244217D01*
X13265956Y26228402D01*
X13266899Y26209709D01*
X13267623Y26187194D01*
X13268158Y26159917D01*
X13268531Y26126936D01*
X13268772Y26087308D01*
X13268908Y26040091D01*
X13268969Y25984345D01*
X13268983Y25919126D01*
X13268962Y25856890D01*
X13268880Y25799937D01*
X13268711Y25751624D01*
X13268431Y25711035D01*
X13268017Y25677256D01*
X13267444Y25649372D01*
X13266687Y25626468D01*
X13265722Y25607630D01*
X13264525Y25591942D01*
X13263072Y25578489D01*
X13261338Y25566358D01*
X13259299Y25554633D01*
X13254953Y25532628D01*
X13234025Y25451698D01*
X13206732Y25378725D01*
X13172934Y25313373D01*
X13132487Y25255306D01*
X13132323Y25255102D01*
X13082761Y25200969D01*
X13027750Y25155233D01*
X12966921Y25117701D01*
X12899903Y25088177D01*
X12826323Y25066466D01*
X12745811Y25052374D01*
X12732466Y25051067D01*
X12704019Y25049372D01*
X12668582Y25048151D01*
X12628251Y25047401D01*
X12585123Y25047122D01*
X12541295Y25047309D01*
X12498863Y25047963D01*
X12459924Y25049081D01*
X12426574Y25050660D01*
X12400911Y25052699D01*
X12333717Y25062955D01*
X12258993Y25082069D01*
X12189286Y25108420D01*
X12125317Y25141569D01*
X12067808Y25181075D01*
X12017479Y25226498D01*
X11975053Y25277396D01*
X11941251Y25333330D01*
X11933867Y25349434D01*
X11922180Y25378758D01*
X11909327Y25414515D01*
X11896014Y25454561D01*
X11882945Y25496756D01*
X11870825Y25538955D01*
X11860361Y25579018D01*
X11851548Y25616522D01*
X11833716Y25703187D01*
X11817678Y25796249D01*
X11803877Y25893010D01*
X11792755Y25990775D01*
X11785721Y26043522D01*
X11772163Y26105301D01*
X11753757Y26160366D01*
X11730818Y26208082D01*
X11703664Y26247813D01*
X11672611Y26278926D01*
X11637977Y26300783D01*
X11636829Y26301321D01*
X11625891Y26306208D01*
X11615922Y26309752D01*
X11605024Y26312167D01*
X11591301Y26313670D01*
X11572855Y26314476D01*
X11547789Y26314802D01*
X11514206Y26314862D01*
X11505952Y26314857D01*
X11472885Y26314648D01*
X11447679Y26313995D01*
X11428230Y26312711D01*
X11412436Y26310609D01*
X11398192Y26307501D01*
X11383396Y26303199D01*
X11350027Y26290470D01*
X11315556Y26269960D01*
X11288703Y26243446D01*
X11268348Y26209763D01*
X11253372Y26167742D01*
X11252999Y26166350D01*
X11250348Y26154968D01*
X11248201Y26142084D01*
X11246487Y26126425D01*
X11245137Y26106718D01*
X11244079Y26081689D01*
X11243242Y26050066D01*
X11242557Y26010576D01*
X11241951Y25961944D01*
X11241499Y25908294D01*
X11241490Y25862018D01*
X11242042Y25823541D01*
X11243253Y25791541D01*
X11245220Y25764693D01*
X11248040Y25741674D01*
X11251813Y25721162D01*
X11256635Y25701832D01*
X11262604Y25682362D01*
X11270581Y25661903D01*
X11282711Y25641872D01*
X11300729Y25621633D01*
X11302931Y25619460D01*
X11321641Y25603511D01*
X11342035Y25591230D01*
X11365851Y25582083D01*
X11394823Y25575538D01*
X11430689Y25571062D01*
X11475184Y25568124D01*
X11482169Y25567778D01*
X11516648Y25565439D01*
X11542571Y25562106D01*
X11561513Y25557240D01*
X11575052Y25550300D01*
X11584765Y25540746D01*
X11592228Y25528039D01*
X11593590Y25523358D01*
X11595672Y25507914D01*
X11597415Y25484366D01*
X11598819Y25454140D01*
X11599884Y25418659D01*
X11600613Y25379348D01*
X11601004Y25337629D01*
X11601058Y25294928D01*
X11600776Y25252668D01*
X11600159Y25212273D01*
X11599207Y25175167D01*
X11597920Y25142774D01*
X11596300Y25116518D01*
X11594346Y25097823D01*
X11592059Y25088113D01*
X11591588Y25087209D01*
X11584396Y25075474D01*
X11575818Y25066662D01*
X11564350Y25060366D01*
X11548491Y25056180D01*
X11526736Y25053695D01*
X11497584Y25052505D01*
X11459532Y25052202D01*
X11419844Y25052661D01*
X11364470Y25055340D01*
X11315006Y25060690D01*
X11268845Y25069024D01*
X11223376Y25080657D01*
X11201218Y25087609D01*
X11133336Y25115754D01*
X11071183Y25152313D01*
X11015071Y25196875D01*
X10965310Y25249030D01*
X10922213Y25308366D01*
X10886090Y25374472D01*
X10857253Y25446938D01*
X10836014Y25525353D01*
X10822683Y25609307D01*
X10822366Y25616039D01*
X10821996Y25632697D01*
X10821632Y25657940D01*
X10821280Y25690787D01*
X10820950Y25730256D01*
X10820648Y25775368D01*
X10820384Y25825141D01*
X10820165Y25878594D01*
X10820000Y25934747D01*
X10819933Y25967541D01*
X10819892Y26033408D01*
X10820011Y26090046D01*
X10820305Y26138272D01*
X10820788Y26178904D01*
X10821475Y26212759D01*
X10822381Y26240654D01*
X10823522Y26263406D01*
X10824911Y26281833D01*
X10826563Y26296752D01*
X10835428Y26350748D01*
X10855862Y26431776D01*
X10883860Y26505816D01*
X10919313Y26572745D01*
X10962116Y26632441D01*
X11012161Y26684782D01*
X11069341Y26729646D01*
X11133550Y26766910D01*
X11204680Y26796452D01*
X11282625Y26818151D01*
X11296755Y26821124D01*
X11311716Y26823859D01*
X11326878Y26825977D01*
X11343702Y26827559D01*
X11363645Y26828684D01*
X11388167Y26829431D01*
X11418726Y26829881D01*
X11456781Y26830112D01*
X11503792Y26830204D01*
X11554226Y26830121D01*
G37*
G36*
X13107116Y32805394D02*
G01*
X13146537Y32805070D01*
X13177748Y32804264D01*
X13201875Y32802758D01*
X13220044Y32800335D01*
X13233381Y32796778D01*
X13243013Y32791871D01*
X13250067Y32785396D01*
X13255667Y32777136D01*
X13260942Y32766875D01*
X13261207Y32766326D01*
X13262612Y32763247D01*
X13263884Y32759800D01*
X13265029Y32755483D01*
X13266055Y32749793D01*
X13266968Y32742229D01*
X13267775Y32732288D01*
X13268481Y32719468D01*
X13269095Y32703266D01*
X13269621Y32683180D01*
X13270068Y32658708D01*
X13270441Y32629348D01*
X13270747Y32594596D01*
X13270993Y32553952D01*
X13271185Y32506911D01*
X13271330Y32452973D01*
X13271434Y32391635D01*
X13271504Y32322395D01*
X13271547Y32244749D01*
X13271570Y32158197D01*
X13271578Y32062235D01*
X13271578Y31956361D01*
X13271572Y31854628D01*
X13271553Y31757936D01*
X13271515Y31670686D01*
X13271451Y31592379D01*
X13271357Y31522519D01*
X13271227Y31460608D01*
X13271055Y31406148D01*
X13270836Y31358643D01*
X13270564Y31317595D01*
X13270233Y31282507D01*
X13269838Y31252880D01*
X13269373Y31228219D01*
X13268833Y31208025D01*
X13268211Y31191802D01*
X13267503Y31179051D01*
X13266703Y31169275D01*
X13265805Y31161978D01*
X13264803Y31156661D01*
X13263692Y31152828D01*
X13262466Y31149980D01*
X13261940Y31148977D01*
X13251279Y31133679D01*
X13238657Y31121341D01*
X13237090Y31120218D01*
X13232506Y31117443D01*
X13226845Y31115257D01*
X13218939Y31113590D01*
X13207621Y31112371D01*
X13191725Y31111531D01*
X13170084Y31111000D01*
X13141529Y31110707D01*
X13104895Y31110583D01*
X13059013Y31110557D01*
X13020464Y31110584D01*
X12981924Y31110723D01*
X12951697Y31111036D01*
X12928627Y31111584D01*
X12911559Y31112428D01*
X12899337Y31113628D01*
X12890807Y31115247D01*
X12884812Y31117343D01*
X12880197Y31119979D01*
X12877638Y31121741D01*
X12871389Y31126552D01*
X12866152Y31132059D01*
X12861840Y31139146D01*
X12858361Y31148696D01*
X12855627Y31161592D01*
X12853548Y31178719D01*
X12852034Y31200959D01*
X12850997Y31229195D01*
X12850345Y31264312D01*
X12849991Y31307193D01*
X12849844Y31358721D01*
X12849815Y31419780D01*
X12849810Y31462105D01*
X12849769Y31512554D01*
X12849653Y31554168D01*
X12849424Y31587865D01*
X12849047Y31614564D01*
X12848482Y31635181D01*
X12847692Y31650635D01*
X12846640Y31661844D01*
X12845287Y31669727D01*
X12843597Y31675200D01*
X12841532Y31679182D01*
X12839055Y31682590D01*
X12828294Y31696270D01*
X11847493Y31697612D01*
X10866691Y31698954D01*
X10851990Y31709738D01*
X10851164Y31710361D01*
X10838498Y31723126D01*
X10828185Y31738377D01*
X10826799Y31741335D01*
X10824712Y31747412D01*
X10823035Y31755502D01*
X10821723Y31766654D01*
X10820733Y31781920D01*
X10820022Y31802350D01*
X10819544Y31828993D01*
X10819258Y31862899D01*
X10819118Y31905119D01*
X10819081Y31956703D01*
X10819083Y31973807D01*
X10819153Y32025585D01*
X10819435Y32068220D01*
X10820074Y32102696D01*
X10821216Y32129996D01*
X10823006Y32151102D01*
X10825591Y32166998D01*
X10829114Y32178667D01*
X10833723Y32187092D01*
X10839562Y32193255D01*
X10846777Y32198139D01*
X10855514Y32202728D01*
X10856102Y32203011D01*
X10858931Y32204095D01*
X10862813Y32205087D01*
X10868195Y32205991D01*
X10875522Y32206810D01*
X10885240Y32207550D01*
X10897795Y32208213D01*
X10913632Y32208805D01*
X10933198Y32209329D01*
X10956937Y32209789D01*
X10985296Y32210190D01*
X11018721Y32210535D01*
X11057656Y32210829D01*
X11102549Y32211075D01*
X11153843Y32211279D01*
X11211987Y32211443D01*
X11277424Y32211572D01*
X11350601Y32211670D01*
X11431963Y32211742D01*
X11521957Y32211790D01*
X11621028Y32211820D01*
X11729621Y32211836D01*
X11848182Y32211841D01*
X11863681Y32211841D01*
X11980697Y32211844D01*
X12087800Y32211856D01*
X12185436Y32211879D01*
X12274047Y32211919D01*
X12354081Y32211980D01*
X12425981Y32212067D01*
X12490192Y32212183D01*
X12547159Y32212334D01*
X12597327Y32212524D01*
X12641141Y32212758D01*
X12679046Y32213040D01*
X12711487Y32213374D01*
X12738908Y32213765D01*
X12761754Y32214218D01*
X12780471Y32214736D01*
X12795503Y32215325D01*
X12807295Y32215989D01*
X12816291Y32216733D01*
X12822938Y32217560D01*
X12827679Y32218476D01*
X12830960Y32219484D01*
X12833225Y32220590D01*
X12834919Y32221798D01*
X12847212Y32231748D01*
X12849815Y32496470D01*
X12850020Y32517145D01*
X12850614Y32573547D01*
X12851190Y32620708D01*
X12851785Y32659512D01*
X12852438Y32690842D01*
X12853188Y32715581D01*
X12854071Y32734612D01*
X12855127Y32748818D01*
X12856394Y32759083D01*
X12857908Y32766290D01*
X12859710Y32771323D01*
X12861836Y32775063D01*
X12865165Y32779786D01*
X12871362Y32787051D01*
X12878753Y32792803D01*
X12888488Y32797216D01*
X12901722Y32800466D01*
X12919606Y32802731D01*
X12943293Y32804186D01*
X12973936Y32805007D01*
X13012688Y32805371D01*
X13060701Y32805453D01*
X13107116Y32805394D01*
G37*
G36*
X11249317Y7604113D02*
G01*
X11154622Y7604233D01*
X11068864Y7604396D01*
X10991849Y7604604D01*
X10923384Y7604857D01*
X10863276Y7605156D01*
X10811331Y7605500D01*
X10767355Y7605891D01*
X10731156Y7606329D01*
X10702539Y7606815D01*
X10681311Y7607349D01*
X10667279Y7607932D01*
X10660250Y7608565D01*
X10609559Y7620692D01*
X10544213Y7645277D01*
X10482848Y7678737D01*
X10426030Y7720440D01*
X10374325Y7769754D01*
X10328298Y7826049D01*
X10288516Y7888693D01*
X10255544Y7957054D01*
X10229948Y8030502D01*
X10212294Y8108405D01*
X10212192Y8109047D01*
X10211453Y8115991D01*
X10210767Y8126928D01*
X10210131Y8142196D01*
X10209543Y8162134D01*
X10209002Y8187080D01*
X10208505Y8217371D01*
X10208051Y8253345D01*
X10207638Y8295341D01*
X10207264Y8343695D01*
X10206927Y8398747D01*
X10206625Y8460834D01*
X10206357Y8530293D01*
X10206120Y8607464D01*
X10205913Y8692683D01*
X10205733Y8786288D01*
X10205580Y8888619D01*
X10205548Y8915632D01*
X10747096Y8915632D01*
X10747097Y8819415D01*
X10747137Y8731882D01*
X10747218Y8652687D01*
X10747341Y8581487D01*
X10747508Y8517937D01*
X10747720Y8461694D01*
X10747979Y8412412D01*
X10748286Y8369748D01*
X10748643Y8333358D01*
X10749051Y8302897D01*
X10749512Y8278021D01*
X10750027Y8258386D01*
X10750599Y8243648D01*
X10751227Y8233463D01*
X10751915Y8227485D01*
X10752663Y8225372D01*
X10755238Y8225232D01*
X10767511Y8225030D01*
X10789477Y8224844D01*
X10820697Y8224672D01*
X10860736Y8224517D01*
X10909157Y8224378D01*
X10965522Y8224256D01*
X11029396Y8224151D01*
X11100341Y8224064D01*
X11177920Y8223994D01*
X11261696Y8223942D01*
X11351234Y8223909D01*
X11446095Y8223895D01*
X11545844Y8223901D01*
X11650042Y8223926D01*
X11758254Y8223971D01*
X11870043Y8224036D01*
X11984972Y8224122D01*
X12102603Y8224229D01*
X13446023Y8225563D01*
X13446023Y10568737D01*
X12959163Y10571443D01*
X12959163Y10701568D01*
X12959131Y10730441D01*
X12959007Y10763271D01*
X12958804Y10791326D01*
X12958537Y10813195D01*
X12958218Y10827469D01*
X12957861Y10832738D01*
X12956684Y10832901D01*
X12947199Y10833419D01*
X12929481Y10834103D01*
X12905037Y10834902D01*
X12875375Y10835766D01*
X12842004Y10836643D01*
X12727449Y10839503D01*
X12696481Y10916307D01*
X12689677Y10933007D01*
X12679691Y10956839D01*
X12671377Y10975855D01*
X12665453Y10988432D01*
X12662635Y10992946D01*
X12662384Y10992678D01*
X12658832Y10985932D01*
X12651564Y10970778D01*
X12640993Y10948116D01*
X12627531Y10918847D01*
X12611589Y10883869D01*
X12593581Y10844083D01*
X12573918Y10800388D01*
X12553013Y10753684D01*
X12547788Y10741995D01*
X12527156Y10696115D01*
X12507837Y10653588D01*
X12490245Y10615296D01*
X12474794Y10582122D01*
X12461896Y10554946D01*
X12451965Y10534651D01*
X12445414Y10522119D01*
X12442656Y10518231D01*
X12441313Y10520545D01*
X12435977Y10531274D01*
X12427189Y10549642D01*
X12415474Y10574509D01*
X12401358Y10604736D01*
X12385366Y10639183D01*
X12368024Y10676709D01*
X12349856Y10716174D01*
X12331389Y10756440D01*
X12313147Y10796366D01*
X12295656Y10834812D01*
X12279441Y10870638D01*
X12265027Y10902705D01*
X12252941Y10929872D01*
X12248084Y10940734D01*
X12237297Y10963871D01*
X12228009Y10982468D01*
X12221083Y10994844D01*
X12217377Y10999320D01*
X12215770Y10997239D01*
X12210151Y10986803D01*
X12201086Y10968451D01*
X12189029Y10943149D01*
X12174433Y10911865D01*
X12157754Y10875566D01*
X12139444Y10835220D01*
X12119958Y10791792D01*
X12093714Y10733030D01*
X12071022Y10682350D01*
X12051917Y10639859D01*
X12036086Y10604885D01*
X12023216Y10576756D01*
X12012994Y10554798D01*
X12005108Y10538341D01*
X11999243Y10526711D01*
X11995087Y10519236D01*
X11992327Y10515244D01*
X11990651Y10514063D01*
X11987285Y10517266D01*
X11982544Y10526702D01*
X11980181Y10532507D01*
X11973324Y10548520D01*
X11963281Y10571421D01*
X11950548Y10600118D01*
X11935623Y10633519D01*
X11919001Y10670529D01*
X11901178Y10710056D01*
X11882651Y10751008D01*
X11863916Y10792291D01*
X11845469Y10832814D01*
X11827807Y10871482D01*
X11811425Y10907203D01*
X11796820Y10938885D01*
X11784489Y10965434D01*
X11774927Y10985758D01*
X11768631Y10998764D01*
X11766096Y11003358D01*
X11765861Y11003150D01*
X11762321Y10996658D01*
X11755067Y10981736D01*
X11744513Y10959287D01*
X11731073Y10930211D01*
X11715162Y10895408D01*
X11697195Y10855781D01*
X11677585Y10812229D01*
X11656748Y10765654D01*
X11652393Y10755899D01*
X11631700Y10709776D01*
X11612254Y10666804D01*
X11594477Y10627894D01*
X11578793Y10593958D01*
X11565625Y10565904D01*
X11555396Y10544645D01*
X11548529Y10531091D01*
X11545449Y10526152D01*
X11543311Y10528231D01*
X11536685Y10538347D01*
X11526333Y10555906D01*
X11512849Y10579850D01*
X11496825Y10609121D01*
X11478855Y10642659D01*
X11459532Y10679408D01*
X11378823Y10834296D01*
X11235629Y10837194D01*
X11235549Y10710776D01*
X11235454Y10685917D01*
X11235061Y10652563D01*
X11234409Y10623571D01*
X11233544Y10600455D01*
X11232515Y10584728D01*
X11231369Y10577902D01*
X11230098Y10576994D01*
X11223981Y10575511D01*
X11212373Y10574251D01*
X11194569Y10573190D01*
X11169868Y10572306D01*
X11137566Y10571577D01*
X11096959Y10570980D01*
X11047345Y10570492D01*
X10988020Y10570092D01*
X10748770Y10568737D01*
X10747456Y9398293D01*
X10747452Y9394211D01*
X10747312Y9259821D01*
X10747205Y9135490D01*
X10747132Y9020875D01*
X10747096Y8915632D01*
X10205548Y8915632D01*
X10205450Y9000011D01*
X10205343Y9120804D01*
X10205256Y9251336D01*
X10205187Y9391943D01*
X10205184Y9400814D01*
X10205121Y9537233D01*
X10205057Y9663669D01*
X10205003Y9780528D01*
X10204967Y9888218D01*
X10204960Y9987144D01*
X10204990Y10077712D01*
X10205068Y10160328D01*
X10205204Y10235399D01*
X10205406Y10303331D01*
X10205686Y10364529D01*
X10206051Y10419401D01*
X10206513Y10468353D01*
X10207080Y10511790D01*
X10207762Y10550118D01*
X10208569Y10583745D01*
X10209511Y10613076D01*
X10210598Y10638517D01*
X10211838Y10660474D01*
X10213242Y10679354D01*
X10214819Y10695564D01*
X10216579Y10709508D01*
X10218531Y10721593D01*
X10220686Y10732226D01*
X10223053Y10741813D01*
X10225641Y10750759D01*
X10228461Y10759472D01*
X10231522Y10768356D01*
X10234833Y10777819D01*
X10238404Y10788267D01*
X10241324Y10796830D01*
X10272685Y10872973D01*
X10311263Y10941923D01*
X10356872Y11003459D01*
X10409328Y11057359D01*
X10468444Y11103402D01*
X10534036Y11141366D01*
X10547080Y11147776D01*
X10565017Y11156379D01*
X10581455Y11163660D01*
X10597387Y11169736D01*
X10613805Y11174722D01*
X10631703Y11178735D01*
X10652072Y11181891D01*
X10675907Y11184306D01*
X10704199Y11186097D01*
X10737941Y11187380D01*
X10778127Y11188271D01*
X10825747Y11188887D01*
X10881797Y11189343D01*
X10947267Y11189756D01*
X11229078Y11191475D01*
X11232282Y11179511D01*
X11232684Y11177103D01*
X11233586Y11164686D01*
X11234367Y11144248D01*
X11234985Y11117477D01*
X11235397Y11086062D01*
X11235558Y11051691D01*
X11235629Y10935834D01*
X11351486Y10935792D01*
X11467343Y10935749D01*
X11500238Y10873307D01*
X11503591Y10866980D01*
X11515609Y10844965D01*
X11525875Y10827147D01*
X11533390Y10815217D01*
X11537154Y10810865D01*
X11537844Y10811682D01*
X11542304Y10820010D01*
X11550398Y10836616D01*
X11561720Y10860620D01*
X11575862Y10891142D01*
X11592420Y10927301D01*
X11610986Y10968218D01*
X11631154Y11013012D01*
X11652518Y11060803D01*
X11661562Y11081079D01*
X11682451Y11127721D01*
X11701953Y11170998D01*
X11719664Y11210031D01*
X11735180Y11243940D01*
X11748097Y11271846D01*
X11758011Y11292868D01*
X11764519Y11306127D01*
X11767217Y11310742D01*
X11767615Y11310300D01*
X11771522Y11302949D01*
X11779100Y11287236D01*
X11789941Y11264052D01*
X11803636Y11234291D01*
X11819776Y11198845D01*
X11837953Y11158604D01*
X11857757Y11114463D01*
X11878779Y11067312D01*
X11885066Y11053176D01*
X11905801Y11006636D01*
X11925193Y10963247D01*
X11942830Y10923918D01*
X11958301Y10889560D01*
X11971197Y10861082D01*
X11981107Y10839395D01*
X11987619Y10825408D01*
X11990324Y10820034D01*
X11990820Y10820359D01*
X11994901Y10827400D01*
X12002625Y10842794D01*
X12013588Y10865670D01*
X12027384Y10895159D01*
X12043609Y10930389D01*
X12061858Y10970491D01*
X12081725Y11014593D01*
X12102807Y11061826D01*
X12110152Y11078331D01*
X12130948Y11124764D01*
X12150444Y11167872D01*
X12168227Y11206767D01*
X12183885Y11240562D01*
X12197004Y11268371D01*
X12207171Y11289307D01*
X12213974Y11302483D01*
X12216999Y11307012D01*
X12217421Y11306646D01*
X12221531Y11299534D01*
X12229325Y11284039D01*
X12240386Y11261060D01*
X12254292Y11231494D01*
X12270624Y11196238D01*
X12288963Y11156190D01*
X12308888Y11112248D01*
X12329982Y11065310D01*
X12335717Y11052502D01*
X12356517Y11006244D01*
X12376007Y10963193D01*
X12393769Y10924252D01*
X12409388Y10890321D01*
X12422446Y10862302D01*
X12432528Y10841096D01*
X12439215Y10827606D01*
X12442093Y10822732D01*
X12442606Y10823177D01*
X12446786Y10830539D01*
X12454618Y10846250D01*
X12465692Y10869427D01*
X12479597Y10899186D01*
X12495923Y10934645D01*
X12514260Y10974920D01*
X12534196Y11019128D01*
X12555323Y11066387D01*
X12562261Y11081959D01*
X12583092Y11128528D01*
X12602609Y11171890D01*
X12620396Y11211143D01*
X12636041Y11245385D01*
X12649130Y11273712D01*
X12659249Y11295222D01*
X12665985Y11309013D01*
X12668923Y11314182D01*
X12670010Y11314741D01*
X12676218Y11314241D01*
X12676575Y11313721D01*
X12678571Y11309543D01*
X12682258Y11300858D01*
X12687863Y11287086D01*
X12695615Y11267649D01*
X12705741Y11241967D01*
X12718469Y11209461D01*
X12734027Y11169553D01*
X12752641Y11121663D01*
X12774541Y11065212D01*
X12799954Y10999620D01*
X12824655Y10935834D01*
X12959163Y10935834D01*
X12959163Y11191545D01*
X13246853Y11189804D01*
X13534542Y11188062D01*
X13580304Y11173865D01*
X13649845Y11147294D01*
X13714399Y11111957D01*
X13773112Y11068050D01*
X13826139Y11015456D01*
X13873635Y10954059D01*
X13908338Y10898335D01*
X13941504Y10830918D01*
X13965806Y10761610D01*
X13982024Y10688499D01*
X13982457Y10685741D01*
X13983347Y10679059D01*
X13984167Y10671112D01*
X13984921Y10661502D01*
X13985609Y10649832D01*
X13986235Y10635703D01*
X13986800Y10618718D01*
X13987306Y10598479D01*
X13987756Y10574589D01*
X13988152Y10546649D01*
X13988495Y10514262D01*
X13988788Y10477029D01*
X13989033Y10434554D01*
X13989232Y10386438D01*
X13989387Y10332284D01*
X13989501Y10271693D01*
X13989574Y10204269D01*
X13989610Y10129613D01*
X13989611Y10047327D01*
X13989578Y9957014D01*
X13989514Y9858275D01*
X13989421Y9750714D01*
X13989301Y9633932D01*
X13989156Y9507532D01*
X13988988Y9371115D01*
X13987391Y8105801D01*
X13973056Y8054500D01*
X13954345Y7995739D01*
X13921895Y7918899D01*
X13882564Y7849470D01*
X13836538Y7787662D01*
X13784004Y7733686D01*
X13725147Y7687752D01*
X13660156Y7650072D01*
X13589216Y7620855D01*
X13544956Y7605924D01*
X12118224Y7604387D01*
X12015994Y7604283D01*
X11863615Y7604152D01*
X11721334Y7604061D01*
X11588957Y7604011D01*
X11466291Y7604003D01*
X11446095Y7604009D01*
X11353142Y7604036D01*
X11249317Y7604113D01*
G37*
G36*
X12793954Y22786285D02*
G01*
X12859026Y22786218D01*
X12917143Y22786111D01*
X12968709Y22785962D01*
X13014130Y22785769D01*
X13053810Y22785529D01*
X13088154Y22785238D01*
X13117567Y22784895D01*
X13142454Y22784497D01*
X13163219Y22784040D01*
X13180269Y22783524D01*
X13194006Y22782944D01*
X13204837Y22782298D01*
X13213166Y22781584D01*
X13219398Y22780798D01*
X13223937Y22779939D01*
X13227190Y22779003D01*
X13229560Y22777989D01*
X13230571Y22777458D01*
X13245865Y22766781D01*
X13258198Y22754158D01*
X13260089Y22751459D01*
X13262436Y22747195D01*
X13264329Y22741648D01*
X13265817Y22733804D01*
X13266949Y22722647D01*
X13267773Y22707163D01*
X13268338Y22686339D01*
X13268693Y22659158D01*
X13268887Y22624607D01*
X13268967Y22581671D01*
X13268983Y22529335D01*
X13268976Y22492484D01*
X13268922Y22446686D01*
X13268770Y22409593D01*
X13268471Y22380191D01*
X13267978Y22357467D01*
X13267241Y22340404D01*
X13266211Y22327989D01*
X13264841Y22319206D01*
X13263081Y22313043D01*
X13260883Y22308483D01*
X13258198Y22304512D01*
X13257575Y22303686D01*
X13244811Y22291020D01*
X13229560Y22280707D01*
X13228633Y22280267D01*
X13225905Y22279286D01*
X13222092Y22278381D01*
X13216787Y22277550D01*
X13209586Y22276790D01*
X13200083Y22276097D01*
X13187871Y22275468D01*
X13172546Y22274901D01*
X13153702Y22274391D01*
X13130933Y22273937D01*
X13103835Y22273534D01*
X13072000Y22273180D01*
X13035023Y22272871D01*
X12992500Y22272605D01*
X12944024Y22272379D01*
X12889190Y22272189D01*
X12827592Y22272032D01*
X12758825Y22271904D01*
X12682482Y22271804D01*
X12598159Y22271728D01*
X12505450Y22271672D01*
X12403950Y22271634D01*
X12293251Y22271611D01*
X12172950Y22271598D01*
X12042641Y22271594D01*
X11926987Y22271595D01*
X11805699Y22271603D01*
X11694060Y22271620D01*
X11591661Y22271651D01*
X11498097Y22271698D01*
X11412961Y22271765D01*
X11335846Y22271854D01*
X11266346Y22271970D01*
X11204054Y22272115D01*
X11148562Y22272293D01*
X11099466Y22272507D01*
X11056357Y22272760D01*
X11018830Y22273056D01*
X10986478Y22273397D01*
X10958894Y22273787D01*
X10935671Y22274230D01*
X10916403Y22274728D01*
X10900683Y22275285D01*
X10888105Y22275903D01*
X10878261Y22276587D01*
X10870746Y22277340D01*
X10865153Y22278164D01*
X10861074Y22279064D01*
X10858104Y22280042D01*
X10855835Y22281101D01*
X10854782Y22281687D01*
X10839984Y22293563D01*
X10828579Y22308357D01*
X10826495Y22312704D01*
X10824452Y22318788D01*
X10822819Y22326898D01*
X10821551Y22338082D01*
X10820603Y22353390D01*
X10819928Y22373868D01*
X10819482Y22400567D01*
X10819220Y22434534D01*
X10819096Y22476818D01*
X10819065Y22528467D01*
X10819065Y22537020D01*
X10819117Y22590035D01*
X10819341Y22633781D01*
X10819862Y22669254D01*
X10820802Y22697454D01*
X10822284Y22719379D01*
X10824432Y22736027D01*
X10827367Y22748397D01*
X10831214Y22757488D01*
X10836096Y22764296D01*
X10842135Y22769822D01*
X10849454Y22775064D01*
X10850976Y22775950D01*
X10853461Y22776930D01*
X10857067Y22777833D01*
X10862195Y22778664D01*
X10869252Y22779426D01*
X10878640Y22780122D01*
X10890763Y22780757D01*
X10906027Y22781334D01*
X10924835Y22781856D01*
X10947591Y22782328D01*
X10974699Y22782753D01*
X11006564Y22783134D01*
X11043589Y22783475D01*
X11086179Y22783780D01*
X11134738Y22784053D01*
X11189670Y22784297D01*
X11251378Y22784516D01*
X11320268Y22784713D01*
X11396743Y22784893D01*
X11481208Y22785058D01*
X11574066Y22785213D01*
X11675721Y22785361D01*
X11786579Y22785505D01*
X11907042Y22785650D01*
X12037515Y22785799D01*
X12109690Y22785880D01*
X12234786Y22786013D01*
X12350092Y22786126D01*
X12456014Y22786215D01*
X12552956Y22786278D01*
X12641324Y22786313D01*
X12721521Y22786316D01*
X12793954Y22786285D01*
G37*
G36*
X12755560Y15612545D02*
G01*
X12678961Y15612533D01*
X12594378Y15612553D01*
X12501404Y15612604D01*
X12399636Y15612681D01*
X12288668Y15612784D01*
X12168096Y15612908D01*
X12037515Y15613052D01*
X11934131Y15613169D01*
X11811541Y15613315D01*
X11698644Y15613460D01*
X11595036Y15613607D01*
X11500312Y15613761D01*
X11414069Y15613924D01*
X11335903Y15614101D01*
X11265410Y15614295D01*
X11202185Y15614510D01*
X11145826Y15614749D01*
X11095928Y15615016D01*
X11052086Y15615315D01*
X11013898Y15615650D01*
X10980959Y15616023D01*
X10952865Y15616438D01*
X10929212Y15616900D01*
X10909596Y15617412D01*
X10893614Y15617977D01*
X10880861Y15618599D01*
X10870933Y15619282D01*
X10863426Y15620030D01*
X10857937Y15620845D01*
X10854061Y15621732D01*
X10851394Y15622694D01*
X10849533Y15623736D01*
X10849500Y15623758D01*
X10837361Y15635267D01*
X10827522Y15649771D01*
X10827326Y15650176D01*
X10825237Y15655830D01*
X10823534Y15663803D01*
X10822179Y15675105D01*
X10821132Y15690749D01*
X10820356Y15711747D01*
X10819813Y15739110D01*
X10819463Y15773852D01*
X10819269Y15816983D01*
X10819191Y15869516D01*
X10819182Y15891416D01*
X10819233Y15942728D01*
X10819507Y15984970D01*
X10820145Y16019119D01*
X10821291Y16046152D01*
X10823088Y16067045D01*
X10825677Y16082775D01*
X10829203Y16094317D01*
X10833806Y16102648D01*
X10839631Y16108746D01*
X10846819Y16113586D01*
X10855514Y16118144D01*
X10856146Y16118453D01*
X10860203Y16120086D01*
X10865522Y16121505D01*
X10872807Y16122724D01*
X10882761Y16123759D01*
X10896089Y16124624D01*
X10913495Y16125335D01*
X10935684Y16125906D01*
X10963357Y16126353D01*
X10997221Y16126690D01*
X11037979Y16126933D01*
X11086335Y16127096D01*
X11142993Y16127194D01*
X11208657Y16127243D01*
X11284031Y16127257D01*
X11694323Y16127265D01*
X11720047Y16152989D01*
X11718902Y16274131D01*
X12112420Y16274131D01*
X12112503Y16236062D01*
X12112694Y16203970D01*
X12112986Y16178965D01*
X12113376Y16162154D01*
X12113858Y16154648D01*
X12114745Y16150387D01*
X12116062Y16145666D01*
X12118280Y16141636D01*
X12122130Y16138241D01*
X12128344Y16135428D01*
X12137654Y16133141D01*
X12150792Y16131326D01*
X12168489Y16129929D01*
X12191478Y16128895D01*
X12220489Y16128170D01*
X12256256Y16127699D01*
X12299510Y16127427D01*
X12350982Y16127301D01*
X12411405Y16127265D01*
X12824253Y16127265D01*
X12850539Y16153551D01*
X12848640Y16399459D01*
X12848469Y16421345D01*
X12848020Y16475008D01*
X12847566Y16519621D01*
X12847059Y16556187D01*
X12846452Y16585707D01*
X12845699Y16609183D01*
X12844751Y16627617D01*
X12843562Y16642010D01*
X12842085Y16653365D01*
X12840271Y16662682D01*
X12838074Y16670964D01*
X12835447Y16679212D01*
X12827723Y16700067D01*
X12809017Y16736106D01*
X12785330Y16764277D01*
X12755305Y16786005D01*
X12717582Y16802712D01*
X12712184Y16804448D01*
X12703922Y16806475D01*
X12693763Y16808108D01*
X12680643Y16809388D01*
X12663497Y16810357D01*
X12641260Y16811057D01*
X12612868Y16811528D01*
X12577256Y16811814D01*
X12533360Y16811954D01*
X12480114Y16811992D01*
X12448686Y16811980D01*
X12400612Y16811881D01*
X12361264Y16811649D01*
X12329565Y16811242D01*
X12304437Y16810619D01*
X12284802Y16809740D01*
X12269582Y16808563D01*
X12257700Y16807047D01*
X12248076Y16805151D01*
X12239634Y16802835D01*
X12224489Y16797362D01*
X12189588Y16777372D01*
X12160836Y16749169D01*
X12138540Y16713100D01*
X12123004Y16669518D01*
X12121626Y16663669D01*
X12119689Y16653072D01*
X12118081Y16640188D01*
X12116763Y16624001D01*
X12115696Y16603496D01*
X12114842Y16577657D01*
X12114162Y16545467D01*
X12113618Y16505910D01*
X12113171Y16457972D01*
X12112782Y16400635D01*
X12112594Y16363760D01*
X12112448Y16317066D01*
X12112420Y16274131D01*
X11718902Y16274131D01*
X11718664Y16299310D01*
X11717281Y16445630D01*
X11303321Y16648362D01*
X11248477Y16675217D01*
X11180832Y16708333D01*
X11121555Y16737350D01*
X11070081Y16762558D01*
X11025844Y16784242D01*
X10988278Y16802689D01*
X10956817Y16818188D01*
X10930896Y16831024D01*
X10909948Y16841486D01*
X10893409Y16849860D01*
X10880711Y16856434D01*
X10871290Y16861495D01*
X10864580Y16865329D01*
X10860015Y16868224D01*
X10857028Y16870467D01*
X10855055Y16872346D01*
X10853530Y16874147D01*
X10851886Y16876158D01*
X10849558Y16878665D01*
X10849071Y16879152D01*
X10842069Y16886777D01*
X10836244Y16894981D01*
X10831489Y16904746D01*
X10827698Y16917056D01*
X10824761Y16932896D01*
X10822572Y16953248D01*
X10821022Y16979096D01*
X10820004Y17011423D01*
X10819410Y17051213D01*
X10819133Y17099450D01*
X10819065Y17157117D01*
X10819067Y17170599D01*
X10819138Y17221881D01*
X10819336Y17263976D01*
X10819695Y17297876D01*
X10820251Y17324575D01*
X10821040Y17345065D01*
X10822098Y17360340D01*
X10823461Y17371393D01*
X10825163Y17379216D01*
X10827241Y17384802D01*
X10829880Y17389751D01*
X10844530Y17405169D01*
X10864414Y17411849D01*
X10888716Y17409463D01*
X10888966Y17409390D01*
X10897318Y17405897D01*
X10914201Y17398033D01*
X10938924Y17386140D01*
X10970795Y17370563D01*
X11009121Y17351646D01*
X11053211Y17329733D01*
X11102372Y17305167D01*
X11155912Y17278293D01*
X11213139Y17249455D01*
X11273362Y17218995D01*
X11335887Y17187259D01*
X11342983Y17183651D01*
X11404860Y17152234D01*
X11464075Y17122240D01*
X11519966Y17094000D01*
X11571872Y17067844D01*
X11619131Y17044105D01*
X11661083Y17023113D01*
X11697065Y17005200D01*
X11726416Y16990695D01*
X11748476Y16979931D01*
X11762582Y16973238D01*
X11768073Y16970947D01*
X11768397Y16970992D01*
X11773832Y16976229D01*
X11781488Y16988458D01*
X11789818Y17005236D01*
X11809801Y17045847D01*
X11849486Y17108914D01*
X11896226Y17164353D01*
X11949857Y17212024D01*
X12010209Y17251787D01*
X12077117Y17283503D01*
X12150413Y17307033D01*
X12156151Y17308468D01*
X12179641Y17313853D01*
X12203287Y17318320D01*
X12228229Y17321932D01*
X12255605Y17324755D01*
X12286556Y17326852D01*
X12322220Y17328288D01*
X12363736Y17329126D01*
X12412243Y17329431D01*
X12468881Y17329267D01*
X12534788Y17328699D01*
X12554021Y17328493D01*
X12605815Y17327889D01*
X12648730Y17327270D01*
X12683917Y17326578D01*
X12712531Y17325756D01*
X12735726Y17324746D01*
X12754653Y17323490D01*
X12770467Y17321929D01*
X12784321Y17320006D01*
X12797368Y17317664D01*
X12810762Y17314844D01*
X12867958Y17299625D01*
X12939966Y17271944D01*
X13005410Y17236266D01*
X13064145Y17192702D01*
X13116026Y17141363D01*
X13160910Y17082361D01*
X13198653Y17015807D01*
X13212421Y16985642D01*
X13231401Y16935241D01*
X13246708Y16881019D01*
X13259341Y16819747D01*
X13260155Y16815008D01*
X13261607Y16805615D01*
X13262891Y16795452D01*
X13264018Y16783875D01*
X13264997Y16770243D01*
X13265839Y16753912D01*
X13266555Y16734239D01*
X13267154Y16710581D01*
X13267647Y16682296D01*
X13268043Y16648740D01*
X13268354Y16609270D01*
X13268588Y16563244D01*
X13268758Y16510018D01*
X13268871Y16448951D01*
X13268940Y16379397D01*
X13268974Y16300716D01*
X13268983Y16212263D01*
X13268982Y16142400D01*
X13268971Y16062334D01*
X13268939Y15991611D01*
X13268875Y15929634D01*
X13268767Y15875803D01*
X13268604Y15829518D01*
X13268374Y15790182D01*
X13268066Y15757194D01*
X13267669Y15729956D01*
X13267172Y15707868D01*
X13266562Y15690332D01*
X13265828Y15676748D01*
X13264960Y15666518D01*
X13263946Y15659041D01*
X13262774Y15653720D01*
X13261433Y15649954D01*
X13259912Y15647146D01*
X13258198Y15644695D01*
X13257571Y15643862D01*
X13244807Y15631190D01*
X13229560Y15620862D01*
X13228358Y15620301D01*
X13225559Y15619330D01*
X13221658Y15618436D01*
X13216249Y15617617D01*
X13208929Y15616871D01*
X13199292Y15616194D01*
X13186933Y15615584D01*
X13171447Y15615039D01*
X13152430Y15614556D01*
X13129477Y15614131D01*
X13102182Y15613763D01*
X13070142Y15613449D01*
X13032951Y15613186D01*
X12990203Y15612971D01*
X12941496Y15612802D01*
X12886422Y15612677D01*
X12824579Y15612592D01*
X12824253Y15612592D01*
X12755560Y15612545D01*
G37*
G36*
X12578722Y14096513D02*
G01*
X12632363Y14096187D01*
X12677539Y14095199D01*
X12716043Y14093406D01*
X12749665Y14090663D01*
X12780196Y14086829D01*
X12809427Y14081760D01*
X12839150Y14075313D01*
X12904390Y14055715D01*
X12971320Y14025684D01*
X13032678Y13987273D01*
X13087937Y13940995D01*
X13136571Y13887362D01*
X13178053Y13826888D01*
X13211855Y13760087D01*
X13237451Y13687470D01*
X13240792Y13675617D01*
X13246416Y13655132D01*
X13251203Y13636295D01*
X13255227Y13618101D01*
X13258565Y13599544D01*
X13261292Y13579619D01*
X13263482Y13557322D01*
X13265210Y13531646D01*
X13266551Y13501587D01*
X13267582Y13466141D01*
X13268375Y13424301D01*
X13269008Y13375062D01*
X13269554Y13317420D01*
X13270089Y13250369D01*
X13270541Y13178536D01*
X13270745Y13104598D01*
X13270604Y13040863D01*
X13270117Y12987372D01*
X13269286Y12944166D01*
X13268111Y12911286D01*
X13266593Y12888773D01*
X13254926Y12804408D01*
X13236742Y12726699D01*
X13211903Y12656208D01*
X13180157Y12592342D01*
X13141253Y12534505D01*
X13094942Y12482104D01*
X13086410Y12473784D01*
X13037466Y12432448D01*
X12984364Y12398335D01*
X12925826Y12370826D01*
X12860574Y12349302D01*
X12787330Y12333144D01*
X12782683Y12332348D01*
X12774157Y12331038D01*
X12764857Y12329864D01*
X12754214Y12328818D01*
X12741661Y12327893D01*
X12726632Y12327081D01*
X12708560Y12326376D01*
X12686877Y12325770D01*
X12661018Y12325255D01*
X12630413Y12324825D01*
X12594498Y12324471D01*
X12552704Y12324186D01*
X12504465Y12323963D01*
X12449213Y12323795D01*
X12386383Y12323674D01*
X12315406Y12323593D01*
X12235716Y12323544D01*
X12146746Y12323520D01*
X12047929Y12323513D01*
X11950866Y12323531D01*
X11856705Y12323591D01*
X11772020Y12323700D01*
X11696330Y12323860D01*
X11629149Y12324077D01*
X11569995Y12324356D01*
X11518383Y12324700D01*
X11473829Y12325115D01*
X11435850Y12325605D01*
X11403961Y12326174D01*
X11377679Y12326828D01*
X11356520Y12327570D01*
X11340000Y12328405D01*
X11327635Y12329338D01*
X11318942Y12330373D01*
X11290695Y12335191D01*
X11216682Y12352731D01*
X11150238Y12376450D01*
X11090468Y12406777D01*
X11036478Y12444139D01*
X10987373Y12488965D01*
X10962146Y12516779D01*
X10926280Y12563971D01*
X10896139Y12614888D01*
X10871200Y12670774D01*
X10850938Y12732870D01*
X10834831Y12802421D01*
X10822355Y12880668D01*
X10822267Y12881670D01*
X10821942Y12891936D01*
X10821671Y12911462D01*
X10821457Y12939319D01*
X10821302Y12974581D01*
X10821208Y13016322D01*
X10821178Y13063616D01*
X10821213Y13115534D01*
X10821316Y13171151D01*
X10821490Y13229540D01*
X10821598Y13258959D01*
X10821889Y13324237D01*
X10822230Y13380263D01*
X10822643Y13427863D01*
X10823150Y13467864D01*
X10823770Y13501090D01*
X10824525Y13528368D01*
X10825437Y13550524D01*
X10826526Y13568385D01*
X10827814Y13582775D01*
X10829321Y13594520D01*
X10831068Y13604448D01*
X10835079Y13623365D01*
X10857609Y13705660D01*
X10886844Y13780005D01*
X10922853Y13846474D01*
X10965707Y13905142D01*
X11015475Y13956082D01*
X11072228Y13999368D01*
X11136036Y14035074D01*
X11206968Y14063275D01*
X11285096Y14084043D01*
X11298530Y14086631D01*
X11313915Y14088946D01*
X11331101Y14090722D01*
X11351523Y14092025D01*
X11376616Y14092925D01*
X11407817Y14093488D01*
X11446560Y14093781D01*
X11494281Y14093872D01*
X11507477Y14093874D01*
X11550362Y14093837D01*
X11584328Y14093678D01*
X11610553Y14093325D01*
X11630215Y14092707D01*
X11644492Y14091751D01*
X11654563Y14090387D01*
X11661606Y14088542D01*
X11666800Y14086146D01*
X11671321Y14083127D01*
X11672511Y14082253D01*
X11680326Y14076228D01*
X11686740Y14070063D01*
X11691891Y14062731D01*
X11695918Y14053204D01*
X11698958Y14040456D01*
X11701151Y14023458D01*
X11702635Y14001183D01*
X11703548Y13972603D01*
X11704029Y13936692D01*
X11704216Y13892422D01*
X11704247Y13838765D01*
X11704247Y13837706D01*
X11704400Y13779840D01*
X11704430Y13731496D01*
X11703721Y13691807D01*
X11701657Y13659909D01*
X11697620Y13634934D01*
X11690994Y13616019D01*
X11681164Y13602296D01*
X11667511Y13592901D01*
X11649421Y13586967D01*
X11626275Y13583629D01*
X11597458Y13582020D01*
X11562353Y13581276D01*
X11520343Y13580531D01*
X11483867Y13579648D01*
X11446539Y13578459D01*
X11416899Y13576942D01*
X11393434Y13574850D01*
X11374630Y13571935D01*
X11358976Y13567952D01*
X11344956Y13562652D01*
X11331059Y13555788D01*
X11315771Y13547114D01*
X11305085Y13539648D01*
X11284000Y13517662D01*
X11265837Y13488991D01*
X11252349Y13456149D01*
X11250887Y13451041D01*
X11248923Y13442087D01*
X11247330Y13431079D01*
X11246072Y13416970D01*
X11245111Y13398717D01*
X11244409Y13375275D01*
X11243928Y13345598D01*
X11243632Y13308642D01*
X11243481Y13263361D01*
X11243439Y13208712D01*
X11243439Y13208151D01*
X11243454Y13154730D01*
X11243530Y13110632D01*
X11243719Y13074781D01*
X11244073Y13046094D01*
X11244642Y13023495D01*
X11245478Y13005902D01*
X11246632Y12992238D01*
X11248154Y12981422D01*
X11250096Y12972375D01*
X11252510Y12964018D01*
X11255446Y12955272D01*
X11256600Y12952013D01*
X11273860Y12916371D01*
X11297453Y12887984D01*
X11328024Y12866388D01*
X11366215Y12851117D01*
X11412669Y12841709D01*
X11417935Y12841176D01*
X11433933Y12840253D01*
X11457936Y12839452D01*
X11490186Y12838771D01*
X11530924Y12838209D01*
X11580390Y12837764D01*
X11638825Y12837436D01*
X11706470Y12837221D01*
X11783566Y12837119D01*
X11870353Y12837129D01*
X11967072Y12837248D01*
X12073964Y12837475D01*
X12691000Y12839020D01*
X12725289Y12850676D01*
X12749002Y12859903D01*
X12780270Y12877788D01*
X12804433Y12900867D01*
X12823053Y12930786D01*
X12837690Y12969188D01*
X12839198Y12974418D01*
X12841355Y12983638D01*
X12843092Y12994401D01*
X12844452Y13007817D01*
X12845481Y13024995D01*
X12846223Y13047042D01*
X12846722Y13075068D01*
X12847024Y13110183D01*
X12847172Y13153493D01*
X12847212Y13206109D01*
X12847190Y13241205D01*
X12847019Y13291621D01*
X12846595Y13333403D01*
X12845821Y13367659D01*
X12844602Y13395498D01*
X12842839Y13418030D01*
X12840438Y13436363D01*
X12837301Y13451607D01*
X12833332Y13464870D01*
X12828434Y13477263D01*
X12822512Y13489893D01*
X12808734Y13512304D01*
X12785913Y13537362D01*
X12760157Y13555460D01*
X12745820Y13562131D01*
X12727057Y13568651D01*
X12705491Y13573565D01*
X12679602Y13577068D01*
X12647874Y13579353D01*
X12608787Y13580617D01*
X12560824Y13581054D01*
X12525252Y13581191D01*
X12494956Y13581569D01*
X12472141Y13582295D01*
X12455274Y13583478D01*
X12442823Y13585230D01*
X12433258Y13587662D01*
X12425045Y13590884D01*
X12420214Y13593102D01*
X12411828Y13597436D01*
X12404957Y13602472D01*
X12399449Y13609181D01*
X12395155Y13618534D01*
X12391924Y13631503D01*
X12389603Y13649059D01*
X12388043Y13672173D01*
X12387092Y13701816D01*
X12386600Y13738960D01*
X12386415Y13784575D01*
X12386387Y13839634D01*
X12386409Y13884015D01*
X12386516Y13927663D01*
X12386754Y13962835D01*
X12387169Y13990577D01*
X12387805Y14011939D01*
X12388709Y14027970D01*
X12389925Y14039717D01*
X12391499Y14048229D01*
X12393476Y14054556D01*
X12395902Y14059744D01*
X12401691Y14069680D01*
X12408362Y14078051D01*
X12416810Y14084478D01*
X12428268Y14089218D01*
X12443970Y14092524D01*
X12465151Y14094652D01*
X12493043Y14095857D01*
X12528880Y14096393D01*
X12573897Y14096514D01*
X12578722Y14096513D01*
G37*
G36*
X12578722Y19553503D02*
G01*
X12632363Y19553178D01*
X12677539Y19552190D01*
X12716043Y19550396D01*
X12749665Y19547654D01*
X12780196Y19543820D01*
X12809427Y19538751D01*
X12839150Y19532303D01*
X12904390Y19512706D01*
X12971320Y19482675D01*
X13032678Y19444264D01*
X13087937Y19397985D01*
X13136571Y19344353D01*
X13178053Y19283879D01*
X13211855Y19217077D01*
X13237451Y19144461D01*
X13240792Y19132608D01*
X13246416Y19112123D01*
X13251203Y19093286D01*
X13255227Y19075091D01*
X13258565Y19056534D01*
X13261292Y19036610D01*
X13263482Y19014312D01*
X13265210Y18988637D01*
X13266551Y18958578D01*
X13267582Y18923131D01*
X13268375Y18881291D01*
X13269008Y18832052D01*
X13269554Y18774410D01*
X13270089Y18707359D01*
X13270541Y18635526D01*
X13270745Y18561589D01*
X13270604Y18497854D01*
X13270117Y18444363D01*
X13269286Y18401157D01*
X13268111Y18368276D01*
X13266593Y18345764D01*
X13254926Y18261398D01*
X13236742Y18183689D01*
X13211903Y18113199D01*
X13180157Y18049332D01*
X13141253Y17991496D01*
X13094942Y17939095D01*
X13086410Y17930774D01*
X13037466Y17889439D01*
X12984364Y17855325D01*
X12925826Y17827816D01*
X12860574Y17806292D01*
X12787330Y17790135D01*
X12782683Y17789339D01*
X12774157Y17788029D01*
X12764857Y17786854D01*
X12754214Y17785808D01*
X12741661Y17784883D01*
X12726632Y17784072D01*
X12708560Y17783367D01*
X12686877Y17782761D01*
X12661018Y17782246D01*
X12630413Y17781815D01*
X12594498Y17781461D01*
X12552704Y17781177D01*
X12504465Y17780954D01*
X12449213Y17780786D01*
X12386383Y17780664D01*
X12315406Y17780583D01*
X12235716Y17780534D01*
X12146746Y17780510D01*
X12047929Y17780504D01*
X11950866Y17780521D01*
X11856705Y17780582D01*
X11772020Y17780690D01*
X11696330Y17780851D01*
X11629149Y17781068D01*
X11569995Y17781347D01*
X11518383Y17781691D01*
X11473829Y17782106D01*
X11435850Y17782596D01*
X11403961Y17783165D01*
X11377679Y17783818D01*
X11356520Y17784560D01*
X11340000Y17785396D01*
X11327635Y17786328D01*
X11318942Y17787364D01*
X11290695Y17792182D01*
X11216682Y17809721D01*
X11150238Y17833441D01*
X11090468Y17863767D01*
X11036478Y17901130D01*
X10987373Y17945955D01*
X10962146Y17973770D01*
X10926280Y18020962D01*
X10896139Y18071879D01*
X10871200Y18127764D01*
X10850938Y18189861D01*
X10834831Y18259411D01*
X10822355Y18337658D01*
X10822267Y18338661D01*
X10821942Y18348927D01*
X10821671Y18368452D01*
X10821457Y18396309D01*
X10821302Y18431572D01*
X10821208Y18473313D01*
X10821178Y18520606D01*
X10821213Y18572525D01*
X10821316Y18628142D01*
X10821490Y18686531D01*
X10821598Y18715950D01*
X10821889Y18781228D01*
X10822230Y18837254D01*
X10822643Y18884854D01*
X10823150Y18924854D01*
X10823770Y18958080D01*
X10824525Y18985359D01*
X10825437Y19007515D01*
X10826526Y19025375D01*
X10827814Y19039765D01*
X10829321Y19051511D01*
X10831068Y19061439D01*
X10835079Y19080355D01*
X10857609Y19162650D01*
X10886844Y19236995D01*
X10922853Y19303465D01*
X10965707Y19362133D01*
X11015475Y19413073D01*
X11072228Y19456359D01*
X11136036Y19492065D01*
X11206968Y19520265D01*
X11285096Y19541034D01*
X11298530Y19543622D01*
X11313915Y19545936D01*
X11331101Y19547712D01*
X11351523Y19549016D01*
X11376616Y19549915D01*
X11407817Y19550478D01*
X11446560Y19550771D01*
X11494281Y19550862D01*
X11507477Y19550864D01*
X11550362Y19550828D01*
X11584328Y19550669D01*
X11610553Y19550316D01*
X11630215Y19549697D01*
X11644492Y19548741D01*
X11654563Y19547377D01*
X11661606Y19545533D01*
X11666800Y19543137D01*
X11671321Y19540117D01*
X11672511Y19539244D01*
X11680326Y19533219D01*
X11686740Y19527054D01*
X11691891Y19519721D01*
X11695918Y19510195D01*
X11698958Y19497446D01*
X11701151Y19480448D01*
X11702635Y19458173D01*
X11703548Y19429594D01*
X11704029Y19393683D01*
X11704216Y19349413D01*
X11704247Y19295756D01*
X11704247Y19294697D01*
X11704400Y19236831D01*
X11704430Y19188486D01*
X11703721Y19148798D01*
X11701657Y19116899D01*
X11697620Y19091925D01*
X11690994Y19073009D01*
X11681164Y19059287D01*
X11667511Y19049891D01*
X11649421Y19043958D01*
X11626275Y19040619D01*
X11597458Y19039011D01*
X11562353Y19038267D01*
X11520343Y19037521D01*
X11483867Y19036639D01*
X11446539Y19035449D01*
X11416899Y19033932D01*
X11393434Y19031840D01*
X11374630Y19028926D01*
X11358976Y19024942D01*
X11344956Y19019642D01*
X11331059Y19012779D01*
X11315771Y19004104D01*
X11305085Y18996638D01*
X11284000Y18974652D01*
X11265837Y18945982D01*
X11252349Y18913140D01*
X11250887Y18908032D01*
X11248923Y18899078D01*
X11247330Y18888069D01*
X11246072Y18873961D01*
X11245111Y18855708D01*
X11244409Y18832265D01*
X11243928Y18802588D01*
X11243632Y18765632D01*
X11243481Y18720352D01*
X11243439Y18665703D01*
X11243439Y18665142D01*
X11243454Y18611720D01*
X11243530Y18567623D01*
X11243719Y18531771D01*
X11244073Y18503085D01*
X11244642Y18480485D01*
X11245478Y18462893D01*
X11246632Y18449228D01*
X11248154Y18438412D01*
X11250096Y18429365D01*
X11252510Y18421008D01*
X11255446Y18412262D01*
X11256600Y18409003D01*
X11273860Y18373361D01*
X11297453Y18344974D01*
X11328024Y18323378D01*
X11366215Y18308108D01*
X11412669Y18298699D01*
X11417935Y18298166D01*
X11433933Y18297243D01*
X11457936Y18296442D01*
X11490186Y18295761D01*
X11530924Y18295200D01*
X11580390Y18294755D01*
X11638825Y18294426D01*
X11706470Y18294212D01*
X11783566Y18294110D01*
X11870353Y18294119D01*
X11967072Y18294238D01*
X12073964Y18294465D01*
X12691000Y18296011D01*
X12725289Y18307666D01*
X12749002Y18316893D01*
X12780270Y18334778D01*
X12804433Y18357858D01*
X12823053Y18387776D01*
X12837690Y18426178D01*
X12839198Y18431409D01*
X12841355Y18440628D01*
X12843092Y18451392D01*
X12844452Y18464808D01*
X12845481Y18481985D01*
X12846223Y18504033D01*
X12846722Y18532059D01*
X12847024Y18567173D01*
X12847172Y18610484D01*
X12847212Y18663099D01*
X12847190Y18698196D01*
X12847019Y18748612D01*
X12846595Y18790393D01*
X12845821Y18824649D01*
X12844602Y18852489D01*
X12842839Y18875020D01*
X12840438Y18893353D01*
X12837301Y18908597D01*
X12833332Y18921861D01*
X12828434Y18934253D01*
X12822512Y18946883D01*
X12808734Y18969294D01*
X12785913Y18994352D01*
X12760157Y19012450D01*
X12745820Y19019121D01*
X12727057Y19025642D01*
X12705491Y19030556D01*
X12679602Y19034058D01*
X12647874Y19036344D01*
X12608787Y19037607D01*
X12560824Y19038044D01*
X12525252Y19038181D01*
X12494956Y19038560D01*
X12472141Y19039285D01*
X12455274Y19040469D01*
X12442823Y19042221D01*
X12433258Y19044652D01*
X12425045Y19047875D01*
X12420214Y19050092D01*
X12411828Y19054426D01*
X12404957Y19059462D01*
X12399449Y19066171D01*
X12395155Y19075525D01*
X12391924Y19088494D01*
X12389603Y19106050D01*
X12388043Y19129164D01*
X12387092Y19158807D01*
X12386600Y19195951D01*
X12386415Y19241566D01*
X12386387Y19296624D01*
X12386409Y19341005D01*
X12386516Y19384654D01*
X12386754Y19419825D01*
X12387169Y19447568D01*
X12387805Y19468930D01*
X12388709Y19484960D01*
X12389925Y19496708D01*
X12391499Y19505220D01*
X12393476Y19511546D01*
X12395902Y19516735D01*
X12401691Y19526670D01*
X12408362Y19535041D01*
X12416810Y19541469D01*
X12428268Y19546209D01*
X12443970Y19549515D01*
X12465151Y19551643D01*
X12493043Y19552847D01*
X12528880Y19553383D01*
X12573897Y19553505D01*
X12578722Y19553503D01*
G37*
G36*
X12891119Y21750056D02*
G01*
X12947451Y21749990D01*
X12996987Y21749871D01*
X13040181Y21749695D01*
X13077490Y21749458D01*
X13109367Y21749157D01*
X13136269Y21748789D01*
X13158649Y21748350D01*
X13176965Y21747835D01*
X13191669Y21747243D01*
X13203218Y21746568D01*
X13212067Y21745808D01*
X13218670Y21744959D01*
X13223483Y21744018D01*
X13226961Y21742980D01*
X13229560Y21741843D01*
X13230589Y21741299D01*
X13245874Y21730588D01*
X13258198Y21717963D01*
X13259261Y21716481D01*
X13261815Y21712260D01*
X13263893Y21706982D01*
X13265555Y21699607D01*
X13266860Y21689096D01*
X13267868Y21674408D01*
X13268638Y21654504D01*
X13269228Y21628345D01*
X13269700Y21594891D01*
X13270111Y21553102D01*
X13270521Y21501938D01*
X13270871Y21449133D01*
X13270979Y21402483D01*
X13270708Y21364337D01*
X13269944Y21333713D01*
X13268576Y21309630D01*
X13266491Y21291106D01*
X13263577Y21277160D01*
X13259721Y21266809D01*
X13254810Y21259074D01*
X13248733Y21252972D01*
X13241376Y21247521D01*
X13239378Y21246365D01*
X13236549Y21245269D01*
X13232489Y21244268D01*
X13226740Y21243356D01*
X13218842Y21242528D01*
X13208336Y21241777D01*
X13194763Y21241097D01*
X13177665Y21240482D01*
X13156580Y21239927D01*
X13131052Y21239426D01*
X13100619Y21238971D01*
X13064824Y21238558D01*
X13023206Y21238180D01*
X12975307Y21237832D01*
X12920668Y21237507D01*
X12858829Y21237199D01*
X12789331Y21236903D01*
X12711715Y21236612D01*
X12625521Y21236321D01*
X12530291Y21236023D01*
X12425566Y21235712D01*
X12310885Y21235383D01*
X11394444Y21232779D01*
X11358502Y21220609D01*
X11328252Y21207282D01*
X11296596Y21183844D01*
X11272342Y21153080D01*
X11255519Y21115022D01*
X11252638Y21105603D01*
X11250195Y21096448D01*
X11248228Y21086746D01*
X11246685Y21075401D01*
X11245515Y21061315D01*
X11244666Y21043394D01*
X11244087Y21020540D01*
X11243727Y20991657D01*
X11243533Y20955648D01*
X11243454Y20911419D01*
X11243439Y20857872D01*
X11243440Y20848960D01*
X11243455Y20797021D01*
X11243536Y20754245D01*
X11243735Y20719549D01*
X11244105Y20691850D01*
X11244700Y20670065D01*
X11245572Y20653111D01*
X11246776Y20639904D01*
X11248363Y20629360D01*
X11250387Y20620398D01*
X11252902Y20611933D01*
X11255961Y20602883D01*
X11267436Y20576418D01*
X11290615Y20543564D01*
X11321068Y20518108D01*
X11358502Y20500341D01*
X11394444Y20488171D01*
X12310885Y20485567D01*
X12421924Y20485249D01*
X12526972Y20484938D01*
X12622510Y20484639D01*
X12708995Y20484348D01*
X12786889Y20484057D01*
X12856649Y20483761D01*
X12918735Y20483454D01*
X12973606Y20483130D01*
X13021721Y20482782D01*
X13063539Y20482405D01*
X13099520Y20481994D01*
X13130123Y20481541D01*
X13155807Y20481040D01*
X13177032Y20480487D01*
X13194255Y20479875D01*
X13207938Y20479197D01*
X13218538Y20478448D01*
X13226515Y20477623D01*
X13232328Y20476714D01*
X13236436Y20475716D01*
X13239299Y20474623D01*
X13241376Y20473429D01*
X13248227Y20468396D01*
X13254405Y20462364D01*
X13259405Y20454768D01*
X13263338Y20444624D01*
X13266319Y20430949D01*
X13268460Y20412761D01*
X13269874Y20389076D01*
X13270675Y20358910D01*
X13270974Y20321281D01*
X13270885Y20275206D01*
X13270521Y20219701D01*
X13270369Y20199858D01*
X13269952Y20150175D01*
X13269441Y20109525D01*
X13268690Y20076890D01*
X13267554Y20051247D01*
X13265888Y20031578D01*
X13263545Y20016861D01*
X13260381Y20006077D01*
X13256249Y19998205D01*
X13251004Y19992224D01*
X13244501Y19987115D01*
X13236594Y19981858D01*
X13234689Y19980817D01*
X13231735Y19979767D01*
X13227439Y19978811D01*
X13221349Y19977945D01*
X13213011Y19977164D01*
X13201971Y19976464D01*
X13187775Y19975840D01*
X13169970Y19975288D01*
X13148102Y19974804D01*
X13121717Y19974384D01*
X13090363Y19974022D01*
X13053584Y19973715D01*
X13010928Y19973457D01*
X12961941Y19973246D01*
X12906169Y19973076D01*
X12843158Y19972942D01*
X12772456Y19972842D01*
X12693607Y19972769D01*
X12606159Y19972720D01*
X12509658Y19972691D01*
X12403650Y19972677D01*
X12287682Y19972673D01*
X12192008Y19972675D01*
X12084002Y19972689D01*
X11985547Y19972717D01*
X11896169Y19972764D01*
X11815392Y19972836D01*
X11742742Y19972937D01*
X11677744Y19973071D01*
X11619923Y19973243D01*
X11568804Y19973458D01*
X11523912Y19973719D01*
X11484774Y19974033D01*
X11450913Y19974402D01*
X11421854Y19974832D01*
X11397124Y19975327D01*
X11376247Y19975892D01*
X11358749Y19976532D01*
X11344154Y19977251D01*
X11331988Y19978053D01*
X11321776Y19978943D01*
X11313042Y19979926D01*
X11305313Y19981007D01*
X11298114Y19982189D01*
X11235863Y19995638D01*
X11165091Y20018621D01*
X11101245Y20048794D01*
X11043727Y20086450D01*
X10991938Y20131881D01*
X10960007Y20167288D01*
X10918030Y20226436D01*
X10883020Y20292644D01*
X10855250Y20365271D01*
X10834995Y20443678D01*
X10822530Y20527224D01*
X10821942Y20536649D01*
X10821301Y20556910D01*
X10820777Y20585362D01*
X10820366Y20620842D01*
X10820064Y20662185D01*
X10819869Y20708231D01*
X10819777Y20757815D01*
X10819783Y20809776D01*
X10819886Y20862951D01*
X10820080Y20916176D01*
X10820364Y20968289D01*
X10820733Y21018128D01*
X10821184Y21064529D01*
X10821714Y21106330D01*
X10822318Y21142368D01*
X10822994Y21171480D01*
X10823738Y21192504D01*
X10824547Y21204277D01*
X10827106Y21223646D01*
X10838280Y21287847D01*
X10853187Y21345706D01*
X10872681Y21400143D01*
X10897615Y21454079D01*
X10926508Y21504194D01*
X10969882Y21561903D01*
X11020334Y21612092D01*
X11077954Y21654825D01*
X11142829Y21690164D01*
X11215048Y21718174D01*
X11294701Y21738918D01*
X11300453Y21739975D01*
X11307506Y21740975D01*
X11316160Y21741889D01*
X11326879Y21742723D01*
X11340125Y21743481D01*
X11356364Y21744169D01*
X11376059Y21744790D01*
X11399674Y21745351D01*
X11427672Y21745855D01*
X11460518Y21746308D01*
X11498676Y21746716D01*
X11542609Y21747082D01*
X11592781Y21747412D01*
X11649656Y21747710D01*
X11713698Y21747982D01*
X11785372Y21748233D01*
X11865139Y21748466D01*
X11953466Y21748689D01*
X12050815Y21748904D01*
X12157650Y21749118D01*
X12274436Y21749335D01*
X12384919Y21749532D01*
X12491586Y21749711D01*
X12588726Y21749858D01*
X12676794Y21749970D01*
X12756246Y21750042D01*
X12827536Y21750072D01*
X12891119Y21750056D01*
G37*
G36*
X13069488Y34600812D02*
G01*
X13110890Y34600374D01*
X13146640Y34599882D01*
X13174314Y34599283D01*
X13195124Y34598489D01*
X13210283Y34597411D01*
X13221005Y34595961D01*
X13228501Y34594051D01*
X13233985Y34591593D01*
X13238671Y34588498D01*
X13239505Y34587868D01*
X13252169Y34575105D01*
X13262497Y34559859D01*
X13263445Y34557794D01*
X13264658Y34554162D01*
X13265742Y34549183D01*
X13266703Y34542324D01*
X13267546Y34533052D01*
X13268277Y34520833D01*
X13268903Y34505134D01*
X13269429Y34485421D01*
X13269861Y34461162D01*
X13270205Y34431823D01*
X13270467Y34396869D01*
X13270652Y34355769D01*
X13270767Y34307989D01*
X13270818Y34252995D01*
X13270810Y34190254D01*
X13270749Y34119232D01*
X13270641Y34039396D01*
X13270492Y33950213D01*
X13270307Y33851149D01*
X13270133Y33760684D01*
X13269952Y33670947D01*
X13269773Y33590605D01*
X13269587Y33519124D01*
X13269385Y33455972D01*
X13269158Y33400615D01*
X13268897Y33352521D01*
X13268591Y33311156D01*
X13268233Y33275987D01*
X13267814Y33246481D01*
X13267323Y33222105D01*
X13266752Y33202325D01*
X13266091Y33186609D01*
X13265332Y33174423D01*
X13264466Y33165235D01*
X13263483Y33158511D01*
X13262373Y33153718D01*
X13261129Y33150323D01*
X13259740Y33147792D01*
X13258198Y33145594D01*
X13257570Y33144761D01*
X13244807Y33132091D01*
X13229560Y33121764D01*
X13228358Y33121203D01*
X13225559Y33120232D01*
X13221658Y33119338D01*
X13216249Y33118519D01*
X13208929Y33117773D01*
X13199292Y33117096D01*
X13186933Y33116486D01*
X13171447Y33115941D01*
X13152430Y33115458D01*
X13129477Y33115033D01*
X13102182Y33114665D01*
X13070142Y33114351D01*
X13032951Y33114088D01*
X12990203Y33113873D01*
X12941496Y33113704D01*
X12886422Y33113579D01*
X12824579Y33113494D01*
X12755560Y33113447D01*
X12678961Y33113435D01*
X12594378Y33113455D01*
X12501404Y33113506D01*
X12399636Y33113583D01*
X12288668Y33113686D01*
X12168096Y33113810D01*
X12037515Y33113954D01*
X11934131Y33114071D01*
X11811541Y33114217D01*
X11698644Y33114362D01*
X11595036Y33114509D01*
X11500312Y33114663D01*
X11414069Y33114826D01*
X11335903Y33115003D01*
X11265410Y33115197D01*
X11202185Y33115412D01*
X11145826Y33115651D01*
X11095928Y33115919D01*
X11052086Y33116217D01*
X11013898Y33116552D01*
X10980959Y33116925D01*
X10952865Y33117340D01*
X10929212Y33117802D01*
X10909596Y33118314D01*
X10893614Y33118879D01*
X10880861Y33119502D01*
X10870933Y33120184D01*
X10863426Y33120932D01*
X10857937Y33121747D01*
X10854061Y33122634D01*
X10851394Y33123596D01*
X10849533Y33124638D01*
X10849500Y33124660D01*
X10837361Y33136169D01*
X10827522Y33150673D01*
X10826690Y33152716D01*
X10825585Y33156982D01*
X10824594Y33163262D01*
X10823711Y33172080D01*
X10822929Y33183963D01*
X10822243Y33199435D01*
X10821645Y33219021D01*
X10821131Y33243246D01*
X10820693Y33272635D01*
X10820326Y33307713D01*
X10820023Y33349005D01*
X10819779Y33397036D01*
X10819586Y33452331D01*
X10819439Y33515415D01*
X10819331Y33586813D01*
X10819257Y33667051D01*
X10819210Y33756652D01*
X10819183Y33856143D01*
X10819177Y33886498D01*
X10819152Y33984046D01*
X10819136Y34071857D01*
X10819150Y34150459D01*
X10819215Y34220375D01*
X10819351Y34282132D01*
X10819580Y34336254D01*
X10819922Y34383266D01*
X10820399Y34423695D01*
X10821030Y34458064D01*
X10821837Y34486900D01*
X10822841Y34510728D01*
X10824063Y34530073D01*
X10825523Y34545460D01*
X10827243Y34557414D01*
X10829243Y34566461D01*
X10831544Y34573126D01*
X10834167Y34577934D01*
X10837132Y34581411D01*
X10840462Y34584082D01*
X10844176Y34586471D01*
X10848295Y34589105D01*
X10852311Y34591556D01*
X10857989Y34593958D01*
X10865721Y34595842D01*
X10876703Y34597287D01*
X10892127Y34598373D01*
X10913189Y34599180D01*
X10941082Y34599788D01*
X10977001Y34600277D01*
X11022140Y34600726D01*
X11064387Y34601065D01*
X11104609Y34601158D01*
X11136588Y34600756D01*
X11161488Y34599680D01*
X11180475Y34597748D01*
X11194711Y34594782D01*
X11205362Y34590600D01*
X11213592Y34585023D01*
X11220566Y34577871D01*
X11227448Y34568963D01*
X11229281Y34566311D01*
X11230941Y34563154D01*
X11232392Y34558902D01*
X11233652Y34552891D01*
X11234740Y34544454D01*
X11235676Y34532926D01*
X11236479Y34517641D01*
X11237167Y34497933D01*
X11237759Y34473136D01*
X11238275Y34442586D01*
X11238734Y34405615D01*
X11239155Y34361560D01*
X11239556Y34309753D01*
X11239958Y34249529D01*
X11240378Y34180222D01*
X11240836Y34101168D01*
X11243439Y33648071D01*
X11255732Y33638119D01*
X11255986Y33637915D01*
X11259109Y33635765D01*
X11263199Y33633956D01*
X11269117Y33632459D01*
X11277719Y33631244D01*
X11289866Y33630283D01*
X11306415Y33629545D01*
X11328226Y33629001D01*
X11356158Y33628622D01*
X11391068Y33628379D01*
X11433817Y33628241D01*
X11485262Y33628181D01*
X11546262Y33628167D01*
X11824499Y33628167D01*
X11850061Y33653729D01*
X11850061Y34039771D01*
X11850073Y34108247D01*
X11850117Y34167248D01*
X11850214Y34217531D01*
X11850385Y34259857D01*
X11850650Y34294983D01*
X11851031Y34323669D01*
X11851547Y34346671D01*
X11852220Y34364750D01*
X11853071Y34378664D01*
X11854119Y34389171D01*
X11855386Y34397030D01*
X11856892Y34402999D01*
X11858658Y34407838D01*
X11860705Y34412304D01*
X11865691Y34422052D01*
X11871252Y34430424D01*
X11878205Y34436996D01*
X11887679Y34441986D01*
X11900801Y34445610D01*
X11918699Y34448088D01*
X11942500Y34449636D01*
X11973332Y34450473D01*
X12012322Y34450815D01*
X12060599Y34450881D01*
X12086857Y34450862D01*
X12129986Y34450656D01*
X12164443Y34450083D01*
X12191373Y34448975D01*
X12211923Y34447164D01*
X12227237Y34444481D01*
X12238462Y34440757D01*
X12246742Y34435823D01*
X12253224Y34429510D01*
X12259052Y34421651D01*
X12259502Y34420975D01*
X12261378Y34417701D01*
X12263006Y34413534D01*
X12264409Y34407744D01*
X12265612Y34399596D01*
X12266638Y34388359D01*
X12267511Y34373300D01*
X12268255Y34353686D01*
X12268893Y34328786D01*
X12269449Y34297867D01*
X12269947Y34260196D01*
X12270410Y34215040D01*
X12270863Y34161669D01*
X12271329Y34099348D01*
X12271832Y34027345D01*
X12274436Y33648070D01*
X12286729Y33638118D01*
X12288894Y33636507D01*
X12292614Y33634523D01*
X12297870Y33632880D01*
X12305552Y33631547D01*
X12316546Y33630492D01*
X12331741Y33629681D01*
X12352023Y33629084D01*
X12378281Y33628668D01*
X12411403Y33628400D01*
X12452275Y33628249D01*
X12501786Y33628182D01*
X12560824Y33628167D01*
X12603233Y33628173D01*
X12655502Y33628222D01*
X12698866Y33628344D01*
X12734214Y33628574D01*
X12762433Y33628942D01*
X12784410Y33629482D01*
X12801034Y33630225D01*
X12813192Y33631203D01*
X12821772Y33632450D01*
X12827661Y33633996D01*
X12831748Y33635875D01*
X12834919Y33638119D01*
X12847212Y33648071D01*
X12849815Y34102848D01*
X12849938Y34124181D01*
X12850392Y34201030D01*
X12850822Y34268295D01*
X12851244Y34326639D01*
X12851676Y34376724D01*
X12852134Y34419209D01*
X12852636Y34454758D01*
X12853200Y34484031D01*
X12853841Y34507690D01*
X12854577Y34526397D01*
X12855426Y34540813D01*
X12856404Y34551599D01*
X12857529Y34559416D01*
X12858817Y34564927D01*
X12860286Y34568793D01*
X12861953Y34571676D01*
X12864155Y34574802D01*
X12870705Y34582417D01*
X12878710Y34588485D01*
X12889288Y34593161D01*
X12903558Y34596604D01*
X12922641Y34598970D01*
X12947656Y34600416D01*
X12979722Y34601101D01*
X13019960Y34601180D01*
X13069488Y34600812D01*
G37*
G36*
X11696856Y29134107D02*
G01*
X11600884Y29107415D01*
X11508986Y29081861D01*
X11421619Y29057573D01*
X11339241Y29034679D01*
X11262313Y29013305D01*
X11191291Y28993578D01*
X11126634Y28975627D01*
X11068801Y28959579D01*
X11018250Y28945560D01*
X10975439Y28933699D01*
X10940827Y28924122D01*
X10914873Y28916956D01*
X10898034Y28912330D01*
X10890768Y28910371D01*
X10890431Y28910286D01*
X10865034Y28906692D01*
X10845351Y28910541D01*
X10829469Y28922201D01*
X10828638Y28923108D01*
X10826224Y28926186D01*
X10824249Y28930176D01*
X10822676Y28936026D01*
X10821470Y28944686D01*
X10820593Y28957109D01*
X10820009Y28974243D01*
X10819682Y28997039D01*
X10819575Y29026447D01*
X10819652Y29063419D01*
X10819877Y29108903D01*
X10820213Y29163851D01*
X10821668Y29394003D01*
X10834319Y29407464D01*
X10836505Y29409789D01*
X10839828Y29413029D01*
X10843815Y29416048D01*
X10849320Y29419115D01*
X10857196Y29422493D01*
X10868298Y29426450D01*
X10883479Y29431250D01*
X10903594Y29437159D01*
X10929496Y29444444D01*
X10962039Y29453369D01*
X11002078Y29464202D01*
X11050465Y29477206D01*
X11108056Y29492648D01*
X11316338Y29548489D01*
X11316668Y29645333D01*
X11709471Y29645333D01*
X11734204Y29652535D01*
X11737072Y29653337D01*
X11750135Y29656870D01*
X11772197Y29662767D01*
X11802534Y29670836D01*
X11840422Y29680886D01*
X11885135Y29692724D01*
X11935951Y29706159D01*
X11992144Y29721001D01*
X12052991Y29737056D01*
X12117767Y29754135D01*
X12185749Y29772044D01*
X12256211Y29790593D01*
X12266027Y29793176D01*
X12351461Y29815656D01*
X12427438Y29835648D01*
X12494512Y29853307D01*
X12553235Y29868784D01*
X12604161Y29882233D01*
X12647843Y29893808D01*
X12684833Y29903660D01*
X12715686Y29911943D01*
X12740954Y29918809D01*
X12761190Y29924413D01*
X12776948Y29928907D01*
X12788780Y29932443D01*
X12797240Y29935175D01*
X12802881Y29937256D01*
X12806255Y29938838D01*
X12807917Y29940075D01*
X12808420Y29941120D01*
X12808315Y29942126D01*
X12808157Y29943245D01*
X12807988Y29943474D01*
X12801199Y29946223D01*
X12784769Y29951438D01*
X12759075Y29959015D01*
X12724496Y29968851D01*
X12681407Y29980842D01*
X12630187Y29994884D01*
X12571213Y30010874D01*
X12504862Y30028709D01*
X12431512Y30048285D01*
X12351539Y30069498D01*
X12265322Y30092244D01*
X12261817Y30093166D01*
X12188757Y30112399D01*
X12118512Y30130898D01*
X12051740Y30148492D01*
X11989102Y30165005D01*
X11931257Y30180262D01*
X11878866Y30194091D01*
X11832587Y30206317D01*
X11793081Y30216765D01*
X11761007Y30225261D01*
X11737026Y30231631D01*
X11721797Y30235701D01*
X11715979Y30237297D01*
X11715956Y30237304D01*
X11714526Y30235767D01*
X11713309Y30229787D01*
X11712289Y30218702D01*
X11711454Y30201847D01*
X11710787Y30178560D01*
X11710274Y30148177D01*
X11709901Y30110034D01*
X11709652Y30063468D01*
X11709514Y30007815D01*
X11709471Y29942412D01*
X11709471Y29645333D01*
X11316668Y29645333D01*
X11317673Y29939881D01*
X11319007Y30331274D01*
X11302052Y30336631D01*
X11297193Y30338073D01*
X11281961Y30342358D01*
X11258952Y30348692D01*
X11229590Y30356694D01*
X11195299Y30365983D01*
X11157502Y30376177D01*
X11117623Y30386893D01*
X11077086Y30397751D01*
X11037315Y30408368D01*
X10999733Y30418363D01*
X10965764Y30427355D01*
X10936832Y30434960D01*
X10914361Y30440798D01*
X10899774Y30444487D01*
X10879831Y30449847D01*
X10861403Y30455668D01*
X10849093Y30460532D01*
X10843410Y30463484D01*
X10837405Y30467389D01*
X10832479Y30472422D01*
X10828524Y30479510D01*
X10825435Y30489583D01*
X10823104Y30503569D01*
X10821425Y30522397D01*
X10820291Y30546996D01*
X10819594Y30578294D01*
X10819229Y30617220D01*
X10819088Y30664703D01*
X10819065Y30721671D01*
X10819065Y30725610D01*
X10819081Y30779047D01*
X10819157Y30823111D01*
X10819337Y30858777D01*
X10819666Y30887021D01*
X10820187Y30908818D01*
X10820947Y30925144D01*
X10821987Y30936975D01*
X10823355Y30945285D01*
X10825092Y30951051D01*
X10827245Y30955247D01*
X10829857Y30958850D01*
X10836914Y30966282D01*
X10847680Y30971292D01*
X10864247Y30972570D01*
X10867439Y30972131D01*
X10880907Y30969151D01*
X10904222Y30963382D01*
X10937270Y30954855D01*
X10979941Y30943600D01*
X11032123Y30929647D01*
X11093702Y30913027D01*
X11164568Y30893771D01*
X11244609Y30871909D01*
X11333712Y30847472D01*
X11431766Y30820490D01*
X11538659Y30790994D01*
X11654279Y30759014D01*
X11778513Y30724581D01*
X11911251Y30687725D01*
X12052379Y30648477D01*
X13216912Y30324384D01*
X13238522Y30302866D01*
X13245092Y30296180D01*
X13250907Y30289458D01*
X13255827Y30282098D01*
X13259919Y30273282D01*
X13263254Y30262198D01*
X13265901Y30248031D01*
X13267929Y30229966D01*
X13269408Y30207189D01*
X13270407Y30178884D01*
X13270995Y30144239D01*
X13271242Y30102437D01*
X13271218Y30052666D01*
X13270991Y29994109D01*
X13270631Y29925953D01*
X13268983Y29626547D01*
X13254525Y29601952D01*
X13238626Y29581157D01*
X13217753Y29564280D01*
X13217293Y29564035D01*
X13208270Y29560648D01*
X13189592Y29554636D01*
X13161231Y29545989D01*
X13123160Y29534700D01*
X13075349Y29520762D01*
X13017771Y29504165D01*
X12950398Y29484903D01*
X12873201Y29462967D01*
X12786154Y29438350D01*
X12689226Y29411042D01*
X12582392Y29381037D01*
X12465621Y29348326D01*
X12338888Y29312901D01*
X12202162Y29274754D01*
X12055417Y29233878D01*
X12004628Y29219742D01*
X11899187Y29190398D01*
X11796443Y29161811D01*
X11709471Y29137616D01*
X11696856Y29134107D01*
G37*
G36*
X12793954Y15069434D02*
G01*
X12859026Y15069367D01*
X12917143Y15069260D01*
X12968709Y15069111D01*
X13014130Y15068918D01*
X13053810Y15068677D01*
X13088154Y15068387D01*
X13117567Y15068044D01*
X13142454Y15067645D01*
X13163219Y15067189D01*
X13180269Y15066673D01*
X13194006Y15066093D01*
X13204837Y15065447D01*
X13213166Y15064733D01*
X13219398Y15063947D01*
X13223937Y15063088D01*
X13227190Y15062152D01*
X13229560Y15061138D01*
X13230571Y15060607D01*
X13245865Y15049930D01*
X13258198Y15037307D01*
X13260089Y15034608D01*
X13262436Y15030344D01*
X13264329Y15024797D01*
X13265817Y15016952D01*
X13266949Y15005796D01*
X13267773Y14990312D01*
X13268338Y14969487D01*
X13268693Y14942307D01*
X13268887Y14907756D01*
X13268967Y14864820D01*
X13268983Y14812484D01*
X13268976Y14775633D01*
X13268922Y14729834D01*
X13268770Y14692742D01*
X13268471Y14663340D01*
X13267978Y14640615D01*
X13267241Y14623553D01*
X13266211Y14611137D01*
X13264841Y14602355D01*
X13263081Y14596192D01*
X13260883Y14591632D01*
X13258198Y14587661D01*
X13257575Y14586835D01*
X13244811Y14574169D01*
X13229560Y14563855D01*
X13228633Y14563416D01*
X13225905Y14562435D01*
X13222092Y14561530D01*
X13216787Y14560699D01*
X13209586Y14559939D01*
X13200083Y14559246D01*
X13187871Y14558617D01*
X13172546Y14558049D01*
X13153702Y14557540D01*
X13130933Y14557085D01*
X13103835Y14556683D01*
X13072000Y14556329D01*
X13035023Y14556020D01*
X12992500Y14555754D01*
X12944024Y14555528D01*
X12889190Y14555338D01*
X12827592Y14555180D01*
X12758825Y14555053D01*
X12682482Y14554953D01*
X12598159Y14554877D01*
X12505450Y14554821D01*
X12403950Y14554783D01*
X12293251Y14554759D01*
X12172950Y14554747D01*
X12042641Y14554743D01*
X11926987Y14554744D01*
X11805699Y14554752D01*
X11694060Y14554769D01*
X11591661Y14554800D01*
X11498097Y14554847D01*
X11412961Y14554913D01*
X11335846Y14555003D01*
X11266346Y14555119D01*
X11204054Y14555264D01*
X11148562Y14555442D01*
X11099466Y14555656D01*
X11056357Y14555909D01*
X11018830Y14556204D01*
X10986478Y14556546D01*
X10958894Y14556936D01*
X10935671Y14557379D01*
X10916403Y14557877D01*
X10900683Y14558433D01*
X10888105Y14559052D01*
X10878261Y14559736D01*
X10870746Y14560489D01*
X10865153Y14561313D01*
X10861074Y14562213D01*
X10858104Y14563190D01*
X10855835Y14564250D01*
X10854782Y14564836D01*
X10839984Y14576712D01*
X10828579Y14591506D01*
X10826495Y14595853D01*
X10824452Y14601937D01*
X10822819Y14610047D01*
X10821551Y14621231D01*
X10820603Y14636538D01*
X10819928Y14657017D01*
X10819482Y14683716D01*
X10819220Y14717683D01*
X10819096Y14759967D01*
X10819065Y14811616D01*
X10819065Y14820169D01*
X10819117Y14873184D01*
X10819341Y14916929D01*
X10819862Y14952403D01*
X10820802Y14980603D01*
X10822284Y15002528D01*
X10824432Y15019176D01*
X10827367Y15031546D01*
X10831214Y15040636D01*
X10836096Y15047445D01*
X10842135Y15052971D01*
X10849454Y15058212D01*
X10850976Y15059099D01*
X10853461Y15060079D01*
X10857067Y15060982D01*
X10862195Y15061813D01*
X10869252Y15062575D01*
X10878640Y15063271D01*
X10890763Y15063906D01*
X10906027Y15064483D01*
X10924835Y15065005D01*
X10947591Y15065477D01*
X10974699Y15065901D01*
X11006564Y15066283D01*
X11043589Y15066624D01*
X11086179Y15066929D01*
X11134738Y15067202D01*
X11189670Y15067446D01*
X11251378Y15067665D01*
X11320268Y15067862D01*
X11396743Y15068042D01*
X11481208Y15068207D01*
X11574066Y15068362D01*
X11675721Y15068510D01*
X11786579Y15068654D01*
X11907042Y15068799D01*
X12037515Y15068948D01*
X12109690Y15069028D01*
X12234786Y15069162D01*
X12350092Y15069275D01*
X12456014Y15069364D01*
X12552956Y15069427D01*
X12641324Y15069462D01*
X12721521Y15069465D01*
X12793954Y15069434D01*
G37*
G36*
X11595818Y8482681D02*
G01*
X11588319Y8484877D01*
X11577458Y8487593D01*
X11565815Y8489692D01*
X11552014Y8491252D01*
X11534678Y8492353D01*
X11512432Y8493072D01*
X11483900Y8493488D01*
X11447706Y8493680D01*
X11402474Y8493726D01*
X11368517Y8493792D01*
X11321961Y8494229D01*
X11283588Y8495200D01*
X11252029Y8496850D01*
X11225914Y8499320D01*
X11203875Y8502754D01*
X11184543Y8507296D01*
X11166548Y8513087D01*
X11148522Y8520272D01*
X11123145Y8532883D01*
X11080841Y8561629D01*
X11041846Y8597804D01*
X11008373Y8639524D01*
X10997804Y8655545D01*
X10987403Y8673957D01*
X11582494Y8673957D01*
X11582614Y8648602D01*
X11591044Y8624576D01*
X11607049Y8604097D01*
X11629896Y8589386D01*
X11630480Y8589140D01*
X11656046Y8583095D01*
X11680432Y8585481D01*
X11702336Y8594878D01*
X11720454Y8609867D01*
X11733481Y8629027D01*
X11740116Y8650938D01*
X11739053Y8674180D01*
X11728990Y8697333D01*
X11727299Y8699743D01*
X11711456Y8715471D01*
X11691085Y8728000D01*
X11669710Y8735567D01*
X11650851Y8736411D01*
X11649015Y8736038D01*
X11627107Y8728169D01*
X11606995Y8715596D01*
X11592980Y8700955D01*
X11591419Y8698420D01*
X11582494Y8673957D01*
X10987403Y8673957D01*
X10983978Y8680020D01*
X10973740Y8704824D01*
X10964816Y8734938D01*
X10963469Y8740376D01*
X10962131Y8746843D01*
X10960941Y8754361D01*
X10959890Y8763515D01*
X10958969Y8774890D01*
X10958169Y8789073D01*
X10957481Y8806647D01*
X10956896Y8828198D01*
X10956405Y8854312D01*
X10956000Y8885573D01*
X10955670Y8922567D01*
X10955407Y8965878D01*
X10955202Y9016093D01*
X10955046Y9073795D01*
X10954931Y9139571D01*
X10954846Y9214006D01*
X10954784Y9297684D01*
X10954735Y9391191D01*
X10954711Y9436746D01*
X10954656Y9527604D01*
X10954620Y9608911D01*
X10954629Y9681257D01*
X10954712Y9745231D01*
X10954898Y9801423D01*
X10955213Y9850423D01*
X10955688Y9892819D01*
X10956348Y9929202D01*
X10957223Y9960161D01*
X10958341Y9986287D01*
X10959729Y10008167D01*
X10961417Y10026393D01*
X10963431Y10041553D01*
X10965800Y10054238D01*
X10968552Y10065037D01*
X10971715Y10074539D01*
X10975318Y10083334D01*
X10979388Y10092011D01*
X10983953Y10101162D01*
X10989042Y10111373D01*
X11011031Y10148410D01*
X11044996Y10189281D01*
X11085610Y10225116D01*
X11130926Y10254240D01*
X11178999Y10274977D01*
X11217404Y10287556D01*
X11613897Y10287556D01*
X11686489Y10287542D01*
X11749469Y10287493D01*
X11803584Y10287391D01*
X11849580Y10287219D01*
X11888202Y10286958D01*
X11920198Y10286593D01*
X11946312Y10286105D01*
X11967291Y10285477D01*
X11983881Y10284692D01*
X11996828Y10283733D01*
X12006877Y10282582D01*
X12014775Y10281221D01*
X12021268Y10279634D01*
X12027101Y10277802D01*
X12052932Y10268024D01*
X12106874Y10240143D01*
X12153743Y10204709D01*
X12193264Y10161997D01*
X12225160Y10112283D01*
X12249157Y10055842D01*
X12249476Y10054873D01*
X12250930Y10049864D01*
X12252231Y10043939D01*
X12253390Y10036503D01*
X12254420Y10026964D01*
X12255331Y10014727D01*
X12256137Y9999198D01*
X12256849Y9979785D01*
X12257477Y9955894D01*
X12258036Y9926931D01*
X12258535Y9892302D01*
X12258988Y9851415D01*
X12259405Y9803675D01*
X12259799Y9748488D01*
X12260181Y9685262D01*
X12260563Y9613403D01*
X12260957Y9532317D01*
X12261375Y9441410D01*
X12264022Y8855617D01*
X12576445Y8854178D01*
X12630764Y8853972D01*
X12684395Y8853858D01*
X12734231Y8853843D01*
X12779328Y8853922D01*
X12818738Y8854090D01*
X12851516Y8854345D01*
X12876718Y8854682D01*
X12893397Y8855097D01*
X12900608Y8855585D01*
X12912347Y8858430D01*
X12911022Y9408971D01*
X12909696Y9959512D01*
X12774313Y9960914D01*
X12736362Y9961258D01*
X12702486Y9961380D01*
X12676144Y9961147D01*
X12655816Y9960477D01*
X12639985Y9959289D01*
X12627130Y9957502D01*
X12615733Y9955033D01*
X12604275Y9951802D01*
X12571755Y9944631D01*
X12547292Y9942551D01*
X12536233Y9941611D01*
X12502479Y9943122D01*
X12474260Y9949240D01*
X12467945Y9951578D01*
X12431275Y9970941D01*
X12399866Y9997467D01*
X12374744Y10029583D01*
X12356935Y10065718D01*
X12347464Y10104299D01*
X12347432Y10116259D01*
X12456042Y10116259D01*
X12465474Y10091947D01*
X12484785Y10070111D01*
X12495960Y10062223D01*
X12521085Y10052955D01*
X12547292Y10052860D01*
X12572371Y10061749D01*
X12594111Y10079434D01*
X12608047Y10098776D01*
X12614498Y10118857D01*
X12613260Y10141639D01*
X12612984Y10143022D01*
X12603416Y10165780D01*
X12586589Y10184650D01*
X12564956Y10198080D01*
X12540974Y10204519D01*
X12517097Y10202415D01*
X12498152Y10194732D01*
X12475686Y10178179D01*
X12461259Y10156673D01*
X12456693Y10142290D01*
X12456042Y10116259D01*
X12347432Y10116259D01*
X12347358Y10143753D01*
X12349970Y10159794D01*
X12362837Y10201151D01*
X12383073Y10237373D01*
X12409524Y10267709D01*
X12441039Y10291410D01*
X12476464Y10307724D01*
X12514645Y10315900D01*
X12554432Y10315187D01*
X12594669Y10304835D01*
X12597121Y10303908D01*
X12605510Y10301092D01*
X12614722Y10298799D01*
X12625956Y10296948D01*
X12640411Y10295454D01*
X12659285Y10294236D01*
X12683778Y10293211D01*
X12715087Y10292296D01*
X12754412Y10291408D01*
X12802952Y10290465D01*
X12982595Y10287116D01*
X13021538Y10272344D01*
X13047800Y10261377D01*
X13098440Y10233062D01*
X13141428Y10197940D01*
X13177308Y10155519D01*
X13206623Y10105309D01*
X13211263Y10095314D01*
X13221632Y10070225D01*
X13230060Y10046162D01*
X13235063Y10027203D01*
X13235913Y10019759D01*
X13236788Y10004379D01*
X13237544Y9981481D01*
X13238183Y9950776D01*
X13238706Y9911975D01*
X13239116Y9864788D01*
X13239415Y9808926D01*
X13239604Y9744098D01*
X13239685Y9670015D01*
X13239661Y9586387D01*
X13239533Y9492925D01*
X13239303Y9389339D01*
X13237740Y8782718D01*
X13224083Y8747614D01*
X13209778Y8714982D01*
X13178992Y8663095D01*
X13141477Y8618821D01*
X13097622Y8582517D01*
X13047813Y8554537D01*
X12992439Y8535237D01*
X12986682Y8533813D01*
X12978394Y8532018D01*
X12969296Y8530484D01*
X12958588Y8529189D01*
X12945469Y8528114D01*
X12929139Y8527237D01*
X12908797Y8526540D01*
X12883644Y8526002D01*
X12852879Y8525602D01*
X12815701Y8525320D01*
X12771310Y8525136D01*
X12718907Y8525030D01*
X12657690Y8524981D01*
X12586859Y8524969D01*
X12536158Y8524974D01*
X12472151Y8525010D01*
X12417197Y8525097D01*
X12370495Y8525255D01*
X12331244Y8525506D01*
X12298646Y8525869D01*
X12271899Y8526364D01*
X12250203Y8527011D01*
X12232758Y8527832D01*
X12218763Y8528845D01*
X12207417Y8530072D01*
X12197922Y8531533D01*
X12189476Y8533248D01*
X12181279Y8535237D01*
X12132427Y8551712D01*
X12082149Y8578319D01*
X12037877Y8612727D01*
X12000534Y8654202D01*
X11971047Y8702009D01*
X11966798Y8710435D01*
X11961497Y8720846D01*
X11956786Y8730472D01*
X11952631Y8739936D01*
X11948997Y8749860D01*
X11945849Y8760867D01*
X11943153Y8773578D01*
X11940873Y8788616D01*
X11938975Y8806602D01*
X11937424Y8828160D01*
X11936186Y8853910D01*
X11935225Y8884475D01*
X11934508Y8920477D01*
X11933999Y8962539D01*
X11933663Y9011281D01*
X11933466Y9067328D01*
X11933374Y9131300D01*
X11933351Y9203819D01*
X11933362Y9285509D01*
X11933374Y9376990D01*
X11933373Y9386460D01*
X11933338Y9462348D01*
X11933249Y9535302D01*
X11933110Y9604642D01*
X11932924Y9669688D01*
X11932695Y9729761D01*
X11932428Y9784180D01*
X11932125Y9832264D01*
X11931791Y9873335D01*
X11931429Y9906712D01*
X11931043Y9931715D01*
X11930636Y9947664D01*
X11930213Y9953879D01*
X11928814Y9955551D01*
X11925397Y9957021D01*
X11919217Y9958257D01*
X11909508Y9959279D01*
X11895506Y9960106D01*
X11876445Y9960758D01*
X11851561Y9961255D01*
X11820088Y9961618D01*
X11781262Y9961865D01*
X11734316Y9962017D01*
X11678487Y9962094D01*
X11613009Y9962115D01*
X11556762Y9962064D01*
X11503322Y9961917D01*
X11453790Y9961683D01*
X11409097Y9961370D01*
X11370171Y9960988D01*
X11337942Y9960547D01*
X11313339Y9960055D01*
X11297291Y9959521D01*
X11290729Y9958955D01*
X11290418Y9958801D01*
X11289150Y9957231D01*
X11288024Y9953772D01*
X11287030Y9947857D01*
X11286162Y9938917D01*
X11285410Y9926383D01*
X11284767Y9909687D01*
X11284224Y9888261D01*
X11283773Y9861537D01*
X11283406Y9828945D01*
X11283114Y9789918D01*
X11282890Y9743887D01*
X11282725Y9690284D01*
X11282611Y9628540D01*
X11282540Y9558088D01*
X11282503Y9478358D01*
X11282492Y9388782D01*
X11282492Y8821771D01*
X11419177Y8821793D01*
X11442385Y8821805D01*
X11478977Y8821912D01*
X11507457Y8822224D01*
X11529333Y8822855D01*
X11546108Y8823915D01*
X11559288Y8825518D01*
X11570379Y8827775D01*
X11580885Y8830798D01*
X11592312Y8834701D01*
X11629006Y8844466D01*
X11672148Y8847066D01*
X11714531Y8839556D01*
X11721813Y8837275D01*
X11751865Y8824400D01*
X11778421Y8806072D01*
X11804853Y8780069D01*
X11816760Y8765229D01*
X11835932Y8730230D01*
X11846434Y8692412D01*
X11848576Y8653277D01*
X11842671Y8614326D01*
X11829028Y8577063D01*
X11807961Y8542988D01*
X11779780Y8513604D01*
X11744796Y8490412D01*
X11714570Y8479224D01*
X11676375Y8473409D01*
X11656046Y8473961D01*
X11635804Y8474510D01*
X11595818Y8482681D01*
G37*
X15246359Y42130000D02*
X15553641Y42130000D01*
X15246359Y42890000D02*
X15553641Y42890000D01*
%LPC*%
D14*
X17000000Y1490000D03*
D15*
X7950000Y1600000D03*
D16*
X7950000Y-10000D03*
D15*
X10490000Y1600000D03*
D16*
X10490000Y-10000D03*
D15*
X13030000Y1600000D03*
D16*
X13030000Y-10000D03*
D14*
X4000000Y1490000D03*
D17*
X7610000Y45920000D03*
X13410000Y45920000D03*
D18*
X14830000Y45390000D03*
X6190000Y45390000D03*
X14830000Y49570000D03*
X6190000Y49570000D03*
D14*
X17000000Y49490000D03*
D19*
X7010000Y49637500D03*
D20*
X13010000Y46937500D03*
X8010000Y46937500D03*
D19*
X14010000Y49637500D03*
D14*
X4000000Y49490000D03*
D21*
X-10000Y49700000D03*
D22*
X1600000Y49700000D03*
D21*
X-10000Y47160000D03*
D22*
X1600000Y47160000D03*
D21*
X-10000Y44620000D03*
D22*
X1600000Y44620000D03*
D21*
X-10000Y42080000D03*
D22*
X1600000Y42080000D03*
X1600000Y39540000D03*
D21*
X-10000Y39540000D03*
D22*
X1600000Y37000000D03*
D21*
X-10000Y37000000D03*
X-10000Y34460000D03*
D22*
X1600000Y34460000D03*
D21*
X-10000Y31920000D03*
D22*
X1600000Y31920000D03*
X1600000Y29380000D03*
D21*
X-10000Y29380000D03*
X-10000Y26840000D03*
D22*
X1600000Y26840000D03*
D21*
X-10000Y24300000D03*
D22*
X1600000Y24300000D03*
D21*
X-10000Y21760000D03*
D22*
X1600000Y21760000D03*
D21*
X-10000Y19220000D03*
D22*
X1600000Y19220000D03*
D21*
X-10000Y16680000D03*
D22*
X1600000Y16680000D03*
D21*
X-10000Y14140000D03*
D22*
X1600000Y14140000D03*
D21*
X-10000Y11600000D03*
D22*
X1600000Y11600000D03*
X1600000Y9060000D03*
D21*
X-10000Y9060000D03*
X-10000Y6520000D03*
D22*
X1600000Y6520000D03*
D21*
X-10000Y3980000D03*
D22*
X1600000Y3980000D03*
D21*
X-10000Y1440000D03*
D22*
X1600000Y1440000D03*
D23*
X7980000Y37100000D03*
X7980000Y39400000D03*
D24*
X14280000Y39400000D03*
D23*
X7980000Y41700000D03*
D25*
X14890000Y42510000D03*
X15910000Y42510000D03*
D21*
X21010000Y49700000D03*
D22*
X19400000Y49700000D03*
D21*
X21010000Y47160000D03*
D22*
X19400000Y47160000D03*
D21*
X21010000Y44620000D03*
D22*
X19400000Y44620000D03*
X19400000Y42080000D03*
D21*
X21010000Y42080000D03*
D22*
X19400000Y39540000D03*
D21*
X21010000Y39540000D03*
X21010000Y37000000D03*
D22*
X19400000Y37000000D03*
D21*
X21010000Y34460000D03*
D22*
X19400000Y34460000D03*
X19400000Y31920000D03*
D21*
X21010000Y31920000D03*
X21010000Y29380000D03*
D22*
X19400000Y29380000D03*
D21*
X21010000Y26840000D03*
D22*
X19400000Y26840000D03*
D21*
X21010000Y24300000D03*
D22*
X19400000Y24300000D03*
D21*
X21010000Y21760000D03*
D22*
X19400000Y21760000D03*
X19400000Y19220000D03*
D21*
X21010000Y19220000D03*
D22*
X19400000Y16680000D03*
D21*
X21010000Y16680000D03*
X21010000Y14140000D03*
D22*
X19400000Y14140000D03*
X19400000Y11600000D03*
D21*
X21010000Y11600000D03*
X21010000Y9060000D03*
D22*
X19400000Y9060000D03*
X19400000Y6520000D03*
D21*
X21010000Y6520000D03*
X21010000Y3980000D03*
D22*
X19400000Y3980000D03*
D21*
X21010000Y1440000D03*
D22*
X19400000Y1440000D03*
M02*
