G04 #@! TF.GenerationSoftware,KiCad,Pcbnew,(6.0.6)*
G04 #@! TF.CreationDate,2022-08-20T10:32:50+05:30*
G04 #@! TF.ProjectId,Mitayi-Pico-RP2040,4d697461-7969-42d5-9069-636f2d525032,0.2*
G04 #@! TF.SameCoordinates,PX848f8c0PY6ea0500*
G04 #@! TF.FileFunction,AssemblyDrawing,Top*
%FSLAX46Y46*%
G04 Gerber Fmt 4.6, Leading zero omitted, Abs format (unit mm)*
G04 Created by KiCad (PCBNEW (6.0.6)) date 2022-08-20 10:32:50*
%MOMM*%
%LPD*%
G01*
G04 APERTURE LIST*
G04 #@! TA.AperFunction,Profile*
%ADD10C,0.100000*%
G04 #@! TD*
%ADD11C,0.080000*%
%ADD12C,0.100000*%
G04 APERTURE END LIST*
D10*
X0Y51000000D02*
X21000000Y51000000D01*
X21000000Y0D02*
X0Y0D01*
X21000000Y51000000D02*
X21000000Y0D01*
X0Y0D02*
X0Y51000000D01*
D11*
X18310952Y18561429D02*
X17910952Y18561429D01*
X17910952Y18656667D01*
X17930000Y18713810D01*
X17968095Y18751905D01*
X18006190Y18770953D01*
X18082380Y18790000D01*
X18139523Y18790000D01*
X18215714Y18770953D01*
X18253809Y18751905D01*
X18291904Y18713810D01*
X18310952Y18656667D01*
X18310952Y18561429D01*
X18101428Y18961429D02*
X18101428Y19094762D01*
X18310952Y19151905D02*
X18310952Y18961429D01*
X17910952Y18961429D01*
X17910952Y19151905D01*
X18101428Y19456667D02*
X18120476Y19513810D01*
X18139523Y19532858D01*
X18177619Y19551905D01*
X18234761Y19551905D01*
X18272857Y19532858D01*
X18291904Y19513810D01*
X18310952Y19475715D01*
X18310952Y19323334D01*
X17910952Y19323334D01*
X17910952Y19456667D01*
X17930000Y19494762D01*
X17949047Y19513810D01*
X17987142Y19532858D01*
X18025238Y19532858D01*
X18063333Y19513810D01*
X18082380Y19494762D01*
X18101428Y19456667D01*
X18101428Y19323334D01*
X18349047Y19628096D02*
X18349047Y19932858D01*
X18101428Y20028096D02*
X18101428Y20161429D01*
X18310952Y20218572D02*
X18310952Y20028096D01*
X17910952Y20028096D01*
X17910952Y20218572D01*
X18310952Y20390000D02*
X17910952Y20390000D01*
X18310952Y20618572D01*
X17910952Y20618572D01*
X17080952Y19856667D02*
X17366666Y19856667D01*
X17423809Y19837620D01*
X17461904Y19799524D01*
X17480952Y19742381D01*
X17480952Y19704286D01*
X17480952Y20047143D02*
X17080952Y20047143D01*
X17080952Y20199524D01*
X17100000Y20237620D01*
X17119047Y20256667D01*
X17157142Y20275715D01*
X17214285Y20275715D01*
X17252380Y20256667D01*
X17271428Y20237620D01*
X17290476Y20199524D01*
X17290476Y20047143D01*
X17080952Y20618572D02*
X17080952Y20542381D01*
X17100000Y20504286D01*
X17119047Y20485239D01*
X17176190Y20447143D01*
X17252380Y20428096D01*
X17404761Y20428096D01*
X17442857Y20447143D01*
X17461904Y20466191D01*
X17480952Y20504286D01*
X17480952Y20580477D01*
X17461904Y20618572D01*
X17442857Y20637620D01*
X17404761Y20656667D01*
X17309523Y20656667D01*
X17271428Y20637620D01*
X17252380Y20618572D01*
X17233333Y20580477D01*
X17233333Y20504286D01*
X17252380Y20466191D01*
X17271428Y20447143D01*
X17309523Y20428096D01*
X18240952Y14659524D02*
X17840952Y14659524D01*
X17840952Y14754762D01*
X17860000Y14811905D01*
X17898095Y14850000D01*
X17936190Y14869048D01*
X18012380Y14888096D01*
X18069523Y14888096D01*
X18145714Y14869048D01*
X18183809Y14850000D01*
X18221904Y14811905D01*
X18240952Y14754762D01*
X18240952Y14659524D01*
X18031428Y15059524D02*
X18031428Y15192858D01*
X18240952Y15250000D02*
X18240952Y15059524D01*
X17840952Y15059524D01*
X17840952Y15250000D01*
X18031428Y15554762D02*
X18050476Y15611905D01*
X18069523Y15630953D01*
X18107619Y15650000D01*
X18164761Y15650000D01*
X18202857Y15630953D01*
X18221904Y15611905D01*
X18240952Y15573810D01*
X18240952Y15421429D01*
X17840952Y15421429D01*
X17840952Y15554762D01*
X17860000Y15592858D01*
X17879047Y15611905D01*
X17917142Y15630953D01*
X17955238Y15630953D01*
X17993333Y15611905D01*
X18012380Y15592858D01*
X18031428Y15554762D01*
X18031428Y15421429D01*
X17840952Y15821429D02*
X18164761Y15821429D01*
X18202857Y15840477D01*
X18221904Y15859524D01*
X18240952Y15897620D01*
X18240952Y15973810D01*
X18221904Y16011905D01*
X18202857Y16030953D01*
X18164761Y16050000D01*
X17840952Y16050000D01*
X17860000Y16450000D02*
X17840952Y16411905D01*
X17840952Y16354762D01*
X17860000Y16297620D01*
X17898095Y16259524D01*
X17936190Y16240477D01*
X18012380Y16221429D01*
X18069523Y16221429D01*
X18145714Y16240477D01*
X18183809Y16259524D01*
X18221904Y16297620D01*
X18240952Y16354762D01*
X18240952Y16392858D01*
X18221904Y16450000D01*
X18202857Y16469048D01*
X18069523Y16469048D01*
X18069523Y16392858D01*
X18279047Y16545239D02*
X18279047Y16850000D01*
X18240952Y17135715D02*
X18240952Y16945239D01*
X17840952Y16945239D01*
X18031428Y17269048D02*
X18031428Y17402381D01*
X18240952Y17459524D02*
X18240952Y17269048D01*
X17840952Y17269048D01*
X17840952Y17459524D01*
X18240952Y17630953D02*
X17840952Y17630953D01*
X17840952Y17726191D01*
X17860000Y17783334D01*
X17898095Y17821429D01*
X17936190Y17840477D01*
X18012380Y17859524D01*
X18069523Y17859524D01*
X18145714Y17840477D01*
X18183809Y17821429D01*
X18221904Y17783334D01*
X18240952Y17726191D01*
X18240952Y17630953D01*
X17210952Y15754762D02*
X16810952Y15754762D01*
X16810952Y15850000D01*
X16830000Y15907143D01*
X16868095Y15945239D01*
X16906190Y15964286D01*
X16982380Y15983334D01*
X17039523Y15983334D01*
X17115714Y15964286D01*
X17153809Y15945239D01*
X17191904Y15907143D01*
X17210952Y15850000D01*
X17210952Y15754762D01*
X17210952Y16364286D02*
X17210952Y16135715D01*
X17210952Y16250000D02*
X16810952Y16250000D01*
X16868095Y16211905D01*
X16906190Y16173810D01*
X16925238Y16135715D01*
X9049047Y11034286D02*
X9030000Y11053334D01*
X9010952Y11091429D01*
X9010952Y11186667D01*
X9030000Y11224762D01*
X9049047Y11243810D01*
X9087142Y11262858D01*
X9125238Y11262858D01*
X9182380Y11243810D01*
X9410952Y11015239D01*
X9410952Y11262858D01*
X9010952Y11396191D02*
X9010952Y11662858D01*
X9410952Y11491429D01*
X9144285Y11815239D02*
X9544285Y11815239D01*
X9163333Y11815239D02*
X9144285Y11853334D01*
X9144285Y11929524D01*
X9163333Y11967620D01*
X9182380Y11986667D01*
X9220476Y12005715D01*
X9334761Y12005715D01*
X9372857Y11986667D01*
X9391904Y11967620D01*
X9410952Y11929524D01*
X9410952Y11853334D01*
X9391904Y11815239D01*
X10122857Y9862858D02*
X10141904Y9843810D01*
X10160952Y9786667D01*
X10160952Y9748572D01*
X10141904Y9691429D01*
X10103809Y9653334D01*
X10065714Y9634286D01*
X9989523Y9615239D01*
X9932380Y9615239D01*
X9856190Y9634286D01*
X9818095Y9653334D01*
X9780000Y9691429D01*
X9760952Y9748572D01*
X9760952Y9786667D01*
X9780000Y9843810D01*
X9799047Y9862858D01*
X10160952Y10243810D02*
X10160952Y10015239D01*
X10160952Y10129524D02*
X9760952Y10129524D01*
X9818095Y10091429D01*
X9856190Y10053334D01*
X9875238Y10015239D01*
X9932380Y10472381D02*
X9913333Y10434286D01*
X9894285Y10415239D01*
X9856190Y10396191D01*
X9837142Y10396191D01*
X9799047Y10415239D01*
X9780000Y10434286D01*
X9760952Y10472381D01*
X9760952Y10548572D01*
X9780000Y10586667D01*
X9799047Y10605715D01*
X9837142Y10624762D01*
X9856190Y10624762D01*
X9894285Y10605715D01*
X9913333Y10586667D01*
X9932380Y10548572D01*
X9932380Y10472381D01*
X9951428Y10434286D01*
X9970476Y10415239D01*
X10008571Y10396191D01*
X10084761Y10396191D01*
X10122857Y10415239D01*
X10141904Y10434286D01*
X10160952Y10472381D01*
X10160952Y10548572D01*
X10141904Y10586667D01*
X10122857Y10605715D01*
X10084761Y10624762D01*
X10008571Y10624762D01*
X9970476Y10605715D01*
X9951428Y10586667D01*
X9932380Y10548572D01*
X6870952Y27162381D02*
X6870952Y26933810D01*
X6870952Y27048096D02*
X6470952Y27048096D01*
X6528095Y27010000D01*
X6566190Y26971905D01*
X6585238Y26933810D01*
X6470952Y27410000D02*
X6470952Y27448096D01*
X6490000Y27486191D01*
X6509047Y27505239D01*
X6547142Y27524286D01*
X6623333Y27543334D01*
X6718571Y27543334D01*
X6794761Y27524286D01*
X6832857Y27505239D01*
X6851904Y27486191D01*
X6870952Y27448096D01*
X6870952Y27410000D01*
X6851904Y27371905D01*
X6832857Y27352858D01*
X6794761Y27333810D01*
X6718571Y27314762D01*
X6623333Y27314762D01*
X6547142Y27333810D01*
X6509047Y27352858D01*
X6490000Y27371905D01*
X6470952Y27410000D01*
X6470952Y27790953D02*
X6470952Y27829048D01*
X6490000Y27867143D01*
X6509047Y27886191D01*
X6547142Y27905239D01*
X6623333Y27924286D01*
X6718571Y27924286D01*
X6794761Y27905239D01*
X6832857Y27886191D01*
X6851904Y27867143D01*
X6870952Y27829048D01*
X6870952Y27790953D01*
X6851904Y27752858D01*
X6832857Y27733810D01*
X6794761Y27714762D01*
X6718571Y27695715D01*
X6623333Y27695715D01*
X6547142Y27714762D01*
X6509047Y27733810D01*
X6490000Y27752858D01*
X6470952Y27790953D01*
X6604285Y28095715D02*
X6870952Y28095715D01*
X6642380Y28095715D02*
X6623333Y28114762D01*
X6604285Y28152858D01*
X6604285Y28210000D01*
X6623333Y28248096D01*
X6661428Y28267143D01*
X6870952Y28267143D01*
X5372857Y27262858D02*
X5391904Y27243810D01*
X5410952Y27186667D01*
X5410952Y27148572D01*
X5391904Y27091429D01*
X5353809Y27053334D01*
X5315714Y27034286D01*
X5239523Y27015239D01*
X5182380Y27015239D01*
X5106190Y27034286D01*
X5068095Y27053334D01*
X5030000Y27091429D01*
X5010952Y27148572D01*
X5010952Y27186667D01*
X5030000Y27243810D01*
X5049047Y27262858D01*
X5410952Y27643810D02*
X5410952Y27415239D01*
X5410952Y27529524D02*
X5010952Y27529524D01*
X5068095Y27491429D01*
X5106190Y27453334D01*
X5125238Y27415239D01*
X5410952Y28024762D02*
X5410952Y27796191D01*
X5410952Y27910477D02*
X5010952Y27910477D01*
X5068095Y27872381D01*
X5106190Y27834286D01*
X5125238Y27796191D01*
X14556666Y8789048D02*
X14556666Y8465239D01*
X14575714Y8427143D01*
X14594761Y8408096D01*
X14632857Y8389048D01*
X14709047Y8389048D01*
X14747142Y8408096D01*
X14766190Y8427143D01*
X14785238Y8465239D01*
X14785238Y8789048D01*
X14956666Y8408096D02*
X15013809Y8389048D01*
X15109047Y8389048D01*
X15147142Y8408096D01*
X15166190Y8427143D01*
X15185238Y8465239D01*
X15185238Y8503334D01*
X15166190Y8541429D01*
X15147142Y8560477D01*
X15109047Y8579524D01*
X15032857Y8598572D01*
X14994761Y8617620D01*
X14975714Y8636667D01*
X14956666Y8674762D01*
X14956666Y8712858D01*
X14975714Y8750953D01*
X14994761Y8770000D01*
X15032857Y8789048D01*
X15128095Y8789048D01*
X15185238Y8770000D01*
X15490000Y8598572D02*
X15547142Y8579524D01*
X15566190Y8560477D01*
X15585238Y8522381D01*
X15585238Y8465239D01*
X15566190Y8427143D01*
X15547142Y8408096D01*
X15509047Y8389048D01*
X15356666Y8389048D01*
X15356666Y8789048D01*
X15490000Y8789048D01*
X15528095Y8770000D01*
X15547142Y8750953D01*
X15566190Y8712858D01*
X15566190Y8674762D01*
X15547142Y8636667D01*
X15528095Y8617620D01*
X15490000Y8598572D01*
X15356666Y8598572D01*
X16194761Y8598572D02*
X16251904Y8579524D01*
X16270952Y8560477D01*
X16290000Y8522381D01*
X16290000Y8465239D01*
X16270952Y8427143D01*
X16251904Y8408096D01*
X16213809Y8389048D01*
X16061428Y8389048D01*
X16061428Y8789048D01*
X16194761Y8789048D01*
X16232857Y8770000D01*
X16251904Y8750953D01*
X16270952Y8712858D01*
X16270952Y8674762D01*
X16251904Y8636667D01*
X16232857Y8617620D01*
X16194761Y8598572D01*
X16061428Y8598572D01*
X16518571Y8389048D02*
X16480476Y8408096D01*
X16461428Y8427143D01*
X16442380Y8465239D01*
X16442380Y8579524D01*
X16461428Y8617620D01*
X16480476Y8636667D01*
X16518571Y8655715D01*
X16575714Y8655715D01*
X16613809Y8636667D01*
X16632857Y8617620D01*
X16651904Y8579524D01*
X16651904Y8465239D01*
X16632857Y8427143D01*
X16613809Y8408096D01*
X16575714Y8389048D01*
X16518571Y8389048D01*
X16880476Y8389048D02*
X16842380Y8408096D01*
X16823333Y8427143D01*
X16804285Y8465239D01*
X16804285Y8579524D01*
X16823333Y8617620D01*
X16842380Y8636667D01*
X16880476Y8655715D01*
X16937619Y8655715D01*
X16975714Y8636667D01*
X16994761Y8617620D01*
X17013809Y8579524D01*
X17013809Y8465239D01*
X16994761Y8427143D01*
X16975714Y8408096D01*
X16937619Y8389048D01*
X16880476Y8389048D01*
X17128095Y8655715D02*
X17280476Y8655715D01*
X17185238Y8789048D02*
X17185238Y8446191D01*
X17204285Y8408096D01*
X17242380Y8389048D01*
X17280476Y8389048D01*
X15856666Y9719048D02*
X15856666Y9433334D01*
X15837619Y9376191D01*
X15799523Y9338096D01*
X15742380Y9319048D01*
X15704285Y9319048D01*
X16218571Y9585715D02*
X16218571Y9319048D01*
X16123333Y9738096D02*
X16028095Y9452381D01*
X16275714Y9452381D01*
X18193809Y39789048D02*
X18327142Y39389048D01*
X18460476Y39789048D01*
X18822380Y39389048D02*
X18689047Y39579524D01*
X18593809Y39389048D02*
X18593809Y39789048D01*
X18746190Y39789048D01*
X18784285Y39770000D01*
X18803333Y39750953D01*
X18822380Y39712858D01*
X18822380Y39655715D01*
X18803333Y39617620D01*
X18784285Y39598572D01*
X18746190Y39579524D01*
X18593809Y39579524D01*
X19203333Y39389048D02*
X18974761Y39389048D01*
X19089047Y39389048D02*
X19089047Y39789048D01*
X19050952Y39731905D01*
X19012857Y39693810D01*
X18974761Y39674762D01*
X19279523Y39350953D02*
X19584285Y39350953D01*
X19812857Y39598572D02*
X19870000Y39579524D01*
X19889047Y39560477D01*
X19908095Y39522381D01*
X19908095Y39465239D01*
X19889047Y39427143D01*
X19870000Y39408096D01*
X19831904Y39389048D01*
X19679523Y39389048D01*
X19679523Y39789048D01*
X19812857Y39789048D01*
X19850952Y39770000D01*
X19870000Y39750953D01*
X19889047Y39712858D01*
X19889047Y39674762D01*
X19870000Y39636667D01*
X19850952Y39617620D01*
X19812857Y39598572D01*
X19679523Y39598572D01*
X20079523Y39389048D02*
X20079523Y39789048D01*
X20231904Y39789048D01*
X20270000Y39770000D01*
X20289047Y39750953D01*
X20308095Y39712858D01*
X20308095Y39655715D01*
X20289047Y39617620D01*
X20270000Y39598572D01*
X20231904Y39579524D01*
X20079523Y39579524D01*
X16836666Y39819048D02*
X16836666Y39533334D01*
X16817619Y39476191D01*
X16779523Y39438096D01*
X16722380Y39419048D01*
X16684285Y39419048D01*
X17027142Y39419048D02*
X17027142Y39819048D01*
X17179523Y39819048D01*
X17217619Y39800000D01*
X17236666Y39780953D01*
X17255714Y39742858D01*
X17255714Y39685715D01*
X17236666Y39647620D01*
X17217619Y39628572D01*
X17179523Y39609524D01*
X17027142Y39609524D01*
X17389047Y39819048D02*
X17636666Y39819048D01*
X17503333Y39666667D01*
X17560476Y39666667D01*
X17598571Y39647620D01*
X17617619Y39628572D01*
X17636666Y39590477D01*
X17636666Y39495239D01*
X17617619Y39457143D01*
X17598571Y39438096D01*
X17560476Y39419048D01*
X17446190Y39419048D01*
X17408095Y39438096D01*
X17389047Y39457143D01*
X13500952Y40192858D02*
X13500952Y39964286D01*
X13500952Y40078572D02*
X13100952Y40078572D01*
X13158095Y40040477D01*
X13196190Y40002381D01*
X13215238Y39964286D01*
X13100952Y40440477D02*
X13100952Y40478572D01*
X13120000Y40516667D01*
X13139047Y40535715D01*
X13177142Y40554762D01*
X13253333Y40573810D01*
X13348571Y40573810D01*
X13424761Y40554762D01*
X13462857Y40535715D01*
X13481904Y40516667D01*
X13500952Y40478572D01*
X13500952Y40440477D01*
X13481904Y40402381D01*
X13462857Y40383334D01*
X13424761Y40364286D01*
X13348571Y40345239D01*
X13253333Y40345239D01*
X13177142Y40364286D01*
X13139047Y40383334D01*
X13120000Y40402381D01*
X13100952Y40440477D01*
X13234285Y40916667D02*
X13500952Y40916667D01*
X13234285Y40745239D02*
X13443809Y40745239D01*
X13481904Y40764286D01*
X13500952Y40802381D01*
X13500952Y40859524D01*
X13481904Y40897620D01*
X13462857Y40916667D01*
X14232857Y40232858D02*
X14251904Y40213810D01*
X14270952Y40156667D01*
X14270952Y40118572D01*
X14251904Y40061429D01*
X14213809Y40023334D01*
X14175714Y40004286D01*
X14099523Y39985239D01*
X14042380Y39985239D01*
X13966190Y40004286D01*
X13928095Y40023334D01*
X13890000Y40061429D01*
X13870952Y40118572D01*
X13870952Y40156667D01*
X13890000Y40213810D01*
X13909047Y40232858D01*
X14270952Y40613810D02*
X14270952Y40385239D01*
X14270952Y40499524D02*
X13870952Y40499524D01*
X13928095Y40461429D01*
X13966190Y40423334D01*
X13985238Y40385239D01*
X14004285Y40956667D02*
X14270952Y40956667D01*
X13851904Y40861429D02*
X14137619Y40766191D01*
X14137619Y41013810D01*
X4820952Y21032381D02*
X4820952Y20803810D01*
X4820952Y20918096D02*
X4420952Y20918096D01*
X4478095Y20880000D01*
X4516190Y20841905D01*
X4535238Y20803810D01*
X4420952Y21280000D02*
X4420952Y21318096D01*
X4440000Y21356191D01*
X4459047Y21375239D01*
X4497142Y21394286D01*
X4573333Y21413334D01*
X4668571Y21413334D01*
X4744761Y21394286D01*
X4782857Y21375239D01*
X4801904Y21356191D01*
X4820952Y21318096D01*
X4820952Y21280000D01*
X4801904Y21241905D01*
X4782857Y21222858D01*
X4744761Y21203810D01*
X4668571Y21184762D01*
X4573333Y21184762D01*
X4497142Y21203810D01*
X4459047Y21222858D01*
X4440000Y21241905D01*
X4420952Y21280000D01*
X4420952Y21660953D02*
X4420952Y21699048D01*
X4440000Y21737143D01*
X4459047Y21756191D01*
X4497142Y21775239D01*
X4573333Y21794286D01*
X4668571Y21794286D01*
X4744761Y21775239D01*
X4782857Y21756191D01*
X4801904Y21737143D01*
X4820952Y21699048D01*
X4820952Y21660953D01*
X4801904Y21622858D01*
X4782857Y21603810D01*
X4744761Y21584762D01*
X4668571Y21565715D01*
X4573333Y21565715D01*
X4497142Y21584762D01*
X4459047Y21603810D01*
X4440000Y21622858D01*
X4420952Y21660953D01*
X4554285Y21965715D02*
X4820952Y21965715D01*
X4592380Y21965715D02*
X4573333Y21984762D01*
X4554285Y22022858D01*
X4554285Y22080000D01*
X4573333Y22118096D01*
X4611428Y22137143D01*
X4820952Y22137143D01*
X5942857Y21413334D02*
X5961904Y21394286D01*
X5980952Y21337143D01*
X5980952Y21299048D01*
X5961904Y21241905D01*
X5923809Y21203810D01*
X5885714Y21184762D01*
X5809523Y21165715D01*
X5752380Y21165715D01*
X5676190Y21184762D01*
X5638095Y21203810D01*
X5600000Y21241905D01*
X5580952Y21299048D01*
X5580952Y21337143D01*
X5600000Y21394286D01*
X5619047Y21413334D01*
X5580952Y21775239D02*
X5580952Y21584762D01*
X5771428Y21565715D01*
X5752380Y21584762D01*
X5733333Y21622858D01*
X5733333Y21718096D01*
X5752380Y21756191D01*
X5771428Y21775239D01*
X5809523Y21794286D01*
X5904761Y21794286D01*
X5942857Y21775239D01*
X5961904Y21756191D01*
X5980952Y21718096D01*
X5980952Y21622858D01*
X5961904Y21584762D01*
X5942857Y21565715D01*
X15515952Y29322381D02*
X15515952Y29093810D01*
X15515952Y29208096D02*
X15115952Y29208096D01*
X15173095Y29170000D01*
X15211190Y29131905D01*
X15230238Y29093810D01*
X15115952Y29570000D02*
X15115952Y29608096D01*
X15135000Y29646191D01*
X15154047Y29665239D01*
X15192142Y29684286D01*
X15268333Y29703334D01*
X15363571Y29703334D01*
X15439761Y29684286D01*
X15477857Y29665239D01*
X15496904Y29646191D01*
X15515952Y29608096D01*
X15515952Y29570000D01*
X15496904Y29531905D01*
X15477857Y29512858D01*
X15439761Y29493810D01*
X15363571Y29474762D01*
X15268333Y29474762D01*
X15192142Y29493810D01*
X15154047Y29512858D01*
X15135000Y29531905D01*
X15115952Y29570000D01*
X15115952Y29950953D02*
X15115952Y29989048D01*
X15135000Y30027143D01*
X15154047Y30046191D01*
X15192142Y30065239D01*
X15268333Y30084286D01*
X15363571Y30084286D01*
X15439761Y30065239D01*
X15477857Y30046191D01*
X15496904Y30027143D01*
X15515952Y29989048D01*
X15515952Y29950953D01*
X15496904Y29912858D01*
X15477857Y29893810D01*
X15439761Y29874762D01*
X15363571Y29855715D01*
X15268333Y29855715D01*
X15192142Y29874762D01*
X15154047Y29893810D01*
X15135000Y29912858D01*
X15115952Y29950953D01*
X15249285Y30255715D02*
X15515952Y30255715D01*
X15287380Y30255715D02*
X15268333Y30274762D01*
X15249285Y30312858D01*
X15249285Y30370000D01*
X15268333Y30408096D01*
X15306428Y30427143D01*
X15515952Y30427143D01*
X14752857Y28172858D02*
X14771904Y28153810D01*
X14790952Y28096667D01*
X14790952Y28058572D01*
X14771904Y28001429D01*
X14733809Y27963334D01*
X14695714Y27944286D01*
X14619523Y27925239D01*
X14562380Y27925239D01*
X14486190Y27944286D01*
X14448095Y27963334D01*
X14410000Y28001429D01*
X14390952Y28058572D01*
X14390952Y28096667D01*
X14410000Y28153810D01*
X14429047Y28172858D01*
X14790952Y28553810D02*
X14790952Y28325239D01*
X14790952Y28439524D02*
X14390952Y28439524D01*
X14448095Y28401429D01*
X14486190Y28363334D01*
X14505238Y28325239D01*
X14390952Y28801429D02*
X14390952Y28839524D01*
X14410000Y28877620D01*
X14429047Y28896667D01*
X14467142Y28915715D01*
X14543333Y28934762D01*
X14638571Y28934762D01*
X14714761Y28915715D01*
X14752857Y28896667D01*
X14771904Y28877620D01*
X14790952Y28839524D01*
X14790952Y28801429D01*
X14771904Y28763334D01*
X14752857Y28744286D01*
X14714761Y28725239D01*
X14638571Y28706191D01*
X14543333Y28706191D01*
X14467142Y28725239D01*
X14429047Y28744286D01*
X14410000Y28763334D01*
X14390952Y28801429D01*
X7953333Y12119048D02*
X7724761Y12119048D01*
X7839047Y12119048D02*
X7839047Y12519048D01*
X7800952Y12461905D01*
X7762857Y12423810D01*
X7724761Y12404762D01*
X8296190Y12385715D02*
X8296190Y12119048D01*
X8124761Y12385715D02*
X8124761Y12176191D01*
X8143809Y12138096D01*
X8181904Y12119048D01*
X8239047Y12119048D01*
X8277142Y12138096D01*
X8296190Y12157143D01*
X5352857Y12197143D02*
X5333809Y12178096D01*
X5276666Y12159048D01*
X5238571Y12159048D01*
X5181428Y12178096D01*
X5143333Y12216191D01*
X5124285Y12254286D01*
X5105238Y12330477D01*
X5105238Y12387620D01*
X5124285Y12463810D01*
X5143333Y12501905D01*
X5181428Y12540000D01*
X5238571Y12559048D01*
X5276666Y12559048D01*
X5333809Y12540000D01*
X5352857Y12520953D01*
X5733809Y12159048D02*
X5505238Y12159048D01*
X5619523Y12159048D02*
X5619523Y12559048D01*
X5581428Y12501905D01*
X5543333Y12463810D01*
X5505238Y12444762D01*
X6076666Y12559048D02*
X6000476Y12559048D01*
X5962380Y12540000D01*
X5943333Y12520953D01*
X5905238Y12463810D01*
X5886190Y12387620D01*
X5886190Y12235239D01*
X5905238Y12197143D01*
X5924285Y12178096D01*
X5962380Y12159048D01*
X6038571Y12159048D01*
X6076666Y12178096D01*
X6095714Y12197143D01*
X6114761Y12235239D01*
X6114761Y12330477D01*
X6095714Y12368572D01*
X6076666Y12387620D01*
X6038571Y12406667D01*
X5962380Y12406667D01*
X5924285Y12387620D01*
X5905238Y12368572D01*
X5886190Y12330477D01*
X8852380Y32079048D02*
X8623809Y32079048D01*
X8738095Y32079048D02*
X8738095Y32479048D01*
X8700000Y32421905D01*
X8661904Y32383810D01*
X8623809Y32364762D01*
X9023809Y32079048D02*
X9023809Y32479048D01*
X9061904Y32231429D02*
X9176190Y32079048D01*
X9176190Y32345715D02*
X9023809Y32193334D01*
X9933333Y31479048D02*
X9800000Y31669524D01*
X9704761Y31479048D02*
X9704761Y31879048D01*
X9857142Y31879048D01*
X9895238Y31860000D01*
X9914285Y31840953D01*
X9933333Y31802858D01*
X9933333Y31745715D01*
X9914285Y31707620D01*
X9895238Y31688572D01*
X9857142Y31669524D01*
X9704761Y31669524D01*
X10085714Y31840953D02*
X10104761Y31860000D01*
X10142857Y31879048D01*
X10238095Y31879048D01*
X10276190Y31860000D01*
X10295238Y31840953D01*
X10314285Y31802858D01*
X10314285Y31764762D01*
X10295238Y31707620D01*
X10066666Y31479048D01*
X10314285Y31479048D01*
X17465238Y10915715D02*
X17465238Y10649048D01*
X17370000Y11068096D02*
X17274761Y10782381D01*
X17522380Y10782381D01*
X17636666Y11049048D02*
X17903333Y11049048D01*
X17731904Y10649048D01*
X18131904Y11049048D02*
X18170000Y11049048D01*
X18208095Y11030000D01*
X18227142Y11010953D01*
X18246190Y10972858D01*
X18265238Y10896667D01*
X18265238Y10801429D01*
X18246190Y10725239D01*
X18227142Y10687143D01*
X18208095Y10668096D01*
X18170000Y10649048D01*
X18131904Y10649048D01*
X18093809Y10668096D01*
X18074761Y10687143D01*
X18055714Y10725239D01*
X18036666Y10801429D01*
X18036666Y10896667D01*
X18055714Y10972858D01*
X18074761Y11010953D01*
X18093809Y11030000D01*
X18131904Y11049048D01*
X18665238Y10649048D02*
X18531904Y10839524D01*
X18436666Y10649048D02*
X18436666Y11049048D01*
X18589047Y11049048D01*
X18627142Y11030000D01*
X18646190Y11010953D01*
X18665238Y10972858D01*
X18665238Y10915715D01*
X18646190Y10877620D01*
X18627142Y10858572D01*
X18589047Y10839524D01*
X18436666Y10839524D01*
X15303333Y10679048D02*
X15170000Y10869524D01*
X15074761Y10679048D02*
X15074761Y11079048D01*
X15227142Y11079048D01*
X15265238Y11060000D01*
X15284285Y11040953D01*
X15303333Y11002858D01*
X15303333Y10945715D01*
X15284285Y10907620D01*
X15265238Y10888572D01*
X15227142Y10869524D01*
X15074761Y10869524D01*
X15646190Y10945715D02*
X15646190Y10679048D01*
X15550952Y11098096D02*
X15455714Y10812381D01*
X15703333Y10812381D01*
X15385714Y509048D02*
X15385714Y909048D01*
X15519047Y623334D01*
X15652380Y909048D01*
X15652380Y509048D01*
X15900000Y509048D02*
X15861904Y528096D01*
X15842857Y547143D01*
X15823809Y585239D01*
X15823809Y699524D01*
X15842857Y737620D01*
X15861904Y756667D01*
X15900000Y775715D01*
X15957142Y775715D01*
X15995238Y756667D01*
X16014285Y737620D01*
X16033333Y699524D01*
X16033333Y585239D01*
X16014285Y547143D01*
X15995238Y528096D01*
X15957142Y509048D01*
X15900000Y509048D01*
X16376190Y775715D02*
X16376190Y509048D01*
X16204761Y775715D02*
X16204761Y566191D01*
X16223809Y528096D01*
X16261904Y509048D01*
X16319047Y509048D01*
X16357142Y528096D01*
X16376190Y547143D01*
X16566666Y775715D02*
X16566666Y509048D01*
X16566666Y737620D02*
X16585714Y756667D01*
X16623809Y775715D01*
X16680952Y775715D01*
X16719047Y756667D01*
X16738095Y718572D01*
X16738095Y509048D01*
X16871428Y775715D02*
X17023809Y775715D01*
X16928571Y909048D02*
X16928571Y566191D01*
X16947619Y528096D01*
X16985714Y509048D01*
X17023809Y509048D01*
X17157142Y509048D02*
X17157142Y775715D01*
X17157142Y909048D02*
X17138095Y890000D01*
X17157142Y870953D01*
X17176190Y890000D01*
X17157142Y909048D01*
X17157142Y870953D01*
X17347619Y775715D02*
X17347619Y509048D01*
X17347619Y737620D02*
X17366666Y756667D01*
X17404761Y775715D01*
X17461904Y775715D01*
X17500000Y756667D01*
X17519047Y718572D01*
X17519047Y509048D01*
X17880952Y775715D02*
X17880952Y451905D01*
X17861904Y413810D01*
X17842857Y394762D01*
X17804761Y375715D01*
X17747619Y375715D01*
X17709523Y394762D01*
X17880952Y528096D02*
X17842857Y509048D01*
X17766666Y509048D01*
X17728571Y528096D01*
X17709523Y547143D01*
X17690476Y585239D01*
X17690476Y699524D01*
X17709523Y737620D01*
X17728571Y756667D01*
X17766666Y775715D01*
X17842857Y775715D01*
X17880952Y756667D01*
X18071428Y509048D02*
X18071428Y909048D01*
X18071428Y718572D02*
X18300000Y718572D01*
X18300000Y509048D02*
X18300000Y909048D01*
X18547619Y509048D02*
X18509523Y528096D01*
X18490476Y547143D01*
X18471428Y585239D01*
X18471428Y699524D01*
X18490476Y737620D01*
X18509523Y756667D01*
X18547619Y775715D01*
X18604761Y775715D01*
X18642857Y756667D01*
X18661904Y737620D01*
X18680952Y699524D01*
X18680952Y585239D01*
X18661904Y547143D01*
X18642857Y528096D01*
X18604761Y509048D01*
X18547619Y509048D01*
X18909523Y509048D02*
X18871428Y528096D01*
X18852380Y566191D01*
X18852380Y909048D01*
X19214285Y528096D02*
X19176190Y509048D01*
X19100000Y509048D01*
X19061904Y528096D01*
X19042857Y566191D01*
X19042857Y718572D01*
X19061904Y756667D01*
X19100000Y775715D01*
X19176190Y775715D01*
X19214285Y756667D01*
X19233333Y718572D01*
X19233333Y680477D01*
X19042857Y642381D01*
X16995238Y1309048D02*
X16995238Y1709048D01*
X16995238Y1518572D02*
X17223809Y1518572D01*
X17223809Y1309048D02*
X17223809Y1709048D01*
X17376190Y1709048D02*
X17623809Y1709048D01*
X17490476Y1556667D01*
X17547619Y1556667D01*
X17585714Y1537620D01*
X17604761Y1518572D01*
X17623809Y1480477D01*
X17623809Y1385239D01*
X17604761Y1347143D01*
X17585714Y1328096D01*
X17547619Y1309048D01*
X17433333Y1309048D01*
X17395238Y1328096D01*
X17376190Y1347143D01*
X9430952Y17372381D02*
X9430952Y17143810D01*
X9430952Y17258096D02*
X9030952Y17258096D01*
X9088095Y17220000D01*
X9126190Y17181905D01*
X9145238Y17143810D01*
X9430952Y17543810D02*
X9030952Y17543810D01*
X9278571Y17581905D02*
X9430952Y17696191D01*
X9164285Y17696191D02*
X9316666Y17543810D01*
X10200952Y16253334D02*
X10010476Y16120000D01*
X10200952Y16024762D02*
X9800952Y16024762D01*
X9800952Y16177143D01*
X9820000Y16215239D01*
X9839047Y16234286D01*
X9877142Y16253334D01*
X9934285Y16253334D01*
X9972380Y16234286D01*
X9991428Y16215239D01*
X10010476Y16177143D01*
X10010476Y16024762D01*
X9800952Y16386667D02*
X9800952Y16634286D01*
X9953333Y16500953D01*
X9953333Y16558096D01*
X9972380Y16596191D01*
X9991428Y16615239D01*
X10029523Y16634286D01*
X10124761Y16634286D01*
X10162857Y16615239D01*
X10181904Y16596191D01*
X10200952Y16558096D01*
X10200952Y16443810D01*
X10181904Y16405715D01*
X10162857Y16386667D01*
X17332380Y26689048D02*
X17103809Y26689048D01*
X17218095Y26689048D02*
X17218095Y27089048D01*
X17180000Y27031905D01*
X17141904Y26993810D01*
X17103809Y26974762D01*
X17580000Y27089048D02*
X17618095Y27089048D01*
X17656190Y27070000D01*
X17675238Y27050953D01*
X17694285Y27012858D01*
X17713333Y26936667D01*
X17713333Y26841429D01*
X17694285Y26765239D01*
X17675238Y26727143D01*
X17656190Y26708096D01*
X17618095Y26689048D01*
X17580000Y26689048D01*
X17541904Y26708096D01*
X17522857Y26727143D01*
X17503809Y26765239D01*
X17484761Y26841429D01*
X17484761Y26936667D01*
X17503809Y27012858D01*
X17522857Y27050953D01*
X17541904Y27070000D01*
X17580000Y27089048D01*
X17960952Y27089048D02*
X17999047Y27089048D01*
X18037142Y27070000D01*
X18056190Y27050953D01*
X18075238Y27012858D01*
X18094285Y26936667D01*
X18094285Y26841429D01*
X18075238Y26765239D01*
X18056190Y26727143D01*
X18037142Y26708096D01*
X17999047Y26689048D01*
X17960952Y26689048D01*
X17922857Y26708096D01*
X17903809Y26727143D01*
X17884761Y26765239D01*
X17865714Y26841429D01*
X17865714Y26936667D01*
X17884761Y27012858D01*
X17903809Y27050953D01*
X17922857Y27070000D01*
X17960952Y27089048D01*
X18265714Y26955715D02*
X18265714Y26689048D01*
X18265714Y26917620D02*
X18284761Y26936667D01*
X18322857Y26955715D01*
X18380000Y26955715D01*
X18418095Y26936667D01*
X18437142Y26898572D01*
X18437142Y26689048D01*
X15213333Y26687143D02*
X15194285Y26668096D01*
X15137142Y26649048D01*
X15099047Y26649048D01*
X15041904Y26668096D01*
X15003809Y26706191D01*
X14984761Y26744286D01*
X14965714Y26820477D01*
X14965714Y26877620D01*
X14984761Y26953810D01*
X15003809Y26991905D01*
X15041904Y27030000D01*
X15099047Y27049048D01*
X15137142Y27049048D01*
X15194285Y27030000D01*
X15213333Y27010953D01*
X15403809Y26649048D02*
X15480000Y26649048D01*
X15518095Y26668096D01*
X15537142Y26687143D01*
X15575238Y26744286D01*
X15594285Y26820477D01*
X15594285Y26972858D01*
X15575238Y27010953D01*
X15556190Y27030000D01*
X15518095Y27049048D01*
X15441904Y27049048D01*
X15403809Y27030000D01*
X15384761Y27010953D01*
X15365714Y26972858D01*
X15365714Y26877620D01*
X15384761Y26839524D01*
X15403809Y26820477D01*
X15441904Y26801429D01*
X15518095Y26801429D01*
X15556190Y26820477D01*
X15575238Y26839524D01*
X15594285Y26877620D01*
X13716666Y11290477D02*
X13716666Y11480953D01*
X13830952Y11252381D02*
X13430952Y11385715D01*
X13830952Y11519048D01*
X13621428Y11785715D02*
X13640476Y11842858D01*
X13659523Y11861905D01*
X13697619Y11880953D01*
X13754761Y11880953D01*
X13792857Y11861905D01*
X13811904Y11842858D01*
X13830952Y11804762D01*
X13830952Y11652381D01*
X13430952Y11652381D01*
X13430952Y11785715D01*
X13450000Y11823810D01*
X13469047Y11842858D01*
X13507142Y11861905D01*
X13545238Y11861905D01*
X13583333Y11842858D01*
X13602380Y11823810D01*
X13621428Y11785715D01*
X13621428Y11652381D01*
X13830952Y12242858D02*
X13830952Y12052381D01*
X13430952Y12052381D01*
X13811904Y12357143D02*
X13830952Y12414286D01*
X13830952Y12509524D01*
X13811904Y12547620D01*
X13792857Y12566667D01*
X13754761Y12585715D01*
X13716666Y12585715D01*
X13678571Y12566667D01*
X13659523Y12547620D01*
X13640476Y12509524D01*
X13621428Y12433334D01*
X13602380Y12395239D01*
X13583333Y12376191D01*
X13545238Y12357143D01*
X13507142Y12357143D01*
X13469047Y12376191D01*
X13450000Y12395239D01*
X13430952Y12433334D01*
X13430952Y12528572D01*
X13450000Y12585715D01*
X13678571Y12757143D02*
X13678571Y13061905D01*
X13830952Y13461905D02*
X13830952Y13233334D01*
X13830952Y13347620D02*
X13430952Y13347620D01*
X13488095Y13309524D01*
X13526190Y13271429D01*
X13545238Y13233334D01*
X13469047Y13614286D02*
X13450000Y13633334D01*
X13430952Y13671429D01*
X13430952Y13766667D01*
X13450000Y13804762D01*
X13469047Y13823810D01*
X13507142Y13842858D01*
X13545238Y13842858D01*
X13602380Y13823810D01*
X13830952Y13595239D01*
X13830952Y13842858D01*
X13792857Y14014286D02*
X13811904Y14033334D01*
X13830952Y14014286D01*
X13811904Y13995239D01*
X13792857Y14014286D01*
X13830952Y14014286D01*
X13430952Y14280953D02*
X13430952Y14319048D01*
X13450000Y14357143D01*
X13469047Y14376191D01*
X13507142Y14395239D01*
X13583333Y14414286D01*
X13678571Y14414286D01*
X13754761Y14395239D01*
X13792857Y14376191D01*
X13811904Y14357143D01*
X13830952Y14319048D01*
X13830952Y14280953D01*
X13811904Y14242858D01*
X13792857Y14223810D01*
X13754761Y14204762D01*
X13678571Y14185715D01*
X13583333Y14185715D01*
X13507142Y14204762D01*
X13469047Y14223810D01*
X13450000Y14242858D01*
X13430952Y14280953D01*
X13430952Y14661905D02*
X13430952Y14700000D01*
X13450000Y14738096D01*
X13469047Y14757143D01*
X13507142Y14776191D01*
X13583333Y14795239D01*
X13678571Y14795239D01*
X13754761Y14776191D01*
X13792857Y14757143D01*
X13811904Y14738096D01*
X13830952Y14700000D01*
X13830952Y14661905D01*
X13811904Y14623810D01*
X13792857Y14604762D01*
X13754761Y14585715D01*
X13678571Y14566667D01*
X13583333Y14566667D01*
X13507142Y14585715D01*
X13469047Y14604762D01*
X13450000Y14623810D01*
X13430952Y14661905D01*
X13430952Y15042858D02*
X13430952Y15080953D01*
X13450000Y15119048D01*
X13469047Y15138096D01*
X13507142Y15157143D01*
X13583333Y15176191D01*
X13678571Y15176191D01*
X13754761Y15157143D01*
X13792857Y15138096D01*
X13811904Y15119048D01*
X13830952Y15080953D01*
X13830952Y15042858D01*
X13811904Y15004762D01*
X13792857Y14985715D01*
X13754761Y14966667D01*
X13678571Y14947620D01*
X13583333Y14947620D01*
X13507142Y14966667D01*
X13469047Y14985715D01*
X13450000Y15004762D01*
X13430952Y15042858D01*
X13830952Y15347620D02*
X13430952Y15347620D01*
X13716666Y15480953D01*
X13430952Y15614286D01*
X13830952Y15614286D01*
X13830952Y15804762D02*
X13430952Y15804762D01*
X13621428Y15804762D02*
X13621428Y16033334D01*
X13830952Y16033334D02*
X13430952Y16033334D01*
X13430952Y16185715D02*
X13430952Y16452381D01*
X13830952Y16185715D01*
X13830952Y16452381D01*
X13678571Y16604762D02*
X13678571Y16909524D01*
X13621428Y17233334D02*
X13640476Y17290477D01*
X13659523Y17309524D01*
X13697619Y17328572D01*
X13754761Y17328572D01*
X13792857Y17309524D01*
X13811904Y17290477D01*
X13830952Y17252381D01*
X13830952Y17100000D01*
X13430952Y17100000D01*
X13430952Y17233334D01*
X13450000Y17271429D01*
X13469047Y17290477D01*
X13507142Y17309524D01*
X13545238Y17309524D01*
X13583333Y17290477D01*
X13602380Y17271429D01*
X13621428Y17233334D01*
X13621428Y17100000D01*
X13564285Y17671429D02*
X13830952Y17671429D01*
X13411904Y17576191D02*
X13697619Y17480953D01*
X13697619Y17728572D01*
X13678571Y17880953D02*
X13678571Y18185715D01*
X13430952Y18319048D02*
X13430952Y18547620D01*
X13830952Y18433334D02*
X13430952Y18433334D01*
X11009523Y14409524D02*
X11009523Y14219048D01*
X10876190Y14619048D02*
X11009523Y14409524D01*
X11142857Y14619048D01*
X11485714Y14219048D02*
X11257142Y14219048D01*
X11371428Y14219048D02*
X11371428Y14619048D01*
X11333333Y14561905D01*
X11295238Y14523810D01*
X11257142Y14504762D01*
X10131904Y22579048D02*
X9998571Y22769524D01*
X9903333Y22579048D02*
X9903333Y22979048D01*
X10055714Y22979048D01*
X10093809Y22960000D01*
X10112857Y22940953D01*
X10131904Y22902858D01*
X10131904Y22845715D01*
X10112857Y22807620D01*
X10093809Y22788572D01*
X10055714Y22769524D01*
X9903333Y22769524D01*
X10303333Y22579048D02*
X10303333Y22979048D01*
X10455714Y22979048D01*
X10493809Y22960000D01*
X10512857Y22940953D01*
X10531904Y22902858D01*
X10531904Y22845715D01*
X10512857Y22807620D01*
X10493809Y22788572D01*
X10455714Y22769524D01*
X10303333Y22769524D01*
X10684285Y22940953D02*
X10703333Y22960000D01*
X10741428Y22979048D01*
X10836666Y22979048D01*
X10874761Y22960000D01*
X10893809Y22940953D01*
X10912857Y22902858D01*
X10912857Y22864762D01*
X10893809Y22807620D01*
X10665238Y22579048D01*
X10912857Y22579048D01*
X11160476Y22979048D02*
X11198571Y22979048D01*
X11236666Y22960000D01*
X11255714Y22940953D01*
X11274761Y22902858D01*
X11293809Y22826667D01*
X11293809Y22731429D01*
X11274761Y22655239D01*
X11255714Y22617143D01*
X11236666Y22598096D01*
X11198571Y22579048D01*
X11160476Y22579048D01*
X11122380Y22598096D01*
X11103333Y22617143D01*
X11084285Y22655239D01*
X11065238Y22731429D01*
X11065238Y22826667D01*
X11084285Y22902858D01*
X11103333Y22940953D01*
X11122380Y22960000D01*
X11160476Y22979048D01*
X11636666Y22845715D02*
X11636666Y22579048D01*
X11541428Y22998096D02*
X11446190Y22712381D01*
X11693809Y22712381D01*
X11922380Y22979048D02*
X11960476Y22979048D01*
X11998571Y22960000D01*
X12017619Y22940953D01*
X12036666Y22902858D01*
X12055714Y22826667D01*
X12055714Y22731429D01*
X12036666Y22655239D01*
X12017619Y22617143D01*
X11998571Y22598096D01*
X11960476Y22579048D01*
X11922380Y22579048D01*
X11884285Y22598096D01*
X11865238Y22617143D01*
X11846190Y22655239D01*
X11827142Y22731429D01*
X11827142Y22826667D01*
X11846190Y22902858D01*
X11865238Y22940953D01*
X11884285Y22960000D01*
X11922380Y22979048D01*
X10515238Y23849048D02*
X10515238Y23525239D01*
X10534285Y23487143D01*
X10553333Y23468096D01*
X10591428Y23449048D01*
X10667619Y23449048D01*
X10705714Y23468096D01*
X10724761Y23487143D01*
X10743809Y23525239D01*
X10743809Y23849048D01*
X11105714Y23715715D02*
X11105714Y23449048D01*
X11010476Y23868096D02*
X10915238Y23582381D01*
X11162857Y23582381D01*
X11474047Y30545239D02*
X11455000Y30564286D01*
X11435952Y30602381D01*
X11435952Y30697620D01*
X11455000Y30735715D01*
X11474047Y30754762D01*
X11512142Y30773810D01*
X11550238Y30773810D01*
X11607380Y30754762D01*
X11835952Y30526191D01*
X11835952Y30773810D01*
X11435952Y30907143D02*
X11435952Y31173810D01*
X11835952Y31002381D01*
X11835952Y31554762D02*
X11645476Y31421429D01*
X11835952Y31326191D02*
X11435952Y31326191D01*
X11435952Y31478572D01*
X11455000Y31516667D01*
X11474047Y31535715D01*
X11512142Y31554762D01*
X11569285Y31554762D01*
X11607380Y31535715D01*
X11626428Y31516667D01*
X11645476Y31478572D01*
X11645476Y31326191D01*
X11905952Y28583334D02*
X11715476Y28450000D01*
X11905952Y28354762D02*
X11505952Y28354762D01*
X11505952Y28507143D01*
X11525000Y28545239D01*
X11544047Y28564286D01*
X11582142Y28583334D01*
X11639285Y28583334D01*
X11677380Y28564286D01*
X11696428Y28545239D01*
X11715476Y28507143D01*
X11715476Y28354762D01*
X11505952Y28945239D02*
X11505952Y28754762D01*
X11696428Y28735715D01*
X11677380Y28754762D01*
X11658333Y28792858D01*
X11658333Y28888096D01*
X11677380Y28926191D01*
X11696428Y28945239D01*
X11734523Y28964286D01*
X11829761Y28964286D01*
X11867857Y28945239D01*
X11886904Y28926191D01*
X11905952Y28888096D01*
X11905952Y28792858D01*
X11886904Y28754762D01*
X11867857Y28735715D01*
X7565952Y29382381D02*
X7565952Y29153810D01*
X7565952Y29268096D02*
X7165952Y29268096D01*
X7223095Y29230000D01*
X7261190Y29191905D01*
X7280238Y29153810D01*
X7165952Y29630000D02*
X7165952Y29668096D01*
X7185000Y29706191D01*
X7204047Y29725239D01*
X7242142Y29744286D01*
X7318333Y29763334D01*
X7413571Y29763334D01*
X7489761Y29744286D01*
X7527857Y29725239D01*
X7546904Y29706191D01*
X7565952Y29668096D01*
X7565952Y29630000D01*
X7546904Y29591905D01*
X7527857Y29572858D01*
X7489761Y29553810D01*
X7413571Y29534762D01*
X7318333Y29534762D01*
X7242142Y29553810D01*
X7204047Y29572858D01*
X7185000Y29591905D01*
X7165952Y29630000D01*
X7165952Y30010953D02*
X7165952Y30049048D01*
X7185000Y30087143D01*
X7204047Y30106191D01*
X7242142Y30125239D01*
X7318333Y30144286D01*
X7413571Y30144286D01*
X7489761Y30125239D01*
X7527857Y30106191D01*
X7546904Y30087143D01*
X7565952Y30049048D01*
X7565952Y30010953D01*
X7546904Y29972858D01*
X7527857Y29953810D01*
X7489761Y29934762D01*
X7413571Y29915715D01*
X7318333Y29915715D01*
X7242142Y29934762D01*
X7204047Y29953810D01*
X7185000Y29972858D01*
X7165952Y30010953D01*
X7299285Y30315715D02*
X7565952Y30315715D01*
X7337380Y30315715D02*
X7318333Y30334762D01*
X7299285Y30372858D01*
X7299285Y30430000D01*
X7318333Y30468096D01*
X7356428Y30487143D01*
X7565952Y30487143D01*
X8267857Y28463334D02*
X8286904Y28444286D01*
X8305952Y28387143D01*
X8305952Y28349048D01*
X8286904Y28291905D01*
X8248809Y28253810D01*
X8210714Y28234762D01*
X8134523Y28215715D01*
X8077380Y28215715D01*
X8001190Y28234762D01*
X7963095Y28253810D01*
X7925000Y28291905D01*
X7905952Y28349048D01*
X7905952Y28387143D01*
X7925000Y28444286D01*
X7944047Y28463334D01*
X7944047Y28615715D02*
X7925000Y28634762D01*
X7905952Y28672858D01*
X7905952Y28768096D01*
X7925000Y28806191D01*
X7944047Y28825239D01*
X7982142Y28844286D01*
X8020238Y28844286D01*
X8077380Y28825239D01*
X8305952Y28596667D01*
X8305952Y28844286D01*
X11270952Y18482381D02*
X11270952Y18253810D01*
X11270952Y18368096D02*
X10870952Y18368096D01*
X10928095Y18330000D01*
X10966190Y18291905D01*
X10985238Y18253810D01*
X10870952Y18730000D02*
X10870952Y18768096D01*
X10890000Y18806191D01*
X10909047Y18825239D01*
X10947142Y18844286D01*
X11023333Y18863334D01*
X11118571Y18863334D01*
X11194761Y18844286D01*
X11232857Y18825239D01*
X11251904Y18806191D01*
X11270952Y18768096D01*
X11270952Y18730000D01*
X11251904Y18691905D01*
X11232857Y18672858D01*
X11194761Y18653810D01*
X11118571Y18634762D01*
X11023333Y18634762D01*
X10947142Y18653810D01*
X10909047Y18672858D01*
X10890000Y18691905D01*
X10870952Y18730000D01*
X10870952Y19110953D02*
X10870952Y19149048D01*
X10890000Y19187143D01*
X10909047Y19206191D01*
X10947142Y19225239D01*
X11023333Y19244286D01*
X11118571Y19244286D01*
X11194761Y19225239D01*
X11232857Y19206191D01*
X11251904Y19187143D01*
X11270952Y19149048D01*
X11270952Y19110953D01*
X11251904Y19072858D01*
X11232857Y19053810D01*
X11194761Y19034762D01*
X11118571Y19015715D01*
X11023333Y19015715D01*
X10947142Y19034762D01*
X10909047Y19053810D01*
X10890000Y19072858D01*
X10870952Y19110953D01*
X11004285Y19415715D02*
X11270952Y19415715D01*
X11042380Y19415715D02*
X11023333Y19434762D01*
X11004285Y19472858D01*
X11004285Y19530000D01*
X11023333Y19568096D01*
X11061428Y19587143D01*
X11270952Y19587143D01*
X11292857Y16263334D02*
X11311904Y16244286D01*
X11330952Y16187143D01*
X11330952Y16149048D01*
X11311904Y16091905D01*
X11273809Y16053810D01*
X11235714Y16034762D01*
X11159523Y16015715D01*
X11102380Y16015715D01*
X11026190Y16034762D01*
X10988095Y16053810D01*
X10950000Y16091905D01*
X10930952Y16149048D01*
X10930952Y16187143D01*
X10950000Y16244286D01*
X10969047Y16263334D01*
X11330952Y16644286D02*
X11330952Y16415715D01*
X11330952Y16530000D02*
X10930952Y16530000D01*
X10988095Y16491905D01*
X11026190Y16453810D01*
X11045238Y16415715D01*
X10900952Y35402381D02*
X11300952Y35497620D01*
X11015238Y35573810D01*
X11300952Y35650000D01*
X10900952Y35745239D01*
X10939047Y35878572D02*
X10920000Y35897620D01*
X10900952Y35935715D01*
X10900952Y36030953D01*
X10920000Y36069048D01*
X10939047Y36088096D01*
X10977142Y36107143D01*
X11015238Y36107143D01*
X11072380Y36088096D01*
X11300952Y35859524D01*
X11300952Y36107143D01*
X10900952Y36469048D02*
X10900952Y36278572D01*
X11091428Y36259524D01*
X11072380Y36278572D01*
X11053333Y36316667D01*
X11053333Y36411905D01*
X11072380Y36450000D01*
X11091428Y36469048D01*
X11129523Y36488096D01*
X11224761Y36488096D01*
X11262857Y36469048D01*
X11281904Y36450000D01*
X11300952Y36411905D01*
X11300952Y36316667D01*
X11281904Y36278572D01*
X11262857Y36259524D01*
X11339047Y36926191D02*
X11320000Y36888096D01*
X11281904Y36850000D01*
X11224761Y36792858D01*
X11205714Y36754762D01*
X11205714Y36716667D01*
X11300952Y36735715D02*
X11281904Y36697620D01*
X11243809Y36659524D01*
X11167619Y36640477D01*
X11034285Y36640477D01*
X10958095Y36659524D01*
X10920000Y36697620D01*
X10900952Y36735715D01*
X10900952Y36811905D01*
X10920000Y36850000D01*
X10958095Y36888096D01*
X11034285Y36907143D01*
X11167619Y36907143D01*
X11243809Y36888096D01*
X11281904Y36850000D01*
X11300952Y36811905D01*
X11300952Y36735715D01*
X11300952Y37288096D02*
X11300952Y37059524D01*
X11300952Y37173810D02*
X10900952Y37173810D01*
X10958095Y37135715D01*
X10996190Y37097620D01*
X11015238Y37059524D01*
X10939047Y37440477D02*
X10920000Y37459524D01*
X10900952Y37497620D01*
X10900952Y37592858D01*
X10920000Y37630953D01*
X10939047Y37650000D01*
X10977142Y37669048D01*
X11015238Y37669048D01*
X11072380Y37650000D01*
X11300952Y37421429D01*
X11300952Y37669048D01*
X11072380Y37897620D02*
X11053333Y37859524D01*
X11034285Y37840477D01*
X10996190Y37821429D01*
X10977142Y37821429D01*
X10939047Y37840477D01*
X10920000Y37859524D01*
X10900952Y37897620D01*
X10900952Y37973810D01*
X10920000Y38011905D01*
X10939047Y38030953D01*
X10977142Y38050000D01*
X10996190Y38050000D01*
X11034285Y38030953D01*
X11053333Y38011905D01*
X11072380Y37973810D01*
X11072380Y37897620D01*
X11091428Y37859524D01*
X11110476Y37840477D01*
X11148571Y37821429D01*
X11224761Y37821429D01*
X11262857Y37840477D01*
X11281904Y37859524D01*
X11300952Y37897620D01*
X11300952Y37973810D01*
X11281904Y38011905D01*
X11262857Y38030953D01*
X11224761Y38050000D01*
X11148571Y38050000D01*
X11110476Y38030953D01*
X11091428Y38011905D01*
X11072380Y37973810D01*
X10900952Y38335715D02*
X11186666Y38335715D01*
X11243809Y38316667D01*
X11281904Y38278572D01*
X11300952Y38221429D01*
X11300952Y38183334D01*
X10900952Y38469048D02*
X11300952Y38602381D01*
X10900952Y38735715D01*
X11281904Y38850000D02*
X11300952Y38907143D01*
X11300952Y39002381D01*
X11281904Y39040477D01*
X11262857Y39059524D01*
X11224761Y39078572D01*
X11186666Y39078572D01*
X11148571Y39059524D01*
X11129523Y39040477D01*
X11110476Y39002381D01*
X11091428Y38926191D01*
X11072380Y38888096D01*
X11053333Y38869048D01*
X11015238Y38850000D01*
X10977142Y38850000D01*
X10939047Y38869048D01*
X10920000Y38888096D01*
X10900952Y38926191D01*
X10900952Y39021429D01*
X10920000Y39078572D01*
X7340952Y36945239D02*
X7664761Y36945239D01*
X7702857Y36964286D01*
X7721904Y36983334D01*
X7740952Y37021429D01*
X7740952Y37097620D01*
X7721904Y37135715D01*
X7702857Y37154762D01*
X7664761Y37173810D01*
X7340952Y37173810D01*
X7340952Y37326191D02*
X7340952Y37573810D01*
X7493333Y37440477D01*
X7493333Y37497620D01*
X7512380Y37535715D01*
X7531428Y37554762D01*
X7569523Y37573810D01*
X7664761Y37573810D01*
X7702857Y37554762D01*
X7721904Y37535715D01*
X7740952Y37497620D01*
X7740952Y37383334D01*
X7721904Y37345239D01*
X7702857Y37326191D01*
X10460952Y30658334D02*
X10460952Y30429762D01*
X10460952Y30544048D02*
X10060952Y30544048D01*
X10118095Y30505953D01*
X10156190Y30467858D01*
X10175238Y30429762D01*
X10194285Y31001191D02*
X10460952Y31001191D01*
X10194285Y30829762D02*
X10403809Y30829762D01*
X10441904Y30848810D01*
X10460952Y30886905D01*
X10460952Y30944048D01*
X10441904Y30982143D01*
X10422857Y31001191D01*
X10462857Y28458334D02*
X10481904Y28439286D01*
X10500952Y28382143D01*
X10500952Y28344048D01*
X10481904Y28286905D01*
X10443809Y28248810D01*
X10405714Y28229762D01*
X10329523Y28210715D01*
X10272380Y28210715D01*
X10196190Y28229762D01*
X10158095Y28248810D01*
X10120000Y28286905D01*
X10100952Y28344048D01*
X10100952Y28382143D01*
X10120000Y28439286D01*
X10139047Y28458334D01*
X10234285Y28801191D02*
X10500952Y28801191D01*
X10081904Y28705953D02*
X10367619Y28610715D01*
X10367619Y28858334D01*
X5984285Y32179048D02*
X5984285Y32579048D01*
X6079523Y32579048D01*
X6136666Y32560000D01*
X6174761Y32521905D01*
X6193809Y32483810D01*
X6212857Y32407620D01*
X6212857Y32350477D01*
X6193809Y32274286D01*
X6174761Y32236191D01*
X6136666Y32198096D01*
X6079523Y32179048D01*
X5984285Y32179048D01*
X6384285Y32179048D02*
X6384285Y32579048D01*
X6612857Y32179048D01*
X6612857Y32579048D01*
X6936666Y32388572D02*
X6803333Y32388572D01*
X6803333Y32179048D02*
X6803333Y32579048D01*
X6993809Y32579048D01*
X5303333Y31449048D02*
X5170000Y31639524D01*
X5074761Y31449048D02*
X5074761Y31849048D01*
X5227142Y31849048D01*
X5265238Y31830000D01*
X5284285Y31810953D01*
X5303333Y31772858D01*
X5303333Y31715715D01*
X5284285Y31677620D01*
X5265238Y31658572D01*
X5227142Y31639524D01*
X5074761Y31639524D01*
X5684285Y31449048D02*
X5455714Y31449048D01*
X5570000Y31449048D02*
X5570000Y31849048D01*
X5531904Y31791905D01*
X5493809Y31753810D01*
X5455714Y31734762D01*
X13770952Y30673334D02*
X13770952Y30444762D01*
X13770952Y30559048D02*
X13370952Y30559048D01*
X13428095Y30520953D01*
X13466190Y30482858D01*
X13485238Y30444762D01*
X13504285Y31016191D02*
X13770952Y31016191D01*
X13504285Y30844762D02*
X13713809Y30844762D01*
X13751904Y30863810D01*
X13770952Y30901905D01*
X13770952Y30959048D01*
X13751904Y30997143D01*
X13732857Y31016191D01*
X13772857Y28573334D02*
X13791904Y28554286D01*
X13810952Y28497143D01*
X13810952Y28459048D01*
X13791904Y28401905D01*
X13753809Y28363810D01*
X13715714Y28344762D01*
X13639523Y28325715D01*
X13582380Y28325715D01*
X13506190Y28344762D01*
X13468095Y28363810D01*
X13430000Y28401905D01*
X13410952Y28459048D01*
X13410952Y28497143D01*
X13430000Y28554286D01*
X13449047Y28573334D01*
X13410952Y28706667D02*
X13410952Y28954286D01*
X13563333Y28820953D01*
X13563333Y28878096D01*
X13582380Y28916191D01*
X13601428Y28935239D01*
X13639523Y28954286D01*
X13734761Y28954286D01*
X13772857Y28935239D01*
X13791904Y28916191D01*
X13810952Y28878096D01*
X13810952Y28763810D01*
X13791904Y28725715D01*
X13772857Y28706667D01*
X5762380Y41659048D02*
X5533809Y41659048D01*
X5648095Y41659048D02*
X5648095Y42059048D01*
X5610000Y42001905D01*
X5571904Y41963810D01*
X5533809Y41944762D01*
X6010000Y42059048D02*
X6048095Y42059048D01*
X6086190Y42040000D01*
X6105238Y42020953D01*
X6124285Y41982858D01*
X6143333Y41906667D01*
X6143333Y41811429D01*
X6124285Y41735239D01*
X6105238Y41697143D01*
X6086190Y41678096D01*
X6048095Y41659048D01*
X6010000Y41659048D01*
X5971904Y41678096D01*
X5952857Y41697143D01*
X5933809Y41735239D01*
X5914761Y41811429D01*
X5914761Y41906667D01*
X5933809Y41982858D01*
X5952857Y42020953D01*
X5971904Y42040000D01*
X6010000Y42059048D01*
X6390952Y42059048D02*
X6429047Y42059048D01*
X6467142Y42040000D01*
X6486190Y42020953D01*
X6505238Y41982858D01*
X6524285Y41906667D01*
X6524285Y41811429D01*
X6505238Y41735239D01*
X6486190Y41697143D01*
X6467142Y41678096D01*
X6429047Y41659048D01*
X6390952Y41659048D01*
X6352857Y41678096D01*
X6333809Y41697143D01*
X6314761Y41735239D01*
X6295714Y41811429D01*
X6295714Y41906667D01*
X6314761Y41982858D01*
X6333809Y42020953D01*
X6352857Y42040000D01*
X6390952Y42059048D01*
X6695714Y41925715D02*
X6695714Y41659048D01*
X6695714Y41887620D02*
X6714761Y41906667D01*
X6752857Y41925715D01*
X6810000Y41925715D01*
X6848095Y41906667D01*
X6867142Y41868572D01*
X6867142Y41659048D01*
X5952857Y43157143D02*
X5933809Y43138096D01*
X5876666Y43119048D01*
X5838571Y43119048D01*
X5781428Y43138096D01*
X5743333Y43176191D01*
X5724285Y43214286D01*
X5705238Y43290477D01*
X5705238Y43347620D01*
X5724285Y43423810D01*
X5743333Y43461905D01*
X5781428Y43500000D01*
X5838571Y43519048D01*
X5876666Y43519048D01*
X5933809Y43500000D01*
X5952857Y43480953D01*
X6333809Y43119048D02*
X6105238Y43119048D01*
X6219523Y43119048D02*
X6219523Y43519048D01*
X6181428Y43461905D01*
X6143333Y43423810D01*
X6105238Y43404762D01*
X6467142Y43519048D02*
X6733809Y43519048D01*
X6562380Y43119048D01*
X18169047Y40779048D02*
X18302380Y40379048D01*
X18435714Y40779048D01*
X18797619Y40379048D02*
X18664285Y40569524D01*
X18569047Y40379048D02*
X18569047Y40779048D01*
X18721428Y40779048D01*
X18759523Y40760000D01*
X18778571Y40740953D01*
X18797619Y40702858D01*
X18797619Y40645715D01*
X18778571Y40607620D01*
X18759523Y40588572D01*
X18721428Y40569524D01*
X18569047Y40569524D01*
X19178571Y40379048D02*
X18950000Y40379048D01*
X19064285Y40379048D02*
X19064285Y40779048D01*
X19026190Y40721905D01*
X18988095Y40683810D01*
X18950000Y40664762D01*
X19254761Y40340953D02*
X19559523Y40340953D01*
X19654761Y40379048D02*
X19654761Y40779048D01*
X19845238Y40379048D02*
X19845238Y40779048D01*
X20073809Y40379048D01*
X20073809Y40779048D01*
X16916666Y40849048D02*
X16916666Y40563334D01*
X16897619Y40506191D01*
X16859523Y40468096D01*
X16802380Y40449048D01*
X16764285Y40449048D01*
X17107142Y40449048D02*
X17107142Y40849048D01*
X17259523Y40849048D01*
X17297619Y40830000D01*
X17316666Y40810953D01*
X17335714Y40772858D01*
X17335714Y40715715D01*
X17316666Y40677620D01*
X17297619Y40658572D01*
X17259523Y40639524D01*
X17107142Y40639524D01*
X17716666Y40449048D02*
X17488095Y40449048D01*
X17602380Y40449048D02*
X17602380Y40849048D01*
X17564285Y40791905D01*
X17526190Y40753810D01*
X17488095Y40734762D01*
X9957142Y698096D02*
X10014285Y679048D01*
X10109523Y679048D01*
X10147619Y698096D01*
X10166666Y717143D01*
X10185714Y755239D01*
X10185714Y793334D01*
X10166666Y831429D01*
X10147619Y850477D01*
X10109523Y869524D01*
X10033333Y888572D01*
X9995238Y907620D01*
X9976190Y926667D01*
X9957142Y964762D01*
X9957142Y1002858D01*
X9976190Y1040953D01*
X9995238Y1060000D01*
X10033333Y1079048D01*
X10128571Y1079048D01*
X10185714Y1060000D01*
X10319047Y1079048D02*
X10414285Y679048D01*
X10490476Y964762D01*
X10566666Y679048D01*
X10661904Y1079048D01*
X10814285Y679048D02*
X10814285Y1079048D01*
X10909523Y1079048D01*
X10966666Y1060000D01*
X11004761Y1021905D01*
X11023809Y983810D01*
X11042857Y907620D01*
X11042857Y850477D01*
X11023809Y774286D01*
X11004761Y736191D01*
X10966666Y698096D01*
X10909523Y679048D01*
X10814285Y679048D01*
X10356666Y1819048D02*
X10356666Y1533334D01*
X10337619Y1476191D01*
X10299523Y1438096D01*
X10242380Y1419048D01*
X10204285Y1419048D01*
X10737619Y1819048D02*
X10547142Y1819048D01*
X10528095Y1628572D01*
X10547142Y1647620D01*
X10585238Y1666667D01*
X10680476Y1666667D01*
X10718571Y1647620D01*
X10737619Y1628572D01*
X10756666Y1590477D01*
X10756666Y1495239D01*
X10737619Y1457143D01*
X10718571Y1438096D01*
X10680476Y1419048D01*
X10585238Y1419048D01*
X10547142Y1438096D01*
X10528095Y1457143D01*
X6633809Y13939048D02*
X6405238Y13939048D01*
X6519523Y13939048D02*
X6519523Y14339048D01*
X6481428Y14281905D01*
X6443333Y14243810D01*
X6405238Y14224762D01*
X6881428Y14339048D02*
X6919523Y14339048D01*
X6957619Y14320000D01*
X6976666Y14300953D01*
X6995714Y14262858D01*
X7014761Y14186667D01*
X7014761Y14091429D01*
X6995714Y14015239D01*
X6976666Y13977143D01*
X6957619Y13958096D01*
X6919523Y13939048D01*
X6881428Y13939048D01*
X6843333Y13958096D01*
X6824285Y13977143D01*
X6805238Y14015239D01*
X6786190Y14091429D01*
X6786190Y14186667D01*
X6805238Y14262858D01*
X6824285Y14300953D01*
X6843333Y14320000D01*
X6881428Y14339048D01*
X7186190Y13939048D02*
X7186190Y14339048D01*
X7414761Y13939048D02*
X7243333Y14167620D01*
X7414761Y14339048D02*
X7186190Y14110477D01*
X5743333Y13219048D02*
X5610000Y13409524D01*
X5514761Y13219048D02*
X5514761Y13619048D01*
X5667142Y13619048D01*
X5705238Y13600000D01*
X5724285Y13580953D01*
X5743333Y13542858D01*
X5743333Y13485715D01*
X5724285Y13447620D01*
X5705238Y13428572D01*
X5667142Y13409524D01*
X5514761Y13409524D01*
X5933809Y13219048D02*
X6010000Y13219048D01*
X6048095Y13238096D01*
X6067142Y13257143D01*
X6105238Y13314286D01*
X6124285Y13390477D01*
X6124285Y13542858D01*
X6105238Y13580953D01*
X6086190Y13600000D01*
X6048095Y13619048D01*
X5971904Y13619048D01*
X5933809Y13600000D01*
X5914761Y13580953D01*
X5895714Y13542858D01*
X5895714Y13447620D01*
X5914761Y13409524D01*
X5933809Y13390477D01*
X5971904Y13371429D01*
X6048095Y13371429D01*
X6086190Y13390477D01*
X6105238Y13409524D01*
X6124285Y13447620D01*
X12290952Y18482381D02*
X12290952Y18253810D01*
X12290952Y18368096D02*
X11890952Y18368096D01*
X11948095Y18330000D01*
X11986190Y18291905D01*
X12005238Y18253810D01*
X11890952Y18730000D02*
X11890952Y18768096D01*
X11910000Y18806191D01*
X11929047Y18825239D01*
X11967142Y18844286D01*
X12043333Y18863334D01*
X12138571Y18863334D01*
X12214761Y18844286D01*
X12252857Y18825239D01*
X12271904Y18806191D01*
X12290952Y18768096D01*
X12290952Y18730000D01*
X12271904Y18691905D01*
X12252857Y18672858D01*
X12214761Y18653810D01*
X12138571Y18634762D01*
X12043333Y18634762D01*
X11967142Y18653810D01*
X11929047Y18672858D01*
X11910000Y18691905D01*
X11890952Y18730000D01*
X11890952Y19110953D02*
X11890952Y19149048D01*
X11910000Y19187143D01*
X11929047Y19206191D01*
X11967142Y19225239D01*
X12043333Y19244286D01*
X12138571Y19244286D01*
X12214761Y19225239D01*
X12252857Y19206191D01*
X12271904Y19187143D01*
X12290952Y19149048D01*
X12290952Y19110953D01*
X12271904Y19072858D01*
X12252857Y19053810D01*
X12214761Y19034762D01*
X12138571Y19015715D01*
X12043333Y19015715D01*
X11967142Y19034762D01*
X11929047Y19053810D01*
X11910000Y19072858D01*
X11890952Y19110953D01*
X12024285Y19415715D02*
X12290952Y19415715D01*
X12062380Y19415715D02*
X12043333Y19434762D01*
X12024285Y19472858D01*
X12024285Y19530000D01*
X12043333Y19568096D01*
X12081428Y19587143D01*
X12290952Y19587143D01*
X12312857Y16263334D02*
X12331904Y16244286D01*
X12350952Y16187143D01*
X12350952Y16149048D01*
X12331904Y16091905D01*
X12293809Y16053810D01*
X12255714Y16034762D01*
X12179523Y16015715D01*
X12122380Y16015715D01*
X12046190Y16034762D01*
X12008095Y16053810D01*
X11970000Y16091905D01*
X11950952Y16149048D01*
X11950952Y16187143D01*
X11970000Y16244286D01*
X11989047Y16263334D01*
X12122380Y16491905D02*
X12103333Y16453810D01*
X12084285Y16434762D01*
X12046190Y16415715D01*
X12027142Y16415715D01*
X11989047Y16434762D01*
X11970000Y16453810D01*
X11950952Y16491905D01*
X11950952Y16568096D01*
X11970000Y16606191D01*
X11989047Y16625239D01*
X12027142Y16644286D01*
X12046190Y16644286D01*
X12084285Y16625239D01*
X12103333Y16606191D01*
X12122380Y16568096D01*
X12122380Y16491905D01*
X12141428Y16453810D01*
X12160476Y16434762D01*
X12198571Y16415715D01*
X12274761Y16415715D01*
X12312857Y16434762D01*
X12331904Y16453810D01*
X12350952Y16491905D01*
X12350952Y16568096D01*
X12331904Y16606191D01*
X12312857Y16625239D01*
X12274761Y16644286D01*
X12198571Y16644286D01*
X12160476Y16625239D01*
X12141428Y16606191D01*
X12122380Y16568096D01*
X15620952Y18862381D02*
X15620952Y18633810D01*
X15620952Y18748096D02*
X15220952Y18748096D01*
X15278095Y18710000D01*
X15316190Y18671905D01*
X15335238Y18633810D01*
X15220952Y19110000D02*
X15220952Y19148096D01*
X15240000Y19186191D01*
X15259047Y19205239D01*
X15297142Y19224286D01*
X15373333Y19243334D01*
X15468571Y19243334D01*
X15544761Y19224286D01*
X15582857Y19205239D01*
X15601904Y19186191D01*
X15620952Y19148096D01*
X15620952Y19110000D01*
X15601904Y19071905D01*
X15582857Y19052858D01*
X15544761Y19033810D01*
X15468571Y19014762D01*
X15373333Y19014762D01*
X15297142Y19033810D01*
X15259047Y19052858D01*
X15240000Y19071905D01*
X15220952Y19110000D01*
X15220952Y19490953D02*
X15220952Y19529048D01*
X15240000Y19567143D01*
X15259047Y19586191D01*
X15297142Y19605239D01*
X15373333Y19624286D01*
X15468571Y19624286D01*
X15544761Y19605239D01*
X15582857Y19586191D01*
X15601904Y19567143D01*
X15620952Y19529048D01*
X15620952Y19490953D01*
X15601904Y19452858D01*
X15582857Y19433810D01*
X15544761Y19414762D01*
X15468571Y19395715D01*
X15373333Y19395715D01*
X15297142Y19414762D01*
X15259047Y19433810D01*
X15240000Y19452858D01*
X15220952Y19490953D01*
X15354285Y19795715D02*
X15620952Y19795715D01*
X15392380Y19795715D02*
X15373333Y19814762D01*
X15354285Y19852858D01*
X15354285Y19910000D01*
X15373333Y19948096D01*
X15411428Y19967143D01*
X15620952Y19967143D01*
X16442857Y18143334D02*
X16461904Y18124286D01*
X16480952Y18067143D01*
X16480952Y18029048D01*
X16461904Y17971905D01*
X16423809Y17933810D01*
X16385714Y17914762D01*
X16309523Y17895715D01*
X16252380Y17895715D01*
X16176190Y17914762D01*
X16138095Y17933810D01*
X16100000Y17971905D01*
X16080952Y18029048D01*
X16080952Y18067143D01*
X16100000Y18124286D01*
X16119047Y18143334D01*
X16080952Y18276667D02*
X16080952Y18543334D01*
X16480952Y18371905D01*
X16932857Y31709048D02*
X16704285Y31709048D01*
X16818571Y31709048D02*
X16818571Y32109048D01*
X16780476Y32051905D01*
X16742380Y32013810D01*
X16704285Y31994762D01*
X17180476Y32109048D02*
X17218571Y32109048D01*
X17256666Y32090000D01*
X17275714Y32070953D01*
X17294761Y32032858D01*
X17313809Y31956667D01*
X17313809Y31861429D01*
X17294761Y31785239D01*
X17275714Y31747143D01*
X17256666Y31728096D01*
X17218571Y31709048D01*
X17180476Y31709048D01*
X17142380Y31728096D01*
X17123333Y31747143D01*
X17104285Y31785239D01*
X17085238Y31861429D01*
X17085238Y31956667D01*
X17104285Y32032858D01*
X17123333Y32070953D01*
X17142380Y32090000D01*
X17180476Y32109048D01*
X17656666Y31975715D02*
X17656666Y31709048D01*
X17485238Y31975715D02*
X17485238Y31766191D01*
X17504285Y31728096D01*
X17542380Y31709048D01*
X17599523Y31709048D01*
X17637619Y31728096D01*
X17656666Y31747143D01*
X15332857Y31777143D02*
X15313809Y31758096D01*
X15256666Y31739048D01*
X15218571Y31739048D01*
X15161428Y31758096D01*
X15123333Y31796191D01*
X15104285Y31834286D01*
X15085238Y31910477D01*
X15085238Y31967620D01*
X15104285Y32043810D01*
X15123333Y32081905D01*
X15161428Y32120000D01*
X15218571Y32139048D01*
X15256666Y32139048D01*
X15313809Y32120000D01*
X15332857Y32100953D01*
X15713809Y31739048D02*
X15485238Y31739048D01*
X15599523Y31739048D02*
X15599523Y32139048D01*
X15561428Y32081905D01*
X15523333Y32043810D01*
X15485238Y32024762D01*
X15847142Y32139048D02*
X16094761Y32139048D01*
X15961428Y31986667D01*
X16018571Y31986667D01*
X16056666Y31967620D01*
X16075714Y31948572D01*
X16094761Y31910477D01*
X16094761Y31815239D01*
X16075714Y31777143D01*
X16056666Y31758096D01*
X16018571Y31739048D01*
X15904285Y31739048D01*
X15866190Y31758096D01*
X15847142Y31777143D01*
X2385714Y609048D02*
X2385714Y1009048D01*
X2519047Y723334D01*
X2652380Y1009048D01*
X2652380Y609048D01*
X2900000Y609048D02*
X2861904Y628096D01*
X2842857Y647143D01*
X2823809Y685239D01*
X2823809Y799524D01*
X2842857Y837620D01*
X2861904Y856667D01*
X2900000Y875715D01*
X2957142Y875715D01*
X2995238Y856667D01*
X3014285Y837620D01*
X3033333Y799524D01*
X3033333Y685239D01*
X3014285Y647143D01*
X2995238Y628096D01*
X2957142Y609048D01*
X2900000Y609048D01*
X3376190Y875715D02*
X3376190Y609048D01*
X3204761Y875715D02*
X3204761Y666191D01*
X3223809Y628096D01*
X3261904Y609048D01*
X3319047Y609048D01*
X3357142Y628096D01*
X3376190Y647143D01*
X3566666Y875715D02*
X3566666Y609048D01*
X3566666Y837620D02*
X3585714Y856667D01*
X3623809Y875715D01*
X3680952Y875715D01*
X3719047Y856667D01*
X3738095Y818572D01*
X3738095Y609048D01*
X3871428Y875715D02*
X4023809Y875715D01*
X3928571Y1009048D02*
X3928571Y666191D01*
X3947619Y628096D01*
X3985714Y609048D01*
X4023809Y609048D01*
X4157142Y609048D02*
X4157142Y875715D01*
X4157142Y1009048D02*
X4138095Y990000D01*
X4157142Y970953D01*
X4176190Y990000D01*
X4157142Y1009048D01*
X4157142Y970953D01*
X4347619Y875715D02*
X4347619Y609048D01*
X4347619Y837620D02*
X4366666Y856667D01*
X4404761Y875715D01*
X4461904Y875715D01*
X4500000Y856667D01*
X4519047Y818572D01*
X4519047Y609048D01*
X4880952Y875715D02*
X4880952Y551905D01*
X4861904Y513810D01*
X4842857Y494762D01*
X4804761Y475715D01*
X4747619Y475715D01*
X4709523Y494762D01*
X4880952Y628096D02*
X4842857Y609048D01*
X4766666Y609048D01*
X4728571Y628096D01*
X4709523Y647143D01*
X4690476Y685239D01*
X4690476Y799524D01*
X4709523Y837620D01*
X4728571Y856667D01*
X4766666Y875715D01*
X4842857Y875715D01*
X4880952Y856667D01*
X5071428Y609048D02*
X5071428Y1009048D01*
X5071428Y818572D02*
X5300000Y818572D01*
X5300000Y609048D02*
X5300000Y1009048D01*
X5547619Y609048D02*
X5509523Y628096D01*
X5490476Y647143D01*
X5471428Y685239D01*
X5471428Y799524D01*
X5490476Y837620D01*
X5509523Y856667D01*
X5547619Y875715D01*
X5604761Y875715D01*
X5642857Y856667D01*
X5661904Y837620D01*
X5680952Y799524D01*
X5680952Y685239D01*
X5661904Y647143D01*
X5642857Y628096D01*
X5604761Y609048D01*
X5547619Y609048D01*
X5909523Y609048D02*
X5871428Y628096D01*
X5852380Y666191D01*
X5852380Y1009048D01*
X6214285Y628096D02*
X6176190Y609048D01*
X6100000Y609048D01*
X6061904Y628096D01*
X6042857Y666191D01*
X6042857Y818572D01*
X6061904Y856667D01*
X6100000Y875715D01*
X6176190Y875715D01*
X6214285Y856667D01*
X6233333Y818572D01*
X6233333Y780477D01*
X6042857Y742381D01*
X3995238Y1309048D02*
X3995238Y1709048D01*
X3995238Y1518572D02*
X4223809Y1518572D01*
X4223809Y1309048D02*
X4223809Y1709048D01*
X4395238Y1670953D02*
X4414285Y1690000D01*
X4452380Y1709048D01*
X4547619Y1709048D01*
X4585714Y1690000D01*
X4604761Y1670953D01*
X4623809Y1632858D01*
X4623809Y1594762D01*
X4604761Y1537620D01*
X4376190Y1309048D01*
X4623809Y1309048D01*
X6608809Y45989048D02*
X6608809Y45665239D01*
X6627857Y45627143D01*
X6646904Y45608096D01*
X6685000Y45589048D01*
X6761190Y45589048D01*
X6799285Y45608096D01*
X6818333Y45627143D01*
X6837380Y45665239D01*
X6837380Y45989048D01*
X7008809Y45608096D02*
X7065952Y45589048D01*
X7161190Y45589048D01*
X7199285Y45608096D01*
X7218333Y45627143D01*
X7237380Y45665239D01*
X7237380Y45703334D01*
X7218333Y45741429D01*
X7199285Y45760477D01*
X7161190Y45779524D01*
X7085000Y45798572D01*
X7046904Y45817620D01*
X7027857Y45836667D01*
X7008809Y45874762D01*
X7008809Y45912858D01*
X7027857Y45950953D01*
X7046904Y45970000D01*
X7085000Y45989048D01*
X7180238Y45989048D01*
X7237380Y45970000D01*
X7542142Y45798572D02*
X7599285Y45779524D01*
X7618333Y45760477D01*
X7637380Y45722381D01*
X7637380Y45665239D01*
X7618333Y45627143D01*
X7599285Y45608096D01*
X7561190Y45589048D01*
X7408809Y45589048D01*
X7408809Y45989048D01*
X7542142Y45989048D01*
X7580238Y45970000D01*
X7599285Y45950953D01*
X7618333Y45912858D01*
X7618333Y45874762D01*
X7599285Y45836667D01*
X7580238Y45817620D01*
X7542142Y45798572D01*
X7408809Y45798572D01*
X7713571Y45550953D02*
X8018333Y45550953D01*
X8342142Y45627143D02*
X8323095Y45608096D01*
X8265952Y45589048D01*
X8227857Y45589048D01*
X8170714Y45608096D01*
X8132619Y45646191D01*
X8113571Y45684286D01*
X8094523Y45760477D01*
X8094523Y45817620D01*
X8113571Y45893810D01*
X8132619Y45931905D01*
X8170714Y45970000D01*
X8227857Y45989048D01*
X8265952Y45989048D01*
X8323095Y45970000D01*
X8342142Y45950953D01*
X8418333Y45550953D02*
X8723095Y45550953D01*
X9046904Y45589048D02*
X8913571Y45779524D01*
X8818333Y45589048D02*
X8818333Y45989048D01*
X8970714Y45989048D01*
X9008809Y45970000D01*
X9027857Y45950953D01*
X9046904Y45912858D01*
X9046904Y45855715D01*
X9027857Y45817620D01*
X9008809Y45798572D01*
X8970714Y45779524D01*
X8818333Y45779524D01*
X9370714Y45608096D02*
X9332619Y45589048D01*
X9256428Y45589048D01*
X9218333Y45608096D01*
X9199285Y45646191D01*
X9199285Y45798572D01*
X9218333Y45836667D01*
X9256428Y45855715D01*
X9332619Y45855715D01*
X9370714Y45836667D01*
X9389761Y45798572D01*
X9389761Y45760477D01*
X9199285Y45722381D01*
X9732619Y45608096D02*
X9694523Y45589048D01*
X9618333Y45589048D01*
X9580238Y45608096D01*
X9561190Y45627143D01*
X9542142Y45665239D01*
X9542142Y45779524D01*
X9561190Y45817620D01*
X9580238Y45836667D01*
X9618333Y45855715D01*
X9694523Y45855715D01*
X9732619Y45836667D01*
X10056428Y45608096D02*
X10018333Y45589048D01*
X9942142Y45589048D01*
X9904047Y45608096D01*
X9885000Y45646191D01*
X9885000Y45798572D01*
X9904047Y45836667D01*
X9942142Y45855715D01*
X10018333Y45855715D01*
X10056428Y45836667D01*
X10075476Y45798572D01*
X10075476Y45760477D01*
X9885000Y45722381D01*
X10246904Y45855715D02*
X10246904Y45455715D01*
X10246904Y45836667D02*
X10285000Y45855715D01*
X10361190Y45855715D01*
X10399285Y45836667D01*
X10418333Y45817620D01*
X10437380Y45779524D01*
X10437380Y45665239D01*
X10418333Y45627143D01*
X10399285Y45608096D01*
X10361190Y45589048D01*
X10285000Y45589048D01*
X10246904Y45608096D01*
X10551666Y45855715D02*
X10704047Y45855715D01*
X10608809Y45989048D02*
X10608809Y45646191D01*
X10627857Y45608096D01*
X10665952Y45589048D01*
X10704047Y45589048D01*
X11008809Y45589048D02*
X11008809Y45798572D01*
X10989761Y45836667D01*
X10951666Y45855715D01*
X10875476Y45855715D01*
X10837380Y45836667D01*
X11008809Y45608096D02*
X10970714Y45589048D01*
X10875476Y45589048D01*
X10837380Y45608096D01*
X10818333Y45646191D01*
X10818333Y45684286D01*
X10837380Y45722381D01*
X10875476Y45741429D01*
X10970714Y45741429D01*
X11008809Y45760477D01*
X11370714Y45608096D02*
X11332619Y45589048D01*
X11256428Y45589048D01*
X11218333Y45608096D01*
X11199285Y45627143D01*
X11180238Y45665239D01*
X11180238Y45779524D01*
X11199285Y45817620D01*
X11218333Y45836667D01*
X11256428Y45855715D01*
X11332619Y45855715D01*
X11370714Y45836667D01*
X11599285Y45589048D02*
X11561190Y45608096D01*
X11542142Y45646191D01*
X11542142Y45989048D01*
X11904047Y45608096D02*
X11865952Y45589048D01*
X11789761Y45589048D01*
X11751666Y45608096D01*
X11732619Y45646191D01*
X11732619Y45798572D01*
X11751666Y45836667D01*
X11789761Y45855715D01*
X11865952Y45855715D01*
X11904047Y45836667D01*
X11923095Y45798572D01*
X11923095Y45760477D01*
X11732619Y45722381D01*
X11999285Y45550953D02*
X12304047Y45550953D01*
X12399285Y45989048D02*
X12399285Y45665239D01*
X12418333Y45627143D01*
X12437380Y45608096D01*
X12475476Y45589048D01*
X12551666Y45589048D01*
X12589761Y45608096D01*
X12608809Y45627143D01*
X12627857Y45665239D01*
X12627857Y45989048D01*
X12799285Y45608096D02*
X12856428Y45589048D01*
X12951666Y45589048D01*
X12989761Y45608096D01*
X13008809Y45627143D01*
X13027857Y45665239D01*
X13027857Y45703334D01*
X13008809Y45741429D01*
X12989761Y45760477D01*
X12951666Y45779524D01*
X12875476Y45798572D01*
X12837380Y45817620D01*
X12818333Y45836667D01*
X12799285Y45874762D01*
X12799285Y45912858D01*
X12818333Y45950953D01*
X12837380Y45970000D01*
X12875476Y45989048D01*
X12970714Y45989048D01*
X13027857Y45970000D01*
X13332619Y45798572D02*
X13389761Y45779524D01*
X13408809Y45760477D01*
X13427857Y45722381D01*
X13427857Y45665239D01*
X13408809Y45627143D01*
X13389761Y45608096D01*
X13351666Y45589048D01*
X13199285Y45589048D01*
X13199285Y45989048D01*
X13332619Y45989048D01*
X13370714Y45970000D01*
X13389761Y45950953D01*
X13408809Y45912858D01*
X13408809Y45874762D01*
X13389761Y45836667D01*
X13370714Y45817620D01*
X13332619Y45798572D01*
X13199285Y45798572D01*
X13580238Y45950953D02*
X13599285Y45970000D01*
X13637380Y45989048D01*
X13732619Y45989048D01*
X13770714Y45970000D01*
X13789761Y45950953D01*
X13808809Y45912858D01*
X13808809Y45874762D01*
X13789761Y45817620D01*
X13561190Y45589048D01*
X13808809Y45589048D01*
X13980238Y45627143D02*
X13999285Y45608096D01*
X13980238Y45589048D01*
X13961190Y45608096D01*
X13980238Y45627143D01*
X13980238Y45589048D01*
X14246904Y45989048D02*
X14285000Y45989048D01*
X14323095Y45970000D01*
X14342142Y45950953D01*
X14361190Y45912858D01*
X14380238Y45836667D01*
X14380238Y45741429D01*
X14361190Y45665239D01*
X14342142Y45627143D01*
X14323095Y45608096D01*
X14285000Y45589048D01*
X14246904Y45589048D01*
X14208809Y45608096D01*
X14189761Y45627143D01*
X14170714Y45665239D01*
X14151666Y45741429D01*
X14151666Y45836667D01*
X14170714Y45912858D01*
X14189761Y45950953D01*
X14208809Y45970000D01*
X14246904Y45989048D01*
X17012857Y38565715D02*
X17012857Y38299048D01*
X16917619Y38718096D02*
X16822380Y38432381D01*
X17070000Y38432381D01*
X17184285Y38699048D02*
X17450952Y38699048D01*
X17279523Y38299048D01*
X17679523Y38699048D02*
X17717619Y38699048D01*
X17755714Y38680000D01*
X17774761Y38660953D01*
X17793809Y38622858D01*
X17812857Y38546667D01*
X17812857Y38451429D01*
X17793809Y38375239D01*
X17774761Y38337143D01*
X17755714Y38318096D01*
X17717619Y38299048D01*
X17679523Y38299048D01*
X17641428Y38318096D01*
X17622380Y38337143D01*
X17603333Y38375239D01*
X17584285Y38451429D01*
X17584285Y38546667D01*
X17603333Y38622858D01*
X17622380Y38660953D01*
X17641428Y38680000D01*
X17679523Y38699048D01*
X17984285Y38565715D02*
X17984285Y38165715D01*
X17984285Y38546667D02*
X18022380Y38565715D01*
X18098571Y38565715D01*
X18136666Y38546667D01*
X18155714Y38527620D01*
X18174761Y38489524D01*
X18174761Y38375239D01*
X18155714Y38337143D01*
X18136666Y38318096D01*
X18098571Y38299048D01*
X18022380Y38299048D01*
X17984285Y38318096D01*
X18479523Y38508572D02*
X18346190Y38508572D01*
X18346190Y38299048D02*
X18346190Y38699048D01*
X18536666Y38699048D01*
X14512857Y38397143D02*
X14493809Y38378096D01*
X14436666Y38359048D01*
X14398571Y38359048D01*
X14341428Y38378096D01*
X14303333Y38416191D01*
X14284285Y38454286D01*
X14265238Y38530477D01*
X14265238Y38587620D01*
X14284285Y38663810D01*
X14303333Y38701905D01*
X14341428Y38740000D01*
X14398571Y38759048D01*
X14436666Y38759048D01*
X14493809Y38740000D01*
X14512857Y38720953D01*
X14893809Y38359048D02*
X14665238Y38359048D01*
X14779523Y38359048D02*
X14779523Y38759048D01*
X14741428Y38701905D01*
X14703333Y38663810D01*
X14665238Y38644762D01*
X15255714Y38759048D02*
X15065238Y38759048D01*
X15046190Y38568572D01*
X15065238Y38587620D01*
X15103333Y38606667D01*
X15198571Y38606667D01*
X15236666Y38587620D01*
X15255714Y38568572D01*
X15274761Y38530477D01*
X15274761Y38435239D01*
X15255714Y38397143D01*
X15236666Y38378096D01*
X15198571Y38359048D01*
X15103333Y38359048D01*
X15065238Y38378096D01*
X15046190Y38397143D01*
X18092857Y41849048D02*
X18226190Y41449048D01*
X18359523Y41849048D01*
X18721428Y41449048D02*
X18588095Y41639524D01*
X18492857Y41449048D02*
X18492857Y41849048D01*
X18645238Y41849048D01*
X18683333Y41830000D01*
X18702380Y41810953D01*
X18721428Y41772858D01*
X18721428Y41715715D01*
X18702380Y41677620D01*
X18683333Y41658572D01*
X18645238Y41639524D01*
X18492857Y41639524D01*
X19102380Y41449048D02*
X18873809Y41449048D01*
X18988095Y41449048D02*
X18988095Y41849048D01*
X18950000Y41791905D01*
X18911904Y41753810D01*
X18873809Y41734762D01*
X19178571Y41410953D02*
X19483333Y41410953D01*
X19807142Y41487143D02*
X19788095Y41468096D01*
X19730952Y41449048D01*
X19692857Y41449048D01*
X19635714Y41468096D01*
X19597619Y41506191D01*
X19578571Y41544286D01*
X19559523Y41620477D01*
X19559523Y41677620D01*
X19578571Y41753810D01*
X19597619Y41791905D01*
X19635714Y41830000D01*
X19692857Y41849048D01*
X19730952Y41849048D01*
X19788095Y41830000D01*
X19807142Y41810953D01*
X19978571Y41658572D02*
X20111904Y41658572D01*
X20169047Y41449048D02*
X19978571Y41449048D01*
X19978571Y41849048D01*
X20169047Y41849048D01*
X16816666Y41819048D02*
X16816666Y41533334D01*
X16797619Y41476191D01*
X16759523Y41438096D01*
X16702380Y41419048D01*
X16664285Y41419048D01*
X17007142Y41419048D02*
X17007142Y41819048D01*
X17159523Y41819048D01*
X17197619Y41800000D01*
X17216666Y41780953D01*
X17235714Y41742858D01*
X17235714Y41685715D01*
X17216666Y41647620D01*
X17197619Y41628572D01*
X17159523Y41609524D01*
X17007142Y41609524D01*
X17578571Y41685715D02*
X17578571Y41419048D01*
X17483333Y41838096D02*
X17388095Y41552381D01*
X17635714Y41552381D01*
X8059523Y43489048D02*
X7869047Y43489048D01*
X7850000Y43298572D01*
X7869047Y43317620D01*
X7907142Y43336667D01*
X8002380Y43336667D01*
X8040476Y43317620D01*
X8059523Y43298572D01*
X8078571Y43260477D01*
X8078571Y43165239D01*
X8059523Y43127143D01*
X8040476Y43108096D01*
X8002380Y43089048D01*
X7907142Y43089048D01*
X7869047Y43108096D01*
X7850000Y43127143D01*
X8250000Y43127143D02*
X8269047Y43108096D01*
X8250000Y43089048D01*
X8230952Y43108096D01*
X8250000Y43127143D01*
X8250000Y43089048D01*
X8650000Y43089048D02*
X8421428Y43089048D01*
X8535714Y43089048D02*
X8535714Y43489048D01*
X8497619Y43431905D01*
X8459523Y43393810D01*
X8421428Y43374762D01*
X8821428Y43089048D02*
X8821428Y43489048D01*
X9050000Y43089048D02*
X8878571Y43317620D01*
X9050000Y43489048D02*
X8821428Y43260477D01*
X8333333Y41619048D02*
X8200000Y41809524D01*
X8104761Y41619048D02*
X8104761Y42019048D01*
X8257142Y42019048D01*
X8295238Y42000000D01*
X8314285Y41980953D01*
X8333333Y41942858D01*
X8333333Y41885715D01*
X8314285Y41847620D01*
X8295238Y41828572D01*
X8257142Y41809524D01*
X8104761Y41809524D01*
X8561904Y41847620D02*
X8523809Y41866667D01*
X8504761Y41885715D01*
X8485714Y41923810D01*
X8485714Y41942858D01*
X8504761Y41980953D01*
X8523809Y42000000D01*
X8561904Y42019048D01*
X8638095Y42019048D01*
X8676190Y42000000D01*
X8695238Y41980953D01*
X8714285Y41942858D01*
X8714285Y41923810D01*
X8695238Y41885715D01*
X8676190Y41866667D01*
X8638095Y41847620D01*
X8561904Y41847620D01*
X8523809Y41828572D01*
X8504761Y41809524D01*
X8485714Y41771429D01*
X8485714Y41695239D01*
X8504761Y41657143D01*
X8523809Y41638096D01*
X8561904Y41619048D01*
X8638095Y41619048D01*
X8676190Y41638096D01*
X8695238Y41657143D01*
X8714285Y41695239D01*
X8714285Y41771429D01*
X8695238Y41809524D01*
X8676190Y41828572D01*
X8638095Y41847620D01*
X18580952Y43071429D02*
X18180952Y43071429D01*
X18466666Y43204762D01*
X18180952Y43338096D01*
X18580952Y43338096D01*
X18371428Y43661905D02*
X18390476Y43719048D01*
X18409523Y43738096D01*
X18447619Y43757143D01*
X18504761Y43757143D01*
X18542857Y43738096D01*
X18561904Y43719048D01*
X18580952Y43680953D01*
X18580952Y43528572D01*
X18180952Y43528572D01*
X18180952Y43661905D01*
X18200000Y43700000D01*
X18219047Y43719048D01*
X18257142Y43738096D01*
X18295238Y43738096D01*
X18333333Y43719048D01*
X18352380Y43700000D01*
X18371428Y43661905D01*
X18371428Y43528572D01*
X18580952Y44157143D02*
X18390476Y44023810D01*
X18580952Y43928572D02*
X18180952Y43928572D01*
X18180952Y44080953D01*
X18200000Y44119048D01*
X18219047Y44138096D01*
X18257142Y44157143D01*
X18314285Y44157143D01*
X18352380Y44138096D01*
X18371428Y44119048D01*
X18390476Y44080953D01*
X18390476Y43928572D01*
X18580952Y44538096D02*
X18580952Y44309524D01*
X18580952Y44423810D02*
X18180952Y44423810D01*
X18238095Y44385715D01*
X18276190Y44347620D01*
X18295238Y44309524D01*
X18180952Y44785715D02*
X18180952Y44823810D01*
X18200000Y44861905D01*
X18219047Y44880953D01*
X18257142Y44900000D01*
X18333333Y44919048D01*
X18428571Y44919048D01*
X18504761Y44900000D01*
X18542857Y44880953D01*
X18561904Y44861905D01*
X18580952Y44823810D01*
X18580952Y44785715D01*
X18561904Y44747620D01*
X18542857Y44728572D01*
X18504761Y44709524D01*
X18428571Y44690477D01*
X18333333Y44690477D01*
X18257142Y44709524D01*
X18219047Y44728572D01*
X18200000Y44747620D01*
X18180952Y44785715D01*
X18219047Y45071429D02*
X18200000Y45090477D01*
X18180952Y45128572D01*
X18180952Y45223810D01*
X18200000Y45261905D01*
X18219047Y45280953D01*
X18257142Y45300000D01*
X18295238Y45300000D01*
X18352380Y45280953D01*
X18580952Y45052381D01*
X18580952Y45300000D01*
X18180952Y45547620D02*
X18180952Y45585715D01*
X18200000Y45623810D01*
X18219047Y45642858D01*
X18257142Y45661905D01*
X18333333Y45680953D01*
X18428571Y45680953D01*
X18504761Y45661905D01*
X18542857Y45642858D01*
X18561904Y45623810D01*
X18580952Y45585715D01*
X18580952Y45547620D01*
X18561904Y45509524D01*
X18542857Y45490477D01*
X18504761Y45471429D01*
X18428571Y45452381D01*
X18333333Y45452381D01*
X18257142Y45471429D01*
X18219047Y45490477D01*
X18200000Y45509524D01*
X18180952Y45547620D01*
X18180952Y45795239D02*
X18580952Y45928572D01*
X18180952Y46061905D01*
X18580952Y46385715D02*
X18580952Y46195239D01*
X18180952Y46195239D01*
X15675952Y44077762D02*
X15275952Y44077762D01*
X15275952Y44173000D01*
X15295000Y44230143D01*
X15333095Y44268239D01*
X15371190Y44287286D01*
X15447380Y44306334D01*
X15504523Y44306334D01*
X15580714Y44287286D01*
X15618809Y44268239D01*
X15656904Y44230143D01*
X15675952Y44173000D01*
X15675952Y44077762D01*
X15314047Y44458715D02*
X15295000Y44477762D01*
X15275952Y44515858D01*
X15275952Y44611096D01*
X15295000Y44649191D01*
X15314047Y44668239D01*
X15352142Y44687286D01*
X15390238Y44687286D01*
X15447380Y44668239D01*
X15675952Y44439667D01*
X15675952Y44687286D01*
X15285714Y48509048D02*
X15285714Y48909048D01*
X15419047Y48623334D01*
X15552380Y48909048D01*
X15552380Y48509048D01*
X15800000Y48509048D02*
X15761904Y48528096D01*
X15742857Y48547143D01*
X15723809Y48585239D01*
X15723809Y48699524D01*
X15742857Y48737620D01*
X15761904Y48756667D01*
X15800000Y48775715D01*
X15857142Y48775715D01*
X15895238Y48756667D01*
X15914285Y48737620D01*
X15933333Y48699524D01*
X15933333Y48585239D01*
X15914285Y48547143D01*
X15895238Y48528096D01*
X15857142Y48509048D01*
X15800000Y48509048D01*
X16276190Y48775715D02*
X16276190Y48509048D01*
X16104761Y48775715D02*
X16104761Y48566191D01*
X16123809Y48528096D01*
X16161904Y48509048D01*
X16219047Y48509048D01*
X16257142Y48528096D01*
X16276190Y48547143D01*
X16466666Y48775715D02*
X16466666Y48509048D01*
X16466666Y48737620D02*
X16485714Y48756667D01*
X16523809Y48775715D01*
X16580952Y48775715D01*
X16619047Y48756667D01*
X16638095Y48718572D01*
X16638095Y48509048D01*
X16771428Y48775715D02*
X16923809Y48775715D01*
X16828571Y48909048D02*
X16828571Y48566191D01*
X16847619Y48528096D01*
X16885714Y48509048D01*
X16923809Y48509048D01*
X17057142Y48509048D02*
X17057142Y48775715D01*
X17057142Y48909048D02*
X17038095Y48890000D01*
X17057142Y48870953D01*
X17076190Y48890000D01*
X17057142Y48909048D01*
X17057142Y48870953D01*
X17247619Y48775715D02*
X17247619Y48509048D01*
X17247619Y48737620D02*
X17266666Y48756667D01*
X17304761Y48775715D01*
X17361904Y48775715D01*
X17400000Y48756667D01*
X17419047Y48718572D01*
X17419047Y48509048D01*
X17780952Y48775715D02*
X17780952Y48451905D01*
X17761904Y48413810D01*
X17742857Y48394762D01*
X17704761Y48375715D01*
X17647619Y48375715D01*
X17609523Y48394762D01*
X17780952Y48528096D02*
X17742857Y48509048D01*
X17666666Y48509048D01*
X17628571Y48528096D01*
X17609523Y48547143D01*
X17590476Y48585239D01*
X17590476Y48699524D01*
X17609523Y48737620D01*
X17628571Y48756667D01*
X17666666Y48775715D01*
X17742857Y48775715D01*
X17780952Y48756667D01*
X17971428Y48509048D02*
X17971428Y48909048D01*
X17971428Y48718572D02*
X18200000Y48718572D01*
X18200000Y48509048D02*
X18200000Y48909048D01*
X18447619Y48509048D02*
X18409523Y48528096D01*
X18390476Y48547143D01*
X18371428Y48585239D01*
X18371428Y48699524D01*
X18390476Y48737620D01*
X18409523Y48756667D01*
X18447619Y48775715D01*
X18504761Y48775715D01*
X18542857Y48756667D01*
X18561904Y48737620D01*
X18580952Y48699524D01*
X18580952Y48585239D01*
X18561904Y48547143D01*
X18542857Y48528096D01*
X18504761Y48509048D01*
X18447619Y48509048D01*
X18809523Y48509048D02*
X18771428Y48528096D01*
X18752380Y48566191D01*
X18752380Y48909048D01*
X19114285Y48528096D02*
X19076190Y48509048D01*
X19000000Y48509048D01*
X18961904Y48528096D01*
X18942857Y48566191D01*
X18942857Y48718572D01*
X18961904Y48756667D01*
X19000000Y48775715D01*
X19076190Y48775715D01*
X19114285Y48756667D01*
X19133333Y48718572D01*
X19133333Y48680477D01*
X18942857Y48642381D01*
X16995238Y49309048D02*
X16995238Y49709048D01*
X16995238Y49518572D02*
X17223809Y49518572D01*
X17223809Y49309048D02*
X17223809Y49709048D01*
X17585714Y49575715D02*
X17585714Y49309048D01*
X17490476Y49728096D02*
X17395238Y49442381D01*
X17642857Y49442381D01*
X8800476Y48756548D02*
X8800476Y48432739D01*
X8819523Y48394643D01*
X8838571Y48375596D01*
X8876666Y48356548D01*
X8952857Y48356548D01*
X8990952Y48375596D01*
X9010000Y48394643D01*
X9029047Y48432739D01*
X9029047Y48756548D01*
X9200476Y48375596D02*
X9257619Y48356548D01*
X9352857Y48356548D01*
X9390952Y48375596D01*
X9410000Y48394643D01*
X9429047Y48432739D01*
X9429047Y48470834D01*
X9410000Y48508929D01*
X9390952Y48527977D01*
X9352857Y48547024D01*
X9276666Y48566072D01*
X9238571Y48585120D01*
X9219523Y48604167D01*
X9200476Y48642262D01*
X9200476Y48680358D01*
X9219523Y48718453D01*
X9238571Y48737500D01*
X9276666Y48756548D01*
X9371904Y48756548D01*
X9429047Y48737500D01*
X9733809Y48566072D02*
X9790952Y48547024D01*
X9810000Y48527977D01*
X9829047Y48489881D01*
X9829047Y48432739D01*
X9810000Y48394643D01*
X9790952Y48375596D01*
X9752857Y48356548D01*
X9600476Y48356548D01*
X9600476Y48756548D01*
X9733809Y48756548D01*
X9771904Y48737500D01*
X9790952Y48718453D01*
X9810000Y48680358D01*
X9810000Y48642262D01*
X9790952Y48604167D01*
X9771904Y48585120D01*
X9733809Y48566072D01*
X9600476Y48566072D01*
X9905238Y48318453D02*
X10210000Y48318453D01*
X10438571Y48566072D02*
X10495714Y48547024D01*
X10514761Y48527977D01*
X10533809Y48489881D01*
X10533809Y48432739D01*
X10514761Y48394643D01*
X10495714Y48375596D01*
X10457619Y48356548D01*
X10305238Y48356548D01*
X10305238Y48756548D01*
X10438571Y48756548D01*
X10476666Y48737500D01*
X10495714Y48718453D01*
X10514761Y48680358D01*
X10514761Y48642262D01*
X10495714Y48604167D01*
X10476666Y48585120D01*
X10438571Y48566072D01*
X10305238Y48566072D01*
X10610000Y48318453D02*
X10914761Y48318453D01*
X11010000Y48356548D02*
X11010000Y48756548D01*
X11143333Y48470834D01*
X11276666Y48756548D01*
X11276666Y48356548D01*
X11467142Y48356548D02*
X11467142Y48623215D01*
X11467142Y48756548D02*
X11448095Y48737500D01*
X11467142Y48718453D01*
X11486190Y48737500D01*
X11467142Y48756548D01*
X11467142Y48718453D01*
X11829047Y48375596D02*
X11790952Y48356548D01*
X11714761Y48356548D01*
X11676666Y48375596D01*
X11657619Y48394643D01*
X11638571Y48432739D01*
X11638571Y48547024D01*
X11657619Y48585120D01*
X11676666Y48604167D01*
X11714761Y48623215D01*
X11790952Y48623215D01*
X11829047Y48604167D01*
X12000476Y48356548D02*
X12000476Y48623215D01*
X12000476Y48547024D02*
X12019523Y48585120D01*
X12038571Y48604167D01*
X12076666Y48623215D01*
X12114761Y48623215D01*
X12305238Y48356548D02*
X12267142Y48375596D01*
X12248095Y48394643D01*
X12229047Y48432739D01*
X12229047Y48547024D01*
X12248095Y48585120D01*
X12267142Y48604167D01*
X12305238Y48623215D01*
X12362380Y48623215D01*
X12400476Y48604167D01*
X12419523Y48585120D01*
X12438571Y48547024D01*
X12438571Y48432739D01*
X12419523Y48394643D01*
X12400476Y48375596D01*
X12362380Y48356548D01*
X12305238Y48356548D01*
X10376666Y49506548D02*
X10376666Y49220834D01*
X10357619Y49163691D01*
X10319523Y49125596D01*
X10262380Y49106548D01*
X10224285Y49106548D01*
X10738571Y49506548D02*
X10662380Y49506548D01*
X10624285Y49487500D01*
X10605238Y49468453D01*
X10567142Y49411310D01*
X10548095Y49335120D01*
X10548095Y49182739D01*
X10567142Y49144643D01*
X10586190Y49125596D01*
X10624285Y49106548D01*
X10700476Y49106548D01*
X10738571Y49125596D01*
X10757619Y49144643D01*
X10776666Y49182739D01*
X10776666Y49277977D01*
X10757619Y49316072D01*
X10738571Y49335120D01*
X10700476Y49354167D01*
X10624285Y49354167D01*
X10586190Y49335120D01*
X10567142Y49316072D01*
X10548095Y49277977D01*
X2285714Y48509048D02*
X2285714Y48909048D01*
X2419047Y48623334D01*
X2552380Y48909048D01*
X2552380Y48509048D01*
X2800000Y48509048D02*
X2761904Y48528096D01*
X2742857Y48547143D01*
X2723809Y48585239D01*
X2723809Y48699524D01*
X2742857Y48737620D01*
X2761904Y48756667D01*
X2800000Y48775715D01*
X2857142Y48775715D01*
X2895238Y48756667D01*
X2914285Y48737620D01*
X2933333Y48699524D01*
X2933333Y48585239D01*
X2914285Y48547143D01*
X2895238Y48528096D01*
X2857142Y48509048D01*
X2800000Y48509048D01*
X3276190Y48775715D02*
X3276190Y48509048D01*
X3104761Y48775715D02*
X3104761Y48566191D01*
X3123809Y48528096D01*
X3161904Y48509048D01*
X3219047Y48509048D01*
X3257142Y48528096D01*
X3276190Y48547143D01*
X3466666Y48775715D02*
X3466666Y48509048D01*
X3466666Y48737620D02*
X3485714Y48756667D01*
X3523809Y48775715D01*
X3580952Y48775715D01*
X3619047Y48756667D01*
X3638095Y48718572D01*
X3638095Y48509048D01*
X3771428Y48775715D02*
X3923809Y48775715D01*
X3828571Y48909048D02*
X3828571Y48566191D01*
X3847619Y48528096D01*
X3885714Y48509048D01*
X3923809Y48509048D01*
X4057142Y48509048D02*
X4057142Y48775715D01*
X4057142Y48909048D02*
X4038095Y48890000D01*
X4057142Y48870953D01*
X4076190Y48890000D01*
X4057142Y48909048D01*
X4057142Y48870953D01*
X4247619Y48775715D02*
X4247619Y48509048D01*
X4247619Y48737620D02*
X4266666Y48756667D01*
X4304761Y48775715D01*
X4361904Y48775715D01*
X4400000Y48756667D01*
X4419047Y48718572D01*
X4419047Y48509048D01*
X4780952Y48775715D02*
X4780952Y48451905D01*
X4761904Y48413810D01*
X4742857Y48394762D01*
X4704761Y48375715D01*
X4647619Y48375715D01*
X4609523Y48394762D01*
X4780952Y48528096D02*
X4742857Y48509048D01*
X4666666Y48509048D01*
X4628571Y48528096D01*
X4609523Y48547143D01*
X4590476Y48585239D01*
X4590476Y48699524D01*
X4609523Y48737620D01*
X4628571Y48756667D01*
X4666666Y48775715D01*
X4742857Y48775715D01*
X4780952Y48756667D01*
X4971428Y48509048D02*
X4971428Y48909048D01*
X4971428Y48718572D02*
X5200000Y48718572D01*
X5200000Y48509048D02*
X5200000Y48909048D01*
X5447619Y48509048D02*
X5409523Y48528096D01*
X5390476Y48547143D01*
X5371428Y48585239D01*
X5371428Y48699524D01*
X5390476Y48737620D01*
X5409523Y48756667D01*
X5447619Y48775715D01*
X5504761Y48775715D01*
X5542857Y48756667D01*
X5561904Y48737620D01*
X5580952Y48699524D01*
X5580952Y48585239D01*
X5561904Y48547143D01*
X5542857Y48528096D01*
X5504761Y48509048D01*
X5447619Y48509048D01*
X5809523Y48509048D02*
X5771428Y48528096D01*
X5752380Y48566191D01*
X5752380Y48909048D01*
X6114285Y48528096D02*
X6076190Y48509048D01*
X6000000Y48509048D01*
X5961904Y48528096D01*
X5942857Y48566191D01*
X5942857Y48718572D01*
X5961904Y48756667D01*
X6000000Y48775715D01*
X6076190Y48775715D01*
X6114285Y48756667D01*
X6133333Y48718572D01*
X6133333Y48680477D01*
X5942857Y48642381D01*
X3995238Y49309048D02*
X3995238Y49709048D01*
X3995238Y49518572D02*
X4223809Y49518572D01*
X4223809Y49309048D02*
X4223809Y49709048D01*
X4623809Y49309048D02*
X4395238Y49309048D01*
X4509523Y49309048D02*
X4509523Y49709048D01*
X4471428Y49651905D01*
X4433333Y49613810D01*
X4395238Y49594762D01*
X3995238Y49309048D02*
X3995238Y49709048D01*
X3995238Y49518572D02*
X4223809Y49518572D01*
X4223809Y49309048D02*
X4223809Y49709048D01*
X4623809Y49309048D02*
X4395238Y49309048D01*
X4509523Y49309048D02*
X4509523Y49709048D01*
X4471428Y49651905D01*
X4433333Y49613810D01*
X4395238Y49594762D01*
X5180952Y8204762D02*
X4990476Y8071429D01*
X5180952Y7976191D02*
X4780952Y7976191D01*
X4780952Y8128572D01*
X4800000Y8166667D01*
X4819047Y8185715D01*
X4857142Y8204762D01*
X4914285Y8204762D01*
X4952380Y8185715D01*
X4971428Y8166667D01*
X4990476Y8128572D01*
X4990476Y7976191D01*
X5161904Y8528572D02*
X5180952Y8490477D01*
X5180952Y8414286D01*
X5161904Y8376191D01*
X5123809Y8357143D01*
X4971428Y8357143D01*
X4933333Y8376191D01*
X4914285Y8414286D01*
X4914285Y8490477D01*
X4933333Y8528572D01*
X4971428Y8547620D01*
X5009523Y8547620D01*
X5047619Y8357143D01*
X5161904Y8700000D02*
X5180952Y8738096D01*
X5180952Y8814286D01*
X5161904Y8852381D01*
X5123809Y8871429D01*
X5104761Y8871429D01*
X5066666Y8852381D01*
X5047619Y8814286D01*
X5047619Y8757143D01*
X5028571Y8719048D01*
X4990476Y8700000D01*
X4971428Y8700000D01*
X4933333Y8719048D01*
X4914285Y8757143D01*
X4914285Y8814286D01*
X4933333Y8852381D01*
X5161904Y9195239D02*
X5180952Y9157143D01*
X5180952Y9080953D01*
X5161904Y9042858D01*
X5123809Y9023810D01*
X4971428Y9023810D01*
X4933333Y9042858D01*
X4914285Y9080953D01*
X4914285Y9157143D01*
X4933333Y9195239D01*
X4971428Y9214286D01*
X5009523Y9214286D01*
X5047619Y9023810D01*
X4914285Y9328572D02*
X4914285Y9480953D01*
X4780952Y9385715D02*
X5123809Y9385715D01*
X5161904Y9404762D01*
X5180952Y9442858D01*
X5180952Y9480953D01*
X6366666Y8538096D02*
X6423809Y8519048D01*
X6519047Y8519048D01*
X6557142Y8538096D01*
X6576190Y8557143D01*
X6595238Y8595239D01*
X6595238Y8633334D01*
X6576190Y8671429D01*
X6557142Y8690477D01*
X6519047Y8709524D01*
X6442857Y8728572D01*
X6404761Y8747620D01*
X6385714Y8766667D01*
X6366666Y8804762D01*
X6366666Y8842858D01*
X6385714Y8880953D01*
X6404761Y8900000D01*
X6442857Y8919048D01*
X6538095Y8919048D01*
X6595238Y8900000D01*
X6728571Y8919048D02*
X6823809Y8519048D01*
X6900000Y8804762D01*
X6976190Y8519048D01*
X7071428Y8919048D01*
X7433333Y8519048D02*
X7204761Y8519048D01*
X7319047Y8519048D02*
X7319047Y8919048D01*
X7280952Y8861905D01*
X7242857Y8823810D01*
X7204761Y8804762D01*
X11489047Y11024286D02*
X11470000Y11043334D01*
X11450952Y11081429D01*
X11450952Y11176667D01*
X11470000Y11214762D01*
X11489047Y11233810D01*
X11527142Y11252858D01*
X11565238Y11252858D01*
X11622380Y11233810D01*
X11850952Y11005239D01*
X11850952Y11252858D01*
X11450952Y11386191D02*
X11450952Y11652858D01*
X11850952Y11481429D01*
X11584285Y11805239D02*
X11984285Y11805239D01*
X11603333Y11805239D02*
X11584285Y11843334D01*
X11584285Y11919524D01*
X11603333Y11957620D01*
X11622380Y11976667D01*
X11660476Y11995715D01*
X11774761Y11995715D01*
X11812857Y11976667D01*
X11831904Y11957620D01*
X11850952Y11919524D01*
X11850952Y11843334D01*
X11831904Y11805239D01*
X12602857Y9852858D02*
X12621904Y9833810D01*
X12640952Y9776667D01*
X12640952Y9738572D01*
X12621904Y9681429D01*
X12583809Y9643334D01*
X12545714Y9624286D01*
X12469523Y9605239D01*
X12412380Y9605239D01*
X12336190Y9624286D01*
X12298095Y9643334D01*
X12260000Y9681429D01*
X12240952Y9738572D01*
X12240952Y9776667D01*
X12260000Y9833810D01*
X12279047Y9852858D01*
X12640952Y10233810D02*
X12640952Y10005239D01*
X12640952Y10119524D02*
X12240952Y10119524D01*
X12298095Y10081429D01*
X12336190Y10043334D01*
X12355238Y10005239D01*
X12640952Y10424286D02*
X12640952Y10500477D01*
X12621904Y10538572D01*
X12602857Y10557620D01*
X12545714Y10595715D01*
X12469523Y10614762D01*
X12317142Y10614762D01*
X12279047Y10595715D01*
X12260000Y10576667D01*
X12240952Y10538572D01*
X12240952Y10462381D01*
X12260000Y10424286D01*
X12279047Y10405239D01*
X12317142Y10386191D01*
X12412380Y10386191D01*
X12450476Y10405239D01*
X12469523Y10424286D01*
X12488571Y10462381D01*
X12488571Y10538572D01*
X12469523Y10576667D01*
X12450476Y10595715D01*
X12412380Y10614762D01*
X8960952Y29312381D02*
X8960952Y29083810D01*
X8960952Y29198096D02*
X8560952Y29198096D01*
X8618095Y29160000D01*
X8656190Y29121905D01*
X8675238Y29083810D01*
X8560952Y29560000D02*
X8560952Y29598096D01*
X8580000Y29636191D01*
X8599047Y29655239D01*
X8637142Y29674286D01*
X8713333Y29693334D01*
X8808571Y29693334D01*
X8884761Y29674286D01*
X8922857Y29655239D01*
X8941904Y29636191D01*
X8960952Y29598096D01*
X8960952Y29560000D01*
X8941904Y29521905D01*
X8922857Y29502858D01*
X8884761Y29483810D01*
X8808571Y29464762D01*
X8713333Y29464762D01*
X8637142Y29483810D01*
X8599047Y29502858D01*
X8580000Y29521905D01*
X8560952Y29560000D01*
X8560952Y29940953D02*
X8560952Y29979048D01*
X8580000Y30017143D01*
X8599047Y30036191D01*
X8637142Y30055239D01*
X8713333Y30074286D01*
X8808571Y30074286D01*
X8884761Y30055239D01*
X8922857Y30036191D01*
X8941904Y30017143D01*
X8960952Y29979048D01*
X8960952Y29940953D01*
X8941904Y29902858D01*
X8922857Y29883810D01*
X8884761Y29864762D01*
X8808571Y29845715D01*
X8713333Y29845715D01*
X8637142Y29864762D01*
X8599047Y29883810D01*
X8580000Y29902858D01*
X8560952Y29940953D01*
X8694285Y30245715D02*
X8960952Y30245715D01*
X8732380Y30245715D02*
X8713333Y30264762D01*
X8694285Y30302858D01*
X8694285Y30360000D01*
X8713333Y30398096D01*
X8751428Y30417143D01*
X8960952Y30417143D01*
X9582857Y28463334D02*
X9601904Y28444286D01*
X9620952Y28387143D01*
X9620952Y28349048D01*
X9601904Y28291905D01*
X9563809Y28253810D01*
X9525714Y28234762D01*
X9449523Y28215715D01*
X9392380Y28215715D01*
X9316190Y28234762D01*
X9278095Y28253810D01*
X9240000Y28291905D01*
X9220952Y28349048D01*
X9220952Y28387143D01*
X9240000Y28444286D01*
X9259047Y28463334D01*
X9220952Y28806191D02*
X9220952Y28730000D01*
X9240000Y28691905D01*
X9259047Y28672858D01*
X9316190Y28634762D01*
X9392380Y28615715D01*
X9544761Y28615715D01*
X9582857Y28634762D01*
X9601904Y28653810D01*
X9620952Y28691905D01*
X9620952Y28768096D01*
X9601904Y28806191D01*
X9582857Y28825239D01*
X9544761Y28844286D01*
X9449523Y28844286D01*
X9411428Y28825239D01*
X9392380Y28806191D01*
X9373333Y28768096D01*
X9373333Y28691905D01*
X9392380Y28653810D01*
X9411428Y28634762D01*
X9449523Y28615715D01*
X12574047Y30445239D02*
X12555000Y30464286D01*
X12535952Y30502381D01*
X12535952Y30597620D01*
X12555000Y30635715D01*
X12574047Y30654762D01*
X12612142Y30673810D01*
X12650238Y30673810D01*
X12707380Y30654762D01*
X12935952Y30426191D01*
X12935952Y30673810D01*
X12535952Y30807143D02*
X12535952Y31073810D01*
X12935952Y30902381D01*
X12935952Y31454762D02*
X12745476Y31321429D01*
X12935952Y31226191D02*
X12535952Y31226191D01*
X12535952Y31378572D01*
X12555000Y31416667D01*
X12574047Y31435715D01*
X12612142Y31454762D01*
X12669285Y31454762D01*
X12707380Y31435715D01*
X12726428Y31416667D01*
X12745476Y31378572D01*
X12745476Y31226191D01*
X12905952Y28583334D02*
X12715476Y28450000D01*
X12905952Y28354762D02*
X12505952Y28354762D01*
X12505952Y28507143D01*
X12525000Y28545239D01*
X12544047Y28564286D01*
X12582142Y28583334D01*
X12639285Y28583334D01*
X12677380Y28564286D01*
X12696428Y28545239D01*
X12715476Y28507143D01*
X12715476Y28354762D01*
X12505952Y28926191D02*
X12505952Y28850000D01*
X12525000Y28811905D01*
X12544047Y28792858D01*
X12601190Y28754762D01*
X12677380Y28735715D01*
X12829761Y28735715D01*
X12867857Y28754762D01*
X12886904Y28773810D01*
X12905952Y28811905D01*
X12905952Y28888096D01*
X12886904Y28926191D01*
X12867857Y28945239D01*
X12829761Y28964286D01*
X12734523Y28964286D01*
X12696428Y28945239D01*
X12677380Y28926191D01*
X12658333Y28888096D01*
X12658333Y28811905D01*
X12677380Y28773810D01*
X12696428Y28754762D01*
X12734523Y28735715D01*
X1770952Y27814286D02*
X1370952Y27814286D01*
X1561428Y27814286D02*
X1561428Y28042858D01*
X1770952Y28042858D02*
X1370952Y28042858D01*
X1751904Y28385715D02*
X1770952Y28347620D01*
X1770952Y28271429D01*
X1751904Y28233334D01*
X1713809Y28214286D01*
X1561428Y28214286D01*
X1523333Y28233334D01*
X1504285Y28271429D01*
X1504285Y28347620D01*
X1523333Y28385715D01*
X1561428Y28404762D01*
X1599523Y28404762D01*
X1637619Y28214286D01*
X1770952Y28747620D02*
X1561428Y28747620D01*
X1523333Y28728572D01*
X1504285Y28690477D01*
X1504285Y28614286D01*
X1523333Y28576191D01*
X1751904Y28747620D02*
X1770952Y28709524D01*
X1770952Y28614286D01*
X1751904Y28576191D01*
X1713809Y28557143D01*
X1675714Y28557143D01*
X1637619Y28576191D01*
X1618571Y28614286D01*
X1618571Y28709524D01*
X1599523Y28747620D01*
X1770952Y29109524D02*
X1370952Y29109524D01*
X1751904Y29109524D02*
X1770952Y29071429D01*
X1770952Y28995239D01*
X1751904Y28957143D01*
X1732857Y28938096D01*
X1694761Y28919048D01*
X1580476Y28919048D01*
X1542380Y28938096D01*
X1523333Y28957143D01*
X1504285Y28995239D01*
X1504285Y29071429D01*
X1523333Y29109524D01*
X1751904Y29452381D02*
X1770952Y29414286D01*
X1770952Y29338096D01*
X1751904Y29300000D01*
X1713809Y29280953D01*
X1561428Y29280953D01*
X1523333Y29300000D01*
X1504285Y29338096D01*
X1504285Y29414286D01*
X1523333Y29452381D01*
X1561428Y29471429D01*
X1599523Y29471429D01*
X1637619Y29280953D01*
X1770952Y29642858D02*
X1504285Y29642858D01*
X1580476Y29642858D02*
X1542380Y29661905D01*
X1523333Y29680953D01*
X1504285Y29719048D01*
X1504285Y29757143D01*
X1809047Y29795239D02*
X1809047Y30100000D01*
X1770952Y30404762D02*
X1770952Y30176191D01*
X1770952Y30290477D02*
X1370952Y30290477D01*
X1428095Y30252381D01*
X1466190Y30214286D01*
X1485238Y30176191D01*
X1380952Y25436667D02*
X1666666Y25436667D01*
X1723809Y25417620D01*
X1761904Y25379524D01*
X1780952Y25322381D01*
X1780952Y25284286D01*
X1419047Y25608096D02*
X1400000Y25627143D01*
X1380952Y25665239D01*
X1380952Y25760477D01*
X1400000Y25798572D01*
X1419047Y25817620D01*
X1457142Y25836667D01*
X1495238Y25836667D01*
X1552380Y25817620D01*
X1780952Y25589048D01*
X1780952Y25836667D01*
X16682619Y33800953D02*
X16701666Y33820000D01*
X16739761Y33839048D01*
X16835000Y33839048D01*
X16873095Y33820000D01*
X16892142Y33800953D01*
X16911190Y33762858D01*
X16911190Y33724762D01*
X16892142Y33667620D01*
X16663571Y33439048D01*
X16911190Y33439048D01*
X17082619Y33477143D02*
X17101666Y33458096D01*
X17082619Y33439048D01*
X17063571Y33458096D01*
X17082619Y33477143D01*
X17082619Y33439048D01*
X17254047Y33800953D02*
X17273095Y33820000D01*
X17311190Y33839048D01*
X17406428Y33839048D01*
X17444523Y33820000D01*
X17463571Y33800953D01*
X17482619Y33762858D01*
X17482619Y33724762D01*
X17463571Y33667620D01*
X17235000Y33439048D01*
X17482619Y33439048D01*
X17825476Y33705715D02*
X17825476Y33439048D01*
X17654047Y33705715D02*
X17654047Y33496191D01*
X17673095Y33458096D01*
X17711190Y33439048D01*
X17768333Y33439048D01*
X17806428Y33458096D01*
X17825476Y33477143D01*
X18149285Y33648572D02*
X18015952Y33648572D01*
X18015952Y33439048D02*
X18015952Y33839048D01*
X18206428Y33839048D01*
X15077857Y33457143D02*
X15058809Y33438096D01*
X15001666Y33419048D01*
X14963571Y33419048D01*
X14906428Y33438096D01*
X14868333Y33476191D01*
X14849285Y33514286D01*
X14830238Y33590477D01*
X14830238Y33647620D01*
X14849285Y33723810D01*
X14868333Y33761905D01*
X14906428Y33800000D01*
X14963571Y33819048D01*
X15001666Y33819048D01*
X15058809Y33800000D01*
X15077857Y33780953D01*
X15458809Y33419048D02*
X15230238Y33419048D01*
X15344523Y33419048D02*
X15344523Y33819048D01*
X15306428Y33761905D01*
X15268333Y33723810D01*
X15230238Y33704762D01*
X15611190Y33780953D02*
X15630238Y33800000D01*
X15668333Y33819048D01*
X15763571Y33819048D01*
X15801666Y33800000D01*
X15820714Y33780953D01*
X15839761Y33742858D01*
X15839761Y33704762D01*
X15820714Y33647620D01*
X15592142Y33419048D01*
X15839761Y33419048D01*
X17246666Y27972381D02*
X17246666Y28162858D01*
X17360952Y27934286D02*
X16960952Y28067620D01*
X17360952Y28200953D01*
X17360952Y28562858D02*
X17170476Y28429524D01*
X17360952Y28334286D02*
X16960952Y28334286D01*
X16960952Y28486667D01*
X16980000Y28524762D01*
X16999047Y28543810D01*
X17037142Y28562858D01*
X17094285Y28562858D01*
X17132380Y28543810D01*
X17151428Y28524762D01*
X17170476Y28486667D01*
X17170476Y28334286D01*
X17151428Y28734286D02*
X17151428Y28867620D01*
X17360952Y28924762D02*
X17360952Y28734286D01*
X16960952Y28734286D01*
X16960952Y28924762D01*
X17151428Y29229524D02*
X17151428Y29096191D01*
X17360952Y29096191D02*
X16960952Y29096191D01*
X16960952Y29286667D01*
X16130952Y29426667D02*
X16416666Y29426667D01*
X16473809Y29407620D01*
X16511904Y29369524D01*
X16530952Y29312381D01*
X16530952Y29274286D01*
X16530952Y29617143D02*
X16130952Y29617143D01*
X16130952Y29769524D01*
X16150000Y29807620D01*
X16169047Y29826667D01*
X16207142Y29845715D01*
X16264285Y29845715D01*
X16302380Y29826667D01*
X16321428Y29807620D01*
X16340476Y29769524D01*
X16340476Y29617143D01*
X16130952Y30207620D02*
X16130952Y30017143D01*
X16321428Y29998096D01*
X16302380Y30017143D01*
X16283333Y30055239D01*
X16283333Y30150477D01*
X16302380Y30188572D01*
X16321428Y30207620D01*
X16359523Y30226667D01*
X16454761Y30226667D01*
X16492857Y30207620D01*
X16511904Y30188572D01*
X16530952Y30150477D01*
X16530952Y30055239D01*
X16511904Y30017143D01*
X16492857Y29998096D01*
X12609523Y42849048D02*
X12419047Y42849048D01*
X12400000Y42658572D01*
X12419047Y42677620D01*
X12457142Y42696667D01*
X12552380Y42696667D01*
X12590476Y42677620D01*
X12609523Y42658572D01*
X12628571Y42620477D01*
X12628571Y42525239D01*
X12609523Y42487143D01*
X12590476Y42468096D01*
X12552380Y42449048D01*
X12457142Y42449048D01*
X12419047Y42468096D01*
X12400000Y42487143D01*
X12800000Y42487143D02*
X12819047Y42468096D01*
X12800000Y42449048D01*
X12780952Y42468096D01*
X12800000Y42487143D01*
X12800000Y42449048D01*
X13200000Y42449048D02*
X12971428Y42449048D01*
X13085714Y42449048D02*
X13085714Y42849048D01*
X13047619Y42791905D01*
X13009523Y42753810D01*
X12971428Y42734762D01*
X13371428Y42449048D02*
X13371428Y42849048D01*
X13600000Y42449048D02*
X13428571Y42677620D01*
X13600000Y42849048D02*
X13371428Y42620477D01*
X14333333Y43219048D02*
X14200000Y43409524D01*
X14104761Y43219048D02*
X14104761Y43619048D01*
X14257142Y43619048D01*
X14295238Y43600000D01*
X14314285Y43580953D01*
X14333333Y43542858D01*
X14333333Y43485715D01*
X14314285Y43447620D01*
X14295238Y43428572D01*
X14257142Y43409524D01*
X14104761Y43409524D01*
X14466666Y43619048D02*
X14733333Y43619048D01*
X14561904Y43219048D01*
X13850952Y34145239D02*
X13450952Y34145239D01*
X13736666Y34278572D01*
X13450952Y34411905D01*
X13850952Y34411905D01*
X13850952Y34602381D02*
X13450952Y34602381D01*
X13812857Y35021429D02*
X13831904Y35002381D01*
X13850952Y34945239D01*
X13850952Y34907143D01*
X13831904Y34850000D01*
X13793809Y34811905D01*
X13755714Y34792858D01*
X13679523Y34773810D01*
X13622380Y34773810D01*
X13546190Y34792858D01*
X13508095Y34811905D01*
X13470000Y34850000D01*
X13450952Y34907143D01*
X13450952Y34945239D01*
X13470000Y35002381D01*
X13489047Y35021429D01*
X13450952Y35383334D02*
X13450952Y35192858D01*
X13641428Y35173810D01*
X13622380Y35192858D01*
X13603333Y35230953D01*
X13603333Y35326191D01*
X13622380Y35364286D01*
X13641428Y35383334D01*
X13679523Y35402381D01*
X13774761Y35402381D01*
X13812857Y35383334D01*
X13831904Y35364286D01*
X13850952Y35326191D01*
X13850952Y35230953D01*
X13831904Y35192858D01*
X13812857Y35173810D01*
X13489047Y35554762D02*
X13470000Y35573810D01*
X13450952Y35611905D01*
X13450952Y35707143D01*
X13470000Y35745239D01*
X13489047Y35764286D01*
X13527142Y35783334D01*
X13565238Y35783334D01*
X13622380Y35764286D01*
X13850952Y35535715D01*
X13850952Y35783334D01*
X13850952Y36164286D02*
X13850952Y35935715D01*
X13850952Y36050000D02*
X13450952Y36050000D01*
X13508095Y36011905D01*
X13546190Y35973810D01*
X13565238Y35935715D01*
X13850952Y36354762D02*
X13850952Y36430953D01*
X13831904Y36469048D01*
X13812857Y36488096D01*
X13755714Y36526191D01*
X13679523Y36545239D01*
X13527142Y36545239D01*
X13489047Y36526191D01*
X13470000Y36507143D01*
X13450952Y36469048D01*
X13450952Y36392858D01*
X13470000Y36354762D01*
X13489047Y36335715D01*
X13527142Y36316667D01*
X13622380Y36316667D01*
X13660476Y36335715D01*
X13679523Y36354762D01*
X13698571Y36392858D01*
X13698571Y36469048D01*
X13679523Y36507143D01*
X13660476Y36526191D01*
X13622380Y36545239D01*
X13698571Y36716667D02*
X13698571Y37021429D01*
X13450952Y37173810D02*
X13450952Y37421429D01*
X13603333Y37288096D01*
X13603333Y37345239D01*
X13622380Y37383334D01*
X13641428Y37402381D01*
X13679523Y37421429D01*
X13774761Y37421429D01*
X13812857Y37402381D01*
X13831904Y37383334D01*
X13850952Y37345239D01*
X13850952Y37230953D01*
X13831904Y37192858D01*
X13812857Y37173810D01*
X13812857Y37592858D02*
X13831904Y37611905D01*
X13850952Y37592858D01*
X13831904Y37573810D01*
X13812857Y37592858D01*
X13850952Y37592858D01*
X13450952Y37745239D02*
X13450952Y37992858D01*
X13603333Y37859524D01*
X13603333Y37916667D01*
X13622380Y37954762D01*
X13641428Y37973810D01*
X13679523Y37992858D01*
X13774761Y37992858D01*
X13812857Y37973810D01*
X13831904Y37954762D01*
X13850952Y37916667D01*
X13850952Y37802381D01*
X13831904Y37764286D01*
X13812857Y37745239D01*
X13660476Y38240477D02*
X13850952Y38240477D01*
X13450952Y38107143D02*
X13660476Y38240477D01*
X13450952Y38373810D01*
X13850952Y38507143D02*
X13450952Y38507143D01*
X13736666Y38640477D01*
X13450952Y38773810D01*
X13850952Y38773810D01*
X13450952Y39154762D02*
X13450952Y38964286D01*
X13641428Y38945239D01*
X13622380Y38964286D01*
X13603333Y39002381D01*
X13603333Y39097620D01*
X13622380Y39135715D01*
X13641428Y39154762D01*
X13679523Y39173810D01*
X13774761Y39173810D01*
X13812857Y39154762D01*
X13831904Y39135715D01*
X13850952Y39097620D01*
X13850952Y39002381D01*
X13831904Y38964286D01*
X13812857Y38945239D01*
X14745238Y36449048D02*
X14745238Y36125239D01*
X14764285Y36087143D01*
X14783333Y36068096D01*
X14821428Y36049048D01*
X14897619Y36049048D01*
X14935714Y36068096D01*
X14954761Y36087143D01*
X14973809Y36125239D01*
X14973809Y36449048D01*
X15145238Y36410953D02*
X15164285Y36430000D01*
X15202380Y36449048D01*
X15297619Y36449048D01*
X15335714Y36430000D01*
X15354761Y36410953D01*
X15373809Y36372858D01*
X15373809Y36334762D01*
X15354761Y36277620D01*
X15126190Y36049048D01*
X15373809Y36049048D01*
D12*
X17570000Y18465000D02*
X17030000Y18465000D01*
X17030000Y18465000D02*
X17030000Y19515000D01*
X17570000Y19515000D02*
X17570000Y18465000D01*
X17030000Y19515000D02*
X17570000Y19515000D01*
X16630000Y15250000D02*
X16630000Y16850000D01*
X17430000Y16850000D02*
X17430000Y15250000D01*
X17430000Y15250000D02*
X16630000Y15250000D01*
X16630000Y16850000D02*
X17430000Y16850000D01*
X9740000Y10920000D02*
X9740000Y11920000D01*
X10240000Y10920000D02*
X9740000Y10920000D01*
X10240000Y11920000D02*
X10240000Y10920000D01*
X9740000Y11920000D02*
X10240000Y11920000D01*
X5680000Y28010000D02*
X6180000Y28010000D01*
X6180000Y28010000D02*
X6180000Y27010000D01*
X6180000Y27010000D02*
X5680000Y27010000D01*
X5680000Y27010000D02*
X5680000Y28010000D01*
X15190000Y9087500D02*
X15190000Y9912500D01*
X16790000Y9912500D02*
X16790000Y9087500D01*
X15190000Y9912500D02*
X16790000Y9912500D01*
X16790000Y9087500D02*
X15190000Y9087500D01*
X15445000Y39870000D02*
X16495000Y39870000D01*
X16495000Y39330000D02*
X15445000Y39330000D01*
X15445000Y39330000D02*
X15445000Y39870000D01*
X16495000Y39870000D02*
X16495000Y39330000D01*
X13690000Y41290000D02*
X14490000Y41290000D01*
X13690000Y39690000D02*
X13690000Y41290000D01*
X14490000Y41290000D02*
X14490000Y39690000D01*
X14490000Y39690000D02*
X13690000Y39690000D01*
X5550000Y21980000D02*
X6050000Y21980000D01*
X6050000Y20980000D02*
X5550000Y20980000D01*
X5550000Y20980000D02*
X5550000Y21980000D01*
X6050000Y21980000D02*
X6050000Y20980000D01*
X14355000Y30230000D02*
X14855000Y30230000D01*
X14355000Y29230000D02*
X14355000Y30230000D01*
X14855000Y30230000D02*
X14855000Y29230000D01*
X14855000Y29230000D02*
X14355000Y29230000D01*
X7410000Y12590000D02*
X7410000Y12090000D01*
X6410000Y12090000D02*
X6410000Y12590000D01*
X6410000Y12590000D02*
X7410000Y12590000D01*
X7410000Y12090000D02*
X6410000Y12090000D01*
X9425000Y31900000D02*
X9425000Y31360000D01*
X8375000Y31360000D02*
X8375000Y31900000D01*
X8375000Y31900000D02*
X9425000Y31900000D01*
X9425000Y31360000D02*
X8375000Y31360000D01*
X15945000Y10590000D02*
X15945000Y11130000D01*
X16995000Y11130000D02*
X16995000Y10590000D01*
X16995000Y10590000D02*
X15945000Y10590000D01*
X15945000Y11130000D02*
X16995000Y11130000D01*
X10290000Y17945000D02*
X10290000Y16895000D01*
X9750000Y16895000D02*
X9750000Y17945000D01*
X10290000Y16895000D02*
X9750000Y16895000D01*
X9750000Y17945000D02*
X10290000Y17945000D01*
X16880000Y27080000D02*
X16880000Y26580000D01*
X15880000Y27080000D02*
X16880000Y27080000D01*
X16880000Y26580000D02*
X15880000Y26580000D01*
X15880000Y26580000D02*
X15880000Y27080000D01*
X9600000Y14150000D02*
X10600000Y13150000D01*
X9600000Y13150000D02*
X12800000Y13150000D01*
X9600000Y15650000D02*
X9600000Y13150000D01*
X12800000Y15650000D02*
X9600000Y15650000D01*
X12800000Y13150000D02*
X12800000Y15650000D01*
X14320000Y27130000D02*
X14320000Y20130000D01*
X14320000Y20130000D02*
X7320000Y20130000D01*
X7320000Y20130000D02*
X7320000Y26130000D01*
X7320000Y26130000D02*
X8320000Y27130000D01*
X8320000Y27130000D02*
X14320000Y27130000D01*
X11455000Y30275000D02*
X11995000Y30275000D01*
X11995000Y30275000D02*
X11995000Y29225000D01*
X11455000Y29225000D02*
X11455000Y30275000D01*
X11995000Y29225000D02*
X11455000Y29225000D01*
X8375000Y30230000D02*
X8375000Y29230000D01*
X7875000Y30230000D02*
X8375000Y30230000D01*
X7875000Y29230000D02*
X7875000Y30230000D01*
X8375000Y29230000D02*
X7875000Y29230000D01*
X10900000Y17930000D02*
X11400000Y17930000D01*
X10900000Y16930000D02*
X10900000Y17930000D01*
X11400000Y17930000D02*
X11400000Y16930000D01*
X11400000Y16930000D02*
X10900000Y16930000D01*
X5945000Y34635000D02*
X4945000Y35635000D01*
X4945000Y39865000D02*
X10175000Y39865000D01*
X10175000Y39865000D02*
X10175000Y34635000D01*
X10175000Y34635000D02*
X5945000Y34635000D01*
X4945000Y35635000D02*
X4945000Y39865000D01*
X10570000Y30225000D02*
X10570000Y29225000D01*
X10070000Y29225000D02*
X10070000Y30225000D01*
X10570000Y29225000D02*
X10070000Y29225000D01*
X10070000Y30225000D02*
X10570000Y30225000D01*
X5945000Y31900000D02*
X6995000Y31900000D01*
X5945000Y31360000D02*
X5945000Y31900000D01*
X6995000Y31360000D02*
X5945000Y31360000D01*
X6995000Y31900000D02*
X6995000Y31360000D01*
X13380000Y30240000D02*
X13880000Y30240000D01*
X13880000Y30240000D02*
X13880000Y29240000D01*
X13880000Y29240000D02*
X13380000Y29240000D01*
X13380000Y29240000D02*
X13380000Y30240000D01*
X5710000Y42850000D02*
X6710000Y42850000D01*
X6710000Y42850000D02*
X6710000Y42350000D01*
X6710000Y42350000D02*
X5710000Y42350000D01*
X5710000Y42350000D02*
X5710000Y42850000D01*
X16475000Y40360000D02*
X15425000Y40360000D01*
X15425000Y40900000D02*
X16475000Y40900000D01*
X16475000Y40900000D02*
X16475000Y40360000D01*
X15425000Y40360000D02*
X15425000Y40900000D01*
X14300000Y330000D02*
X7315000Y330000D01*
X14300000Y2870000D02*
X14300000Y330000D01*
X7315000Y330000D02*
X6680000Y965000D01*
X6680000Y965000D02*
X6680000Y2870000D01*
X6680000Y2870000D02*
X14300000Y2870000D01*
X6385000Y13670000D02*
X7435000Y13670000D01*
X7435000Y13670000D02*
X7435000Y13130000D01*
X6385000Y13130000D02*
X6385000Y13670000D01*
X7435000Y13130000D02*
X6385000Y13130000D01*
X12420000Y17930000D02*
X12420000Y16930000D01*
X11920000Y16930000D02*
X11920000Y17930000D01*
X11920000Y17930000D02*
X12420000Y17930000D01*
X12420000Y16930000D02*
X11920000Y16930000D01*
X16450000Y18810000D02*
X15950000Y18810000D01*
X15950000Y19810000D02*
X16450000Y19810000D01*
X16450000Y19810000D02*
X16450000Y18810000D01*
X15950000Y18810000D02*
X15950000Y19810000D01*
X16390000Y32320000D02*
X16390000Y31520000D01*
X14790000Y32320000D02*
X16390000Y32320000D01*
X14790000Y31520000D02*
X14790000Y32320000D01*
X16390000Y31520000D02*
X14790000Y31520000D01*
X14710000Y51070000D02*
X6310000Y51070000D01*
X14910000Y45070000D02*
X6110000Y45070000D01*
X6110000Y45070000D02*
X6110000Y52170000D01*
X6110000Y52170000D02*
X14910000Y52170000D01*
X14910000Y52170000D02*
X14910000Y45070000D01*
X16470000Y38790000D02*
X16470000Y38290000D01*
X15470000Y38290000D02*
X15470000Y38790000D01*
X15470000Y38790000D02*
X16470000Y38790000D01*
X16470000Y38290000D02*
X15470000Y38290000D01*
X15425000Y41330000D02*
X15425000Y41870000D01*
X15425000Y41870000D02*
X16475000Y41870000D01*
X16475000Y41330000D02*
X15425000Y41330000D01*
X16475000Y41870000D02*
X16475000Y41330000D01*
X7925000Y42330000D02*
X7925000Y42870000D01*
X8975000Y42870000D02*
X8975000Y42330000D01*
X7925000Y42870000D02*
X8975000Y42870000D01*
X8975000Y42330000D02*
X7925000Y42330000D01*
X16500000Y44750000D02*
X17300000Y44750000D01*
X17300000Y44750000D02*
X16900000Y44150000D01*
X16900000Y43750000D02*
X16900000Y44150000D01*
X16900000Y44150000D02*
X16500000Y44750000D01*
X16000000Y45900000D02*
X17800000Y45900000D01*
X16000000Y43100000D02*
X16000000Y45900000D01*
X17800000Y43100000D02*
X16000000Y43100000D01*
X16900000Y44150000D02*
X17450000Y44150000D01*
X17800000Y45900000D02*
X17800000Y43100000D01*
X16900000Y44150000D02*
X16350000Y44150000D01*
X16900000Y44750000D02*
X16900000Y45250000D01*
X12010000Y46277500D02*
X11610000Y46277500D01*
X14260000Y51789204D02*
X6760000Y51789204D01*
X6760000Y51787500D02*
X6760000Y46787500D01*
X11610000Y46487500D02*
X11810000Y46687500D01*
X14260000Y51787500D02*
X14260000Y46787500D01*
X11610000Y46277500D02*
X11610000Y46487500D01*
X12010000Y46277500D02*
X12010000Y46487500D01*
X11810000Y46687500D02*
X12010000Y46487500D01*
X14260000Y46787500D02*
X6760000Y46787500D01*
X13510000Y51089204D02*
X7510000Y51089204D01*
X8350000Y8700000D02*
X8350000Y10650000D01*
X5450000Y10650000D02*
X5450000Y6750000D01*
X7550000Y11150000D02*
X7550000Y10650000D01*
X7550000Y11150000D02*
X6250000Y11150000D01*
X8350000Y6750000D02*
X8350000Y8700000D01*
X6250000Y6250000D02*
X6250000Y6750000D01*
X7550000Y6250000D02*
X7550000Y6750000D01*
X6250000Y11150000D02*
X6250000Y10650000D01*
X8350000Y10650000D02*
X5450000Y10650000D01*
X7550000Y6250000D02*
X6250000Y6250000D01*
X5450000Y6750000D02*
X8350000Y6750000D01*
X7800000Y8700000D02*
G75*
G03*
X7800000Y8700000I-900000J0D01*
G01*
X12680000Y11910000D02*
X12680000Y10910000D01*
X12680000Y10910000D02*
X12180000Y10910000D01*
X12180000Y10910000D02*
X12180000Y11910000D01*
X12180000Y11910000D02*
X12680000Y11910000D01*
X9170000Y29230000D02*
X9170000Y30230000D01*
X9170000Y30230000D02*
X9670000Y30230000D01*
X9670000Y30230000D02*
X9670000Y29230000D01*
X9670000Y29230000D02*
X9170000Y29230000D01*
X12995000Y30275000D02*
X12995000Y29225000D01*
X12995000Y29225000D02*
X12455000Y29225000D01*
X12455000Y30275000D02*
X12995000Y30275000D01*
X12455000Y29225000D02*
X12455000Y30275000D01*
X2870000Y50970000D02*
X2870000Y170000D01*
X965000Y50970000D02*
X2870000Y50970000D01*
X330000Y50335000D02*
X965000Y50970000D01*
X330000Y170000D02*
X330000Y50335000D01*
X2870000Y170000D02*
X330000Y170000D01*
X14335000Y32975000D02*
X16335000Y32975000D01*
X14335000Y33912500D02*
X14335000Y32975000D01*
X16335000Y34225000D02*
X14647500Y34225000D01*
X16335000Y32975000D02*
X16335000Y34225000D01*
X14647500Y34225000D02*
X14335000Y33912500D01*
X16080000Y29085000D02*
X16620000Y29085000D01*
X16620000Y29085000D02*
X16620000Y28035000D01*
X16080000Y28035000D02*
X16080000Y29085000D01*
X16620000Y28035000D02*
X16080000Y28035000D01*
X14925000Y42970000D02*
X14925000Y42430000D01*
X14925000Y42430000D02*
X13875000Y42430000D01*
X13875000Y42430000D02*
X13875000Y42970000D01*
X13875000Y42970000D02*
X14925000Y42970000D01*
X14250000Y34780000D02*
X14250000Y37680000D01*
X15850000Y35180000D02*
X15450000Y34780000D01*
X15450000Y34780000D02*
X14250000Y34780000D01*
X14250000Y37680000D02*
X15850000Y37680000D01*
X15850000Y37680000D02*
X15850000Y35180000D01*
M02*
