M48
; DRILL file {KiCad (6.0.6)} date Sat Aug 20 10:32:54 2022
; FORMAT={-:-/ absolute / metric / decimal}
; #@! TF.CreationDate,2022-08-20T10:32:54+05:30
; #@! TF.GenerationSoftware,Kicad,Pcbnew,(6.0.6)
; #@! TF.FileFunction,Plated,1,2,PTH
FMAT,2
METRIC
; #@! TA.AperFunction,Plated,PTH,ViaDrill
T1C0.300
; #@! TA.AperFunction,Plated,PTH,ComponentDrill
T2C0.350
; #@! TA.AperFunction,Plated,PTH,ComponentDrill
T3C0.600
; #@! TA.AperFunction,Plated,PTH,ComponentDrill
T4C0.850
; #@! TA.AperFunction,Plated,PTH,ComponentDrill
T5C1.000
%
G90
G05
T1
X2.3Y10.3
X2.3Y7.8
X2.3Y5.2
X2.3Y2.8
X2.5Y23.0
X2.5Y20.5
X2.5Y18.0
X2.6Y33.2
X2.6Y30.6
X3.0Y43.1
X3.0Y15.8
X3.0Y15.1
X3.3Y45.0
X3.3Y40.8
X3.3Y38.2
X3.3Y35.5
X3.7Y46.6
X3.8Y12.5
X4.6Y48.0
X4.6Y6.8
X4.6Y6.0
X4.6Y5.2
X4.8Y20.4
X5.05Y26.4
X5.5Y43.6
X5.8Y18.2
X5.8Y2.2
X5.8Y1.4
X5.8Y0.6
X5.9Y19.9
X6.154Y14.946
X6.2Y47.3
X6.279Y25.436
X6.3Y43.6
X6.4Y32.4
X6.6Y35.5
X6.9Y20.4
X7.0Y15.8
X7.1Y30.0
X7.1Y29.2
X7.1Y28.196
X7.354Y34.863
X7.5Y16.3
X7.8Y9.3
X7.949Y32.4
X8.27Y25.518
X8.3Y24.1
X8.314Y21.261
X8.422Y26.2
X8.44Y21.977
X8.5Y23.1
X8.6Y28.1
X8.6Y13.7
X8.8Y9.3
X9.0Y21.4
X9.043Y25.684
X9.3Y45.813
X9.4Y4.0
X9.6Y39.2
X9.741Y25.894
X9.8Y35.6
X9.8Y9.3
X10.0Y42.5
X10.029Y21.571
X10.133Y32.697
X10.149Y31.6
X10.2Y38.1
X10.2Y36.8
X10.4Y41.3
X10.4Y40.1
X10.44Y25.926
X10.5Y48.2
X10.5Y4.0
X10.827Y18.829
X11.078Y29.719
X11.2Y12.1
X11.2Y10.5
X11.3Y21.181
X11.516Y19.0
X11.6Y4.0
X11.809Y45.645
X12.9Y17.5
X13.1Y18.8
X13.3Y42.0
X13.3Y33.5
X13.3Y32.6
X13.349Y21.447
X13.6Y13.0
X13.774Y19.213
X13.8Y31.8
X14.0Y26.9
X14.0Y11.1
X14.05Y20.4
X14.064Y9.336
X14.1Y36.4
X14.38Y27.5
X14.4Y18.9
X14.9Y2.2
X14.9Y1.4
X14.9Y0.6
X15.1Y35.7
X15.3Y34.5
X15.4Y30.3
X15.55Y27.7
X15.66Y20.56
X15.674Y21.324
X15.682Y26.004
X15.802Y22.011
X15.9Y44.1
X16.363Y25.846
X16.8Y25.3
X16.951Y22.456
X17.043Y23.149
X17.151Y32.738
X17.236Y27.764
X17.25Y40.8
X17.273Y29.427
X17.4Y31.3
X17.598Y23.575
X17.8Y47.1
X18.3Y5.2
X18.4Y25.6
X18.4Y15.4
X18.4Y12.9
X18.4Y10.4
X18.4Y7.8
X18.4Y2.8
X18.5Y43.3
X18.5Y38.3
X18.5Y35.7
X18.5Y18.0
T2
X9.545Y24.905
X9.545Y23.63
X9.545Y22.355
X10.82Y24.905
X10.82Y23.63
X10.82Y22.355
X12.095Y24.905
X12.095Y23.63
X12.095Y22.355
T4
X8.01Y46.938
X13.01Y46.938
T5
X-0.01Y49.7
X-0.01Y47.16
X-0.01Y44.62
X-0.01Y42.08
X-0.01Y39.54
X-0.01Y37.0
X-0.01Y34.46
X-0.01Y31.92
X-0.01Y29.38
X-0.01Y26.84
X-0.01Y24.3
X-0.01Y21.76
X-0.01Y19.22
X-0.01Y16.68
X-0.01Y14.14
X-0.01Y11.6
X-0.01Y9.06
X-0.01Y6.52
X-0.01Y3.98
X-0.01Y1.44
X1.6Y49.7
X1.6Y47.16
X1.6Y44.62
X1.6Y42.08
X1.6Y39.54
X1.6Y37.0
X1.6Y34.46
X1.6Y31.92
X1.6Y29.38
X1.6Y26.84
X1.6Y24.3
X1.6Y21.76
X1.6Y19.22
X1.6Y16.68
X1.6Y14.14
X1.6Y11.6
X1.6Y9.06
X1.6Y6.52
X1.6Y3.98
X1.6Y1.44
X7.95Y1.6
X7.95Y-0.01
X10.49Y1.6
X10.49Y-0.01
X13.03Y1.6
X13.03Y-0.01
X19.4Y49.7
X19.4Y47.16
X19.4Y44.62
X19.4Y42.08
X19.4Y39.54
X19.4Y37.0
X19.4Y34.46
X19.4Y31.92
X19.4Y29.38
X19.4Y26.84
X19.4Y24.3
X19.4Y21.76
X19.4Y19.22
X19.4Y16.68
X19.4Y14.14
X19.4Y11.6
X19.4Y9.06
X19.4Y6.52
X19.4Y3.98
X19.4Y1.44
X21.01Y49.7
X21.01Y47.16
X21.01Y44.62
X21.01Y42.08
X21.01Y39.54
X21.01Y37.0
X21.01Y34.46
X21.01Y31.92
X21.01Y29.38
X21.01Y26.84
X21.01Y24.3
X21.01Y21.76
X21.01Y19.22
X21.01Y16.68
X21.01Y14.14
X21.01Y11.6
X21.01Y9.06
X21.01Y6.52
X21.01Y3.98
X21.01Y1.44
T3
G00X6.19Y49.27
M15
G01X6.19Y49.87
M16
G05
G00X6.19Y45.09
M15
G01X6.19Y45.69
M16
G05
G00X7.01Y49.287
M15
G01X7.01Y49.987
M16
G05
G00X14.01Y49.987
M15
G01X14.01Y49.287
M16
G05
G00X14.83Y49.27
M15
G01X14.83Y49.87
M16
G05
G00X14.83Y45.09
M15
G01X14.83Y45.69
M16
G05
T0
M30
