%TF.GenerationSoftware,KiCad,Pcbnew,8.0.4*%
%TF.CreationDate,2024-08-28T21:01:28+05:30*%
%TF.ProjectId,Mitayi-Pico-RP2040,4d697461-7969-42d5-9069-636f2d525032,0.6*%
%TF.SameCoordinates,PX73df160PY5f2d3c0*%
%TF.FileFunction,Legend,Bot*%
%TF.FilePolarity,Positive*%
%FSLAX46Y46*%
G04 Gerber Fmt 4.6, Leading zero omitted, Abs format (unit mm)*
G04 Created by KiCad (PCBNEW 8.0.4) date 2024-08-28 21:01:28*
%MOMM*%
%LPD*%
G01*
G04 APERTURE LIST*
%ADD10C,0.150000*%
%ADD11C,0.200000*%
%ADD12C,0.000000*%
G04 APERTURE END LIST*
D10*
X46699366Y5148685D02*
X46666033Y5215352D01*
X46666033Y5215352D02*
X46666033Y5315352D01*
X46666033Y5315352D02*
X46699366Y5415352D01*
X46699366Y5415352D02*
X46766033Y5482018D01*
X46766033Y5482018D02*
X46832700Y5515352D01*
X46832700Y5515352D02*
X46966033Y5548685D01*
X46966033Y5548685D02*
X47066033Y5548685D01*
X47066033Y5548685D02*
X47199366Y5515352D01*
X47199366Y5515352D02*
X47266033Y5482018D01*
X47266033Y5482018D02*
X47332700Y5415352D01*
X47332700Y5415352D02*
X47366033Y5315352D01*
X47366033Y5315352D02*
X47366033Y5248685D01*
X47366033Y5248685D02*
X47332700Y5148685D01*
X47332700Y5148685D02*
X47299366Y5115352D01*
X47299366Y5115352D02*
X47066033Y5115352D01*
X47066033Y5115352D02*
X47066033Y5248685D01*
X47366033Y4815352D02*
X46666033Y4815352D01*
X46666033Y4815352D02*
X46666033Y4548685D01*
X46666033Y4548685D02*
X46699366Y4482018D01*
X46699366Y4482018D02*
X46732700Y4448685D01*
X46732700Y4448685D02*
X46799366Y4415352D01*
X46799366Y4415352D02*
X46899366Y4415352D01*
X46899366Y4415352D02*
X46966033Y4448685D01*
X46966033Y4448685D02*
X46999366Y4482018D01*
X46999366Y4482018D02*
X47032700Y4548685D01*
X47032700Y4548685D02*
X47032700Y4815352D01*
X47366033Y3748685D02*
X47366033Y4148685D01*
X47366033Y3948685D02*
X46666033Y3948685D01*
X46666033Y3948685D02*
X46766033Y4015352D01*
X46766033Y4015352D02*
X46832700Y4082018D01*
X46832700Y4082018D02*
X46866033Y4148685D01*
X46966033Y3348685D02*
X46932700Y3415351D01*
X46932700Y3415351D02*
X46899366Y3448685D01*
X46899366Y3448685D02*
X46832700Y3482018D01*
X46832700Y3482018D02*
X46799366Y3482018D01*
X46799366Y3482018D02*
X46732700Y3448685D01*
X46732700Y3448685D02*
X46699366Y3415351D01*
X46699366Y3415351D02*
X46666033Y3348685D01*
X46666033Y3348685D02*
X46666033Y3215351D01*
X46666033Y3215351D02*
X46699366Y3148685D01*
X46699366Y3148685D02*
X46732700Y3115351D01*
X46732700Y3115351D02*
X46799366Y3082018D01*
X46799366Y3082018D02*
X46832700Y3082018D01*
X46832700Y3082018D02*
X46899366Y3115351D01*
X46899366Y3115351D02*
X46932700Y3148685D01*
X46932700Y3148685D02*
X46966033Y3215351D01*
X46966033Y3215351D02*
X46966033Y3348685D01*
X46966033Y3348685D02*
X46999366Y3415351D01*
X46999366Y3415351D02*
X47032700Y3448685D01*
X47032700Y3448685D02*
X47099366Y3482018D01*
X47099366Y3482018D02*
X47232700Y3482018D01*
X47232700Y3482018D02*
X47299366Y3448685D01*
X47299366Y3448685D02*
X47332700Y3415351D01*
X47332700Y3415351D02*
X47366033Y3348685D01*
X47366033Y3348685D02*
X47366033Y3215351D01*
X47366033Y3215351D02*
X47332700Y3148685D01*
X47332700Y3148685D02*
X47299366Y3115351D01*
X47299366Y3115351D02*
X47232700Y3082018D01*
X47232700Y3082018D02*
X47099366Y3082018D01*
X47099366Y3082018D02*
X47032700Y3115351D01*
X47032700Y3115351D02*
X46999366Y3148685D01*
X46999366Y3148685D02*
X46966033Y3215351D01*
X13749366Y4832018D02*
X13716033Y4898685D01*
X13716033Y4898685D02*
X13716033Y4998685D01*
X13716033Y4998685D02*
X13749366Y5098685D01*
X13749366Y5098685D02*
X13816033Y5165351D01*
X13816033Y5165351D02*
X13882700Y5198685D01*
X13882700Y5198685D02*
X14016033Y5232018D01*
X14016033Y5232018D02*
X14116033Y5232018D01*
X14116033Y5232018D02*
X14249366Y5198685D01*
X14249366Y5198685D02*
X14316033Y5165351D01*
X14316033Y5165351D02*
X14382700Y5098685D01*
X14382700Y5098685D02*
X14416033Y4998685D01*
X14416033Y4998685D02*
X14416033Y4932018D01*
X14416033Y4932018D02*
X14382700Y4832018D01*
X14382700Y4832018D02*
X14349366Y4798685D01*
X14349366Y4798685D02*
X14116033Y4798685D01*
X14116033Y4798685D02*
X14116033Y4932018D01*
X14416033Y4498685D02*
X13716033Y4498685D01*
X13716033Y4498685D02*
X13716033Y4232018D01*
X13716033Y4232018D02*
X13749366Y4165351D01*
X13749366Y4165351D02*
X13782700Y4132018D01*
X13782700Y4132018D02*
X13849366Y4098685D01*
X13849366Y4098685D02*
X13949366Y4098685D01*
X13949366Y4098685D02*
X14016033Y4132018D01*
X14016033Y4132018D02*
X14049366Y4165351D01*
X14049366Y4165351D02*
X14082700Y4232018D01*
X14082700Y4232018D02*
X14082700Y4498685D01*
X13716033Y3465351D02*
X13716033Y3798685D01*
X13716033Y3798685D02*
X14049366Y3832018D01*
X14049366Y3832018D02*
X14016033Y3798685D01*
X14016033Y3798685D02*
X13982700Y3732018D01*
X13982700Y3732018D02*
X13982700Y3565351D01*
X13982700Y3565351D02*
X14016033Y3498685D01*
X14016033Y3498685D02*
X14049366Y3465351D01*
X14049366Y3465351D02*
X14116033Y3432018D01*
X14116033Y3432018D02*
X14282700Y3432018D01*
X14282700Y3432018D02*
X14349366Y3465351D01*
X14349366Y3465351D02*
X14382700Y3498685D01*
X14382700Y3498685D02*
X14416033Y3565351D01*
X14416033Y3565351D02*
X14416033Y3732018D01*
X14416033Y3732018D02*
X14382700Y3798685D01*
X14382700Y3798685D02*
X14349366Y3832018D01*
X34049366Y17233334D02*
X34016033Y17300001D01*
X34016033Y17300001D02*
X34016033Y17400001D01*
X34016033Y17400001D02*
X34049366Y17500001D01*
X34049366Y17500001D02*
X34116033Y17566667D01*
X34116033Y17566667D02*
X34182700Y17600001D01*
X34182700Y17600001D02*
X34316033Y17633334D01*
X34316033Y17633334D02*
X34416033Y17633334D01*
X34416033Y17633334D02*
X34549366Y17600001D01*
X34549366Y17600001D02*
X34616033Y17566667D01*
X34616033Y17566667D02*
X34682700Y17500001D01*
X34682700Y17500001D02*
X34716033Y17400001D01*
X34716033Y17400001D02*
X34716033Y17333334D01*
X34716033Y17333334D02*
X34682700Y17233334D01*
X34682700Y17233334D02*
X34649366Y17200001D01*
X34649366Y17200001D02*
X34416033Y17200001D01*
X34416033Y17200001D02*
X34416033Y17333334D01*
X34716033Y16900001D02*
X34016033Y16900001D01*
X34016033Y16900001D02*
X34016033Y16633334D01*
X34016033Y16633334D02*
X34049366Y16566667D01*
X34049366Y16566667D02*
X34082700Y16533334D01*
X34082700Y16533334D02*
X34149366Y16500001D01*
X34149366Y16500001D02*
X34249366Y16500001D01*
X34249366Y16500001D02*
X34316033Y16533334D01*
X34316033Y16533334D02*
X34349366Y16566667D01*
X34349366Y16566667D02*
X34382700Y16633334D01*
X34382700Y16633334D02*
X34382700Y16900001D01*
X34082700Y16233334D02*
X34049366Y16200001D01*
X34049366Y16200001D02*
X34016033Y16133334D01*
X34016033Y16133334D02*
X34016033Y15966667D01*
X34016033Y15966667D02*
X34049366Y15900001D01*
X34049366Y15900001D02*
X34082700Y15866667D01*
X34082700Y15866667D02*
X34149366Y15833334D01*
X34149366Y15833334D02*
X34216033Y15833334D01*
X34216033Y15833334D02*
X34316033Y15866667D01*
X34316033Y15866667D02*
X34716033Y16266667D01*
X34716033Y16266667D02*
X34716033Y15833334D01*
X34249366Y15233334D02*
X34716033Y15233334D01*
X33982700Y15400000D02*
X34482700Y15566667D01*
X34482700Y15566667D02*
X34482700Y15133334D01*
X18749366Y17333334D02*
X18716033Y17400001D01*
X18716033Y17400001D02*
X18716033Y17500001D01*
X18716033Y17500001D02*
X18749366Y17600001D01*
X18749366Y17600001D02*
X18816033Y17666667D01*
X18816033Y17666667D02*
X18882700Y17700001D01*
X18882700Y17700001D02*
X19016033Y17733334D01*
X19016033Y17733334D02*
X19116033Y17733334D01*
X19116033Y17733334D02*
X19249366Y17700001D01*
X19249366Y17700001D02*
X19316033Y17666667D01*
X19316033Y17666667D02*
X19382700Y17600001D01*
X19382700Y17600001D02*
X19416033Y17500001D01*
X19416033Y17500001D02*
X19416033Y17433334D01*
X19416033Y17433334D02*
X19382700Y17333334D01*
X19382700Y17333334D02*
X19349366Y17300001D01*
X19349366Y17300001D02*
X19116033Y17300001D01*
X19116033Y17300001D02*
X19116033Y17433334D01*
X19416033Y17000001D02*
X18716033Y17000001D01*
X18716033Y17000001D02*
X18716033Y16733334D01*
X18716033Y16733334D02*
X18749366Y16666667D01*
X18749366Y16666667D02*
X18782700Y16633334D01*
X18782700Y16633334D02*
X18849366Y16600001D01*
X18849366Y16600001D02*
X18949366Y16600001D01*
X18949366Y16600001D02*
X19016033Y16633334D01*
X19016033Y16633334D02*
X19049366Y16666667D01*
X19049366Y16666667D02*
X19082700Y16733334D01*
X19082700Y16733334D02*
X19082700Y17000001D01*
X18782700Y16333334D02*
X18749366Y16300001D01*
X18749366Y16300001D02*
X18716033Y16233334D01*
X18716033Y16233334D02*
X18716033Y16066667D01*
X18716033Y16066667D02*
X18749366Y16000001D01*
X18749366Y16000001D02*
X18782700Y15966667D01*
X18782700Y15966667D02*
X18849366Y15933334D01*
X18849366Y15933334D02*
X18916033Y15933334D01*
X18916033Y15933334D02*
X19016033Y15966667D01*
X19016033Y15966667D02*
X19416033Y16366667D01*
X19416033Y16366667D02*
X19416033Y15933334D01*
X19416033Y15600000D02*
X19416033Y15466667D01*
X19416033Y15466667D02*
X19382700Y15400000D01*
X19382700Y15400000D02*
X19349366Y15366667D01*
X19349366Y15366667D02*
X19249366Y15300000D01*
X19249366Y15300000D02*
X19116033Y15266667D01*
X19116033Y15266667D02*
X18849366Y15266667D01*
X18849366Y15266667D02*
X18782700Y15300000D01*
X18782700Y15300000D02*
X18749366Y15333334D01*
X18749366Y15333334D02*
X18716033Y15400000D01*
X18716033Y15400000D02*
X18716033Y15533334D01*
X18716033Y15533334D02*
X18749366Y15600000D01*
X18749366Y15600000D02*
X18782700Y15633334D01*
X18782700Y15633334D02*
X18849366Y15666667D01*
X18849366Y15666667D02*
X19016033Y15666667D01*
X19016033Y15666667D02*
X19082700Y15633334D01*
X19082700Y15633334D02*
X19116033Y15600000D01*
X19116033Y15600000D02*
X19149366Y15533334D01*
X19149366Y15533334D02*
X19149366Y15400000D01*
X19149366Y15400000D02*
X19116033Y15333334D01*
X19116033Y15333334D02*
X19082700Y15300000D01*
X19082700Y15300000D02*
X19016033Y15266667D01*
X6099366Y17333333D02*
X6066033Y17400000D01*
X6066033Y17400000D02*
X6066033Y17500000D01*
X6066033Y17500000D02*
X6099366Y17600000D01*
X6099366Y17600000D02*
X6166033Y17666666D01*
X6166033Y17666666D02*
X6232700Y17700000D01*
X6232700Y17700000D02*
X6366033Y17733333D01*
X6366033Y17733333D02*
X6466033Y17733333D01*
X6466033Y17733333D02*
X6599366Y17700000D01*
X6599366Y17700000D02*
X6666033Y17666666D01*
X6666033Y17666666D02*
X6732700Y17600000D01*
X6732700Y17600000D02*
X6766033Y17500000D01*
X6766033Y17500000D02*
X6766033Y17433333D01*
X6766033Y17433333D02*
X6732700Y17333333D01*
X6732700Y17333333D02*
X6699366Y17300000D01*
X6699366Y17300000D02*
X6466033Y17300000D01*
X6466033Y17300000D02*
X6466033Y17433333D01*
X6766033Y17000000D02*
X6066033Y17000000D01*
X6066033Y17000000D02*
X6766033Y16600000D01*
X6766033Y16600000D02*
X6066033Y16600000D01*
X6766033Y16266667D02*
X6066033Y16266667D01*
X6066033Y16266667D02*
X6066033Y16100000D01*
X6066033Y16100000D02*
X6099366Y16000000D01*
X6099366Y16000000D02*
X6166033Y15933333D01*
X6166033Y15933333D02*
X6232700Y15900000D01*
X6232700Y15900000D02*
X6366033Y15866667D01*
X6366033Y15866667D02*
X6466033Y15866667D01*
X6466033Y15866667D02*
X6599366Y15900000D01*
X6599366Y15900000D02*
X6666033Y15933333D01*
X6666033Y15933333D02*
X6732700Y16000000D01*
X6732700Y16000000D02*
X6766033Y16100000D01*
X6766033Y16100000D02*
X6766033Y16266667D01*
X28949366Y17233333D02*
X28916033Y17300000D01*
X28916033Y17300000D02*
X28916033Y17400000D01*
X28916033Y17400000D02*
X28949366Y17500000D01*
X28949366Y17500000D02*
X29016033Y17566666D01*
X29016033Y17566666D02*
X29082700Y17600000D01*
X29082700Y17600000D02*
X29216033Y17633333D01*
X29216033Y17633333D02*
X29316033Y17633333D01*
X29316033Y17633333D02*
X29449366Y17600000D01*
X29449366Y17600000D02*
X29516033Y17566666D01*
X29516033Y17566666D02*
X29582700Y17500000D01*
X29582700Y17500000D02*
X29616033Y17400000D01*
X29616033Y17400000D02*
X29616033Y17333333D01*
X29616033Y17333333D02*
X29582700Y17233333D01*
X29582700Y17233333D02*
X29549366Y17200000D01*
X29549366Y17200000D02*
X29316033Y17200000D01*
X29316033Y17200000D02*
X29316033Y17333333D01*
X29616033Y16900000D02*
X28916033Y16900000D01*
X28916033Y16900000D02*
X29616033Y16500000D01*
X29616033Y16500000D02*
X28916033Y16500000D01*
X29616033Y16166667D02*
X28916033Y16166667D01*
X28916033Y16166667D02*
X28916033Y16000000D01*
X28916033Y16000000D02*
X28949366Y15900000D01*
X28949366Y15900000D02*
X29016033Y15833333D01*
X29016033Y15833333D02*
X29082700Y15800000D01*
X29082700Y15800000D02*
X29216033Y15766667D01*
X29216033Y15766667D02*
X29316033Y15766667D01*
X29316033Y15766667D02*
X29449366Y15800000D01*
X29449366Y15800000D02*
X29516033Y15833333D01*
X29516033Y15833333D02*
X29582700Y15900000D01*
X29582700Y15900000D02*
X29616033Y16000000D01*
X29616033Y16000000D02*
X29616033Y16166667D01*
X4616033Y18000001D02*
X5316033Y17766667D01*
X5316033Y17766667D02*
X4616033Y17533334D01*
X5282700Y17333334D02*
X5316033Y17233334D01*
X5316033Y17233334D02*
X5316033Y17066667D01*
X5316033Y17066667D02*
X5282700Y17000001D01*
X5282700Y17000001D02*
X5249366Y16966667D01*
X5249366Y16966667D02*
X5182700Y16933334D01*
X5182700Y16933334D02*
X5116033Y16933334D01*
X5116033Y16933334D02*
X5049366Y16966667D01*
X5049366Y16966667D02*
X5016033Y17000001D01*
X5016033Y17000001D02*
X4982700Y17066667D01*
X4982700Y17066667D02*
X4949366Y17200001D01*
X4949366Y17200001D02*
X4916033Y17266667D01*
X4916033Y17266667D02*
X4882700Y17300001D01*
X4882700Y17300001D02*
X4816033Y17333334D01*
X4816033Y17333334D02*
X4749366Y17333334D01*
X4749366Y17333334D02*
X4682700Y17300001D01*
X4682700Y17300001D02*
X4649366Y17266667D01*
X4649366Y17266667D02*
X4616033Y17200001D01*
X4616033Y17200001D02*
X4616033Y17033334D01*
X4616033Y17033334D02*
X4649366Y16933334D01*
X4982700Y16500000D02*
X5316033Y16500000D01*
X4616033Y16733334D02*
X4982700Y16500000D01*
X4982700Y16500000D02*
X4616033Y16266667D01*
X5282700Y16066667D02*
X5316033Y15966667D01*
X5316033Y15966667D02*
X5316033Y15800000D01*
X5316033Y15800000D02*
X5282700Y15733334D01*
X5282700Y15733334D02*
X5249366Y15700000D01*
X5249366Y15700000D02*
X5182700Y15666667D01*
X5182700Y15666667D02*
X5116033Y15666667D01*
X5116033Y15666667D02*
X5049366Y15700000D01*
X5049366Y15700000D02*
X5016033Y15733334D01*
X5016033Y15733334D02*
X4982700Y15800000D01*
X4982700Y15800000D02*
X4949366Y15933334D01*
X4949366Y15933334D02*
X4916033Y16000000D01*
X4916033Y16000000D02*
X4882700Y16033334D01*
X4882700Y16033334D02*
X4816033Y16066667D01*
X4816033Y16066667D02*
X4749366Y16066667D01*
X4749366Y16066667D02*
X4682700Y16033334D01*
X4682700Y16033334D02*
X4649366Y16000000D01*
X4649366Y16000000D02*
X4616033Y15933334D01*
X4616033Y15933334D02*
X4616033Y15766667D01*
X4616033Y15766667D02*
X4649366Y15666667D01*
X4649366Y4732018D02*
X4616033Y4798685D01*
X4616033Y4798685D02*
X4616033Y4898685D01*
X4616033Y4898685D02*
X4649366Y4998685D01*
X4649366Y4998685D02*
X4716033Y5065351D01*
X4716033Y5065351D02*
X4782700Y5098685D01*
X4782700Y5098685D02*
X4916033Y5132018D01*
X4916033Y5132018D02*
X5016033Y5132018D01*
X5016033Y5132018D02*
X5149366Y5098685D01*
X5149366Y5098685D02*
X5216033Y5065351D01*
X5216033Y5065351D02*
X5282700Y4998685D01*
X5282700Y4998685D02*
X5316033Y4898685D01*
X5316033Y4898685D02*
X5316033Y4832018D01*
X5316033Y4832018D02*
X5282700Y4732018D01*
X5282700Y4732018D02*
X5249366Y4698685D01*
X5249366Y4698685D02*
X5016033Y4698685D01*
X5016033Y4698685D02*
X5016033Y4832018D01*
X5316033Y4398685D02*
X4616033Y4398685D01*
X4616033Y4398685D02*
X4616033Y4132018D01*
X4616033Y4132018D02*
X4649366Y4065351D01*
X4649366Y4065351D02*
X4682700Y4032018D01*
X4682700Y4032018D02*
X4749366Y3998685D01*
X4749366Y3998685D02*
X4849366Y3998685D01*
X4849366Y3998685D02*
X4916033Y4032018D01*
X4916033Y4032018D02*
X4949366Y4065351D01*
X4949366Y4065351D02*
X4982700Y4132018D01*
X4982700Y4132018D02*
X4982700Y4398685D01*
X5316033Y3332018D02*
X5316033Y3732018D01*
X5316033Y3532018D02*
X4616033Y3532018D01*
X4616033Y3532018D02*
X4716033Y3598685D01*
X4716033Y3598685D02*
X4782700Y3665351D01*
X4782700Y3665351D02*
X4816033Y3732018D01*
X16716033Y17733333D02*
X16716033Y17400000D01*
X16916033Y17800000D02*
X16216033Y17566666D01*
X16216033Y17566666D02*
X16916033Y17333333D01*
X16916033Y16700000D02*
X16582700Y16933333D01*
X16916033Y17100000D02*
X16216033Y17100000D01*
X16216033Y17100000D02*
X16216033Y16833333D01*
X16216033Y16833333D02*
X16249366Y16766666D01*
X16249366Y16766666D02*
X16282700Y16733333D01*
X16282700Y16733333D02*
X16349366Y16700000D01*
X16349366Y16700000D02*
X16449366Y16700000D01*
X16449366Y16700000D02*
X16516033Y16733333D01*
X16516033Y16733333D02*
X16549366Y16766666D01*
X16549366Y16766666D02*
X16582700Y16833333D01*
X16582700Y16833333D02*
X16582700Y17100000D01*
X16549366Y16400000D02*
X16549366Y16166666D01*
X16916033Y16066666D02*
X16916033Y16400000D01*
X16916033Y16400000D02*
X16216033Y16400000D01*
X16216033Y16400000D02*
X16216033Y16066666D01*
X16549366Y15533333D02*
X16549366Y15766667D01*
X16916033Y15766667D02*
X16216033Y15766667D01*
X16216033Y15766667D02*
X16216033Y15433333D01*
X34049366Y5498685D02*
X34016033Y5565352D01*
X34016033Y5565352D02*
X34016033Y5665352D01*
X34016033Y5665352D02*
X34049366Y5765352D01*
X34049366Y5765352D02*
X34116033Y5832018D01*
X34116033Y5832018D02*
X34182700Y5865352D01*
X34182700Y5865352D02*
X34316033Y5898685D01*
X34316033Y5898685D02*
X34416033Y5898685D01*
X34416033Y5898685D02*
X34549366Y5865352D01*
X34549366Y5865352D02*
X34616033Y5832018D01*
X34616033Y5832018D02*
X34682700Y5765352D01*
X34682700Y5765352D02*
X34716033Y5665352D01*
X34716033Y5665352D02*
X34716033Y5598685D01*
X34716033Y5598685D02*
X34682700Y5498685D01*
X34682700Y5498685D02*
X34649366Y5465352D01*
X34649366Y5465352D02*
X34416033Y5465352D01*
X34416033Y5465352D02*
X34416033Y5598685D01*
X34716033Y5165352D02*
X34016033Y5165352D01*
X34016033Y5165352D02*
X34016033Y4898685D01*
X34016033Y4898685D02*
X34049366Y4832018D01*
X34049366Y4832018D02*
X34082700Y4798685D01*
X34082700Y4798685D02*
X34149366Y4765352D01*
X34149366Y4765352D02*
X34249366Y4765352D01*
X34249366Y4765352D02*
X34316033Y4798685D01*
X34316033Y4798685D02*
X34349366Y4832018D01*
X34349366Y4832018D02*
X34382700Y4898685D01*
X34382700Y4898685D02*
X34382700Y5165352D01*
X34716033Y4098685D02*
X34716033Y4498685D01*
X34716033Y4298685D02*
X34016033Y4298685D01*
X34016033Y4298685D02*
X34116033Y4365352D01*
X34116033Y4365352D02*
X34182700Y4432018D01*
X34182700Y4432018D02*
X34216033Y4498685D01*
X34016033Y3865351D02*
X34016033Y3432018D01*
X34016033Y3432018D02*
X34282700Y3665351D01*
X34282700Y3665351D02*
X34282700Y3565351D01*
X34282700Y3565351D02*
X34316033Y3498685D01*
X34316033Y3498685D02*
X34349366Y3465351D01*
X34349366Y3465351D02*
X34416033Y3432018D01*
X34416033Y3432018D02*
X34582700Y3432018D01*
X34582700Y3432018D02*
X34649366Y3465351D01*
X34649366Y3465351D02*
X34682700Y3498685D01*
X34682700Y3498685D02*
X34716033Y3565351D01*
X34716033Y3565351D02*
X34716033Y3765351D01*
X34716033Y3765351D02*
X34682700Y3832018D01*
X34682700Y3832018D02*
X34649366Y3865351D01*
X3249366Y4732018D02*
X3216033Y4798685D01*
X3216033Y4798685D02*
X3216033Y4898685D01*
X3216033Y4898685D02*
X3249366Y4998685D01*
X3249366Y4998685D02*
X3316033Y5065351D01*
X3316033Y5065351D02*
X3382700Y5098685D01*
X3382700Y5098685D02*
X3516033Y5132018D01*
X3516033Y5132018D02*
X3616033Y5132018D01*
X3616033Y5132018D02*
X3749366Y5098685D01*
X3749366Y5098685D02*
X3816033Y5065351D01*
X3816033Y5065351D02*
X3882700Y4998685D01*
X3882700Y4998685D02*
X3916033Y4898685D01*
X3916033Y4898685D02*
X3916033Y4832018D01*
X3916033Y4832018D02*
X3882700Y4732018D01*
X3882700Y4732018D02*
X3849366Y4698685D01*
X3849366Y4698685D02*
X3616033Y4698685D01*
X3616033Y4698685D02*
X3616033Y4832018D01*
X3916033Y4398685D02*
X3216033Y4398685D01*
X3216033Y4398685D02*
X3216033Y4132018D01*
X3216033Y4132018D02*
X3249366Y4065351D01*
X3249366Y4065351D02*
X3282700Y4032018D01*
X3282700Y4032018D02*
X3349366Y3998685D01*
X3349366Y3998685D02*
X3449366Y3998685D01*
X3449366Y3998685D02*
X3516033Y4032018D01*
X3516033Y4032018D02*
X3549366Y4065351D01*
X3549366Y4065351D02*
X3582700Y4132018D01*
X3582700Y4132018D02*
X3582700Y4398685D01*
X3216033Y3565351D02*
X3216033Y3498685D01*
X3216033Y3498685D02*
X3249366Y3432018D01*
X3249366Y3432018D02*
X3282700Y3398685D01*
X3282700Y3398685D02*
X3349366Y3365351D01*
X3349366Y3365351D02*
X3482700Y3332018D01*
X3482700Y3332018D02*
X3649366Y3332018D01*
X3649366Y3332018D02*
X3782700Y3365351D01*
X3782700Y3365351D02*
X3849366Y3398685D01*
X3849366Y3398685D02*
X3882700Y3432018D01*
X3882700Y3432018D02*
X3916033Y3498685D01*
X3916033Y3498685D02*
X3916033Y3565351D01*
X3916033Y3565351D02*
X3882700Y3632018D01*
X3882700Y3632018D02*
X3849366Y3665351D01*
X3849366Y3665351D02*
X3782700Y3698685D01*
X3782700Y3698685D02*
X3649366Y3732018D01*
X3649366Y3732018D02*
X3482700Y3732018D01*
X3482700Y3732018D02*
X3349366Y3698685D01*
X3349366Y3698685D02*
X3282700Y3665351D01*
X3282700Y3665351D02*
X3249366Y3632018D01*
X3249366Y3632018D02*
X3216033Y3565351D01*
X3016033Y18083334D02*
X3716033Y17850000D01*
X3716033Y17850000D02*
X3016033Y17616667D01*
X3349366Y17150000D02*
X3382700Y17050000D01*
X3382700Y17050000D02*
X3416033Y17016667D01*
X3416033Y17016667D02*
X3482700Y16983334D01*
X3482700Y16983334D02*
X3582700Y16983334D01*
X3582700Y16983334D02*
X3649366Y17016667D01*
X3649366Y17016667D02*
X3682700Y17050000D01*
X3682700Y17050000D02*
X3716033Y17116667D01*
X3716033Y17116667D02*
X3716033Y17383334D01*
X3716033Y17383334D02*
X3016033Y17383334D01*
X3016033Y17383334D02*
X3016033Y17150000D01*
X3016033Y17150000D02*
X3049366Y17083334D01*
X3049366Y17083334D02*
X3082700Y17050000D01*
X3082700Y17050000D02*
X3149366Y17016667D01*
X3149366Y17016667D02*
X3216033Y17016667D01*
X3216033Y17016667D02*
X3282700Y17050000D01*
X3282700Y17050000D02*
X3316033Y17083334D01*
X3316033Y17083334D02*
X3349366Y17150000D01*
X3349366Y17150000D02*
X3349366Y17383334D01*
X3016033Y16683334D02*
X3582700Y16683334D01*
X3582700Y16683334D02*
X3649366Y16650000D01*
X3649366Y16650000D02*
X3682700Y16616667D01*
X3682700Y16616667D02*
X3716033Y16550000D01*
X3716033Y16550000D02*
X3716033Y16416667D01*
X3716033Y16416667D02*
X3682700Y16350000D01*
X3682700Y16350000D02*
X3649366Y16316667D01*
X3649366Y16316667D02*
X3582700Y16283334D01*
X3582700Y16283334D02*
X3016033Y16283334D01*
X3682700Y15983334D02*
X3716033Y15883334D01*
X3716033Y15883334D02*
X3716033Y15716667D01*
X3716033Y15716667D02*
X3682700Y15650001D01*
X3682700Y15650001D02*
X3649366Y15616667D01*
X3649366Y15616667D02*
X3582700Y15583334D01*
X3582700Y15583334D02*
X3516033Y15583334D01*
X3516033Y15583334D02*
X3449366Y15616667D01*
X3449366Y15616667D02*
X3416033Y15650001D01*
X3416033Y15650001D02*
X3382700Y15716667D01*
X3382700Y15716667D02*
X3349366Y15850001D01*
X3349366Y15850001D02*
X3316033Y15916667D01*
X3316033Y15916667D02*
X3282700Y15950001D01*
X3282700Y15950001D02*
X3216033Y15983334D01*
X3216033Y15983334D02*
X3149366Y15983334D01*
X3149366Y15983334D02*
X3082700Y15950001D01*
X3082700Y15950001D02*
X3049366Y15916667D01*
X3049366Y15916667D02*
X3016033Y15850001D01*
X3016033Y15850001D02*
X3016033Y15683334D01*
X3016033Y15683334D02*
X3049366Y15583334D01*
D11*
X34560148Y9905258D02*
X34331577Y9105258D01*
X34331577Y9105258D02*
X34103005Y9676686D01*
X34103005Y9676686D02*
X33874434Y9105258D01*
X33874434Y9105258D02*
X33645862Y9905258D01*
X33303005Y9905258D02*
X33074434Y9105258D01*
X33074434Y9105258D02*
X32845862Y9676686D01*
X32845862Y9676686D02*
X32617291Y9105258D01*
X32617291Y9105258D02*
X32388719Y9905258D01*
X32045862Y9905258D02*
X31817291Y9105258D01*
X31817291Y9105258D02*
X31588719Y9676686D01*
X31588719Y9676686D02*
X31360148Y9105258D01*
X31360148Y9105258D02*
X31131576Y9905258D01*
X30674433Y9219543D02*
X30617290Y9162400D01*
X30617290Y9162400D02*
X30674433Y9105258D01*
X30674433Y9105258D02*
X30731576Y9162400D01*
X30731576Y9162400D02*
X30674433Y9219543D01*
X30674433Y9219543D02*
X30674433Y9105258D01*
X29588719Y9162400D02*
X29703004Y9105258D01*
X29703004Y9105258D02*
X29931576Y9105258D01*
X29931576Y9105258D02*
X30045861Y9162400D01*
X30045861Y9162400D02*
X30103004Y9219543D01*
X30103004Y9219543D02*
X30160147Y9333829D01*
X30160147Y9333829D02*
X30160147Y9676686D01*
X30160147Y9676686D02*
X30103004Y9790972D01*
X30103004Y9790972D02*
X30045861Y9848115D01*
X30045861Y9848115D02*
X29931576Y9905258D01*
X29931576Y9905258D02*
X29703004Y9905258D01*
X29703004Y9905258D02*
X29588719Y9848115D01*
X29074433Y9105258D02*
X29074433Y9905258D01*
X29074433Y10305258D02*
X29131576Y10248115D01*
X29131576Y10248115D02*
X29074433Y10190972D01*
X29074433Y10190972D02*
X29017290Y10248115D01*
X29017290Y10248115D02*
X29074433Y10305258D01*
X29074433Y10305258D02*
X29074433Y10190972D01*
X28503004Y9105258D02*
X28503004Y9905258D01*
X28503004Y9676686D02*
X28445861Y9790972D01*
X28445861Y9790972D02*
X28388719Y9848115D01*
X28388719Y9848115D02*
X28274433Y9905258D01*
X28274433Y9905258D02*
X28160147Y9905258D01*
X27245862Y9162400D02*
X27360147Y9105258D01*
X27360147Y9105258D02*
X27588719Y9105258D01*
X27588719Y9105258D02*
X27703004Y9162400D01*
X27703004Y9162400D02*
X27760147Y9219543D01*
X27760147Y9219543D02*
X27817290Y9333829D01*
X27817290Y9333829D02*
X27817290Y9676686D01*
X27817290Y9676686D02*
X27760147Y9790972D01*
X27760147Y9790972D02*
X27703004Y9848115D01*
X27703004Y9848115D02*
X27588719Y9905258D01*
X27588719Y9905258D02*
X27360147Y9905258D01*
X27360147Y9905258D02*
X27245862Y9848115D01*
X26217291Y9905258D02*
X26217291Y9105258D01*
X26731576Y9905258D02*
X26731576Y9276686D01*
X26731576Y9276686D02*
X26674433Y9162400D01*
X26674433Y9162400D02*
X26560148Y9105258D01*
X26560148Y9105258D02*
X26388719Y9105258D01*
X26388719Y9105258D02*
X26274433Y9162400D01*
X26274433Y9162400D02*
X26217291Y9219543D01*
X25645862Y9105258D02*
X25645862Y9905258D01*
X25645862Y10305258D02*
X25703005Y10248115D01*
X25703005Y10248115D02*
X25645862Y10190972D01*
X25645862Y10190972D02*
X25588719Y10248115D01*
X25588719Y10248115D02*
X25645862Y10305258D01*
X25645862Y10305258D02*
X25645862Y10190972D01*
X25245862Y9905258D02*
X24788719Y9905258D01*
X25074433Y10305258D02*
X25074433Y9276686D01*
X25074433Y9276686D02*
X25017290Y9162400D01*
X25017290Y9162400D02*
X24903005Y9105258D01*
X24903005Y9105258D02*
X24788719Y9105258D01*
X24445862Y9162400D02*
X24331576Y9105258D01*
X24331576Y9105258D02*
X24103005Y9105258D01*
X24103005Y9105258D02*
X23988719Y9162400D01*
X23988719Y9162400D02*
X23931576Y9276686D01*
X23931576Y9276686D02*
X23931576Y9333829D01*
X23931576Y9333829D02*
X23988719Y9448115D01*
X23988719Y9448115D02*
X24103005Y9505258D01*
X24103005Y9505258D02*
X24274434Y9505258D01*
X24274434Y9505258D02*
X24388719Y9562400D01*
X24388719Y9562400D02*
X24445862Y9676686D01*
X24445862Y9676686D02*
X24445862Y9733829D01*
X24445862Y9733829D02*
X24388719Y9848115D01*
X24388719Y9848115D02*
X24274434Y9905258D01*
X24274434Y9905258D02*
X24103005Y9905258D01*
X24103005Y9905258D02*
X23988719Y9848115D01*
X23588719Y9905258D02*
X23131576Y9905258D01*
X23417290Y10305258D02*
X23417290Y9276686D01*
X23417290Y9276686D02*
X23360147Y9162400D01*
X23360147Y9162400D02*
X23245862Y9105258D01*
X23245862Y9105258D02*
X23131576Y9105258D01*
X22217291Y9105258D02*
X22217291Y9733829D01*
X22217291Y9733829D02*
X22274433Y9848115D01*
X22274433Y9848115D02*
X22388719Y9905258D01*
X22388719Y9905258D02*
X22617291Y9905258D01*
X22617291Y9905258D02*
X22731576Y9848115D01*
X22217291Y9162400D02*
X22331576Y9105258D01*
X22331576Y9105258D02*
X22617291Y9105258D01*
X22617291Y9105258D02*
X22731576Y9162400D01*
X22731576Y9162400D02*
X22788719Y9276686D01*
X22788719Y9276686D02*
X22788719Y9390972D01*
X22788719Y9390972D02*
X22731576Y9505258D01*
X22731576Y9505258D02*
X22617291Y9562400D01*
X22617291Y9562400D02*
X22331576Y9562400D01*
X22331576Y9562400D02*
X22217291Y9619543D01*
X21817291Y9905258D02*
X21360148Y9905258D01*
X21645862Y10305258D02*
X21645862Y9276686D01*
X21645862Y9276686D02*
X21588719Y9162400D01*
X21588719Y9162400D02*
X21474434Y9105258D01*
X21474434Y9105258D02*
X21360148Y9105258D01*
X20503005Y9162400D02*
X20617291Y9105258D01*
X20617291Y9105258D02*
X20845863Y9105258D01*
X20845863Y9105258D02*
X20960148Y9162400D01*
X20960148Y9162400D02*
X21017291Y9276686D01*
X21017291Y9276686D02*
X21017291Y9733829D01*
X21017291Y9733829D02*
X20960148Y9848115D01*
X20960148Y9848115D02*
X20845863Y9905258D01*
X20845863Y9905258D02*
X20617291Y9905258D01*
X20617291Y9905258D02*
X20503005Y9848115D01*
X20503005Y9848115D02*
X20445863Y9733829D01*
X20445863Y9733829D02*
X20445863Y9619543D01*
X20445863Y9619543D02*
X21017291Y9505258D01*
X19931577Y9219543D02*
X19874434Y9162400D01*
X19874434Y9162400D02*
X19931577Y9105258D01*
X19931577Y9105258D02*
X19988720Y9162400D01*
X19988720Y9162400D02*
X19931577Y9219543D01*
X19931577Y9219543D02*
X19931577Y9105258D01*
X18845863Y9162400D02*
X18960148Y9105258D01*
X18960148Y9105258D02*
X19188720Y9105258D01*
X19188720Y9105258D02*
X19303005Y9162400D01*
X19303005Y9162400D02*
X19360148Y9219543D01*
X19360148Y9219543D02*
X19417291Y9333829D01*
X19417291Y9333829D02*
X19417291Y9676686D01*
X19417291Y9676686D02*
X19360148Y9790972D01*
X19360148Y9790972D02*
X19303005Y9848115D01*
X19303005Y9848115D02*
X19188720Y9905258D01*
X19188720Y9905258D02*
X18960148Y9905258D01*
X18960148Y9905258D02*
X18845863Y9848115D01*
X18160149Y9105258D02*
X18274434Y9162400D01*
X18274434Y9162400D02*
X18331577Y9219543D01*
X18331577Y9219543D02*
X18388720Y9333829D01*
X18388720Y9333829D02*
X18388720Y9676686D01*
X18388720Y9676686D02*
X18331577Y9790972D01*
X18331577Y9790972D02*
X18274434Y9848115D01*
X18274434Y9848115D02*
X18160149Y9905258D01*
X18160149Y9905258D02*
X17988720Y9905258D01*
X17988720Y9905258D02*
X17874434Y9848115D01*
X17874434Y9848115D02*
X17817292Y9790972D01*
X17817292Y9790972D02*
X17760149Y9676686D01*
X17760149Y9676686D02*
X17760149Y9333829D01*
X17760149Y9333829D02*
X17817292Y9219543D01*
X17817292Y9219543D02*
X17874434Y9162400D01*
X17874434Y9162400D02*
X17988720Y9105258D01*
X17988720Y9105258D02*
X18160149Y9105258D01*
X17245863Y9105258D02*
X17245863Y9905258D01*
X17245863Y9790972D02*
X17188720Y9848115D01*
X17188720Y9848115D02*
X17074435Y9905258D01*
X17074435Y9905258D02*
X16903006Y9905258D01*
X16903006Y9905258D02*
X16788720Y9848115D01*
X16788720Y9848115D02*
X16731578Y9733829D01*
X16731578Y9733829D02*
X16731578Y9105258D01*
X16731578Y9733829D02*
X16674435Y9848115D01*
X16674435Y9848115D02*
X16560149Y9905258D01*
X16560149Y9905258D02*
X16388720Y9905258D01*
X16388720Y9905258D02*
X16274435Y9848115D01*
X16274435Y9848115D02*
X16217292Y9733829D01*
X16217292Y9733829D02*
X16217292Y9105258D01*
D10*
X34527256Y7487705D02*
X34527256Y8287705D01*
X34527256Y8287705D02*
X34336780Y8287705D01*
X34336780Y8287705D02*
X34222494Y8249610D01*
X34222494Y8249610D02*
X34146304Y8173420D01*
X34146304Y8173420D02*
X34108209Y8097229D01*
X34108209Y8097229D02*
X34070113Y7944848D01*
X34070113Y7944848D02*
X34070113Y7830562D01*
X34070113Y7830562D02*
X34108209Y7678181D01*
X34108209Y7678181D02*
X34146304Y7601991D01*
X34146304Y7601991D02*
X34222494Y7525800D01*
X34222494Y7525800D02*
X34336780Y7487705D01*
X34336780Y7487705D02*
X34527256Y7487705D01*
X33422494Y7525800D02*
X33498685Y7487705D01*
X33498685Y7487705D02*
X33651066Y7487705D01*
X33651066Y7487705D02*
X33727256Y7525800D01*
X33727256Y7525800D02*
X33765352Y7601991D01*
X33765352Y7601991D02*
X33765352Y7906753D01*
X33765352Y7906753D02*
X33727256Y7982943D01*
X33727256Y7982943D02*
X33651066Y8021039D01*
X33651066Y8021039D02*
X33498685Y8021039D01*
X33498685Y8021039D02*
X33422494Y7982943D01*
X33422494Y7982943D02*
X33384399Y7906753D01*
X33384399Y7906753D02*
X33384399Y7830562D01*
X33384399Y7830562D02*
X33765352Y7754372D01*
X33079638Y7525800D02*
X33003447Y7487705D01*
X33003447Y7487705D02*
X32851066Y7487705D01*
X32851066Y7487705D02*
X32774876Y7525800D01*
X32774876Y7525800D02*
X32736780Y7601991D01*
X32736780Y7601991D02*
X32736780Y7640086D01*
X32736780Y7640086D02*
X32774876Y7716277D01*
X32774876Y7716277D02*
X32851066Y7754372D01*
X32851066Y7754372D02*
X32965352Y7754372D01*
X32965352Y7754372D02*
X33041542Y7792467D01*
X33041542Y7792467D02*
X33079638Y7868658D01*
X33079638Y7868658D02*
X33079638Y7906753D01*
X33079638Y7906753D02*
X33041542Y7982943D01*
X33041542Y7982943D02*
X32965352Y8021039D01*
X32965352Y8021039D02*
X32851066Y8021039D01*
X32851066Y8021039D02*
X32774876Y7982943D01*
X32393923Y7487705D02*
X32393923Y8021039D01*
X32393923Y8287705D02*
X32432019Y8249610D01*
X32432019Y8249610D02*
X32393923Y8211515D01*
X32393923Y8211515D02*
X32355828Y8249610D01*
X32355828Y8249610D02*
X32393923Y8287705D01*
X32393923Y8287705D02*
X32393923Y8211515D01*
X31670114Y8021039D02*
X31670114Y7373420D01*
X31670114Y7373420D02*
X31708209Y7297229D01*
X31708209Y7297229D02*
X31746305Y7259134D01*
X31746305Y7259134D02*
X31822495Y7221039D01*
X31822495Y7221039D02*
X31936781Y7221039D01*
X31936781Y7221039D02*
X32012971Y7259134D01*
X31670114Y7525800D02*
X31746305Y7487705D01*
X31746305Y7487705D02*
X31898686Y7487705D01*
X31898686Y7487705D02*
X31974876Y7525800D01*
X31974876Y7525800D02*
X32012971Y7563896D01*
X32012971Y7563896D02*
X32051067Y7640086D01*
X32051067Y7640086D02*
X32051067Y7868658D01*
X32051067Y7868658D02*
X32012971Y7944848D01*
X32012971Y7944848D02*
X31974876Y7982943D01*
X31974876Y7982943D02*
X31898686Y8021039D01*
X31898686Y8021039D02*
X31746305Y8021039D01*
X31746305Y8021039D02*
X31670114Y7982943D01*
X31289161Y8021039D02*
X31289161Y7487705D01*
X31289161Y7944848D02*
X31251066Y7982943D01*
X31251066Y7982943D02*
X31174876Y8021039D01*
X31174876Y8021039D02*
X31060590Y8021039D01*
X31060590Y8021039D02*
X30984399Y7982943D01*
X30984399Y7982943D02*
X30946304Y7906753D01*
X30946304Y7906753D02*
X30946304Y7487705D01*
X30260589Y7525800D02*
X30336780Y7487705D01*
X30336780Y7487705D02*
X30489161Y7487705D01*
X30489161Y7487705D02*
X30565351Y7525800D01*
X30565351Y7525800D02*
X30603447Y7601991D01*
X30603447Y7601991D02*
X30603447Y7906753D01*
X30603447Y7906753D02*
X30565351Y7982943D01*
X30565351Y7982943D02*
X30489161Y8021039D01*
X30489161Y8021039D02*
X30336780Y8021039D01*
X30336780Y8021039D02*
X30260589Y7982943D01*
X30260589Y7982943D02*
X30222494Y7906753D01*
X30222494Y7906753D02*
X30222494Y7830562D01*
X30222494Y7830562D02*
X30603447Y7754372D01*
X29536780Y7487705D02*
X29536780Y8287705D01*
X29536780Y7525800D02*
X29612971Y7487705D01*
X29612971Y7487705D02*
X29765352Y7487705D01*
X29765352Y7487705D02*
X29841542Y7525800D01*
X29841542Y7525800D02*
X29879637Y7563896D01*
X29879637Y7563896D02*
X29917733Y7640086D01*
X29917733Y7640086D02*
X29917733Y7868658D01*
X29917733Y7868658D02*
X29879637Y7944848D01*
X29879637Y7944848D02*
X29841542Y7982943D01*
X29841542Y7982943D02*
X29765352Y8021039D01*
X29765352Y8021039D02*
X29612971Y8021039D01*
X29612971Y8021039D02*
X29536780Y7982943D01*
X28622494Y8021039D02*
X28470113Y7487705D01*
X28470113Y7487705D02*
X28317732Y7868658D01*
X28317732Y7868658D02*
X28165351Y7487705D01*
X28165351Y7487705D02*
X28012970Y8021039D01*
X27708208Y7487705D02*
X27708208Y8021039D01*
X27708208Y8287705D02*
X27746304Y8249610D01*
X27746304Y8249610D02*
X27708208Y8211515D01*
X27708208Y8211515D02*
X27670113Y8249610D01*
X27670113Y8249610D02*
X27708208Y8287705D01*
X27708208Y8287705D02*
X27708208Y8211515D01*
X27441542Y8021039D02*
X27136780Y8021039D01*
X27327256Y8287705D02*
X27327256Y7601991D01*
X27327256Y7601991D02*
X27289161Y7525800D01*
X27289161Y7525800D02*
X27212971Y7487705D01*
X27212971Y7487705D02*
X27136780Y7487705D01*
X26870113Y7487705D02*
X26870113Y8287705D01*
X26527256Y7487705D02*
X26527256Y7906753D01*
X26527256Y7906753D02*
X26565351Y7982943D01*
X26565351Y7982943D02*
X26641542Y8021039D01*
X26641542Y8021039D02*
X26755828Y8021039D01*
X26755828Y8021039D02*
X26832018Y7982943D01*
X26832018Y7982943D02*
X26870113Y7944848D01*
X25536779Y7487705D02*
X25536779Y8287705D01*
X25079636Y7487705D02*
X25422494Y7944848D01*
X25079636Y8287705D02*
X25536779Y7830562D01*
X24736779Y7487705D02*
X24736779Y8021039D01*
X24736779Y8287705D02*
X24774875Y8249610D01*
X24774875Y8249610D02*
X24736779Y8211515D01*
X24736779Y8211515D02*
X24698684Y8249610D01*
X24698684Y8249610D02*
X24736779Y8287705D01*
X24736779Y8287705D02*
X24736779Y8211515D01*
X23898684Y7563896D02*
X23936780Y7525800D01*
X23936780Y7525800D02*
X24051065Y7487705D01*
X24051065Y7487705D02*
X24127256Y7487705D01*
X24127256Y7487705D02*
X24241542Y7525800D01*
X24241542Y7525800D02*
X24317732Y7601991D01*
X24317732Y7601991D02*
X24355827Y7678181D01*
X24355827Y7678181D02*
X24393923Y7830562D01*
X24393923Y7830562D02*
X24393923Y7944848D01*
X24393923Y7944848D02*
X24355827Y8097229D01*
X24355827Y8097229D02*
X24317732Y8173420D01*
X24317732Y8173420D02*
X24241542Y8249610D01*
X24241542Y8249610D02*
X24127256Y8287705D01*
X24127256Y8287705D02*
X24051065Y8287705D01*
X24051065Y8287705D02*
X23936780Y8249610D01*
X23936780Y8249610D02*
X23898684Y8211515D01*
X23212970Y7487705D02*
X23212970Y7906753D01*
X23212970Y7906753D02*
X23251065Y7982943D01*
X23251065Y7982943D02*
X23327256Y8021039D01*
X23327256Y8021039D02*
X23479637Y8021039D01*
X23479637Y8021039D02*
X23555827Y7982943D01*
X23212970Y7525800D02*
X23289161Y7487705D01*
X23289161Y7487705D02*
X23479637Y7487705D01*
X23479637Y7487705D02*
X23555827Y7525800D01*
X23555827Y7525800D02*
X23593923Y7601991D01*
X23593923Y7601991D02*
X23593923Y7678181D01*
X23593923Y7678181D02*
X23555827Y7754372D01*
X23555827Y7754372D02*
X23479637Y7792467D01*
X23479637Y7792467D02*
X23289161Y7792467D01*
X23289161Y7792467D02*
X23212970Y7830562D01*
X22489160Y7487705D02*
X22489160Y8287705D01*
X22489160Y7525800D02*
X22565351Y7487705D01*
X22565351Y7487705D02*
X22717732Y7487705D01*
X22717732Y7487705D02*
X22793922Y7525800D01*
X22793922Y7525800D02*
X22832017Y7563896D01*
X22832017Y7563896D02*
X22870113Y7640086D01*
X22870113Y7640086D02*
X22870113Y7868658D01*
X22870113Y7868658D02*
X22832017Y7944848D01*
X22832017Y7944848D02*
X22793922Y7982943D01*
X22793922Y7982943D02*
X22717732Y8021039D01*
X22717732Y8021039D02*
X22565351Y8021039D01*
X22565351Y8021039D02*
X22489160Y7982943D01*
X11149366Y4832018D02*
X11116033Y4898685D01*
X11116033Y4898685D02*
X11116033Y4998685D01*
X11116033Y4998685D02*
X11149366Y5098685D01*
X11149366Y5098685D02*
X11216033Y5165351D01*
X11216033Y5165351D02*
X11282700Y5198685D01*
X11282700Y5198685D02*
X11416033Y5232018D01*
X11416033Y5232018D02*
X11516033Y5232018D01*
X11516033Y5232018D02*
X11649366Y5198685D01*
X11649366Y5198685D02*
X11716033Y5165351D01*
X11716033Y5165351D02*
X11782700Y5098685D01*
X11782700Y5098685D02*
X11816033Y4998685D01*
X11816033Y4998685D02*
X11816033Y4932018D01*
X11816033Y4932018D02*
X11782700Y4832018D01*
X11782700Y4832018D02*
X11749366Y4798685D01*
X11749366Y4798685D02*
X11516033Y4798685D01*
X11516033Y4798685D02*
X11516033Y4932018D01*
X11816033Y4498685D02*
X11116033Y4498685D01*
X11116033Y4498685D02*
X11116033Y4232018D01*
X11116033Y4232018D02*
X11149366Y4165351D01*
X11149366Y4165351D02*
X11182700Y4132018D01*
X11182700Y4132018D02*
X11249366Y4098685D01*
X11249366Y4098685D02*
X11349366Y4098685D01*
X11349366Y4098685D02*
X11416033Y4132018D01*
X11416033Y4132018D02*
X11449366Y4165351D01*
X11449366Y4165351D02*
X11482700Y4232018D01*
X11482700Y4232018D02*
X11482700Y4498685D01*
X11349366Y3498685D02*
X11816033Y3498685D01*
X11082700Y3665351D02*
X11582700Y3832018D01*
X11582700Y3832018D02*
X11582700Y3398685D01*
X23849366Y17333334D02*
X23816033Y17400001D01*
X23816033Y17400001D02*
X23816033Y17500001D01*
X23816033Y17500001D02*
X23849366Y17600001D01*
X23849366Y17600001D02*
X23916033Y17666667D01*
X23916033Y17666667D02*
X23982700Y17700001D01*
X23982700Y17700001D02*
X24116033Y17733334D01*
X24116033Y17733334D02*
X24216033Y17733334D01*
X24216033Y17733334D02*
X24349366Y17700001D01*
X24349366Y17700001D02*
X24416033Y17666667D01*
X24416033Y17666667D02*
X24482700Y17600001D01*
X24482700Y17600001D02*
X24516033Y17500001D01*
X24516033Y17500001D02*
X24516033Y17433334D01*
X24516033Y17433334D02*
X24482700Y17333334D01*
X24482700Y17333334D02*
X24449366Y17300001D01*
X24449366Y17300001D02*
X24216033Y17300001D01*
X24216033Y17300001D02*
X24216033Y17433334D01*
X24516033Y17000001D02*
X23816033Y17000001D01*
X23816033Y17000001D02*
X23816033Y16733334D01*
X23816033Y16733334D02*
X23849366Y16666667D01*
X23849366Y16666667D02*
X23882700Y16633334D01*
X23882700Y16633334D02*
X23949366Y16600001D01*
X23949366Y16600001D02*
X24049366Y16600001D01*
X24049366Y16600001D02*
X24116033Y16633334D01*
X24116033Y16633334D02*
X24149366Y16666667D01*
X24149366Y16666667D02*
X24182700Y16733334D01*
X24182700Y16733334D02*
X24182700Y17000001D01*
X23882700Y16333334D02*
X23849366Y16300001D01*
X23849366Y16300001D02*
X23816033Y16233334D01*
X23816033Y16233334D02*
X23816033Y16066667D01*
X23816033Y16066667D02*
X23849366Y16000001D01*
X23849366Y16000001D02*
X23882700Y15966667D01*
X23882700Y15966667D02*
X23949366Y15933334D01*
X23949366Y15933334D02*
X24016033Y15933334D01*
X24016033Y15933334D02*
X24116033Y15966667D01*
X24116033Y15966667D02*
X24516033Y16366667D01*
X24516033Y16366667D02*
X24516033Y15933334D01*
X23816033Y15700000D02*
X23816033Y15233334D01*
X23816033Y15233334D02*
X24516033Y15533334D01*
X14416033Y17316667D02*
X14082700Y17550000D01*
X14416033Y17716667D02*
X13716033Y17716667D01*
X13716033Y17716667D02*
X13716033Y17450000D01*
X13716033Y17450000D02*
X13749366Y17383333D01*
X13749366Y17383333D02*
X13782700Y17350000D01*
X13782700Y17350000D02*
X13849366Y17316667D01*
X13849366Y17316667D02*
X13949366Y17316667D01*
X13949366Y17316667D02*
X14016033Y17350000D01*
X14016033Y17350000D02*
X14049366Y17383333D01*
X14049366Y17383333D02*
X14082700Y17450000D01*
X14082700Y17450000D02*
X14082700Y17716667D01*
X13716033Y17016667D02*
X14282700Y17016667D01*
X14282700Y17016667D02*
X14349366Y16983333D01*
X14349366Y16983333D02*
X14382700Y16950000D01*
X14382700Y16950000D02*
X14416033Y16883333D01*
X14416033Y16883333D02*
X14416033Y16750000D01*
X14416033Y16750000D02*
X14382700Y16683333D01*
X14382700Y16683333D02*
X14349366Y16650000D01*
X14349366Y16650000D02*
X14282700Y16616667D01*
X14282700Y16616667D02*
X13716033Y16616667D01*
X14416033Y16283334D02*
X13716033Y16283334D01*
X13716033Y16283334D02*
X14416033Y15883334D01*
X14416033Y15883334D02*
X13716033Y15883334D01*
X28949366Y5498685D02*
X28916033Y5565352D01*
X28916033Y5565352D02*
X28916033Y5665352D01*
X28916033Y5665352D02*
X28949366Y5765352D01*
X28949366Y5765352D02*
X29016033Y5832018D01*
X29016033Y5832018D02*
X29082700Y5865352D01*
X29082700Y5865352D02*
X29216033Y5898685D01*
X29216033Y5898685D02*
X29316033Y5898685D01*
X29316033Y5898685D02*
X29449366Y5865352D01*
X29449366Y5865352D02*
X29516033Y5832018D01*
X29516033Y5832018D02*
X29582700Y5765352D01*
X29582700Y5765352D02*
X29616033Y5665352D01*
X29616033Y5665352D02*
X29616033Y5598685D01*
X29616033Y5598685D02*
X29582700Y5498685D01*
X29582700Y5498685D02*
X29549366Y5465352D01*
X29549366Y5465352D02*
X29316033Y5465352D01*
X29316033Y5465352D02*
X29316033Y5598685D01*
X29616033Y5165352D02*
X28916033Y5165352D01*
X28916033Y5165352D02*
X28916033Y4898685D01*
X28916033Y4898685D02*
X28949366Y4832018D01*
X28949366Y4832018D02*
X28982700Y4798685D01*
X28982700Y4798685D02*
X29049366Y4765352D01*
X29049366Y4765352D02*
X29149366Y4765352D01*
X29149366Y4765352D02*
X29216033Y4798685D01*
X29216033Y4798685D02*
X29249366Y4832018D01*
X29249366Y4832018D02*
X29282700Y4898685D01*
X29282700Y4898685D02*
X29282700Y5165352D01*
X29616033Y4098685D02*
X29616033Y4498685D01*
X29616033Y4298685D02*
X28916033Y4298685D01*
X28916033Y4298685D02*
X29016033Y4365352D01*
X29016033Y4365352D02*
X29082700Y4432018D01*
X29082700Y4432018D02*
X29116033Y4498685D01*
X29616033Y3432018D02*
X29616033Y3832018D01*
X29616033Y3632018D02*
X28916033Y3632018D01*
X28916033Y3632018D02*
X29016033Y3698685D01*
X29016033Y3698685D02*
X29082700Y3765351D01*
X29082700Y3765351D02*
X29116033Y3832018D01*
X18749366Y4832018D02*
X18716033Y4898685D01*
X18716033Y4898685D02*
X18716033Y4998685D01*
X18716033Y4998685D02*
X18749366Y5098685D01*
X18749366Y5098685D02*
X18816033Y5165351D01*
X18816033Y5165351D02*
X18882700Y5198685D01*
X18882700Y5198685D02*
X19016033Y5232018D01*
X19016033Y5232018D02*
X19116033Y5232018D01*
X19116033Y5232018D02*
X19249366Y5198685D01*
X19249366Y5198685D02*
X19316033Y5165351D01*
X19316033Y5165351D02*
X19382700Y5098685D01*
X19382700Y5098685D02*
X19416033Y4998685D01*
X19416033Y4998685D02*
X19416033Y4932018D01*
X19416033Y4932018D02*
X19382700Y4832018D01*
X19382700Y4832018D02*
X19349366Y4798685D01*
X19349366Y4798685D02*
X19116033Y4798685D01*
X19116033Y4798685D02*
X19116033Y4932018D01*
X19416033Y4498685D02*
X18716033Y4498685D01*
X18716033Y4498685D02*
X18716033Y4232018D01*
X18716033Y4232018D02*
X18749366Y4165351D01*
X18749366Y4165351D02*
X18782700Y4132018D01*
X18782700Y4132018D02*
X18849366Y4098685D01*
X18849366Y4098685D02*
X18949366Y4098685D01*
X18949366Y4098685D02*
X19016033Y4132018D01*
X19016033Y4132018D02*
X19049366Y4165351D01*
X19049366Y4165351D02*
X19082700Y4232018D01*
X19082700Y4232018D02*
X19082700Y4498685D01*
X18716033Y3865351D02*
X18716033Y3398685D01*
X18716033Y3398685D02*
X19416033Y3698685D01*
X31449366Y17233334D02*
X31416033Y17300001D01*
X31416033Y17300001D02*
X31416033Y17400001D01*
X31416033Y17400001D02*
X31449366Y17500001D01*
X31449366Y17500001D02*
X31516033Y17566667D01*
X31516033Y17566667D02*
X31582700Y17600001D01*
X31582700Y17600001D02*
X31716033Y17633334D01*
X31716033Y17633334D02*
X31816033Y17633334D01*
X31816033Y17633334D02*
X31949366Y17600001D01*
X31949366Y17600001D02*
X32016033Y17566667D01*
X32016033Y17566667D02*
X32082700Y17500001D01*
X32082700Y17500001D02*
X32116033Y17400001D01*
X32116033Y17400001D02*
X32116033Y17333334D01*
X32116033Y17333334D02*
X32082700Y17233334D01*
X32082700Y17233334D02*
X32049366Y17200001D01*
X32049366Y17200001D02*
X31816033Y17200001D01*
X31816033Y17200001D02*
X31816033Y17333334D01*
X32116033Y16900001D02*
X31416033Y16900001D01*
X31416033Y16900001D02*
X31416033Y16633334D01*
X31416033Y16633334D02*
X31449366Y16566667D01*
X31449366Y16566667D02*
X31482700Y16533334D01*
X31482700Y16533334D02*
X31549366Y16500001D01*
X31549366Y16500001D02*
X31649366Y16500001D01*
X31649366Y16500001D02*
X31716033Y16533334D01*
X31716033Y16533334D02*
X31749366Y16566667D01*
X31749366Y16566667D02*
X31782700Y16633334D01*
X31782700Y16633334D02*
X31782700Y16900001D01*
X31482700Y16233334D02*
X31449366Y16200001D01*
X31449366Y16200001D02*
X31416033Y16133334D01*
X31416033Y16133334D02*
X31416033Y15966667D01*
X31416033Y15966667D02*
X31449366Y15900001D01*
X31449366Y15900001D02*
X31482700Y15866667D01*
X31482700Y15866667D02*
X31549366Y15833334D01*
X31549366Y15833334D02*
X31616033Y15833334D01*
X31616033Y15833334D02*
X31716033Y15866667D01*
X31716033Y15866667D02*
X32116033Y16266667D01*
X32116033Y16266667D02*
X32116033Y15833334D01*
X31416033Y15200000D02*
X31416033Y15533334D01*
X31416033Y15533334D02*
X31749366Y15566667D01*
X31749366Y15566667D02*
X31716033Y15533334D01*
X31716033Y15533334D02*
X31682700Y15466667D01*
X31682700Y15466667D02*
X31682700Y15300000D01*
X31682700Y15300000D02*
X31716033Y15233334D01*
X31716033Y15233334D02*
X31749366Y15200000D01*
X31749366Y15200000D02*
X31816033Y15166667D01*
X31816033Y15166667D02*
X31982700Y15166667D01*
X31982700Y15166667D02*
X32049366Y15200000D01*
X32049366Y15200000D02*
X32082700Y15233334D01*
X32082700Y15233334D02*
X32116033Y15300000D01*
X32116033Y15300000D02*
X32116033Y15466667D01*
X32116033Y15466667D02*
X32082700Y15533334D01*
X32082700Y15533334D02*
X32049366Y15566667D01*
X41649366Y5348685D02*
X41616033Y5415352D01*
X41616033Y5415352D02*
X41616033Y5515352D01*
X41616033Y5515352D02*
X41649366Y5615352D01*
X41649366Y5615352D02*
X41716033Y5682018D01*
X41716033Y5682018D02*
X41782700Y5715352D01*
X41782700Y5715352D02*
X41916033Y5748685D01*
X41916033Y5748685D02*
X42016033Y5748685D01*
X42016033Y5748685D02*
X42149366Y5715352D01*
X42149366Y5715352D02*
X42216033Y5682018D01*
X42216033Y5682018D02*
X42282700Y5615352D01*
X42282700Y5615352D02*
X42316033Y5515352D01*
X42316033Y5515352D02*
X42316033Y5448685D01*
X42316033Y5448685D02*
X42282700Y5348685D01*
X42282700Y5348685D02*
X42249366Y5315352D01*
X42249366Y5315352D02*
X42016033Y5315352D01*
X42016033Y5315352D02*
X42016033Y5448685D01*
X42316033Y5015352D02*
X41616033Y5015352D01*
X41616033Y5015352D02*
X41616033Y4748685D01*
X41616033Y4748685D02*
X41649366Y4682018D01*
X41649366Y4682018D02*
X41682700Y4648685D01*
X41682700Y4648685D02*
X41749366Y4615352D01*
X41749366Y4615352D02*
X41849366Y4615352D01*
X41849366Y4615352D02*
X41916033Y4648685D01*
X41916033Y4648685D02*
X41949366Y4682018D01*
X41949366Y4682018D02*
X41982700Y4748685D01*
X41982700Y4748685D02*
X41982700Y5015352D01*
X42316033Y3948685D02*
X42316033Y4348685D01*
X42316033Y4148685D02*
X41616033Y4148685D01*
X41616033Y4148685D02*
X41716033Y4215352D01*
X41716033Y4215352D02*
X41782700Y4282018D01*
X41782700Y4282018D02*
X41816033Y4348685D01*
X41616033Y3348685D02*
X41616033Y3482018D01*
X41616033Y3482018D02*
X41649366Y3548685D01*
X41649366Y3548685D02*
X41682700Y3582018D01*
X41682700Y3582018D02*
X41782700Y3648685D01*
X41782700Y3648685D02*
X41916033Y3682018D01*
X41916033Y3682018D02*
X42182700Y3682018D01*
X42182700Y3682018D02*
X42249366Y3648685D01*
X42249366Y3648685D02*
X42282700Y3615351D01*
X42282700Y3615351D02*
X42316033Y3548685D01*
X42316033Y3548685D02*
X42316033Y3415351D01*
X42316033Y3415351D02*
X42282700Y3348685D01*
X42282700Y3348685D02*
X42249366Y3315351D01*
X42249366Y3315351D02*
X42182700Y3282018D01*
X42182700Y3282018D02*
X42016033Y3282018D01*
X42016033Y3282018D02*
X41949366Y3315351D01*
X41949366Y3315351D02*
X41916033Y3348685D01*
X41916033Y3348685D02*
X41882700Y3415351D01*
X41882700Y3415351D02*
X41882700Y3548685D01*
X41882700Y3548685D02*
X41916033Y3615351D01*
X41916033Y3615351D02*
X41949366Y3648685D01*
X41949366Y3648685D02*
X42016033Y3682018D01*
X39049366Y17233334D02*
X39016033Y17300001D01*
X39016033Y17300001D02*
X39016033Y17400001D01*
X39016033Y17400001D02*
X39049366Y17500001D01*
X39049366Y17500001D02*
X39116033Y17566667D01*
X39116033Y17566667D02*
X39182700Y17600001D01*
X39182700Y17600001D02*
X39316033Y17633334D01*
X39316033Y17633334D02*
X39416033Y17633334D01*
X39416033Y17633334D02*
X39549366Y17600001D01*
X39549366Y17600001D02*
X39616033Y17566667D01*
X39616033Y17566667D02*
X39682700Y17500001D01*
X39682700Y17500001D02*
X39716033Y17400001D01*
X39716033Y17400001D02*
X39716033Y17333334D01*
X39716033Y17333334D02*
X39682700Y17233334D01*
X39682700Y17233334D02*
X39649366Y17200001D01*
X39649366Y17200001D02*
X39416033Y17200001D01*
X39416033Y17200001D02*
X39416033Y17333334D01*
X39716033Y16900001D02*
X39016033Y16900001D01*
X39016033Y16900001D02*
X39016033Y16633334D01*
X39016033Y16633334D02*
X39049366Y16566667D01*
X39049366Y16566667D02*
X39082700Y16533334D01*
X39082700Y16533334D02*
X39149366Y16500001D01*
X39149366Y16500001D02*
X39249366Y16500001D01*
X39249366Y16500001D02*
X39316033Y16533334D01*
X39316033Y16533334D02*
X39349366Y16566667D01*
X39349366Y16566667D02*
X39382700Y16633334D01*
X39382700Y16633334D02*
X39382700Y16900001D01*
X39082700Y16233334D02*
X39049366Y16200001D01*
X39049366Y16200001D02*
X39016033Y16133334D01*
X39016033Y16133334D02*
X39016033Y15966667D01*
X39016033Y15966667D02*
X39049366Y15900001D01*
X39049366Y15900001D02*
X39082700Y15866667D01*
X39082700Y15866667D02*
X39149366Y15833334D01*
X39149366Y15833334D02*
X39216033Y15833334D01*
X39216033Y15833334D02*
X39316033Y15866667D01*
X39316033Y15866667D02*
X39716033Y16266667D01*
X39716033Y16266667D02*
X39716033Y15833334D01*
X39082700Y15566667D02*
X39049366Y15533334D01*
X39049366Y15533334D02*
X39016033Y15466667D01*
X39016033Y15466667D02*
X39016033Y15300000D01*
X39016033Y15300000D02*
X39049366Y15233334D01*
X39049366Y15233334D02*
X39082700Y15200000D01*
X39082700Y15200000D02*
X39149366Y15166667D01*
X39149366Y15166667D02*
X39216033Y15166667D01*
X39216033Y15166667D02*
X39316033Y15200000D01*
X39316033Y15200000D02*
X39716033Y15600000D01*
X39716033Y15600000D02*
X39716033Y15166667D01*
X41490866Y6395238D02*
X41452771Y6395238D01*
X41567057Y6433334D02*
X41452771Y6433334D01*
X41643247Y6471429D02*
X41452771Y6471429D01*
X41719438Y6509524D02*
X41452771Y6509524D01*
X41757533Y6547619D02*
X41452771Y6547619D01*
X41833723Y6585715D02*
X41452771Y6585715D01*
X41909914Y6623810D02*
X41452771Y6623810D01*
X41986104Y6661905D02*
X41452771Y6661905D01*
X42062295Y6700000D02*
X41452771Y6700000D01*
X41986104Y6738096D02*
X41452771Y6738096D01*
X41909914Y6776191D02*
X41452771Y6776191D01*
X41833723Y6814286D02*
X41452771Y6814286D01*
X41757533Y6852381D02*
X41452771Y6852381D01*
X41719438Y6890477D02*
X41452771Y6890477D01*
X41643247Y6928572D02*
X41452771Y6928572D01*
X41567057Y6966667D02*
X41452771Y6966667D01*
X41452771Y7004762D02*
X42024200Y6700000D01*
X42024200Y6700000D02*
X41452771Y6395238D01*
X41490866Y7004762D02*
X41452771Y7004762D01*
X42062295Y6700000D02*
X41452771Y7042858D01*
X41452771Y7042858D02*
X41452771Y6357143D01*
X41452771Y6357143D02*
X42062295Y6700000D01*
X11216033Y17766667D02*
X11216033Y17333334D01*
X11216033Y17333334D02*
X11482700Y17566667D01*
X11482700Y17566667D02*
X11482700Y17466667D01*
X11482700Y17466667D02*
X11516033Y17400001D01*
X11516033Y17400001D02*
X11549366Y17366667D01*
X11549366Y17366667D02*
X11616033Y17333334D01*
X11616033Y17333334D02*
X11782700Y17333334D01*
X11782700Y17333334D02*
X11849366Y17366667D01*
X11849366Y17366667D02*
X11882700Y17400001D01*
X11882700Y17400001D02*
X11916033Y17466667D01*
X11916033Y17466667D02*
X11916033Y17666667D01*
X11916033Y17666667D02*
X11882700Y17733334D01*
X11882700Y17733334D02*
X11849366Y17766667D01*
X11216033Y17133334D02*
X11916033Y16900000D01*
X11916033Y16900000D02*
X11216033Y16666667D01*
X11216033Y16500000D02*
X11216033Y16066667D01*
X11216033Y16066667D02*
X11482700Y16300000D01*
X11482700Y16300000D02*
X11482700Y16200000D01*
X11482700Y16200000D02*
X11516033Y16133334D01*
X11516033Y16133334D02*
X11549366Y16100000D01*
X11549366Y16100000D02*
X11616033Y16066667D01*
X11616033Y16066667D02*
X11782700Y16066667D01*
X11782700Y16066667D02*
X11849366Y16100000D01*
X11849366Y16100000D02*
X11882700Y16133334D01*
X11882700Y16133334D02*
X11916033Y16200000D01*
X11916033Y16200000D02*
X11916033Y16400000D01*
X11916033Y16400000D02*
X11882700Y16466667D01*
X11882700Y16466667D02*
X11849366Y16500000D01*
X6149366Y4732018D02*
X6116033Y4798685D01*
X6116033Y4798685D02*
X6116033Y4898685D01*
X6116033Y4898685D02*
X6149366Y4998685D01*
X6149366Y4998685D02*
X6216033Y5065351D01*
X6216033Y5065351D02*
X6282700Y5098685D01*
X6282700Y5098685D02*
X6416033Y5132018D01*
X6416033Y5132018D02*
X6516033Y5132018D01*
X6516033Y5132018D02*
X6649366Y5098685D01*
X6649366Y5098685D02*
X6716033Y5065351D01*
X6716033Y5065351D02*
X6782700Y4998685D01*
X6782700Y4998685D02*
X6816033Y4898685D01*
X6816033Y4898685D02*
X6816033Y4832018D01*
X6816033Y4832018D02*
X6782700Y4732018D01*
X6782700Y4732018D02*
X6749366Y4698685D01*
X6749366Y4698685D02*
X6516033Y4698685D01*
X6516033Y4698685D02*
X6516033Y4832018D01*
X6816033Y4398685D02*
X6116033Y4398685D01*
X6116033Y4398685D02*
X6116033Y4132018D01*
X6116033Y4132018D02*
X6149366Y4065351D01*
X6149366Y4065351D02*
X6182700Y4032018D01*
X6182700Y4032018D02*
X6249366Y3998685D01*
X6249366Y3998685D02*
X6349366Y3998685D01*
X6349366Y3998685D02*
X6416033Y4032018D01*
X6416033Y4032018D02*
X6449366Y4065351D01*
X6449366Y4065351D02*
X6482700Y4132018D01*
X6482700Y4132018D02*
X6482700Y4398685D01*
X6182700Y3732018D02*
X6149366Y3698685D01*
X6149366Y3698685D02*
X6116033Y3632018D01*
X6116033Y3632018D02*
X6116033Y3465351D01*
X6116033Y3465351D02*
X6149366Y3398685D01*
X6149366Y3398685D02*
X6182700Y3365351D01*
X6182700Y3365351D02*
X6249366Y3332018D01*
X6249366Y3332018D02*
X6316033Y3332018D01*
X6316033Y3332018D02*
X6416033Y3365351D01*
X6416033Y3365351D02*
X6816033Y3765351D01*
X6816033Y3765351D02*
X6816033Y3332018D01*
X26349366Y17333334D02*
X26316033Y17400001D01*
X26316033Y17400001D02*
X26316033Y17500001D01*
X26316033Y17500001D02*
X26349366Y17600001D01*
X26349366Y17600001D02*
X26416033Y17666667D01*
X26416033Y17666667D02*
X26482700Y17700001D01*
X26482700Y17700001D02*
X26616033Y17733334D01*
X26616033Y17733334D02*
X26716033Y17733334D01*
X26716033Y17733334D02*
X26849366Y17700001D01*
X26849366Y17700001D02*
X26916033Y17666667D01*
X26916033Y17666667D02*
X26982700Y17600001D01*
X26982700Y17600001D02*
X27016033Y17500001D01*
X27016033Y17500001D02*
X27016033Y17433334D01*
X27016033Y17433334D02*
X26982700Y17333334D01*
X26982700Y17333334D02*
X26949366Y17300001D01*
X26949366Y17300001D02*
X26716033Y17300001D01*
X26716033Y17300001D02*
X26716033Y17433334D01*
X27016033Y17000001D02*
X26316033Y17000001D01*
X26316033Y17000001D02*
X26316033Y16733334D01*
X26316033Y16733334D02*
X26349366Y16666667D01*
X26349366Y16666667D02*
X26382700Y16633334D01*
X26382700Y16633334D02*
X26449366Y16600001D01*
X26449366Y16600001D02*
X26549366Y16600001D01*
X26549366Y16600001D02*
X26616033Y16633334D01*
X26616033Y16633334D02*
X26649366Y16666667D01*
X26649366Y16666667D02*
X26682700Y16733334D01*
X26682700Y16733334D02*
X26682700Y17000001D01*
X26382700Y16333334D02*
X26349366Y16300001D01*
X26349366Y16300001D02*
X26316033Y16233334D01*
X26316033Y16233334D02*
X26316033Y16066667D01*
X26316033Y16066667D02*
X26349366Y16000001D01*
X26349366Y16000001D02*
X26382700Y15966667D01*
X26382700Y15966667D02*
X26449366Y15933334D01*
X26449366Y15933334D02*
X26516033Y15933334D01*
X26516033Y15933334D02*
X26616033Y15966667D01*
X26616033Y15966667D02*
X27016033Y16366667D01*
X27016033Y16366667D02*
X27016033Y15933334D01*
X26316033Y15333334D02*
X26316033Y15466667D01*
X26316033Y15466667D02*
X26349366Y15533334D01*
X26349366Y15533334D02*
X26382700Y15566667D01*
X26382700Y15566667D02*
X26482700Y15633334D01*
X26482700Y15633334D02*
X26616033Y15666667D01*
X26616033Y15666667D02*
X26882700Y15666667D01*
X26882700Y15666667D02*
X26949366Y15633334D01*
X26949366Y15633334D02*
X26982700Y15600000D01*
X26982700Y15600000D02*
X27016033Y15533334D01*
X27016033Y15533334D02*
X27016033Y15400000D01*
X27016033Y15400000D02*
X26982700Y15333334D01*
X26982700Y15333334D02*
X26949366Y15300000D01*
X26949366Y15300000D02*
X26882700Y15266667D01*
X26882700Y15266667D02*
X26716033Y15266667D01*
X26716033Y15266667D02*
X26649366Y15300000D01*
X26649366Y15300000D02*
X26616033Y15333334D01*
X26616033Y15333334D02*
X26582700Y15400000D01*
X26582700Y15400000D02*
X26582700Y15533334D01*
X26582700Y15533334D02*
X26616033Y15600000D01*
X26616033Y15600000D02*
X26649366Y15633334D01*
X26649366Y15633334D02*
X26716033Y15666667D01*
X16249366Y4832018D02*
X16216033Y4898685D01*
X16216033Y4898685D02*
X16216033Y4998685D01*
X16216033Y4998685D02*
X16249366Y5098685D01*
X16249366Y5098685D02*
X16316033Y5165351D01*
X16316033Y5165351D02*
X16382700Y5198685D01*
X16382700Y5198685D02*
X16516033Y5232018D01*
X16516033Y5232018D02*
X16616033Y5232018D01*
X16616033Y5232018D02*
X16749366Y5198685D01*
X16749366Y5198685D02*
X16816033Y5165351D01*
X16816033Y5165351D02*
X16882700Y5098685D01*
X16882700Y5098685D02*
X16916033Y4998685D01*
X16916033Y4998685D02*
X16916033Y4932018D01*
X16916033Y4932018D02*
X16882700Y4832018D01*
X16882700Y4832018D02*
X16849366Y4798685D01*
X16849366Y4798685D02*
X16616033Y4798685D01*
X16616033Y4798685D02*
X16616033Y4932018D01*
X16916033Y4498685D02*
X16216033Y4498685D01*
X16216033Y4498685D02*
X16216033Y4232018D01*
X16216033Y4232018D02*
X16249366Y4165351D01*
X16249366Y4165351D02*
X16282700Y4132018D01*
X16282700Y4132018D02*
X16349366Y4098685D01*
X16349366Y4098685D02*
X16449366Y4098685D01*
X16449366Y4098685D02*
X16516033Y4132018D01*
X16516033Y4132018D02*
X16549366Y4165351D01*
X16549366Y4165351D02*
X16582700Y4232018D01*
X16582700Y4232018D02*
X16582700Y4498685D01*
X16216033Y3498685D02*
X16216033Y3632018D01*
X16216033Y3632018D02*
X16249366Y3698685D01*
X16249366Y3698685D02*
X16282700Y3732018D01*
X16282700Y3732018D02*
X16382700Y3798685D01*
X16382700Y3798685D02*
X16516033Y3832018D01*
X16516033Y3832018D02*
X16782700Y3832018D01*
X16782700Y3832018D02*
X16849366Y3798685D01*
X16849366Y3798685D02*
X16882700Y3765351D01*
X16882700Y3765351D02*
X16916033Y3698685D01*
X16916033Y3698685D02*
X16916033Y3565351D01*
X16916033Y3565351D02*
X16882700Y3498685D01*
X16882700Y3498685D02*
X16849366Y3465351D01*
X16849366Y3465351D02*
X16782700Y3432018D01*
X16782700Y3432018D02*
X16616033Y3432018D01*
X16616033Y3432018D02*
X16549366Y3465351D01*
X16549366Y3465351D02*
X16516033Y3498685D01*
X16516033Y3498685D02*
X16482700Y3565351D01*
X16482700Y3565351D02*
X16482700Y3698685D01*
X16482700Y3698685D02*
X16516033Y3765351D01*
X16516033Y3765351D02*
X16549366Y3798685D01*
X16549366Y3798685D02*
X16616033Y3832018D01*
X44199366Y17283334D02*
X44166033Y17350001D01*
X44166033Y17350001D02*
X44166033Y17450001D01*
X44166033Y17450001D02*
X44199366Y17550001D01*
X44199366Y17550001D02*
X44266033Y17616667D01*
X44266033Y17616667D02*
X44332700Y17650001D01*
X44332700Y17650001D02*
X44466033Y17683334D01*
X44466033Y17683334D02*
X44566033Y17683334D01*
X44566033Y17683334D02*
X44699366Y17650001D01*
X44699366Y17650001D02*
X44766033Y17616667D01*
X44766033Y17616667D02*
X44832700Y17550001D01*
X44832700Y17550001D02*
X44866033Y17450001D01*
X44866033Y17450001D02*
X44866033Y17383334D01*
X44866033Y17383334D02*
X44832700Y17283334D01*
X44832700Y17283334D02*
X44799366Y17250001D01*
X44799366Y17250001D02*
X44566033Y17250001D01*
X44566033Y17250001D02*
X44566033Y17383334D01*
X44866033Y16950001D02*
X44166033Y16950001D01*
X44166033Y16950001D02*
X44166033Y16683334D01*
X44166033Y16683334D02*
X44199366Y16616667D01*
X44199366Y16616667D02*
X44232700Y16583334D01*
X44232700Y16583334D02*
X44299366Y16550001D01*
X44299366Y16550001D02*
X44399366Y16550001D01*
X44399366Y16550001D02*
X44466033Y16583334D01*
X44466033Y16583334D02*
X44499366Y16616667D01*
X44499366Y16616667D02*
X44532700Y16683334D01*
X44532700Y16683334D02*
X44532700Y16950001D01*
X44232700Y16283334D02*
X44199366Y16250001D01*
X44199366Y16250001D02*
X44166033Y16183334D01*
X44166033Y16183334D02*
X44166033Y16016667D01*
X44166033Y16016667D02*
X44199366Y15950001D01*
X44199366Y15950001D02*
X44232700Y15916667D01*
X44232700Y15916667D02*
X44299366Y15883334D01*
X44299366Y15883334D02*
X44366033Y15883334D01*
X44366033Y15883334D02*
X44466033Y15916667D01*
X44466033Y15916667D02*
X44866033Y16316667D01*
X44866033Y16316667D02*
X44866033Y15883334D01*
X44166033Y15450000D02*
X44166033Y15383334D01*
X44166033Y15383334D02*
X44199366Y15316667D01*
X44199366Y15316667D02*
X44232700Y15283334D01*
X44232700Y15283334D02*
X44299366Y15250000D01*
X44299366Y15250000D02*
X44432700Y15216667D01*
X44432700Y15216667D02*
X44599366Y15216667D01*
X44599366Y15216667D02*
X44732700Y15250000D01*
X44732700Y15250000D02*
X44799366Y15283334D01*
X44799366Y15283334D02*
X44832700Y15316667D01*
X44832700Y15316667D02*
X44866033Y15383334D01*
X44866033Y15383334D02*
X44866033Y15450000D01*
X44866033Y15450000D02*
X44832700Y15516667D01*
X44832700Y15516667D02*
X44799366Y15550000D01*
X44799366Y15550000D02*
X44732700Y15583334D01*
X44732700Y15583334D02*
X44599366Y15616667D01*
X44599366Y15616667D02*
X44432700Y15616667D01*
X44432700Y15616667D02*
X44299366Y15583334D01*
X44299366Y15583334D02*
X44232700Y15550000D01*
X44232700Y15550000D02*
X44199366Y15516667D01*
X44199366Y15516667D02*
X44166033Y15450000D01*
X31549366Y5498685D02*
X31516033Y5565352D01*
X31516033Y5565352D02*
X31516033Y5665352D01*
X31516033Y5665352D02*
X31549366Y5765352D01*
X31549366Y5765352D02*
X31616033Y5832018D01*
X31616033Y5832018D02*
X31682700Y5865352D01*
X31682700Y5865352D02*
X31816033Y5898685D01*
X31816033Y5898685D02*
X31916033Y5898685D01*
X31916033Y5898685D02*
X32049366Y5865352D01*
X32049366Y5865352D02*
X32116033Y5832018D01*
X32116033Y5832018D02*
X32182700Y5765352D01*
X32182700Y5765352D02*
X32216033Y5665352D01*
X32216033Y5665352D02*
X32216033Y5598685D01*
X32216033Y5598685D02*
X32182700Y5498685D01*
X32182700Y5498685D02*
X32149366Y5465352D01*
X32149366Y5465352D02*
X31916033Y5465352D01*
X31916033Y5465352D02*
X31916033Y5598685D01*
X32216033Y5165352D02*
X31516033Y5165352D01*
X31516033Y5165352D02*
X31516033Y4898685D01*
X31516033Y4898685D02*
X31549366Y4832018D01*
X31549366Y4832018D02*
X31582700Y4798685D01*
X31582700Y4798685D02*
X31649366Y4765352D01*
X31649366Y4765352D02*
X31749366Y4765352D01*
X31749366Y4765352D02*
X31816033Y4798685D01*
X31816033Y4798685D02*
X31849366Y4832018D01*
X31849366Y4832018D02*
X31882700Y4898685D01*
X31882700Y4898685D02*
X31882700Y5165352D01*
X32216033Y4098685D02*
X32216033Y4498685D01*
X32216033Y4298685D02*
X31516033Y4298685D01*
X31516033Y4298685D02*
X31616033Y4365352D01*
X31616033Y4365352D02*
X31682700Y4432018D01*
X31682700Y4432018D02*
X31716033Y4498685D01*
X31582700Y3832018D02*
X31549366Y3798685D01*
X31549366Y3798685D02*
X31516033Y3732018D01*
X31516033Y3732018D02*
X31516033Y3565351D01*
X31516033Y3565351D02*
X31549366Y3498685D01*
X31549366Y3498685D02*
X31582700Y3465351D01*
X31582700Y3465351D02*
X31649366Y3432018D01*
X31649366Y3432018D02*
X31716033Y3432018D01*
X31716033Y3432018D02*
X31816033Y3465351D01*
X31816033Y3465351D02*
X32216033Y3865351D01*
X32216033Y3865351D02*
X32216033Y3432018D01*
X44199366Y5148685D02*
X44166033Y5215352D01*
X44166033Y5215352D02*
X44166033Y5315352D01*
X44166033Y5315352D02*
X44199366Y5415352D01*
X44199366Y5415352D02*
X44266033Y5482018D01*
X44266033Y5482018D02*
X44332700Y5515352D01*
X44332700Y5515352D02*
X44466033Y5548685D01*
X44466033Y5548685D02*
X44566033Y5548685D01*
X44566033Y5548685D02*
X44699366Y5515352D01*
X44699366Y5515352D02*
X44766033Y5482018D01*
X44766033Y5482018D02*
X44832700Y5415352D01*
X44832700Y5415352D02*
X44866033Y5315352D01*
X44866033Y5315352D02*
X44866033Y5248685D01*
X44866033Y5248685D02*
X44832700Y5148685D01*
X44832700Y5148685D02*
X44799366Y5115352D01*
X44799366Y5115352D02*
X44566033Y5115352D01*
X44566033Y5115352D02*
X44566033Y5248685D01*
X44866033Y4815352D02*
X44166033Y4815352D01*
X44166033Y4815352D02*
X44166033Y4548685D01*
X44166033Y4548685D02*
X44199366Y4482018D01*
X44199366Y4482018D02*
X44232700Y4448685D01*
X44232700Y4448685D02*
X44299366Y4415352D01*
X44299366Y4415352D02*
X44399366Y4415352D01*
X44399366Y4415352D02*
X44466033Y4448685D01*
X44466033Y4448685D02*
X44499366Y4482018D01*
X44499366Y4482018D02*
X44532700Y4548685D01*
X44532700Y4548685D02*
X44532700Y4815352D01*
X44866033Y3748685D02*
X44866033Y4148685D01*
X44866033Y3948685D02*
X44166033Y3948685D01*
X44166033Y3948685D02*
X44266033Y4015352D01*
X44266033Y4015352D02*
X44332700Y4082018D01*
X44332700Y4082018D02*
X44366033Y4148685D01*
X44166033Y3515351D02*
X44166033Y3048685D01*
X44166033Y3048685D02*
X44866033Y3348685D01*
X46749366Y17333334D02*
X46716033Y17400001D01*
X46716033Y17400001D02*
X46716033Y17500001D01*
X46716033Y17500001D02*
X46749366Y17600001D01*
X46749366Y17600001D02*
X46816033Y17666667D01*
X46816033Y17666667D02*
X46882700Y17700001D01*
X46882700Y17700001D02*
X47016033Y17733334D01*
X47016033Y17733334D02*
X47116033Y17733334D01*
X47116033Y17733334D02*
X47249366Y17700001D01*
X47249366Y17700001D02*
X47316033Y17666667D01*
X47316033Y17666667D02*
X47382700Y17600001D01*
X47382700Y17600001D02*
X47416033Y17500001D01*
X47416033Y17500001D02*
X47416033Y17433334D01*
X47416033Y17433334D02*
X47382700Y17333334D01*
X47382700Y17333334D02*
X47349366Y17300001D01*
X47349366Y17300001D02*
X47116033Y17300001D01*
X47116033Y17300001D02*
X47116033Y17433334D01*
X47416033Y17000001D02*
X46716033Y17000001D01*
X46716033Y17000001D02*
X46716033Y16733334D01*
X46716033Y16733334D02*
X46749366Y16666667D01*
X46749366Y16666667D02*
X46782700Y16633334D01*
X46782700Y16633334D02*
X46849366Y16600001D01*
X46849366Y16600001D02*
X46949366Y16600001D01*
X46949366Y16600001D02*
X47016033Y16633334D01*
X47016033Y16633334D02*
X47049366Y16666667D01*
X47049366Y16666667D02*
X47082700Y16733334D01*
X47082700Y16733334D02*
X47082700Y17000001D01*
X47416033Y15933334D02*
X47416033Y16333334D01*
X47416033Y16133334D02*
X46716033Y16133334D01*
X46716033Y16133334D02*
X46816033Y16200001D01*
X46816033Y16200001D02*
X46882700Y16266667D01*
X46882700Y16266667D02*
X46916033Y16333334D01*
X47416033Y15600000D02*
X47416033Y15466667D01*
X47416033Y15466667D02*
X47382700Y15400000D01*
X47382700Y15400000D02*
X47349366Y15366667D01*
X47349366Y15366667D02*
X47249366Y15300000D01*
X47249366Y15300000D02*
X47116033Y15266667D01*
X47116033Y15266667D02*
X46849366Y15266667D01*
X46849366Y15266667D02*
X46782700Y15300000D01*
X46782700Y15300000D02*
X46749366Y15333334D01*
X46749366Y15333334D02*
X46716033Y15400000D01*
X46716033Y15400000D02*
X46716033Y15533334D01*
X46716033Y15533334D02*
X46749366Y15600000D01*
X46749366Y15600000D02*
X46782700Y15633334D01*
X46782700Y15633334D02*
X46849366Y15666667D01*
X46849366Y15666667D02*
X47016033Y15666667D01*
X47016033Y15666667D02*
X47082700Y15633334D01*
X47082700Y15633334D02*
X47116033Y15600000D01*
X47116033Y15600000D02*
X47149366Y15533334D01*
X47149366Y15533334D02*
X47149366Y15400000D01*
X47149366Y15400000D02*
X47116033Y15333334D01*
X47116033Y15333334D02*
X47082700Y15300000D01*
X47082700Y15300000D02*
X47016033Y15266667D01*
X21349366Y17333334D02*
X21316033Y17400001D01*
X21316033Y17400001D02*
X21316033Y17500001D01*
X21316033Y17500001D02*
X21349366Y17600001D01*
X21349366Y17600001D02*
X21416033Y17666667D01*
X21416033Y17666667D02*
X21482700Y17700001D01*
X21482700Y17700001D02*
X21616033Y17733334D01*
X21616033Y17733334D02*
X21716033Y17733334D01*
X21716033Y17733334D02*
X21849366Y17700001D01*
X21849366Y17700001D02*
X21916033Y17666667D01*
X21916033Y17666667D02*
X21982700Y17600001D01*
X21982700Y17600001D02*
X22016033Y17500001D01*
X22016033Y17500001D02*
X22016033Y17433334D01*
X22016033Y17433334D02*
X21982700Y17333334D01*
X21982700Y17333334D02*
X21949366Y17300001D01*
X21949366Y17300001D02*
X21716033Y17300001D01*
X21716033Y17300001D02*
X21716033Y17433334D01*
X22016033Y17000001D02*
X21316033Y17000001D01*
X21316033Y17000001D02*
X21316033Y16733334D01*
X21316033Y16733334D02*
X21349366Y16666667D01*
X21349366Y16666667D02*
X21382700Y16633334D01*
X21382700Y16633334D02*
X21449366Y16600001D01*
X21449366Y16600001D02*
X21549366Y16600001D01*
X21549366Y16600001D02*
X21616033Y16633334D01*
X21616033Y16633334D02*
X21649366Y16666667D01*
X21649366Y16666667D02*
X21682700Y16733334D01*
X21682700Y16733334D02*
X21682700Y17000001D01*
X21382700Y16333334D02*
X21349366Y16300001D01*
X21349366Y16300001D02*
X21316033Y16233334D01*
X21316033Y16233334D02*
X21316033Y16066667D01*
X21316033Y16066667D02*
X21349366Y16000001D01*
X21349366Y16000001D02*
X21382700Y15966667D01*
X21382700Y15966667D02*
X21449366Y15933334D01*
X21449366Y15933334D02*
X21516033Y15933334D01*
X21516033Y15933334D02*
X21616033Y15966667D01*
X21616033Y15966667D02*
X22016033Y16366667D01*
X22016033Y16366667D02*
X22016033Y15933334D01*
X21616033Y15533334D02*
X21582700Y15600000D01*
X21582700Y15600000D02*
X21549366Y15633334D01*
X21549366Y15633334D02*
X21482700Y15666667D01*
X21482700Y15666667D02*
X21449366Y15666667D01*
X21449366Y15666667D02*
X21382700Y15633334D01*
X21382700Y15633334D02*
X21349366Y15600000D01*
X21349366Y15600000D02*
X21316033Y15533334D01*
X21316033Y15533334D02*
X21316033Y15400000D01*
X21316033Y15400000D02*
X21349366Y15333334D01*
X21349366Y15333334D02*
X21382700Y15300000D01*
X21382700Y15300000D02*
X21449366Y15266667D01*
X21449366Y15266667D02*
X21482700Y15266667D01*
X21482700Y15266667D02*
X21549366Y15300000D01*
X21549366Y15300000D02*
X21582700Y15333334D01*
X21582700Y15333334D02*
X21616033Y15400000D01*
X21616033Y15400000D02*
X21616033Y15533334D01*
X21616033Y15533334D02*
X21649366Y15600000D01*
X21649366Y15600000D02*
X21682700Y15633334D01*
X21682700Y15633334D02*
X21749366Y15666667D01*
X21749366Y15666667D02*
X21882700Y15666667D01*
X21882700Y15666667D02*
X21949366Y15633334D01*
X21949366Y15633334D02*
X21982700Y15600000D01*
X21982700Y15600000D02*
X22016033Y15533334D01*
X22016033Y15533334D02*
X22016033Y15400000D01*
X22016033Y15400000D02*
X21982700Y15333334D01*
X21982700Y15333334D02*
X21949366Y15300000D01*
X21949366Y15300000D02*
X21882700Y15266667D01*
X21882700Y15266667D02*
X21749366Y15266667D01*
X21749366Y15266667D02*
X21682700Y15300000D01*
X21682700Y15300000D02*
X21649366Y15333334D01*
X21649366Y15333334D02*
X21616033Y15400000D01*
X41549366Y17233334D02*
X41516033Y17300001D01*
X41516033Y17300001D02*
X41516033Y17400001D01*
X41516033Y17400001D02*
X41549366Y17500001D01*
X41549366Y17500001D02*
X41616033Y17566667D01*
X41616033Y17566667D02*
X41682700Y17600001D01*
X41682700Y17600001D02*
X41816033Y17633334D01*
X41816033Y17633334D02*
X41916033Y17633334D01*
X41916033Y17633334D02*
X42049366Y17600001D01*
X42049366Y17600001D02*
X42116033Y17566667D01*
X42116033Y17566667D02*
X42182700Y17500001D01*
X42182700Y17500001D02*
X42216033Y17400001D01*
X42216033Y17400001D02*
X42216033Y17333334D01*
X42216033Y17333334D02*
X42182700Y17233334D01*
X42182700Y17233334D02*
X42149366Y17200001D01*
X42149366Y17200001D02*
X41916033Y17200001D01*
X41916033Y17200001D02*
X41916033Y17333334D01*
X42216033Y16900001D02*
X41516033Y16900001D01*
X41516033Y16900001D02*
X41516033Y16633334D01*
X41516033Y16633334D02*
X41549366Y16566667D01*
X41549366Y16566667D02*
X41582700Y16533334D01*
X41582700Y16533334D02*
X41649366Y16500001D01*
X41649366Y16500001D02*
X41749366Y16500001D01*
X41749366Y16500001D02*
X41816033Y16533334D01*
X41816033Y16533334D02*
X41849366Y16566667D01*
X41849366Y16566667D02*
X41882700Y16633334D01*
X41882700Y16633334D02*
X41882700Y16900001D01*
X41582700Y16233334D02*
X41549366Y16200001D01*
X41549366Y16200001D02*
X41516033Y16133334D01*
X41516033Y16133334D02*
X41516033Y15966667D01*
X41516033Y15966667D02*
X41549366Y15900001D01*
X41549366Y15900001D02*
X41582700Y15866667D01*
X41582700Y15866667D02*
X41649366Y15833334D01*
X41649366Y15833334D02*
X41716033Y15833334D01*
X41716033Y15833334D02*
X41816033Y15866667D01*
X41816033Y15866667D02*
X42216033Y16266667D01*
X42216033Y16266667D02*
X42216033Y15833334D01*
X42216033Y15166667D02*
X42216033Y15566667D01*
X42216033Y15366667D02*
X41516033Y15366667D01*
X41516033Y15366667D02*
X41616033Y15433334D01*
X41616033Y15433334D02*
X41682700Y15500000D01*
X41682700Y15500000D02*
X41716033Y15566667D01*
X47490866Y7695238D02*
X47452771Y7695238D01*
X47567057Y7733334D02*
X47452771Y7733334D01*
X47643247Y7771429D02*
X47452771Y7771429D01*
X47719438Y7809524D02*
X47452771Y7809524D01*
X47757533Y7847619D02*
X47452771Y7847619D01*
X47833723Y7885715D02*
X47452771Y7885715D01*
X47909914Y7923810D02*
X47452771Y7923810D01*
X47986104Y7961905D02*
X47452771Y7961905D01*
X48062295Y8000000D02*
X47452771Y8000000D01*
X47986104Y8038096D02*
X47452771Y8038096D01*
X47909914Y8076191D02*
X47452771Y8076191D01*
X47833723Y8114286D02*
X47452771Y8114286D01*
X47757533Y8152381D02*
X47452771Y8152381D01*
X47719438Y8190477D02*
X47452771Y8190477D01*
X47643247Y8228572D02*
X47452771Y8228572D01*
X47567057Y8266667D02*
X47452771Y8266667D01*
X47452771Y8304762D02*
X48024200Y8000000D01*
X48024200Y8000000D02*
X47452771Y7695238D01*
X47490866Y8304762D02*
X47452771Y8304762D01*
X48062295Y8000000D02*
X47452771Y8342858D01*
X47452771Y8342858D02*
X47452771Y7657143D01*
X47452771Y7657143D02*
X48062295Y8000000D01*
X21349366Y4832018D02*
X21316033Y4898685D01*
X21316033Y4898685D02*
X21316033Y4998685D01*
X21316033Y4998685D02*
X21349366Y5098685D01*
X21349366Y5098685D02*
X21416033Y5165351D01*
X21416033Y5165351D02*
X21482700Y5198685D01*
X21482700Y5198685D02*
X21616033Y5232018D01*
X21616033Y5232018D02*
X21716033Y5232018D01*
X21716033Y5232018D02*
X21849366Y5198685D01*
X21849366Y5198685D02*
X21916033Y5165351D01*
X21916033Y5165351D02*
X21982700Y5098685D01*
X21982700Y5098685D02*
X22016033Y4998685D01*
X22016033Y4998685D02*
X22016033Y4932018D01*
X22016033Y4932018D02*
X21982700Y4832018D01*
X21982700Y4832018D02*
X21949366Y4798685D01*
X21949366Y4798685D02*
X21716033Y4798685D01*
X21716033Y4798685D02*
X21716033Y4932018D01*
X22016033Y4498685D02*
X21316033Y4498685D01*
X21316033Y4498685D02*
X21316033Y4232018D01*
X21316033Y4232018D02*
X21349366Y4165351D01*
X21349366Y4165351D02*
X21382700Y4132018D01*
X21382700Y4132018D02*
X21449366Y4098685D01*
X21449366Y4098685D02*
X21549366Y4098685D01*
X21549366Y4098685D02*
X21616033Y4132018D01*
X21616033Y4132018D02*
X21649366Y4165351D01*
X21649366Y4165351D02*
X21682700Y4232018D01*
X21682700Y4232018D02*
X21682700Y4498685D01*
X21616033Y3698685D02*
X21582700Y3765351D01*
X21582700Y3765351D02*
X21549366Y3798685D01*
X21549366Y3798685D02*
X21482700Y3832018D01*
X21482700Y3832018D02*
X21449366Y3832018D01*
X21449366Y3832018D02*
X21382700Y3798685D01*
X21382700Y3798685D02*
X21349366Y3765351D01*
X21349366Y3765351D02*
X21316033Y3698685D01*
X21316033Y3698685D02*
X21316033Y3565351D01*
X21316033Y3565351D02*
X21349366Y3498685D01*
X21349366Y3498685D02*
X21382700Y3465351D01*
X21382700Y3465351D02*
X21449366Y3432018D01*
X21449366Y3432018D02*
X21482700Y3432018D01*
X21482700Y3432018D02*
X21549366Y3465351D01*
X21549366Y3465351D02*
X21582700Y3498685D01*
X21582700Y3498685D02*
X21616033Y3565351D01*
X21616033Y3565351D02*
X21616033Y3698685D01*
X21616033Y3698685D02*
X21649366Y3765351D01*
X21649366Y3765351D02*
X21682700Y3798685D01*
X21682700Y3798685D02*
X21749366Y3832018D01*
X21749366Y3832018D02*
X21882700Y3832018D01*
X21882700Y3832018D02*
X21949366Y3798685D01*
X21949366Y3798685D02*
X21982700Y3765351D01*
X21982700Y3765351D02*
X22016033Y3698685D01*
X22016033Y3698685D02*
X22016033Y3565351D01*
X22016033Y3565351D02*
X21982700Y3498685D01*
X21982700Y3498685D02*
X21949366Y3465351D01*
X21949366Y3465351D02*
X21882700Y3432018D01*
X21882700Y3432018D02*
X21749366Y3432018D01*
X21749366Y3432018D02*
X21682700Y3465351D01*
X21682700Y3465351D02*
X21649366Y3498685D01*
X21649366Y3498685D02*
X21616033Y3565351D01*
X26449366Y5498685D02*
X26416033Y5565352D01*
X26416033Y5565352D02*
X26416033Y5665352D01*
X26416033Y5665352D02*
X26449366Y5765352D01*
X26449366Y5765352D02*
X26516033Y5832018D01*
X26516033Y5832018D02*
X26582700Y5865352D01*
X26582700Y5865352D02*
X26716033Y5898685D01*
X26716033Y5898685D02*
X26816033Y5898685D01*
X26816033Y5898685D02*
X26949366Y5865352D01*
X26949366Y5865352D02*
X27016033Y5832018D01*
X27016033Y5832018D02*
X27082700Y5765352D01*
X27082700Y5765352D02*
X27116033Y5665352D01*
X27116033Y5665352D02*
X27116033Y5598685D01*
X27116033Y5598685D02*
X27082700Y5498685D01*
X27082700Y5498685D02*
X27049366Y5465352D01*
X27049366Y5465352D02*
X26816033Y5465352D01*
X26816033Y5465352D02*
X26816033Y5598685D01*
X27116033Y5165352D02*
X26416033Y5165352D01*
X26416033Y5165352D02*
X26416033Y4898685D01*
X26416033Y4898685D02*
X26449366Y4832018D01*
X26449366Y4832018D02*
X26482700Y4798685D01*
X26482700Y4798685D02*
X26549366Y4765352D01*
X26549366Y4765352D02*
X26649366Y4765352D01*
X26649366Y4765352D02*
X26716033Y4798685D01*
X26716033Y4798685D02*
X26749366Y4832018D01*
X26749366Y4832018D02*
X26782700Y4898685D01*
X26782700Y4898685D02*
X26782700Y5165352D01*
X27116033Y4098685D02*
X27116033Y4498685D01*
X27116033Y4298685D02*
X26416033Y4298685D01*
X26416033Y4298685D02*
X26516033Y4365352D01*
X26516033Y4365352D02*
X26582700Y4432018D01*
X26582700Y4432018D02*
X26616033Y4498685D01*
X26416033Y3665351D02*
X26416033Y3598685D01*
X26416033Y3598685D02*
X26449366Y3532018D01*
X26449366Y3532018D02*
X26482700Y3498685D01*
X26482700Y3498685D02*
X26549366Y3465351D01*
X26549366Y3465351D02*
X26682700Y3432018D01*
X26682700Y3432018D02*
X26849366Y3432018D01*
X26849366Y3432018D02*
X26982700Y3465351D01*
X26982700Y3465351D02*
X27049366Y3498685D01*
X27049366Y3498685D02*
X27082700Y3532018D01*
X27082700Y3532018D02*
X27116033Y3598685D01*
X27116033Y3598685D02*
X27116033Y3665351D01*
X27116033Y3665351D02*
X27082700Y3732018D01*
X27082700Y3732018D02*
X27049366Y3765351D01*
X27049366Y3765351D02*
X26982700Y3798685D01*
X26982700Y3798685D02*
X26849366Y3832018D01*
X26849366Y3832018D02*
X26682700Y3832018D01*
X26682700Y3832018D02*
X26549366Y3798685D01*
X26549366Y3798685D02*
X26482700Y3765351D01*
X26482700Y3765351D02*
X26449366Y3732018D01*
X26449366Y3732018D02*
X26416033Y3665351D01*
X23799366Y4832018D02*
X23766033Y4898685D01*
X23766033Y4898685D02*
X23766033Y4998685D01*
X23766033Y4998685D02*
X23799366Y5098685D01*
X23799366Y5098685D02*
X23866033Y5165351D01*
X23866033Y5165351D02*
X23932700Y5198685D01*
X23932700Y5198685D02*
X24066033Y5232018D01*
X24066033Y5232018D02*
X24166033Y5232018D01*
X24166033Y5232018D02*
X24299366Y5198685D01*
X24299366Y5198685D02*
X24366033Y5165351D01*
X24366033Y5165351D02*
X24432700Y5098685D01*
X24432700Y5098685D02*
X24466033Y4998685D01*
X24466033Y4998685D02*
X24466033Y4932018D01*
X24466033Y4932018D02*
X24432700Y4832018D01*
X24432700Y4832018D02*
X24399366Y4798685D01*
X24399366Y4798685D02*
X24166033Y4798685D01*
X24166033Y4798685D02*
X24166033Y4932018D01*
X24466033Y4498685D02*
X23766033Y4498685D01*
X23766033Y4498685D02*
X23766033Y4232018D01*
X23766033Y4232018D02*
X23799366Y4165351D01*
X23799366Y4165351D02*
X23832700Y4132018D01*
X23832700Y4132018D02*
X23899366Y4098685D01*
X23899366Y4098685D02*
X23999366Y4098685D01*
X23999366Y4098685D02*
X24066033Y4132018D01*
X24066033Y4132018D02*
X24099366Y4165351D01*
X24099366Y4165351D02*
X24132700Y4232018D01*
X24132700Y4232018D02*
X24132700Y4498685D01*
X24466033Y3765351D02*
X24466033Y3632018D01*
X24466033Y3632018D02*
X24432700Y3565351D01*
X24432700Y3565351D02*
X24399366Y3532018D01*
X24399366Y3532018D02*
X24299366Y3465351D01*
X24299366Y3465351D02*
X24166033Y3432018D01*
X24166033Y3432018D02*
X23899366Y3432018D01*
X23899366Y3432018D02*
X23832700Y3465351D01*
X23832700Y3465351D02*
X23799366Y3498685D01*
X23799366Y3498685D02*
X23766033Y3565351D01*
X23766033Y3565351D02*
X23766033Y3698685D01*
X23766033Y3698685D02*
X23799366Y3765351D01*
X23799366Y3765351D02*
X23832700Y3798685D01*
X23832700Y3798685D02*
X23899366Y3832018D01*
X23899366Y3832018D02*
X24066033Y3832018D01*
X24066033Y3832018D02*
X24132700Y3798685D01*
X24132700Y3798685D02*
X24166033Y3765351D01*
X24166033Y3765351D02*
X24199366Y3698685D01*
X24199366Y3698685D02*
X24199366Y3565351D01*
X24199366Y3565351D02*
X24166033Y3498685D01*
X24166033Y3498685D02*
X24132700Y3465351D01*
X24132700Y3465351D02*
X24066033Y3432018D01*
X8616033Y17783333D02*
X9316033Y17549999D01*
X9316033Y17549999D02*
X8616033Y17316666D01*
X9382700Y17249999D02*
X9382700Y16716666D01*
X8949366Y16550000D02*
X8949366Y16316666D01*
X9316033Y16216666D02*
X9316033Y16550000D01*
X9316033Y16550000D02*
X8616033Y16550000D01*
X8616033Y16550000D02*
X8616033Y16216666D01*
X9316033Y15916667D02*
X8616033Y15916667D01*
X8616033Y15916667D02*
X9316033Y15516667D01*
X9316033Y15516667D02*
X8616033Y15516667D01*
X36549366Y17233334D02*
X36516033Y17300001D01*
X36516033Y17300001D02*
X36516033Y17400001D01*
X36516033Y17400001D02*
X36549366Y17500001D01*
X36549366Y17500001D02*
X36616033Y17566667D01*
X36616033Y17566667D02*
X36682700Y17600001D01*
X36682700Y17600001D02*
X36816033Y17633334D01*
X36816033Y17633334D02*
X36916033Y17633334D01*
X36916033Y17633334D02*
X37049366Y17600001D01*
X37049366Y17600001D02*
X37116033Y17566667D01*
X37116033Y17566667D02*
X37182700Y17500001D01*
X37182700Y17500001D02*
X37216033Y17400001D01*
X37216033Y17400001D02*
X37216033Y17333334D01*
X37216033Y17333334D02*
X37182700Y17233334D01*
X37182700Y17233334D02*
X37149366Y17200001D01*
X37149366Y17200001D02*
X36916033Y17200001D01*
X36916033Y17200001D02*
X36916033Y17333334D01*
X37216033Y16900001D02*
X36516033Y16900001D01*
X36516033Y16900001D02*
X36516033Y16633334D01*
X36516033Y16633334D02*
X36549366Y16566667D01*
X36549366Y16566667D02*
X36582700Y16533334D01*
X36582700Y16533334D02*
X36649366Y16500001D01*
X36649366Y16500001D02*
X36749366Y16500001D01*
X36749366Y16500001D02*
X36816033Y16533334D01*
X36816033Y16533334D02*
X36849366Y16566667D01*
X36849366Y16566667D02*
X36882700Y16633334D01*
X36882700Y16633334D02*
X36882700Y16900001D01*
X36582700Y16233334D02*
X36549366Y16200001D01*
X36549366Y16200001D02*
X36516033Y16133334D01*
X36516033Y16133334D02*
X36516033Y15966667D01*
X36516033Y15966667D02*
X36549366Y15900001D01*
X36549366Y15900001D02*
X36582700Y15866667D01*
X36582700Y15866667D02*
X36649366Y15833334D01*
X36649366Y15833334D02*
X36716033Y15833334D01*
X36716033Y15833334D02*
X36816033Y15866667D01*
X36816033Y15866667D02*
X37216033Y16266667D01*
X37216033Y16266667D02*
X37216033Y15833334D01*
X36516033Y15600000D02*
X36516033Y15166667D01*
X36516033Y15166667D02*
X36782700Y15400000D01*
X36782700Y15400000D02*
X36782700Y15300000D01*
X36782700Y15300000D02*
X36816033Y15233334D01*
X36816033Y15233334D02*
X36849366Y15200000D01*
X36849366Y15200000D02*
X36916033Y15166667D01*
X36916033Y15166667D02*
X37082700Y15166667D01*
X37082700Y15166667D02*
X37149366Y15200000D01*
X37149366Y15200000D02*
X37182700Y15233334D01*
X37182700Y15233334D02*
X37216033Y15300000D01*
X37216033Y15300000D02*
X37216033Y15500000D01*
X37216033Y15500000D02*
X37182700Y15566667D01*
X37182700Y15566667D02*
X37149366Y15600000D01*
X39149366Y5398685D02*
X39116033Y5465352D01*
X39116033Y5465352D02*
X39116033Y5565352D01*
X39116033Y5565352D02*
X39149366Y5665352D01*
X39149366Y5665352D02*
X39216033Y5732018D01*
X39216033Y5732018D02*
X39282700Y5765352D01*
X39282700Y5765352D02*
X39416033Y5798685D01*
X39416033Y5798685D02*
X39516033Y5798685D01*
X39516033Y5798685D02*
X39649366Y5765352D01*
X39649366Y5765352D02*
X39716033Y5732018D01*
X39716033Y5732018D02*
X39782700Y5665352D01*
X39782700Y5665352D02*
X39816033Y5565352D01*
X39816033Y5565352D02*
X39816033Y5498685D01*
X39816033Y5498685D02*
X39782700Y5398685D01*
X39782700Y5398685D02*
X39749366Y5365352D01*
X39749366Y5365352D02*
X39516033Y5365352D01*
X39516033Y5365352D02*
X39516033Y5498685D01*
X39816033Y5065352D02*
X39116033Y5065352D01*
X39116033Y5065352D02*
X39116033Y4798685D01*
X39116033Y4798685D02*
X39149366Y4732018D01*
X39149366Y4732018D02*
X39182700Y4698685D01*
X39182700Y4698685D02*
X39249366Y4665352D01*
X39249366Y4665352D02*
X39349366Y4665352D01*
X39349366Y4665352D02*
X39416033Y4698685D01*
X39416033Y4698685D02*
X39449366Y4732018D01*
X39449366Y4732018D02*
X39482700Y4798685D01*
X39482700Y4798685D02*
X39482700Y5065352D01*
X39816033Y3998685D02*
X39816033Y4398685D01*
X39816033Y4198685D02*
X39116033Y4198685D01*
X39116033Y4198685D02*
X39216033Y4265352D01*
X39216033Y4265352D02*
X39282700Y4332018D01*
X39282700Y4332018D02*
X39316033Y4398685D01*
X39116033Y3365351D02*
X39116033Y3698685D01*
X39116033Y3698685D02*
X39449366Y3732018D01*
X39449366Y3732018D02*
X39416033Y3698685D01*
X39416033Y3698685D02*
X39382700Y3632018D01*
X39382700Y3632018D02*
X39382700Y3465351D01*
X39382700Y3465351D02*
X39416033Y3398685D01*
X39416033Y3398685D02*
X39449366Y3365351D01*
X39449366Y3365351D02*
X39516033Y3332018D01*
X39516033Y3332018D02*
X39682700Y3332018D01*
X39682700Y3332018D02*
X39749366Y3365351D01*
X39749366Y3365351D02*
X39782700Y3398685D01*
X39782700Y3398685D02*
X39816033Y3465351D01*
X39816033Y3465351D02*
X39816033Y3632018D01*
X39816033Y3632018D02*
X39782700Y3698685D01*
X39782700Y3698685D02*
X39749366Y3732018D01*
X36549366Y5498685D02*
X36516033Y5565352D01*
X36516033Y5565352D02*
X36516033Y5665352D01*
X36516033Y5665352D02*
X36549366Y5765352D01*
X36549366Y5765352D02*
X36616033Y5832018D01*
X36616033Y5832018D02*
X36682700Y5865352D01*
X36682700Y5865352D02*
X36816033Y5898685D01*
X36816033Y5898685D02*
X36916033Y5898685D01*
X36916033Y5898685D02*
X37049366Y5865352D01*
X37049366Y5865352D02*
X37116033Y5832018D01*
X37116033Y5832018D02*
X37182700Y5765352D01*
X37182700Y5765352D02*
X37216033Y5665352D01*
X37216033Y5665352D02*
X37216033Y5598685D01*
X37216033Y5598685D02*
X37182700Y5498685D01*
X37182700Y5498685D02*
X37149366Y5465352D01*
X37149366Y5465352D02*
X36916033Y5465352D01*
X36916033Y5465352D02*
X36916033Y5598685D01*
X37216033Y5165352D02*
X36516033Y5165352D01*
X36516033Y5165352D02*
X36516033Y4898685D01*
X36516033Y4898685D02*
X36549366Y4832018D01*
X36549366Y4832018D02*
X36582700Y4798685D01*
X36582700Y4798685D02*
X36649366Y4765352D01*
X36649366Y4765352D02*
X36749366Y4765352D01*
X36749366Y4765352D02*
X36816033Y4798685D01*
X36816033Y4798685D02*
X36849366Y4832018D01*
X36849366Y4832018D02*
X36882700Y4898685D01*
X36882700Y4898685D02*
X36882700Y5165352D01*
X37216033Y4098685D02*
X37216033Y4498685D01*
X37216033Y4298685D02*
X36516033Y4298685D01*
X36516033Y4298685D02*
X36616033Y4365352D01*
X36616033Y4365352D02*
X36682700Y4432018D01*
X36682700Y4432018D02*
X36716033Y4498685D01*
X36749366Y3498685D02*
X37216033Y3498685D01*
X36482700Y3665351D02*
X36982700Y3832018D01*
X36982700Y3832018D02*
X36982700Y3398685D01*
X8649366Y4732018D02*
X8616033Y4798685D01*
X8616033Y4798685D02*
X8616033Y4898685D01*
X8616033Y4898685D02*
X8649366Y4998685D01*
X8649366Y4998685D02*
X8716033Y5065351D01*
X8716033Y5065351D02*
X8782700Y5098685D01*
X8782700Y5098685D02*
X8916033Y5132018D01*
X8916033Y5132018D02*
X9016033Y5132018D01*
X9016033Y5132018D02*
X9149366Y5098685D01*
X9149366Y5098685D02*
X9216033Y5065351D01*
X9216033Y5065351D02*
X9282700Y4998685D01*
X9282700Y4998685D02*
X9316033Y4898685D01*
X9316033Y4898685D02*
X9316033Y4832018D01*
X9316033Y4832018D02*
X9282700Y4732018D01*
X9282700Y4732018D02*
X9249366Y4698685D01*
X9249366Y4698685D02*
X9016033Y4698685D01*
X9016033Y4698685D02*
X9016033Y4832018D01*
X9316033Y4398685D02*
X8616033Y4398685D01*
X8616033Y4398685D02*
X8616033Y4132018D01*
X8616033Y4132018D02*
X8649366Y4065351D01*
X8649366Y4065351D02*
X8682700Y4032018D01*
X8682700Y4032018D02*
X8749366Y3998685D01*
X8749366Y3998685D02*
X8849366Y3998685D01*
X8849366Y3998685D02*
X8916033Y4032018D01*
X8916033Y4032018D02*
X8949366Y4065351D01*
X8949366Y4065351D02*
X8982700Y4132018D01*
X8982700Y4132018D02*
X8982700Y4398685D01*
X8616033Y3765351D02*
X8616033Y3332018D01*
X8616033Y3332018D02*
X8882700Y3565351D01*
X8882700Y3565351D02*
X8882700Y3465351D01*
X8882700Y3465351D02*
X8916033Y3398685D01*
X8916033Y3398685D02*
X8949366Y3365351D01*
X8949366Y3365351D02*
X9016033Y3332018D01*
X9016033Y3332018D02*
X9182700Y3332018D01*
X9182700Y3332018D02*
X9249366Y3365351D01*
X9249366Y3365351D02*
X9282700Y3398685D01*
X9282700Y3398685D02*
X9316033Y3465351D01*
X9316033Y3465351D02*
X9316033Y3665351D01*
X9316033Y3665351D02*
X9282700Y3732018D01*
X9282700Y3732018D02*
X9249366Y3765351D01*
D12*
%TO.C,kibuzzard-631DD76C*%
G36*
X47934474Y10020496D02*
G01*
X47934474Y10008272D01*
X47916694Y9929929D01*
X47867799Y9878811D01*
X47793901Y9851030D01*
X47749034Y9844779D01*
X47700000Y9842696D01*
X47613322Y9849363D01*
X47538869Y9872699D01*
X47487196Y9918261D01*
X47467749Y9992714D01*
X47468304Y10012717D01*
X47471082Y10032719D01*
X47933363Y10032719D01*
X47934474Y10020496D01*
G37*
G36*
X48174689Y11296211D02*
G01*
X48174689Y9703789D01*
X48174689Y9564883D01*
X47225311Y9564883D01*
X47225311Y9703789D01*
X47225311Y10004938D01*
X47348845Y10004938D01*
X47353846Y9940069D01*
X47368847Y9881034D01*
X47394545Y9829222D01*
X47431633Y9786022D01*
X47480250Y9751434D01*
X47540536Y9725459D01*
X47613461Y9709207D01*
X47700000Y9703789D01*
X47788483Y9709762D01*
X47862798Y9727681D01*
X47923778Y9756157D01*
X47972256Y9793801D01*
X48008789Y9840056D01*
X48033931Y9894369D01*
X48048516Y9955626D01*
X48053378Y10022718D01*
X48049488Y10094394D01*
X48036709Y10169403D01*
X47365514Y10169403D01*
X47352179Y10081614D01*
X47348845Y10004938D01*
X47225311Y10004938D01*
X47225311Y10632794D01*
X47356624Y10632794D01*
X47423299Y10633906D01*
X47492196Y10635017D01*
X47562066Y10636128D01*
X47631658Y10637239D01*
X47700278Y10638351D01*
X47767231Y10639462D01*
X47831266Y10640295D01*
X47891135Y10640573D01*
X47813348Y10617793D01*
X47730004Y10593345D01*
X47654439Y10571676D01*
X47599987Y10556118D01*
X47599987Y10456106D01*
X47652216Y10442771D01*
X47721114Y10423324D01*
X47802235Y10399987D01*
X47891135Y10374984D01*
X47831266Y10375262D01*
X47767231Y10376096D01*
X47700417Y10377207D01*
X47632214Y10378318D01*
X47562900Y10379429D01*
X47492752Y10380541D01*
X47423438Y10381374D01*
X47356624Y10381652D01*
X47356624Y10254969D01*
X47442329Y10258303D01*
X47530534Y10261637D01*
X47619712Y10265248D01*
X47708334Y10269416D01*
X47795984Y10274277D01*
X47882245Y10279972D01*
X47965589Y10286501D01*
X48044488Y10293863D01*
X48044488Y10407211D01*
X47971840Y10431658D01*
X47893913Y10456106D01*
X47815153Y10480553D01*
X47740005Y10505001D01*
X47813070Y10530004D01*
X47892246Y10556118D01*
X47971423Y10581677D01*
X48044488Y10605013D01*
X48044488Y10718361D01*
X47965450Y10726695D01*
X47881689Y10733918D01*
X47795012Y10740169D01*
X47707223Y10745586D01*
X47618601Y10750170D01*
X47529423Y10753921D01*
X47441495Y10756977D01*
X47356624Y10759477D01*
X47356624Y10632794D01*
X47225311Y10632794D01*
X47225311Y11050624D01*
X47341066Y11050624D01*
X47344678Y10991311D01*
X47355512Y10940055D01*
X47387739Y10860601D01*
X47493307Y10900606D01*
X47466637Y10962280D01*
X47455525Y11040623D01*
X47464292Y11101125D01*
X47490591Y11137425D01*
X47534424Y11149526D01*
X47569428Y11138413D01*
X47596098Y11110076D01*
X47616656Y11071183D01*
X47633325Y11028399D01*
X47660551Y10961169D01*
X47700556Y10896716D01*
X47762786Y10848377D01*
X47804874Y10834208D01*
X47856686Y10829486D01*
X47942391Y10845182D01*
X48006149Y10892271D01*
X48035474Y10941351D01*
X48053069Y11004878D01*
X48058934Y11082851D01*
X48054350Y11159805D01*
X48040598Y11219534D01*
X48006705Y11296211D01*
X47895580Y11256206D01*
X47928918Y11184530D01*
X47940586Y11138274D01*
X47944475Y11082851D01*
X47937252Y11025621D01*
X47917249Y10989506D01*
X47888357Y10971170D01*
X47855575Y10966169D01*
X47817793Y10978393D01*
X47788344Y11009508D01*
X47765008Y11051736D01*
X47745561Y11098408D01*
X47720003Y11162861D01*
X47683331Y11223424D01*
X47628324Y11268429D01*
X47546647Y11286209D01*
X47460526Y11270513D01*
X47395517Y11223424D01*
X47365267Y11176319D01*
X47347116Y11118719D01*
X47341066Y11050624D01*
X47225311Y11050624D01*
X47225311Y11296211D01*
X47225311Y11435117D01*
X48174689Y11435117D01*
X48174689Y11296211D01*
G37*
%TO.C,kibuzzard-661291DF*%
G36*
X3874830Y13803876D02*
G01*
X3704759Y13601193D01*
X3498225Y13355056D01*
X3028829Y12795652D01*
X2948012Y12699337D01*
X2777941Y12496655D01*
X1825170Y13296124D01*
X1871486Y13351321D01*
X2171007Y13351321D01*
X2773218Y12846006D01*
X2854036Y12942321D01*
X2810823Y13026382D01*
X2769080Y13111974D01*
X2728805Y13199097D01*
X2689890Y13287841D01*
X2652228Y13378298D01*
X2615819Y13470466D01*
X3015671Y13134951D01*
X3106285Y13242940D01*
X2504074Y13748254D01*
X2423257Y13651940D01*
X2445030Y13587250D01*
X2470451Y13519498D01*
X2497881Y13450683D01*
X2525681Y13382802D01*
X2553751Y13316972D01*
X2581995Y13254313D01*
X2608733Y13197269D01*
X2632287Y13148285D01*
X2261621Y13459310D01*
X2171007Y13351321D01*
X1871486Y13351321D01*
X1995241Y13498807D01*
X2250258Y13802724D01*
X2601173Y13802724D01*
X2722638Y13753855D01*
X2742399Y13826798D01*
X2785575Y13899988D01*
X2861551Y13958919D01*
X2945252Y13970750D01*
X3034266Y13942479D01*
X3079966Y13914701D01*
X3126331Y13879319D01*
X3188826Y13820432D01*
X3232323Y13764591D01*
X3256825Y13711796D01*
X3259825Y13637577D01*
X3223818Y13568732D01*
X3203252Y13546200D01*
X3180742Y13525300D01*
X2960872Y13709792D01*
X2860462Y13590129D01*
X3161081Y13337879D01*
X3234512Y13389827D01*
X3283748Y13433686D01*
X3336079Y13491113D01*
X3376093Y13548926D01*
X3401442Y13609513D01*
X3411839Y13672285D01*
X3406996Y13736654D01*
X3386608Y13802254D01*
X3350369Y13868721D01*
X3297788Y13935223D01*
X3228374Y14000928D01*
X3151731Y14056536D01*
X3075514Y14094377D01*
X3001194Y14115708D01*
X2930236Y14121782D01*
X2863293Y14112883D01*
X2801015Y14089292D01*
X2744628Y14052470D01*
X2695355Y14003875D01*
X2648052Y13936635D01*
X2619804Y13878273D01*
X2606234Y13832464D01*
X2601173Y13802724D01*
X2250258Y13802724D01*
X2751988Y14400663D01*
X2922059Y14603345D01*
X3874830Y13803876D01*
G37*
%TO.C,kibuzzard-6612913A*%
G36*
X3261948Y10090283D02*
G01*
X3300683Y10087108D01*
X3300683Y9833108D01*
X3237183Y9833108D01*
X3171460Y9840569D01*
X3124153Y9862953D01*
X3095578Y9903434D01*
X3086053Y9965188D01*
X3095419Y10023767D01*
X3123518Y10062343D01*
X3167174Y10083774D01*
X3223213Y10090918D01*
X3261948Y10090283D01*
G37*
G36*
X3912823Y10090283D02*
G01*
X3935683Y10087108D01*
X3935683Y9558788D01*
X3921713Y9557518D01*
X3907743Y9557518D01*
X3818208Y9577838D01*
X3759788Y9633718D01*
X3728038Y9718173D01*
X3720894Y9769449D01*
X3718513Y9825488D01*
X3726133Y9924548D01*
X3752803Y10009638D01*
X3804873Y10068693D01*
X3889963Y10090918D01*
X3912823Y10090283D01*
G37*
G36*
X4356476Y9209961D02*
G01*
X4091893Y9209961D01*
X3924253Y9209961D01*
X3300683Y9209961D01*
X2926033Y9209961D01*
X2661450Y9209961D01*
X2661450Y9963918D01*
X2926033Y9963918D01*
X2935276Y9878616D01*
X2963004Y9810671D01*
X3009218Y9760083D01*
X3072365Y9725158D01*
X3150894Y9704203D01*
X3244803Y9697218D01*
X3300683Y9697218D01*
X3300683Y9431788D01*
X3456893Y9431788D01*
X3456893Y9825488D01*
X3559763Y9825488D01*
X3566589Y9724364D01*
X3587068Y9639433D01*
X3619612Y9569742D01*
X3662633Y9514338D01*
X3715497Y9472587D01*
X3777568Y9443853D01*
X3847577Y9427184D01*
X3924253Y9421628D01*
X4006168Y9426073D01*
X4091893Y9440678D01*
X4091893Y10207758D01*
X3991563Y10222998D01*
X3903933Y10226808D01*
X3829797Y10221093D01*
X3762328Y10203948D01*
X3703114Y10174579D01*
X3653743Y10132193D01*
X3614214Y10076630D01*
X3584528Y10007733D01*
X3565954Y9924389D01*
X3559763Y9825488D01*
X3456893Y9825488D01*
X3456893Y10207758D01*
X3405458Y10216648D01*
X3347673Y10222363D01*
X3290523Y10225538D01*
X3240993Y10226808D01*
X3148565Y10219964D01*
X3071095Y10199432D01*
X3008583Y10165213D01*
X2962722Y10115471D01*
X2935205Y10048373D01*
X2926033Y9963918D01*
X2661450Y9963918D01*
X2661450Y10438475D01*
X2926033Y10438475D01*
X4091893Y10438475D01*
X4356476Y10438475D01*
X4356476Y9209961D01*
G37*
%TO.C,kibuzzard-661291DB*%
G36*
X2978760Y7270101D02*
G01*
X3016776Y7184292D01*
X2981401Y7114820D01*
X2941150Y7092649D01*
X2905208Y7093991D01*
X2872622Y7113069D01*
X2843250Y7143132D01*
X2820549Y7172162D01*
X2801426Y7200880D01*
X2939575Y7316800D01*
X2978760Y7270101D01*
G37*
G36*
X3228436Y7511933D02*
G01*
X3254308Y7483077D01*
X3284373Y7440332D01*
X3300705Y7395182D01*
X3295254Y7348333D01*
X3260124Y7302277D01*
X3174108Y7277350D01*
X3092687Y7335857D01*
X3038809Y7400066D01*
X3202252Y7537212D01*
X3228436Y7511933D01*
G37*
G36*
X2930338Y8409872D02*
G01*
X3071564Y8241564D01*
X3512388Y7716211D01*
X3710759Y7479802D01*
X3880830Y7277120D01*
X2939733Y6487446D01*
X2769662Y6690128D01*
X2306441Y7242174D01*
X2607621Y7242174D01*
X2660264Y7158691D01*
X2723642Y7074269D01*
X2779007Y7015450D01*
X2830812Y6975198D01*
X2924109Y6939089D01*
X3002940Y6948870D01*
X3066714Y6987462D01*
X3102701Y7026569D01*
X3125047Y7072053D01*
X3130643Y7172076D01*
X3200075Y7142677D01*
X3260758Y7139508D01*
X3313449Y7155745D01*
X3358901Y7184559D01*
X3405005Y7231119D01*
X3434355Y7279371D01*
X3450686Y7378455D01*
X3440434Y7428707D01*
X3418960Y7479489D01*
X3388238Y7530180D01*
X3350242Y7580154D01*
X3315065Y7619854D01*
X3276475Y7659175D01*
X3235287Y7697147D01*
X3192319Y7732795D01*
X2607621Y7242174D01*
X2306441Y7242174D01*
X1989241Y7620198D01*
X1870281Y7761969D01*
X2158198Y7761969D01*
X2264322Y7635496D01*
X2320912Y7670547D01*
X2387491Y7709005D01*
X2460549Y7749377D01*
X2536572Y7790165D01*
X2614000Y7830266D01*
X2691271Y7868579D01*
X2765079Y7903364D01*
X2832115Y7932881D01*
X2792033Y7872722D01*
X2744898Y7806645D01*
X2693341Y7737687D01*
X2639995Y7668886D01*
X2586198Y7601362D01*
X2533287Y7536242D01*
X2483894Y7476560D01*
X2440652Y7425353D01*
X2545959Y7299853D01*
X2596819Y7364703D01*
X2652243Y7437942D01*
X2710753Y7518124D01*
X2770872Y7603798D01*
X2811403Y7663506D01*
X2851765Y7724728D01*
X2891960Y7787468D01*
X2931296Y7850685D01*
X2969079Y7913335D01*
X3005310Y7975421D01*
X2901635Y8098976D01*
X2809924Y8063055D01*
X2708233Y8021244D01*
X2637438Y7991130D01*
X2567295Y7960456D01*
X2497806Y7929226D01*
X2430122Y7898037D01*
X2365399Y7867492D01*
X2303638Y7837588D01*
X2222067Y7796496D01*
X2158198Y7761969D01*
X1870281Y7761969D01*
X1819170Y7822880D01*
X2760267Y8612554D01*
X2930338Y8409872D01*
G37*
%TO.C,G\u002A\u002A\u002A*%
G36*
X24657516Y13568976D02*
G01*
X24703314Y13568922D01*
X24740407Y13568770D01*
X24769809Y13568471D01*
X24792533Y13567978D01*
X24809596Y13567241D01*
X24822011Y13566211D01*
X24830794Y13564841D01*
X24836957Y13563081D01*
X24841517Y13560883D01*
X24845488Y13558198D01*
X24846314Y13557575D01*
X24858980Y13544811D01*
X24869293Y13529560D01*
X24869733Y13528633D01*
X24870714Y13525905D01*
X24871619Y13522092D01*
X24872450Y13516787D01*
X24873210Y13509586D01*
X24873903Y13500083D01*
X24874532Y13487871D01*
X24875099Y13472546D01*
X24875609Y13453702D01*
X24876063Y13430933D01*
X24876466Y13403835D01*
X24876820Y13372000D01*
X24877129Y13335023D01*
X24877395Y13292500D01*
X24877621Y13244024D01*
X24877811Y13189190D01*
X24877968Y13127592D01*
X24878096Y13058825D01*
X24878196Y12982482D01*
X24878272Y12898159D01*
X24878328Y12805450D01*
X24878366Y12703950D01*
X24878389Y12593251D01*
X24878402Y12472950D01*
X24878406Y12342641D01*
X24878405Y12226987D01*
X24878397Y12105699D01*
X24878380Y11994060D01*
X24878349Y11891661D01*
X24878302Y11798097D01*
X24878235Y11712961D01*
X24878146Y11635846D01*
X24878030Y11566346D01*
X24877885Y11504054D01*
X24877707Y11448562D01*
X24877493Y11399466D01*
X24877240Y11356357D01*
X24876944Y11318830D01*
X24876603Y11286478D01*
X24876213Y11258894D01*
X24875770Y11235671D01*
X24875272Y11216403D01*
X24874715Y11200683D01*
X24874097Y11188105D01*
X24873413Y11178261D01*
X24872660Y11170746D01*
X24871836Y11165153D01*
X24870936Y11161074D01*
X24869958Y11158104D01*
X24868899Y11155835D01*
X24868313Y11154782D01*
X24856437Y11139984D01*
X24841643Y11128579D01*
X24837296Y11126495D01*
X24831212Y11124452D01*
X24823102Y11122819D01*
X24811918Y11121551D01*
X24796610Y11120603D01*
X24776132Y11119928D01*
X24749433Y11119482D01*
X24715466Y11119220D01*
X24673182Y11119096D01*
X24621533Y11119065D01*
X24612980Y11119065D01*
X24559965Y11119117D01*
X24516219Y11119341D01*
X24480746Y11119862D01*
X24452546Y11120802D01*
X24430621Y11122284D01*
X24413973Y11124432D01*
X24401603Y11127367D01*
X24392512Y11131214D01*
X24385704Y11136096D01*
X24380178Y11142135D01*
X24374936Y11149454D01*
X24374050Y11150976D01*
X24373070Y11153461D01*
X24372167Y11157067D01*
X24371336Y11162195D01*
X24370574Y11169252D01*
X24369878Y11178640D01*
X24369243Y11190763D01*
X24368666Y11206027D01*
X24368144Y11224835D01*
X24367672Y11247591D01*
X24367247Y11274699D01*
X24366866Y11306564D01*
X24366525Y11343589D01*
X24366220Y11386179D01*
X24365947Y11434738D01*
X24365703Y11489670D01*
X24365484Y11551378D01*
X24365287Y11620268D01*
X24365107Y11696743D01*
X24364942Y11781208D01*
X24364787Y11874066D01*
X24364639Y11975721D01*
X24364495Y12086579D01*
X24364350Y12207042D01*
X24364201Y12337515D01*
X24364120Y12409690D01*
X24363987Y12534786D01*
X24363874Y12650092D01*
X24363785Y12756014D01*
X24363722Y12852956D01*
X24363687Y12941324D01*
X24363684Y13021521D01*
X24363715Y13093954D01*
X24363782Y13159026D01*
X24363889Y13217143D01*
X24364038Y13268709D01*
X24364231Y13314130D01*
X24364471Y13353810D01*
X24364762Y13388154D01*
X24365105Y13417567D01*
X24365503Y13442454D01*
X24365960Y13463219D01*
X24366476Y13480269D01*
X24367056Y13494006D01*
X24367702Y13504837D01*
X24368416Y13513166D01*
X24369202Y13519398D01*
X24370061Y13523937D01*
X24370997Y13527190D01*
X24372011Y13529560D01*
X24372542Y13530571D01*
X24383219Y13545865D01*
X24395842Y13558198D01*
X24398541Y13560089D01*
X24402805Y13562436D01*
X24408352Y13564329D01*
X24416196Y13565817D01*
X24427353Y13566949D01*
X24442837Y13567773D01*
X24463661Y13568338D01*
X24490842Y13568693D01*
X24525393Y13568887D01*
X24568329Y13568967D01*
X24620665Y13568983D01*
X24657516Y13568976D01*
G37*
G36*
X32374367Y13568976D02*
G01*
X32420166Y13568922D01*
X32457258Y13568770D01*
X32486660Y13568471D01*
X32509385Y13567978D01*
X32526447Y13567241D01*
X32538863Y13566211D01*
X32547645Y13564841D01*
X32553808Y13563081D01*
X32558368Y13560883D01*
X32562339Y13558198D01*
X32563165Y13557575D01*
X32575831Y13544811D01*
X32586145Y13529560D01*
X32586584Y13528633D01*
X32587565Y13525905D01*
X32588470Y13522092D01*
X32589301Y13516787D01*
X32590061Y13509586D01*
X32590754Y13500083D01*
X32591383Y13487871D01*
X32591951Y13472546D01*
X32592460Y13453702D01*
X32592915Y13430933D01*
X32593317Y13403835D01*
X32593671Y13372000D01*
X32593980Y13335023D01*
X32594246Y13292500D01*
X32594472Y13244024D01*
X32594662Y13189190D01*
X32594820Y13127592D01*
X32594947Y13058825D01*
X32595047Y12982482D01*
X32595123Y12898159D01*
X32595179Y12805450D01*
X32595217Y12703950D01*
X32595241Y12593251D01*
X32595253Y12472950D01*
X32595257Y12342641D01*
X32595256Y12226987D01*
X32595248Y12105699D01*
X32595231Y11994060D01*
X32595200Y11891661D01*
X32595153Y11798097D01*
X32595087Y11712961D01*
X32594997Y11635846D01*
X32594881Y11566346D01*
X32594736Y11504054D01*
X32594558Y11448562D01*
X32594344Y11399466D01*
X32594091Y11356357D01*
X32593796Y11318830D01*
X32593454Y11286478D01*
X32593064Y11258894D01*
X32592621Y11235671D01*
X32592123Y11216403D01*
X32591567Y11200683D01*
X32590948Y11188105D01*
X32590264Y11178261D01*
X32589511Y11170746D01*
X32588687Y11165153D01*
X32587787Y11161074D01*
X32586810Y11158104D01*
X32585750Y11155835D01*
X32585164Y11154782D01*
X32573288Y11139984D01*
X32558494Y11128579D01*
X32554147Y11126495D01*
X32548063Y11124452D01*
X32539953Y11122819D01*
X32528769Y11121551D01*
X32513462Y11120603D01*
X32492983Y11119928D01*
X32466284Y11119482D01*
X32432317Y11119220D01*
X32390033Y11119096D01*
X32338384Y11119065D01*
X32329831Y11119065D01*
X32276816Y11119117D01*
X32233071Y11119341D01*
X32197597Y11119862D01*
X32169397Y11120802D01*
X32147472Y11122284D01*
X32130824Y11124432D01*
X32118454Y11127367D01*
X32109364Y11131214D01*
X32102555Y11136096D01*
X32097029Y11142135D01*
X32091788Y11149454D01*
X32090901Y11150976D01*
X32089921Y11153461D01*
X32089018Y11157067D01*
X32088187Y11162195D01*
X32087425Y11169252D01*
X32086729Y11178640D01*
X32086094Y11190763D01*
X32085517Y11206027D01*
X32084995Y11224835D01*
X32084523Y11247591D01*
X32084099Y11274699D01*
X32083717Y11306564D01*
X32083376Y11343589D01*
X32083071Y11386179D01*
X32082798Y11434738D01*
X32082554Y11489670D01*
X32082335Y11551378D01*
X32082138Y11620268D01*
X32081958Y11696743D01*
X32081793Y11781208D01*
X32081638Y11874066D01*
X32081490Y11975721D01*
X32081346Y12086579D01*
X32081201Y12207042D01*
X32081052Y12337515D01*
X32080972Y12409690D01*
X32080838Y12534786D01*
X32080725Y12650092D01*
X32080636Y12756014D01*
X32080573Y12852956D01*
X32080538Y12941324D01*
X32080535Y13021521D01*
X32080566Y13093954D01*
X32080633Y13159026D01*
X32080740Y13217143D01*
X32080889Y13268709D01*
X32081082Y13314130D01*
X32081323Y13353810D01*
X32081613Y13388154D01*
X32081956Y13417567D01*
X32082355Y13442454D01*
X32082811Y13463219D01*
X32083327Y13480269D01*
X32083907Y13494006D01*
X32084553Y13504837D01*
X32085267Y13513166D01*
X32086053Y13519398D01*
X32086912Y13523937D01*
X32087848Y13527190D01*
X32088862Y13529560D01*
X32089393Y13530571D01*
X32100070Y13545865D01*
X32112693Y13558198D01*
X32115392Y13560089D01*
X32119656Y13562436D01*
X32125203Y13564329D01*
X32133048Y13565817D01*
X32144204Y13566949D01*
X32159688Y13567773D01*
X32180513Y13568338D01*
X32207693Y13568693D01*
X32242244Y13568887D01*
X32285180Y13568967D01*
X32337516Y13568983D01*
X32374367Y13568976D01*
G37*
G36*
X15295372Y13571572D02*
G01*
X15392064Y13571553D01*
X15479314Y13571515D01*
X15557621Y13571451D01*
X15627481Y13571357D01*
X15689392Y13571227D01*
X15743852Y13571055D01*
X15791357Y13570836D01*
X15832405Y13570564D01*
X15867493Y13570233D01*
X15897120Y13569838D01*
X15921781Y13569373D01*
X15941975Y13568833D01*
X15958198Y13568211D01*
X15970949Y13567503D01*
X15980725Y13566703D01*
X15988022Y13565805D01*
X15993339Y13564803D01*
X15997172Y13563692D01*
X16000020Y13562466D01*
X16001023Y13561940D01*
X16016321Y13551279D01*
X16028659Y13538657D01*
X16029782Y13537090D01*
X16032557Y13532506D01*
X16034743Y13526845D01*
X16036410Y13518939D01*
X16037629Y13507621D01*
X16038469Y13491725D01*
X16039000Y13470084D01*
X16039293Y13441529D01*
X16039417Y13404895D01*
X16039443Y13359013D01*
X16039416Y13320464D01*
X16039277Y13281924D01*
X16038964Y13251697D01*
X16038416Y13228627D01*
X16037572Y13211559D01*
X16036372Y13199337D01*
X16034753Y13190807D01*
X16032657Y13184812D01*
X16030021Y13180197D01*
X16028259Y13177638D01*
X16023448Y13171389D01*
X16017941Y13166152D01*
X16010854Y13161840D01*
X16001304Y13158361D01*
X15988408Y13155627D01*
X15971281Y13153548D01*
X15949041Y13152034D01*
X15920805Y13150997D01*
X15885688Y13150345D01*
X15842807Y13149991D01*
X15791279Y13149844D01*
X15730220Y13149815D01*
X15687895Y13149810D01*
X15637446Y13149769D01*
X15595832Y13149653D01*
X15562135Y13149424D01*
X15535436Y13149047D01*
X15514819Y13148482D01*
X15499365Y13147692D01*
X15488156Y13146640D01*
X15480273Y13145287D01*
X15474800Y13143597D01*
X15470818Y13141532D01*
X15467410Y13139055D01*
X15453730Y13128294D01*
X15452388Y12147493D01*
X15451046Y11166691D01*
X15440262Y11151990D01*
X15439639Y11151164D01*
X15426874Y11138498D01*
X15411623Y11128185D01*
X15408665Y11126799D01*
X15402588Y11124712D01*
X15394498Y11123035D01*
X15383346Y11121723D01*
X15368080Y11120733D01*
X15347650Y11120022D01*
X15321007Y11119544D01*
X15287101Y11119258D01*
X15244881Y11119118D01*
X15193297Y11119081D01*
X15176193Y11119083D01*
X15124415Y11119153D01*
X15081780Y11119435D01*
X15047304Y11120074D01*
X15020004Y11121216D01*
X14998898Y11123006D01*
X14983002Y11125591D01*
X14971333Y11129114D01*
X14962908Y11133723D01*
X14956745Y11139562D01*
X14951861Y11146777D01*
X14947272Y11155514D01*
X14946989Y11156102D01*
X14945905Y11158931D01*
X14944913Y11162813D01*
X14944009Y11168195D01*
X14943190Y11175522D01*
X14942450Y11185240D01*
X14941787Y11197795D01*
X14941195Y11213632D01*
X14940671Y11233198D01*
X14940211Y11256937D01*
X14939810Y11285296D01*
X14939465Y11318721D01*
X14939171Y11357656D01*
X14938925Y11402549D01*
X14938721Y11453843D01*
X14938557Y11511987D01*
X14938428Y11577424D01*
X14938330Y11650601D01*
X14938258Y11731963D01*
X14938210Y11821957D01*
X14938180Y11921028D01*
X14938164Y12029621D01*
X14938159Y12148182D01*
X14938159Y12163681D01*
X14938156Y12280697D01*
X14938144Y12387800D01*
X14938121Y12485436D01*
X14938081Y12574047D01*
X14938020Y12654081D01*
X14937933Y12725981D01*
X14937817Y12790192D01*
X14937666Y12847159D01*
X14937476Y12897327D01*
X14937242Y12941141D01*
X14936960Y12979046D01*
X14936626Y13011487D01*
X14936235Y13038908D01*
X14935782Y13061754D01*
X14935264Y13080471D01*
X14934675Y13095503D01*
X14934011Y13107295D01*
X14933267Y13116291D01*
X14932440Y13122938D01*
X14931524Y13127679D01*
X14930516Y13130960D01*
X14929410Y13133225D01*
X14928202Y13134919D01*
X14918252Y13147212D01*
X14653530Y13149815D01*
X14632855Y13150020D01*
X14576453Y13150614D01*
X14529292Y13151190D01*
X14490488Y13151785D01*
X14459158Y13152438D01*
X14434419Y13153188D01*
X14415388Y13154071D01*
X14401182Y13155127D01*
X14390917Y13156394D01*
X14383710Y13157908D01*
X14378677Y13159710D01*
X14374937Y13161836D01*
X14370214Y13165165D01*
X14362949Y13171362D01*
X14357197Y13178753D01*
X14352784Y13188488D01*
X14349534Y13201722D01*
X14347269Y13219606D01*
X14345814Y13243293D01*
X14344993Y13273936D01*
X14344629Y13312688D01*
X14344547Y13360701D01*
X14344606Y13407116D01*
X14344930Y13446537D01*
X14345736Y13477748D01*
X14347242Y13501875D01*
X14349665Y13520044D01*
X14353222Y13533381D01*
X14358129Y13543013D01*
X14364604Y13550067D01*
X14372864Y13555667D01*
X14383125Y13560942D01*
X14383674Y13561207D01*
X14386753Y13562612D01*
X14390200Y13563884D01*
X14394517Y13565029D01*
X14400207Y13566055D01*
X14407771Y13566968D01*
X14417712Y13567775D01*
X14430532Y13568481D01*
X14446734Y13569095D01*
X14466820Y13569621D01*
X14491292Y13570068D01*
X14520652Y13570441D01*
X14555404Y13570747D01*
X14596048Y13570993D01*
X14643089Y13571185D01*
X14697027Y13571330D01*
X14758365Y13571434D01*
X14827605Y13571504D01*
X14905251Y13571547D01*
X14991803Y13571570D01*
X15087765Y13571578D01*
X15193639Y13571578D01*
X15295372Y13571572D01*
G37*
G36*
X19330837Y13571572D02*
G01*
X19427529Y13571553D01*
X19514780Y13571515D01*
X19593086Y13571451D01*
X19662947Y13571357D01*
X19724858Y13571227D01*
X19779317Y13571055D01*
X19826822Y13570836D01*
X19867870Y13570564D01*
X19902959Y13570233D01*
X19932585Y13569838D01*
X19957246Y13569373D01*
X19977440Y13568833D01*
X19993664Y13568211D01*
X20006415Y13567503D01*
X20016190Y13566703D01*
X20023487Y13565805D01*
X20028804Y13564803D01*
X20032638Y13563692D01*
X20035485Y13562466D01*
X20036488Y13561940D01*
X20051786Y13551279D01*
X20064124Y13538657D01*
X20065248Y13537090D01*
X20068022Y13532506D01*
X20070208Y13526845D01*
X20071876Y13518939D01*
X20073094Y13507621D01*
X20073934Y13491725D01*
X20074465Y13470084D01*
X20074758Y13441529D01*
X20074882Y13404895D01*
X20074908Y13359013D01*
X20074881Y13320464D01*
X20074742Y13281924D01*
X20074429Y13251697D01*
X20073881Y13228627D01*
X20073037Y13211559D01*
X20071837Y13199337D01*
X20070219Y13190807D01*
X20068122Y13184812D01*
X20065486Y13180197D01*
X20063725Y13177638D01*
X20058914Y13171389D01*
X20053406Y13166152D01*
X20046320Y13161840D01*
X20036770Y13158361D01*
X20023873Y13155627D01*
X20006747Y13153548D01*
X19984507Y13152034D01*
X19956270Y13150997D01*
X19921153Y13150345D01*
X19878272Y13149991D01*
X19826744Y13149844D01*
X19765685Y13149815D01*
X19723361Y13149810D01*
X19672911Y13149769D01*
X19631297Y13149653D01*
X19597600Y13149424D01*
X19570902Y13149047D01*
X19550284Y13148482D01*
X19534830Y13147692D01*
X19523621Y13146640D01*
X19515739Y13145287D01*
X19510266Y13143597D01*
X19506284Y13141532D01*
X19502875Y13139055D01*
X19489195Y13128294D01*
X19487853Y12147493D01*
X19486511Y11166691D01*
X19475727Y11151990D01*
X19475104Y11151164D01*
X19462339Y11138498D01*
X19447088Y11128185D01*
X19444130Y11126799D01*
X19438053Y11124712D01*
X19429964Y11123035D01*
X19418811Y11121723D01*
X19403545Y11120733D01*
X19383116Y11120022D01*
X19356473Y11119544D01*
X19322566Y11119258D01*
X19280346Y11119118D01*
X19228762Y11119081D01*
X19211658Y11119083D01*
X19159881Y11119153D01*
X19117246Y11119435D01*
X19082770Y11120074D01*
X19055470Y11121216D01*
X19034363Y11123006D01*
X19018467Y11125591D01*
X19006798Y11129114D01*
X18998374Y11133723D01*
X18992211Y11139562D01*
X18987326Y11146777D01*
X18982737Y11155514D01*
X18982454Y11156102D01*
X18981370Y11158931D01*
X18980378Y11162813D01*
X18979475Y11168195D01*
X18978655Y11175522D01*
X18977916Y11185240D01*
X18977252Y11197795D01*
X18976660Y11213632D01*
X18976136Y11233198D01*
X18975676Y11256937D01*
X18975275Y11285296D01*
X18974930Y11318721D01*
X18974636Y11357656D01*
X18974390Y11402549D01*
X18974187Y11453843D01*
X18974022Y11511987D01*
X18973893Y11577424D01*
X18973795Y11650601D01*
X18973724Y11731963D01*
X18973675Y11821957D01*
X18973645Y11921028D01*
X18973630Y12029621D01*
X18973625Y12148182D01*
X18973625Y12163681D01*
X18973621Y12280697D01*
X18973610Y12387800D01*
X18973586Y12485436D01*
X18973546Y12574047D01*
X18973485Y12654081D01*
X18973399Y12725981D01*
X18973282Y12790192D01*
X18973131Y12847159D01*
X18972941Y12897327D01*
X18972707Y12941141D01*
X18972426Y12979046D01*
X18972091Y13011487D01*
X18971700Y13038908D01*
X18971248Y13061754D01*
X18970729Y13080471D01*
X18970140Y13095503D01*
X18969476Y13107295D01*
X18968733Y13116291D01*
X18967905Y13122938D01*
X18966990Y13127679D01*
X18965981Y13130960D01*
X18964875Y13133225D01*
X18963667Y13134919D01*
X18953718Y13147212D01*
X18688995Y13149815D01*
X18668321Y13150020D01*
X18611918Y13150614D01*
X18564757Y13151190D01*
X18525953Y13151785D01*
X18494623Y13152438D01*
X18469885Y13153188D01*
X18450854Y13154071D01*
X18436647Y13155127D01*
X18426382Y13156394D01*
X18419175Y13157908D01*
X18414143Y13159710D01*
X18410402Y13161836D01*
X18405679Y13165165D01*
X18398414Y13171362D01*
X18392663Y13178753D01*
X18388250Y13188488D01*
X18384999Y13201722D01*
X18382734Y13219606D01*
X18381279Y13243293D01*
X18380458Y13273936D01*
X18380095Y13312688D01*
X18380013Y13360701D01*
X18380071Y13407116D01*
X18380395Y13446537D01*
X18381201Y13477748D01*
X18382708Y13501875D01*
X18385131Y13520044D01*
X18388687Y13533381D01*
X18393595Y13543013D01*
X18400069Y13550067D01*
X18408329Y13555667D01*
X18418590Y13560942D01*
X18419139Y13561207D01*
X18422218Y13562612D01*
X18425666Y13563884D01*
X18429983Y13565029D01*
X18435672Y13566055D01*
X18443236Y13566968D01*
X18453177Y13567775D01*
X18465998Y13568481D01*
X18482199Y13569095D01*
X18502285Y13569621D01*
X18526757Y13570068D01*
X18556118Y13570441D01*
X18590869Y13570747D01*
X18631514Y13570993D01*
X18678554Y13571185D01*
X18732492Y13571330D01*
X18793830Y13571434D01*
X18863071Y13571504D01*
X18940716Y13571547D01*
X19027269Y13571570D01*
X19123231Y13571578D01*
X19229104Y13571578D01*
X19330837Y13571572D01*
G37*
G36*
X23288197Y13571572D02*
G01*
X23384889Y13571553D01*
X23472139Y13571515D01*
X23550446Y13571451D01*
X23620306Y13571357D01*
X23682217Y13571227D01*
X23736677Y13571055D01*
X23784182Y13570836D01*
X23825230Y13570564D01*
X23860318Y13570233D01*
X23889945Y13569838D01*
X23914606Y13569373D01*
X23934800Y13568833D01*
X23951023Y13568211D01*
X23963774Y13567503D01*
X23973550Y13566703D01*
X23980847Y13565805D01*
X23986164Y13564803D01*
X23989997Y13563692D01*
X23992845Y13562466D01*
X23993848Y13561940D01*
X24009145Y13551279D01*
X24021484Y13538657D01*
X24022607Y13537090D01*
X24025382Y13532506D01*
X24027568Y13526845D01*
X24029235Y13518939D01*
X24030454Y13507621D01*
X24031294Y13491725D01*
X24031825Y13470084D01*
X24032118Y13441529D01*
X24032242Y13404895D01*
X24032268Y13359013D01*
X24032241Y13320464D01*
X24032102Y13281924D01*
X24031789Y13251697D01*
X24031241Y13228627D01*
X24030397Y13211559D01*
X24029197Y13199337D01*
X24027578Y13190807D01*
X24025482Y13184812D01*
X24022846Y13180197D01*
X24021084Y13177638D01*
X24016273Y13171389D01*
X24010766Y13166152D01*
X24003679Y13161840D01*
X23994129Y13158361D01*
X23981233Y13155627D01*
X23964106Y13153548D01*
X23941866Y13152034D01*
X23913630Y13150997D01*
X23878512Y13150345D01*
X23835632Y13149991D01*
X23784104Y13149844D01*
X23723045Y13149815D01*
X23680720Y13149810D01*
X23630271Y13149769D01*
X23588657Y13149653D01*
X23554959Y13149424D01*
X23528261Y13149047D01*
X23507644Y13148482D01*
X23492190Y13147692D01*
X23480981Y13146640D01*
X23473098Y13145287D01*
X23467625Y13143597D01*
X23463643Y13141532D01*
X23460235Y13139055D01*
X23446555Y13128294D01*
X23445213Y12147493D01*
X23443871Y11166691D01*
X23433087Y11151990D01*
X23432464Y11151164D01*
X23419699Y11138498D01*
X23404448Y11128185D01*
X23401490Y11126799D01*
X23395413Y11124712D01*
X23387323Y11123035D01*
X23376171Y11121723D01*
X23360905Y11120733D01*
X23340475Y11120022D01*
X23313832Y11119544D01*
X23279926Y11119258D01*
X23237706Y11119118D01*
X23186122Y11119081D01*
X23169018Y11119083D01*
X23117240Y11119153D01*
X23074605Y11119435D01*
X23040129Y11120074D01*
X23012829Y11121216D01*
X22991723Y11123006D01*
X22975827Y11125591D01*
X22964158Y11129114D01*
X22955733Y11133723D01*
X22949570Y11139562D01*
X22944686Y11146777D01*
X22940097Y11155514D01*
X22939814Y11156102D01*
X22938730Y11158931D01*
X22937738Y11162813D01*
X22936834Y11168195D01*
X22936015Y11175522D01*
X22935275Y11185240D01*
X22934612Y11197795D01*
X22934020Y11213632D01*
X22933496Y11233198D01*
X22933036Y11256937D01*
X22932635Y11285296D01*
X22932290Y11318721D01*
X22931996Y11357656D01*
X22931749Y11402549D01*
X22931546Y11453843D01*
X22931382Y11511987D01*
X22931253Y11577424D01*
X22931155Y11650601D01*
X22931083Y11731963D01*
X22931035Y11821957D01*
X22931005Y11921028D01*
X22930989Y12029621D01*
X22930984Y12148182D01*
X22930984Y12163681D01*
X22930981Y12280697D01*
X22930969Y12387800D01*
X22930946Y12485436D01*
X22930906Y12574047D01*
X22930845Y12654081D01*
X22930758Y12725981D01*
X22930642Y12790192D01*
X22930491Y12847159D01*
X22930300Y12897327D01*
X22930067Y12941141D01*
X22929785Y12979046D01*
X22929451Y13011487D01*
X22929060Y13038908D01*
X22928607Y13061754D01*
X22928089Y13080471D01*
X22927500Y13095503D01*
X22926836Y13107295D01*
X22926092Y13116291D01*
X22925265Y13122938D01*
X22924349Y13127679D01*
X22923341Y13130960D01*
X22922235Y13133225D01*
X22921027Y13134919D01*
X22911077Y13147212D01*
X22646355Y13149815D01*
X22625680Y13150020D01*
X22569278Y13150614D01*
X22522116Y13151190D01*
X22483313Y13151785D01*
X22451983Y13152438D01*
X22427244Y13153188D01*
X22408213Y13154071D01*
X22394007Y13155127D01*
X22383742Y13156394D01*
X22376535Y13157908D01*
X22371502Y13159710D01*
X22367762Y13161836D01*
X22363039Y13165165D01*
X22355773Y13171362D01*
X22350022Y13178753D01*
X22345609Y13188488D01*
X22342359Y13201722D01*
X22340094Y13219606D01*
X22338639Y13243293D01*
X22337818Y13273936D01*
X22337454Y13312688D01*
X22337372Y13360701D01*
X22337431Y13407116D01*
X22337754Y13446537D01*
X22338561Y13477748D01*
X22340067Y13501875D01*
X22342490Y13520044D01*
X22346047Y13533381D01*
X22350954Y13543013D01*
X22357429Y13550067D01*
X22365689Y13555667D01*
X22375950Y13560942D01*
X22376498Y13561207D01*
X22379578Y13562612D01*
X22383025Y13563884D01*
X22387342Y13565029D01*
X22393032Y13566055D01*
X22400596Y13566968D01*
X22410537Y13567775D01*
X22423357Y13568481D01*
X22439559Y13569095D01*
X22459645Y13569621D01*
X22484117Y13570068D01*
X22513477Y13570441D01*
X22548229Y13570747D01*
X22588873Y13570993D01*
X22635913Y13571185D01*
X22689851Y13571330D01*
X22751190Y13571434D01*
X22820430Y13571504D01*
X22898076Y13571547D01*
X22984628Y13571570D01*
X23080590Y13571578D01*
X23186464Y13571578D01*
X23288197Y13571572D01*
G37*
G36*
X18015893Y11996856D02*
G01*
X18042585Y11900884D01*
X18068139Y11808986D01*
X18092427Y11721619D01*
X18115321Y11639241D01*
X18136695Y11562313D01*
X18156422Y11491291D01*
X18174373Y11426634D01*
X18190421Y11368801D01*
X18204440Y11318250D01*
X18216301Y11275439D01*
X18225878Y11240827D01*
X18233044Y11214873D01*
X18237670Y11198034D01*
X18239629Y11190768D01*
X18239714Y11190431D01*
X18243308Y11165034D01*
X18239459Y11145351D01*
X18227799Y11129469D01*
X18226892Y11128638D01*
X18223814Y11126224D01*
X18219824Y11124249D01*
X18213974Y11122676D01*
X18205314Y11121470D01*
X18192891Y11120593D01*
X18175757Y11120009D01*
X18152961Y11119682D01*
X18123553Y11119575D01*
X18086581Y11119652D01*
X18041097Y11119877D01*
X17986149Y11120213D01*
X17755997Y11121668D01*
X17742536Y11134319D01*
X17740211Y11136505D01*
X17736971Y11139828D01*
X17733952Y11143815D01*
X17730885Y11149320D01*
X17727507Y11157196D01*
X17723550Y11168298D01*
X17718750Y11183479D01*
X17712841Y11203594D01*
X17705556Y11229496D01*
X17696631Y11262039D01*
X17685798Y11302078D01*
X17672794Y11350465D01*
X17657352Y11408056D01*
X17601511Y11616338D01*
X17210119Y11617673D01*
X16818726Y11619007D01*
X16813369Y11602052D01*
X16811927Y11597193D01*
X16807642Y11581961D01*
X16801308Y11558952D01*
X16793306Y11529590D01*
X16784017Y11495299D01*
X16773823Y11457502D01*
X16763107Y11417623D01*
X16752249Y11377086D01*
X16741632Y11337315D01*
X16731637Y11299733D01*
X16722645Y11265764D01*
X16715040Y11236832D01*
X16709202Y11214361D01*
X16705513Y11199774D01*
X16700153Y11179831D01*
X16694332Y11161403D01*
X16689468Y11149093D01*
X16686516Y11143410D01*
X16682611Y11137405D01*
X16677578Y11132479D01*
X16670490Y11128524D01*
X16660417Y11125435D01*
X16646431Y11123104D01*
X16627603Y11121425D01*
X16603004Y11120291D01*
X16571706Y11119594D01*
X16532780Y11119229D01*
X16485297Y11119088D01*
X16428329Y11119065D01*
X16424390Y11119065D01*
X16370953Y11119081D01*
X16326889Y11119157D01*
X16291223Y11119337D01*
X16262979Y11119666D01*
X16241182Y11120187D01*
X16224856Y11120947D01*
X16213025Y11121987D01*
X16204715Y11123355D01*
X16198949Y11125092D01*
X16194753Y11127245D01*
X16191150Y11129857D01*
X16183718Y11136914D01*
X16178708Y11147680D01*
X16177430Y11164247D01*
X16177869Y11167439D01*
X16180849Y11180907D01*
X16186618Y11204222D01*
X16195145Y11237270D01*
X16206400Y11279941D01*
X16220353Y11332123D01*
X16236973Y11393702D01*
X16256229Y11464568D01*
X16278091Y11544609D01*
X16302528Y11633712D01*
X16329510Y11731766D01*
X16359006Y11838659D01*
X16390986Y11954279D01*
X16408081Y12015956D01*
X16912696Y12015956D01*
X16914233Y12014526D01*
X16920213Y12013309D01*
X16931298Y12012289D01*
X16948153Y12011454D01*
X16971440Y12010787D01*
X17001823Y12010274D01*
X17039966Y12009901D01*
X17086532Y12009652D01*
X17142185Y12009514D01*
X17207588Y12009471D01*
X17504667Y12009471D01*
X17497465Y12034204D01*
X17496663Y12037072D01*
X17493130Y12050135D01*
X17487233Y12072197D01*
X17479164Y12102534D01*
X17469114Y12140422D01*
X17457276Y12185135D01*
X17443841Y12235951D01*
X17428999Y12292144D01*
X17412944Y12352991D01*
X17395865Y12417767D01*
X17377956Y12485749D01*
X17359407Y12556211D01*
X17356824Y12566027D01*
X17334344Y12651461D01*
X17314352Y12727438D01*
X17296693Y12794512D01*
X17281216Y12853235D01*
X17267767Y12904161D01*
X17256192Y12947843D01*
X17246340Y12984833D01*
X17238057Y13015686D01*
X17231191Y13040954D01*
X17225587Y13061190D01*
X17221093Y13076948D01*
X17217557Y13088780D01*
X17214825Y13097240D01*
X17212744Y13102881D01*
X17211162Y13106255D01*
X17209925Y13107917D01*
X17208880Y13108420D01*
X17207874Y13108315D01*
X17206755Y13108157D01*
X17206526Y13107988D01*
X17203777Y13101199D01*
X17198562Y13084769D01*
X17190985Y13059075D01*
X17181149Y13024496D01*
X17169158Y12981407D01*
X17155116Y12930187D01*
X17139126Y12871213D01*
X17121291Y12804862D01*
X17101715Y12731512D01*
X17080502Y12651539D01*
X17057756Y12565322D01*
X17056834Y12561817D01*
X17037601Y12488757D01*
X17019102Y12418512D01*
X17001508Y12351740D01*
X16984995Y12289102D01*
X16969738Y12231257D01*
X16955909Y12178866D01*
X16943683Y12132587D01*
X16933235Y12093081D01*
X16924739Y12061007D01*
X16918369Y12037026D01*
X16914299Y12021797D01*
X16912703Y12015979D01*
X16912696Y12015956D01*
X16408081Y12015956D01*
X16425419Y12078513D01*
X16462275Y12211251D01*
X16501523Y12352379D01*
X16825616Y13516912D01*
X16847134Y13538522D01*
X16853820Y13545092D01*
X16860542Y13550907D01*
X16867902Y13555827D01*
X16876718Y13559919D01*
X16887802Y13563254D01*
X16901969Y13565901D01*
X16920034Y13567929D01*
X16942811Y13569408D01*
X16971116Y13570407D01*
X17005761Y13570995D01*
X17047563Y13571242D01*
X17097334Y13571218D01*
X17155891Y13570991D01*
X17224047Y13570631D01*
X17523453Y13568983D01*
X17548048Y13554525D01*
X17568843Y13538626D01*
X17585720Y13517753D01*
X17585965Y13517293D01*
X17589352Y13508270D01*
X17595364Y13489592D01*
X17604011Y13461231D01*
X17615300Y13423160D01*
X17629238Y13375349D01*
X17645835Y13317771D01*
X17665097Y13250398D01*
X17687033Y13173201D01*
X17711650Y13086154D01*
X17738958Y12989226D01*
X17768963Y12882392D01*
X17801674Y12765621D01*
X17837099Y12638888D01*
X17875246Y12502162D01*
X17916122Y12355417D01*
X17930258Y12304628D01*
X17959602Y12199187D01*
X17988189Y12096443D01*
X18012384Y12009471D01*
X18015893Y11996856D01*
G37*
G36*
X25785663Y13570708D02*
G01*
X25816287Y13569944D01*
X25840370Y13568576D01*
X25858894Y13566491D01*
X25872840Y13563577D01*
X25883191Y13559721D01*
X25890926Y13554810D01*
X25897028Y13548733D01*
X25902479Y13541376D01*
X25903635Y13539378D01*
X25904731Y13536549D01*
X25905732Y13532489D01*
X25906644Y13526740D01*
X25907472Y13518842D01*
X25908223Y13508336D01*
X25908903Y13494763D01*
X25909518Y13477665D01*
X25910073Y13456580D01*
X25910574Y13431052D01*
X25911029Y13400619D01*
X25911442Y13364824D01*
X25911820Y13323206D01*
X25912168Y13275307D01*
X25912493Y13220668D01*
X25912801Y13158829D01*
X25913097Y13089331D01*
X25913388Y13011715D01*
X25913679Y12925521D01*
X25913977Y12830291D01*
X25914288Y12725566D01*
X25914617Y12610885D01*
X25917221Y11694444D01*
X25929391Y11658502D01*
X25942718Y11628252D01*
X25966156Y11596596D01*
X25996920Y11572342D01*
X26034978Y11555519D01*
X26044397Y11552638D01*
X26053552Y11550195D01*
X26063254Y11548228D01*
X26074599Y11546685D01*
X26088685Y11545515D01*
X26106606Y11544666D01*
X26129460Y11544087D01*
X26158343Y11543727D01*
X26194352Y11543533D01*
X26238581Y11543454D01*
X26292128Y11543439D01*
X26301040Y11543440D01*
X26352979Y11543455D01*
X26395755Y11543536D01*
X26430451Y11543735D01*
X26458150Y11544105D01*
X26479935Y11544700D01*
X26496889Y11545572D01*
X26510096Y11546776D01*
X26520640Y11548363D01*
X26529602Y11550387D01*
X26538067Y11552902D01*
X26547117Y11555961D01*
X26573582Y11567436D01*
X26606436Y11590615D01*
X26631892Y11621068D01*
X26649659Y11658502D01*
X26661829Y11694444D01*
X26664433Y12610885D01*
X26664751Y12721924D01*
X26665062Y12826972D01*
X26665361Y12922510D01*
X26665652Y13008995D01*
X26665943Y13086889D01*
X26666239Y13156649D01*
X26666546Y13218735D01*
X26666870Y13273606D01*
X26667218Y13321721D01*
X26667595Y13363539D01*
X26668006Y13399520D01*
X26668459Y13430123D01*
X26668960Y13455807D01*
X26669513Y13477032D01*
X26670125Y13494255D01*
X26670803Y13507938D01*
X26671552Y13518538D01*
X26672377Y13526515D01*
X26673286Y13532328D01*
X26674284Y13536436D01*
X26675377Y13539299D01*
X26676571Y13541376D01*
X26681604Y13548227D01*
X26687636Y13554405D01*
X26695232Y13559405D01*
X26705376Y13563338D01*
X26719051Y13566319D01*
X26737239Y13568460D01*
X26760924Y13569874D01*
X26791090Y13570675D01*
X26828719Y13570974D01*
X26874794Y13570885D01*
X26930299Y13570521D01*
X26950142Y13570369D01*
X26999825Y13569952D01*
X27040475Y13569441D01*
X27073110Y13568690D01*
X27098753Y13567554D01*
X27118422Y13565888D01*
X27133139Y13563545D01*
X27143923Y13560381D01*
X27151795Y13556249D01*
X27157776Y13551004D01*
X27162885Y13544501D01*
X27168142Y13536594D01*
X27169183Y13534689D01*
X27170233Y13531735D01*
X27171189Y13527439D01*
X27172055Y13521349D01*
X27172836Y13513011D01*
X27173536Y13501971D01*
X27174160Y13487775D01*
X27174712Y13469970D01*
X27175196Y13448102D01*
X27175616Y13421717D01*
X27175978Y13390363D01*
X27176285Y13353584D01*
X27176543Y13310928D01*
X27176754Y13261941D01*
X27176924Y13206169D01*
X27177058Y13143158D01*
X27177158Y13072456D01*
X27177231Y12993607D01*
X27177280Y12906159D01*
X27177309Y12809658D01*
X27177323Y12703650D01*
X27177327Y12587682D01*
X27177325Y12492008D01*
X27177311Y12384002D01*
X27177283Y12285547D01*
X27177236Y12196169D01*
X27177164Y12115392D01*
X27177063Y12042742D01*
X27176929Y11977744D01*
X27176757Y11919923D01*
X27176542Y11868804D01*
X27176281Y11823912D01*
X27175967Y11784774D01*
X27175598Y11750913D01*
X27175168Y11721854D01*
X27174673Y11697124D01*
X27174108Y11676247D01*
X27173468Y11658749D01*
X27172749Y11644154D01*
X27171947Y11631988D01*
X27171057Y11621776D01*
X27170074Y11613042D01*
X27168993Y11605313D01*
X27167811Y11598114D01*
X27154362Y11535863D01*
X27131379Y11465091D01*
X27101206Y11401245D01*
X27063550Y11343727D01*
X27018119Y11291938D01*
X26982712Y11260007D01*
X26923564Y11218030D01*
X26857356Y11183020D01*
X26784729Y11155250D01*
X26706322Y11134995D01*
X26622776Y11122530D01*
X26613351Y11121942D01*
X26593090Y11121301D01*
X26564638Y11120777D01*
X26529158Y11120366D01*
X26487815Y11120064D01*
X26441769Y11119869D01*
X26392185Y11119777D01*
X26340224Y11119783D01*
X26287049Y11119886D01*
X26233824Y11120080D01*
X26181711Y11120364D01*
X26131872Y11120733D01*
X26085471Y11121184D01*
X26043670Y11121714D01*
X26007632Y11122318D01*
X25978520Y11122994D01*
X25957496Y11123738D01*
X25945723Y11124547D01*
X25926354Y11127106D01*
X25862153Y11138280D01*
X25804294Y11153187D01*
X25749857Y11172681D01*
X25695921Y11197615D01*
X25645806Y11226508D01*
X25588097Y11269882D01*
X25537908Y11320334D01*
X25495175Y11377954D01*
X25459836Y11442829D01*
X25431826Y11515048D01*
X25411082Y11594701D01*
X25410025Y11600453D01*
X25409025Y11607506D01*
X25408111Y11616160D01*
X25407277Y11626879D01*
X25406519Y11640125D01*
X25405831Y11656364D01*
X25405210Y11676059D01*
X25404649Y11699674D01*
X25404145Y11727672D01*
X25403692Y11760518D01*
X25403284Y11798676D01*
X25402918Y11842609D01*
X25402588Y11892781D01*
X25402290Y11949656D01*
X25402018Y12013698D01*
X25401767Y12085372D01*
X25401534Y12165139D01*
X25401311Y12253466D01*
X25401096Y12350815D01*
X25400882Y12457650D01*
X25400665Y12574436D01*
X25400468Y12684919D01*
X25400289Y12791586D01*
X25400142Y12888726D01*
X25400030Y12976794D01*
X25399958Y13056246D01*
X25399928Y13127536D01*
X25399944Y13191119D01*
X25400010Y13247451D01*
X25400129Y13296987D01*
X25400305Y13340181D01*
X25400542Y13377490D01*
X25400843Y13409367D01*
X25401211Y13436269D01*
X25401650Y13458649D01*
X25402165Y13476965D01*
X25402757Y13491669D01*
X25403432Y13503218D01*
X25404192Y13512067D01*
X25405041Y13518670D01*
X25405982Y13523483D01*
X25407020Y13526961D01*
X25408157Y13529560D01*
X25408701Y13530589D01*
X25419412Y13545874D01*
X25432037Y13558198D01*
X25433519Y13559261D01*
X25437740Y13561815D01*
X25443018Y13563893D01*
X25450393Y13565555D01*
X25460904Y13566860D01*
X25475592Y13567868D01*
X25495496Y13568638D01*
X25521655Y13569228D01*
X25555109Y13569700D01*
X25596898Y13570111D01*
X25648062Y13570521D01*
X25700867Y13570871D01*
X25747517Y13570979D01*
X25785663Y13570708D01*
G37*
G36*
X28652146Y13570604D02*
G01*
X28705637Y13570117D01*
X28748843Y13569286D01*
X28781724Y13568111D01*
X28804236Y13566593D01*
X28888602Y13554926D01*
X28966311Y13536742D01*
X29036801Y13511903D01*
X29100668Y13480157D01*
X29158504Y13441253D01*
X29210905Y13394942D01*
X29219226Y13386410D01*
X29260561Y13337466D01*
X29294675Y13284364D01*
X29322184Y13225826D01*
X29343708Y13160574D01*
X29359865Y13087330D01*
X29360661Y13082683D01*
X29361971Y13074157D01*
X29363146Y13064857D01*
X29364192Y13054214D01*
X29365117Y13041661D01*
X29365928Y13026632D01*
X29366633Y13008560D01*
X29367239Y12986877D01*
X29367754Y12961018D01*
X29368185Y12930413D01*
X29368539Y12894498D01*
X29368823Y12852704D01*
X29369046Y12804465D01*
X29369214Y12749213D01*
X29369336Y12686383D01*
X29369417Y12615406D01*
X29369466Y12535716D01*
X29369490Y12446746D01*
X29369496Y12347929D01*
X29369479Y12250866D01*
X29369418Y12156705D01*
X29369310Y12072020D01*
X29369149Y11996330D01*
X29368932Y11929149D01*
X29368653Y11869995D01*
X29368309Y11818383D01*
X29367894Y11773829D01*
X29367404Y11735850D01*
X29366835Y11703961D01*
X29366182Y11677679D01*
X29365440Y11656520D01*
X29364604Y11640000D01*
X29363672Y11627635D01*
X29362636Y11618942D01*
X29357818Y11590695D01*
X29340279Y11516682D01*
X29316559Y11450238D01*
X29286233Y11390468D01*
X29248870Y11336478D01*
X29204045Y11287373D01*
X29176230Y11262146D01*
X29129038Y11226280D01*
X29078121Y11196139D01*
X29022236Y11171200D01*
X28960139Y11150938D01*
X28890589Y11134831D01*
X28812342Y11122355D01*
X28811339Y11122267D01*
X28801073Y11121942D01*
X28781548Y11121671D01*
X28753691Y11121457D01*
X28718428Y11121302D01*
X28676687Y11121208D01*
X28629394Y11121178D01*
X28577475Y11121213D01*
X28521858Y11121316D01*
X28463469Y11121490D01*
X28434050Y11121598D01*
X28368772Y11121889D01*
X28312746Y11122230D01*
X28265146Y11122643D01*
X28225146Y11123150D01*
X28191920Y11123770D01*
X28164641Y11124525D01*
X28142485Y11125437D01*
X28124625Y11126526D01*
X28110235Y11127814D01*
X28098489Y11129321D01*
X28088561Y11131068D01*
X28069645Y11135079D01*
X27987350Y11157609D01*
X27913005Y11186844D01*
X27846535Y11222853D01*
X27787867Y11265707D01*
X27736927Y11315475D01*
X27693641Y11372228D01*
X27657935Y11436036D01*
X27629735Y11506968D01*
X27608966Y11585096D01*
X27606378Y11598530D01*
X27604064Y11613915D01*
X27602288Y11631101D01*
X27600984Y11651523D01*
X27600085Y11676616D01*
X27599522Y11707817D01*
X27599229Y11746560D01*
X27599138Y11794281D01*
X27599136Y11807477D01*
X27599172Y11850362D01*
X27599331Y11884328D01*
X27599684Y11910553D01*
X27600303Y11930215D01*
X27601259Y11944492D01*
X27602623Y11954563D01*
X27604467Y11961606D01*
X27606863Y11966800D01*
X27609883Y11971321D01*
X27610756Y11972511D01*
X27616781Y11980326D01*
X27622946Y11986740D01*
X27630279Y11991891D01*
X27639805Y11995918D01*
X27652554Y11998958D01*
X27669552Y12001151D01*
X27691827Y12002635D01*
X27720406Y12003548D01*
X27756317Y12004029D01*
X27800587Y12004216D01*
X27854244Y12004247D01*
X27855303Y12004247D01*
X27913169Y12004400D01*
X27961514Y12004430D01*
X28001202Y12003721D01*
X28033101Y12001657D01*
X28058075Y11997620D01*
X28076991Y11990994D01*
X28090713Y11981164D01*
X28100109Y11967511D01*
X28106042Y11949421D01*
X28109381Y11926275D01*
X28110989Y11897458D01*
X28111733Y11862353D01*
X28112479Y11820343D01*
X28113361Y11783867D01*
X28114551Y11746539D01*
X28116068Y11716899D01*
X28118160Y11693434D01*
X28121074Y11674630D01*
X28125058Y11658976D01*
X28130358Y11644956D01*
X28137221Y11631059D01*
X28145896Y11615771D01*
X28153362Y11605085D01*
X28175348Y11584000D01*
X28204018Y11565837D01*
X28236860Y11552349D01*
X28241968Y11550887D01*
X28250922Y11548923D01*
X28261931Y11547330D01*
X28276039Y11546072D01*
X28294292Y11545111D01*
X28317735Y11544409D01*
X28347412Y11543928D01*
X28384368Y11543632D01*
X28429648Y11543481D01*
X28484297Y11543439D01*
X28484858Y11543439D01*
X28538280Y11543454D01*
X28582377Y11543530D01*
X28618229Y11543719D01*
X28646915Y11544073D01*
X28669515Y11544642D01*
X28687107Y11545478D01*
X28700772Y11546632D01*
X28711588Y11548154D01*
X28720635Y11550096D01*
X28728992Y11552510D01*
X28737738Y11555446D01*
X28740997Y11556600D01*
X28776639Y11573860D01*
X28805026Y11597453D01*
X28826622Y11628024D01*
X28841892Y11666215D01*
X28851301Y11712669D01*
X28851834Y11717935D01*
X28852757Y11733933D01*
X28853558Y11757936D01*
X28854239Y11790186D01*
X28854800Y11830924D01*
X28855245Y11880390D01*
X28855574Y11938825D01*
X28855788Y12006470D01*
X28855890Y12083566D01*
X28855881Y12170353D01*
X28855762Y12267072D01*
X28855535Y12373964D01*
X28853989Y12991000D01*
X28842334Y13025289D01*
X28833107Y13049002D01*
X28815222Y13080270D01*
X28792142Y13104433D01*
X28762224Y13123053D01*
X28723822Y13137690D01*
X28718591Y13139198D01*
X28709372Y13141355D01*
X28698608Y13143092D01*
X28685192Y13144452D01*
X28668015Y13145481D01*
X28645967Y13146223D01*
X28617941Y13146722D01*
X28582827Y13147024D01*
X28539516Y13147172D01*
X28486901Y13147212D01*
X28451804Y13147190D01*
X28401388Y13147019D01*
X28359607Y13146595D01*
X28325351Y13145821D01*
X28297511Y13144602D01*
X28274980Y13142839D01*
X28256647Y13140438D01*
X28241403Y13137301D01*
X28228139Y13133332D01*
X28215747Y13128434D01*
X28203117Y13122512D01*
X28180706Y13108734D01*
X28155648Y13085913D01*
X28137550Y13060157D01*
X28130879Y13045820D01*
X28124358Y13027057D01*
X28119444Y13005491D01*
X28115942Y12979602D01*
X28113656Y12947874D01*
X28112393Y12908787D01*
X28111956Y12860824D01*
X28111819Y12825252D01*
X28111440Y12794956D01*
X28110715Y12772141D01*
X28109531Y12755274D01*
X28107779Y12742823D01*
X28105348Y12733258D01*
X28102125Y12725045D01*
X28099908Y12720214D01*
X28095574Y12711828D01*
X28090538Y12704957D01*
X28083829Y12699449D01*
X28074475Y12695155D01*
X28061506Y12691924D01*
X28043950Y12689603D01*
X28020836Y12688043D01*
X27991193Y12687092D01*
X27954049Y12686600D01*
X27908434Y12686415D01*
X27853376Y12686387D01*
X27808995Y12686409D01*
X27765346Y12686516D01*
X27730175Y12686754D01*
X27702432Y12687169D01*
X27681070Y12687805D01*
X27665040Y12688709D01*
X27653292Y12689925D01*
X27644780Y12691499D01*
X27638454Y12693476D01*
X27633265Y12695902D01*
X27623330Y12701691D01*
X27614959Y12708362D01*
X27608531Y12716810D01*
X27603791Y12728268D01*
X27600485Y12743970D01*
X27598357Y12765151D01*
X27597153Y12793043D01*
X27596617Y12828880D01*
X27596495Y12873897D01*
X27596497Y12878722D01*
X27596822Y12932363D01*
X27597810Y12977539D01*
X27599604Y13016043D01*
X27602346Y13049665D01*
X27606180Y13080196D01*
X27611249Y13109427D01*
X27617697Y13139150D01*
X27637294Y13204390D01*
X27667325Y13271320D01*
X27705736Y13332678D01*
X27752015Y13387937D01*
X27805647Y13436571D01*
X27866121Y13478053D01*
X27932923Y13511855D01*
X28005539Y13537451D01*
X28017392Y13540792D01*
X28037877Y13546416D01*
X28056714Y13551203D01*
X28074909Y13555227D01*
X28093466Y13558565D01*
X28113390Y13561292D01*
X28135688Y13563482D01*
X28161363Y13565210D01*
X28191422Y13566551D01*
X28226869Y13567582D01*
X28268709Y13568375D01*
X28317948Y13569008D01*
X28375590Y13569554D01*
X28442641Y13570089D01*
X28514474Y13570541D01*
X28588411Y13570745D01*
X28652146Y13570604D01*
G37*
G36*
X34109137Y13570604D02*
G01*
X34162628Y13570117D01*
X34205834Y13569286D01*
X34238714Y13568111D01*
X34261227Y13566593D01*
X34345592Y13554926D01*
X34423301Y13536742D01*
X34493792Y13511903D01*
X34557658Y13480157D01*
X34615495Y13441253D01*
X34667896Y13394942D01*
X34676216Y13386410D01*
X34717552Y13337466D01*
X34751665Y13284364D01*
X34779174Y13225826D01*
X34800698Y13160574D01*
X34816856Y13087330D01*
X34817652Y13082683D01*
X34818962Y13074157D01*
X34820136Y13064857D01*
X34821182Y13054214D01*
X34822107Y13041661D01*
X34822919Y13026632D01*
X34823624Y13008560D01*
X34824230Y12986877D01*
X34824745Y12961018D01*
X34825175Y12930413D01*
X34825529Y12894498D01*
X34825814Y12852704D01*
X34826037Y12804465D01*
X34826205Y12749213D01*
X34826326Y12686383D01*
X34826407Y12615406D01*
X34826456Y12535716D01*
X34826480Y12446746D01*
X34826487Y12347929D01*
X34826469Y12250866D01*
X34826409Y12156705D01*
X34826300Y12072020D01*
X34826140Y11996330D01*
X34825923Y11929149D01*
X34825644Y11869995D01*
X34825300Y11818383D01*
X34824885Y11773829D01*
X34824395Y11735850D01*
X34823826Y11703961D01*
X34823172Y11677679D01*
X34822430Y11656520D01*
X34821595Y11640000D01*
X34820662Y11627635D01*
X34819627Y11618942D01*
X34814809Y11590695D01*
X34797269Y11516682D01*
X34773550Y11450238D01*
X34743223Y11390468D01*
X34705861Y11336478D01*
X34661035Y11287373D01*
X34633221Y11262146D01*
X34586029Y11226280D01*
X34535112Y11196139D01*
X34479226Y11171200D01*
X34417130Y11150938D01*
X34347579Y11134831D01*
X34269332Y11122355D01*
X34268330Y11122267D01*
X34258064Y11121942D01*
X34238538Y11121671D01*
X34210681Y11121457D01*
X34175419Y11121302D01*
X34133678Y11121208D01*
X34086384Y11121178D01*
X34034466Y11121213D01*
X33978849Y11121316D01*
X33920460Y11121490D01*
X33891041Y11121598D01*
X33825763Y11121889D01*
X33769737Y11122230D01*
X33722137Y11122643D01*
X33682136Y11123150D01*
X33648910Y11123770D01*
X33621632Y11124525D01*
X33599476Y11125437D01*
X33581615Y11126526D01*
X33567225Y11127814D01*
X33555480Y11129321D01*
X33545552Y11131068D01*
X33526635Y11135079D01*
X33444340Y11157609D01*
X33369995Y11186844D01*
X33303526Y11222853D01*
X33244858Y11265707D01*
X33193918Y11315475D01*
X33150632Y11372228D01*
X33114926Y11436036D01*
X33086725Y11506968D01*
X33065957Y11585096D01*
X33063369Y11598530D01*
X33061054Y11613915D01*
X33059278Y11631101D01*
X33057975Y11651523D01*
X33057075Y11676616D01*
X33056512Y11707817D01*
X33056219Y11746560D01*
X33056128Y11794281D01*
X33056126Y11807477D01*
X33056163Y11850362D01*
X33056322Y11884328D01*
X33056675Y11910553D01*
X33057293Y11930215D01*
X33058249Y11944492D01*
X33059613Y11954563D01*
X33061458Y11961606D01*
X33063854Y11966800D01*
X33066873Y11971321D01*
X33067747Y11972511D01*
X33073772Y11980326D01*
X33079937Y11986740D01*
X33087269Y11991891D01*
X33096796Y11995918D01*
X33109544Y11998958D01*
X33126542Y12001151D01*
X33148817Y12002635D01*
X33177397Y12003548D01*
X33213308Y12004029D01*
X33257578Y12004216D01*
X33311235Y12004247D01*
X33312294Y12004247D01*
X33370160Y12004400D01*
X33418504Y12004430D01*
X33458193Y12003721D01*
X33490091Y12001657D01*
X33515066Y11997620D01*
X33533981Y11990994D01*
X33547704Y11981164D01*
X33557099Y11967511D01*
X33563033Y11949421D01*
X33566371Y11926275D01*
X33567980Y11897458D01*
X33568724Y11862353D01*
X33569469Y11820343D01*
X33570352Y11783867D01*
X33571541Y11746539D01*
X33573058Y11716899D01*
X33575150Y11693434D01*
X33578065Y11674630D01*
X33582048Y11658976D01*
X33587348Y11644956D01*
X33594212Y11631059D01*
X33602886Y11615771D01*
X33610352Y11605085D01*
X33632338Y11584000D01*
X33661009Y11565837D01*
X33693851Y11552349D01*
X33698959Y11550887D01*
X33707913Y11548923D01*
X33718921Y11547330D01*
X33733030Y11546072D01*
X33751283Y11545111D01*
X33774725Y11544409D01*
X33804402Y11543928D01*
X33841358Y11543632D01*
X33886639Y11543481D01*
X33941288Y11543439D01*
X33941849Y11543439D01*
X33995270Y11543454D01*
X34039368Y11543530D01*
X34075219Y11543719D01*
X34103906Y11544073D01*
X34126505Y11544642D01*
X34144098Y11545478D01*
X34157762Y11546632D01*
X34168578Y11548154D01*
X34177625Y11550096D01*
X34185982Y11552510D01*
X34194728Y11555446D01*
X34197987Y11556600D01*
X34233629Y11573860D01*
X34262016Y11597453D01*
X34283612Y11628024D01*
X34298883Y11666215D01*
X34308291Y11712669D01*
X34308824Y11717935D01*
X34309747Y11733933D01*
X34310548Y11757936D01*
X34311229Y11790186D01*
X34311791Y11830924D01*
X34312236Y11880390D01*
X34312564Y11938825D01*
X34312779Y12006470D01*
X34312881Y12083566D01*
X34312871Y12170353D01*
X34312752Y12267072D01*
X34312525Y12373964D01*
X34310980Y12991000D01*
X34299324Y13025289D01*
X34290097Y13049002D01*
X34272212Y13080270D01*
X34249133Y13104433D01*
X34219214Y13123053D01*
X34180812Y13137690D01*
X34175582Y13139198D01*
X34166362Y13141355D01*
X34155599Y13143092D01*
X34142183Y13144452D01*
X34125005Y13145481D01*
X34102958Y13146223D01*
X34074932Y13146722D01*
X34039817Y13147024D01*
X33996507Y13147172D01*
X33943891Y13147212D01*
X33908795Y13147190D01*
X33858379Y13147019D01*
X33816597Y13146595D01*
X33782341Y13145821D01*
X33754502Y13144602D01*
X33731970Y13142839D01*
X33713637Y13140438D01*
X33698393Y13137301D01*
X33685130Y13133332D01*
X33672737Y13128434D01*
X33660107Y13122512D01*
X33637696Y13108734D01*
X33612638Y13085913D01*
X33594540Y13060157D01*
X33587869Y13045820D01*
X33581349Y13027057D01*
X33576435Y13005491D01*
X33572932Y12979602D01*
X33570647Y12947874D01*
X33569383Y12908787D01*
X33568946Y12860824D01*
X33568809Y12825252D01*
X33568431Y12794956D01*
X33567705Y12772141D01*
X33566522Y12755274D01*
X33564770Y12742823D01*
X33562338Y12733258D01*
X33559116Y12725045D01*
X33556898Y12720214D01*
X33552564Y12711828D01*
X33547528Y12704957D01*
X33540819Y12699449D01*
X33531466Y12695155D01*
X33518497Y12691924D01*
X33500941Y12689603D01*
X33477827Y12688043D01*
X33448184Y12687092D01*
X33411040Y12686600D01*
X33365425Y12686415D01*
X33310366Y12686387D01*
X33265985Y12686409D01*
X33222337Y12686516D01*
X33187165Y12686754D01*
X33159423Y12687169D01*
X33138061Y12687805D01*
X33122030Y12688709D01*
X33110283Y12689925D01*
X33101771Y12691499D01*
X33095444Y12693476D01*
X33090256Y12695902D01*
X33080320Y12701691D01*
X33071949Y12708362D01*
X33065522Y12716810D01*
X33060782Y12728268D01*
X33057476Y12743970D01*
X33055348Y12765151D01*
X33054143Y12793043D01*
X33053607Y12828880D01*
X33053486Y12873897D01*
X33053487Y12878722D01*
X33053813Y12932363D01*
X33054801Y12977539D01*
X33056594Y13016043D01*
X33059337Y13049665D01*
X33063171Y13080196D01*
X33068240Y13109427D01*
X33074687Y13139150D01*
X33094285Y13204390D01*
X33124316Y13271320D01*
X33162727Y13332678D01*
X33209005Y13387937D01*
X33262638Y13436571D01*
X33323112Y13478053D01*
X33389913Y13511855D01*
X33462530Y13537451D01*
X33474383Y13540792D01*
X33494868Y13546416D01*
X33513705Y13551203D01*
X33531899Y13555227D01*
X33550456Y13558565D01*
X33570381Y13561292D01*
X33592678Y13563482D01*
X33618354Y13565210D01*
X33648413Y13566551D01*
X33683859Y13567582D01*
X33725699Y13568375D01*
X33774938Y13569008D01*
X33832580Y13569554D01*
X33899631Y13570089D01*
X33971464Y13570541D01*
X34045402Y13570745D01*
X34109137Y13570604D01*
G37*
G36*
X12959746Y13570810D02*
G01*
X13030768Y13570749D01*
X13110604Y13570641D01*
X13199787Y13570492D01*
X13298851Y13570307D01*
X13389316Y13570133D01*
X13479053Y13569952D01*
X13559395Y13569773D01*
X13630876Y13569587D01*
X13694028Y13569385D01*
X13749385Y13569158D01*
X13797479Y13568897D01*
X13838844Y13568591D01*
X13874013Y13568233D01*
X13903519Y13567814D01*
X13927895Y13567323D01*
X13947675Y13566752D01*
X13963391Y13566091D01*
X13975577Y13565332D01*
X13984765Y13564466D01*
X13991489Y13563483D01*
X13996282Y13562373D01*
X13999677Y13561129D01*
X14002208Y13559740D01*
X14004406Y13558198D01*
X14005239Y13557570D01*
X14017909Y13544807D01*
X14028236Y13529560D01*
X14028797Y13528358D01*
X14029768Y13525559D01*
X14030662Y13521658D01*
X14031481Y13516249D01*
X14032227Y13508929D01*
X14032904Y13499292D01*
X14033514Y13486933D01*
X14034059Y13471447D01*
X14034542Y13452430D01*
X14034967Y13429477D01*
X14035335Y13402182D01*
X14035649Y13370142D01*
X14035912Y13332951D01*
X14036127Y13290203D01*
X14036296Y13241496D01*
X14036421Y13186422D01*
X14036506Y13124579D01*
X14036553Y13055560D01*
X14036565Y12978961D01*
X14036545Y12894378D01*
X14036494Y12801404D01*
X14036417Y12699636D01*
X14036314Y12588668D01*
X14036190Y12468096D01*
X14036046Y12337515D01*
X14035929Y12234131D01*
X14035783Y12111541D01*
X14035638Y11998644D01*
X14035491Y11895036D01*
X14035337Y11800312D01*
X14035174Y11714069D01*
X14034997Y11635903D01*
X14034803Y11565410D01*
X14034588Y11502185D01*
X14034349Y11445826D01*
X14034081Y11395928D01*
X14033783Y11352086D01*
X14033448Y11313898D01*
X14033075Y11280959D01*
X14032660Y11252865D01*
X14032198Y11229212D01*
X14031686Y11209596D01*
X14031121Y11193614D01*
X14030498Y11180861D01*
X14029816Y11170933D01*
X14029068Y11163426D01*
X14028253Y11157937D01*
X14027366Y11154061D01*
X14026404Y11151394D01*
X14025362Y11149533D01*
X14025340Y11149500D01*
X14013831Y11137361D01*
X13999327Y11127522D01*
X13997284Y11126690D01*
X13993018Y11125585D01*
X13986738Y11124594D01*
X13977920Y11123711D01*
X13966037Y11122929D01*
X13950565Y11122243D01*
X13930979Y11121645D01*
X13906754Y11121131D01*
X13877365Y11120693D01*
X13842287Y11120326D01*
X13800995Y11120023D01*
X13752964Y11119779D01*
X13697669Y11119586D01*
X13634585Y11119439D01*
X13563187Y11119331D01*
X13482949Y11119257D01*
X13393348Y11119210D01*
X13293857Y11119183D01*
X13263502Y11119177D01*
X13165954Y11119152D01*
X13078143Y11119136D01*
X12999541Y11119150D01*
X12929625Y11119215D01*
X12867868Y11119351D01*
X12813746Y11119580D01*
X12766734Y11119922D01*
X12726305Y11120399D01*
X12691936Y11121030D01*
X12663100Y11121837D01*
X12639272Y11122841D01*
X12619927Y11124063D01*
X12604540Y11125523D01*
X12592586Y11127243D01*
X12583539Y11129243D01*
X12576874Y11131544D01*
X12572066Y11134167D01*
X12568589Y11137132D01*
X12565918Y11140462D01*
X12563529Y11144176D01*
X12560895Y11148295D01*
X12558444Y11152311D01*
X12556042Y11157989D01*
X12554158Y11165721D01*
X12552713Y11176703D01*
X12551627Y11192127D01*
X12550820Y11213189D01*
X12550212Y11241082D01*
X12549723Y11277001D01*
X12549274Y11322140D01*
X12548935Y11364387D01*
X12548842Y11404609D01*
X12549244Y11436588D01*
X12550320Y11461488D01*
X12552252Y11480475D01*
X12555218Y11494711D01*
X12559400Y11505362D01*
X12564977Y11513592D01*
X12572129Y11520566D01*
X12581037Y11527448D01*
X12583689Y11529281D01*
X12586846Y11530941D01*
X12591098Y11532392D01*
X12597109Y11533652D01*
X12605546Y11534740D01*
X12617074Y11535676D01*
X12632359Y11536479D01*
X12652067Y11537167D01*
X12676864Y11537759D01*
X12707414Y11538275D01*
X12744385Y11538734D01*
X12788440Y11539155D01*
X12840247Y11539556D01*
X12900471Y11539958D01*
X12969778Y11540378D01*
X13048832Y11540836D01*
X13501929Y11543439D01*
X13511881Y11555732D01*
X13512085Y11555986D01*
X13514235Y11559109D01*
X13516044Y11563199D01*
X13517541Y11569117D01*
X13518756Y11577719D01*
X13519717Y11589866D01*
X13520455Y11606415D01*
X13520999Y11628226D01*
X13521378Y11656158D01*
X13521621Y11691068D01*
X13521759Y11733817D01*
X13521819Y11785262D01*
X13521833Y11846262D01*
X13521833Y12124499D01*
X13496271Y12150061D01*
X13110229Y12150061D01*
X13041753Y12150073D01*
X12982752Y12150117D01*
X12932469Y12150214D01*
X12890143Y12150385D01*
X12855017Y12150650D01*
X12826331Y12151031D01*
X12803329Y12151547D01*
X12785250Y12152220D01*
X12771336Y12153071D01*
X12760829Y12154119D01*
X12752970Y12155386D01*
X12747001Y12156892D01*
X12742162Y12158658D01*
X12737696Y12160705D01*
X12727948Y12165691D01*
X12719576Y12171252D01*
X12713004Y12178205D01*
X12708014Y12187679D01*
X12704390Y12200801D01*
X12701912Y12218699D01*
X12700364Y12242500D01*
X12699527Y12273332D01*
X12699185Y12312322D01*
X12699119Y12360599D01*
X12699138Y12386857D01*
X12699344Y12429986D01*
X12699917Y12464443D01*
X12701025Y12491373D01*
X12702836Y12511923D01*
X12705519Y12527237D01*
X12709243Y12538462D01*
X12714177Y12546742D01*
X12720490Y12553224D01*
X12728349Y12559052D01*
X12729025Y12559502D01*
X12732299Y12561378D01*
X12736466Y12563006D01*
X12742256Y12564409D01*
X12750404Y12565612D01*
X12761641Y12566638D01*
X12776700Y12567511D01*
X12796314Y12568255D01*
X12821214Y12568893D01*
X12852133Y12569449D01*
X12889804Y12569947D01*
X12934960Y12570410D01*
X12988331Y12570863D01*
X13050652Y12571329D01*
X13122655Y12571832D01*
X13501930Y12574436D01*
X13511882Y12586729D01*
X13513493Y12588894D01*
X13515477Y12592614D01*
X13517120Y12597870D01*
X13518453Y12605552D01*
X13519508Y12616546D01*
X13520319Y12631741D01*
X13520916Y12652023D01*
X13521332Y12678281D01*
X13521600Y12711403D01*
X13521751Y12752275D01*
X13521818Y12801786D01*
X13521833Y12860824D01*
X13521827Y12903233D01*
X13521778Y12955502D01*
X13521656Y12998866D01*
X13521426Y13034214D01*
X13521058Y13062433D01*
X13520518Y13084410D01*
X13519775Y13101034D01*
X13518797Y13113192D01*
X13517550Y13121772D01*
X13516004Y13127661D01*
X13514125Y13131748D01*
X13511881Y13134919D01*
X13501929Y13147212D01*
X13047152Y13149815D01*
X13025819Y13149938D01*
X12948970Y13150392D01*
X12881705Y13150822D01*
X12823361Y13151244D01*
X12773276Y13151676D01*
X12730791Y13152134D01*
X12695242Y13152636D01*
X12665969Y13153200D01*
X12642310Y13153841D01*
X12623603Y13154577D01*
X12609187Y13155426D01*
X12598401Y13156404D01*
X12590584Y13157529D01*
X12585073Y13158817D01*
X12581207Y13160286D01*
X12578324Y13161953D01*
X12575198Y13164155D01*
X12567583Y13170705D01*
X12561515Y13178710D01*
X12556839Y13189288D01*
X12553396Y13203558D01*
X12551030Y13222641D01*
X12549584Y13247656D01*
X12548899Y13279722D01*
X12548820Y13319960D01*
X12549188Y13369488D01*
X12549626Y13410890D01*
X12550118Y13446640D01*
X12550717Y13474314D01*
X12551511Y13495124D01*
X12552589Y13510283D01*
X12554039Y13521005D01*
X12555949Y13528501D01*
X12558407Y13533985D01*
X12561502Y13538671D01*
X12562132Y13539505D01*
X12574895Y13552169D01*
X12590141Y13562497D01*
X12592206Y13563445D01*
X12595838Y13564658D01*
X12600817Y13565742D01*
X12607676Y13566703D01*
X12616948Y13567546D01*
X12629167Y13568277D01*
X12644866Y13568903D01*
X12664579Y13569429D01*
X12688838Y13569861D01*
X12718177Y13570205D01*
X12753131Y13570467D01*
X12794231Y13570652D01*
X12842011Y13570767D01*
X12897005Y13570818D01*
X12959746Y13570810D01*
G37*
G36*
X21293110Y13568962D02*
G01*
X21350063Y13568880D01*
X21398376Y13568711D01*
X21438965Y13568431D01*
X21472744Y13568017D01*
X21500628Y13567444D01*
X21523532Y13566687D01*
X21542370Y13565722D01*
X21558058Y13564525D01*
X21571511Y13563072D01*
X21583642Y13561338D01*
X21595367Y13559299D01*
X21617372Y13554953D01*
X21698302Y13534025D01*
X21771275Y13506732D01*
X21836627Y13472934D01*
X21894694Y13432487D01*
X21894898Y13432323D01*
X21949031Y13382761D01*
X21994767Y13327750D01*
X22032299Y13266921D01*
X22061823Y13199903D01*
X22083534Y13126323D01*
X22097626Y13045811D01*
X22098933Y13032466D01*
X22100628Y13004019D01*
X22101849Y12968582D01*
X22102599Y12928251D01*
X22102878Y12885123D01*
X22102691Y12841295D01*
X22102037Y12798863D01*
X22100919Y12759924D01*
X22099340Y12726574D01*
X22097301Y12700911D01*
X22087045Y12633717D01*
X22067931Y12558993D01*
X22041580Y12489286D01*
X22008431Y12425317D01*
X21968925Y12367808D01*
X21923502Y12317479D01*
X21872604Y12275053D01*
X21816670Y12241251D01*
X21800566Y12233867D01*
X21771242Y12222180D01*
X21735485Y12209327D01*
X21695439Y12196014D01*
X21653244Y12182945D01*
X21611045Y12170825D01*
X21570982Y12160361D01*
X21533478Y12151548D01*
X21446813Y12133716D01*
X21353751Y12117678D01*
X21256990Y12103877D01*
X21159225Y12092755D01*
X21106478Y12085721D01*
X21044699Y12072163D01*
X20989634Y12053757D01*
X20941918Y12030818D01*
X20902187Y12003664D01*
X20871074Y11972611D01*
X20849217Y11937977D01*
X20848679Y11936829D01*
X20843792Y11925891D01*
X20840248Y11915922D01*
X20837833Y11905024D01*
X20836330Y11891301D01*
X20835524Y11872855D01*
X20835198Y11847789D01*
X20835138Y11814206D01*
X20835143Y11805952D01*
X20835352Y11772885D01*
X20836005Y11747679D01*
X20837289Y11728230D01*
X20839391Y11712436D01*
X20842499Y11698192D01*
X20846801Y11683396D01*
X20859530Y11650027D01*
X20880040Y11615556D01*
X20906554Y11588703D01*
X20940237Y11568348D01*
X20982258Y11553372D01*
X20983650Y11552999D01*
X20995032Y11550348D01*
X21007916Y11548201D01*
X21023575Y11546487D01*
X21043282Y11545137D01*
X21068311Y11544079D01*
X21099934Y11543242D01*
X21139424Y11542557D01*
X21188056Y11541951D01*
X21241706Y11541499D01*
X21287982Y11541490D01*
X21326459Y11542042D01*
X21358459Y11543253D01*
X21385307Y11545220D01*
X21408326Y11548040D01*
X21428838Y11551813D01*
X21448168Y11556635D01*
X21467638Y11562604D01*
X21488097Y11570581D01*
X21508128Y11582711D01*
X21528367Y11600729D01*
X21530540Y11602931D01*
X21546489Y11621641D01*
X21558770Y11642035D01*
X21567917Y11665851D01*
X21574462Y11694823D01*
X21578938Y11730689D01*
X21581876Y11775184D01*
X21582222Y11782169D01*
X21584561Y11816648D01*
X21587894Y11842571D01*
X21592760Y11861513D01*
X21599700Y11875052D01*
X21609254Y11884765D01*
X21621961Y11892228D01*
X21626642Y11893590D01*
X21642086Y11895672D01*
X21665634Y11897415D01*
X21695860Y11898819D01*
X21731341Y11899884D01*
X21770652Y11900613D01*
X21812371Y11901004D01*
X21855072Y11901058D01*
X21897332Y11900776D01*
X21937727Y11900159D01*
X21974833Y11899207D01*
X22007226Y11897920D01*
X22033482Y11896300D01*
X22052177Y11894346D01*
X22061887Y11892059D01*
X22062791Y11891588D01*
X22074526Y11884396D01*
X22083338Y11875818D01*
X22089634Y11864350D01*
X22093820Y11848491D01*
X22096305Y11826736D01*
X22097495Y11797584D01*
X22097798Y11759532D01*
X22097339Y11719844D01*
X22094660Y11664470D01*
X22089310Y11615006D01*
X22080976Y11568845D01*
X22069343Y11523376D01*
X22062391Y11501218D01*
X22034246Y11433336D01*
X21997687Y11371183D01*
X21953125Y11315071D01*
X21900970Y11265310D01*
X21841634Y11222213D01*
X21775528Y11186090D01*
X21703062Y11157253D01*
X21624647Y11136014D01*
X21540693Y11122683D01*
X21533961Y11122366D01*
X21517303Y11121996D01*
X21492060Y11121632D01*
X21459213Y11121280D01*
X21419744Y11120950D01*
X21374632Y11120648D01*
X21324859Y11120384D01*
X21271406Y11120165D01*
X21215253Y11120000D01*
X21182459Y11119933D01*
X21116592Y11119892D01*
X21059954Y11120011D01*
X21011728Y11120305D01*
X20971096Y11120788D01*
X20937241Y11121475D01*
X20909346Y11122381D01*
X20886594Y11123522D01*
X20868167Y11124911D01*
X20853248Y11126563D01*
X20799252Y11135428D01*
X20718224Y11155862D01*
X20644184Y11183860D01*
X20577255Y11219313D01*
X20517559Y11262116D01*
X20465218Y11312161D01*
X20420354Y11369341D01*
X20383090Y11433550D01*
X20353548Y11504680D01*
X20331849Y11582625D01*
X20328876Y11596755D01*
X20326141Y11611716D01*
X20324023Y11626878D01*
X20322441Y11643702D01*
X20321316Y11663645D01*
X20320569Y11688167D01*
X20320119Y11718726D01*
X20319888Y11756781D01*
X20319796Y11803792D01*
X20319879Y11854226D01*
X20320362Y11901146D01*
X20321383Y11940518D01*
X20323077Y11973840D01*
X20325575Y12002612D01*
X20329012Y12028334D01*
X20333520Y12052503D01*
X20339232Y12076621D01*
X20346282Y12102186D01*
X20358794Y12140445D01*
X20389814Y12210437D01*
X20429714Y12275129D01*
X20478239Y12334073D01*
X20479147Y12335034D01*
X20512173Y12367784D01*
X20544863Y12395226D01*
X20579353Y12418658D01*
X20617780Y12439376D01*
X20662280Y12458680D01*
X20714990Y12477866D01*
X20718946Y12479205D01*
X20810142Y12507286D01*
X20905704Y12531337D01*
X21007041Y12551643D01*
X21115564Y12568487D01*
X21232682Y12582154D01*
X21242044Y12583108D01*
X21308015Y12591082D01*
X21364700Y12600477D01*
X21413046Y12611590D01*
X21453998Y12624717D01*
X21488505Y12640157D01*
X21517514Y12658205D01*
X21541971Y12679159D01*
X21551501Y12689155D01*
X21564698Y12705866D01*
X21574323Y12723596D01*
X21580897Y12744216D01*
X21584946Y12769595D01*
X21586991Y12801604D01*
X21587557Y12842112D01*
X21587297Y12869490D01*
X21584510Y12927607D01*
X21578433Y12976865D01*
X21568779Y13018074D01*
X21555257Y13052042D01*
X21537578Y13079578D01*
X21515452Y13101491D01*
X21488589Y13118590D01*
X21482238Y13121757D01*
X21467057Y13128535D01*
X21451458Y13134003D01*
X21434195Y13138295D01*
X21414016Y13141547D01*
X21389673Y13143892D01*
X21359915Y13145465D01*
X21323495Y13146400D01*
X21279162Y13146832D01*
X21225667Y13146896D01*
X21215476Y13146882D01*
X21169965Y13146767D01*
X21133284Y13146525D01*
X21104109Y13146085D01*
X21081118Y13145375D01*
X21062988Y13144321D01*
X21048396Y13142851D01*
X21036021Y13140893D01*
X21024538Y13138374D01*
X21012626Y13135222D01*
X20977612Y13123736D01*
X20944919Y13107545D01*
X20919756Y13086974D01*
X20900816Y13060577D01*
X20886796Y13026912D01*
X20876390Y12984536D01*
X20875687Y12980643D01*
X20872282Y12955012D01*
X20869885Y12925632D01*
X20868976Y12898117D01*
X20868864Y12887727D01*
X20866591Y12857639D01*
X20860844Y12835006D01*
X20850908Y12817782D01*
X20836066Y12803916D01*
X20834888Y12803067D01*
X20830675Y12800460D01*
X20825473Y12798337D01*
X20818234Y12796638D01*
X20807911Y12795303D01*
X20793458Y12794269D01*
X20773826Y12793476D01*
X20747970Y12792863D01*
X20714841Y12792370D01*
X20673392Y12791935D01*
X20622577Y12791498D01*
X20611827Y12791414D01*
X20555293Y12791159D01*
X20507039Y12791274D01*
X20467491Y12791752D01*
X20437075Y12792585D01*
X20416216Y12793766D01*
X20405340Y12795287D01*
X20402454Y12796261D01*
X20386122Y12804916D01*
X20371494Y12816774D01*
X20356089Y12832838D01*
X20354391Y12911919D01*
X20354099Y12937825D01*
X20357252Y13021121D01*
X20366958Y13097208D01*
X20383398Y13166912D01*
X20406752Y13231059D01*
X20437201Y13290476D01*
X20464178Y13331415D01*
X20511017Y13386942D01*
X20565456Y13435474D01*
X20627329Y13476910D01*
X20696476Y13511144D01*
X20772732Y13538073D01*
X20855936Y13557594D01*
X20866192Y13559426D01*
X20879022Y13561529D01*
X20891905Y13563300D01*
X20905783Y13564766D01*
X20921598Y13565956D01*
X20940291Y13566899D01*
X20962806Y13567623D01*
X20990083Y13568158D01*
X21023064Y13568531D01*
X21062692Y13568772D01*
X21109909Y13568908D01*
X21165655Y13568969D01*
X21230874Y13568983D01*
X21293110Y13568962D01*
G37*
G36*
X31537455Y13055560D02*
G01*
X31537467Y12978961D01*
X31537447Y12894378D01*
X31537396Y12801404D01*
X31537319Y12699636D01*
X31537216Y12588668D01*
X31537092Y12468096D01*
X31536948Y12337515D01*
X31536831Y12234131D01*
X31536685Y12111541D01*
X31536540Y11998644D01*
X31536393Y11895036D01*
X31536239Y11800312D01*
X31536076Y11714069D01*
X31535899Y11635903D01*
X31535705Y11565410D01*
X31535490Y11502185D01*
X31535251Y11445826D01*
X31534984Y11395928D01*
X31534685Y11352086D01*
X31534350Y11313898D01*
X31533977Y11280959D01*
X31533562Y11252865D01*
X31533100Y11229212D01*
X31532588Y11209596D01*
X31532023Y11193614D01*
X31531401Y11180861D01*
X31530718Y11170933D01*
X31529970Y11163426D01*
X31529155Y11157937D01*
X31528268Y11154061D01*
X31527306Y11151394D01*
X31526264Y11149533D01*
X31526242Y11149500D01*
X31514733Y11137361D01*
X31500229Y11127522D01*
X31499824Y11127326D01*
X31494170Y11125237D01*
X31486197Y11123534D01*
X31474895Y11122179D01*
X31459251Y11121132D01*
X31438253Y11120356D01*
X31410890Y11119813D01*
X31376148Y11119463D01*
X31333017Y11119269D01*
X31280484Y11119191D01*
X31258584Y11119182D01*
X31207272Y11119233D01*
X31165030Y11119507D01*
X31130881Y11120145D01*
X31103848Y11121291D01*
X31082955Y11123088D01*
X31067225Y11125677D01*
X31055683Y11129203D01*
X31047352Y11133806D01*
X31041254Y11139631D01*
X31036414Y11146819D01*
X31031856Y11155514D01*
X31031547Y11156146D01*
X31029914Y11160203D01*
X31028495Y11165522D01*
X31027276Y11172807D01*
X31026241Y11182761D01*
X31025376Y11196089D01*
X31024665Y11213495D01*
X31024094Y11235684D01*
X31023647Y11263357D01*
X31023310Y11297221D01*
X31023067Y11337979D01*
X31022904Y11386335D01*
X31022806Y11442993D01*
X31022757Y11508657D01*
X31022743Y11584031D01*
X31022735Y11994323D01*
X30997011Y12020047D01*
X30850690Y12018664D01*
X30704370Y12017281D01*
X30501638Y11603321D01*
X30474783Y11548477D01*
X30441667Y11480832D01*
X30412650Y11421555D01*
X30387442Y11370081D01*
X30365758Y11325844D01*
X30347311Y11288278D01*
X30331812Y11256817D01*
X30318976Y11230896D01*
X30308514Y11209948D01*
X30300140Y11193409D01*
X30293566Y11180711D01*
X30288505Y11171290D01*
X30284671Y11164580D01*
X30281776Y11160015D01*
X30279533Y11157028D01*
X30277654Y11155055D01*
X30275853Y11153530D01*
X30273842Y11151886D01*
X30271335Y11149558D01*
X30270848Y11149071D01*
X30263223Y11142069D01*
X30255019Y11136244D01*
X30245254Y11131489D01*
X30232944Y11127698D01*
X30217104Y11124761D01*
X30196752Y11122572D01*
X30170904Y11121022D01*
X30138577Y11120004D01*
X30098787Y11119410D01*
X30050550Y11119133D01*
X29992883Y11119065D01*
X29979401Y11119067D01*
X29928119Y11119138D01*
X29886024Y11119336D01*
X29852124Y11119695D01*
X29825425Y11120251D01*
X29804935Y11121040D01*
X29789660Y11122098D01*
X29778607Y11123461D01*
X29770784Y11125163D01*
X29765198Y11127241D01*
X29760249Y11129880D01*
X29744831Y11144530D01*
X29738151Y11164414D01*
X29740537Y11188716D01*
X29740610Y11188966D01*
X29744103Y11197318D01*
X29751967Y11214201D01*
X29763860Y11238924D01*
X29779437Y11270795D01*
X29798354Y11309121D01*
X29820267Y11353211D01*
X29844833Y11402372D01*
X29871707Y11455912D01*
X29900545Y11513139D01*
X29931005Y11573362D01*
X29962741Y11635887D01*
X29966349Y11642983D01*
X29997766Y11704860D01*
X30027760Y11764075D01*
X30056000Y11819966D01*
X30082156Y11871872D01*
X30105895Y11919131D01*
X30126887Y11961083D01*
X30144800Y11997065D01*
X30159305Y12026416D01*
X30170069Y12048476D01*
X30176762Y12062582D01*
X30179053Y12068073D01*
X30179008Y12068397D01*
X30173771Y12073832D01*
X30161542Y12081488D01*
X30144764Y12089818D01*
X30104153Y12109801D01*
X30041086Y12149486D01*
X29985647Y12196226D01*
X29937976Y12249857D01*
X29898213Y12310209D01*
X29866497Y12377117D01*
X29842967Y12450413D01*
X29841532Y12456151D01*
X29836147Y12479641D01*
X29831680Y12503287D01*
X29828068Y12528229D01*
X29825245Y12555605D01*
X29823148Y12586556D01*
X29821712Y12622220D01*
X29820874Y12663736D01*
X29820569Y12712243D01*
X29820733Y12768881D01*
X29820830Y12780114D01*
X30338008Y12780114D01*
X30338020Y12748686D01*
X30338119Y12700612D01*
X30338351Y12661264D01*
X30338758Y12629565D01*
X30339381Y12604437D01*
X30340260Y12584802D01*
X30341437Y12569582D01*
X30342953Y12557700D01*
X30344849Y12548076D01*
X30347165Y12539634D01*
X30352638Y12524489D01*
X30372628Y12489588D01*
X30400831Y12460836D01*
X30436900Y12438540D01*
X30480482Y12423004D01*
X30486331Y12421626D01*
X30496928Y12419689D01*
X30509812Y12418081D01*
X30525999Y12416763D01*
X30546504Y12415696D01*
X30572343Y12414842D01*
X30604533Y12414162D01*
X30644090Y12413618D01*
X30692028Y12413171D01*
X30749365Y12412782D01*
X30786240Y12412594D01*
X30832934Y12412448D01*
X30875869Y12412420D01*
X30913938Y12412503D01*
X30946030Y12412694D01*
X30971035Y12412986D01*
X30987846Y12413376D01*
X30995352Y12413858D01*
X30999613Y12414745D01*
X31004334Y12416062D01*
X31008364Y12418280D01*
X31011759Y12422130D01*
X31014572Y12428344D01*
X31016859Y12437654D01*
X31018674Y12450792D01*
X31020071Y12468489D01*
X31021105Y12491478D01*
X31021830Y12520489D01*
X31022301Y12556256D01*
X31022573Y12599510D01*
X31022699Y12650982D01*
X31022735Y12711405D01*
X31022735Y13124253D01*
X30996449Y13150539D01*
X30750541Y13148640D01*
X30728655Y13148469D01*
X30674992Y13148020D01*
X30630379Y13147566D01*
X30593813Y13147059D01*
X30564293Y13146452D01*
X30540817Y13145699D01*
X30522383Y13144751D01*
X30507990Y13143562D01*
X30496635Y13142085D01*
X30487318Y13140271D01*
X30479036Y13138074D01*
X30470788Y13135447D01*
X30449933Y13127723D01*
X30413894Y13109017D01*
X30385723Y13085330D01*
X30363995Y13055305D01*
X30347288Y13017582D01*
X30345552Y13012184D01*
X30343525Y13003922D01*
X30341892Y12993763D01*
X30340612Y12980643D01*
X30339643Y12963497D01*
X30338943Y12941260D01*
X30338472Y12912868D01*
X30338186Y12877256D01*
X30338046Y12833360D01*
X30338008Y12780114D01*
X29820830Y12780114D01*
X29821301Y12834788D01*
X29821507Y12854021D01*
X29822111Y12905815D01*
X29822730Y12948730D01*
X29823422Y12983917D01*
X29824244Y13012531D01*
X29825254Y13035726D01*
X29826510Y13054653D01*
X29828071Y13070467D01*
X29829994Y13084321D01*
X29832336Y13097368D01*
X29835156Y13110762D01*
X29850375Y13167958D01*
X29878056Y13239966D01*
X29913734Y13305410D01*
X29957298Y13364145D01*
X30008637Y13416026D01*
X30067639Y13460910D01*
X30134193Y13498653D01*
X30164358Y13512421D01*
X30214759Y13531401D01*
X30268981Y13546708D01*
X30330253Y13559341D01*
X30334992Y13560155D01*
X30344385Y13561607D01*
X30354548Y13562891D01*
X30366125Y13564018D01*
X30379757Y13564997D01*
X30396088Y13565839D01*
X30415761Y13566555D01*
X30439419Y13567154D01*
X30467704Y13567647D01*
X30501260Y13568043D01*
X30540730Y13568354D01*
X30586756Y13568588D01*
X30639982Y13568758D01*
X30701049Y13568871D01*
X30770603Y13568940D01*
X30849284Y13568974D01*
X30937737Y13568983D01*
X31007600Y13568982D01*
X31087666Y13568971D01*
X31158389Y13568939D01*
X31220366Y13568875D01*
X31274197Y13568767D01*
X31320482Y13568604D01*
X31359818Y13568374D01*
X31392806Y13568066D01*
X31420044Y13567669D01*
X31442132Y13567172D01*
X31459668Y13566562D01*
X31473252Y13565828D01*
X31483482Y13564960D01*
X31490959Y13563946D01*
X31496280Y13562774D01*
X31500046Y13561433D01*
X31502854Y13559912D01*
X31505305Y13558198D01*
X31506138Y13557571D01*
X31518810Y13544807D01*
X31529138Y13529560D01*
X31529699Y13528358D01*
X31530670Y13525559D01*
X31531564Y13521658D01*
X31532383Y13516249D01*
X31533129Y13508929D01*
X31533806Y13499292D01*
X31534416Y13486933D01*
X31534961Y13471447D01*
X31535444Y13452430D01*
X31535869Y13429477D01*
X31536237Y13402182D01*
X31536551Y13370142D01*
X31536814Y13332951D01*
X31537029Y13290203D01*
X31537198Y13241496D01*
X31537323Y13186422D01*
X31537408Y13124579D01*
X31537408Y13124253D01*
X31537455Y13055560D01*
G37*
G36*
X37208389Y12836233D02*
G01*
X37206878Y12802479D01*
X37200760Y12774260D01*
X37198422Y12767945D01*
X37179059Y12731275D01*
X37152533Y12699866D01*
X37120417Y12674744D01*
X37084282Y12656935D01*
X37045701Y12647464D01*
X37006247Y12647358D01*
X36990206Y12649970D01*
X36948849Y12662837D01*
X36912627Y12683073D01*
X36882291Y12709524D01*
X36858590Y12741039D01*
X36842276Y12776464D01*
X36834100Y12814645D01*
X36834572Y12840974D01*
X36945481Y12840974D01*
X36947585Y12817097D01*
X36955268Y12798152D01*
X36971821Y12775686D01*
X36993327Y12761259D01*
X37007710Y12756693D01*
X37033741Y12756042D01*
X37058053Y12765474D01*
X37079889Y12784785D01*
X37087777Y12795960D01*
X37097045Y12821085D01*
X37097140Y12847292D01*
X37088251Y12872371D01*
X37070566Y12894111D01*
X37051224Y12908047D01*
X37031143Y12914498D01*
X37008361Y12913260D01*
X37006978Y12912984D01*
X36984220Y12903416D01*
X36965350Y12886589D01*
X36951920Y12864956D01*
X36945481Y12840974D01*
X36834572Y12840974D01*
X36834813Y12854432D01*
X36845165Y12894669D01*
X36846092Y12897121D01*
X36848908Y12905510D01*
X36851201Y12914722D01*
X36853052Y12925956D01*
X36854546Y12940411D01*
X36855764Y12959285D01*
X36856789Y12983778D01*
X36857704Y13015087D01*
X36858592Y13054412D01*
X36859535Y13102952D01*
X36862884Y13282595D01*
X36877656Y13321538D01*
X36888623Y13347800D01*
X36916938Y13398440D01*
X36952060Y13441428D01*
X36994481Y13477308D01*
X37044691Y13506623D01*
X37054686Y13511263D01*
X37079775Y13521632D01*
X37103838Y13530060D01*
X37122797Y13535063D01*
X37130241Y13535913D01*
X37145621Y13536788D01*
X37168519Y13537544D01*
X37199224Y13538183D01*
X37238025Y13538706D01*
X37285212Y13539116D01*
X37341074Y13539415D01*
X37405902Y13539604D01*
X37479985Y13539685D01*
X37563613Y13539661D01*
X37657075Y13539533D01*
X37760661Y13539303D01*
X38367282Y13537740D01*
X38402386Y13524083D01*
X38435018Y13509778D01*
X38486905Y13478992D01*
X38531179Y13441477D01*
X38567483Y13397622D01*
X38595463Y13347813D01*
X38614763Y13292439D01*
X38616187Y13286682D01*
X38617982Y13278394D01*
X38619516Y13269296D01*
X38620811Y13258588D01*
X38621886Y13245469D01*
X38622763Y13229139D01*
X38623460Y13208797D01*
X38623998Y13183644D01*
X38624398Y13152879D01*
X38624680Y13115701D01*
X38624864Y13071310D01*
X38624970Y13018907D01*
X38625019Y12957690D01*
X38625031Y12886859D01*
X38625026Y12836158D01*
X38624990Y12772151D01*
X38624903Y12717197D01*
X38624745Y12670495D01*
X38624494Y12631244D01*
X38624131Y12598646D01*
X38623636Y12571899D01*
X38622989Y12550203D01*
X38622168Y12532758D01*
X38621155Y12518763D01*
X38619928Y12507417D01*
X38618467Y12497922D01*
X38616752Y12489476D01*
X38614763Y12481279D01*
X38598288Y12432427D01*
X38571681Y12382149D01*
X38537273Y12337877D01*
X38495798Y12300534D01*
X38447991Y12271047D01*
X38439565Y12266798D01*
X38429154Y12261497D01*
X38419528Y12256786D01*
X38410064Y12252631D01*
X38400140Y12248997D01*
X38389133Y12245849D01*
X38376422Y12243153D01*
X38361384Y12240873D01*
X38343398Y12238975D01*
X38321840Y12237424D01*
X38296090Y12236186D01*
X38265525Y12235225D01*
X38229523Y12234508D01*
X38187461Y12233999D01*
X38138719Y12233663D01*
X38082672Y12233466D01*
X38018700Y12233374D01*
X37946181Y12233351D01*
X37864491Y12233362D01*
X37773010Y12233374D01*
X37763540Y12233373D01*
X37687652Y12233338D01*
X37614698Y12233249D01*
X37545358Y12233110D01*
X37480312Y12232924D01*
X37420239Y12232695D01*
X37365820Y12232428D01*
X37317736Y12232125D01*
X37276665Y12231791D01*
X37243288Y12231429D01*
X37218285Y12231043D01*
X37202336Y12230636D01*
X37196121Y12230213D01*
X37194449Y12228814D01*
X37192979Y12225397D01*
X37191743Y12219217D01*
X37190721Y12209508D01*
X37189894Y12195506D01*
X37189242Y12176445D01*
X37188745Y12151561D01*
X37188382Y12120088D01*
X37188135Y12081262D01*
X37187983Y12034316D01*
X37187906Y11978487D01*
X37187885Y11913009D01*
X37187936Y11856762D01*
X37188083Y11803322D01*
X37188317Y11753790D01*
X37188630Y11709097D01*
X37189012Y11670171D01*
X37189453Y11637942D01*
X37189945Y11613339D01*
X37190479Y11597291D01*
X37191045Y11590729D01*
X37191199Y11590418D01*
X37192769Y11589150D01*
X37196228Y11588024D01*
X37202143Y11587030D01*
X37211083Y11586162D01*
X37223617Y11585410D01*
X37240313Y11584767D01*
X37261739Y11584224D01*
X37288463Y11583773D01*
X37321055Y11583406D01*
X37360082Y11583114D01*
X37406113Y11582890D01*
X37459716Y11582725D01*
X37521460Y11582611D01*
X37591912Y11582540D01*
X37671642Y11582503D01*
X37761218Y11582492D01*
X38328229Y11582492D01*
X38328207Y11719177D01*
X38328195Y11742385D01*
X38328088Y11778977D01*
X38327776Y11807457D01*
X38327145Y11829333D01*
X38326085Y11846108D01*
X38324482Y11859288D01*
X38322225Y11870379D01*
X38319202Y11880885D01*
X38315299Y11892312D01*
X38305534Y11929006D01*
X38304217Y11950851D01*
X38413589Y11950851D01*
X38413962Y11949015D01*
X38421831Y11927107D01*
X38434404Y11906995D01*
X38449045Y11892980D01*
X38451580Y11891419D01*
X38476043Y11882494D01*
X38501398Y11882614D01*
X38525424Y11891044D01*
X38545903Y11907049D01*
X38560614Y11929896D01*
X38560860Y11930480D01*
X38566905Y11956046D01*
X38564519Y11980432D01*
X38555122Y12002336D01*
X38540133Y12020454D01*
X38520973Y12033481D01*
X38499062Y12040116D01*
X38475820Y12039053D01*
X38452667Y12028990D01*
X38450257Y12027299D01*
X38434529Y12011456D01*
X38422000Y11991085D01*
X38414433Y11969710D01*
X38413589Y11950851D01*
X38304217Y11950851D01*
X38302934Y11972148D01*
X38310444Y12014531D01*
X38312725Y12021813D01*
X38325600Y12051865D01*
X38343928Y12078421D01*
X38369931Y12104853D01*
X38384771Y12116760D01*
X38419770Y12135932D01*
X38457588Y12146434D01*
X38496723Y12148576D01*
X38535674Y12142671D01*
X38572937Y12129028D01*
X38607012Y12107961D01*
X38636396Y12079780D01*
X38659588Y12044796D01*
X38670776Y12014570D01*
X38676591Y11976375D01*
X38676039Y11956046D01*
X38675490Y11935804D01*
X38667319Y11895818D01*
X38665123Y11888319D01*
X38662407Y11877458D01*
X38660308Y11865815D01*
X38658748Y11852014D01*
X38657647Y11834678D01*
X38656928Y11812432D01*
X38656512Y11783900D01*
X38656320Y11747706D01*
X38656274Y11702474D01*
X38656208Y11668517D01*
X38655771Y11621961D01*
X38654800Y11583588D01*
X38653150Y11552029D01*
X38650680Y11525914D01*
X38647246Y11503875D01*
X38642704Y11484543D01*
X38636913Y11466548D01*
X38629728Y11448522D01*
X38617117Y11423145D01*
X38588371Y11380841D01*
X38552196Y11341846D01*
X38510476Y11308373D01*
X38494455Y11297804D01*
X38469980Y11283978D01*
X38445176Y11273740D01*
X38415062Y11264816D01*
X38409624Y11263469D01*
X38403157Y11262131D01*
X38395639Y11260941D01*
X38386485Y11259890D01*
X38375110Y11258969D01*
X38360927Y11258169D01*
X38343353Y11257481D01*
X38321802Y11256896D01*
X38295688Y11256405D01*
X38264427Y11256000D01*
X38227433Y11255670D01*
X38184122Y11255407D01*
X38133907Y11255202D01*
X38076205Y11255046D01*
X38010429Y11254931D01*
X37935994Y11254846D01*
X37852316Y11254784D01*
X37758809Y11254735D01*
X37713254Y11254711D01*
X37622396Y11254656D01*
X37541089Y11254620D01*
X37468743Y11254629D01*
X37404769Y11254712D01*
X37348577Y11254898D01*
X37299577Y11255213D01*
X37257181Y11255688D01*
X37220798Y11256348D01*
X37189839Y11257223D01*
X37163713Y11258341D01*
X37141833Y11259729D01*
X37123607Y11261417D01*
X37108447Y11263431D01*
X37095762Y11265800D01*
X37084963Y11268552D01*
X37075461Y11271715D01*
X37066666Y11275318D01*
X37057989Y11279388D01*
X37048838Y11283953D01*
X37038627Y11289042D01*
X37001590Y11311031D01*
X36960719Y11344996D01*
X36924884Y11385610D01*
X36895760Y11430926D01*
X36875023Y11478999D01*
X36862444Y11517404D01*
X36862444Y11913897D01*
X36862458Y11986489D01*
X36862507Y12049469D01*
X36862609Y12103584D01*
X36862781Y12149580D01*
X36863042Y12188202D01*
X36863407Y12220198D01*
X36863895Y12246312D01*
X36864523Y12267291D01*
X36865308Y12283881D01*
X36866267Y12296828D01*
X36867418Y12306877D01*
X36868779Y12314775D01*
X36870366Y12321268D01*
X36872198Y12327101D01*
X36881976Y12352932D01*
X36909857Y12406874D01*
X36945291Y12453743D01*
X36988003Y12493264D01*
X37037717Y12525160D01*
X37094158Y12549157D01*
X37095127Y12549476D01*
X37100136Y12550930D01*
X37106061Y12552231D01*
X37113497Y12553390D01*
X37123036Y12554420D01*
X37135273Y12555331D01*
X37150802Y12556137D01*
X37170215Y12556849D01*
X37194106Y12557477D01*
X37223069Y12558036D01*
X37257698Y12558535D01*
X37298585Y12558988D01*
X37346325Y12559405D01*
X37401512Y12559799D01*
X37464738Y12560181D01*
X37536597Y12560563D01*
X37617683Y12560957D01*
X37708590Y12561375D01*
X38294383Y12564022D01*
X38295822Y12876445D01*
X38296028Y12930764D01*
X38296142Y12984395D01*
X38296157Y13034231D01*
X38296078Y13079328D01*
X38295910Y13118738D01*
X38295655Y13151516D01*
X38295318Y13176718D01*
X38294903Y13193397D01*
X38294415Y13200608D01*
X38291570Y13212347D01*
X37741029Y13211022D01*
X37190488Y13209696D01*
X37189086Y13074313D01*
X37188742Y13036362D01*
X37188620Y13002486D01*
X37188853Y12976144D01*
X37189523Y12955816D01*
X37190711Y12939985D01*
X37192498Y12927130D01*
X37194967Y12915733D01*
X37198198Y12904275D01*
X37205369Y12871755D01*
X37207449Y12847292D01*
X37208389Y12836233D01*
G37*
G36*
X39545964Y11653142D02*
G01*
X39545887Y11549317D01*
X39545767Y11454622D01*
X39545604Y11368864D01*
X39545396Y11291849D01*
X39545143Y11223384D01*
X39544844Y11163276D01*
X39544500Y11111331D01*
X39544109Y11067355D01*
X39543671Y11031156D01*
X39543185Y11002539D01*
X39542651Y10981311D01*
X39542068Y10967279D01*
X39541435Y10960250D01*
X39529308Y10909559D01*
X39504723Y10844213D01*
X39471263Y10782848D01*
X39429560Y10726030D01*
X39380246Y10674325D01*
X39323951Y10628298D01*
X39261307Y10588516D01*
X39192946Y10555544D01*
X39119498Y10529948D01*
X39041595Y10512294D01*
X39040953Y10512192D01*
X39034009Y10511453D01*
X39023072Y10510767D01*
X39007804Y10510131D01*
X38987866Y10509543D01*
X38962920Y10509002D01*
X38932629Y10508505D01*
X38896655Y10508051D01*
X38854659Y10507638D01*
X38806305Y10507264D01*
X38751253Y10506927D01*
X38689166Y10506625D01*
X38619707Y10506357D01*
X38542536Y10506120D01*
X38457317Y10505913D01*
X38363712Y10505733D01*
X38261381Y10505580D01*
X38149989Y10505450D01*
X38029196Y10505343D01*
X37898664Y10505256D01*
X37758057Y10505187D01*
X37749186Y10505184D01*
X37612767Y10505121D01*
X37486331Y10505057D01*
X37369472Y10505003D01*
X37261782Y10504967D01*
X37162856Y10504960D01*
X37072288Y10504990D01*
X36989672Y10505068D01*
X36914601Y10505204D01*
X36846669Y10505406D01*
X36785471Y10505686D01*
X36730599Y10506051D01*
X36681647Y10506513D01*
X36638210Y10507080D01*
X36599882Y10507762D01*
X36566255Y10508569D01*
X36536924Y10509511D01*
X36511483Y10510598D01*
X36489526Y10511838D01*
X36470646Y10513242D01*
X36454436Y10514819D01*
X36440492Y10516579D01*
X36428407Y10518531D01*
X36417774Y10520686D01*
X36408187Y10523053D01*
X36399241Y10525641D01*
X36390528Y10528461D01*
X36381644Y10531522D01*
X36372181Y10534833D01*
X36361733Y10538404D01*
X36353170Y10541324D01*
X36277027Y10572685D01*
X36208077Y10611263D01*
X36146541Y10656872D01*
X36092641Y10709328D01*
X36046598Y10768444D01*
X36008634Y10834036D01*
X36002224Y10847080D01*
X35993621Y10865017D01*
X35986340Y10881455D01*
X35980264Y10897387D01*
X35975278Y10913805D01*
X35971265Y10931703D01*
X35968109Y10952072D01*
X35965694Y10975907D01*
X35963903Y11004199D01*
X35962620Y11037941D01*
X35961729Y11078127D01*
X35961113Y11125747D01*
X35960657Y11181797D01*
X35960244Y11247267D01*
X35958525Y11529078D01*
X35970489Y11532282D01*
X35972897Y11532684D01*
X35985314Y11533586D01*
X36005752Y11534367D01*
X36032523Y11534985D01*
X36063938Y11535397D01*
X36098309Y11535558D01*
X36214166Y11535629D01*
X36214208Y11651486D01*
X36214251Y11767343D01*
X36276693Y11800238D01*
X36283020Y11803591D01*
X36305035Y11815609D01*
X36322853Y11825875D01*
X36334783Y11833390D01*
X36339135Y11837154D01*
X36338318Y11837844D01*
X36329990Y11842304D01*
X36313384Y11850398D01*
X36289380Y11861720D01*
X36258858Y11875862D01*
X36222699Y11892420D01*
X36181782Y11910986D01*
X36136988Y11931154D01*
X36089197Y11952518D01*
X36068921Y11961562D01*
X36022279Y11982451D01*
X35979002Y12001953D01*
X35939969Y12019664D01*
X35906060Y12035180D01*
X35878154Y12048097D01*
X35857132Y12058011D01*
X35843873Y12064519D01*
X35841175Y12066096D01*
X36146642Y12066096D01*
X36146850Y12065861D01*
X36153342Y12062321D01*
X36168264Y12055067D01*
X36190713Y12044513D01*
X36219789Y12031073D01*
X36254592Y12015162D01*
X36294219Y11997195D01*
X36337771Y11977585D01*
X36384346Y11956748D01*
X36394101Y11952393D01*
X36440224Y11931700D01*
X36483196Y11912254D01*
X36522106Y11894477D01*
X36556042Y11878793D01*
X36584096Y11865625D01*
X36605355Y11855396D01*
X36618909Y11848529D01*
X36623848Y11845449D01*
X36621769Y11843311D01*
X36611653Y11836685D01*
X36594094Y11826333D01*
X36570150Y11812849D01*
X36540879Y11796825D01*
X36507341Y11778855D01*
X36470592Y11759532D01*
X36315704Y11678823D01*
X36312806Y11535629D01*
X36439224Y11535549D01*
X36464083Y11535454D01*
X36497437Y11535061D01*
X36526429Y11534409D01*
X36549545Y11533544D01*
X36565272Y11532515D01*
X36572098Y11531369D01*
X36573006Y11530098D01*
X36574489Y11523981D01*
X36575749Y11512373D01*
X36576810Y11494569D01*
X36577694Y11469868D01*
X36578423Y11437566D01*
X36579020Y11396959D01*
X36579508Y11347345D01*
X36579908Y11288020D01*
X36581263Y11048770D01*
X37751707Y11047456D01*
X37755789Y11047452D01*
X37890179Y11047312D01*
X38014510Y11047205D01*
X38129125Y11047132D01*
X38234368Y11047096D01*
X38330585Y11047097D01*
X38418118Y11047137D01*
X38497313Y11047218D01*
X38568513Y11047341D01*
X38632063Y11047508D01*
X38688306Y11047720D01*
X38737588Y11047979D01*
X38780252Y11048286D01*
X38816642Y11048643D01*
X38847103Y11049051D01*
X38871979Y11049512D01*
X38891614Y11050027D01*
X38906352Y11050599D01*
X38916537Y11051227D01*
X38922515Y11051915D01*
X38924628Y11052663D01*
X38924768Y11055238D01*
X38924970Y11067511D01*
X38925156Y11089477D01*
X38925328Y11120697D01*
X38925483Y11160736D01*
X38925622Y11209157D01*
X38925744Y11265522D01*
X38925849Y11329396D01*
X38925936Y11400341D01*
X38926006Y11477920D01*
X38926058Y11561696D01*
X38926091Y11651234D01*
X38926105Y11746095D01*
X38926099Y11845844D01*
X38926074Y11950042D01*
X38926029Y12058254D01*
X38925964Y12170043D01*
X38925878Y12284972D01*
X38925771Y12402603D01*
X38924437Y13746023D01*
X36581263Y13746023D01*
X36578557Y13259163D01*
X36448432Y13259163D01*
X36419559Y13259131D01*
X36386729Y13259007D01*
X36358674Y13258804D01*
X36336805Y13258537D01*
X36322531Y13258218D01*
X36317262Y13257861D01*
X36317099Y13256684D01*
X36316581Y13247199D01*
X36315897Y13229481D01*
X36315098Y13205037D01*
X36314234Y13175375D01*
X36313357Y13142004D01*
X36310497Y13027449D01*
X36233693Y12996481D01*
X36216993Y12989677D01*
X36193161Y12979691D01*
X36174145Y12971377D01*
X36161568Y12965453D01*
X36157054Y12962635D01*
X36157322Y12962384D01*
X36164068Y12958832D01*
X36179222Y12951564D01*
X36201884Y12940993D01*
X36231153Y12927531D01*
X36266131Y12911589D01*
X36305917Y12893581D01*
X36349612Y12873918D01*
X36396316Y12853013D01*
X36408005Y12847788D01*
X36453885Y12827156D01*
X36496412Y12807837D01*
X36534704Y12790245D01*
X36567878Y12774794D01*
X36595054Y12761896D01*
X36615349Y12751965D01*
X36627881Y12745414D01*
X36631769Y12742656D01*
X36629455Y12741313D01*
X36618726Y12735977D01*
X36600358Y12727189D01*
X36575491Y12715474D01*
X36545264Y12701358D01*
X36510817Y12685366D01*
X36473291Y12668024D01*
X36433826Y12649856D01*
X36393560Y12631389D01*
X36353634Y12613147D01*
X36315188Y12595656D01*
X36279362Y12579441D01*
X36247295Y12565027D01*
X36220128Y12552941D01*
X36209266Y12548084D01*
X36186129Y12537297D01*
X36167532Y12528009D01*
X36155156Y12521083D01*
X36150680Y12517377D01*
X36152761Y12515770D01*
X36163197Y12510151D01*
X36181549Y12501086D01*
X36206851Y12489029D01*
X36238135Y12474433D01*
X36274434Y12457754D01*
X36314780Y12439444D01*
X36358208Y12419958D01*
X36416970Y12393714D01*
X36467650Y12371022D01*
X36510141Y12351917D01*
X36545115Y12336086D01*
X36573244Y12323216D01*
X36595202Y12312994D01*
X36611659Y12305108D01*
X36623289Y12299243D01*
X36630764Y12295087D01*
X36634756Y12292327D01*
X36635937Y12290651D01*
X36632734Y12287285D01*
X36623298Y12282544D01*
X36617493Y12280181D01*
X36601480Y12273324D01*
X36578579Y12263281D01*
X36549882Y12250548D01*
X36516481Y12235623D01*
X36479471Y12219001D01*
X36439944Y12201178D01*
X36398992Y12182651D01*
X36357709Y12163916D01*
X36317186Y12145469D01*
X36278518Y12127807D01*
X36242797Y12111425D01*
X36211115Y12096820D01*
X36184566Y12084489D01*
X36164242Y12074927D01*
X36151236Y12068631D01*
X36146642Y12066096D01*
X35841175Y12066096D01*
X35839258Y12067217D01*
X35839700Y12067615D01*
X35847051Y12071522D01*
X35862764Y12079100D01*
X35885948Y12089941D01*
X35915709Y12103636D01*
X35951155Y12119776D01*
X35991396Y12137953D01*
X36035537Y12157757D01*
X36082688Y12178779D01*
X36096824Y12185066D01*
X36143364Y12205801D01*
X36186753Y12225193D01*
X36226082Y12242830D01*
X36260440Y12258301D01*
X36288918Y12271197D01*
X36310605Y12281107D01*
X36324592Y12287619D01*
X36329966Y12290324D01*
X36329641Y12290820D01*
X36322600Y12294901D01*
X36307206Y12302625D01*
X36284330Y12313588D01*
X36254841Y12327384D01*
X36219611Y12343609D01*
X36179509Y12361858D01*
X36135407Y12381725D01*
X36088174Y12402807D01*
X36071669Y12410152D01*
X36025236Y12430948D01*
X35982128Y12450444D01*
X35943233Y12468227D01*
X35909438Y12483885D01*
X35881629Y12497004D01*
X35860693Y12507171D01*
X35847517Y12513974D01*
X35842988Y12516999D01*
X35843354Y12517421D01*
X35850466Y12521531D01*
X35865961Y12529325D01*
X35888940Y12540386D01*
X35918506Y12554292D01*
X35953762Y12570624D01*
X35993810Y12588963D01*
X36037752Y12608888D01*
X36084690Y12629982D01*
X36097498Y12635717D01*
X36143756Y12656517D01*
X36186807Y12676007D01*
X36225748Y12693769D01*
X36259679Y12709388D01*
X36287698Y12722446D01*
X36308904Y12732528D01*
X36322394Y12739215D01*
X36327268Y12742093D01*
X36326823Y12742606D01*
X36319461Y12746786D01*
X36303750Y12754618D01*
X36280573Y12765692D01*
X36250814Y12779597D01*
X36215355Y12795923D01*
X36175080Y12814260D01*
X36130872Y12834196D01*
X36083613Y12855323D01*
X36068041Y12862261D01*
X36021472Y12883092D01*
X35978110Y12902609D01*
X35938857Y12920396D01*
X35904615Y12936041D01*
X35876288Y12949130D01*
X35854778Y12959249D01*
X35840987Y12965985D01*
X35835818Y12968923D01*
X35835259Y12970010D01*
X35835759Y12976218D01*
X35836279Y12976575D01*
X35840457Y12978571D01*
X35849142Y12982258D01*
X35862914Y12987863D01*
X35882351Y12995615D01*
X35908033Y13005741D01*
X35940539Y13018469D01*
X35980447Y13034027D01*
X36028337Y13052641D01*
X36084788Y13074541D01*
X36150380Y13099954D01*
X36214166Y13124655D01*
X36214166Y13259163D01*
X35958455Y13259163D01*
X35960196Y13546853D01*
X35961938Y13834542D01*
X35976135Y13880304D01*
X36002706Y13949845D01*
X36038043Y14014399D01*
X36081950Y14073112D01*
X36134544Y14126139D01*
X36195941Y14173635D01*
X36251665Y14208338D01*
X36319082Y14241504D01*
X36388390Y14265806D01*
X36461501Y14282024D01*
X36464259Y14282457D01*
X36470941Y14283347D01*
X36478888Y14284167D01*
X36488498Y14284921D01*
X36500168Y14285609D01*
X36514297Y14286235D01*
X36531282Y14286800D01*
X36551521Y14287306D01*
X36575411Y14287756D01*
X36603351Y14288152D01*
X36635738Y14288495D01*
X36672971Y14288788D01*
X36715446Y14289033D01*
X36763562Y14289232D01*
X36817716Y14289387D01*
X36878307Y14289501D01*
X36945731Y14289574D01*
X37020387Y14289610D01*
X37102673Y14289611D01*
X37192986Y14289578D01*
X37291725Y14289514D01*
X37399286Y14289421D01*
X37516068Y14289301D01*
X37642468Y14289156D01*
X37778885Y14288988D01*
X39044199Y14287391D01*
X39095500Y14273056D01*
X39154261Y14254345D01*
X39231101Y14221895D01*
X39300530Y14182564D01*
X39362338Y14136538D01*
X39416314Y14084004D01*
X39462248Y14025147D01*
X39499928Y13960156D01*
X39529145Y13889216D01*
X39544076Y13844956D01*
X39545613Y12418224D01*
X39545717Y12315994D01*
X39545848Y12163615D01*
X39545939Y12021334D01*
X39545989Y11888957D01*
X39545997Y11766291D01*
X39545991Y11746095D01*
X39545964Y11653142D01*
G37*
%TO.C,kibuzzard-66129132*%
G36*
X3957035Y11616065D02*
G01*
X3979895Y11612890D01*
X3979895Y11084570D01*
X3965925Y11083300D01*
X3951955Y11083300D01*
X3862420Y11103620D01*
X3804000Y11159500D01*
X3772250Y11243955D01*
X3765106Y11295231D01*
X3762725Y11351270D01*
X3770345Y11450330D01*
X3797015Y11535420D01*
X3849085Y11594475D01*
X3934175Y11616700D01*
X3957035Y11616065D01*
G37*
G36*
X4400688Y10735743D02*
G01*
X4136105Y10735743D01*
X3968465Y10735743D01*
X2963895Y10735743D01*
X2699312Y10735743D01*
X2699312Y10957570D01*
X2963895Y10957570D01*
X3107405Y10957570D01*
X3099785Y11568440D01*
X3196305Y11235700D01*
X3310605Y11235700D01*
X3403315Y11568440D01*
X3396965Y10957570D01*
X3540475Y10957570D01*
X3536506Y11055995D01*
X3532220Y11158230D01*
X3527616Y11262052D01*
X3523361Y11351270D01*
X3603975Y11351270D01*
X3610801Y11250146D01*
X3631280Y11165215D01*
X3663824Y11095524D01*
X3706845Y11040120D01*
X3759709Y10998369D01*
X3821780Y10969635D01*
X3891789Y10952966D01*
X3968465Y10947410D01*
X4050380Y10951855D01*
X4136105Y10966460D01*
X4136105Y11733540D01*
X4035775Y11748780D01*
X3948145Y11752590D01*
X3874009Y11746875D01*
X3806540Y11729730D01*
X3747326Y11700361D01*
X3697955Y11657975D01*
X3658426Y11602412D01*
X3628740Y11533515D01*
X3610166Y11450171D01*
X3603975Y11351270D01*
X3523361Y11351270D01*
X3522695Y11365240D01*
X3517139Y11466522D01*
X3510630Y11564630D01*
X3503169Y11657658D01*
X3494755Y11743700D01*
X3365215Y11743700D01*
X3342990Y11675120D01*
X3314415Y11584950D01*
X3283935Y11487160D01*
X3254725Y11395720D01*
X3222975Y11492875D01*
X3191225Y11589395D01*
X3163285Y11676390D01*
X3140425Y11743700D01*
X3010885Y11743700D01*
X3002154Y11642100D01*
X2993740Y11543040D01*
X2986120Y11445726D01*
X2979770Y11349365D01*
X2974531Y11253162D01*
X2970245Y11156325D01*
X2966753Y11058059D01*
X2963895Y10957570D01*
X2699312Y10957570D01*
X2699312Y11964257D01*
X2963895Y11964257D01*
X4136105Y11964257D01*
X4400688Y11964257D01*
X4400688Y10735743D01*
G37*
%TD*%
M02*
