%TF.GenerationSoftware,KiCad,Pcbnew,8.0.4*%
%TF.CreationDate,2024-08-28T21:01:28+05:30*%
%TF.ProjectId,Mitayi-Pico-RP2040,4d697461-7969-42d5-9069-636f2d525032,0.6*%
%TF.SameCoordinates,PX73df160PY5f2d3c0*%
%TF.FileFunction,AssemblyDrawing,Top*%
%FSLAX46Y46*%
G04 Gerber Fmt 4.6, Leading zero omitted, Abs format (unit mm)*
G04 Created by KiCad (PCBNEW 8.0.4) date 2024-08-28 21:01:28*
%MOMM*%
%LPD*%
G01*
G04 APERTURE LIST*
%ADD10C,0.075000*%
%ADD11C,0.070000*%
%ADD12C,0.100000*%
G04 APERTURE END LIST*
D10*
X1845114Y11667143D02*
X1602257Y11667143D01*
X1602257Y11667143D02*
X1573685Y11652857D01*
X1573685Y11652857D02*
X1559400Y11638571D01*
X1559400Y11638571D02*
X1545114Y11610000D01*
X1545114Y11610000D02*
X1545114Y11552857D01*
X1545114Y11552857D02*
X1559400Y11524286D01*
X1559400Y11524286D02*
X1573685Y11510000D01*
X1573685Y11510000D02*
X1602257Y11495714D01*
X1602257Y11495714D02*
X1845114Y11495714D01*
X1559400Y11367143D02*
X1545114Y11324285D01*
X1545114Y11324285D02*
X1545114Y11252857D01*
X1545114Y11252857D02*
X1559400Y11224285D01*
X1559400Y11224285D02*
X1573685Y11210000D01*
X1573685Y11210000D02*
X1602257Y11195714D01*
X1602257Y11195714D02*
X1630828Y11195714D01*
X1630828Y11195714D02*
X1659400Y11210000D01*
X1659400Y11210000D02*
X1673685Y11224285D01*
X1673685Y11224285D02*
X1687971Y11252857D01*
X1687971Y11252857D02*
X1702257Y11310000D01*
X1702257Y11310000D02*
X1716542Y11338571D01*
X1716542Y11338571D02*
X1730828Y11352857D01*
X1730828Y11352857D02*
X1759400Y11367143D01*
X1759400Y11367143D02*
X1787971Y11367143D01*
X1787971Y11367143D02*
X1816542Y11352857D01*
X1816542Y11352857D02*
X1830828Y11338571D01*
X1830828Y11338571D02*
X1845114Y11310000D01*
X1845114Y11310000D02*
X1845114Y11238571D01*
X1845114Y11238571D02*
X1830828Y11195714D01*
X1702257Y10967143D02*
X1687971Y10924286D01*
X1687971Y10924286D02*
X1673685Y10910000D01*
X1673685Y10910000D02*
X1645114Y10895714D01*
X1645114Y10895714D02*
X1602257Y10895714D01*
X1602257Y10895714D02*
X1573685Y10910000D01*
X1573685Y10910000D02*
X1559400Y10924286D01*
X1559400Y10924286D02*
X1545114Y10952857D01*
X1545114Y10952857D02*
X1545114Y11067143D01*
X1545114Y11067143D02*
X1845114Y11067143D01*
X1845114Y11067143D02*
X1845114Y10967143D01*
X1845114Y10967143D02*
X1830828Y10938571D01*
X1830828Y10938571D02*
X1816542Y10924286D01*
X1816542Y10924286D02*
X1787971Y10910000D01*
X1787971Y10910000D02*
X1759400Y10910000D01*
X1759400Y10910000D02*
X1730828Y10924286D01*
X1730828Y10924286D02*
X1716542Y10938571D01*
X1716542Y10938571D02*
X1702257Y10967143D01*
X1702257Y10967143D02*
X1702257Y11067143D01*
X1659400Y10767143D02*
X1659400Y10538571D01*
X1573685Y10224285D02*
X1559400Y10238571D01*
X1559400Y10238571D02*
X1545114Y10281428D01*
X1545114Y10281428D02*
X1545114Y10310000D01*
X1545114Y10310000D02*
X1559400Y10352857D01*
X1559400Y10352857D02*
X1587971Y10381428D01*
X1587971Y10381428D02*
X1616542Y10395714D01*
X1616542Y10395714D02*
X1673685Y10410000D01*
X1673685Y10410000D02*
X1716542Y10410000D01*
X1716542Y10410000D02*
X1773685Y10395714D01*
X1773685Y10395714D02*
X1802257Y10381428D01*
X1802257Y10381428D02*
X1830828Y10352857D01*
X1830828Y10352857D02*
X1845114Y10310000D01*
X1845114Y10310000D02*
X1845114Y10281428D01*
X1845114Y10281428D02*
X1830828Y10238571D01*
X1830828Y10238571D02*
X1816542Y10224285D01*
X1659400Y10095714D02*
X1659400Y9867142D01*
X1816542Y9738571D02*
X1830828Y9724285D01*
X1830828Y9724285D02*
X1845114Y9695713D01*
X1845114Y9695713D02*
X1845114Y9624285D01*
X1845114Y9624285D02*
X1830828Y9595713D01*
X1830828Y9595713D02*
X1816542Y9581428D01*
X1816542Y9581428D02*
X1787971Y9567142D01*
X1787971Y9567142D02*
X1759400Y9567142D01*
X1759400Y9567142D02*
X1716542Y9581428D01*
X1716542Y9581428D02*
X1545114Y9752856D01*
X1545114Y9752856D02*
X1545114Y9567142D01*
X1573685Y9438571D02*
X1559400Y9424285D01*
X1559400Y9424285D02*
X1545114Y9438571D01*
X1545114Y9438571D02*
X1559400Y9452857D01*
X1559400Y9452857D02*
X1573685Y9438571D01*
X1573685Y9438571D02*
X1545114Y9438571D01*
X1845114Y9238571D02*
X1845114Y9210000D01*
X1845114Y9210000D02*
X1830828Y9181428D01*
X1830828Y9181428D02*
X1816542Y9167142D01*
X1816542Y9167142D02*
X1787971Y9152857D01*
X1787971Y9152857D02*
X1730828Y9138571D01*
X1730828Y9138571D02*
X1659400Y9138571D01*
X1659400Y9138571D02*
X1602257Y9152857D01*
X1602257Y9152857D02*
X1573685Y9167142D01*
X1573685Y9167142D02*
X1559400Y9181428D01*
X1559400Y9181428D02*
X1545114Y9210000D01*
X1545114Y9210000D02*
X1545114Y9238571D01*
X1545114Y9238571D02*
X1559400Y9267142D01*
X1559400Y9267142D02*
X1573685Y9281428D01*
X1573685Y9281428D02*
X1602257Y9295714D01*
X1602257Y9295714D02*
X1659400Y9310000D01*
X1659400Y9310000D02*
X1730828Y9310000D01*
X1730828Y9310000D02*
X1787971Y9295714D01*
X1787971Y9295714D02*
X1816542Y9281428D01*
X1816542Y9281428D02*
X1830828Y9267142D01*
X1830828Y9267142D02*
X1845114Y9238571D01*
X2595114Y10610000D02*
X2380828Y10610000D01*
X2380828Y10610000D02*
X2337971Y10624285D01*
X2337971Y10624285D02*
X2309400Y10652857D01*
X2309400Y10652857D02*
X2295114Y10695714D01*
X2295114Y10695714D02*
X2295114Y10724285D01*
X2566542Y10481429D02*
X2580828Y10467143D01*
X2580828Y10467143D02*
X2595114Y10438571D01*
X2595114Y10438571D02*
X2595114Y10367143D01*
X2595114Y10367143D02*
X2580828Y10338571D01*
X2580828Y10338571D02*
X2566542Y10324286D01*
X2566542Y10324286D02*
X2537971Y10310000D01*
X2537971Y10310000D02*
X2509400Y10310000D01*
X2509400Y10310000D02*
X2466542Y10324286D01*
X2466542Y10324286D02*
X2295114Y10495714D01*
X2295114Y10495714D02*
X2295114Y10310000D01*
D11*
X31545714Y18194855D02*
X31574285Y18194855D01*
X31574285Y18194855D02*
X31602857Y18180569D01*
X31602857Y18180569D02*
X31617143Y18166283D01*
X31617143Y18166283D02*
X31631428Y18137712D01*
X31631428Y18137712D02*
X31645714Y18080569D01*
X31645714Y18080569D02*
X31645714Y18009140D01*
X31645714Y18009140D02*
X31631428Y17951998D01*
X31631428Y17951998D02*
X31617143Y17923426D01*
X31617143Y17923426D02*
X31602857Y17909140D01*
X31602857Y17909140D02*
X31574285Y17894855D01*
X31574285Y17894855D02*
X31545714Y17894855D01*
X31545714Y17894855D02*
X31517143Y17909140D01*
X31517143Y17909140D02*
X31502857Y17923426D01*
X31502857Y17923426D02*
X31488571Y17951998D01*
X31488571Y17951998D02*
X31474285Y18009140D01*
X31474285Y18009140D02*
X31474285Y18080569D01*
X31474285Y18080569D02*
X31488571Y18137712D01*
X31488571Y18137712D02*
X31502857Y18166283D01*
X31502857Y18166283D02*
X31517143Y18180569D01*
X31517143Y18180569D02*
X31545714Y18194855D01*
X31945714Y17894855D02*
X31845714Y18037712D01*
X31774285Y17894855D02*
X31774285Y18194855D01*
X31774285Y18194855D02*
X31888571Y18194855D01*
X31888571Y18194855D02*
X31917142Y18180569D01*
X31917142Y18180569D02*
X31931428Y18166283D01*
X31931428Y18166283D02*
X31945714Y18137712D01*
X31945714Y18137712D02*
X31945714Y18094855D01*
X31945714Y18094855D02*
X31931428Y18066283D01*
X31931428Y18066283D02*
X31917142Y18051998D01*
X31917142Y18051998D02*
X31888571Y18037712D01*
X31888571Y18037712D02*
X31774285Y18037712D01*
X31460000Y17564855D02*
X31460000Y17350569D01*
X31460000Y17350569D02*
X31445715Y17307712D01*
X31445715Y17307712D02*
X31417143Y17279140D01*
X31417143Y17279140D02*
X31374286Y17264855D01*
X31374286Y17264855D02*
X31345715Y17264855D01*
X31602857Y17264855D02*
X31602857Y17564855D01*
X31602857Y17564855D02*
X31717143Y17564855D01*
X31717143Y17564855D02*
X31745714Y17550569D01*
X31745714Y17550569D02*
X31760000Y17536283D01*
X31760000Y17536283D02*
X31774286Y17507712D01*
X31774286Y17507712D02*
X31774286Y17464855D01*
X31774286Y17464855D02*
X31760000Y17436283D01*
X31760000Y17436283D02*
X31745714Y17421998D01*
X31745714Y17421998D02*
X31717143Y17407712D01*
X31717143Y17407712D02*
X31602857Y17407712D01*
X32045714Y17564855D02*
X31902857Y17564855D01*
X31902857Y17564855D02*
X31888571Y17421998D01*
X31888571Y17421998D02*
X31902857Y17436283D01*
X31902857Y17436283D02*
X31931429Y17450569D01*
X31931429Y17450569D02*
X32002857Y17450569D01*
X32002857Y17450569D02*
X32031429Y17436283D01*
X32031429Y17436283D02*
X32045714Y17421998D01*
X32045714Y17421998D02*
X32060000Y17393426D01*
X32060000Y17393426D02*
X32060000Y17321998D01*
X32060000Y17321998D02*
X32045714Y17293426D01*
X32045714Y17293426D02*
X32031429Y17279140D01*
X32031429Y17279140D02*
X32002857Y17264855D01*
X32002857Y17264855D02*
X31931429Y17264855D01*
X31931429Y17264855D02*
X31902857Y17279140D01*
X31902857Y17279140D02*
X31888571Y17293426D01*
X34497142Y17851998D02*
X34539999Y17837712D01*
X34539999Y17837712D02*
X34554285Y17823426D01*
X34554285Y17823426D02*
X34568571Y17794855D01*
X34568571Y17794855D02*
X34568571Y17751998D01*
X34568571Y17751998D02*
X34554285Y17723426D01*
X34554285Y17723426D02*
X34539999Y17709140D01*
X34539999Y17709140D02*
X34511428Y17694855D01*
X34511428Y17694855D02*
X34397142Y17694855D01*
X34397142Y17694855D02*
X34397142Y17994855D01*
X34397142Y17994855D02*
X34497142Y17994855D01*
X34497142Y17994855D02*
X34525714Y17980569D01*
X34525714Y17980569D02*
X34539999Y17966283D01*
X34539999Y17966283D02*
X34554285Y17937712D01*
X34554285Y17937712D02*
X34554285Y17909140D01*
X34554285Y17909140D02*
X34539999Y17880569D01*
X34539999Y17880569D02*
X34525714Y17866283D01*
X34525714Y17866283D02*
X34497142Y17851998D01*
X34497142Y17851998D02*
X34397142Y17851998D01*
X34839999Y17694855D02*
X34697142Y17694855D01*
X34697142Y17694855D02*
X34697142Y17994855D01*
X34939999Y17994855D02*
X34939999Y17751998D01*
X34939999Y17751998D02*
X34954285Y17723426D01*
X34954285Y17723426D02*
X34968571Y17709140D01*
X34968571Y17709140D02*
X34997142Y17694855D01*
X34997142Y17694855D02*
X35054285Y17694855D01*
X35054285Y17694855D02*
X35082856Y17709140D01*
X35082856Y17709140D02*
X35097142Y17723426D01*
X35097142Y17723426D02*
X35111428Y17751998D01*
X35111428Y17751998D02*
X35111428Y17994855D01*
X35254285Y17851998D02*
X35354285Y17851998D01*
X35397142Y17694855D02*
X35254285Y17694855D01*
X35254285Y17694855D02*
X35254285Y17994855D01*
X35254285Y17994855D02*
X35397142Y17994855D01*
X34728571Y16894855D02*
X34728571Y17194855D01*
X34728571Y17194855D02*
X34800000Y17194855D01*
X34800000Y17194855D02*
X34842857Y17180569D01*
X34842857Y17180569D02*
X34871428Y17151998D01*
X34871428Y17151998D02*
X34885714Y17123426D01*
X34885714Y17123426D02*
X34900000Y17066283D01*
X34900000Y17066283D02*
X34900000Y17023426D01*
X34900000Y17023426D02*
X34885714Y16966283D01*
X34885714Y16966283D02*
X34871428Y16937712D01*
X34871428Y16937712D02*
X34842857Y16909140D01*
X34842857Y16909140D02*
X34800000Y16894855D01*
X34800000Y16894855D02*
X34728571Y16894855D01*
X35014285Y17166283D02*
X35028571Y17180569D01*
X35028571Y17180569D02*
X35057143Y17194855D01*
X35057143Y17194855D02*
X35128571Y17194855D01*
X35128571Y17194855D02*
X35157143Y17180569D01*
X35157143Y17180569D02*
X35171428Y17166283D01*
X35171428Y17166283D02*
X35185714Y17137712D01*
X35185714Y17137712D02*
X35185714Y17109140D01*
X35185714Y17109140D02*
X35171428Y17066283D01*
X35171428Y17066283D02*
X35000000Y16894855D01*
X35000000Y16894855D02*
X35185714Y16894855D01*
X36712857Y8034855D02*
X36898571Y8034855D01*
X36898571Y8034855D02*
X36798571Y7920569D01*
X36798571Y7920569D02*
X36841428Y7920569D01*
X36841428Y7920569D02*
X36870000Y7906283D01*
X36870000Y7906283D02*
X36884285Y7891998D01*
X36884285Y7891998D02*
X36898571Y7863426D01*
X36898571Y7863426D02*
X36898571Y7791998D01*
X36898571Y7791998D02*
X36884285Y7763426D01*
X36884285Y7763426D02*
X36870000Y7749140D01*
X36870000Y7749140D02*
X36841428Y7734855D01*
X36841428Y7734855D02*
X36755714Y7734855D01*
X36755714Y7734855D02*
X36727142Y7749140D01*
X36727142Y7749140D02*
X36712857Y7763426D01*
X37084285Y8034855D02*
X37112856Y8034855D01*
X37112856Y8034855D02*
X37141428Y8020569D01*
X37141428Y8020569D02*
X37155714Y8006283D01*
X37155714Y8006283D02*
X37169999Y7977712D01*
X37169999Y7977712D02*
X37184285Y7920569D01*
X37184285Y7920569D02*
X37184285Y7849140D01*
X37184285Y7849140D02*
X37169999Y7791998D01*
X37169999Y7791998D02*
X37155714Y7763426D01*
X37155714Y7763426D02*
X37141428Y7749140D01*
X37141428Y7749140D02*
X37112856Y7734855D01*
X37112856Y7734855D02*
X37084285Y7734855D01*
X37084285Y7734855D02*
X37055714Y7749140D01*
X37055714Y7749140D02*
X37041428Y7763426D01*
X37041428Y7763426D02*
X37027142Y7791998D01*
X37027142Y7791998D02*
X37012856Y7849140D01*
X37012856Y7849140D02*
X37012856Y7920569D01*
X37012856Y7920569D02*
X37027142Y7977712D01*
X37027142Y7977712D02*
X37041428Y8006283D01*
X37041428Y8006283D02*
X37055714Y8020569D01*
X37055714Y8020569D02*
X37084285Y8034855D01*
X37312856Y7934855D02*
X37312856Y7634855D01*
X37312856Y7920569D02*
X37341428Y7934855D01*
X37341428Y7934855D02*
X37398570Y7934855D01*
X37398570Y7934855D02*
X37427142Y7920569D01*
X37427142Y7920569D02*
X37441428Y7906283D01*
X37441428Y7906283D02*
X37455713Y7877712D01*
X37455713Y7877712D02*
X37455713Y7791998D01*
X37455713Y7791998D02*
X37441428Y7763426D01*
X37441428Y7763426D02*
X37427142Y7749140D01*
X37427142Y7749140D02*
X37398570Y7734855D01*
X37398570Y7734855D02*
X37341428Y7734855D01*
X37341428Y7734855D02*
X37312856Y7749140D01*
X37684285Y7891998D02*
X37584285Y7891998D01*
X37584285Y7734855D02*
X37584285Y8034855D01*
X37584285Y8034855D02*
X37727142Y8034855D01*
X37024529Y8390289D02*
X37010243Y8376003D01*
X37010243Y8376003D02*
X36967386Y8361718D01*
X36967386Y8361718D02*
X36938814Y8361718D01*
X36938814Y8361718D02*
X36895957Y8376003D01*
X36895957Y8376003D02*
X36867386Y8404575D01*
X36867386Y8404575D02*
X36853100Y8433146D01*
X36853100Y8433146D02*
X36838814Y8490289D01*
X36838814Y8490289D02*
X36838814Y8533146D01*
X36838814Y8533146D02*
X36853100Y8590289D01*
X36853100Y8590289D02*
X36867386Y8618861D01*
X36867386Y8618861D02*
X36895957Y8647432D01*
X36895957Y8647432D02*
X36938814Y8661718D01*
X36938814Y8661718D02*
X36967386Y8661718D01*
X36967386Y8661718D02*
X37010243Y8647432D01*
X37010243Y8647432D02*
X37024529Y8633146D01*
X37310243Y8361718D02*
X37138814Y8361718D01*
X37224529Y8361718D02*
X37224529Y8661718D01*
X37224529Y8661718D02*
X37195957Y8618861D01*
X37195957Y8618861D02*
X37167386Y8590289D01*
X37167386Y8590289D02*
X37138814Y8576003D01*
X37410243Y8661718D02*
X37610243Y8661718D01*
X37610243Y8661718D02*
X37481671Y8361718D01*
X25145145Y4697144D02*
X25145145Y4725715D01*
X25145145Y4725715D02*
X25159431Y4754287D01*
X25159431Y4754287D02*
X25173717Y4768572D01*
X25173717Y4768572D02*
X25202288Y4782858D01*
X25202288Y4782858D02*
X25259431Y4797144D01*
X25259431Y4797144D02*
X25330860Y4797144D01*
X25330860Y4797144D02*
X25388002Y4782858D01*
X25388002Y4782858D02*
X25416574Y4768572D01*
X25416574Y4768572D02*
X25430860Y4754287D01*
X25430860Y4754287D02*
X25445145Y4725715D01*
X25445145Y4725715D02*
X25445145Y4697144D01*
X25445145Y4697144D02*
X25430860Y4668572D01*
X25430860Y4668572D02*
X25416574Y4654287D01*
X25416574Y4654287D02*
X25388002Y4640001D01*
X25388002Y4640001D02*
X25330860Y4625715D01*
X25330860Y4625715D02*
X25259431Y4625715D01*
X25259431Y4625715D02*
X25202288Y4640001D01*
X25202288Y4640001D02*
X25173717Y4654287D01*
X25173717Y4654287D02*
X25159431Y4668572D01*
X25159431Y4668572D02*
X25145145Y4697144D01*
X25416574Y4925715D02*
X25430860Y4940001D01*
X25430860Y4940001D02*
X25445145Y4925715D01*
X25445145Y4925715D02*
X25430860Y4911429D01*
X25430860Y4911429D02*
X25416574Y4925715D01*
X25416574Y4925715D02*
X25445145Y4925715D01*
X25445145Y5225715D02*
X25445145Y5054286D01*
X25445145Y5140001D02*
X25145145Y5140001D01*
X25145145Y5140001D02*
X25188002Y5111429D01*
X25188002Y5111429D02*
X25216574Y5082858D01*
X25216574Y5082858D02*
X25230860Y5054286D01*
X25245145Y5482857D02*
X25445145Y5482857D01*
X25245145Y5354286D02*
X25402288Y5354286D01*
X25402288Y5354286D02*
X25430860Y5368572D01*
X25430860Y5368572D02*
X25445145Y5397143D01*
X25445145Y5397143D02*
X25445145Y5440000D01*
X25445145Y5440000D02*
X25430860Y5468572D01*
X25430860Y5468572D02*
X25416574Y5482857D01*
X25288002Y5725715D02*
X25288002Y5625715D01*
X25445145Y5625715D02*
X25145145Y5625715D01*
X25145145Y5625715D02*
X25145145Y5768572D01*
X24790231Y4987499D02*
X24804517Y4973213D01*
X24804517Y4973213D02*
X24818802Y4930356D01*
X24818802Y4930356D02*
X24818802Y4901784D01*
X24818802Y4901784D02*
X24804517Y4858927D01*
X24804517Y4858927D02*
X24775945Y4830356D01*
X24775945Y4830356D02*
X24747374Y4816070D01*
X24747374Y4816070D02*
X24690231Y4801784D01*
X24690231Y4801784D02*
X24647374Y4801784D01*
X24647374Y4801784D02*
X24590231Y4816070D01*
X24590231Y4816070D02*
X24561659Y4830356D01*
X24561659Y4830356D02*
X24533088Y4858927D01*
X24533088Y4858927D02*
X24518802Y4901784D01*
X24518802Y4901784D02*
X24518802Y4930356D01*
X24518802Y4930356D02*
X24533088Y4973213D01*
X24533088Y4973213D02*
X24547374Y4987499D01*
X24818802Y5273213D02*
X24818802Y5101784D01*
X24818802Y5187499D02*
X24518802Y5187499D01*
X24518802Y5187499D02*
X24561659Y5158927D01*
X24561659Y5158927D02*
X24590231Y5130356D01*
X24590231Y5130356D02*
X24604517Y5101784D01*
X24547374Y5387498D02*
X24533088Y5401784D01*
X24533088Y5401784D02*
X24518802Y5430355D01*
X24518802Y5430355D02*
X24518802Y5501784D01*
X24518802Y5501784D02*
X24533088Y5530355D01*
X24533088Y5530355D02*
X24547374Y5544641D01*
X24547374Y5544641D02*
X24575945Y5558927D01*
X24575945Y5558927D02*
X24604517Y5558927D01*
X24604517Y5558927D02*
X24647374Y5544641D01*
X24647374Y5544641D02*
X24818802Y5373213D01*
X24818802Y5373213D02*
X24818802Y5558927D01*
X10575145Y14558572D02*
X10575145Y14387143D01*
X10575145Y14472858D02*
X10275145Y14472858D01*
X10275145Y14472858D02*
X10318002Y14444286D01*
X10318002Y14444286D02*
X10346574Y14415715D01*
X10346574Y14415715D02*
X10360860Y14387143D01*
X10275145Y14744286D02*
X10275145Y14772857D01*
X10275145Y14772857D02*
X10289431Y14801429D01*
X10289431Y14801429D02*
X10303717Y14815714D01*
X10303717Y14815714D02*
X10332288Y14830000D01*
X10332288Y14830000D02*
X10389431Y14844286D01*
X10389431Y14844286D02*
X10460860Y14844286D01*
X10460860Y14844286D02*
X10518002Y14830000D01*
X10518002Y14830000D02*
X10546574Y14815714D01*
X10546574Y14815714D02*
X10560860Y14801429D01*
X10560860Y14801429D02*
X10575145Y14772857D01*
X10575145Y14772857D02*
X10575145Y14744286D01*
X10575145Y14744286D02*
X10560860Y14715714D01*
X10560860Y14715714D02*
X10546574Y14701429D01*
X10546574Y14701429D02*
X10518002Y14687143D01*
X10518002Y14687143D02*
X10460860Y14672857D01*
X10460860Y14672857D02*
X10389431Y14672857D01*
X10389431Y14672857D02*
X10332288Y14687143D01*
X10332288Y14687143D02*
X10303717Y14701429D01*
X10303717Y14701429D02*
X10289431Y14715714D01*
X10289431Y14715714D02*
X10275145Y14744286D01*
X10375145Y15101428D02*
X10575145Y15101428D01*
X10375145Y14972857D02*
X10532288Y14972857D01*
X10532288Y14972857D02*
X10560860Y14987143D01*
X10560860Y14987143D02*
X10575145Y15015714D01*
X10575145Y15015714D02*
X10575145Y15058571D01*
X10575145Y15058571D02*
X10560860Y15087143D01*
X10560860Y15087143D02*
X10546574Y15101428D01*
X10418002Y15344286D02*
X10418002Y15244286D01*
X10575145Y15244286D02*
X10275145Y15244286D01*
X10275145Y15244286D02*
X10275145Y15387143D01*
X9816574Y14617144D02*
X9830860Y14602858D01*
X9830860Y14602858D02*
X9845145Y14560001D01*
X9845145Y14560001D02*
X9845145Y14531429D01*
X9845145Y14531429D02*
X9830860Y14488572D01*
X9830860Y14488572D02*
X9802288Y14460001D01*
X9802288Y14460001D02*
X9773717Y14445715D01*
X9773717Y14445715D02*
X9716574Y14431429D01*
X9716574Y14431429D02*
X9673717Y14431429D01*
X9673717Y14431429D02*
X9616574Y14445715D01*
X9616574Y14445715D02*
X9588002Y14460001D01*
X9588002Y14460001D02*
X9559431Y14488572D01*
X9559431Y14488572D02*
X9545145Y14531429D01*
X9545145Y14531429D02*
X9545145Y14560001D01*
X9545145Y14560001D02*
X9559431Y14602858D01*
X9559431Y14602858D02*
X9573717Y14617144D01*
X9845145Y14902858D02*
X9845145Y14731429D01*
X9845145Y14817144D02*
X9545145Y14817144D01*
X9545145Y14817144D02*
X9588002Y14788572D01*
X9588002Y14788572D02*
X9616574Y14760001D01*
X9616574Y14760001D02*
X9630860Y14731429D01*
X9545145Y15002858D02*
X9545145Y15188572D01*
X9545145Y15188572D02*
X9659431Y15088572D01*
X9659431Y15088572D02*
X9659431Y15131429D01*
X9659431Y15131429D02*
X9673717Y15160000D01*
X9673717Y15160000D02*
X9688002Y15174286D01*
X9688002Y15174286D02*
X9716574Y15188572D01*
X9716574Y15188572D02*
X9788002Y15188572D01*
X9788002Y15188572D02*
X9816574Y15174286D01*
X9816574Y15174286D02*
X9830860Y15160000D01*
X9830860Y15160000D02*
X9845145Y15131429D01*
X9845145Y15131429D02*
X9845145Y15045715D01*
X9845145Y15045715D02*
X9830860Y15017143D01*
X9830860Y15017143D02*
X9816574Y15002858D01*
X29875145Y4637144D02*
X29875145Y4665715D01*
X29875145Y4665715D02*
X29889431Y4694287D01*
X29889431Y4694287D02*
X29903717Y4708572D01*
X29903717Y4708572D02*
X29932288Y4722858D01*
X29932288Y4722858D02*
X29989431Y4737144D01*
X29989431Y4737144D02*
X30060860Y4737144D01*
X30060860Y4737144D02*
X30118002Y4722858D01*
X30118002Y4722858D02*
X30146574Y4708572D01*
X30146574Y4708572D02*
X30160860Y4694287D01*
X30160860Y4694287D02*
X30175145Y4665715D01*
X30175145Y4665715D02*
X30175145Y4637144D01*
X30175145Y4637144D02*
X30160860Y4608572D01*
X30160860Y4608572D02*
X30146574Y4594287D01*
X30146574Y4594287D02*
X30118002Y4580001D01*
X30118002Y4580001D02*
X30060860Y4565715D01*
X30060860Y4565715D02*
X29989431Y4565715D01*
X29989431Y4565715D02*
X29932288Y4580001D01*
X29932288Y4580001D02*
X29903717Y4594287D01*
X29903717Y4594287D02*
X29889431Y4608572D01*
X29889431Y4608572D02*
X29875145Y4637144D01*
X30146574Y4865715D02*
X30160860Y4880001D01*
X30160860Y4880001D02*
X30175145Y4865715D01*
X30175145Y4865715D02*
X30160860Y4851429D01*
X30160860Y4851429D02*
X30146574Y4865715D01*
X30146574Y4865715D02*
X30175145Y4865715D01*
X30175145Y5165715D02*
X30175145Y4994286D01*
X30175145Y5080001D02*
X29875145Y5080001D01*
X29875145Y5080001D02*
X29918002Y5051429D01*
X29918002Y5051429D02*
X29946574Y5022858D01*
X29946574Y5022858D02*
X29960860Y4994286D01*
X29975145Y5422857D02*
X30175145Y5422857D01*
X29975145Y5294286D02*
X30132288Y5294286D01*
X30132288Y5294286D02*
X30160860Y5308572D01*
X30160860Y5308572D02*
X30175145Y5337143D01*
X30175145Y5337143D02*
X30175145Y5380000D01*
X30175145Y5380000D02*
X30160860Y5408572D01*
X30160860Y5408572D02*
X30146574Y5422857D01*
X30018002Y5665715D02*
X30018002Y5565715D01*
X30175145Y5565715D02*
X29875145Y5565715D01*
X29875145Y5565715D02*
X29875145Y5708572D01*
X30722496Y5008624D02*
X30736782Y4994338D01*
X30736782Y4994338D02*
X30751067Y4951481D01*
X30751067Y4951481D02*
X30751067Y4922909D01*
X30751067Y4922909D02*
X30736782Y4880052D01*
X30736782Y4880052D02*
X30708210Y4851481D01*
X30708210Y4851481D02*
X30679639Y4837195D01*
X30679639Y4837195D02*
X30622496Y4822909D01*
X30622496Y4822909D02*
X30579639Y4822909D01*
X30579639Y4822909D02*
X30522496Y4837195D01*
X30522496Y4837195D02*
X30493924Y4851481D01*
X30493924Y4851481D02*
X30465353Y4880052D01*
X30465353Y4880052D02*
X30451067Y4922909D01*
X30451067Y4922909D02*
X30451067Y4951481D01*
X30451067Y4951481D02*
X30465353Y4994338D01*
X30465353Y4994338D02*
X30479639Y5008624D01*
X30451067Y5265766D02*
X30451067Y5208624D01*
X30451067Y5208624D02*
X30465353Y5180052D01*
X30465353Y5180052D02*
X30479639Y5165766D01*
X30479639Y5165766D02*
X30522496Y5137195D01*
X30522496Y5137195D02*
X30579639Y5122909D01*
X30579639Y5122909D02*
X30693924Y5122909D01*
X30693924Y5122909D02*
X30722496Y5137195D01*
X30722496Y5137195D02*
X30736782Y5151481D01*
X30736782Y5151481D02*
X30751067Y5180052D01*
X30751067Y5180052D02*
X30751067Y5237195D01*
X30751067Y5237195D02*
X30736782Y5265766D01*
X30736782Y5265766D02*
X30722496Y5280052D01*
X30722496Y5280052D02*
X30693924Y5294338D01*
X30693924Y5294338D02*
X30622496Y5294338D01*
X30622496Y5294338D02*
X30593924Y5280052D01*
X30593924Y5280052D02*
X30579639Y5265766D01*
X30579639Y5265766D02*
X30565353Y5237195D01*
X30565353Y5237195D02*
X30565353Y5180052D01*
X30565353Y5180052D02*
X30579639Y5151481D01*
X30579639Y5151481D02*
X30593924Y5137195D01*
X30593924Y5137195D02*
X30622496Y5122909D01*
X20577143Y16629855D02*
X20605714Y16629855D01*
X20605714Y16629855D02*
X20634286Y16615569D01*
X20634286Y16615569D02*
X20648572Y16601283D01*
X20648572Y16601283D02*
X20662857Y16572712D01*
X20662857Y16572712D02*
X20677143Y16515569D01*
X20677143Y16515569D02*
X20677143Y16444140D01*
X20677143Y16444140D02*
X20662857Y16386998D01*
X20662857Y16386998D02*
X20648572Y16358426D01*
X20648572Y16358426D02*
X20634286Y16344140D01*
X20634286Y16344140D02*
X20605714Y16329855D01*
X20605714Y16329855D02*
X20577143Y16329855D01*
X20577143Y16329855D02*
X20548572Y16344140D01*
X20548572Y16344140D02*
X20534286Y16358426D01*
X20534286Y16358426D02*
X20520000Y16386998D01*
X20520000Y16386998D02*
X20505714Y16444140D01*
X20505714Y16444140D02*
X20505714Y16515569D01*
X20505714Y16515569D02*
X20520000Y16572712D01*
X20520000Y16572712D02*
X20534286Y16601283D01*
X20534286Y16601283D02*
X20548572Y16615569D01*
X20548572Y16615569D02*
X20577143Y16629855D01*
X20805714Y16358426D02*
X20820000Y16344140D01*
X20820000Y16344140D02*
X20805714Y16329855D01*
X20805714Y16329855D02*
X20791428Y16344140D01*
X20791428Y16344140D02*
X20805714Y16358426D01*
X20805714Y16358426D02*
X20805714Y16329855D01*
X21105714Y16329855D02*
X20934285Y16329855D01*
X21020000Y16329855D02*
X21020000Y16629855D01*
X21020000Y16629855D02*
X20991428Y16586998D01*
X20991428Y16586998D02*
X20962857Y16558426D01*
X20962857Y16558426D02*
X20934285Y16544140D01*
X21362857Y16529855D02*
X21362857Y16329855D01*
X21234285Y16529855D02*
X21234285Y16372712D01*
X21234285Y16372712D02*
X21248571Y16344140D01*
X21248571Y16344140D02*
X21277142Y16329855D01*
X21277142Y16329855D02*
X21319999Y16329855D01*
X21319999Y16329855D02*
X21348571Y16344140D01*
X21348571Y16344140D02*
X21362857Y16358426D01*
X21605714Y16486998D02*
X21505714Y16486998D01*
X21505714Y16329855D02*
X21505714Y16629855D01*
X21505714Y16629855D02*
X21648571Y16629855D01*
X20875578Y15785869D02*
X20861292Y15771583D01*
X20861292Y15771583D02*
X20818435Y15757298D01*
X20818435Y15757298D02*
X20789863Y15757298D01*
X20789863Y15757298D02*
X20747006Y15771583D01*
X20747006Y15771583D02*
X20718435Y15800155D01*
X20718435Y15800155D02*
X20704149Y15828726D01*
X20704149Y15828726D02*
X20689863Y15885869D01*
X20689863Y15885869D02*
X20689863Y15928726D01*
X20689863Y15928726D02*
X20704149Y15985869D01*
X20704149Y15985869D02*
X20718435Y16014441D01*
X20718435Y16014441D02*
X20747006Y16043012D01*
X20747006Y16043012D02*
X20789863Y16057298D01*
X20789863Y16057298D02*
X20818435Y16057298D01*
X20818435Y16057298D02*
X20861292Y16043012D01*
X20861292Y16043012D02*
X20875578Y16028726D01*
X21161292Y15757298D02*
X20989863Y15757298D01*
X21075578Y15757298D02*
X21075578Y16057298D01*
X21075578Y16057298D02*
X21047006Y16014441D01*
X21047006Y16014441D02*
X21018435Y15985869D01*
X21018435Y15985869D02*
X20989863Y15971583D01*
X21447006Y15757298D02*
X21275577Y15757298D01*
X21361292Y15757298D02*
X21361292Y16057298D01*
X21361292Y16057298D02*
X21332720Y16014441D01*
X21332720Y16014441D02*
X21304149Y15985869D01*
X21304149Y15985869D02*
X21275577Y15971583D01*
X7931428Y5664855D02*
X7759999Y5664855D01*
X7845714Y5664855D02*
X7845714Y5964855D01*
X7845714Y5964855D02*
X7817142Y5921998D01*
X7817142Y5921998D02*
X7788571Y5893426D01*
X7788571Y5893426D02*
X7759999Y5879140D01*
X8188571Y5864855D02*
X8188571Y5664855D01*
X8059999Y5864855D02*
X8059999Y5707712D01*
X8059999Y5707712D02*
X8074285Y5679140D01*
X8074285Y5679140D02*
X8102856Y5664855D01*
X8102856Y5664855D02*
X8145713Y5664855D01*
X8145713Y5664855D02*
X8174285Y5679140D01*
X8174285Y5679140D02*
X8188571Y5693426D01*
X8431428Y5821998D02*
X8331428Y5821998D01*
X8331428Y5664855D02*
X8331428Y5964855D01*
X8331428Y5964855D02*
X8474285Y5964855D01*
X7817143Y5133426D02*
X7802857Y5119140D01*
X7802857Y5119140D02*
X7760000Y5104855D01*
X7760000Y5104855D02*
X7731428Y5104855D01*
X7731428Y5104855D02*
X7688571Y5119140D01*
X7688571Y5119140D02*
X7660000Y5147712D01*
X7660000Y5147712D02*
X7645714Y5176283D01*
X7645714Y5176283D02*
X7631428Y5233426D01*
X7631428Y5233426D02*
X7631428Y5276283D01*
X7631428Y5276283D02*
X7645714Y5333426D01*
X7645714Y5333426D02*
X7660000Y5361998D01*
X7660000Y5361998D02*
X7688571Y5390569D01*
X7688571Y5390569D02*
X7731428Y5404855D01*
X7731428Y5404855D02*
X7760000Y5404855D01*
X7760000Y5404855D02*
X7802857Y5390569D01*
X7802857Y5390569D02*
X7817143Y5376283D01*
X8102857Y5104855D02*
X7931428Y5104855D01*
X8017143Y5104855D02*
X8017143Y5404855D01*
X8017143Y5404855D02*
X7988571Y5361998D01*
X7988571Y5361998D02*
X7960000Y5333426D01*
X7960000Y5333426D02*
X7931428Y5319140D01*
X8245714Y5104855D02*
X8302857Y5104855D01*
X8302857Y5104855D02*
X8331428Y5119140D01*
X8331428Y5119140D02*
X8345714Y5133426D01*
X8345714Y5133426D02*
X8374285Y5176283D01*
X8374285Y5176283D02*
X8388571Y5233426D01*
X8388571Y5233426D02*
X8388571Y5347712D01*
X8388571Y5347712D02*
X8374285Y5376283D01*
X8374285Y5376283D02*
X8360000Y5390569D01*
X8360000Y5390569D02*
X8331428Y5404855D01*
X8331428Y5404855D02*
X8274285Y5404855D01*
X8274285Y5404855D02*
X8245714Y5390569D01*
X8245714Y5390569D02*
X8231428Y5376283D01*
X8231428Y5376283D02*
X8217142Y5347712D01*
X8217142Y5347712D02*
X8217142Y5276283D01*
X8217142Y5276283D02*
X8231428Y5247712D01*
X8231428Y5247712D02*
X8245714Y5233426D01*
X8245714Y5233426D02*
X8274285Y5219140D01*
X8274285Y5219140D02*
X8331428Y5219140D01*
X8331428Y5219140D02*
X8360000Y5233426D01*
X8360000Y5233426D02*
X8374285Y5247712D01*
X8374285Y5247712D02*
X8388571Y5276283D01*
X18395145Y7785715D02*
X18395145Y7614286D01*
X18395145Y7700001D02*
X18095145Y7700001D01*
X18095145Y7700001D02*
X18138002Y7671429D01*
X18138002Y7671429D02*
X18166574Y7642858D01*
X18166574Y7642858D02*
X18180860Y7614286D01*
X18395145Y7914286D02*
X18095145Y7914286D01*
X18395145Y8085715D02*
X18223717Y7957143D01*
X18095145Y8085715D02*
X18266574Y7914286D01*
X18965145Y7800001D02*
X18822288Y7700001D01*
X18965145Y7628572D02*
X18665145Y7628572D01*
X18665145Y7628572D02*
X18665145Y7742858D01*
X18665145Y7742858D02*
X18679431Y7771429D01*
X18679431Y7771429D02*
X18693717Y7785715D01*
X18693717Y7785715D02*
X18722288Y7800001D01*
X18722288Y7800001D02*
X18765145Y7800001D01*
X18765145Y7800001D02*
X18793717Y7785715D01*
X18793717Y7785715D02*
X18808002Y7771429D01*
X18808002Y7771429D02*
X18822288Y7742858D01*
X18822288Y7742858D02*
X18822288Y7628572D01*
X18693717Y7914286D02*
X18679431Y7928572D01*
X18679431Y7928572D02*
X18665145Y7957143D01*
X18665145Y7957143D02*
X18665145Y8028572D01*
X18665145Y8028572D02*
X18679431Y8057143D01*
X18679431Y8057143D02*
X18693717Y8071429D01*
X18693717Y8071429D02*
X18722288Y8085715D01*
X18722288Y8085715D02*
X18750860Y8085715D01*
X18750860Y8085715D02*
X18793717Y8071429D01*
X18793717Y8071429D02*
X18965145Y7900001D01*
X18965145Y7900001D02*
X18965145Y8085715D01*
X37591429Y17644855D02*
X37591429Y17444855D01*
X37520000Y17759140D02*
X37448571Y17544855D01*
X37448571Y17544855D02*
X37634286Y17544855D01*
X37720000Y17744855D02*
X37920000Y17744855D01*
X37920000Y17744855D02*
X37791428Y17444855D01*
X38091428Y17744855D02*
X38119999Y17744855D01*
X38119999Y17744855D02*
X38148571Y17730569D01*
X38148571Y17730569D02*
X38162857Y17716283D01*
X38162857Y17716283D02*
X38177142Y17687712D01*
X38177142Y17687712D02*
X38191428Y17630569D01*
X38191428Y17630569D02*
X38191428Y17559140D01*
X38191428Y17559140D02*
X38177142Y17501998D01*
X38177142Y17501998D02*
X38162857Y17473426D01*
X38162857Y17473426D02*
X38148571Y17459140D01*
X38148571Y17459140D02*
X38119999Y17444855D01*
X38119999Y17444855D02*
X38091428Y17444855D01*
X38091428Y17444855D02*
X38062857Y17459140D01*
X38062857Y17459140D02*
X38048571Y17473426D01*
X38048571Y17473426D02*
X38034285Y17501998D01*
X38034285Y17501998D02*
X38019999Y17559140D01*
X38019999Y17559140D02*
X38019999Y17630569D01*
X38019999Y17630569D02*
X38034285Y17687712D01*
X38034285Y17687712D02*
X38048571Y17716283D01*
X38048571Y17716283D02*
X38062857Y17730569D01*
X38062857Y17730569D02*
X38091428Y17744855D01*
X38491428Y17444855D02*
X38391428Y17587712D01*
X38319999Y17444855D02*
X38319999Y17744855D01*
X38319999Y17744855D02*
X38434285Y17744855D01*
X38434285Y17744855D02*
X38462856Y17730569D01*
X38462856Y17730569D02*
X38477142Y17716283D01*
X38477142Y17716283D02*
X38491428Y17687712D01*
X38491428Y17687712D02*
X38491428Y17644855D01*
X38491428Y17644855D02*
X38477142Y17616283D01*
X38477142Y17616283D02*
X38462856Y17601998D01*
X38462856Y17601998D02*
X38434285Y17587712D01*
X38434285Y17587712D02*
X38319999Y17587712D01*
X37933837Y16807672D02*
X37833837Y16950529D01*
X37762408Y16807672D02*
X37762408Y17107672D01*
X37762408Y17107672D02*
X37876694Y17107672D01*
X37876694Y17107672D02*
X37905265Y17093386D01*
X37905265Y17093386D02*
X37919551Y17079100D01*
X37919551Y17079100D02*
X37933837Y17050529D01*
X37933837Y17050529D02*
X37933837Y17007672D01*
X37933837Y17007672D02*
X37919551Y16979100D01*
X37919551Y16979100D02*
X37905265Y16964815D01*
X37905265Y16964815D02*
X37876694Y16950529D01*
X37876694Y16950529D02*
X37762408Y16950529D01*
X38033837Y17107672D02*
X38233837Y17107672D01*
X38233837Y17107672D02*
X38105265Y16807672D01*
X48204284Y16624855D02*
X48204284Y16924855D01*
X48204284Y16924855D02*
X48304284Y16710569D01*
X48304284Y16710569D02*
X48404284Y16924855D01*
X48404284Y16924855D02*
X48404284Y16624855D01*
X48589998Y16624855D02*
X48561427Y16639140D01*
X48561427Y16639140D02*
X48547141Y16653426D01*
X48547141Y16653426D02*
X48532855Y16681998D01*
X48532855Y16681998D02*
X48532855Y16767712D01*
X48532855Y16767712D02*
X48547141Y16796283D01*
X48547141Y16796283D02*
X48561427Y16810569D01*
X48561427Y16810569D02*
X48589998Y16824855D01*
X48589998Y16824855D02*
X48632855Y16824855D01*
X48632855Y16824855D02*
X48661427Y16810569D01*
X48661427Y16810569D02*
X48675713Y16796283D01*
X48675713Y16796283D02*
X48689998Y16767712D01*
X48689998Y16767712D02*
X48689998Y16681998D01*
X48689998Y16681998D02*
X48675713Y16653426D01*
X48675713Y16653426D02*
X48661427Y16639140D01*
X48661427Y16639140D02*
X48632855Y16624855D01*
X48632855Y16624855D02*
X48589998Y16624855D01*
X48947142Y16824855D02*
X48947142Y16624855D01*
X48818570Y16824855D02*
X48818570Y16667712D01*
X48818570Y16667712D02*
X48832856Y16639140D01*
X48832856Y16639140D02*
X48861427Y16624855D01*
X48861427Y16624855D02*
X48904284Y16624855D01*
X48904284Y16624855D02*
X48932856Y16639140D01*
X48932856Y16639140D02*
X48947142Y16653426D01*
X49089999Y16824855D02*
X49089999Y16624855D01*
X49089999Y16796283D02*
X49104285Y16810569D01*
X49104285Y16810569D02*
X49132856Y16824855D01*
X49132856Y16824855D02*
X49175713Y16824855D01*
X49175713Y16824855D02*
X49204285Y16810569D01*
X49204285Y16810569D02*
X49218571Y16781998D01*
X49218571Y16781998D02*
X49218571Y16624855D01*
X49318571Y16824855D02*
X49432857Y16824855D01*
X49361428Y16924855D02*
X49361428Y16667712D01*
X49361428Y16667712D02*
X49375714Y16639140D01*
X49375714Y16639140D02*
X49404285Y16624855D01*
X49404285Y16624855D02*
X49432857Y16624855D01*
X49532857Y16624855D02*
X49532857Y16824855D01*
X49532857Y16924855D02*
X49518571Y16910569D01*
X49518571Y16910569D02*
X49532857Y16896283D01*
X49532857Y16896283D02*
X49547143Y16910569D01*
X49547143Y16910569D02*
X49532857Y16924855D01*
X49532857Y16924855D02*
X49532857Y16896283D01*
X49675714Y16824855D02*
X49675714Y16624855D01*
X49675714Y16796283D02*
X49690000Y16810569D01*
X49690000Y16810569D02*
X49718571Y16824855D01*
X49718571Y16824855D02*
X49761428Y16824855D01*
X49761428Y16824855D02*
X49790000Y16810569D01*
X49790000Y16810569D02*
X49804286Y16781998D01*
X49804286Y16781998D02*
X49804286Y16624855D01*
X50075715Y16824855D02*
X50075715Y16581998D01*
X50075715Y16581998D02*
X50061429Y16553426D01*
X50061429Y16553426D02*
X50047143Y16539140D01*
X50047143Y16539140D02*
X50018572Y16524855D01*
X50018572Y16524855D02*
X49975715Y16524855D01*
X49975715Y16524855D02*
X49947143Y16539140D01*
X50075715Y16639140D02*
X50047143Y16624855D01*
X50047143Y16624855D02*
X49990000Y16624855D01*
X49990000Y16624855D02*
X49961429Y16639140D01*
X49961429Y16639140D02*
X49947143Y16653426D01*
X49947143Y16653426D02*
X49932857Y16681998D01*
X49932857Y16681998D02*
X49932857Y16767712D01*
X49932857Y16767712D02*
X49947143Y16796283D01*
X49947143Y16796283D02*
X49961429Y16810569D01*
X49961429Y16810569D02*
X49990000Y16824855D01*
X49990000Y16824855D02*
X50047143Y16824855D01*
X50047143Y16824855D02*
X50075715Y16810569D01*
X50218572Y16624855D02*
X50218572Y16924855D01*
X50218572Y16781998D02*
X50390001Y16781998D01*
X50390001Y16624855D02*
X50390001Y16924855D01*
X50575715Y16624855D02*
X50547144Y16639140D01*
X50547144Y16639140D02*
X50532858Y16653426D01*
X50532858Y16653426D02*
X50518572Y16681998D01*
X50518572Y16681998D02*
X50518572Y16767712D01*
X50518572Y16767712D02*
X50532858Y16796283D01*
X50532858Y16796283D02*
X50547144Y16810569D01*
X50547144Y16810569D02*
X50575715Y16824855D01*
X50575715Y16824855D02*
X50618572Y16824855D01*
X50618572Y16824855D02*
X50647144Y16810569D01*
X50647144Y16810569D02*
X50661430Y16796283D01*
X50661430Y16796283D02*
X50675715Y16767712D01*
X50675715Y16767712D02*
X50675715Y16681998D01*
X50675715Y16681998D02*
X50661430Y16653426D01*
X50661430Y16653426D02*
X50647144Y16639140D01*
X50647144Y16639140D02*
X50618572Y16624855D01*
X50618572Y16624855D02*
X50575715Y16624855D01*
X50847144Y16624855D02*
X50818573Y16639140D01*
X50818573Y16639140D02*
X50804287Y16667712D01*
X50804287Y16667712D02*
X50804287Y16924855D01*
X51075716Y16639140D02*
X51047144Y16624855D01*
X51047144Y16624855D02*
X50990002Y16624855D01*
X50990002Y16624855D02*
X50961430Y16639140D01*
X50961430Y16639140D02*
X50947144Y16667712D01*
X50947144Y16667712D02*
X50947144Y16781998D01*
X50947144Y16781998D02*
X50961430Y16810569D01*
X50961430Y16810569D02*
X50990002Y16824855D01*
X50990002Y16824855D02*
X51047144Y16824855D01*
X51047144Y16824855D02*
X51075716Y16810569D01*
X51075716Y16810569D02*
X51090002Y16781998D01*
X51090002Y16781998D02*
X51090002Y16753426D01*
X51090002Y16753426D02*
X50947144Y16724855D01*
X49311428Y17144855D02*
X49311428Y17444855D01*
X49311428Y17301998D02*
X49482857Y17301998D01*
X49482857Y17144855D02*
X49482857Y17444855D01*
X49597143Y17444855D02*
X49782857Y17444855D01*
X49782857Y17444855D02*
X49682857Y17330569D01*
X49682857Y17330569D02*
X49725714Y17330569D01*
X49725714Y17330569D02*
X49754286Y17316283D01*
X49754286Y17316283D02*
X49768571Y17301998D01*
X49768571Y17301998D02*
X49782857Y17273426D01*
X49782857Y17273426D02*
X49782857Y17201998D01*
X49782857Y17201998D02*
X49768571Y17173426D01*
X49768571Y17173426D02*
X49754286Y17159140D01*
X49754286Y17159140D02*
X49725714Y17144855D01*
X49725714Y17144855D02*
X49640000Y17144855D01*
X49640000Y17144855D02*
X49611428Y17159140D01*
X49611428Y17159140D02*
X49597143Y17173426D01*
X33715714Y9464855D02*
X33544285Y9464855D01*
X33630000Y9464855D02*
X33630000Y9764855D01*
X33630000Y9764855D02*
X33601428Y9721998D01*
X33601428Y9721998D02*
X33572857Y9693426D01*
X33572857Y9693426D02*
X33544285Y9679140D01*
X33844285Y9464855D02*
X33844285Y9764855D01*
X34015714Y9464855D02*
X33887142Y9636283D01*
X34015714Y9764855D02*
X33844285Y9593426D01*
X33587143Y10084855D02*
X33487143Y10227712D01*
X33415714Y10084855D02*
X33415714Y10384855D01*
X33415714Y10384855D02*
X33530000Y10384855D01*
X33530000Y10384855D02*
X33558571Y10370569D01*
X33558571Y10370569D02*
X33572857Y10356283D01*
X33572857Y10356283D02*
X33587143Y10327712D01*
X33587143Y10327712D02*
X33587143Y10284855D01*
X33587143Y10284855D02*
X33572857Y10256283D01*
X33572857Y10256283D02*
X33558571Y10241998D01*
X33558571Y10241998D02*
X33530000Y10227712D01*
X33530000Y10227712D02*
X33415714Y10227712D01*
X33872857Y10084855D02*
X33701428Y10084855D01*
X33787143Y10084855D02*
X33787143Y10384855D01*
X33787143Y10384855D02*
X33758571Y10341998D01*
X33758571Y10341998D02*
X33730000Y10313426D01*
X33730000Y10313426D02*
X33701428Y10299140D01*
X34058571Y10384855D02*
X34087142Y10384855D01*
X34087142Y10384855D02*
X34115714Y10370569D01*
X34115714Y10370569D02*
X34130000Y10356283D01*
X34130000Y10356283D02*
X34144285Y10327712D01*
X34144285Y10327712D02*
X34158571Y10270569D01*
X34158571Y10270569D02*
X34158571Y10199140D01*
X34158571Y10199140D02*
X34144285Y10141998D01*
X34144285Y10141998D02*
X34130000Y10113426D01*
X34130000Y10113426D02*
X34115714Y10099140D01*
X34115714Y10099140D02*
X34087142Y10084855D01*
X34087142Y10084855D02*
X34058571Y10084855D01*
X34058571Y10084855D02*
X34030000Y10099140D01*
X34030000Y10099140D02*
X34015714Y10113426D01*
X34015714Y10113426D02*
X34001428Y10141998D01*
X34001428Y10141998D02*
X33987142Y10199140D01*
X33987142Y10199140D02*
X33987142Y10270569D01*
X33987142Y10270569D02*
X34001428Y10327712D01*
X34001428Y10327712D02*
X34015714Y10356283D01*
X34015714Y10356283D02*
X34030000Y10370569D01*
X34030000Y10370569D02*
X34058571Y10384855D01*
X23815145Y15787144D02*
X23815145Y15815715D01*
X23815145Y15815715D02*
X23829431Y15844287D01*
X23829431Y15844287D02*
X23843717Y15858572D01*
X23843717Y15858572D02*
X23872288Y15872858D01*
X23872288Y15872858D02*
X23929431Y15887144D01*
X23929431Y15887144D02*
X24000860Y15887144D01*
X24000860Y15887144D02*
X24058002Y15872858D01*
X24058002Y15872858D02*
X24086574Y15858572D01*
X24086574Y15858572D02*
X24100860Y15844287D01*
X24100860Y15844287D02*
X24115145Y15815715D01*
X24115145Y15815715D02*
X24115145Y15787144D01*
X24115145Y15787144D02*
X24100860Y15758572D01*
X24100860Y15758572D02*
X24086574Y15744287D01*
X24086574Y15744287D02*
X24058002Y15730001D01*
X24058002Y15730001D02*
X24000860Y15715715D01*
X24000860Y15715715D02*
X23929431Y15715715D01*
X23929431Y15715715D02*
X23872288Y15730001D01*
X23872288Y15730001D02*
X23843717Y15744287D01*
X23843717Y15744287D02*
X23829431Y15758572D01*
X23829431Y15758572D02*
X23815145Y15787144D01*
X24086574Y16015715D02*
X24100860Y16030001D01*
X24100860Y16030001D02*
X24115145Y16015715D01*
X24115145Y16015715D02*
X24100860Y16001429D01*
X24100860Y16001429D02*
X24086574Y16015715D01*
X24086574Y16015715D02*
X24115145Y16015715D01*
X24115145Y16315715D02*
X24115145Y16144286D01*
X24115145Y16230001D02*
X23815145Y16230001D01*
X23815145Y16230001D02*
X23858002Y16201429D01*
X23858002Y16201429D02*
X23886574Y16172858D01*
X23886574Y16172858D02*
X23900860Y16144286D01*
X23915145Y16572857D02*
X24115145Y16572857D01*
X23915145Y16444286D02*
X24072288Y16444286D01*
X24072288Y16444286D02*
X24100860Y16458572D01*
X24100860Y16458572D02*
X24115145Y16487143D01*
X24115145Y16487143D02*
X24115145Y16530000D01*
X24115145Y16530000D02*
X24100860Y16558572D01*
X24100860Y16558572D02*
X24086574Y16572857D01*
X23958002Y16815715D02*
X23958002Y16715715D01*
X24115145Y16715715D02*
X23815145Y16715715D01*
X23815145Y16715715D02*
X23815145Y16858572D01*
X23476574Y16037144D02*
X23490860Y16022858D01*
X23490860Y16022858D02*
X23505145Y15980001D01*
X23505145Y15980001D02*
X23505145Y15951429D01*
X23505145Y15951429D02*
X23490860Y15908572D01*
X23490860Y15908572D02*
X23462288Y15880001D01*
X23462288Y15880001D02*
X23433717Y15865715D01*
X23433717Y15865715D02*
X23376574Y15851429D01*
X23376574Y15851429D02*
X23333717Y15851429D01*
X23333717Y15851429D02*
X23276574Y15865715D01*
X23276574Y15865715D02*
X23248002Y15880001D01*
X23248002Y15880001D02*
X23219431Y15908572D01*
X23219431Y15908572D02*
X23205145Y15951429D01*
X23205145Y15951429D02*
X23205145Y15980001D01*
X23205145Y15980001D02*
X23219431Y16022858D01*
X23219431Y16022858D02*
X23233717Y16037144D01*
X23505145Y16322858D02*
X23505145Y16151429D01*
X23505145Y16237144D02*
X23205145Y16237144D01*
X23205145Y16237144D02*
X23248002Y16208572D01*
X23248002Y16208572D02*
X23276574Y16180001D01*
X23276574Y16180001D02*
X23290860Y16151429D01*
X23205145Y16508572D02*
X23205145Y16537143D01*
X23205145Y16537143D02*
X23219431Y16565715D01*
X23219431Y16565715D02*
X23233717Y16580000D01*
X23233717Y16580000D02*
X23262288Y16594286D01*
X23262288Y16594286D02*
X23319431Y16608572D01*
X23319431Y16608572D02*
X23390860Y16608572D01*
X23390860Y16608572D02*
X23448002Y16594286D01*
X23448002Y16594286D02*
X23476574Y16580000D01*
X23476574Y16580000D02*
X23490860Y16565715D01*
X23490860Y16565715D02*
X23505145Y16537143D01*
X23505145Y16537143D02*
X23505145Y16508572D01*
X23505145Y16508572D02*
X23490860Y16480000D01*
X23490860Y16480000D02*
X23476574Y16465715D01*
X23476574Y16465715D02*
X23448002Y16451429D01*
X23448002Y16451429D02*
X23390860Y16437143D01*
X23390860Y16437143D02*
X23319431Y16437143D01*
X23319431Y16437143D02*
X23262288Y16451429D01*
X23262288Y16451429D02*
X23233717Y16465715D01*
X23233717Y16465715D02*
X23219431Y16480000D01*
X23219431Y16480000D02*
X23205145Y16508572D01*
X27051429Y10804855D02*
X26951429Y10947712D01*
X26880000Y10804855D02*
X26880000Y11104855D01*
X26880000Y11104855D02*
X26994286Y11104855D01*
X26994286Y11104855D02*
X27022857Y11090569D01*
X27022857Y11090569D02*
X27037143Y11076283D01*
X27037143Y11076283D02*
X27051429Y11047712D01*
X27051429Y11047712D02*
X27051429Y11004855D01*
X27051429Y11004855D02*
X27037143Y10976283D01*
X27037143Y10976283D02*
X27022857Y10961998D01*
X27022857Y10961998D02*
X26994286Y10947712D01*
X26994286Y10947712D02*
X26880000Y10947712D01*
X27180000Y10804855D02*
X27180000Y11104855D01*
X27180000Y11104855D02*
X27294286Y11104855D01*
X27294286Y11104855D02*
X27322857Y11090569D01*
X27322857Y11090569D02*
X27337143Y11076283D01*
X27337143Y11076283D02*
X27351429Y11047712D01*
X27351429Y11047712D02*
X27351429Y11004855D01*
X27351429Y11004855D02*
X27337143Y10976283D01*
X27337143Y10976283D02*
X27322857Y10961998D01*
X27322857Y10961998D02*
X27294286Y10947712D01*
X27294286Y10947712D02*
X27180000Y10947712D01*
X27465714Y11076283D02*
X27480000Y11090569D01*
X27480000Y11090569D02*
X27508572Y11104855D01*
X27508572Y11104855D02*
X27580000Y11104855D01*
X27580000Y11104855D02*
X27608572Y11090569D01*
X27608572Y11090569D02*
X27622857Y11076283D01*
X27622857Y11076283D02*
X27637143Y11047712D01*
X27637143Y11047712D02*
X27637143Y11019140D01*
X27637143Y11019140D02*
X27622857Y10976283D01*
X27622857Y10976283D02*
X27451429Y10804855D01*
X27451429Y10804855D02*
X27637143Y10804855D01*
X27822857Y11104855D02*
X27851428Y11104855D01*
X27851428Y11104855D02*
X27880000Y11090569D01*
X27880000Y11090569D02*
X27894286Y11076283D01*
X27894286Y11076283D02*
X27908571Y11047712D01*
X27908571Y11047712D02*
X27922857Y10990569D01*
X27922857Y10990569D02*
X27922857Y10919140D01*
X27922857Y10919140D02*
X27908571Y10861998D01*
X27908571Y10861998D02*
X27894286Y10833426D01*
X27894286Y10833426D02*
X27880000Y10819140D01*
X27880000Y10819140D02*
X27851428Y10804855D01*
X27851428Y10804855D02*
X27822857Y10804855D01*
X27822857Y10804855D02*
X27794286Y10819140D01*
X27794286Y10819140D02*
X27780000Y10833426D01*
X27780000Y10833426D02*
X27765714Y10861998D01*
X27765714Y10861998D02*
X27751428Y10919140D01*
X27751428Y10919140D02*
X27751428Y10990569D01*
X27751428Y10990569D02*
X27765714Y11047712D01*
X27765714Y11047712D02*
X27780000Y11076283D01*
X27780000Y11076283D02*
X27794286Y11090569D01*
X27794286Y11090569D02*
X27822857Y11104855D01*
X28180000Y11004855D02*
X28180000Y10804855D01*
X28108571Y11119140D02*
X28037142Y10904855D01*
X28037142Y10904855D02*
X28222857Y10904855D01*
X28394285Y11104855D02*
X28422856Y11104855D01*
X28422856Y11104855D02*
X28451428Y11090569D01*
X28451428Y11090569D02*
X28465714Y11076283D01*
X28465714Y11076283D02*
X28479999Y11047712D01*
X28479999Y11047712D02*
X28494285Y10990569D01*
X28494285Y10990569D02*
X28494285Y10919140D01*
X28494285Y10919140D02*
X28479999Y10861998D01*
X28479999Y10861998D02*
X28465714Y10833426D01*
X28465714Y10833426D02*
X28451428Y10819140D01*
X28451428Y10819140D02*
X28422856Y10804855D01*
X28422856Y10804855D02*
X28394285Y10804855D01*
X28394285Y10804855D02*
X28365714Y10819140D01*
X28365714Y10819140D02*
X28351428Y10833426D01*
X28351428Y10833426D02*
X28337142Y10861998D01*
X28337142Y10861998D02*
X28322856Y10919140D01*
X28322856Y10919140D02*
X28322856Y10990569D01*
X28322856Y10990569D02*
X28337142Y11047712D01*
X28337142Y11047712D02*
X28351428Y11076283D01*
X28351428Y11076283D02*
X28365714Y11090569D01*
X28365714Y11090569D02*
X28394285Y11104855D01*
X27401428Y11734855D02*
X27401428Y11491998D01*
X27401428Y11491998D02*
X27415714Y11463426D01*
X27415714Y11463426D02*
X27430000Y11449140D01*
X27430000Y11449140D02*
X27458571Y11434855D01*
X27458571Y11434855D02*
X27515714Y11434855D01*
X27515714Y11434855D02*
X27544285Y11449140D01*
X27544285Y11449140D02*
X27558571Y11463426D01*
X27558571Y11463426D02*
X27572857Y11491998D01*
X27572857Y11491998D02*
X27572857Y11734855D01*
X27687143Y11734855D02*
X27872857Y11734855D01*
X27872857Y11734855D02*
X27772857Y11620569D01*
X27772857Y11620569D02*
X27815714Y11620569D01*
X27815714Y11620569D02*
X27844286Y11606283D01*
X27844286Y11606283D02*
X27858571Y11591998D01*
X27858571Y11591998D02*
X27872857Y11563426D01*
X27872857Y11563426D02*
X27872857Y11491998D01*
X27872857Y11491998D02*
X27858571Y11463426D01*
X27858571Y11463426D02*
X27844286Y11449140D01*
X27844286Y11449140D02*
X27815714Y11434855D01*
X27815714Y11434855D02*
X27730000Y11434855D01*
X27730000Y11434855D02*
X27701428Y11449140D01*
X27701428Y11449140D02*
X27687143Y11463426D01*
X21771428Y11941283D02*
X21785714Y11955569D01*
X21785714Y11955569D02*
X21814286Y11969855D01*
X21814286Y11969855D02*
X21885714Y11969855D01*
X21885714Y11969855D02*
X21914286Y11955569D01*
X21914286Y11955569D02*
X21928571Y11941283D01*
X21928571Y11941283D02*
X21942857Y11912712D01*
X21942857Y11912712D02*
X21942857Y11884140D01*
X21942857Y11884140D02*
X21928571Y11841283D01*
X21928571Y11841283D02*
X21757143Y11669855D01*
X21757143Y11669855D02*
X21942857Y11669855D01*
X22042857Y11969855D02*
X22242857Y11969855D01*
X22242857Y11969855D02*
X22114285Y11669855D01*
X22528571Y11669855D02*
X22428571Y11812712D01*
X22357142Y11669855D02*
X22357142Y11969855D01*
X22357142Y11969855D02*
X22471428Y11969855D01*
X22471428Y11969855D02*
X22499999Y11955569D01*
X22499999Y11955569D02*
X22514285Y11941283D01*
X22514285Y11941283D02*
X22528571Y11912712D01*
X22528571Y11912712D02*
X22528571Y11869855D01*
X22528571Y11869855D02*
X22514285Y11841283D01*
X22514285Y11841283D02*
X22499999Y11826998D01*
X22499999Y11826998D02*
X22471428Y11812712D01*
X22471428Y11812712D02*
X22357142Y11812712D01*
X21000376Y11670952D02*
X20900376Y11813809D01*
X20828947Y11670952D02*
X20828947Y11970952D01*
X20828947Y11970952D02*
X20943233Y11970952D01*
X20943233Y11970952D02*
X20971804Y11956666D01*
X20971804Y11956666D02*
X20986090Y11942380D01*
X20986090Y11942380D02*
X21000376Y11913809D01*
X21000376Y11913809D02*
X21000376Y11870952D01*
X21000376Y11870952D02*
X20986090Y11842380D01*
X20986090Y11842380D02*
X20971804Y11828095D01*
X20971804Y11828095D02*
X20943233Y11813809D01*
X20943233Y11813809D02*
X20828947Y11813809D01*
X21271804Y11970952D02*
X21128947Y11970952D01*
X21128947Y11970952D02*
X21114661Y11828095D01*
X21114661Y11828095D02*
X21128947Y11842380D01*
X21128947Y11842380D02*
X21157519Y11856666D01*
X21157519Y11856666D02*
X21228947Y11856666D01*
X21228947Y11856666D02*
X21257519Y11842380D01*
X21257519Y11842380D02*
X21271804Y11828095D01*
X21271804Y11828095D02*
X21286090Y11799523D01*
X21286090Y11799523D02*
X21286090Y11728095D01*
X21286090Y11728095D02*
X21271804Y11699523D01*
X21271804Y11699523D02*
X21257519Y11685237D01*
X21257519Y11685237D02*
X21228947Y11670952D01*
X21228947Y11670952D02*
X21157519Y11670952D01*
X21157519Y11670952D02*
X21128947Y11685237D01*
X21128947Y11685237D02*
X21114661Y11699523D01*
X32027143Y12854855D02*
X32055714Y12854855D01*
X32055714Y12854855D02*
X32084286Y12840569D01*
X32084286Y12840569D02*
X32098572Y12826283D01*
X32098572Y12826283D02*
X32112857Y12797712D01*
X32112857Y12797712D02*
X32127143Y12740569D01*
X32127143Y12740569D02*
X32127143Y12669140D01*
X32127143Y12669140D02*
X32112857Y12611998D01*
X32112857Y12611998D02*
X32098572Y12583426D01*
X32098572Y12583426D02*
X32084286Y12569140D01*
X32084286Y12569140D02*
X32055714Y12554855D01*
X32055714Y12554855D02*
X32027143Y12554855D01*
X32027143Y12554855D02*
X31998572Y12569140D01*
X31998572Y12569140D02*
X31984286Y12583426D01*
X31984286Y12583426D02*
X31970000Y12611998D01*
X31970000Y12611998D02*
X31955714Y12669140D01*
X31955714Y12669140D02*
X31955714Y12740569D01*
X31955714Y12740569D02*
X31970000Y12797712D01*
X31970000Y12797712D02*
X31984286Y12826283D01*
X31984286Y12826283D02*
X31998572Y12840569D01*
X31998572Y12840569D02*
X32027143Y12854855D01*
X32255714Y12583426D02*
X32270000Y12569140D01*
X32270000Y12569140D02*
X32255714Y12554855D01*
X32255714Y12554855D02*
X32241428Y12569140D01*
X32241428Y12569140D02*
X32255714Y12583426D01*
X32255714Y12583426D02*
X32255714Y12554855D01*
X32555714Y12554855D02*
X32384285Y12554855D01*
X32470000Y12554855D02*
X32470000Y12854855D01*
X32470000Y12854855D02*
X32441428Y12811998D01*
X32441428Y12811998D02*
X32412857Y12783426D01*
X32412857Y12783426D02*
X32384285Y12769140D01*
X32812857Y12754855D02*
X32812857Y12554855D01*
X32684285Y12754855D02*
X32684285Y12597712D01*
X32684285Y12597712D02*
X32698571Y12569140D01*
X32698571Y12569140D02*
X32727142Y12554855D01*
X32727142Y12554855D02*
X32769999Y12554855D01*
X32769999Y12554855D02*
X32798571Y12569140D01*
X32798571Y12569140D02*
X32812857Y12583426D01*
X33055714Y12711998D02*
X32955714Y12711998D01*
X32955714Y12554855D02*
X32955714Y12854855D01*
X32955714Y12854855D02*
X33098571Y12854855D01*
X33718870Y12633946D02*
X33704584Y12619660D01*
X33704584Y12619660D02*
X33661727Y12605375D01*
X33661727Y12605375D02*
X33633155Y12605375D01*
X33633155Y12605375D02*
X33590298Y12619660D01*
X33590298Y12619660D02*
X33561727Y12648232D01*
X33561727Y12648232D02*
X33547441Y12676803D01*
X33547441Y12676803D02*
X33533155Y12733946D01*
X33533155Y12733946D02*
X33533155Y12776803D01*
X33533155Y12776803D02*
X33547441Y12833946D01*
X33547441Y12833946D02*
X33561727Y12862518D01*
X33561727Y12862518D02*
X33590298Y12891089D01*
X33590298Y12891089D02*
X33633155Y12905375D01*
X33633155Y12905375D02*
X33661727Y12905375D01*
X33661727Y12905375D02*
X33704584Y12891089D01*
X33704584Y12891089D02*
X33718870Y12876803D01*
X33833155Y12876803D02*
X33847441Y12891089D01*
X33847441Y12891089D02*
X33876013Y12905375D01*
X33876013Y12905375D02*
X33947441Y12905375D01*
X33947441Y12905375D02*
X33976013Y12891089D01*
X33976013Y12891089D02*
X33990298Y12876803D01*
X33990298Y12876803D02*
X34004584Y12848232D01*
X34004584Y12848232D02*
X34004584Y12819660D01*
X34004584Y12819660D02*
X33990298Y12776803D01*
X33990298Y12776803D02*
X33818870Y12605375D01*
X33818870Y12605375D02*
X34004584Y12605375D01*
X12025715Y9434855D02*
X12097143Y9134855D01*
X12097143Y9134855D02*
X12154286Y9349140D01*
X12154286Y9349140D02*
X12211429Y9134855D01*
X12211429Y9134855D02*
X12282858Y9434855D01*
X12382857Y9406283D02*
X12397143Y9420569D01*
X12397143Y9420569D02*
X12425715Y9434855D01*
X12425715Y9434855D02*
X12497143Y9434855D01*
X12497143Y9434855D02*
X12525715Y9420569D01*
X12525715Y9420569D02*
X12540000Y9406283D01*
X12540000Y9406283D02*
X12554286Y9377712D01*
X12554286Y9377712D02*
X12554286Y9349140D01*
X12554286Y9349140D02*
X12540000Y9306283D01*
X12540000Y9306283D02*
X12368572Y9134855D01*
X12368572Y9134855D02*
X12554286Y9134855D01*
X12825714Y9434855D02*
X12682857Y9434855D01*
X12682857Y9434855D02*
X12668571Y9291998D01*
X12668571Y9291998D02*
X12682857Y9306283D01*
X12682857Y9306283D02*
X12711429Y9320569D01*
X12711429Y9320569D02*
X12782857Y9320569D01*
X12782857Y9320569D02*
X12811429Y9306283D01*
X12811429Y9306283D02*
X12825714Y9291998D01*
X12825714Y9291998D02*
X12840000Y9263426D01*
X12840000Y9263426D02*
X12840000Y9191998D01*
X12840000Y9191998D02*
X12825714Y9163426D01*
X12825714Y9163426D02*
X12811429Y9149140D01*
X12811429Y9149140D02*
X12782857Y9134855D01*
X12782857Y9134855D02*
X12711429Y9134855D01*
X12711429Y9134855D02*
X12682857Y9149140D01*
X12682857Y9149140D02*
X12668571Y9163426D01*
X13168571Y9106283D02*
X13140000Y9120569D01*
X13140000Y9120569D02*
X13111428Y9149140D01*
X13111428Y9149140D02*
X13068571Y9191998D01*
X13068571Y9191998D02*
X13040000Y9206283D01*
X13040000Y9206283D02*
X13011428Y9206283D01*
X13025714Y9134855D02*
X12997143Y9149140D01*
X12997143Y9149140D02*
X12968571Y9177712D01*
X12968571Y9177712D02*
X12954285Y9234855D01*
X12954285Y9234855D02*
X12954285Y9334855D01*
X12954285Y9334855D02*
X12968571Y9391998D01*
X12968571Y9391998D02*
X12997143Y9420569D01*
X12997143Y9420569D02*
X13025714Y9434855D01*
X13025714Y9434855D02*
X13082857Y9434855D01*
X13082857Y9434855D02*
X13111428Y9420569D01*
X13111428Y9420569D02*
X13140000Y9391998D01*
X13140000Y9391998D02*
X13154285Y9334855D01*
X13154285Y9334855D02*
X13154285Y9234855D01*
X13154285Y9234855D02*
X13140000Y9177712D01*
X13140000Y9177712D02*
X13111428Y9149140D01*
X13111428Y9149140D02*
X13082857Y9134855D01*
X13082857Y9134855D02*
X13025714Y9134855D01*
X13254286Y9434855D02*
X13440000Y9434855D01*
X13440000Y9434855D02*
X13340000Y9320569D01*
X13340000Y9320569D02*
X13382857Y9320569D01*
X13382857Y9320569D02*
X13411429Y9306283D01*
X13411429Y9306283D02*
X13425714Y9291998D01*
X13425714Y9291998D02*
X13440000Y9263426D01*
X13440000Y9263426D02*
X13440000Y9191998D01*
X13440000Y9191998D02*
X13425714Y9163426D01*
X13425714Y9163426D02*
X13411429Y9149140D01*
X13411429Y9149140D02*
X13382857Y9134855D01*
X13382857Y9134855D02*
X13297143Y9134855D01*
X13297143Y9134855D02*
X13268571Y9149140D01*
X13268571Y9149140D02*
X13254286Y9163426D01*
X13554285Y9406283D02*
X13568571Y9420569D01*
X13568571Y9420569D02*
X13597143Y9434855D01*
X13597143Y9434855D02*
X13668571Y9434855D01*
X13668571Y9434855D02*
X13697143Y9420569D01*
X13697143Y9420569D02*
X13711428Y9406283D01*
X13711428Y9406283D02*
X13725714Y9377712D01*
X13725714Y9377712D02*
X13725714Y9349140D01*
X13725714Y9349140D02*
X13711428Y9306283D01*
X13711428Y9306283D02*
X13540000Y9134855D01*
X13540000Y9134855D02*
X13725714Y9134855D01*
X13939999Y9434855D02*
X13939999Y9220569D01*
X13939999Y9220569D02*
X13925714Y9177712D01*
X13925714Y9177712D02*
X13897142Y9149140D01*
X13897142Y9149140D02*
X13854285Y9134855D01*
X13854285Y9134855D02*
X13825714Y9134855D01*
X14039999Y9434855D02*
X14139999Y9134855D01*
X14139999Y9134855D02*
X14239999Y9434855D01*
X14325713Y9149140D02*
X14368571Y9134855D01*
X14368571Y9134855D02*
X14439999Y9134855D01*
X14439999Y9134855D02*
X14468571Y9149140D01*
X14468571Y9149140D02*
X14482856Y9163426D01*
X14482856Y9163426D02*
X14497142Y9191998D01*
X14497142Y9191998D02*
X14497142Y9220569D01*
X14497142Y9220569D02*
X14482856Y9249140D01*
X14482856Y9249140D02*
X14468571Y9263426D01*
X14468571Y9263426D02*
X14439999Y9277712D01*
X14439999Y9277712D02*
X14382856Y9291998D01*
X14382856Y9291998D02*
X14354285Y9306283D01*
X14354285Y9306283D02*
X14339999Y9320569D01*
X14339999Y9320569D02*
X14325713Y9349140D01*
X14325713Y9349140D02*
X14325713Y9377712D01*
X14325713Y9377712D02*
X14339999Y9406283D01*
X14339999Y9406283D02*
X14354285Y9420569D01*
X14354285Y9420569D02*
X14382856Y9434855D01*
X14382856Y9434855D02*
X14454285Y9434855D01*
X14454285Y9434855D02*
X14497142Y9420569D01*
X14611427Y9149140D02*
X14654285Y9134855D01*
X14654285Y9134855D02*
X14725713Y9134855D01*
X14725713Y9134855D02*
X14754285Y9149140D01*
X14754285Y9149140D02*
X14768570Y9163426D01*
X14768570Y9163426D02*
X14782856Y9191998D01*
X14782856Y9191998D02*
X14782856Y9220569D01*
X14782856Y9220569D02*
X14768570Y9249140D01*
X14768570Y9249140D02*
X14754285Y9263426D01*
X14754285Y9263426D02*
X14725713Y9277712D01*
X14725713Y9277712D02*
X14668570Y9291998D01*
X14668570Y9291998D02*
X14639999Y9306283D01*
X14639999Y9306283D02*
X14625713Y9320569D01*
X14625713Y9320569D02*
X14611427Y9349140D01*
X14611427Y9349140D02*
X14611427Y9377712D01*
X14611427Y9377712D02*
X14625713Y9406283D01*
X14625713Y9406283D02*
X14639999Y9420569D01*
X14639999Y9420569D02*
X14668570Y9434855D01*
X14668570Y9434855D02*
X14739999Y9434855D01*
X14739999Y9434855D02*
X14782856Y9420569D01*
X14911427Y9134855D02*
X14911427Y9434855D01*
X15254284Y9106283D02*
X15225713Y9120569D01*
X15225713Y9120569D02*
X15197141Y9149140D01*
X15197141Y9149140D02*
X15154284Y9191998D01*
X15154284Y9191998D02*
X15125713Y9206283D01*
X15125713Y9206283D02*
X15097141Y9206283D01*
X15111427Y9134855D02*
X15082856Y9149140D01*
X15082856Y9149140D02*
X15054284Y9177712D01*
X15054284Y9177712D02*
X15039998Y9234855D01*
X15039998Y9234855D02*
X15039998Y9334855D01*
X15039998Y9334855D02*
X15054284Y9391998D01*
X15054284Y9391998D02*
X15082856Y9420569D01*
X15082856Y9420569D02*
X15111427Y9434855D01*
X15111427Y9434855D02*
X15168570Y9434855D01*
X15168570Y9434855D02*
X15197141Y9420569D01*
X15197141Y9420569D02*
X15225713Y9391998D01*
X15225713Y9391998D02*
X15239998Y9334855D01*
X15239998Y9334855D02*
X15239998Y9234855D01*
X15239998Y9234855D02*
X15225713Y9177712D01*
X15225713Y9177712D02*
X15197141Y9149140D01*
X15197141Y9149140D02*
X15168570Y9134855D01*
X15168570Y9134855D02*
X15111427Y9134855D01*
X13411428Y10004855D02*
X13411428Y9761998D01*
X13411428Y9761998D02*
X13425714Y9733426D01*
X13425714Y9733426D02*
X13440000Y9719140D01*
X13440000Y9719140D02*
X13468571Y9704855D01*
X13468571Y9704855D02*
X13525714Y9704855D01*
X13525714Y9704855D02*
X13554285Y9719140D01*
X13554285Y9719140D02*
X13568571Y9733426D01*
X13568571Y9733426D02*
X13582857Y9761998D01*
X13582857Y9761998D02*
X13582857Y10004855D01*
X13882857Y9704855D02*
X13711428Y9704855D01*
X13797143Y9704855D02*
X13797143Y10004855D01*
X13797143Y10004855D02*
X13768571Y9961998D01*
X13768571Y9961998D02*
X13740000Y9933426D01*
X13740000Y9933426D02*
X13711428Y9919140D01*
X21846428Y10594855D02*
X21674999Y10594855D01*
X21760714Y10594855D02*
X21760714Y10894855D01*
X21760714Y10894855D02*
X21732142Y10851998D01*
X21732142Y10851998D02*
X21703571Y10823426D01*
X21703571Y10823426D02*
X21674999Y10809140D01*
X22103571Y10794855D02*
X22103571Y10594855D01*
X21974999Y10794855D02*
X21974999Y10637712D01*
X21974999Y10637712D02*
X21989285Y10609140D01*
X21989285Y10609140D02*
X22017856Y10594855D01*
X22017856Y10594855D02*
X22060713Y10594855D01*
X22060713Y10594855D02*
X22089285Y10609140D01*
X22089285Y10609140D02*
X22103571Y10623426D01*
X22346428Y10751998D02*
X22246428Y10751998D01*
X22246428Y10594855D02*
X22246428Y10894855D01*
X22246428Y10894855D02*
X22389285Y10894855D01*
X20910609Y10598712D02*
X20896323Y10584426D01*
X20896323Y10584426D02*
X20853466Y10570141D01*
X20853466Y10570141D02*
X20824894Y10570141D01*
X20824894Y10570141D02*
X20782037Y10584426D01*
X20782037Y10584426D02*
X20753466Y10612998D01*
X20753466Y10612998D02*
X20739180Y10641569D01*
X20739180Y10641569D02*
X20724894Y10698712D01*
X20724894Y10698712D02*
X20724894Y10741569D01*
X20724894Y10741569D02*
X20739180Y10798712D01*
X20739180Y10798712D02*
X20753466Y10827284D01*
X20753466Y10827284D02*
X20782037Y10855855D01*
X20782037Y10855855D02*
X20824894Y10870141D01*
X20824894Y10870141D02*
X20853466Y10870141D01*
X20853466Y10870141D02*
X20896323Y10855855D01*
X20896323Y10855855D02*
X20910609Y10841569D01*
X21182037Y10870141D02*
X21039180Y10870141D01*
X21039180Y10870141D02*
X21024894Y10727284D01*
X21024894Y10727284D02*
X21039180Y10741569D01*
X21039180Y10741569D02*
X21067752Y10755855D01*
X21067752Y10755855D02*
X21139180Y10755855D01*
X21139180Y10755855D02*
X21167752Y10741569D01*
X21167752Y10741569D02*
X21182037Y10727284D01*
X21182037Y10727284D02*
X21196323Y10698712D01*
X21196323Y10698712D02*
X21196323Y10627284D01*
X21196323Y10627284D02*
X21182037Y10598712D01*
X21182037Y10598712D02*
X21167752Y10584426D01*
X21167752Y10584426D02*
X21139180Y10570141D01*
X21139180Y10570141D02*
X21067752Y10570141D01*
X21067752Y10570141D02*
X21039180Y10584426D01*
X21039180Y10584426D02*
X21024894Y10598712D01*
X18345145Y9794286D02*
X18045145Y9794286D01*
X18045145Y9794286D02*
X18045145Y9865715D01*
X18045145Y9865715D02*
X18059431Y9908572D01*
X18059431Y9908572D02*
X18088002Y9937143D01*
X18088002Y9937143D02*
X18116574Y9951429D01*
X18116574Y9951429D02*
X18173717Y9965715D01*
X18173717Y9965715D02*
X18216574Y9965715D01*
X18216574Y9965715D02*
X18273717Y9951429D01*
X18273717Y9951429D02*
X18302288Y9937143D01*
X18302288Y9937143D02*
X18330860Y9908572D01*
X18330860Y9908572D02*
X18345145Y9865715D01*
X18345145Y9865715D02*
X18345145Y9794286D01*
X18345145Y10094286D02*
X18045145Y10094286D01*
X18045145Y10094286D02*
X18345145Y10265715D01*
X18345145Y10265715D02*
X18045145Y10265715D01*
X18345145Y10408572D02*
X18045145Y10408572D01*
X18045145Y10408572D02*
X18045145Y10522858D01*
X18045145Y10522858D02*
X18059431Y10551429D01*
X18059431Y10551429D02*
X18073717Y10565715D01*
X18073717Y10565715D02*
X18102288Y10580001D01*
X18102288Y10580001D02*
X18145145Y10580001D01*
X18145145Y10580001D02*
X18173717Y10565715D01*
X18173717Y10565715D02*
X18188002Y10551429D01*
X18188002Y10551429D02*
X18202288Y10522858D01*
X18202288Y10522858D02*
X18202288Y10408572D01*
X18965145Y10130001D02*
X18822288Y10030001D01*
X18965145Y9958572D02*
X18665145Y9958572D01*
X18665145Y9958572D02*
X18665145Y10072858D01*
X18665145Y10072858D02*
X18679431Y10101429D01*
X18679431Y10101429D02*
X18693717Y10115715D01*
X18693717Y10115715D02*
X18722288Y10130001D01*
X18722288Y10130001D02*
X18765145Y10130001D01*
X18765145Y10130001D02*
X18793717Y10115715D01*
X18793717Y10115715D02*
X18808002Y10101429D01*
X18808002Y10101429D02*
X18822288Y10072858D01*
X18822288Y10072858D02*
X18822288Y9958572D01*
X18965145Y10415715D02*
X18965145Y10244286D01*
X18965145Y10330001D02*
X18665145Y10330001D01*
X18665145Y10330001D02*
X18708002Y10301429D01*
X18708002Y10301429D02*
X18736574Y10272858D01*
X18736574Y10272858D02*
X18750860Y10244286D01*
X21931428Y13804855D02*
X21759999Y13804855D01*
X21845714Y13804855D02*
X21845714Y14104855D01*
X21845714Y14104855D02*
X21817142Y14061998D01*
X21817142Y14061998D02*
X21788571Y14033426D01*
X21788571Y14033426D02*
X21759999Y14019140D01*
X22188571Y14004855D02*
X22188571Y13804855D01*
X22059999Y14004855D02*
X22059999Y13847712D01*
X22059999Y13847712D02*
X22074285Y13819140D01*
X22074285Y13819140D02*
X22102856Y13804855D01*
X22102856Y13804855D02*
X22145713Y13804855D01*
X22145713Y13804855D02*
X22174285Y13819140D01*
X22174285Y13819140D02*
X22188571Y13833426D01*
X22431428Y13961998D02*
X22331428Y13961998D01*
X22331428Y13804855D02*
X22331428Y14104855D01*
X22331428Y14104855D02*
X22474285Y14104855D01*
X21009694Y13807042D02*
X20995408Y13792756D01*
X20995408Y13792756D02*
X20952551Y13778471D01*
X20952551Y13778471D02*
X20923979Y13778471D01*
X20923979Y13778471D02*
X20881122Y13792756D01*
X20881122Y13792756D02*
X20852551Y13821328D01*
X20852551Y13821328D02*
X20838265Y13849899D01*
X20838265Y13849899D02*
X20823979Y13907042D01*
X20823979Y13907042D02*
X20823979Y13949899D01*
X20823979Y13949899D02*
X20838265Y14007042D01*
X20838265Y14007042D02*
X20852551Y14035614D01*
X20852551Y14035614D02*
X20881122Y14064185D01*
X20881122Y14064185D02*
X20923979Y14078471D01*
X20923979Y14078471D02*
X20952551Y14078471D01*
X20952551Y14078471D02*
X20995408Y14064185D01*
X20995408Y14064185D02*
X21009694Y14049899D01*
X21266837Y13978471D02*
X21266837Y13778471D01*
X21195408Y14092756D02*
X21123979Y13878471D01*
X21123979Y13878471D02*
X21309694Y13878471D01*
X7595145Y6517144D02*
X7595145Y6545715D01*
X7595145Y6545715D02*
X7609431Y6574287D01*
X7609431Y6574287D02*
X7623717Y6588572D01*
X7623717Y6588572D02*
X7652288Y6602858D01*
X7652288Y6602858D02*
X7709431Y6617144D01*
X7709431Y6617144D02*
X7780860Y6617144D01*
X7780860Y6617144D02*
X7838002Y6602858D01*
X7838002Y6602858D02*
X7866574Y6588572D01*
X7866574Y6588572D02*
X7880860Y6574287D01*
X7880860Y6574287D02*
X7895145Y6545715D01*
X7895145Y6545715D02*
X7895145Y6517144D01*
X7895145Y6517144D02*
X7880860Y6488572D01*
X7880860Y6488572D02*
X7866574Y6474287D01*
X7866574Y6474287D02*
X7838002Y6460001D01*
X7838002Y6460001D02*
X7780860Y6445715D01*
X7780860Y6445715D02*
X7709431Y6445715D01*
X7709431Y6445715D02*
X7652288Y6460001D01*
X7652288Y6460001D02*
X7623717Y6474287D01*
X7623717Y6474287D02*
X7609431Y6488572D01*
X7609431Y6488572D02*
X7595145Y6517144D01*
X7866574Y6745715D02*
X7880860Y6760001D01*
X7880860Y6760001D02*
X7895145Y6745715D01*
X7895145Y6745715D02*
X7880860Y6731429D01*
X7880860Y6731429D02*
X7866574Y6745715D01*
X7866574Y6745715D02*
X7895145Y6745715D01*
X7895145Y7045715D02*
X7895145Y6874286D01*
X7895145Y6960001D02*
X7595145Y6960001D01*
X7595145Y6960001D02*
X7638002Y6931429D01*
X7638002Y6931429D02*
X7666574Y6902858D01*
X7666574Y6902858D02*
X7680860Y6874286D01*
X7695145Y7302857D02*
X7895145Y7302857D01*
X7695145Y7174286D02*
X7852288Y7174286D01*
X7852288Y7174286D02*
X7880860Y7188572D01*
X7880860Y7188572D02*
X7895145Y7217143D01*
X7895145Y7217143D02*
X7895145Y7260000D01*
X7895145Y7260000D02*
X7880860Y7288572D01*
X7880860Y7288572D02*
X7866574Y7302857D01*
X7738002Y7545715D02*
X7738002Y7445715D01*
X7895145Y7445715D02*
X7595145Y7445715D01*
X7595145Y7445715D02*
X7595145Y7588572D01*
X8418544Y6840650D02*
X8432830Y6826364D01*
X8432830Y6826364D02*
X8447115Y6783507D01*
X8447115Y6783507D02*
X8447115Y6754935D01*
X8447115Y6754935D02*
X8432830Y6712078D01*
X8432830Y6712078D02*
X8404258Y6683507D01*
X8404258Y6683507D02*
X8375687Y6669221D01*
X8375687Y6669221D02*
X8318544Y6654935D01*
X8318544Y6654935D02*
X8275687Y6654935D01*
X8275687Y6654935D02*
X8218544Y6669221D01*
X8218544Y6669221D02*
X8189972Y6683507D01*
X8189972Y6683507D02*
X8161401Y6712078D01*
X8161401Y6712078D02*
X8147115Y6754935D01*
X8147115Y6754935D02*
X8147115Y6783507D01*
X8147115Y6783507D02*
X8161401Y6826364D01*
X8161401Y6826364D02*
X8175687Y6840650D01*
X8447115Y7126364D02*
X8447115Y6954935D01*
X8447115Y7040650D02*
X8147115Y7040650D01*
X8147115Y7040650D02*
X8189972Y7012078D01*
X8189972Y7012078D02*
X8218544Y6983507D01*
X8218544Y6983507D02*
X8232830Y6954935D01*
X48982857Y9719140D02*
X49025715Y9704855D01*
X49025715Y9704855D02*
X49097143Y9704855D01*
X49097143Y9704855D02*
X49125715Y9719140D01*
X49125715Y9719140D02*
X49140000Y9733426D01*
X49140000Y9733426D02*
X49154286Y9761998D01*
X49154286Y9761998D02*
X49154286Y9790569D01*
X49154286Y9790569D02*
X49140000Y9819140D01*
X49140000Y9819140D02*
X49125715Y9833426D01*
X49125715Y9833426D02*
X49097143Y9847712D01*
X49097143Y9847712D02*
X49040000Y9861998D01*
X49040000Y9861998D02*
X49011429Y9876283D01*
X49011429Y9876283D02*
X48997143Y9890569D01*
X48997143Y9890569D02*
X48982857Y9919140D01*
X48982857Y9919140D02*
X48982857Y9947712D01*
X48982857Y9947712D02*
X48997143Y9976283D01*
X48997143Y9976283D02*
X49011429Y9990569D01*
X49011429Y9990569D02*
X49040000Y10004855D01*
X49040000Y10004855D02*
X49111429Y10004855D01*
X49111429Y10004855D02*
X49154286Y9990569D01*
X49254286Y10004855D02*
X49325714Y9704855D01*
X49325714Y9704855D02*
X49382857Y9919140D01*
X49382857Y9919140D02*
X49440000Y9704855D01*
X49440000Y9704855D02*
X49511429Y10004855D01*
X49625714Y9704855D02*
X49625714Y10004855D01*
X49625714Y10004855D02*
X49697143Y10004855D01*
X49697143Y10004855D02*
X49740000Y9990569D01*
X49740000Y9990569D02*
X49768571Y9961998D01*
X49768571Y9961998D02*
X49782857Y9933426D01*
X49782857Y9933426D02*
X49797143Y9876283D01*
X49797143Y9876283D02*
X49797143Y9833426D01*
X49797143Y9833426D02*
X49782857Y9776283D01*
X49782857Y9776283D02*
X49768571Y9747712D01*
X49768571Y9747712D02*
X49740000Y9719140D01*
X49740000Y9719140D02*
X49697143Y9704855D01*
X49697143Y9704855D02*
X49625714Y9704855D01*
X49290000Y10544855D02*
X49290000Y10330569D01*
X49290000Y10330569D02*
X49275715Y10287712D01*
X49275715Y10287712D02*
X49247143Y10259140D01*
X49247143Y10259140D02*
X49204286Y10244855D01*
X49204286Y10244855D02*
X49175715Y10244855D01*
X49575714Y10544855D02*
X49432857Y10544855D01*
X49432857Y10544855D02*
X49418571Y10401998D01*
X49418571Y10401998D02*
X49432857Y10416283D01*
X49432857Y10416283D02*
X49461429Y10430569D01*
X49461429Y10430569D02*
X49532857Y10430569D01*
X49532857Y10430569D02*
X49561429Y10416283D01*
X49561429Y10416283D02*
X49575714Y10401998D01*
X49575714Y10401998D02*
X49590000Y10373426D01*
X49590000Y10373426D02*
X49590000Y10301998D01*
X49590000Y10301998D02*
X49575714Y10273426D01*
X49575714Y10273426D02*
X49561429Y10259140D01*
X49561429Y10259140D02*
X49532857Y10244855D01*
X49532857Y10244855D02*
X49461429Y10244855D01*
X49461429Y10244855D02*
X49432857Y10259140D01*
X49432857Y10259140D02*
X49418571Y10273426D01*
X11585714Y18234855D02*
X11614285Y18234855D01*
X11614285Y18234855D02*
X11642857Y18220569D01*
X11642857Y18220569D02*
X11657143Y18206283D01*
X11657143Y18206283D02*
X11671428Y18177712D01*
X11671428Y18177712D02*
X11685714Y18120569D01*
X11685714Y18120569D02*
X11685714Y18049140D01*
X11685714Y18049140D02*
X11671428Y17991998D01*
X11671428Y17991998D02*
X11657143Y17963426D01*
X11657143Y17963426D02*
X11642857Y17949140D01*
X11642857Y17949140D02*
X11614285Y17934855D01*
X11614285Y17934855D02*
X11585714Y17934855D01*
X11585714Y17934855D02*
X11557143Y17949140D01*
X11557143Y17949140D02*
X11542857Y17963426D01*
X11542857Y17963426D02*
X11528571Y17991998D01*
X11528571Y17991998D02*
X11514285Y18049140D01*
X11514285Y18049140D02*
X11514285Y18120569D01*
X11514285Y18120569D02*
X11528571Y18177712D01*
X11528571Y18177712D02*
X11542857Y18206283D01*
X11542857Y18206283D02*
X11557143Y18220569D01*
X11557143Y18220569D02*
X11585714Y18234855D01*
X11985714Y17934855D02*
X11885714Y18077712D01*
X11814285Y17934855D02*
X11814285Y18234855D01*
X11814285Y18234855D02*
X11928571Y18234855D01*
X11928571Y18234855D02*
X11957142Y18220569D01*
X11957142Y18220569D02*
X11971428Y18206283D01*
X11971428Y18206283D02*
X11985714Y18177712D01*
X11985714Y18177712D02*
X11985714Y18134855D01*
X11985714Y18134855D02*
X11971428Y18106283D01*
X11971428Y18106283D02*
X11957142Y18091998D01*
X11957142Y18091998D02*
X11928571Y18077712D01*
X11928571Y18077712D02*
X11814285Y18077712D01*
X11500861Y17648235D02*
X11500861Y17433949D01*
X11500861Y17433949D02*
X11486576Y17391092D01*
X11486576Y17391092D02*
X11458004Y17362520D01*
X11458004Y17362520D02*
X11415147Y17348235D01*
X11415147Y17348235D02*
X11386576Y17348235D01*
X11643718Y17348235D02*
X11643718Y17648235D01*
X11643718Y17648235D02*
X11758004Y17648235D01*
X11758004Y17648235D02*
X11786575Y17633949D01*
X11786575Y17633949D02*
X11800861Y17619663D01*
X11800861Y17619663D02*
X11815147Y17591092D01*
X11815147Y17591092D02*
X11815147Y17548235D01*
X11815147Y17548235D02*
X11800861Y17519663D01*
X11800861Y17519663D02*
X11786575Y17505378D01*
X11786575Y17505378D02*
X11758004Y17491092D01*
X11758004Y17491092D02*
X11643718Y17491092D01*
X12100861Y17348235D02*
X11929432Y17348235D01*
X12015147Y17348235D02*
X12015147Y17648235D01*
X12015147Y17648235D02*
X11986575Y17605378D01*
X11986575Y17605378D02*
X11958004Y17576806D01*
X11958004Y17576806D02*
X11929432Y17562520D01*
X17602857Y17744855D02*
X17431428Y17744855D01*
X17517143Y17744855D02*
X17517143Y18044855D01*
X17517143Y18044855D02*
X17488571Y18001998D01*
X17488571Y18001998D02*
X17460000Y17973426D01*
X17460000Y17973426D02*
X17431428Y17959140D01*
X17788571Y18044855D02*
X17817142Y18044855D01*
X17817142Y18044855D02*
X17845714Y18030569D01*
X17845714Y18030569D02*
X17860000Y18016283D01*
X17860000Y18016283D02*
X17874285Y17987712D01*
X17874285Y17987712D02*
X17888571Y17930569D01*
X17888571Y17930569D02*
X17888571Y17859140D01*
X17888571Y17859140D02*
X17874285Y17801998D01*
X17874285Y17801998D02*
X17860000Y17773426D01*
X17860000Y17773426D02*
X17845714Y17759140D01*
X17845714Y17759140D02*
X17817142Y17744855D01*
X17817142Y17744855D02*
X17788571Y17744855D01*
X17788571Y17744855D02*
X17760000Y17759140D01*
X17760000Y17759140D02*
X17745714Y17773426D01*
X17745714Y17773426D02*
X17731428Y17801998D01*
X17731428Y17801998D02*
X17717142Y17859140D01*
X17717142Y17859140D02*
X17717142Y17930569D01*
X17717142Y17930569D02*
X17731428Y17987712D01*
X17731428Y17987712D02*
X17745714Y18016283D01*
X17745714Y18016283D02*
X17760000Y18030569D01*
X17760000Y18030569D02*
X17788571Y18044855D01*
X18017142Y17744855D02*
X18017142Y18044855D01*
X18188571Y17744855D02*
X18059999Y17916283D01*
X18188571Y18044855D02*
X18017142Y17873426D01*
X17763403Y17146206D02*
X17663403Y17289063D01*
X17591974Y17146206D02*
X17591974Y17446206D01*
X17591974Y17446206D02*
X17706260Y17446206D01*
X17706260Y17446206D02*
X17734831Y17431920D01*
X17734831Y17431920D02*
X17749117Y17417634D01*
X17749117Y17417634D02*
X17763403Y17389063D01*
X17763403Y17389063D02*
X17763403Y17346206D01*
X17763403Y17346206D02*
X17749117Y17317634D01*
X17749117Y17317634D02*
X17734831Y17303349D01*
X17734831Y17303349D02*
X17706260Y17289063D01*
X17706260Y17289063D02*
X17591974Y17289063D01*
X17906260Y17146206D02*
X17963403Y17146206D01*
X17963403Y17146206D02*
X17991974Y17160491D01*
X17991974Y17160491D02*
X18006260Y17174777D01*
X18006260Y17174777D02*
X18034831Y17217634D01*
X18034831Y17217634D02*
X18049117Y17274777D01*
X18049117Y17274777D02*
X18049117Y17389063D01*
X18049117Y17389063D02*
X18034831Y17417634D01*
X18034831Y17417634D02*
X18020546Y17431920D01*
X18020546Y17431920D02*
X17991974Y17446206D01*
X17991974Y17446206D02*
X17934831Y17446206D01*
X17934831Y17446206D02*
X17906260Y17431920D01*
X17906260Y17431920D02*
X17891974Y17417634D01*
X17891974Y17417634D02*
X17877688Y17389063D01*
X17877688Y17389063D02*
X17877688Y17317634D01*
X17877688Y17317634D02*
X17891974Y17289063D01*
X17891974Y17289063D02*
X17906260Y17274777D01*
X17906260Y17274777D02*
X17934831Y17260491D01*
X17934831Y17260491D02*
X17991974Y17260491D01*
X17991974Y17260491D02*
X18020546Y17274777D01*
X18020546Y17274777D02*
X18034831Y17289063D01*
X18034831Y17289063D02*
X18049117Y17317634D01*
X32037143Y11754855D02*
X32065714Y11754855D01*
X32065714Y11754855D02*
X32094286Y11740569D01*
X32094286Y11740569D02*
X32108572Y11726283D01*
X32108572Y11726283D02*
X32122857Y11697712D01*
X32122857Y11697712D02*
X32137143Y11640569D01*
X32137143Y11640569D02*
X32137143Y11569140D01*
X32137143Y11569140D02*
X32122857Y11511998D01*
X32122857Y11511998D02*
X32108572Y11483426D01*
X32108572Y11483426D02*
X32094286Y11469140D01*
X32094286Y11469140D02*
X32065714Y11454855D01*
X32065714Y11454855D02*
X32037143Y11454855D01*
X32037143Y11454855D02*
X32008572Y11469140D01*
X32008572Y11469140D02*
X31994286Y11483426D01*
X31994286Y11483426D02*
X31980000Y11511998D01*
X31980000Y11511998D02*
X31965714Y11569140D01*
X31965714Y11569140D02*
X31965714Y11640569D01*
X31965714Y11640569D02*
X31980000Y11697712D01*
X31980000Y11697712D02*
X31994286Y11726283D01*
X31994286Y11726283D02*
X32008572Y11740569D01*
X32008572Y11740569D02*
X32037143Y11754855D01*
X32265714Y11483426D02*
X32280000Y11469140D01*
X32280000Y11469140D02*
X32265714Y11454855D01*
X32265714Y11454855D02*
X32251428Y11469140D01*
X32251428Y11469140D02*
X32265714Y11483426D01*
X32265714Y11483426D02*
X32265714Y11454855D01*
X32565714Y11454855D02*
X32394285Y11454855D01*
X32480000Y11454855D02*
X32480000Y11754855D01*
X32480000Y11754855D02*
X32451428Y11711998D01*
X32451428Y11711998D02*
X32422857Y11683426D01*
X32422857Y11683426D02*
X32394285Y11669140D01*
X32822857Y11654855D02*
X32822857Y11454855D01*
X32694285Y11654855D02*
X32694285Y11497712D01*
X32694285Y11497712D02*
X32708571Y11469140D01*
X32708571Y11469140D02*
X32737142Y11454855D01*
X32737142Y11454855D02*
X32779999Y11454855D01*
X32779999Y11454855D02*
X32808571Y11469140D01*
X32808571Y11469140D02*
X32822857Y11483426D01*
X33065714Y11611998D02*
X32965714Y11611998D01*
X32965714Y11454855D02*
X32965714Y11754855D01*
X32965714Y11754855D02*
X33108571Y11754855D01*
X33737324Y11510172D02*
X33723038Y11495886D01*
X33723038Y11495886D02*
X33680181Y11481601D01*
X33680181Y11481601D02*
X33651609Y11481601D01*
X33651609Y11481601D02*
X33608752Y11495886D01*
X33608752Y11495886D02*
X33580181Y11524458D01*
X33580181Y11524458D02*
X33565895Y11553029D01*
X33565895Y11553029D02*
X33551609Y11610172D01*
X33551609Y11610172D02*
X33551609Y11653029D01*
X33551609Y11653029D02*
X33565895Y11710172D01*
X33565895Y11710172D02*
X33580181Y11738744D01*
X33580181Y11738744D02*
X33608752Y11767315D01*
X33608752Y11767315D02*
X33651609Y11781601D01*
X33651609Y11781601D02*
X33680181Y11781601D01*
X33680181Y11781601D02*
X33723038Y11767315D01*
X33723038Y11767315D02*
X33737324Y11753029D01*
X33880181Y11481601D02*
X33937324Y11481601D01*
X33937324Y11481601D02*
X33965895Y11495886D01*
X33965895Y11495886D02*
X33980181Y11510172D01*
X33980181Y11510172D02*
X34008752Y11553029D01*
X34008752Y11553029D02*
X34023038Y11610172D01*
X34023038Y11610172D02*
X34023038Y11724458D01*
X34023038Y11724458D02*
X34008752Y11753029D01*
X34008752Y11753029D02*
X33994467Y11767315D01*
X33994467Y11767315D02*
X33965895Y11781601D01*
X33965895Y11781601D02*
X33908752Y11781601D01*
X33908752Y11781601D02*
X33880181Y11767315D01*
X33880181Y11767315D02*
X33865895Y11753029D01*
X33865895Y11753029D02*
X33851609Y11724458D01*
X33851609Y11724458D02*
X33851609Y11653029D01*
X33851609Y11653029D02*
X33865895Y11624458D01*
X33865895Y11624458D02*
X33880181Y11610172D01*
X33880181Y11610172D02*
X33908752Y11595886D01*
X33908752Y11595886D02*
X33965895Y11595886D01*
X33965895Y11595886D02*
X33994467Y11610172D01*
X33994467Y11610172D02*
X34008752Y11624458D01*
X34008752Y11624458D02*
X34023038Y11653029D01*
X31247143Y15654855D02*
X31275714Y15654855D01*
X31275714Y15654855D02*
X31304286Y15640569D01*
X31304286Y15640569D02*
X31318572Y15626283D01*
X31318572Y15626283D02*
X31332857Y15597712D01*
X31332857Y15597712D02*
X31347143Y15540569D01*
X31347143Y15540569D02*
X31347143Y15469140D01*
X31347143Y15469140D02*
X31332857Y15411998D01*
X31332857Y15411998D02*
X31318572Y15383426D01*
X31318572Y15383426D02*
X31304286Y15369140D01*
X31304286Y15369140D02*
X31275714Y15354855D01*
X31275714Y15354855D02*
X31247143Y15354855D01*
X31247143Y15354855D02*
X31218572Y15369140D01*
X31218572Y15369140D02*
X31204286Y15383426D01*
X31204286Y15383426D02*
X31190000Y15411998D01*
X31190000Y15411998D02*
X31175714Y15469140D01*
X31175714Y15469140D02*
X31175714Y15540569D01*
X31175714Y15540569D02*
X31190000Y15597712D01*
X31190000Y15597712D02*
X31204286Y15626283D01*
X31204286Y15626283D02*
X31218572Y15640569D01*
X31218572Y15640569D02*
X31247143Y15654855D01*
X31475714Y15383426D02*
X31490000Y15369140D01*
X31490000Y15369140D02*
X31475714Y15354855D01*
X31475714Y15354855D02*
X31461428Y15369140D01*
X31461428Y15369140D02*
X31475714Y15383426D01*
X31475714Y15383426D02*
X31475714Y15354855D01*
X31775714Y15354855D02*
X31604285Y15354855D01*
X31690000Y15354855D02*
X31690000Y15654855D01*
X31690000Y15654855D02*
X31661428Y15611998D01*
X31661428Y15611998D02*
X31632857Y15583426D01*
X31632857Y15583426D02*
X31604285Y15569140D01*
X32032857Y15554855D02*
X32032857Y15354855D01*
X31904285Y15554855D02*
X31904285Y15397712D01*
X31904285Y15397712D02*
X31918571Y15369140D01*
X31918571Y15369140D02*
X31947142Y15354855D01*
X31947142Y15354855D02*
X31989999Y15354855D01*
X31989999Y15354855D02*
X32018571Y15369140D01*
X32018571Y15369140D02*
X32032857Y15383426D01*
X32275714Y15511998D02*
X32175714Y15511998D01*
X32175714Y15354855D02*
X32175714Y15654855D01*
X32175714Y15654855D02*
X32318571Y15654855D01*
X31640000Y15993426D02*
X31625714Y15979140D01*
X31625714Y15979140D02*
X31582857Y15964855D01*
X31582857Y15964855D02*
X31554285Y15964855D01*
X31554285Y15964855D02*
X31511428Y15979140D01*
X31511428Y15979140D02*
X31482857Y16007712D01*
X31482857Y16007712D02*
X31468571Y16036283D01*
X31468571Y16036283D02*
X31454285Y16093426D01*
X31454285Y16093426D02*
X31454285Y16136283D01*
X31454285Y16136283D02*
X31468571Y16193426D01*
X31468571Y16193426D02*
X31482857Y16221998D01*
X31482857Y16221998D02*
X31511428Y16250569D01*
X31511428Y16250569D02*
X31554285Y16264855D01*
X31554285Y16264855D02*
X31582857Y16264855D01*
X31582857Y16264855D02*
X31625714Y16250569D01*
X31625714Y16250569D02*
X31640000Y16236283D01*
X31811428Y16136283D02*
X31782857Y16150569D01*
X31782857Y16150569D02*
X31768571Y16164855D01*
X31768571Y16164855D02*
X31754285Y16193426D01*
X31754285Y16193426D02*
X31754285Y16207712D01*
X31754285Y16207712D02*
X31768571Y16236283D01*
X31768571Y16236283D02*
X31782857Y16250569D01*
X31782857Y16250569D02*
X31811428Y16264855D01*
X31811428Y16264855D02*
X31868571Y16264855D01*
X31868571Y16264855D02*
X31897143Y16250569D01*
X31897143Y16250569D02*
X31911428Y16236283D01*
X31911428Y16236283D02*
X31925714Y16207712D01*
X31925714Y16207712D02*
X31925714Y16193426D01*
X31925714Y16193426D02*
X31911428Y16164855D01*
X31911428Y16164855D02*
X31897143Y16150569D01*
X31897143Y16150569D02*
X31868571Y16136283D01*
X31868571Y16136283D02*
X31811428Y16136283D01*
X31811428Y16136283D02*
X31782857Y16121998D01*
X31782857Y16121998D02*
X31768571Y16107712D01*
X31768571Y16107712D02*
X31754285Y16079140D01*
X31754285Y16079140D02*
X31754285Y16021998D01*
X31754285Y16021998D02*
X31768571Y15993426D01*
X31768571Y15993426D02*
X31782857Y15979140D01*
X31782857Y15979140D02*
X31811428Y15964855D01*
X31811428Y15964855D02*
X31868571Y15964855D01*
X31868571Y15964855D02*
X31897143Y15979140D01*
X31897143Y15979140D02*
X31911428Y15993426D01*
X31911428Y15993426D02*
X31925714Y16021998D01*
X31925714Y16021998D02*
X31925714Y16079140D01*
X31925714Y16079140D02*
X31911428Y16107712D01*
X31911428Y16107712D02*
X31897143Y16121998D01*
X31897143Y16121998D02*
X31868571Y16136283D01*
X19935145Y14568572D02*
X19935145Y14397143D01*
X19935145Y14482858D02*
X19635145Y14482858D01*
X19635145Y14482858D02*
X19678002Y14454286D01*
X19678002Y14454286D02*
X19706574Y14425715D01*
X19706574Y14425715D02*
X19720860Y14397143D01*
X19635145Y14754286D02*
X19635145Y14782857D01*
X19635145Y14782857D02*
X19649431Y14811429D01*
X19649431Y14811429D02*
X19663717Y14825714D01*
X19663717Y14825714D02*
X19692288Y14840000D01*
X19692288Y14840000D02*
X19749431Y14854286D01*
X19749431Y14854286D02*
X19820860Y14854286D01*
X19820860Y14854286D02*
X19878002Y14840000D01*
X19878002Y14840000D02*
X19906574Y14825714D01*
X19906574Y14825714D02*
X19920860Y14811429D01*
X19920860Y14811429D02*
X19935145Y14782857D01*
X19935145Y14782857D02*
X19935145Y14754286D01*
X19935145Y14754286D02*
X19920860Y14725714D01*
X19920860Y14725714D02*
X19906574Y14711429D01*
X19906574Y14711429D02*
X19878002Y14697143D01*
X19878002Y14697143D02*
X19820860Y14682857D01*
X19820860Y14682857D02*
X19749431Y14682857D01*
X19749431Y14682857D02*
X19692288Y14697143D01*
X19692288Y14697143D02*
X19663717Y14711429D01*
X19663717Y14711429D02*
X19649431Y14725714D01*
X19649431Y14725714D02*
X19635145Y14754286D01*
X19735145Y15111428D02*
X19935145Y15111428D01*
X19735145Y14982857D02*
X19892288Y14982857D01*
X19892288Y14982857D02*
X19920860Y14997143D01*
X19920860Y14997143D02*
X19935145Y15025714D01*
X19935145Y15025714D02*
X19935145Y15068571D01*
X19935145Y15068571D02*
X19920860Y15097143D01*
X19920860Y15097143D02*
X19906574Y15111428D01*
X19778002Y15354286D02*
X19778002Y15254286D01*
X19935145Y15254286D02*
X19635145Y15254286D01*
X19635145Y15254286D02*
X19635145Y15397143D01*
X19186574Y14597144D02*
X19200860Y14582858D01*
X19200860Y14582858D02*
X19215145Y14540001D01*
X19215145Y14540001D02*
X19215145Y14511429D01*
X19215145Y14511429D02*
X19200860Y14468572D01*
X19200860Y14468572D02*
X19172288Y14440001D01*
X19172288Y14440001D02*
X19143717Y14425715D01*
X19143717Y14425715D02*
X19086574Y14411429D01*
X19086574Y14411429D02*
X19043717Y14411429D01*
X19043717Y14411429D02*
X18986574Y14425715D01*
X18986574Y14425715D02*
X18958002Y14440001D01*
X18958002Y14440001D02*
X18929431Y14468572D01*
X18929431Y14468572D02*
X18915145Y14511429D01*
X18915145Y14511429D02*
X18915145Y14540001D01*
X18915145Y14540001D02*
X18929431Y14582858D01*
X18929431Y14582858D02*
X18943717Y14597144D01*
X19215145Y14882858D02*
X19215145Y14711429D01*
X19215145Y14797144D02*
X18915145Y14797144D01*
X18915145Y14797144D02*
X18958002Y14768572D01*
X18958002Y14768572D02*
X18986574Y14740001D01*
X18986574Y14740001D02*
X19000860Y14711429D01*
X18915145Y15154286D02*
X18915145Y15011429D01*
X18915145Y15011429D02*
X19058002Y14997143D01*
X19058002Y14997143D02*
X19043717Y15011429D01*
X19043717Y15011429D02*
X19029431Y15040000D01*
X19029431Y15040000D02*
X19029431Y15111429D01*
X19029431Y15111429D02*
X19043717Y15140000D01*
X19043717Y15140000D02*
X19058002Y15154286D01*
X19058002Y15154286D02*
X19086574Y15168572D01*
X19086574Y15168572D02*
X19158002Y15168572D01*
X19158002Y15168572D02*
X19186574Y15154286D01*
X19186574Y15154286D02*
X19200860Y15140000D01*
X19200860Y15140000D02*
X19215145Y15111429D01*
X19215145Y15111429D02*
X19215145Y15040000D01*
X19215145Y15040000D02*
X19200860Y15011429D01*
X19200860Y15011429D02*
X19186574Y14997143D01*
X48154284Y3574855D02*
X48154284Y3874855D01*
X48154284Y3874855D02*
X48254284Y3660569D01*
X48254284Y3660569D02*
X48354284Y3874855D01*
X48354284Y3874855D02*
X48354284Y3574855D01*
X48539998Y3574855D02*
X48511427Y3589140D01*
X48511427Y3589140D02*
X48497141Y3603426D01*
X48497141Y3603426D02*
X48482855Y3631998D01*
X48482855Y3631998D02*
X48482855Y3717712D01*
X48482855Y3717712D02*
X48497141Y3746283D01*
X48497141Y3746283D02*
X48511427Y3760569D01*
X48511427Y3760569D02*
X48539998Y3774855D01*
X48539998Y3774855D02*
X48582855Y3774855D01*
X48582855Y3774855D02*
X48611427Y3760569D01*
X48611427Y3760569D02*
X48625713Y3746283D01*
X48625713Y3746283D02*
X48639998Y3717712D01*
X48639998Y3717712D02*
X48639998Y3631998D01*
X48639998Y3631998D02*
X48625713Y3603426D01*
X48625713Y3603426D02*
X48611427Y3589140D01*
X48611427Y3589140D02*
X48582855Y3574855D01*
X48582855Y3574855D02*
X48539998Y3574855D01*
X48897142Y3774855D02*
X48897142Y3574855D01*
X48768570Y3774855D02*
X48768570Y3617712D01*
X48768570Y3617712D02*
X48782856Y3589140D01*
X48782856Y3589140D02*
X48811427Y3574855D01*
X48811427Y3574855D02*
X48854284Y3574855D01*
X48854284Y3574855D02*
X48882856Y3589140D01*
X48882856Y3589140D02*
X48897142Y3603426D01*
X49039999Y3774855D02*
X49039999Y3574855D01*
X49039999Y3746283D02*
X49054285Y3760569D01*
X49054285Y3760569D02*
X49082856Y3774855D01*
X49082856Y3774855D02*
X49125713Y3774855D01*
X49125713Y3774855D02*
X49154285Y3760569D01*
X49154285Y3760569D02*
X49168571Y3731998D01*
X49168571Y3731998D02*
X49168571Y3574855D01*
X49268571Y3774855D02*
X49382857Y3774855D01*
X49311428Y3874855D02*
X49311428Y3617712D01*
X49311428Y3617712D02*
X49325714Y3589140D01*
X49325714Y3589140D02*
X49354285Y3574855D01*
X49354285Y3574855D02*
X49382857Y3574855D01*
X49482857Y3574855D02*
X49482857Y3774855D01*
X49482857Y3874855D02*
X49468571Y3860569D01*
X49468571Y3860569D02*
X49482857Y3846283D01*
X49482857Y3846283D02*
X49497143Y3860569D01*
X49497143Y3860569D02*
X49482857Y3874855D01*
X49482857Y3874855D02*
X49482857Y3846283D01*
X49625714Y3774855D02*
X49625714Y3574855D01*
X49625714Y3746283D02*
X49640000Y3760569D01*
X49640000Y3760569D02*
X49668571Y3774855D01*
X49668571Y3774855D02*
X49711428Y3774855D01*
X49711428Y3774855D02*
X49740000Y3760569D01*
X49740000Y3760569D02*
X49754286Y3731998D01*
X49754286Y3731998D02*
X49754286Y3574855D01*
X50025715Y3774855D02*
X50025715Y3531998D01*
X50025715Y3531998D02*
X50011429Y3503426D01*
X50011429Y3503426D02*
X49997143Y3489140D01*
X49997143Y3489140D02*
X49968572Y3474855D01*
X49968572Y3474855D02*
X49925715Y3474855D01*
X49925715Y3474855D02*
X49897143Y3489140D01*
X50025715Y3589140D02*
X49997143Y3574855D01*
X49997143Y3574855D02*
X49940000Y3574855D01*
X49940000Y3574855D02*
X49911429Y3589140D01*
X49911429Y3589140D02*
X49897143Y3603426D01*
X49897143Y3603426D02*
X49882857Y3631998D01*
X49882857Y3631998D02*
X49882857Y3717712D01*
X49882857Y3717712D02*
X49897143Y3746283D01*
X49897143Y3746283D02*
X49911429Y3760569D01*
X49911429Y3760569D02*
X49940000Y3774855D01*
X49940000Y3774855D02*
X49997143Y3774855D01*
X49997143Y3774855D02*
X50025715Y3760569D01*
X50168572Y3574855D02*
X50168572Y3874855D01*
X50168572Y3731998D02*
X50340001Y3731998D01*
X50340001Y3574855D02*
X50340001Y3874855D01*
X50525715Y3574855D02*
X50497144Y3589140D01*
X50497144Y3589140D02*
X50482858Y3603426D01*
X50482858Y3603426D02*
X50468572Y3631998D01*
X50468572Y3631998D02*
X50468572Y3717712D01*
X50468572Y3717712D02*
X50482858Y3746283D01*
X50482858Y3746283D02*
X50497144Y3760569D01*
X50497144Y3760569D02*
X50525715Y3774855D01*
X50525715Y3774855D02*
X50568572Y3774855D01*
X50568572Y3774855D02*
X50597144Y3760569D01*
X50597144Y3760569D02*
X50611430Y3746283D01*
X50611430Y3746283D02*
X50625715Y3717712D01*
X50625715Y3717712D02*
X50625715Y3631998D01*
X50625715Y3631998D02*
X50611430Y3603426D01*
X50611430Y3603426D02*
X50597144Y3589140D01*
X50597144Y3589140D02*
X50568572Y3574855D01*
X50568572Y3574855D02*
X50525715Y3574855D01*
X50797144Y3574855D02*
X50768573Y3589140D01*
X50768573Y3589140D02*
X50754287Y3617712D01*
X50754287Y3617712D02*
X50754287Y3874855D01*
X51025716Y3589140D02*
X50997144Y3574855D01*
X50997144Y3574855D02*
X50940002Y3574855D01*
X50940002Y3574855D02*
X50911430Y3589140D01*
X50911430Y3589140D02*
X50897144Y3617712D01*
X50897144Y3617712D02*
X50897144Y3731998D01*
X50897144Y3731998D02*
X50911430Y3760569D01*
X50911430Y3760569D02*
X50940002Y3774855D01*
X50940002Y3774855D02*
X50997144Y3774855D01*
X50997144Y3774855D02*
X51025716Y3760569D01*
X51025716Y3760569D02*
X51040002Y3731998D01*
X51040002Y3731998D02*
X51040002Y3703426D01*
X51040002Y3703426D02*
X50897144Y3674855D01*
X49311428Y4044855D02*
X49311428Y4344855D01*
X49311428Y4201998D02*
X49482857Y4201998D01*
X49482857Y4044855D02*
X49482857Y4344855D01*
X49611428Y4316283D02*
X49625714Y4330569D01*
X49625714Y4330569D02*
X49654286Y4344855D01*
X49654286Y4344855D02*
X49725714Y4344855D01*
X49725714Y4344855D02*
X49754286Y4330569D01*
X49754286Y4330569D02*
X49768571Y4316283D01*
X49768571Y4316283D02*
X49782857Y4287712D01*
X49782857Y4287712D02*
X49782857Y4259140D01*
X49782857Y4259140D02*
X49768571Y4216283D01*
X49768571Y4216283D02*
X49597143Y4044855D01*
X49597143Y4044855D02*
X49782857Y4044855D01*
X22013002Y4625715D02*
X22027288Y4668572D01*
X22027288Y4668572D02*
X22041574Y4682858D01*
X22041574Y4682858D02*
X22070145Y4697144D01*
X22070145Y4697144D02*
X22113002Y4697144D01*
X22113002Y4697144D02*
X22141574Y4682858D01*
X22141574Y4682858D02*
X22155860Y4668572D01*
X22155860Y4668572D02*
X22170145Y4640001D01*
X22170145Y4640001D02*
X22170145Y4525715D01*
X22170145Y4525715D02*
X21870145Y4525715D01*
X21870145Y4525715D02*
X21870145Y4625715D01*
X21870145Y4625715D02*
X21884431Y4654286D01*
X21884431Y4654286D02*
X21898717Y4668572D01*
X21898717Y4668572D02*
X21927288Y4682858D01*
X21927288Y4682858D02*
X21955860Y4682858D01*
X21955860Y4682858D02*
X21984431Y4668572D01*
X21984431Y4668572D02*
X21998717Y4654286D01*
X21998717Y4654286D02*
X22013002Y4625715D01*
X22013002Y4625715D02*
X22013002Y4525715D01*
X21870145Y4782858D02*
X21870145Y4954286D01*
X22170145Y4868572D02*
X21870145Y4868572D01*
X22170145Y5054286D02*
X21870145Y5054286D01*
X21870145Y5054286D02*
X22170145Y5225715D01*
X22170145Y5225715D02*
X21870145Y5225715D01*
X22198717Y5297143D02*
X22198717Y5525715D01*
X22155860Y5582857D02*
X22170145Y5625714D01*
X22170145Y5625714D02*
X22170145Y5697143D01*
X22170145Y5697143D02*
X22155860Y5725714D01*
X22155860Y5725714D02*
X22141574Y5740000D01*
X22141574Y5740000D02*
X22113002Y5754286D01*
X22113002Y5754286D02*
X22084431Y5754286D01*
X22084431Y5754286D02*
X22055860Y5740000D01*
X22055860Y5740000D02*
X22041574Y5725714D01*
X22041574Y5725714D02*
X22027288Y5697143D01*
X22027288Y5697143D02*
X22013002Y5640000D01*
X22013002Y5640000D02*
X21998717Y5611429D01*
X21998717Y5611429D02*
X21984431Y5597143D01*
X21984431Y5597143D02*
X21955860Y5582857D01*
X21955860Y5582857D02*
X21927288Y5582857D01*
X21927288Y5582857D02*
X21898717Y5597143D01*
X21898717Y5597143D02*
X21884431Y5611429D01*
X21884431Y5611429D02*
X21870145Y5640000D01*
X21870145Y5640000D02*
X21870145Y5711429D01*
X21870145Y5711429D02*
X21884431Y5754286D01*
X22013002Y5882857D02*
X22013002Y5982857D01*
X22170145Y6025714D02*
X22170145Y5882857D01*
X22170145Y5882857D02*
X21870145Y5882857D01*
X21870145Y5882857D02*
X21870145Y6025714D01*
X22170145Y6297143D02*
X22170145Y6154286D01*
X22170145Y6154286D02*
X21870145Y6154286D01*
X11237143Y13184855D02*
X11237143Y12984855D01*
X11165714Y13299140D02*
X11094285Y13084855D01*
X11094285Y13084855D02*
X11280000Y13084855D01*
X11365714Y13284855D02*
X11565714Y13284855D01*
X11565714Y13284855D02*
X11437142Y12984855D01*
X11737142Y13284855D02*
X11765713Y13284855D01*
X11765713Y13284855D02*
X11794285Y13270569D01*
X11794285Y13270569D02*
X11808571Y13256283D01*
X11808571Y13256283D02*
X11822856Y13227712D01*
X11822856Y13227712D02*
X11837142Y13170569D01*
X11837142Y13170569D02*
X11837142Y13099140D01*
X11837142Y13099140D02*
X11822856Y13041998D01*
X11822856Y13041998D02*
X11808571Y13013426D01*
X11808571Y13013426D02*
X11794285Y12999140D01*
X11794285Y12999140D02*
X11765713Y12984855D01*
X11765713Y12984855D02*
X11737142Y12984855D01*
X11737142Y12984855D02*
X11708571Y12999140D01*
X11708571Y12999140D02*
X11694285Y13013426D01*
X11694285Y13013426D02*
X11679999Y13041998D01*
X11679999Y13041998D02*
X11665713Y13099140D01*
X11665713Y13099140D02*
X11665713Y13170569D01*
X11665713Y13170569D02*
X11679999Y13227712D01*
X11679999Y13227712D02*
X11694285Y13256283D01*
X11694285Y13256283D02*
X11708571Y13270569D01*
X11708571Y13270569D02*
X11737142Y13284855D01*
X11965713Y13184855D02*
X11965713Y12884855D01*
X11965713Y13170569D02*
X11994285Y13184855D01*
X11994285Y13184855D02*
X12051427Y13184855D01*
X12051427Y13184855D02*
X12079999Y13170569D01*
X12079999Y13170569D02*
X12094285Y13156283D01*
X12094285Y13156283D02*
X12108570Y13127712D01*
X12108570Y13127712D02*
X12108570Y13041998D01*
X12108570Y13041998D02*
X12094285Y13013426D01*
X12094285Y13013426D02*
X12079999Y12999140D01*
X12079999Y12999140D02*
X12051427Y12984855D01*
X12051427Y12984855D02*
X11994285Y12984855D01*
X11994285Y12984855D02*
X11965713Y12999140D01*
X12337142Y13141998D02*
X12237142Y13141998D01*
X12237142Y12984855D02*
X12237142Y13284855D01*
X12237142Y13284855D02*
X12379999Y13284855D01*
X11487143Y13653426D02*
X11472857Y13639140D01*
X11472857Y13639140D02*
X11430000Y13624855D01*
X11430000Y13624855D02*
X11401428Y13624855D01*
X11401428Y13624855D02*
X11358571Y13639140D01*
X11358571Y13639140D02*
X11330000Y13667712D01*
X11330000Y13667712D02*
X11315714Y13696283D01*
X11315714Y13696283D02*
X11301428Y13753426D01*
X11301428Y13753426D02*
X11301428Y13796283D01*
X11301428Y13796283D02*
X11315714Y13853426D01*
X11315714Y13853426D02*
X11330000Y13881998D01*
X11330000Y13881998D02*
X11358571Y13910569D01*
X11358571Y13910569D02*
X11401428Y13924855D01*
X11401428Y13924855D02*
X11430000Y13924855D01*
X11430000Y13924855D02*
X11472857Y13910569D01*
X11472857Y13910569D02*
X11487143Y13896283D01*
X11772857Y13624855D02*
X11601428Y13624855D01*
X11687143Y13624855D02*
X11687143Y13924855D01*
X11687143Y13924855D02*
X11658571Y13881998D01*
X11658571Y13881998D02*
X11630000Y13853426D01*
X11630000Y13853426D02*
X11601428Y13839140D01*
X12030000Y13924855D02*
X11972857Y13924855D01*
X11972857Y13924855D02*
X11944285Y13910569D01*
X11944285Y13910569D02*
X11930000Y13896283D01*
X11930000Y13896283D02*
X11901428Y13853426D01*
X11901428Y13853426D02*
X11887142Y13796283D01*
X11887142Y13796283D02*
X11887142Y13681998D01*
X11887142Y13681998D02*
X11901428Y13653426D01*
X11901428Y13653426D02*
X11915714Y13639140D01*
X11915714Y13639140D02*
X11944285Y13624855D01*
X11944285Y13624855D02*
X12001428Y13624855D01*
X12001428Y13624855D02*
X12030000Y13639140D01*
X12030000Y13639140D02*
X12044285Y13653426D01*
X12044285Y13653426D02*
X12058571Y13681998D01*
X12058571Y13681998D02*
X12058571Y13753426D01*
X12058571Y13753426D02*
X12044285Y13781998D01*
X12044285Y13781998D02*
X12030000Y13796283D01*
X12030000Y13796283D02*
X12001428Y13810569D01*
X12001428Y13810569D02*
X11944285Y13810569D01*
X11944285Y13810569D02*
X11915714Y13796283D01*
X11915714Y13796283D02*
X11901428Y13781998D01*
X11901428Y13781998D02*
X11887142Y13753426D01*
X11585714Y15244855D02*
X11614285Y15244855D01*
X11614285Y15244855D02*
X11642857Y15230569D01*
X11642857Y15230569D02*
X11657143Y15216283D01*
X11657143Y15216283D02*
X11671428Y15187712D01*
X11671428Y15187712D02*
X11685714Y15130569D01*
X11685714Y15130569D02*
X11685714Y15059140D01*
X11685714Y15059140D02*
X11671428Y15001998D01*
X11671428Y15001998D02*
X11657143Y14973426D01*
X11657143Y14973426D02*
X11642857Y14959140D01*
X11642857Y14959140D02*
X11614285Y14944855D01*
X11614285Y14944855D02*
X11585714Y14944855D01*
X11585714Y14944855D02*
X11557143Y14959140D01*
X11557143Y14959140D02*
X11542857Y14973426D01*
X11542857Y14973426D02*
X11528571Y15001998D01*
X11528571Y15001998D02*
X11514285Y15059140D01*
X11514285Y15059140D02*
X11514285Y15130569D01*
X11514285Y15130569D02*
X11528571Y15187712D01*
X11528571Y15187712D02*
X11542857Y15216283D01*
X11542857Y15216283D02*
X11557143Y15230569D01*
X11557143Y15230569D02*
X11585714Y15244855D01*
X11985714Y14944855D02*
X11885714Y15087712D01*
X11814285Y14944855D02*
X11814285Y15244855D01*
X11814285Y15244855D02*
X11928571Y15244855D01*
X11928571Y15244855D02*
X11957142Y15230569D01*
X11957142Y15230569D02*
X11971428Y15216283D01*
X11971428Y15216283D02*
X11985714Y15187712D01*
X11985714Y15187712D02*
X11985714Y15144855D01*
X11985714Y15144855D02*
X11971428Y15116283D01*
X11971428Y15116283D02*
X11957142Y15101998D01*
X11957142Y15101998D02*
X11928571Y15087712D01*
X11928571Y15087712D02*
X11814285Y15087712D01*
X11498989Y15898836D02*
X11498989Y15684550D01*
X11498989Y15684550D02*
X11484704Y15641693D01*
X11484704Y15641693D02*
X11456132Y15613121D01*
X11456132Y15613121D02*
X11413275Y15598836D01*
X11413275Y15598836D02*
X11384704Y15598836D01*
X11641846Y15598836D02*
X11641846Y15898836D01*
X11641846Y15898836D02*
X11756132Y15898836D01*
X11756132Y15898836D02*
X11784703Y15884550D01*
X11784703Y15884550D02*
X11798989Y15870264D01*
X11798989Y15870264D02*
X11813275Y15841693D01*
X11813275Y15841693D02*
X11813275Y15798836D01*
X11813275Y15798836D02*
X11798989Y15770264D01*
X11798989Y15770264D02*
X11784703Y15755979D01*
X11784703Y15755979D02*
X11756132Y15741693D01*
X11756132Y15741693D02*
X11641846Y15741693D01*
X12070418Y15798836D02*
X12070418Y15598836D01*
X11998989Y15913121D02*
X11927560Y15698836D01*
X11927560Y15698836D02*
X12113275Y15698836D01*
X7515145Y9057144D02*
X7515145Y8914287D01*
X7515145Y8914287D02*
X7658002Y8900001D01*
X7658002Y8900001D02*
X7643717Y8914287D01*
X7643717Y8914287D02*
X7629431Y8942858D01*
X7629431Y8942858D02*
X7629431Y9014287D01*
X7629431Y9014287D02*
X7643717Y9042858D01*
X7643717Y9042858D02*
X7658002Y9057144D01*
X7658002Y9057144D02*
X7686574Y9071430D01*
X7686574Y9071430D02*
X7758002Y9071430D01*
X7758002Y9071430D02*
X7786574Y9057144D01*
X7786574Y9057144D02*
X7800860Y9042858D01*
X7800860Y9042858D02*
X7815145Y9014287D01*
X7815145Y9014287D02*
X7815145Y8942858D01*
X7815145Y8942858D02*
X7800860Y8914287D01*
X7800860Y8914287D02*
X7786574Y8900001D01*
X7786574Y9200001D02*
X7800860Y9214287D01*
X7800860Y9214287D02*
X7815145Y9200001D01*
X7815145Y9200001D02*
X7800860Y9185715D01*
X7800860Y9185715D02*
X7786574Y9200001D01*
X7786574Y9200001D02*
X7815145Y9200001D01*
X7815145Y9500001D02*
X7815145Y9328572D01*
X7815145Y9414287D02*
X7515145Y9414287D01*
X7515145Y9414287D02*
X7558002Y9385715D01*
X7558002Y9385715D02*
X7586574Y9357144D01*
X7586574Y9357144D02*
X7600860Y9328572D01*
X7815145Y9628572D02*
X7515145Y9628572D01*
X7815145Y9800001D02*
X7643717Y9671429D01*
X7515145Y9800001D02*
X7686574Y9628572D01*
X8435145Y9300001D02*
X8292288Y9200001D01*
X8435145Y9128572D02*
X8135145Y9128572D01*
X8135145Y9128572D02*
X8135145Y9242858D01*
X8135145Y9242858D02*
X8149431Y9271429D01*
X8149431Y9271429D02*
X8163717Y9285715D01*
X8163717Y9285715D02*
X8192288Y9300001D01*
X8192288Y9300001D02*
X8235145Y9300001D01*
X8235145Y9300001D02*
X8263717Y9285715D01*
X8263717Y9285715D02*
X8278002Y9271429D01*
X8278002Y9271429D02*
X8292288Y9242858D01*
X8292288Y9242858D02*
X8292288Y9128572D01*
X8235145Y9557143D02*
X8435145Y9557143D01*
X8120860Y9485715D02*
X8335145Y9414286D01*
X8335145Y9414286D02*
X8335145Y9600001D01*
X38732288Y8430002D02*
X38875145Y8430002D01*
X38575145Y8330002D02*
X38732288Y8430002D01*
X38732288Y8430002D02*
X38575145Y8530002D01*
X38875145Y8630002D02*
X38575145Y8630002D01*
X38846574Y8944288D02*
X38860860Y8930002D01*
X38860860Y8930002D02*
X38875145Y8887145D01*
X38875145Y8887145D02*
X38875145Y8858573D01*
X38875145Y8858573D02*
X38860860Y8815716D01*
X38860860Y8815716D02*
X38832288Y8787145D01*
X38832288Y8787145D02*
X38803717Y8772859D01*
X38803717Y8772859D02*
X38746574Y8758573D01*
X38746574Y8758573D02*
X38703717Y8758573D01*
X38703717Y8758573D02*
X38646574Y8772859D01*
X38646574Y8772859D02*
X38618002Y8787145D01*
X38618002Y8787145D02*
X38589431Y8815716D01*
X38589431Y8815716D02*
X38575145Y8858573D01*
X38575145Y8858573D02*
X38575145Y8887145D01*
X38575145Y8887145D02*
X38589431Y8930002D01*
X38589431Y8930002D02*
X38603717Y8944288D01*
X38760860Y9072859D02*
X38760860Y9301430D01*
X38875145Y9601431D02*
X38875145Y9430002D01*
X38875145Y9515717D02*
X38575145Y9515717D01*
X38575145Y9515717D02*
X38618002Y9487145D01*
X38618002Y9487145D02*
X38646574Y9458574D01*
X38646574Y9458574D02*
X38660860Y9430002D01*
X38603717Y9715716D02*
X38589431Y9730002D01*
X38589431Y9730002D02*
X38575145Y9758573D01*
X38575145Y9758573D02*
X38575145Y9830002D01*
X38575145Y9830002D02*
X38589431Y9858573D01*
X38589431Y9858573D02*
X38603717Y9872859D01*
X38603717Y9872859D02*
X38632288Y9887145D01*
X38632288Y9887145D02*
X38660860Y9887145D01*
X38660860Y9887145D02*
X38703717Y9872859D01*
X38703717Y9872859D02*
X38875145Y9701431D01*
X38875145Y9701431D02*
X38875145Y9887145D01*
X38875145Y10015716D02*
X38575145Y10015716D01*
X38575145Y10015716D02*
X38789431Y10115716D01*
X38789431Y10115716D02*
X38575145Y10215716D01*
X38575145Y10215716D02*
X38875145Y10215716D01*
X38603717Y10344287D02*
X38589431Y10358573D01*
X38589431Y10358573D02*
X38575145Y10387144D01*
X38575145Y10387144D02*
X38575145Y10458573D01*
X38575145Y10458573D02*
X38589431Y10487144D01*
X38589431Y10487144D02*
X38603717Y10501430D01*
X38603717Y10501430D02*
X38632288Y10515716D01*
X38632288Y10515716D02*
X38660860Y10515716D01*
X38660860Y10515716D02*
X38703717Y10501430D01*
X38703717Y10501430D02*
X38875145Y10330002D01*
X38875145Y10330002D02*
X38875145Y10515716D01*
X38575145Y10701430D02*
X38575145Y10730001D01*
X38575145Y10730001D02*
X38589431Y10758573D01*
X38589431Y10758573D02*
X38603717Y10772858D01*
X38603717Y10772858D02*
X38632288Y10787144D01*
X38632288Y10787144D02*
X38689431Y10801430D01*
X38689431Y10801430D02*
X38760860Y10801430D01*
X38760860Y10801430D02*
X38818002Y10787144D01*
X38818002Y10787144D02*
X38846574Y10772858D01*
X38846574Y10772858D02*
X38860860Y10758573D01*
X38860860Y10758573D02*
X38875145Y10730001D01*
X38875145Y10730001D02*
X38875145Y10701430D01*
X38875145Y10701430D02*
X38860860Y10672858D01*
X38860860Y10672858D02*
X38846574Y10658573D01*
X38846574Y10658573D02*
X38818002Y10644287D01*
X38818002Y10644287D02*
X38760860Y10630001D01*
X38760860Y10630001D02*
X38689431Y10630001D01*
X38689431Y10630001D02*
X38632288Y10644287D01*
X38632288Y10644287D02*
X38603717Y10658573D01*
X38603717Y10658573D02*
X38589431Y10672858D01*
X38589431Y10672858D02*
X38575145Y10701430D01*
X38875145Y10930001D02*
X38575145Y10930001D01*
X38575145Y10930001D02*
X38575145Y11044287D01*
X38575145Y11044287D02*
X38589431Y11072858D01*
X38589431Y11072858D02*
X38603717Y11087144D01*
X38603717Y11087144D02*
X38632288Y11101430D01*
X38632288Y11101430D02*
X38675145Y11101430D01*
X38675145Y11101430D02*
X38703717Y11087144D01*
X38703717Y11087144D02*
X38718002Y11072858D01*
X38718002Y11072858D02*
X38732288Y11044287D01*
X38732288Y11044287D02*
X38732288Y10930001D01*
X38603717Y11215715D02*
X38589431Y11230001D01*
X38589431Y11230001D02*
X38575145Y11258572D01*
X38575145Y11258572D02*
X38575145Y11330001D01*
X38575145Y11330001D02*
X38589431Y11358572D01*
X38589431Y11358572D02*
X38603717Y11372858D01*
X38603717Y11372858D02*
X38632288Y11387144D01*
X38632288Y11387144D02*
X38660860Y11387144D01*
X38660860Y11387144D02*
X38703717Y11372858D01*
X38703717Y11372858D02*
X38875145Y11201430D01*
X38875145Y11201430D02*
X38875145Y11387144D01*
X38560860Y11730001D02*
X38946574Y11472858D01*
X38575145Y11801430D02*
X38875145Y12001430D01*
X38575145Y12001430D02*
X38875145Y11801430D01*
X38575145Y12072858D02*
X38575145Y12244286D01*
X38875145Y12158572D02*
X38575145Y12158572D01*
X38575145Y12315715D02*
X38575145Y12501429D01*
X38575145Y12501429D02*
X38689431Y12401429D01*
X38689431Y12401429D02*
X38689431Y12444286D01*
X38689431Y12444286D02*
X38703717Y12472857D01*
X38703717Y12472857D02*
X38718002Y12487143D01*
X38718002Y12487143D02*
X38746574Y12501429D01*
X38746574Y12501429D02*
X38818002Y12501429D01*
X38818002Y12501429D02*
X38846574Y12487143D01*
X38846574Y12487143D02*
X38860860Y12472857D01*
X38860860Y12472857D02*
X38875145Y12444286D01*
X38875145Y12444286D02*
X38875145Y12358572D01*
X38875145Y12358572D02*
X38860860Y12330000D01*
X38860860Y12330000D02*
X38846574Y12315715D01*
X38603717Y12615714D02*
X38589431Y12630000D01*
X38589431Y12630000D02*
X38575145Y12658571D01*
X38575145Y12658571D02*
X38575145Y12730000D01*
X38575145Y12730000D02*
X38589431Y12758571D01*
X38589431Y12758571D02*
X38603717Y12772857D01*
X38603717Y12772857D02*
X38632288Y12787143D01*
X38632288Y12787143D02*
X38660860Y12787143D01*
X38660860Y12787143D02*
X38703717Y12772857D01*
X38703717Y12772857D02*
X38875145Y12601429D01*
X38875145Y12601429D02*
X38875145Y12787143D01*
X38675145Y13044285D02*
X38875145Y13044285D01*
X38560860Y12972857D02*
X38775145Y12901428D01*
X38775145Y12901428D02*
X38775145Y13087143D01*
X38760860Y13201428D02*
X38760860Y13429999D01*
X38875145Y13730000D02*
X38875145Y13558571D01*
X38875145Y13644286D02*
X38575145Y13644286D01*
X38575145Y13644286D02*
X38618002Y13615714D01*
X38618002Y13615714D02*
X38646574Y13587143D01*
X38646574Y13587143D02*
X38660860Y13558571D01*
X38575145Y13915714D02*
X38575145Y13944285D01*
X38575145Y13944285D02*
X38589431Y13972857D01*
X38589431Y13972857D02*
X38603717Y13987142D01*
X38603717Y13987142D02*
X38632288Y14001428D01*
X38632288Y14001428D02*
X38689431Y14015714D01*
X38689431Y14015714D02*
X38760860Y14015714D01*
X38760860Y14015714D02*
X38818002Y14001428D01*
X38818002Y14001428D02*
X38846574Y13987142D01*
X38846574Y13987142D02*
X38860860Y13972857D01*
X38860860Y13972857D02*
X38875145Y13944285D01*
X38875145Y13944285D02*
X38875145Y13915714D01*
X38875145Y13915714D02*
X38860860Y13887142D01*
X38860860Y13887142D02*
X38846574Y13872857D01*
X38846574Y13872857D02*
X38818002Y13858571D01*
X38818002Y13858571D02*
X38760860Y13844285D01*
X38760860Y13844285D02*
X38689431Y13844285D01*
X38689431Y13844285D02*
X38632288Y13858571D01*
X38632288Y13858571D02*
X38603717Y13872857D01*
X38603717Y13872857D02*
X38589431Y13887142D01*
X38589431Y13887142D02*
X38575145Y13915714D01*
X38560860Y14358571D02*
X38946574Y14101428D01*
X38875145Y14615714D02*
X38875145Y14444285D01*
X38875145Y14530000D02*
X38575145Y14530000D01*
X38575145Y14530000D02*
X38618002Y14501428D01*
X38618002Y14501428D02*
X38646574Y14472857D01*
X38646574Y14472857D02*
X38660860Y14444285D01*
X38575145Y14801428D02*
X38575145Y14829999D01*
X38575145Y14829999D02*
X38589431Y14858571D01*
X38589431Y14858571D02*
X38603717Y14872856D01*
X38603717Y14872856D02*
X38632288Y14887142D01*
X38632288Y14887142D02*
X38689431Y14901428D01*
X38689431Y14901428D02*
X38760860Y14901428D01*
X38760860Y14901428D02*
X38818002Y14887142D01*
X38818002Y14887142D02*
X38846574Y14872856D01*
X38846574Y14872856D02*
X38860860Y14858571D01*
X38860860Y14858571D02*
X38875145Y14829999D01*
X38875145Y14829999D02*
X38875145Y14801428D01*
X38875145Y14801428D02*
X38860860Y14772856D01*
X38860860Y14772856D02*
X38846574Y14758571D01*
X38846574Y14758571D02*
X38818002Y14744285D01*
X38818002Y14744285D02*
X38760860Y14729999D01*
X38760860Y14729999D02*
X38689431Y14729999D01*
X38689431Y14729999D02*
X38632288Y14744285D01*
X38632288Y14744285D02*
X38603717Y14758571D01*
X38603717Y14758571D02*
X38589431Y14772856D01*
X38589431Y14772856D02*
X38575145Y14801428D01*
X36907143Y11407712D02*
X36907143Y11264855D01*
X36807143Y11564855D02*
X36907143Y11407712D01*
X36907143Y11407712D02*
X37007143Y11564855D01*
X37264286Y11264855D02*
X37092857Y11264855D01*
X37178572Y11264855D02*
X37178572Y11564855D01*
X37178572Y11564855D02*
X37150000Y11521998D01*
X37150000Y11521998D02*
X37121429Y11493426D01*
X37121429Y11493426D02*
X37092857Y11479140D01*
X7601429Y3604855D02*
X7601429Y3404855D01*
X7530000Y3719140D02*
X7458571Y3504855D01*
X7458571Y3504855D02*
X7644286Y3504855D01*
X7730000Y3704855D02*
X7930000Y3704855D01*
X7930000Y3704855D02*
X7801428Y3404855D01*
X8101428Y3704855D02*
X8129999Y3704855D01*
X8129999Y3704855D02*
X8158571Y3690569D01*
X8158571Y3690569D02*
X8172857Y3676283D01*
X8172857Y3676283D02*
X8187142Y3647712D01*
X8187142Y3647712D02*
X8201428Y3590569D01*
X8201428Y3590569D02*
X8201428Y3519140D01*
X8201428Y3519140D02*
X8187142Y3461998D01*
X8187142Y3461998D02*
X8172857Y3433426D01*
X8172857Y3433426D02*
X8158571Y3419140D01*
X8158571Y3419140D02*
X8129999Y3404855D01*
X8129999Y3404855D02*
X8101428Y3404855D01*
X8101428Y3404855D02*
X8072857Y3419140D01*
X8072857Y3419140D02*
X8058571Y3433426D01*
X8058571Y3433426D02*
X8044285Y3461998D01*
X8044285Y3461998D02*
X8029999Y3519140D01*
X8029999Y3519140D02*
X8029999Y3590569D01*
X8029999Y3590569D02*
X8044285Y3647712D01*
X8044285Y3647712D02*
X8058571Y3676283D01*
X8058571Y3676283D02*
X8072857Y3690569D01*
X8072857Y3690569D02*
X8101428Y3704855D01*
X8501428Y3404855D02*
X8401428Y3547712D01*
X8329999Y3404855D02*
X8329999Y3704855D01*
X8329999Y3704855D02*
X8444285Y3704855D01*
X8444285Y3704855D02*
X8472856Y3690569D01*
X8472856Y3690569D02*
X8487142Y3676283D01*
X8487142Y3676283D02*
X8501428Y3647712D01*
X8501428Y3647712D02*
X8501428Y3604855D01*
X8501428Y3604855D02*
X8487142Y3576283D01*
X8487142Y3576283D02*
X8472856Y3561998D01*
X8472856Y3561998D02*
X8444285Y3547712D01*
X8444285Y3547712D02*
X8329999Y3547712D01*
X7930000Y4034855D02*
X7830000Y4177712D01*
X7758571Y4034855D02*
X7758571Y4334855D01*
X7758571Y4334855D02*
X7872857Y4334855D01*
X7872857Y4334855D02*
X7901428Y4320569D01*
X7901428Y4320569D02*
X7915714Y4306283D01*
X7915714Y4306283D02*
X7930000Y4277712D01*
X7930000Y4277712D02*
X7930000Y4234855D01*
X7930000Y4234855D02*
X7915714Y4206283D01*
X7915714Y4206283D02*
X7901428Y4191998D01*
X7901428Y4191998D02*
X7872857Y4177712D01*
X7872857Y4177712D02*
X7758571Y4177712D01*
X8101428Y4206283D02*
X8072857Y4220569D01*
X8072857Y4220569D02*
X8058571Y4234855D01*
X8058571Y4234855D02*
X8044285Y4263426D01*
X8044285Y4263426D02*
X8044285Y4277712D01*
X8044285Y4277712D02*
X8058571Y4306283D01*
X8058571Y4306283D02*
X8072857Y4320569D01*
X8072857Y4320569D02*
X8101428Y4334855D01*
X8101428Y4334855D02*
X8158571Y4334855D01*
X8158571Y4334855D02*
X8187143Y4320569D01*
X8187143Y4320569D02*
X8201428Y4306283D01*
X8201428Y4306283D02*
X8215714Y4277712D01*
X8215714Y4277712D02*
X8215714Y4263426D01*
X8215714Y4263426D02*
X8201428Y4234855D01*
X8201428Y4234855D02*
X8187143Y4220569D01*
X8187143Y4220569D02*
X8158571Y4206283D01*
X8158571Y4206283D02*
X8101428Y4206283D01*
X8101428Y4206283D02*
X8072857Y4191998D01*
X8072857Y4191998D02*
X8058571Y4177712D01*
X8058571Y4177712D02*
X8044285Y4149140D01*
X8044285Y4149140D02*
X8044285Y4091998D01*
X8044285Y4091998D02*
X8058571Y4063426D01*
X8058571Y4063426D02*
X8072857Y4049140D01*
X8072857Y4049140D02*
X8101428Y4034855D01*
X8101428Y4034855D02*
X8158571Y4034855D01*
X8158571Y4034855D02*
X8187143Y4049140D01*
X8187143Y4049140D02*
X8201428Y4063426D01*
X8201428Y4063426D02*
X8215714Y4091998D01*
X8215714Y4091998D02*
X8215714Y4149140D01*
X8215714Y4149140D02*
X8201428Y4177712D01*
X8201428Y4177712D02*
X8187143Y4191998D01*
X8187143Y4191998D02*
X8158571Y4206283D01*
X5262858Y17981998D02*
X5305715Y17967712D01*
X5305715Y17967712D02*
X5320001Y17953426D01*
X5320001Y17953426D02*
X5334287Y17924855D01*
X5334287Y17924855D02*
X5334287Y17881998D01*
X5334287Y17881998D02*
X5320001Y17853426D01*
X5320001Y17853426D02*
X5305715Y17839140D01*
X5305715Y17839140D02*
X5277144Y17824855D01*
X5277144Y17824855D02*
X5162858Y17824855D01*
X5162858Y17824855D02*
X5162858Y18124855D01*
X5162858Y18124855D02*
X5262858Y18124855D01*
X5262858Y18124855D02*
X5291430Y18110569D01*
X5291430Y18110569D02*
X5305715Y18096283D01*
X5305715Y18096283D02*
X5320001Y18067712D01*
X5320001Y18067712D02*
X5320001Y18039140D01*
X5320001Y18039140D02*
X5305715Y18010569D01*
X5305715Y18010569D02*
X5291430Y17996283D01*
X5291430Y17996283D02*
X5262858Y17981998D01*
X5262858Y17981998D02*
X5162858Y17981998D01*
X5448572Y17839140D02*
X5491430Y17824855D01*
X5491430Y17824855D02*
X5562858Y17824855D01*
X5562858Y17824855D02*
X5591430Y17839140D01*
X5591430Y17839140D02*
X5605715Y17853426D01*
X5605715Y17853426D02*
X5620001Y17881998D01*
X5620001Y17881998D02*
X5620001Y17910569D01*
X5620001Y17910569D02*
X5605715Y17939140D01*
X5605715Y17939140D02*
X5591430Y17953426D01*
X5591430Y17953426D02*
X5562858Y17967712D01*
X5562858Y17967712D02*
X5505715Y17981998D01*
X5505715Y17981998D02*
X5477144Y17996283D01*
X5477144Y17996283D02*
X5462858Y18010569D01*
X5462858Y18010569D02*
X5448572Y18039140D01*
X5448572Y18039140D02*
X5448572Y18067712D01*
X5448572Y18067712D02*
X5462858Y18096283D01*
X5462858Y18096283D02*
X5477144Y18110569D01*
X5477144Y18110569D02*
X5505715Y18124855D01*
X5505715Y18124855D02*
X5577144Y18124855D01*
X5577144Y18124855D02*
X5620001Y18110569D01*
X5891429Y18124855D02*
X5748572Y18124855D01*
X5748572Y18124855D02*
X5734286Y17981998D01*
X5734286Y17981998D02*
X5748572Y17996283D01*
X5748572Y17996283D02*
X5777144Y18010569D01*
X5777144Y18010569D02*
X5848572Y18010569D01*
X5848572Y18010569D02*
X5877144Y17996283D01*
X5877144Y17996283D02*
X5891429Y17981998D01*
X5891429Y17981998D02*
X5905715Y17953426D01*
X5905715Y17953426D02*
X5905715Y17881998D01*
X5905715Y17881998D02*
X5891429Y17853426D01*
X5891429Y17853426D02*
X5877144Y17839140D01*
X5877144Y17839140D02*
X5848572Y17824855D01*
X5848572Y17824855D02*
X5777144Y17824855D01*
X5777144Y17824855D02*
X5748572Y17839140D01*
X5748572Y17839140D02*
X5734286Y17853426D01*
X6077143Y17996283D02*
X6048572Y18010569D01*
X6048572Y18010569D02*
X6034286Y18024855D01*
X6034286Y18024855D02*
X6020000Y18053426D01*
X6020000Y18053426D02*
X6020000Y18067712D01*
X6020000Y18067712D02*
X6034286Y18096283D01*
X6034286Y18096283D02*
X6048572Y18110569D01*
X6048572Y18110569D02*
X6077143Y18124855D01*
X6077143Y18124855D02*
X6134286Y18124855D01*
X6134286Y18124855D02*
X6162858Y18110569D01*
X6162858Y18110569D02*
X6177143Y18096283D01*
X6177143Y18096283D02*
X6191429Y18067712D01*
X6191429Y18067712D02*
X6191429Y18053426D01*
X6191429Y18053426D02*
X6177143Y18024855D01*
X6177143Y18024855D02*
X6162858Y18010569D01*
X6162858Y18010569D02*
X6134286Y17996283D01*
X6134286Y17996283D02*
X6077143Y17996283D01*
X6077143Y17996283D02*
X6048572Y17981998D01*
X6048572Y17981998D02*
X6034286Y17967712D01*
X6034286Y17967712D02*
X6020000Y17939140D01*
X6020000Y17939140D02*
X6020000Y17881998D01*
X6020000Y17881998D02*
X6034286Y17853426D01*
X6034286Y17853426D02*
X6048572Y17839140D01*
X6048572Y17839140D02*
X6077143Y17824855D01*
X6077143Y17824855D02*
X6134286Y17824855D01*
X6134286Y17824855D02*
X6162858Y17839140D01*
X6162858Y17839140D02*
X6177143Y17853426D01*
X6177143Y17853426D02*
X6191429Y17881998D01*
X6191429Y17881998D02*
X6191429Y17939140D01*
X6191429Y17939140D02*
X6177143Y17967712D01*
X6177143Y17967712D02*
X6162858Y17981998D01*
X6162858Y17981998D02*
X6134286Y17996283D01*
X6477143Y17824855D02*
X6305714Y17824855D01*
X6391429Y17824855D02*
X6391429Y18124855D01*
X6391429Y18124855D02*
X6362857Y18081998D01*
X6362857Y18081998D02*
X6334286Y18053426D01*
X6334286Y18053426D02*
X6305714Y18039140D01*
X6577143Y18124855D02*
X6777143Y18124855D01*
X6777143Y18124855D02*
X6648571Y17824855D01*
X6862857Y18124855D02*
X6934285Y17824855D01*
X6934285Y17824855D02*
X6991428Y18039140D01*
X6991428Y18039140D02*
X7048571Y17824855D01*
X7048571Y17824855D02*
X7120000Y18124855D01*
X7219999Y17839140D02*
X7262857Y17824855D01*
X7262857Y17824855D02*
X7334285Y17824855D01*
X7334285Y17824855D02*
X7362857Y17839140D01*
X7362857Y17839140D02*
X7377142Y17853426D01*
X7377142Y17853426D02*
X7391428Y17881998D01*
X7391428Y17881998D02*
X7391428Y17910569D01*
X7391428Y17910569D02*
X7377142Y17939140D01*
X7377142Y17939140D02*
X7362857Y17953426D01*
X7362857Y17953426D02*
X7334285Y17967712D01*
X7334285Y17967712D02*
X7277142Y17981998D01*
X7277142Y17981998D02*
X7248571Y17996283D01*
X7248571Y17996283D02*
X7234285Y18010569D01*
X7234285Y18010569D02*
X7219999Y18039140D01*
X7219999Y18039140D02*
X7219999Y18067712D01*
X7219999Y18067712D02*
X7234285Y18096283D01*
X7234285Y18096283D02*
X7248571Y18110569D01*
X7248571Y18110569D02*
X7277142Y18124855D01*
X7277142Y18124855D02*
X7348571Y18124855D01*
X7348571Y18124855D02*
X7391428Y18110569D01*
X4868571Y16794855D02*
X4868571Y17094855D01*
X4868571Y17094855D02*
X4940000Y17094855D01*
X4940000Y17094855D02*
X4982857Y17080569D01*
X4982857Y17080569D02*
X5011428Y17051998D01*
X5011428Y17051998D02*
X5025714Y17023426D01*
X5025714Y17023426D02*
X5040000Y16966283D01*
X5040000Y16966283D02*
X5040000Y16923426D01*
X5040000Y16923426D02*
X5025714Y16866283D01*
X5025714Y16866283D02*
X5011428Y16837712D01*
X5011428Y16837712D02*
X4982857Y16809140D01*
X4982857Y16809140D02*
X4940000Y16794855D01*
X4940000Y16794855D02*
X4868571Y16794855D01*
X5325714Y16794855D02*
X5154285Y16794855D01*
X5240000Y16794855D02*
X5240000Y17094855D01*
X5240000Y17094855D02*
X5211428Y17051998D01*
X5211428Y17051998D02*
X5182857Y17023426D01*
X5182857Y17023426D02*
X5154285Y17009140D01*
X4587143Y4784855D02*
X4487143Y4927712D01*
X4415714Y4784855D02*
X4415714Y5084855D01*
X4415714Y5084855D02*
X4530000Y5084855D01*
X4530000Y5084855D02*
X4558571Y5070569D01*
X4558571Y5070569D02*
X4572857Y5056283D01*
X4572857Y5056283D02*
X4587143Y5027712D01*
X4587143Y5027712D02*
X4587143Y4984855D01*
X4587143Y4984855D02*
X4572857Y4956283D01*
X4572857Y4956283D02*
X4558571Y4941998D01*
X4558571Y4941998D02*
X4530000Y4927712D01*
X4530000Y4927712D02*
X4415714Y4927712D01*
X4715714Y4941998D02*
X4815714Y4941998D01*
X4858571Y4784855D02*
X4715714Y4784855D01*
X4715714Y4784855D02*
X4715714Y5084855D01*
X4715714Y5084855D02*
X4858571Y5084855D01*
X4987143Y4784855D02*
X4987143Y5084855D01*
X4987143Y5084855D02*
X5058572Y5084855D01*
X5058572Y5084855D02*
X5101429Y5070569D01*
X5101429Y5070569D02*
X5130000Y5041998D01*
X5130000Y5041998D02*
X5144286Y5013426D01*
X5144286Y5013426D02*
X5158572Y4956283D01*
X5158572Y4956283D02*
X5158572Y4913426D01*
X5158572Y4913426D02*
X5144286Y4856283D01*
X5144286Y4856283D02*
X5130000Y4827712D01*
X5130000Y4827712D02*
X5101429Y4799140D01*
X5101429Y4799140D02*
X5058572Y4784855D01*
X5058572Y4784855D02*
X4987143Y4784855D01*
X4578571Y4064855D02*
X4578571Y4364855D01*
X4578571Y4364855D02*
X4650000Y4364855D01*
X4650000Y4364855D02*
X4692857Y4350569D01*
X4692857Y4350569D02*
X4721428Y4321998D01*
X4721428Y4321998D02*
X4735714Y4293426D01*
X4735714Y4293426D02*
X4750000Y4236283D01*
X4750000Y4236283D02*
X4750000Y4193426D01*
X4750000Y4193426D02*
X4735714Y4136283D01*
X4735714Y4136283D02*
X4721428Y4107712D01*
X4721428Y4107712D02*
X4692857Y4079140D01*
X4692857Y4079140D02*
X4650000Y4064855D01*
X4650000Y4064855D02*
X4578571Y4064855D01*
X4850000Y4364855D02*
X5035714Y4364855D01*
X5035714Y4364855D02*
X4935714Y4250569D01*
X4935714Y4250569D02*
X4978571Y4250569D01*
X4978571Y4250569D02*
X5007143Y4236283D01*
X5007143Y4236283D02*
X5021428Y4221998D01*
X5021428Y4221998D02*
X5035714Y4193426D01*
X5035714Y4193426D02*
X5035714Y4121998D01*
X5035714Y4121998D02*
X5021428Y4093426D01*
X5021428Y4093426D02*
X5007143Y4079140D01*
X5007143Y4079140D02*
X4978571Y4064855D01*
X4978571Y4064855D02*
X4892857Y4064855D01*
X4892857Y4064855D02*
X4864285Y4079140D01*
X4864285Y4079140D02*
X4850000Y4093426D01*
X124284Y16534855D02*
X124284Y16834855D01*
X124284Y16834855D02*
X224284Y16620569D01*
X224284Y16620569D02*
X324284Y16834855D01*
X324284Y16834855D02*
X324284Y16534855D01*
X509998Y16534855D02*
X481427Y16549140D01*
X481427Y16549140D02*
X467141Y16563426D01*
X467141Y16563426D02*
X452855Y16591998D01*
X452855Y16591998D02*
X452855Y16677712D01*
X452855Y16677712D02*
X467141Y16706283D01*
X467141Y16706283D02*
X481427Y16720569D01*
X481427Y16720569D02*
X509998Y16734855D01*
X509998Y16734855D02*
X552855Y16734855D01*
X552855Y16734855D02*
X581427Y16720569D01*
X581427Y16720569D02*
X595713Y16706283D01*
X595713Y16706283D02*
X609998Y16677712D01*
X609998Y16677712D02*
X609998Y16591998D01*
X609998Y16591998D02*
X595713Y16563426D01*
X595713Y16563426D02*
X581427Y16549140D01*
X581427Y16549140D02*
X552855Y16534855D01*
X552855Y16534855D02*
X509998Y16534855D01*
X867142Y16734855D02*
X867142Y16534855D01*
X738570Y16734855D02*
X738570Y16577712D01*
X738570Y16577712D02*
X752856Y16549140D01*
X752856Y16549140D02*
X781427Y16534855D01*
X781427Y16534855D02*
X824284Y16534855D01*
X824284Y16534855D02*
X852856Y16549140D01*
X852856Y16549140D02*
X867142Y16563426D01*
X1009999Y16734855D02*
X1009999Y16534855D01*
X1009999Y16706283D02*
X1024285Y16720569D01*
X1024285Y16720569D02*
X1052856Y16734855D01*
X1052856Y16734855D02*
X1095713Y16734855D01*
X1095713Y16734855D02*
X1124285Y16720569D01*
X1124285Y16720569D02*
X1138571Y16691998D01*
X1138571Y16691998D02*
X1138571Y16534855D01*
X1238571Y16734855D02*
X1352857Y16734855D01*
X1281428Y16834855D02*
X1281428Y16577712D01*
X1281428Y16577712D02*
X1295714Y16549140D01*
X1295714Y16549140D02*
X1324285Y16534855D01*
X1324285Y16534855D02*
X1352857Y16534855D01*
X1452857Y16534855D02*
X1452857Y16734855D01*
X1452857Y16834855D02*
X1438571Y16820569D01*
X1438571Y16820569D02*
X1452857Y16806283D01*
X1452857Y16806283D02*
X1467143Y16820569D01*
X1467143Y16820569D02*
X1452857Y16834855D01*
X1452857Y16834855D02*
X1452857Y16806283D01*
X1595714Y16734855D02*
X1595714Y16534855D01*
X1595714Y16706283D02*
X1610000Y16720569D01*
X1610000Y16720569D02*
X1638571Y16734855D01*
X1638571Y16734855D02*
X1681428Y16734855D01*
X1681428Y16734855D02*
X1710000Y16720569D01*
X1710000Y16720569D02*
X1724286Y16691998D01*
X1724286Y16691998D02*
X1724286Y16534855D01*
X1995715Y16734855D02*
X1995715Y16491998D01*
X1995715Y16491998D02*
X1981429Y16463426D01*
X1981429Y16463426D02*
X1967143Y16449140D01*
X1967143Y16449140D02*
X1938572Y16434855D01*
X1938572Y16434855D02*
X1895715Y16434855D01*
X1895715Y16434855D02*
X1867143Y16449140D01*
X1995715Y16549140D02*
X1967143Y16534855D01*
X1967143Y16534855D02*
X1910000Y16534855D01*
X1910000Y16534855D02*
X1881429Y16549140D01*
X1881429Y16549140D02*
X1867143Y16563426D01*
X1867143Y16563426D02*
X1852857Y16591998D01*
X1852857Y16591998D02*
X1852857Y16677712D01*
X1852857Y16677712D02*
X1867143Y16706283D01*
X1867143Y16706283D02*
X1881429Y16720569D01*
X1881429Y16720569D02*
X1910000Y16734855D01*
X1910000Y16734855D02*
X1967143Y16734855D01*
X1967143Y16734855D02*
X1995715Y16720569D01*
X2138572Y16534855D02*
X2138572Y16834855D01*
X2138572Y16691998D02*
X2310001Y16691998D01*
X2310001Y16534855D02*
X2310001Y16834855D01*
X2495715Y16534855D02*
X2467144Y16549140D01*
X2467144Y16549140D02*
X2452858Y16563426D01*
X2452858Y16563426D02*
X2438572Y16591998D01*
X2438572Y16591998D02*
X2438572Y16677712D01*
X2438572Y16677712D02*
X2452858Y16706283D01*
X2452858Y16706283D02*
X2467144Y16720569D01*
X2467144Y16720569D02*
X2495715Y16734855D01*
X2495715Y16734855D02*
X2538572Y16734855D01*
X2538572Y16734855D02*
X2567144Y16720569D01*
X2567144Y16720569D02*
X2581430Y16706283D01*
X2581430Y16706283D02*
X2595715Y16677712D01*
X2595715Y16677712D02*
X2595715Y16591998D01*
X2595715Y16591998D02*
X2581430Y16563426D01*
X2581430Y16563426D02*
X2567144Y16549140D01*
X2567144Y16549140D02*
X2538572Y16534855D01*
X2538572Y16534855D02*
X2495715Y16534855D01*
X2767144Y16534855D02*
X2738573Y16549140D01*
X2738573Y16549140D02*
X2724287Y16577712D01*
X2724287Y16577712D02*
X2724287Y16834855D01*
X2995716Y16549140D02*
X2967144Y16534855D01*
X2967144Y16534855D02*
X2910002Y16534855D01*
X2910002Y16534855D02*
X2881430Y16549140D01*
X2881430Y16549140D02*
X2867144Y16577712D01*
X2867144Y16577712D02*
X2867144Y16691998D01*
X2867144Y16691998D02*
X2881430Y16720569D01*
X2881430Y16720569D02*
X2910002Y16734855D01*
X2910002Y16734855D02*
X2967144Y16734855D01*
X2967144Y16734855D02*
X2995716Y16720569D01*
X2995716Y16720569D02*
X3010002Y16691998D01*
X3010002Y16691998D02*
X3010002Y16663426D01*
X3010002Y16663426D02*
X2867144Y16634855D01*
X1291428Y17114855D02*
X1291428Y17414855D01*
X1291428Y17271998D02*
X1462857Y17271998D01*
X1462857Y17114855D02*
X1462857Y17414855D01*
X1734286Y17314855D02*
X1734286Y17114855D01*
X1662857Y17429140D02*
X1591428Y17214855D01*
X1591428Y17214855D02*
X1777143Y17214855D01*
X174284Y3594855D02*
X174284Y3894855D01*
X174284Y3894855D02*
X274284Y3680569D01*
X274284Y3680569D02*
X374284Y3894855D01*
X374284Y3894855D02*
X374284Y3594855D01*
X559998Y3594855D02*
X531427Y3609140D01*
X531427Y3609140D02*
X517141Y3623426D01*
X517141Y3623426D02*
X502855Y3651998D01*
X502855Y3651998D02*
X502855Y3737712D01*
X502855Y3737712D02*
X517141Y3766283D01*
X517141Y3766283D02*
X531427Y3780569D01*
X531427Y3780569D02*
X559998Y3794855D01*
X559998Y3794855D02*
X602855Y3794855D01*
X602855Y3794855D02*
X631427Y3780569D01*
X631427Y3780569D02*
X645713Y3766283D01*
X645713Y3766283D02*
X659998Y3737712D01*
X659998Y3737712D02*
X659998Y3651998D01*
X659998Y3651998D02*
X645713Y3623426D01*
X645713Y3623426D02*
X631427Y3609140D01*
X631427Y3609140D02*
X602855Y3594855D01*
X602855Y3594855D02*
X559998Y3594855D01*
X917142Y3794855D02*
X917142Y3594855D01*
X788570Y3794855D02*
X788570Y3637712D01*
X788570Y3637712D02*
X802856Y3609140D01*
X802856Y3609140D02*
X831427Y3594855D01*
X831427Y3594855D02*
X874284Y3594855D01*
X874284Y3594855D02*
X902856Y3609140D01*
X902856Y3609140D02*
X917142Y3623426D01*
X1059999Y3794855D02*
X1059999Y3594855D01*
X1059999Y3766283D02*
X1074285Y3780569D01*
X1074285Y3780569D02*
X1102856Y3794855D01*
X1102856Y3794855D02*
X1145713Y3794855D01*
X1145713Y3794855D02*
X1174285Y3780569D01*
X1174285Y3780569D02*
X1188571Y3751998D01*
X1188571Y3751998D02*
X1188571Y3594855D01*
X1288571Y3794855D02*
X1402857Y3794855D01*
X1331428Y3894855D02*
X1331428Y3637712D01*
X1331428Y3637712D02*
X1345714Y3609140D01*
X1345714Y3609140D02*
X1374285Y3594855D01*
X1374285Y3594855D02*
X1402857Y3594855D01*
X1502857Y3594855D02*
X1502857Y3794855D01*
X1502857Y3894855D02*
X1488571Y3880569D01*
X1488571Y3880569D02*
X1502857Y3866283D01*
X1502857Y3866283D02*
X1517143Y3880569D01*
X1517143Y3880569D02*
X1502857Y3894855D01*
X1502857Y3894855D02*
X1502857Y3866283D01*
X1645714Y3794855D02*
X1645714Y3594855D01*
X1645714Y3766283D02*
X1660000Y3780569D01*
X1660000Y3780569D02*
X1688571Y3794855D01*
X1688571Y3794855D02*
X1731428Y3794855D01*
X1731428Y3794855D02*
X1760000Y3780569D01*
X1760000Y3780569D02*
X1774286Y3751998D01*
X1774286Y3751998D02*
X1774286Y3594855D01*
X2045715Y3794855D02*
X2045715Y3551998D01*
X2045715Y3551998D02*
X2031429Y3523426D01*
X2031429Y3523426D02*
X2017143Y3509140D01*
X2017143Y3509140D02*
X1988572Y3494855D01*
X1988572Y3494855D02*
X1945715Y3494855D01*
X1945715Y3494855D02*
X1917143Y3509140D01*
X2045715Y3609140D02*
X2017143Y3594855D01*
X2017143Y3594855D02*
X1960000Y3594855D01*
X1960000Y3594855D02*
X1931429Y3609140D01*
X1931429Y3609140D02*
X1917143Y3623426D01*
X1917143Y3623426D02*
X1902857Y3651998D01*
X1902857Y3651998D02*
X1902857Y3737712D01*
X1902857Y3737712D02*
X1917143Y3766283D01*
X1917143Y3766283D02*
X1931429Y3780569D01*
X1931429Y3780569D02*
X1960000Y3794855D01*
X1960000Y3794855D02*
X2017143Y3794855D01*
X2017143Y3794855D02*
X2045715Y3780569D01*
X2188572Y3594855D02*
X2188572Y3894855D01*
X2188572Y3751998D02*
X2360001Y3751998D01*
X2360001Y3594855D02*
X2360001Y3894855D01*
X2545715Y3594855D02*
X2517144Y3609140D01*
X2517144Y3609140D02*
X2502858Y3623426D01*
X2502858Y3623426D02*
X2488572Y3651998D01*
X2488572Y3651998D02*
X2488572Y3737712D01*
X2488572Y3737712D02*
X2502858Y3766283D01*
X2502858Y3766283D02*
X2517144Y3780569D01*
X2517144Y3780569D02*
X2545715Y3794855D01*
X2545715Y3794855D02*
X2588572Y3794855D01*
X2588572Y3794855D02*
X2617144Y3780569D01*
X2617144Y3780569D02*
X2631430Y3766283D01*
X2631430Y3766283D02*
X2645715Y3737712D01*
X2645715Y3737712D02*
X2645715Y3651998D01*
X2645715Y3651998D02*
X2631430Y3623426D01*
X2631430Y3623426D02*
X2617144Y3609140D01*
X2617144Y3609140D02*
X2588572Y3594855D01*
X2588572Y3594855D02*
X2545715Y3594855D01*
X2817144Y3594855D02*
X2788573Y3609140D01*
X2788573Y3609140D02*
X2774287Y3637712D01*
X2774287Y3637712D02*
X2774287Y3894855D01*
X3045716Y3609140D02*
X3017144Y3594855D01*
X3017144Y3594855D02*
X2960002Y3594855D01*
X2960002Y3594855D02*
X2931430Y3609140D01*
X2931430Y3609140D02*
X2917144Y3637712D01*
X2917144Y3637712D02*
X2917144Y3751998D01*
X2917144Y3751998D02*
X2931430Y3780569D01*
X2931430Y3780569D02*
X2960002Y3794855D01*
X2960002Y3794855D02*
X3017144Y3794855D01*
X3017144Y3794855D02*
X3045716Y3780569D01*
X3045716Y3780569D02*
X3060002Y3751998D01*
X3060002Y3751998D02*
X3060002Y3723426D01*
X3060002Y3723426D02*
X2917144Y3694855D01*
X1271428Y4074855D02*
X1271428Y4374855D01*
X1271428Y4231998D02*
X1442857Y4231998D01*
X1442857Y4074855D02*
X1442857Y4374855D01*
X1742857Y4074855D02*
X1571428Y4074855D01*
X1657143Y4074855D02*
X1657143Y4374855D01*
X1657143Y4374855D02*
X1628571Y4331998D01*
X1628571Y4331998D02*
X1600000Y4303426D01*
X1600000Y4303426D02*
X1571428Y4289140D01*
X10284286Y3614855D02*
X10284286Y3371998D01*
X10284286Y3371998D02*
X10298572Y3343426D01*
X10298572Y3343426D02*
X10312858Y3329140D01*
X10312858Y3329140D02*
X10341429Y3314855D01*
X10341429Y3314855D02*
X10398572Y3314855D01*
X10398572Y3314855D02*
X10427143Y3329140D01*
X10427143Y3329140D02*
X10441429Y3343426D01*
X10441429Y3343426D02*
X10455715Y3371998D01*
X10455715Y3371998D02*
X10455715Y3614855D01*
X10598572Y3314855D02*
X10598572Y3614855D01*
X10770001Y3314855D02*
X10641429Y3486283D01*
X10770001Y3614855D02*
X10598572Y3443426D01*
X10898572Y3429140D02*
X11127144Y3429140D01*
X11370001Y3471998D02*
X11412858Y3457712D01*
X11412858Y3457712D02*
X11427144Y3443426D01*
X11427144Y3443426D02*
X11441430Y3414855D01*
X11441430Y3414855D02*
X11441430Y3371998D01*
X11441430Y3371998D02*
X11427144Y3343426D01*
X11427144Y3343426D02*
X11412858Y3329140D01*
X11412858Y3329140D02*
X11384287Y3314855D01*
X11384287Y3314855D02*
X11270001Y3314855D01*
X11270001Y3314855D02*
X11270001Y3614855D01*
X11270001Y3614855D02*
X11370001Y3614855D01*
X11370001Y3614855D02*
X11398573Y3600569D01*
X11398573Y3600569D02*
X11412858Y3586283D01*
X11412858Y3586283D02*
X11427144Y3557712D01*
X11427144Y3557712D02*
X11427144Y3529140D01*
X11427144Y3529140D02*
X11412858Y3500569D01*
X11412858Y3500569D02*
X11398573Y3486283D01*
X11398573Y3486283D02*
X11370001Y3471998D01*
X11370001Y3471998D02*
X11270001Y3471998D01*
X11627144Y3614855D02*
X11655715Y3614855D01*
X11655715Y3614855D02*
X11684287Y3600569D01*
X11684287Y3600569D02*
X11698573Y3586283D01*
X11698573Y3586283D02*
X11712858Y3557712D01*
X11712858Y3557712D02*
X11727144Y3500569D01*
X11727144Y3500569D02*
X11727144Y3429140D01*
X11727144Y3429140D02*
X11712858Y3371998D01*
X11712858Y3371998D02*
X11698573Y3343426D01*
X11698573Y3343426D02*
X11684287Y3329140D01*
X11684287Y3329140D02*
X11655715Y3314855D01*
X11655715Y3314855D02*
X11627144Y3314855D01*
X11627144Y3314855D02*
X11598573Y3329140D01*
X11598573Y3329140D02*
X11584287Y3343426D01*
X11584287Y3343426D02*
X11570001Y3371998D01*
X11570001Y3371998D02*
X11555715Y3429140D01*
X11555715Y3429140D02*
X11555715Y3500569D01*
X11555715Y3500569D02*
X11570001Y3557712D01*
X11570001Y3557712D02*
X11584287Y3586283D01*
X11584287Y3586283D02*
X11598573Y3600569D01*
X11598573Y3600569D02*
X11627144Y3614855D01*
X11841429Y3586283D02*
X11855715Y3600569D01*
X11855715Y3600569D02*
X11884287Y3614855D01*
X11884287Y3614855D02*
X11955715Y3614855D01*
X11955715Y3614855D02*
X11984287Y3600569D01*
X11984287Y3600569D02*
X11998572Y3586283D01*
X11998572Y3586283D02*
X12012858Y3557712D01*
X12012858Y3557712D02*
X12012858Y3529140D01*
X12012858Y3529140D02*
X11998572Y3486283D01*
X11998572Y3486283D02*
X11827144Y3314855D01*
X11827144Y3314855D02*
X12012858Y3314855D01*
X12112858Y3614855D02*
X12312858Y3614855D01*
X12312858Y3614855D02*
X12184286Y3314855D01*
X12398572Y3614855D02*
X12584286Y3614855D01*
X12584286Y3614855D02*
X12484286Y3500569D01*
X12484286Y3500569D02*
X12527143Y3500569D01*
X12527143Y3500569D02*
X12555715Y3486283D01*
X12555715Y3486283D02*
X12570000Y3471998D01*
X12570000Y3471998D02*
X12584286Y3443426D01*
X12584286Y3443426D02*
X12584286Y3371998D01*
X12584286Y3371998D02*
X12570000Y3343426D01*
X12570000Y3343426D02*
X12555715Y3329140D01*
X12555715Y3329140D02*
X12527143Y3314855D01*
X12527143Y3314855D02*
X12441429Y3314855D01*
X12441429Y3314855D02*
X12412857Y3329140D01*
X12412857Y3329140D02*
X12398572Y3343426D01*
X12712857Y3429140D02*
X12941429Y3429140D01*
X13070000Y3329140D02*
X13112858Y3314855D01*
X13112858Y3314855D02*
X13184286Y3314855D01*
X13184286Y3314855D02*
X13212858Y3329140D01*
X13212858Y3329140D02*
X13227143Y3343426D01*
X13227143Y3343426D02*
X13241429Y3371998D01*
X13241429Y3371998D02*
X13241429Y3400569D01*
X13241429Y3400569D02*
X13227143Y3429140D01*
X13227143Y3429140D02*
X13212858Y3443426D01*
X13212858Y3443426D02*
X13184286Y3457712D01*
X13184286Y3457712D02*
X13127143Y3471998D01*
X13127143Y3471998D02*
X13098572Y3486283D01*
X13098572Y3486283D02*
X13084286Y3500569D01*
X13084286Y3500569D02*
X13070000Y3529140D01*
X13070000Y3529140D02*
X13070000Y3557712D01*
X13070000Y3557712D02*
X13084286Y3586283D01*
X13084286Y3586283D02*
X13098572Y3600569D01*
X13098572Y3600569D02*
X13127143Y3614855D01*
X13127143Y3614855D02*
X13198572Y3614855D01*
X13198572Y3614855D02*
X13241429Y3600569D01*
X13370000Y3314855D02*
X13370000Y3614855D01*
X13370000Y3614855D02*
X13484286Y3614855D01*
X13484286Y3614855D02*
X13512857Y3600569D01*
X13512857Y3600569D02*
X13527143Y3586283D01*
X13527143Y3586283D02*
X13541429Y3557712D01*
X13541429Y3557712D02*
X13541429Y3514855D01*
X13541429Y3514855D02*
X13527143Y3486283D01*
X13527143Y3486283D02*
X13512857Y3471998D01*
X13512857Y3471998D02*
X13484286Y3457712D01*
X13484286Y3457712D02*
X13370000Y3457712D01*
X13655714Y3586283D02*
X13670000Y3600569D01*
X13670000Y3600569D02*
X13698572Y3614855D01*
X13698572Y3614855D02*
X13770000Y3614855D01*
X13770000Y3614855D02*
X13798572Y3600569D01*
X13798572Y3600569D02*
X13812857Y3586283D01*
X13812857Y3586283D02*
X13827143Y3557712D01*
X13827143Y3557712D02*
X13827143Y3529140D01*
X13827143Y3529140D02*
X13812857Y3486283D01*
X13812857Y3486283D02*
X13641429Y3314855D01*
X13641429Y3314855D02*
X13827143Y3314855D01*
X14098571Y3614855D02*
X13955714Y3614855D01*
X13955714Y3614855D02*
X13941428Y3471998D01*
X13941428Y3471998D02*
X13955714Y3486283D01*
X13955714Y3486283D02*
X13984286Y3500569D01*
X13984286Y3500569D02*
X14055714Y3500569D01*
X14055714Y3500569D02*
X14084286Y3486283D01*
X14084286Y3486283D02*
X14098571Y3471998D01*
X14098571Y3471998D02*
X14112857Y3443426D01*
X14112857Y3443426D02*
X14112857Y3371998D01*
X14112857Y3371998D02*
X14098571Y3343426D01*
X14098571Y3343426D02*
X14084286Y3329140D01*
X14084286Y3329140D02*
X14055714Y3314855D01*
X14055714Y3314855D02*
X13984286Y3314855D01*
X13984286Y3314855D02*
X13955714Y3329140D01*
X13955714Y3329140D02*
X13941428Y3343426D01*
X14298571Y3457712D02*
X14298571Y3314855D01*
X14198571Y3614855D02*
X14298571Y3457712D01*
X14298571Y3457712D02*
X14398571Y3614855D01*
X36732857Y15134855D02*
X36918571Y15134855D01*
X36918571Y15134855D02*
X36818571Y15020569D01*
X36818571Y15020569D02*
X36861428Y15020569D01*
X36861428Y15020569D02*
X36890000Y15006283D01*
X36890000Y15006283D02*
X36904285Y14991998D01*
X36904285Y14991998D02*
X36918571Y14963426D01*
X36918571Y14963426D02*
X36918571Y14891998D01*
X36918571Y14891998D02*
X36904285Y14863426D01*
X36904285Y14863426D02*
X36890000Y14849140D01*
X36890000Y14849140D02*
X36861428Y14834855D01*
X36861428Y14834855D02*
X36775714Y14834855D01*
X36775714Y14834855D02*
X36747142Y14849140D01*
X36747142Y14849140D02*
X36732857Y14863426D01*
X37104285Y15134855D02*
X37132856Y15134855D01*
X37132856Y15134855D02*
X37161428Y15120569D01*
X37161428Y15120569D02*
X37175714Y15106283D01*
X37175714Y15106283D02*
X37189999Y15077712D01*
X37189999Y15077712D02*
X37204285Y15020569D01*
X37204285Y15020569D02*
X37204285Y14949140D01*
X37204285Y14949140D02*
X37189999Y14891998D01*
X37189999Y14891998D02*
X37175714Y14863426D01*
X37175714Y14863426D02*
X37161428Y14849140D01*
X37161428Y14849140D02*
X37132856Y14834855D01*
X37132856Y14834855D02*
X37104285Y14834855D01*
X37104285Y14834855D02*
X37075714Y14849140D01*
X37075714Y14849140D02*
X37061428Y14863426D01*
X37061428Y14863426D02*
X37047142Y14891998D01*
X37047142Y14891998D02*
X37032856Y14949140D01*
X37032856Y14949140D02*
X37032856Y15020569D01*
X37032856Y15020569D02*
X37047142Y15077712D01*
X37047142Y15077712D02*
X37061428Y15106283D01*
X37061428Y15106283D02*
X37075714Y15120569D01*
X37075714Y15120569D02*
X37104285Y15134855D01*
X37332856Y15034855D02*
X37332856Y14734855D01*
X37332856Y15020569D02*
X37361428Y15034855D01*
X37361428Y15034855D02*
X37418570Y15034855D01*
X37418570Y15034855D02*
X37447142Y15020569D01*
X37447142Y15020569D02*
X37461428Y15006283D01*
X37461428Y15006283D02*
X37475713Y14977712D01*
X37475713Y14977712D02*
X37475713Y14891998D01*
X37475713Y14891998D02*
X37461428Y14863426D01*
X37461428Y14863426D02*
X37447142Y14849140D01*
X37447142Y14849140D02*
X37418570Y14834855D01*
X37418570Y14834855D02*
X37361428Y14834855D01*
X37361428Y14834855D02*
X37332856Y14849140D01*
X37704285Y14991998D02*
X37604285Y14991998D01*
X37604285Y14834855D02*
X37604285Y15134855D01*
X37604285Y15134855D02*
X37747142Y15134855D01*
X36996601Y14210008D02*
X36982315Y14195722D01*
X36982315Y14195722D02*
X36939458Y14181437D01*
X36939458Y14181437D02*
X36910886Y14181437D01*
X36910886Y14181437D02*
X36868029Y14195722D01*
X36868029Y14195722D02*
X36839458Y14224294D01*
X36839458Y14224294D02*
X36825172Y14252865D01*
X36825172Y14252865D02*
X36810886Y14310008D01*
X36810886Y14310008D02*
X36810886Y14352865D01*
X36810886Y14352865D02*
X36825172Y14410008D01*
X36825172Y14410008D02*
X36839458Y14438580D01*
X36839458Y14438580D02*
X36868029Y14467151D01*
X36868029Y14467151D02*
X36910886Y14481437D01*
X36910886Y14481437D02*
X36939458Y14481437D01*
X36939458Y14481437D02*
X36982315Y14467151D01*
X36982315Y14467151D02*
X36996601Y14452865D01*
X37282315Y14181437D02*
X37110886Y14181437D01*
X37196601Y14181437D02*
X37196601Y14481437D01*
X37196601Y14481437D02*
X37168029Y14438580D01*
X37168029Y14438580D02*
X37139458Y14410008D01*
X37139458Y14410008D02*
X37110886Y14395722D01*
X37453743Y14352865D02*
X37425172Y14367151D01*
X37425172Y14367151D02*
X37410886Y14381437D01*
X37410886Y14381437D02*
X37396600Y14410008D01*
X37396600Y14410008D02*
X37396600Y14424294D01*
X37396600Y14424294D02*
X37410886Y14452865D01*
X37410886Y14452865D02*
X37425172Y14467151D01*
X37425172Y14467151D02*
X37453743Y14481437D01*
X37453743Y14481437D02*
X37510886Y14481437D01*
X37510886Y14481437D02*
X37539458Y14467151D01*
X37539458Y14467151D02*
X37553743Y14452865D01*
X37553743Y14452865D02*
X37568029Y14424294D01*
X37568029Y14424294D02*
X37568029Y14410008D01*
X37568029Y14410008D02*
X37553743Y14381437D01*
X37553743Y14381437D02*
X37539458Y14367151D01*
X37539458Y14367151D02*
X37510886Y14352865D01*
X37510886Y14352865D02*
X37453743Y14352865D01*
X37453743Y14352865D02*
X37425172Y14338580D01*
X37425172Y14338580D02*
X37410886Y14324294D01*
X37410886Y14324294D02*
X37396600Y14295722D01*
X37396600Y14295722D02*
X37396600Y14238580D01*
X37396600Y14238580D02*
X37410886Y14210008D01*
X37410886Y14210008D02*
X37425172Y14195722D01*
X37425172Y14195722D02*
X37453743Y14181437D01*
X37453743Y14181437D02*
X37510886Y14181437D01*
X37510886Y14181437D02*
X37539458Y14195722D01*
X37539458Y14195722D02*
X37553743Y14210008D01*
X37553743Y14210008D02*
X37568029Y14238580D01*
X37568029Y14238580D02*
X37568029Y14295722D01*
X37568029Y14295722D02*
X37553743Y14324294D01*
X37553743Y14324294D02*
X37539458Y14338580D01*
X37539458Y14338580D02*
X37510886Y14352865D01*
X21727143Y9894855D02*
X21755714Y9894855D01*
X21755714Y9894855D02*
X21784286Y9880569D01*
X21784286Y9880569D02*
X21798572Y9866283D01*
X21798572Y9866283D02*
X21812857Y9837712D01*
X21812857Y9837712D02*
X21827143Y9780569D01*
X21827143Y9780569D02*
X21827143Y9709140D01*
X21827143Y9709140D02*
X21812857Y9651998D01*
X21812857Y9651998D02*
X21798572Y9623426D01*
X21798572Y9623426D02*
X21784286Y9609140D01*
X21784286Y9609140D02*
X21755714Y9594855D01*
X21755714Y9594855D02*
X21727143Y9594855D01*
X21727143Y9594855D02*
X21698572Y9609140D01*
X21698572Y9609140D02*
X21684286Y9623426D01*
X21684286Y9623426D02*
X21670000Y9651998D01*
X21670000Y9651998D02*
X21655714Y9709140D01*
X21655714Y9709140D02*
X21655714Y9780569D01*
X21655714Y9780569D02*
X21670000Y9837712D01*
X21670000Y9837712D02*
X21684286Y9866283D01*
X21684286Y9866283D02*
X21698572Y9880569D01*
X21698572Y9880569D02*
X21727143Y9894855D01*
X21955714Y9623426D02*
X21970000Y9609140D01*
X21970000Y9609140D02*
X21955714Y9594855D01*
X21955714Y9594855D02*
X21941428Y9609140D01*
X21941428Y9609140D02*
X21955714Y9623426D01*
X21955714Y9623426D02*
X21955714Y9594855D01*
X22255714Y9594855D02*
X22084285Y9594855D01*
X22170000Y9594855D02*
X22170000Y9894855D01*
X22170000Y9894855D02*
X22141428Y9851998D01*
X22141428Y9851998D02*
X22112857Y9823426D01*
X22112857Y9823426D02*
X22084285Y9809140D01*
X22512857Y9794855D02*
X22512857Y9594855D01*
X22384285Y9794855D02*
X22384285Y9637712D01*
X22384285Y9637712D02*
X22398571Y9609140D01*
X22398571Y9609140D02*
X22427142Y9594855D01*
X22427142Y9594855D02*
X22469999Y9594855D01*
X22469999Y9594855D02*
X22498571Y9609140D01*
X22498571Y9609140D02*
X22512857Y9623426D01*
X22755714Y9751998D02*
X22655714Y9751998D01*
X22655714Y9594855D02*
X22655714Y9894855D01*
X22655714Y9894855D02*
X22798571Y9894855D01*
X20916913Y9596396D02*
X20902627Y9582110D01*
X20902627Y9582110D02*
X20859770Y9567825D01*
X20859770Y9567825D02*
X20831198Y9567825D01*
X20831198Y9567825D02*
X20788341Y9582110D01*
X20788341Y9582110D02*
X20759770Y9610682D01*
X20759770Y9610682D02*
X20745484Y9639253D01*
X20745484Y9639253D02*
X20731198Y9696396D01*
X20731198Y9696396D02*
X20731198Y9739253D01*
X20731198Y9739253D02*
X20745484Y9796396D01*
X20745484Y9796396D02*
X20759770Y9824968D01*
X20759770Y9824968D02*
X20788341Y9853539D01*
X20788341Y9853539D02*
X20831198Y9867825D01*
X20831198Y9867825D02*
X20859770Y9867825D01*
X20859770Y9867825D02*
X20902627Y9853539D01*
X20902627Y9853539D02*
X20916913Y9839253D01*
X21016913Y9867825D02*
X21216913Y9867825D01*
X21216913Y9867825D02*
X21088341Y9567825D01*
X21771428Y12941283D02*
X21785714Y12955569D01*
X21785714Y12955569D02*
X21814286Y12969855D01*
X21814286Y12969855D02*
X21885714Y12969855D01*
X21885714Y12969855D02*
X21914286Y12955569D01*
X21914286Y12955569D02*
X21928571Y12941283D01*
X21928571Y12941283D02*
X21942857Y12912712D01*
X21942857Y12912712D02*
X21942857Y12884140D01*
X21942857Y12884140D02*
X21928571Y12841283D01*
X21928571Y12841283D02*
X21757143Y12669855D01*
X21757143Y12669855D02*
X21942857Y12669855D01*
X22042857Y12969855D02*
X22242857Y12969855D01*
X22242857Y12969855D02*
X22114285Y12669855D01*
X22528571Y12669855D02*
X22428571Y12812712D01*
X22357142Y12669855D02*
X22357142Y12969855D01*
X22357142Y12969855D02*
X22471428Y12969855D01*
X22471428Y12969855D02*
X22499999Y12955569D01*
X22499999Y12955569D02*
X22514285Y12941283D01*
X22514285Y12941283D02*
X22528571Y12912712D01*
X22528571Y12912712D02*
X22528571Y12869855D01*
X22528571Y12869855D02*
X22514285Y12841283D01*
X22514285Y12841283D02*
X22499999Y12826998D01*
X22499999Y12826998D02*
X22471428Y12812712D01*
X22471428Y12812712D02*
X22357142Y12812712D01*
X21000000Y12689855D02*
X20900000Y12832712D01*
X20828571Y12689855D02*
X20828571Y12989855D01*
X20828571Y12989855D02*
X20942857Y12989855D01*
X20942857Y12989855D02*
X20971428Y12975569D01*
X20971428Y12975569D02*
X20985714Y12961283D01*
X20985714Y12961283D02*
X21000000Y12932712D01*
X21000000Y12932712D02*
X21000000Y12889855D01*
X21000000Y12889855D02*
X20985714Y12861283D01*
X20985714Y12861283D02*
X20971428Y12846998D01*
X20971428Y12846998D02*
X20942857Y12832712D01*
X20942857Y12832712D02*
X20828571Y12832712D01*
X21257143Y12989855D02*
X21200000Y12989855D01*
X21200000Y12989855D02*
X21171428Y12975569D01*
X21171428Y12975569D02*
X21157143Y12961283D01*
X21157143Y12961283D02*
X21128571Y12918426D01*
X21128571Y12918426D02*
X21114285Y12861283D01*
X21114285Y12861283D02*
X21114285Y12746998D01*
X21114285Y12746998D02*
X21128571Y12718426D01*
X21128571Y12718426D02*
X21142857Y12704140D01*
X21142857Y12704140D02*
X21171428Y12689855D01*
X21171428Y12689855D02*
X21228571Y12689855D01*
X21228571Y12689855D02*
X21257143Y12704140D01*
X21257143Y12704140D02*
X21271428Y12718426D01*
X21271428Y12718426D02*
X21285714Y12746998D01*
X21285714Y12746998D02*
X21285714Y12818426D01*
X21285714Y12818426D02*
X21271428Y12846998D01*
X21271428Y12846998D02*
X21257143Y12861283D01*
X21257143Y12861283D02*
X21228571Y12875569D01*
X21228571Y12875569D02*
X21171428Y12875569D01*
X21171428Y12875569D02*
X21142857Y12861283D01*
X21142857Y12861283D02*
X21128571Y12846998D01*
X21128571Y12846998D02*
X21114285Y12818426D01*
X24564285Y964855D02*
X24564285Y1264855D01*
X24564285Y1121998D02*
X24735714Y1121998D01*
X24735714Y964855D02*
X24735714Y1264855D01*
X24992857Y979140D02*
X24964285Y964855D01*
X24964285Y964855D02*
X24907143Y964855D01*
X24907143Y964855D02*
X24878571Y979140D01*
X24878571Y979140D02*
X24864285Y1007712D01*
X24864285Y1007712D02*
X24864285Y1121998D01*
X24864285Y1121998D02*
X24878571Y1150569D01*
X24878571Y1150569D02*
X24907143Y1164855D01*
X24907143Y1164855D02*
X24964285Y1164855D01*
X24964285Y1164855D02*
X24992857Y1150569D01*
X24992857Y1150569D02*
X25007143Y1121998D01*
X25007143Y1121998D02*
X25007143Y1093426D01*
X25007143Y1093426D02*
X24864285Y1064855D01*
X25264286Y964855D02*
X25264286Y1121998D01*
X25264286Y1121998D02*
X25250000Y1150569D01*
X25250000Y1150569D02*
X25221428Y1164855D01*
X25221428Y1164855D02*
X25164286Y1164855D01*
X25164286Y1164855D02*
X25135714Y1150569D01*
X25264286Y979140D02*
X25235714Y964855D01*
X25235714Y964855D02*
X25164286Y964855D01*
X25164286Y964855D02*
X25135714Y979140D01*
X25135714Y979140D02*
X25121428Y1007712D01*
X25121428Y1007712D02*
X25121428Y1036283D01*
X25121428Y1036283D02*
X25135714Y1064855D01*
X25135714Y1064855D02*
X25164286Y1079140D01*
X25164286Y1079140D02*
X25235714Y1079140D01*
X25235714Y1079140D02*
X25264286Y1093426D01*
X25535715Y964855D02*
X25535715Y1264855D01*
X25535715Y979140D02*
X25507143Y964855D01*
X25507143Y964855D02*
X25450000Y964855D01*
X25450000Y964855D02*
X25421429Y979140D01*
X25421429Y979140D02*
X25407143Y993426D01*
X25407143Y993426D02*
X25392857Y1021998D01*
X25392857Y1021998D02*
X25392857Y1107712D01*
X25392857Y1107712D02*
X25407143Y1136283D01*
X25407143Y1136283D02*
X25421429Y1150569D01*
X25421429Y1150569D02*
X25450000Y1164855D01*
X25450000Y1164855D02*
X25507143Y1164855D01*
X25507143Y1164855D02*
X25535715Y1150569D01*
X25792858Y979140D02*
X25764286Y964855D01*
X25764286Y964855D02*
X25707144Y964855D01*
X25707144Y964855D02*
X25678572Y979140D01*
X25678572Y979140D02*
X25664286Y1007712D01*
X25664286Y1007712D02*
X25664286Y1121998D01*
X25664286Y1121998D02*
X25678572Y1150569D01*
X25678572Y1150569D02*
X25707144Y1164855D01*
X25707144Y1164855D02*
X25764286Y1164855D01*
X25764286Y1164855D02*
X25792858Y1150569D01*
X25792858Y1150569D02*
X25807144Y1121998D01*
X25807144Y1121998D02*
X25807144Y1093426D01*
X25807144Y1093426D02*
X25664286Y1064855D01*
X25935715Y964855D02*
X25935715Y1164855D01*
X25935715Y1107712D02*
X25950001Y1136283D01*
X25950001Y1136283D02*
X25964287Y1150569D01*
X25964287Y1150569D02*
X25992858Y1164855D01*
X25992858Y1164855D02*
X26021429Y1164855D01*
X26121429Y1079140D02*
X26350001Y1079140D01*
X26650001Y964855D02*
X26478572Y964855D01*
X26564287Y964855D02*
X26564287Y1264855D01*
X26564287Y1264855D02*
X26535715Y1221998D01*
X26535715Y1221998D02*
X26507144Y1193426D01*
X26507144Y1193426D02*
X26478572Y1179140D01*
X25330000Y1764855D02*
X25330000Y1550569D01*
X25330000Y1550569D02*
X25315715Y1507712D01*
X25315715Y1507712D02*
X25287143Y1479140D01*
X25287143Y1479140D02*
X25244286Y1464855D01*
X25244286Y1464855D02*
X25215715Y1464855D01*
X25444286Y1764855D02*
X25630000Y1764855D01*
X25630000Y1764855D02*
X25530000Y1650569D01*
X25530000Y1650569D02*
X25572857Y1650569D01*
X25572857Y1650569D02*
X25601429Y1636283D01*
X25601429Y1636283D02*
X25615714Y1621998D01*
X25615714Y1621998D02*
X25630000Y1593426D01*
X25630000Y1593426D02*
X25630000Y1521998D01*
X25630000Y1521998D02*
X25615714Y1493426D01*
X25615714Y1493426D02*
X25601429Y1479140D01*
X25601429Y1479140D02*
X25572857Y1464855D01*
X25572857Y1464855D02*
X25487143Y1464855D01*
X25487143Y1464855D02*
X25458571Y1479140D01*
X25458571Y1479140D02*
X25444286Y1493426D01*
X17533717Y14570715D02*
X17519431Y14585001D01*
X17519431Y14585001D02*
X17505145Y14613572D01*
X17505145Y14613572D02*
X17505145Y14685001D01*
X17505145Y14685001D02*
X17519431Y14713572D01*
X17519431Y14713572D02*
X17533717Y14727858D01*
X17533717Y14727858D02*
X17562288Y14742144D01*
X17562288Y14742144D02*
X17590860Y14742144D01*
X17590860Y14742144D02*
X17633717Y14727858D01*
X17633717Y14727858D02*
X17805145Y14556430D01*
X17805145Y14556430D02*
X17805145Y14742144D01*
X17776574Y14870715D02*
X17790860Y14885001D01*
X17790860Y14885001D02*
X17805145Y14870715D01*
X17805145Y14870715D02*
X17790860Y14856429D01*
X17790860Y14856429D02*
X17776574Y14870715D01*
X17776574Y14870715D02*
X17805145Y14870715D01*
X17533717Y14999286D02*
X17519431Y15013572D01*
X17519431Y15013572D02*
X17505145Y15042143D01*
X17505145Y15042143D02*
X17505145Y15113572D01*
X17505145Y15113572D02*
X17519431Y15142143D01*
X17519431Y15142143D02*
X17533717Y15156429D01*
X17533717Y15156429D02*
X17562288Y15170715D01*
X17562288Y15170715D02*
X17590860Y15170715D01*
X17590860Y15170715D02*
X17633717Y15156429D01*
X17633717Y15156429D02*
X17805145Y14985001D01*
X17805145Y14985001D02*
X17805145Y15170715D01*
X17605145Y15427857D02*
X17805145Y15427857D01*
X17605145Y15299286D02*
X17762288Y15299286D01*
X17762288Y15299286D02*
X17790860Y15313572D01*
X17790860Y15313572D02*
X17805145Y15342143D01*
X17805145Y15342143D02*
X17805145Y15385000D01*
X17805145Y15385000D02*
X17790860Y15413572D01*
X17790860Y15413572D02*
X17776574Y15427857D01*
X17648002Y15670715D02*
X17648002Y15570715D01*
X17805145Y15570715D02*
X17505145Y15570715D01*
X17505145Y15570715D02*
X17505145Y15713572D01*
X17286574Y14882144D02*
X17300860Y14867858D01*
X17300860Y14867858D02*
X17315145Y14825001D01*
X17315145Y14825001D02*
X17315145Y14796429D01*
X17315145Y14796429D02*
X17300860Y14753572D01*
X17300860Y14753572D02*
X17272288Y14725001D01*
X17272288Y14725001D02*
X17243717Y14710715D01*
X17243717Y14710715D02*
X17186574Y14696429D01*
X17186574Y14696429D02*
X17143717Y14696429D01*
X17143717Y14696429D02*
X17086574Y14710715D01*
X17086574Y14710715D02*
X17058002Y14725001D01*
X17058002Y14725001D02*
X17029431Y14753572D01*
X17029431Y14753572D02*
X17015145Y14796429D01*
X17015145Y14796429D02*
X17015145Y14825001D01*
X17015145Y14825001D02*
X17029431Y14867858D01*
X17029431Y14867858D02*
X17043717Y14882144D01*
X17315145Y15167858D02*
X17315145Y14996429D01*
X17315145Y15082144D02*
X17015145Y15082144D01*
X17015145Y15082144D02*
X17058002Y15053572D01*
X17058002Y15053572D02*
X17086574Y15025001D01*
X17086574Y15025001D02*
X17100860Y14996429D01*
X17115145Y15425000D02*
X17315145Y15425000D01*
X17000860Y15353572D02*
X17215145Y15282143D01*
X17215145Y15282143D02*
X17215145Y15467858D01*
X7555145Y14107144D02*
X7555145Y13964287D01*
X7555145Y13964287D02*
X7698002Y13950001D01*
X7698002Y13950001D02*
X7683717Y13964287D01*
X7683717Y13964287D02*
X7669431Y13992858D01*
X7669431Y13992858D02*
X7669431Y14064287D01*
X7669431Y14064287D02*
X7683717Y14092858D01*
X7683717Y14092858D02*
X7698002Y14107144D01*
X7698002Y14107144D02*
X7726574Y14121430D01*
X7726574Y14121430D02*
X7798002Y14121430D01*
X7798002Y14121430D02*
X7826574Y14107144D01*
X7826574Y14107144D02*
X7840860Y14092858D01*
X7840860Y14092858D02*
X7855145Y14064287D01*
X7855145Y14064287D02*
X7855145Y13992858D01*
X7855145Y13992858D02*
X7840860Y13964287D01*
X7840860Y13964287D02*
X7826574Y13950001D01*
X7826574Y14250001D02*
X7840860Y14264287D01*
X7840860Y14264287D02*
X7855145Y14250001D01*
X7855145Y14250001D02*
X7840860Y14235715D01*
X7840860Y14235715D02*
X7826574Y14250001D01*
X7826574Y14250001D02*
X7855145Y14250001D01*
X7855145Y14550001D02*
X7855145Y14378572D01*
X7855145Y14464287D02*
X7555145Y14464287D01*
X7555145Y14464287D02*
X7598002Y14435715D01*
X7598002Y14435715D02*
X7626574Y14407144D01*
X7626574Y14407144D02*
X7640860Y14378572D01*
X7855145Y14678572D02*
X7555145Y14678572D01*
X7855145Y14850001D02*
X7683717Y14721429D01*
X7555145Y14850001D02*
X7726574Y14678572D01*
X8448057Y14338955D02*
X8305200Y14238955D01*
X8448057Y14167526D02*
X8148057Y14167526D01*
X8148057Y14167526D02*
X8148057Y14281812D01*
X8148057Y14281812D02*
X8162343Y14310383D01*
X8162343Y14310383D02*
X8176629Y14324669D01*
X8176629Y14324669D02*
X8205200Y14338955D01*
X8205200Y14338955D02*
X8248057Y14338955D01*
X8248057Y14338955D02*
X8276629Y14324669D01*
X8276629Y14324669D02*
X8290914Y14310383D01*
X8290914Y14310383D02*
X8305200Y14281812D01*
X8305200Y14281812D02*
X8305200Y14167526D01*
X8148057Y14438955D02*
X8148057Y14624669D01*
X8148057Y14624669D02*
X8262343Y14524669D01*
X8262343Y14524669D02*
X8262343Y14567526D01*
X8262343Y14567526D02*
X8276629Y14596097D01*
X8276629Y14596097D02*
X8290914Y14610383D01*
X8290914Y14610383D02*
X8319486Y14624669D01*
X8319486Y14624669D02*
X8390914Y14624669D01*
X8390914Y14624669D02*
X8419486Y14610383D01*
X8419486Y14610383D02*
X8433772Y14596097D01*
X8433772Y14596097D02*
X8448057Y14567526D01*
X8448057Y14567526D02*
X8448057Y14481812D01*
X8448057Y14481812D02*
X8433772Y14453240D01*
X8433772Y14453240D02*
X8419486Y14438955D01*
X12721429Y16394855D02*
X12721429Y16694855D01*
X12721429Y16694855D02*
X12821429Y16480569D01*
X12821429Y16480569D02*
X12921429Y16694855D01*
X12921429Y16694855D02*
X12921429Y16394855D01*
X13064286Y16394855D02*
X13064286Y16694855D01*
X13378572Y16423426D02*
X13364286Y16409140D01*
X13364286Y16409140D02*
X13321429Y16394855D01*
X13321429Y16394855D02*
X13292857Y16394855D01*
X13292857Y16394855D02*
X13250000Y16409140D01*
X13250000Y16409140D02*
X13221429Y16437712D01*
X13221429Y16437712D02*
X13207143Y16466283D01*
X13207143Y16466283D02*
X13192857Y16523426D01*
X13192857Y16523426D02*
X13192857Y16566283D01*
X13192857Y16566283D02*
X13207143Y16623426D01*
X13207143Y16623426D02*
X13221429Y16651998D01*
X13221429Y16651998D02*
X13250000Y16680569D01*
X13250000Y16680569D02*
X13292857Y16694855D01*
X13292857Y16694855D02*
X13321429Y16694855D01*
X13321429Y16694855D02*
X13364286Y16680569D01*
X13364286Y16680569D02*
X13378572Y16666283D01*
X13650000Y16694855D02*
X13507143Y16694855D01*
X13507143Y16694855D02*
X13492857Y16551998D01*
X13492857Y16551998D02*
X13507143Y16566283D01*
X13507143Y16566283D02*
X13535715Y16580569D01*
X13535715Y16580569D02*
X13607143Y16580569D01*
X13607143Y16580569D02*
X13635715Y16566283D01*
X13635715Y16566283D02*
X13650000Y16551998D01*
X13650000Y16551998D02*
X13664286Y16523426D01*
X13664286Y16523426D02*
X13664286Y16451998D01*
X13664286Y16451998D02*
X13650000Y16423426D01*
X13650000Y16423426D02*
X13635715Y16409140D01*
X13635715Y16409140D02*
X13607143Y16394855D01*
X13607143Y16394855D02*
X13535715Y16394855D01*
X13535715Y16394855D02*
X13507143Y16409140D01*
X13507143Y16409140D02*
X13492857Y16423426D01*
X13778571Y16666283D02*
X13792857Y16680569D01*
X13792857Y16680569D02*
X13821429Y16694855D01*
X13821429Y16694855D02*
X13892857Y16694855D01*
X13892857Y16694855D02*
X13921429Y16680569D01*
X13921429Y16680569D02*
X13935714Y16666283D01*
X13935714Y16666283D02*
X13950000Y16637712D01*
X13950000Y16637712D02*
X13950000Y16609140D01*
X13950000Y16609140D02*
X13935714Y16566283D01*
X13935714Y16566283D02*
X13764286Y16394855D01*
X13764286Y16394855D02*
X13950000Y16394855D01*
X14235714Y16394855D02*
X14064285Y16394855D01*
X14150000Y16394855D02*
X14150000Y16694855D01*
X14150000Y16694855D02*
X14121428Y16651998D01*
X14121428Y16651998D02*
X14092857Y16623426D01*
X14092857Y16623426D02*
X14064285Y16609140D01*
X14378571Y16394855D02*
X14435714Y16394855D01*
X14435714Y16394855D02*
X14464285Y16409140D01*
X14464285Y16409140D02*
X14478571Y16423426D01*
X14478571Y16423426D02*
X14507142Y16466283D01*
X14507142Y16466283D02*
X14521428Y16523426D01*
X14521428Y16523426D02*
X14521428Y16637712D01*
X14521428Y16637712D02*
X14507142Y16666283D01*
X14507142Y16666283D02*
X14492857Y16680569D01*
X14492857Y16680569D02*
X14464285Y16694855D01*
X14464285Y16694855D02*
X14407142Y16694855D01*
X14407142Y16694855D02*
X14378571Y16680569D01*
X14378571Y16680569D02*
X14364285Y16666283D01*
X14364285Y16666283D02*
X14349999Y16637712D01*
X14349999Y16637712D02*
X14349999Y16566283D01*
X14349999Y16566283D02*
X14364285Y16537712D01*
X14364285Y16537712D02*
X14378571Y16523426D01*
X14378571Y16523426D02*
X14407142Y16509140D01*
X14407142Y16509140D02*
X14464285Y16509140D01*
X14464285Y16509140D02*
X14492857Y16523426D01*
X14492857Y16523426D02*
X14507142Y16537712D01*
X14507142Y16537712D02*
X14521428Y16566283D01*
X14649999Y16509140D02*
X14878571Y16509140D01*
X14992857Y16694855D02*
X15178571Y16694855D01*
X15178571Y16694855D02*
X15078571Y16580569D01*
X15078571Y16580569D02*
X15121428Y16580569D01*
X15121428Y16580569D02*
X15150000Y16566283D01*
X15150000Y16566283D02*
X15164285Y16551998D01*
X15164285Y16551998D02*
X15178571Y16523426D01*
X15178571Y16523426D02*
X15178571Y16451998D01*
X15178571Y16451998D02*
X15164285Y16423426D01*
X15164285Y16423426D02*
X15150000Y16409140D01*
X15150000Y16409140D02*
X15121428Y16394855D01*
X15121428Y16394855D02*
X15035714Y16394855D01*
X15035714Y16394855D02*
X15007142Y16409140D01*
X15007142Y16409140D02*
X14992857Y16423426D01*
X15307142Y16423426D02*
X15321428Y16409140D01*
X15321428Y16409140D02*
X15307142Y16394855D01*
X15307142Y16394855D02*
X15292856Y16409140D01*
X15292856Y16409140D02*
X15307142Y16423426D01*
X15307142Y16423426D02*
X15307142Y16394855D01*
X15421428Y16694855D02*
X15607142Y16694855D01*
X15607142Y16694855D02*
X15507142Y16580569D01*
X15507142Y16580569D02*
X15549999Y16580569D01*
X15549999Y16580569D02*
X15578571Y16566283D01*
X15578571Y16566283D02*
X15592856Y16551998D01*
X15592856Y16551998D02*
X15607142Y16523426D01*
X15607142Y16523426D02*
X15607142Y16451998D01*
X15607142Y16451998D02*
X15592856Y16423426D01*
X15592856Y16423426D02*
X15578571Y16409140D01*
X15578571Y16409140D02*
X15549999Y16394855D01*
X15549999Y16394855D02*
X15464285Y16394855D01*
X15464285Y16394855D02*
X15435713Y16409140D01*
X15435713Y16409140D02*
X15421428Y16423426D01*
X15792856Y16537712D02*
X15792856Y16394855D01*
X15692856Y16694855D02*
X15792856Y16537712D01*
X15792856Y16537712D02*
X15892856Y16694855D01*
X15992856Y16394855D02*
X15992856Y16694855D01*
X15992856Y16694855D02*
X16092856Y16480569D01*
X16092856Y16480569D02*
X16192856Y16694855D01*
X16192856Y16694855D02*
X16192856Y16394855D01*
X16478570Y16694855D02*
X16335713Y16694855D01*
X16335713Y16694855D02*
X16321427Y16551998D01*
X16321427Y16551998D02*
X16335713Y16566283D01*
X16335713Y16566283D02*
X16364285Y16580569D01*
X16364285Y16580569D02*
X16435713Y16580569D01*
X16435713Y16580569D02*
X16464285Y16566283D01*
X16464285Y16566283D02*
X16478570Y16551998D01*
X16478570Y16551998D02*
X16492856Y16523426D01*
X16492856Y16523426D02*
X16492856Y16451998D01*
X16492856Y16451998D02*
X16478570Y16423426D01*
X16478570Y16423426D02*
X16464285Y16409140D01*
X16464285Y16409140D02*
X16435713Y16394855D01*
X16435713Y16394855D02*
X16364285Y16394855D01*
X16364285Y16394855D02*
X16335713Y16409140D01*
X16335713Y16409140D02*
X16321427Y16423426D01*
X14505145Y15121429D02*
X14748002Y15121429D01*
X14748002Y15121429D02*
X14776574Y15135715D01*
X14776574Y15135715D02*
X14790860Y15150000D01*
X14790860Y15150000D02*
X14805145Y15178572D01*
X14805145Y15178572D02*
X14805145Y15235715D01*
X14805145Y15235715D02*
X14790860Y15264286D01*
X14790860Y15264286D02*
X14776574Y15278572D01*
X14776574Y15278572D02*
X14748002Y15292858D01*
X14748002Y15292858D02*
X14505145Y15292858D01*
X14533717Y15421429D02*
X14519431Y15435715D01*
X14519431Y15435715D02*
X14505145Y15464286D01*
X14505145Y15464286D02*
X14505145Y15535715D01*
X14505145Y15535715D02*
X14519431Y15564286D01*
X14519431Y15564286D02*
X14533717Y15578572D01*
X14533717Y15578572D02*
X14562288Y15592858D01*
X14562288Y15592858D02*
X14590860Y15592858D01*
X14590860Y15592858D02*
X14633717Y15578572D01*
X14633717Y15578572D02*
X14805145Y15407144D01*
X14805145Y15407144D02*
X14805145Y15592858D01*
X20677143Y7824855D02*
X20534286Y7824855D01*
X20534286Y7824855D02*
X20520000Y7681998D01*
X20520000Y7681998D02*
X20534286Y7696283D01*
X20534286Y7696283D02*
X20562858Y7710569D01*
X20562858Y7710569D02*
X20634286Y7710569D01*
X20634286Y7710569D02*
X20662858Y7696283D01*
X20662858Y7696283D02*
X20677143Y7681998D01*
X20677143Y7681998D02*
X20691429Y7653426D01*
X20691429Y7653426D02*
X20691429Y7581998D01*
X20691429Y7581998D02*
X20677143Y7553426D01*
X20677143Y7553426D02*
X20662858Y7539140D01*
X20662858Y7539140D02*
X20634286Y7524855D01*
X20634286Y7524855D02*
X20562858Y7524855D01*
X20562858Y7524855D02*
X20534286Y7539140D01*
X20534286Y7539140D02*
X20520000Y7553426D01*
X20820000Y7553426D02*
X20834286Y7539140D01*
X20834286Y7539140D02*
X20820000Y7524855D01*
X20820000Y7524855D02*
X20805714Y7539140D01*
X20805714Y7539140D02*
X20820000Y7553426D01*
X20820000Y7553426D02*
X20820000Y7524855D01*
X21120000Y7524855D02*
X20948571Y7524855D01*
X21034286Y7524855D02*
X21034286Y7824855D01*
X21034286Y7824855D02*
X21005714Y7781998D01*
X21005714Y7781998D02*
X20977143Y7753426D01*
X20977143Y7753426D02*
X20948571Y7739140D01*
X21248571Y7524855D02*
X21248571Y7824855D01*
X21420000Y7524855D02*
X21291428Y7696283D01*
X21420000Y7824855D02*
X21248571Y7653426D01*
X20777143Y8194855D02*
X20677143Y8337712D01*
X20605714Y8194855D02*
X20605714Y8494855D01*
X20605714Y8494855D02*
X20720000Y8494855D01*
X20720000Y8494855D02*
X20748571Y8480569D01*
X20748571Y8480569D02*
X20762857Y8466283D01*
X20762857Y8466283D02*
X20777143Y8437712D01*
X20777143Y8437712D02*
X20777143Y8394855D01*
X20777143Y8394855D02*
X20762857Y8366283D01*
X20762857Y8366283D02*
X20748571Y8351998D01*
X20748571Y8351998D02*
X20720000Y8337712D01*
X20720000Y8337712D02*
X20605714Y8337712D01*
X21062857Y8194855D02*
X20891428Y8194855D01*
X20977143Y8194855D02*
X20977143Y8494855D01*
X20977143Y8494855D02*
X20948571Y8451998D01*
X20948571Y8451998D02*
X20920000Y8423426D01*
X20920000Y8423426D02*
X20891428Y8409140D01*
X21348571Y8194855D02*
X21177142Y8194855D01*
X21262857Y8194855D02*
X21262857Y8494855D01*
X21262857Y8494855D02*
X21234285Y8451998D01*
X21234285Y8451998D02*
X21205714Y8423426D01*
X21205714Y8423426D02*
X21177142Y8409140D01*
X16679286Y3619855D02*
X16679286Y3376998D01*
X16679286Y3376998D02*
X16693572Y3348426D01*
X16693572Y3348426D02*
X16707858Y3334140D01*
X16707858Y3334140D02*
X16736429Y3319855D01*
X16736429Y3319855D02*
X16793572Y3319855D01*
X16793572Y3319855D02*
X16822143Y3334140D01*
X16822143Y3334140D02*
X16836429Y3348426D01*
X16836429Y3348426D02*
X16850715Y3376998D01*
X16850715Y3376998D02*
X16850715Y3619855D01*
X16993572Y3319855D02*
X16993572Y3619855D01*
X17165001Y3319855D02*
X17036429Y3491283D01*
X17165001Y3619855D02*
X16993572Y3448426D01*
X17293572Y3434140D02*
X17522144Y3434140D01*
X17765001Y3476998D02*
X17807858Y3462712D01*
X17807858Y3462712D02*
X17822144Y3448426D01*
X17822144Y3448426D02*
X17836430Y3419855D01*
X17836430Y3419855D02*
X17836430Y3376998D01*
X17836430Y3376998D02*
X17822144Y3348426D01*
X17822144Y3348426D02*
X17807858Y3334140D01*
X17807858Y3334140D02*
X17779287Y3319855D01*
X17779287Y3319855D02*
X17665001Y3319855D01*
X17665001Y3319855D02*
X17665001Y3619855D01*
X17665001Y3619855D02*
X17765001Y3619855D01*
X17765001Y3619855D02*
X17793573Y3605569D01*
X17793573Y3605569D02*
X17807858Y3591283D01*
X17807858Y3591283D02*
X17822144Y3562712D01*
X17822144Y3562712D02*
X17822144Y3534140D01*
X17822144Y3534140D02*
X17807858Y3505569D01*
X17807858Y3505569D02*
X17793573Y3491283D01*
X17793573Y3491283D02*
X17765001Y3476998D01*
X17765001Y3476998D02*
X17665001Y3476998D01*
X18022144Y3619855D02*
X18050715Y3619855D01*
X18050715Y3619855D02*
X18079287Y3605569D01*
X18079287Y3605569D02*
X18093573Y3591283D01*
X18093573Y3591283D02*
X18107858Y3562712D01*
X18107858Y3562712D02*
X18122144Y3505569D01*
X18122144Y3505569D02*
X18122144Y3434140D01*
X18122144Y3434140D02*
X18107858Y3376998D01*
X18107858Y3376998D02*
X18093573Y3348426D01*
X18093573Y3348426D02*
X18079287Y3334140D01*
X18079287Y3334140D02*
X18050715Y3319855D01*
X18050715Y3319855D02*
X18022144Y3319855D01*
X18022144Y3319855D02*
X17993573Y3334140D01*
X17993573Y3334140D02*
X17979287Y3348426D01*
X17979287Y3348426D02*
X17965001Y3376998D01*
X17965001Y3376998D02*
X17950715Y3434140D01*
X17950715Y3434140D02*
X17950715Y3505569D01*
X17950715Y3505569D02*
X17965001Y3562712D01*
X17965001Y3562712D02*
X17979287Y3591283D01*
X17979287Y3591283D02*
X17993573Y3605569D01*
X17993573Y3605569D02*
X18022144Y3619855D01*
X18236429Y3591283D02*
X18250715Y3605569D01*
X18250715Y3605569D02*
X18279287Y3619855D01*
X18279287Y3619855D02*
X18350715Y3619855D01*
X18350715Y3619855D02*
X18379287Y3605569D01*
X18379287Y3605569D02*
X18393572Y3591283D01*
X18393572Y3591283D02*
X18407858Y3562712D01*
X18407858Y3562712D02*
X18407858Y3534140D01*
X18407858Y3534140D02*
X18393572Y3491283D01*
X18393572Y3491283D02*
X18222144Y3319855D01*
X18222144Y3319855D02*
X18407858Y3319855D01*
X18507858Y3619855D02*
X18707858Y3619855D01*
X18707858Y3619855D02*
X18579286Y3319855D01*
X18793572Y3619855D02*
X18979286Y3619855D01*
X18979286Y3619855D02*
X18879286Y3505569D01*
X18879286Y3505569D02*
X18922143Y3505569D01*
X18922143Y3505569D02*
X18950715Y3491283D01*
X18950715Y3491283D02*
X18965000Y3476998D01*
X18965000Y3476998D02*
X18979286Y3448426D01*
X18979286Y3448426D02*
X18979286Y3376998D01*
X18979286Y3376998D02*
X18965000Y3348426D01*
X18965000Y3348426D02*
X18950715Y3334140D01*
X18950715Y3334140D02*
X18922143Y3319855D01*
X18922143Y3319855D02*
X18836429Y3319855D01*
X18836429Y3319855D02*
X18807857Y3334140D01*
X18807857Y3334140D02*
X18793572Y3348426D01*
X19107857Y3434140D02*
X19336429Y3434140D01*
X19465000Y3334140D02*
X19507858Y3319855D01*
X19507858Y3319855D02*
X19579286Y3319855D01*
X19579286Y3319855D02*
X19607858Y3334140D01*
X19607858Y3334140D02*
X19622143Y3348426D01*
X19622143Y3348426D02*
X19636429Y3376998D01*
X19636429Y3376998D02*
X19636429Y3405569D01*
X19636429Y3405569D02*
X19622143Y3434140D01*
X19622143Y3434140D02*
X19607858Y3448426D01*
X19607858Y3448426D02*
X19579286Y3462712D01*
X19579286Y3462712D02*
X19522143Y3476998D01*
X19522143Y3476998D02*
X19493572Y3491283D01*
X19493572Y3491283D02*
X19479286Y3505569D01*
X19479286Y3505569D02*
X19465000Y3534140D01*
X19465000Y3534140D02*
X19465000Y3562712D01*
X19465000Y3562712D02*
X19479286Y3591283D01*
X19479286Y3591283D02*
X19493572Y3605569D01*
X19493572Y3605569D02*
X19522143Y3619855D01*
X19522143Y3619855D02*
X19593572Y3619855D01*
X19593572Y3619855D02*
X19636429Y3605569D01*
X19765000Y3319855D02*
X19765000Y3619855D01*
X19765000Y3619855D02*
X19879286Y3619855D01*
X19879286Y3619855D02*
X19907857Y3605569D01*
X19907857Y3605569D02*
X19922143Y3591283D01*
X19922143Y3591283D02*
X19936429Y3562712D01*
X19936429Y3562712D02*
X19936429Y3519855D01*
X19936429Y3519855D02*
X19922143Y3491283D01*
X19922143Y3491283D02*
X19907857Y3476998D01*
X19907857Y3476998D02*
X19879286Y3462712D01*
X19879286Y3462712D02*
X19765000Y3462712D01*
X20050714Y3591283D02*
X20065000Y3605569D01*
X20065000Y3605569D02*
X20093572Y3619855D01*
X20093572Y3619855D02*
X20165000Y3619855D01*
X20165000Y3619855D02*
X20193572Y3605569D01*
X20193572Y3605569D02*
X20207857Y3591283D01*
X20207857Y3591283D02*
X20222143Y3562712D01*
X20222143Y3562712D02*
X20222143Y3534140D01*
X20222143Y3534140D02*
X20207857Y3491283D01*
X20207857Y3491283D02*
X20036429Y3319855D01*
X20036429Y3319855D02*
X20222143Y3319855D01*
X20493571Y3619855D02*
X20350714Y3619855D01*
X20350714Y3619855D02*
X20336428Y3476998D01*
X20336428Y3476998D02*
X20350714Y3491283D01*
X20350714Y3491283D02*
X20379286Y3505569D01*
X20379286Y3505569D02*
X20450714Y3505569D01*
X20450714Y3505569D02*
X20479286Y3491283D01*
X20479286Y3491283D02*
X20493571Y3476998D01*
X20493571Y3476998D02*
X20507857Y3448426D01*
X20507857Y3448426D02*
X20507857Y3376998D01*
X20507857Y3376998D02*
X20493571Y3348426D01*
X20493571Y3348426D02*
X20479286Y3334140D01*
X20479286Y3334140D02*
X20450714Y3319855D01*
X20450714Y3319855D02*
X20379286Y3319855D01*
X20379286Y3319855D02*
X20350714Y3334140D01*
X20350714Y3334140D02*
X20336428Y3348426D01*
X20693571Y3462712D02*
X20693571Y3319855D01*
X20593571Y3619855D02*
X20693571Y3462712D01*
X20693571Y3462712D02*
X20793571Y3619855D01*
D12*
%TO.C,J2*%
X6080000Y14980000D02*
X-1220000Y14980000D01*
X6080000Y14980000D02*
X6080000Y6040000D01*
X-1220000Y14980000D02*
X-1220000Y6040000D01*
X6080000Y6040000D02*
X-1220000Y6040000D01*
%TO.C,JP5*%
X31185000Y17670000D02*
X32235000Y17670000D01*
X31185000Y17130000D02*
X31185000Y17670000D01*
X32235000Y17670000D02*
X32235000Y17130000D01*
X32235000Y17130000D02*
X31185000Y17130000D01*
%TO.C,D2*%
X34150000Y17430000D02*
X34150000Y16630000D01*
X34150000Y16630000D02*
X35450000Y16630000D01*
X35450000Y16630000D02*
X35750000Y16930000D01*
X35750000Y17430000D02*
X34150000Y17430000D01*
X35750000Y16930000D02*
X35750000Y17430000D01*
%TO.C,C17*%
X36720000Y8760000D02*
X37720000Y8760000D01*
X36720000Y8260000D02*
X36720000Y8760000D01*
X37720000Y8760000D02*
X37720000Y8260000D01*
X37720000Y8260000D02*
X36720000Y8260000D01*
%TO.C,C12*%
X24420000Y5690000D02*
X24920000Y5690000D01*
X24420000Y4690000D02*
X24420000Y5690000D01*
X24920000Y5690000D02*
X24920000Y4690000D01*
X24920000Y4690000D02*
X24420000Y4690000D01*
%TO.C,C13*%
X9310000Y15610000D02*
X10110000Y15610000D01*
X9310000Y14010000D02*
X9310000Y15610000D01*
X10110000Y15610000D02*
X10110000Y14010000D01*
X10110000Y14010000D02*
X9310000Y14010000D01*
%TO.C,C6*%
X30350000Y5580000D02*
X30850000Y5580000D01*
X30350000Y4580000D02*
X30350000Y5580000D01*
X30850000Y5580000D02*
X30850000Y4580000D01*
X30850000Y4580000D02*
X30350000Y4580000D01*
%TO.C,C11*%
X20570000Y16155000D02*
X21570000Y16155000D01*
X20570000Y15655000D02*
X20570000Y16155000D01*
X21570000Y16155000D02*
X21570000Y15655000D01*
X21570000Y15655000D02*
X20570000Y15655000D01*
%TO.C,C19*%
X7510000Y5490000D02*
X8510000Y5490000D01*
X7510000Y4990000D02*
X7510000Y5490000D01*
X8510000Y5490000D02*
X8510000Y4990000D01*
X8510000Y4990000D02*
X7510000Y4990000D01*
%TO.C,R2*%
X18560000Y8375000D02*
X19100000Y8375000D01*
X18560000Y7325000D02*
X18560000Y8375000D01*
X19100000Y8375000D02*
X19100000Y7325000D01*
X19100000Y7325000D02*
X18560000Y7325000D01*
%TO.C,R7*%
X37445000Y17230000D02*
X38495000Y17230000D01*
X37445000Y16690000D02*
X37445000Y17230000D01*
X38495000Y17230000D02*
X38495000Y16690000D01*
X38495000Y16690000D02*
X37445000Y16690000D01*
%TO.C,R10*%
X33255000Y10490000D02*
X34305000Y10490000D01*
X33255000Y9950000D02*
X33255000Y10490000D01*
X34305000Y10490000D02*
X34305000Y9950000D01*
X34305000Y9950000D02*
X33255000Y9950000D01*
%TO.C,C10*%
X23120000Y16730000D02*
X23620000Y16730000D01*
X23120000Y15730000D02*
X23120000Y16730000D01*
X23620000Y16730000D02*
X23620000Y15730000D01*
X23620000Y15730000D02*
X23120000Y15730000D01*
%TO.C,U3*%
X23870000Y14320000D02*
X30870000Y14320000D01*
X23870000Y8320000D02*
X23870000Y14320000D01*
X24870000Y7320000D02*
X23870000Y8320000D01*
X30870000Y14320000D02*
X30870000Y7320000D01*
X30870000Y7320000D02*
X24870000Y7320000D01*
%TO.C,R5*%
X20525000Y12095000D02*
X21575000Y12095000D01*
X20525000Y11555000D02*
X20525000Y12095000D01*
X21575000Y12095000D02*
X21575000Y11555000D01*
X21575000Y11555000D02*
X20525000Y11555000D01*
%TO.C,C2*%
X33270000Y13000000D02*
X34270000Y13000000D01*
X33270000Y12500000D02*
X33270000Y13000000D01*
X34270000Y13000000D02*
X34270000Y12500000D01*
X34270000Y12500000D02*
X33270000Y12500000D01*
%TO.C,U1*%
X10935000Y12475000D02*
X16165000Y12475000D01*
X10935000Y7245000D02*
X10935000Y12475000D01*
X15165000Y7245000D02*
X10935000Y7245000D01*
X16165000Y12475000D02*
X16165000Y8245000D01*
X16165000Y8245000D02*
X15165000Y7245000D01*
%TO.C,C5*%
X20475000Y10970000D02*
X21475000Y10970000D01*
X20475000Y10470000D02*
X20475000Y10970000D01*
X21475000Y10970000D02*
X21475000Y10470000D01*
X21475000Y10470000D02*
X20475000Y10470000D01*
%TO.C,R1*%
X18560000Y10705000D02*
X19100000Y10705000D01*
X18560000Y9655000D02*
X18560000Y10705000D01*
X19100000Y10705000D02*
X19100000Y9655000D01*
X19100000Y9655000D02*
X18560000Y9655000D01*
%TO.C,C4*%
X20560000Y14180000D02*
X21560000Y14180000D01*
X20560000Y13680000D02*
X20560000Y14180000D01*
X21560000Y14180000D02*
X21560000Y13680000D01*
X21560000Y13680000D02*
X20560000Y13680000D01*
%TO.C,C1*%
X8050000Y7410000D02*
X8550000Y7410000D01*
X8050000Y6410000D02*
X8050000Y7410000D01*
X8550000Y7410000D02*
X8550000Y6410000D01*
X8550000Y6410000D02*
X8050000Y6410000D01*
%TO.C,J5*%
X48130000Y14300000D02*
X50670000Y14300000D01*
X48130000Y6680000D02*
X48130000Y14300000D01*
X50035000Y6680000D02*
X48130000Y6680000D01*
X50670000Y14300000D02*
X50670000Y7315000D01*
X50670000Y7315000D02*
X50035000Y6680000D01*
%TO.C,JP1*%
X11225000Y17770000D02*
X12275000Y17770000D01*
X11225000Y17230000D02*
X11225000Y17770000D01*
X12275000Y17770000D02*
X12275000Y17230000D01*
X12275000Y17230000D02*
X11225000Y17230000D01*
%TO.C,R9*%
X17285000Y17570000D02*
X18335000Y17570000D01*
X17285000Y17030000D02*
X17285000Y17570000D01*
X18335000Y17570000D02*
X18335000Y17030000D01*
X18335000Y17030000D02*
X17285000Y17030000D01*
%TO.C,C9*%
X33280000Y11880000D02*
X34280000Y11880000D01*
X33280000Y11380000D02*
X33280000Y11880000D01*
X34280000Y11880000D02*
X34280000Y11380000D01*
X34280000Y11380000D02*
X33280000Y11380000D01*
%TO.C,C8*%
X31190000Y16350000D02*
X32190000Y16350000D01*
X31190000Y15850000D02*
X31190000Y16350000D01*
X32190000Y16350000D02*
X32190000Y15850000D01*
X32190000Y15850000D02*
X31190000Y15850000D01*
%TO.C,C15*%
X18680000Y15590000D02*
X19480000Y15590000D01*
X18680000Y13990000D02*
X18680000Y15590000D01*
X19480000Y15590000D02*
X19480000Y13990000D01*
X19480000Y13990000D02*
X18680000Y13990000D01*
%TO.C,JP6*%
X22385000Y4490000D02*
X22385000Y6390000D01*
X22535000Y5840000D02*
X22535000Y6390000D01*
X22535000Y5840000D02*
X23535000Y5840000D01*
X22535000Y5035000D02*
X22535000Y4485000D01*
X22793154Y6682109D02*
X23276846Y6682109D01*
X22835000Y6840000D02*
X23235000Y6840000D01*
X23235000Y4040000D02*
X22835000Y4040000D01*
X23276846Y4192891D02*
X22793154Y4192891D01*
X23535000Y5840000D02*
X23535000Y6390000D01*
X23535000Y5035000D02*
X22535000Y5035000D01*
X23535000Y5035000D02*
X23535000Y4485000D01*
X23685000Y6390000D02*
X23685000Y4490000D01*
X23535000Y5635000D02*
X22535000Y5635000D01*
X22535000Y5235000D01*
X23535000Y5235000D01*
X23535000Y5635000D01*
X22385000Y6390000D02*
G75*
G02*
X22835000Y6840000I450000J0D01*
G01*
X22535001Y6390000D02*
G75*
G02*
X22793154Y6682109I300001J-5001D01*
G01*
X22793154Y4192891D02*
G75*
G02*
X22535000Y4485000I41846J297109D01*
G01*
X22835000Y4040000D02*
G75*
G02*
X22385000Y4490000I0J450000D01*
G01*
X23235000Y6840000D02*
G75*
G02*
X23685000Y6390000I0J-450000D01*
G01*
X23276846Y6682109D02*
G75*
G02*
X23534999Y6390000I-41843J-297106D01*
G01*
X23534999Y4485000D02*
G75*
G02*
X23276846Y4192892I-299999J5000D01*
G01*
X23685000Y4490000D02*
G75*
G02*
X23235000Y4040000I-450000J0D01*
G01*
X23035000Y7035000D02*
X22835000Y7335000D01*
X23235000Y7335000D01*
X23035000Y7035000D01*
G36*
X23035000Y7035000D02*
G01*
X22835000Y7335000D01*
X23235000Y7335000D01*
X23035000Y7035000D01*
G37*
%TO.C,C16*%
X11180000Y14010000D02*
X12180000Y14010000D01*
X11180000Y13510000D02*
X11180000Y14010000D01*
X12180000Y14010000D02*
X12180000Y13510000D01*
X12180000Y13510000D02*
X11180000Y13510000D01*
%TO.C,JP4*%
X11225000Y16020000D02*
X12275000Y16020000D01*
X11225000Y15480000D02*
X11225000Y16020000D01*
X12275000Y16020000D02*
X12275000Y15480000D01*
X12275000Y15480000D02*
X11225000Y15480000D01*
%TO.C,R4*%
X8030000Y9875000D02*
X8570000Y9875000D01*
X8030000Y8825000D02*
X8030000Y9875000D01*
X8570000Y9875000D02*
X8570000Y8825000D01*
X8570000Y8825000D02*
X8030000Y8825000D01*
%TO.C,Y1*%
X35800000Y13030000D02*
X35800000Y9830000D01*
X35800000Y9830000D02*
X38300000Y9830000D01*
X37300000Y9830000D02*
X38300000Y10830000D01*
X38300000Y13030000D02*
X35800000Y13030000D01*
X38300000Y9830000D02*
X38300000Y13030000D01*
%TO.C,R8*%
X7455000Y4440000D02*
X8505000Y4440000D01*
X7455000Y3900000D02*
X7455000Y4440000D01*
X8505000Y4440000D02*
X8505000Y3900000D01*
X8505000Y3900000D02*
X7455000Y3900000D01*
%TO.C,D1*%
X5500000Y17600000D02*
X7300000Y17600000D01*
X5500000Y16200000D02*
X5500000Y17600000D01*
X6200000Y17250000D02*
X6700000Y16900000D01*
X6200000Y16900000D02*
X5950000Y16900000D01*
X6200000Y16550000D02*
X6200000Y17250000D01*
X6700000Y16900000D02*
X6200000Y16550000D01*
X6700000Y16900000D02*
X6900000Y16900000D01*
X6700000Y16550000D02*
X6700000Y17250000D01*
X7300000Y17600000D02*
X7300000Y16200000D01*
X7300000Y16200000D02*
X5500000Y16200000D01*
%TO.C,D3*%
X4000000Y4600000D02*
X4000000Y3800000D01*
X4000000Y3800000D02*
X5300000Y3800000D01*
X5300000Y3800000D02*
X5600000Y4100000D01*
X5600000Y4600000D02*
X4000000Y4600000D01*
X5600000Y4100000D02*
X5600000Y4600000D01*
%TO.C,SW1*%
X9950000Y5950000D02*
X9950000Y4650000D01*
X9950000Y5950000D02*
X10450000Y5950000D01*
X9950000Y4650000D02*
X10450000Y4650000D01*
X10450000Y6750000D02*
X10450000Y3850000D01*
X10450000Y3850000D02*
X14350000Y3850000D01*
X12400000Y6750000D02*
X10450000Y6750000D01*
X14350000Y6750000D02*
X12400000Y6750000D01*
X14350000Y3850000D02*
X14350000Y6750000D01*
X14850000Y5950000D02*
X14350000Y5950000D01*
X14850000Y5950000D02*
X14850000Y4650000D01*
X14850000Y4650000D02*
X14350000Y4650000D01*
X13300000Y5300000D02*
G75*
G02*
X11500000Y5300000I-900000J0D01*
G01*
X11500000Y5300000D02*
G75*
G02*
X13300000Y5300000I900000J0D01*
G01*
%TO.C,C18*%
X36690000Y14580000D02*
X37690000Y14580000D01*
X36690000Y14080000D02*
X36690000Y14580000D01*
X37690000Y14580000D02*
X37690000Y14080000D01*
X37690000Y14080000D02*
X36690000Y14080000D01*
%TO.C,C7*%
X20470000Y9970000D02*
X21470000Y9970000D01*
X20470000Y9470000D02*
X20470000Y9970000D01*
X21470000Y9970000D02*
X21470000Y9470000D01*
X21470000Y9470000D02*
X20470000Y9470000D01*
%TO.C,R6*%
X20525000Y13095000D02*
X21575000Y13095000D01*
X20525000Y12555000D02*
X20525000Y13095000D01*
X21575000Y13095000D02*
X21575000Y12555000D01*
X21575000Y12555000D02*
X20525000Y12555000D01*
%TO.C,J3*%
X30000Y2870000D02*
X50830000Y2870000D01*
X30000Y965000D02*
X30000Y2870000D01*
X665000Y330000D02*
X30000Y965000D01*
X50830000Y2870000D02*
X50830000Y330000D01*
X50830000Y330000D02*
X665000Y330000D01*
%TO.C,C14*%
X16775000Y16035000D02*
X16775000Y14347500D01*
X16775000Y14347500D02*
X17087500Y14035000D01*
X17087500Y14035000D02*
X18025000Y14035000D01*
X18025000Y16035000D02*
X16775000Y16035000D01*
X18025000Y14035000D02*
X18025000Y16035000D01*
%TO.C,R3*%
X8030000Y14925000D02*
X8570000Y14925000D01*
X8030000Y13875000D02*
X8030000Y14925000D01*
X8570000Y14925000D02*
X8570000Y13875000D01*
X8570000Y13875000D02*
X8030000Y13875000D01*
%TO.C,U2*%
X13220000Y16150000D02*
X15720000Y16150000D01*
X13220000Y14550000D02*
X13220000Y16150000D01*
X15720000Y16150000D02*
X16120000Y15750000D01*
X16120000Y15750000D02*
X16120000Y14550000D01*
X16120000Y14550000D02*
X13220000Y14550000D01*
%TO.C,R11*%
X20445000Y8600000D02*
X21495000Y8600000D01*
X20445000Y8060000D02*
X20445000Y8600000D01*
X21495000Y8600000D02*
X21495000Y8060000D01*
X21495000Y8060000D02*
X20445000Y8060000D01*
%TO.C,SW2*%
X16315000Y5935000D02*
X16815000Y5935000D01*
X16315000Y4635000D02*
X16315000Y5935000D01*
X16315000Y4635000D02*
X16815000Y4635000D01*
X16815000Y6735000D02*
X16815000Y3835000D01*
X16815000Y3835000D02*
X18765000Y3835000D01*
X18765000Y3835000D02*
X20715000Y3835000D01*
X20715000Y6735000D02*
X16815000Y6735000D01*
X20715000Y3835000D02*
X20715000Y6735000D01*
X21215000Y5935000D02*
X20715000Y5935000D01*
X21215000Y4635000D02*
X20715000Y4635000D01*
X21215000Y4635000D02*
X21215000Y5935000D01*
X19665000Y5285000D02*
G75*
G02*
X17865000Y5285000I-900000J0D01*
G01*
X17865000Y5285000D02*
G75*
G02*
X19665000Y5285000I900000J0D01*
G01*
%TD*%
M02*
