M48
; DRILL file {KiCad 8.0.4} date 2024-08-28T20:59:15+0530
; FORMAT={-:-/ absolute / metric / decimal}
; #@! TF.CreationDate,2024-08-28T20:59:15+05:30
; #@! TF.GenerationSoftware,Kicad,Pcbnew,8.0.4
; #@! TF.FileFunction,Plated,1,2,PTH
FMAT,2
METRIC
; #@! TA.AperFunction,Plated,PTH,ViaDrill
T1C0.200
; #@! TA.AperFunction,Plated,PTH,ViaDrill
T2C0.254
; #@! TA.AperFunction,Plated,PTH,ComponentDrill
T3C0.350
; #@! TA.AperFunction,Plated,PTH,ComponentDrill
T4C0.600
; #@! TA.AperFunction,Plated,PTH,ComponentDrill
T5C1.000
%
G90
G05
T1
X2.2Y11.2
X2.3Y9.9
X3.5Y5.6
X5.3Y12.0
X5.3Y8.5
X6.5Y3.0
X7.7Y18.6
X9.8Y7.0
X10.1Y18.6
X10.7Y14.8
X11.2Y11.6
X12.0Y11.8
X12.5Y8.2
X12.6Y11.1
X12.6Y10.1
X12.7Y15.0
X12.7Y14.5
X12.7Y4.2
X13.2Y8.2
X13.9Y8.2
X14.4Y11.8
X14.4Y3.1
X14.7Y14.9
X14.7Y14.4
X14.7Y13.9
X14.7Y13.4
X15.8Y9.601
X15.8Y8.6
X16.6Y3.1
X17.0Y18.1
X17.6Y7.1
X18.7Y11.8
X20.1Y17.0
X21.3Y14.7
X21.865Y5.53
X21.9Y14.7
X22.3Y13.3
X22.514Y15.163
X22.6Y10.1
X22.6Y9.3
X22.6Y8.6
X22.759Y7.85
X23.0Y13.8
X24.2Y15.7
X24.6Y15.3
X24.6Y6.5
X24.73Y9.986
X24.9Y9.1
X25.0Y10.8
X25.3Y6.25
X25.8Y5.9
X25.94Y5.26
X26.25Y4.75
X27.07Y4.935
X27.25Y17.8
X27.402Y4.298
X27.6Y17.3
X27.9Y18.6
X28.2Y17.05
X28.47Y6.1
X28.967Y15.247
X29.5Y13.3
X29.6Y8.6
X29.7Y16.72
X29.8Y12.7
X30.6Y2.6
X30.75Y13.869
X30.8Y6.9
X31.682Y13.712
X32.3Y7.0
X32.5Y14.2
X32.507Y13.186
X32.8Y14.7
X33.0Y18.6
X33.1Y2.6
X33.15Y7.55
X33.5Y13.75
X33.744Y12.156
X34.85Y7.5
X35.6Y18.5
X35.6Y8.5
X35.8Y2.6
X37.546Y7.121
X37.7Y16.1
X37.9Y6.7
X38.0Y2.6
X38.05Y4.35
X39.3Y9.8
X39.9Y3.7
X40.5Y12.4
X40.7Y18.5
X40.7Y2.6
X41.6Y13.9
X42.9Y2.6
X44.675Y10.575
X44.7Y13.7
X45.7Y2.5
X45.8Y18.9
X47.1Y13.5
X48.2Y18.3
X48.3Y15.3
X48.3Y5.6
X48.5Y11.8
X49.2Y15.3
X49.2Y5.6
X50.1Y15.3
X50.1Y5.6
T2
X11.7Y14.8
X15.7Y15.4
X22.5Y16.2
X30.4Y16.296
T3
X26.095Y12.095
X26.095Y10.82
X26.095Y9.545
X27.37Y12.095
X27.37Y10.82
X27.37Y9.545
X28.645Y12.095
X28.645Y10.82
X28.645Y9.545
T5
X1.3Y21.01
X1.3Y19.4
X1.3Y1.6
X1.3Y-0.01
X3.84Y21.01
X3.84Y19.4
X3.84Y1.6
X3.84Y-0.01
X6.38Y21.01
X6.38Y19.4
X6.38Y1.6
X6.38Y-0.01
X8.92Y21.01
X8.92Y19.4
X8.92Y1.6
X8.92Y-0.01
X11.46Y21.01
X11.46Y19.4
X11.46Y1.6
X11.46Y-0.01
X14.0Y21.01
X14.0Y19.4
X14.0Y1.6
X14.0Y-0.01
X16.54Y21.01
X16.54Y19.4
X16.54Y1.6
X16.54Y-0.01
X19.08Y21.01
X19.08Y19.4
X19.08Y1.6
X19.08Y-0.01
X21.62Y21.01
X21.62Y19.4
X21.62Y1.6
X21.62Y-0.01
X24.16Y21.01
X24.16Y19.4
X24.16Y1.6
X24.16Y-0.01
X26.7Y21.01
X26.7Y19.4
X26.7Y1.6
X26.7Y-0.01
X29.24Y21.01
X29.24Y19.4
X29.24Y1.6
X29.24Y-0.01
X31.78Y21.01
X31.78Y19.4
X31.78Y1.6
X31.78Y-0.01
X34.32Y21.01
X34.32Y19.4
X34.32Y1.6
X34.32Y-0.01
X36.86Y21.01
X36.86Y19.4
X36.86Y1.6
X36.86Y-0.01
X39.4Y21.01
X39.4Y19.4
X39.4Y1.6
X39.4Y-0.01
X41.94Y21.01
X41.94Y19.4
X41.94Y1.6
X41.94Y-0.01
X43.4Y14.295
X43.4Y11.755
X43.4Y9.215
X43.4Y6.675
X44.48Y21.01
X44.48Y19.4
X44.48Y1.6
X44.48Y-0.01
X45.94Y14.295
X45.94Y11.755
X45.94Y9.215
X45.94Y6.675
X47.02Y21.01
X47.02Y19.4
X47.02Y1.6
X47.02Y-0.01
X49.4Y13.03
X49.4Y10.49
X49.4Y7.95
X49.56Y21.01
X49.56Y19.4
X49.56Y1.6
X49.56Y-0.01
X51.01Y13.03
X51.01Y10.49
X51.01Y7.95
T4
G00X1.68Y14.83
M15
G01X1.08Y14.83
M16
G05
G00X1.68Y6.19
M15
G01X1.08Y6.19
M16
G05
G00X6.11Y14.83
M15
G01X5.01Y14.83
M16
G05
G00X6.11Y6.19
M15
G01X5.01Y6.19
M16
G05
M30
