G04 #@! TF.GenerationSoftware,KiCad,Pcbnew,(5.99.0-11673-ga90656900a)*
G04 #@! TF.CreationDate,2021-08-26T12:12:16+05:30*
G04 #@! TF.ProjectId,Mitayi-Pico-RP2040,4d697461-7969-42d5-9069-636f2d525032,0.1*
G04 #@! TF.SameCoordinates,Original*
G04 #@! TF.FileFunction,Legend,Top*
G04 #@! TF.FilePolarity,Positive*
%FSLAX46Y46*%
G04 Gerber Fmt 4.6, Leading zero omitted, Abs format (unit mm)*
G04 Created by KiCad (PCBNEW (5.99.0-11673-ga90656900a)) date 2021-08-26 12:12:16*
%MOMM*%
%LPD*%
G01*
G04 APERTURE LIST*
G04 Aperture macros list*
%AMRoundRect*
0 Rectangle with rounded corners*
0 $1 Rounding radius*
0 $2 $3 $4 $5 $6 $7 $8 $9 X,Y pos of 4 corners*
0 Add a 4 corners polygon primitive as box body*
4,1,4,$2,$3,$4,$5,$6,$7,$8,$9,$2,$3,0*
0 Add four circle primitives for the rounded corners*
1,1,$1+$1,$2,$3*
1,1,$1+$1,$4,$5*
1,1,$1+$1,$6,$7*
1,1,$1+$1,$8,$9*
0 Add four rect primitives between the rounded corners*
20,1,$1+$1,$2,$3,$4,$5,0*
20,1,$1+$1,$4,$5,$6,$7,0*
20,1,$1+$1,$6,$7,$8,$9,0*
20,1,$1+$1,$8,$9,$2,$3,0*%
G04 Aperture macros list end*
%ADD10C,0.150000*%
%ADD11C,0.200000*%
%ADD12C,0.120000*%
%ADD13C,0.100000*%
%ADD14C,0.020000*%
%ADD15RoundRect,0.135000X-0.185000X0.135000X-0.185000X-0.135000X0.185000X-0.135000X0.185000X0.135000X0*%
%ADD16RoundRect,0.237500X0.237500X-0.300000X0.237500X0.300000X-0.237500X0.300000X-0.237500X-0.300000X0*%
%ADD17RoundRect,0.155000X-0.155000X0.212500X-0.155000X-0.212500X0.155000X-0.212500X0.155000X0.212500X0*%
%ADD18RoundRect,0.155000X0.155000X-0.212500X0.155000X0.212500X-0.155000X0.212500X-0.155000X-0.212500X0*%
%ADD19RoundRect,0.237500X-0.250000X-0.237500X0.250000X-0.237500X0.250000X0.237500X-0.250000X0.237500X0*%
%ADD20RoundRect,0.135000X0.135000X0.185000X-0.135000X0.185000X-0.135000X-0.185000X0.135000X-0.185000X0*%
%ADD21RoundRect,0.225000X0.250000X-0.225000X0.250000X0.225000X-0.250000X0.225000X-0.250000X-0.225000X0*%
%ADD22RoundRect,0.155000X0.212500X0.155000X-0.212500X0.155000X-0.212500X-0.155000X0.212500X-0.155000X0*%
%ADD23RoundRect,0.160000X-0.197500X-0.160000X0.197500X-0.160000X0.197500X0.160000X-0.197500X0.160000X0*%
%ADD24RoundRect,0.160000X0.197500X0.160000X-0.197500X0.160000X-0.197500X-0.160000X0.197500X-0.160000X0*%
%ADD25C,1.500000*%
%ADD26RoundRect,0.160000X-0.160000X0.197500X-0.160000X-0.197500X0.160000X-0.197500X0.160000X0.197500X0*%
%ADD27RoundRect,0.155000X-0.212500X-0.155000X0.212500X-0.155000X0.212500X0.155000X-0.212500X0.155000X0*%
%ADD28R,1.400000X1.200000*%
%ADD29RoundRect,0.050000X-0.387500X-0.050000X0.387500X-0.050000X0.387500X0.050000X-0.387500X0.050000X0*%
%ADD30RoundRect,0.050000X-0.050000X-0.387500X0.050000X-0.387500X0.050000X0.387500X-0.050000X0.387500X0*%
%ADD31RoundRect,0.144000X-1.456000X-1.456000X1.456000X-1.456000X1.456000X1.456000X-1.456000X1.456000X0*%
%ADD32RoundRect,0.150000X0.150000X-0.650000X0.150000X0.650000X-0.150000X0.650000X-0.150000X-0.650000X0*%
%ADD33RoundRect,0.135000X-0.135000X-0.185000X0.135000X-0.185000X0.135000X0.185000X-0.135000X0.185000X0*%
%ADD34O,1.600000X1.700000*%
%ADD35R,1.600000X3.200000*%
%ADD36RoundRect,0.225000X-0.225000X-0.250000X0.225000X-0.250000X0.225000X0.250000X-0.225000X0.250000X0*%
%ADD37C,0.670000*%
%ADD38R,0.300000X1.450000*%
%ADD39RoundRect,0.500000X0.000000X0.300000X0.000000X0.300000X0.000000X-0.300000X0.000000X-0.300000X0*%
%ADD40R,1.100000X1.100000*%
%ADD41R,0.400000X1.350000*%
%ADD42R,1.500000X1.900000*%
%ADD43O,1.200000X1.900000*%
%ADD44C,1.450000*%
%ADD45R,1.200000X1.900000*%
%ADD46R,1.700000X1.150000*%
%ADD47R,3.200000X1.600000*%
%ADD48O,1.700000X1.600000*%
%ADD49RoundRect,0.250000X-0.312500X-0.275000X0.312500X-0.275000X0.312500X0.275000X-0.312500X0.275000X0*%
%ADD50RoundRect,0.150000X0.512500X0.150000X-0.512500X0.150000X-0.512500X-0.150000X0.512500X-0.150000X0*%
G04 APERTURE END LIST*
D10*
X153016666Y-108050000D02*
X153116666Y-108083333D01*
X153150000Y-108116666D01*
X153183333Y-108183333D01*
X153183333Y-108283333D01*
X153150000Y-108350000D01*
X153116666Y-108383333D01*
X153050000Y-108416666D01*
X152783333Y-108416666D01*
X152783333Y-107716666D01*
X153016666Y-107716666D01*
X153083333Y-107750000D01*
X153116666Y-107783333D01*
X153150000Y-107850000D01*
X153150000Y-107916666D01*
X153116666Y-107983333D01*
X153083333Y-108016666D01*
X153016666Y-108050000D01*
X152783333Y-108050000D01*
X153616666Y-107716666D02*
X153750000Y-107716666D01*
X153816666Y-107750000D01*
X153883333Y-107816666D01*
X153916666Y-107950000D01*
X153916666Y-108183333D01*
X153883333Y-108316666D01*
X153816666Y-108383333D01*
X153750000Y-108416666D01*
X153616666Y-108416666D01*
X153550000Y-108383333D01*
X153483333Y-108316666D01*
X153450000Y-108183333D01*
X153450000Y-107950000D01*
X153483333Y-107816666D01*
X153550000Y-107750000D01*
X153616666Y-107716666D01*
X154350000Y-107716666D02*
X154483333Y-107716666D01*
X154550000Y-107750000D01*
X154616666Y-107816666D01*
X154650000Y-107950000D01*
X154650000Y-108183333D01*
X154616666Y-108316666D01*
X154550000Y-108383333D01*
X154483333Y-108416666D01*
X154350000Y-108416666D01*
X154283333Y-108383333D01*
X154216666Y-108316666D01*
X154183333Y-108183333D01*
X154183333Y-107950000D01*
X154216666Y-107816666D01*
X154283333Y-107750000D01*
X154350000Y-107716666D01*
X154850000Y-107716666D02*
X155250000Y-107716666D01*
X155050000Y-108416666D02*
X155050000Y-107716666D01*
X155450000Y-108383333D02*
X155550000Y-108416666D01*
X155716666Y-108416666D01*
X155783333Y-108383333D01*
X155816666Y-108350000D01*
X155850000Y-108283333D01*
X155850000Y-108216666D01*
X155816666Y-108150000D01*
X155783333Y-108116666D01*
X155716666Y-108083333D01*
X155583333Y-108050000D01*
X155516666Y-108016666D01*
X155483333Y-107983333D01*
X155450000Y-107916666D01*
X155450000Y-107850000D01*
X155483333Y-107783333D01*
X155516666Y-107750000D01*
X155583333Y-107716666D01*
X155750000Y-107716666D01*
X155850000Y-107750000D01*
X156150000Y-108050000D02*
X156383333Y-108050000D01*
X156483333Y-108416666D02*
X156150000Y-108416666D01*
X156150000Y-107716666D01*
X156483333Y-107716666D01*
X157116666Y-108416666D02*
X156783333Y-108416666D01*
X156783333Y-107716666D01*
X157083333Y-74166666D02*
X156583333Y-74166666D01*
X156483333Y-74133333D01*
X156416666Y-74066666D01*
X156383333Y-73966666D01*
X156383333Y-73900000D01*
X156850000Y-74800000D02*
X156383333Y-74800000D01*
X157116666Y-74633333D02*
X156616666Y-74466666D01*
X156616666Y-74900000D01*
X156450000Y-75166666D02*
X156416666Y-75200000D01*
X156383333Y-75166666D01*
X156416666Y-75133333D01*
X156450000Y-75166666D01*
X156383333Y-75166666D01*
X156383333Y-75866666D02*
X156383333Y-75466666D01*
X156383333Y-75666666D02*
X157083333Y-75666666D01*
X156983333Y-75600000D01*
X156916666Y-75533333D01*
X156883333Y-75466666D01*
X156450000Y-76166666D02*
X156416666Y-76200000D01*
X156383333Y-76166666D01*
X156416666Y-76133333D01*
X156450000Y-76166666D01*
X156383333Y-76166666D01*
X157083333Y-76433333D02*
X157083333Y-76866666D01*
X156816666Y-76633333D01*
X156816666Y-76733333D01*
X156783333Y-76800000D01*
X156750000Y-76833333D01*
X156683333Y-76866666D01*
X156516666Y-76866666D01*
X156450000Y-76833333D01*
X156416666Y-76800000D01*
X156383333Y-76733333D01*
X156383333Y-76533333D01*
X156416666Y-76466666D01*
X156450000Y-76433333D01*
X155833333Y-68516666D02*
X156266666Y-68516666D01*
X156033333Y-68783333D01*
X156133333Y-68783333D01*
X156200000Y-68816666D01*
X156233333Y-68850000D01*
X156266666Y-68916666D01*
X156266666Y-69083333D01*
X156233333Y-69150000D01*
X156200000Y-69183333D01*
X156133333Y-69216666D01*
X155933333Y-69216666D01*
X155866666Y-69183333D01*
X155833333Y-69150000D01*
X156600000Y-69216666D02*
X156733333Y-69216666D01*
X156800000Y-69183333D01*
X156833333Y-69150000D01*
X156900000Y-69050000D01*
X156933333Y-68916666D01*
X156933333Y-68650000D01*
X156900000Y-68583333D01*
X156866666Y-68550000D01*
X156800000Y-68516666D01*
X156666666Y-68516666D01*
X156600000Y-68550000D01*
X156566666Y-68583333D01*
X156533333Y-68650000D01*
X156533333Y-68816666D01*
X156566666Y-68883333D01*
X156600000Y-68916666D01*
X156666666Y-68950000D01*
X156800000Y-68950000D01*
X156866666Y-68916666D01*
X156900000Y-68883333D01*
X156933333Y-68816666D01*
D11*
X142492857Y-90900000D02*
X143392857Y-90900000D01*
X142750000Y-91200000D01*
X143392857Y-91500000D01*
X142492857Y-91500000D01*
X142492857Y-91928571D02*
X143392857Y-91928571D01*
X143392857Y-92228571D02*
X143392857Y-92742857D01*
X142492857Y-92485714D02*
X143392857Y-92485714D01*
X142750000Y-93000000D02*
X142750000Y-93428571D01*
X142492857Y-92914285D02*
X143392857Y-93214285D01*
X142492857Y-93514285D01*
X142921428Y-93985714D02*
X142492857Y-93985714D01*
X143392857Y-93685714D02*
X142921428Y-93985714D01*
X143392857Y-94285714D01*
X142492857Y-94585714D02*
X143392857Y-94585714D01*
X142492857Y-95700000D02*
X143392857Y-95700000D01*
X143392857Y-96042857D01*
X143350000Y-96128571D01*
X143307142Y-96171428D01*
X143221428Y-96214285D01*
X143092857Y-96214285D01*
X143007142Y-96171428D01*
X142964285Y-96128571D01*
X142921428Y-96042857D01*
X142921428Y-95700000D01*
X142492857Y-96600000D02*
X143092857Y-96600000D01*
X143392857Y-96600000D02*
X143350000Y-96557142D01*
X143307142Y-96600000D01*
X143350000Y-96642857D01*
X143392857Y-96600000D01*
X143307142Y-96600000D01*
X142535714Y-97414285D02*
X142492857Y-97328571D01*
X142492857Y-97157142D01*
X142535714Y-97071428D01*
X142578571Y-97028571D01*
X142664285Y-96985714D01*
X142921428Y-96985714D01*
X143007142Y-97028571D01*
X143050000Y-97071428D01*
X143092857Y-97157142D01*
X143092857Y-97328571D01*
X143050000Y-97414285D01*
X142492857Y-97928571D02*
X142535714Y-97842857D01*
X142578571Y-97800000D01*
X142664285Y-97757142D01*
X142921428Y-97757142D01*
X143007142Y-97800000D01*
X143050000Y-97842857D01*
X143092857Y-97928571D01*
X143092857Y-98057142D01*
X143050000Y-98142857D01*
X143007142Y-98185714D01*
X142921428Y-98228571D01*
X142664285Y-98228571D01*
X142578571Y-98185714D01*
X142535714Y-98142857D01*
X142492857Y-98057142D01*
X142492857Y-97928571D01*
X143092857Y-99214285D02*
X142492857Y-99428571D01*
X143092857Y-99642857D01*
X143392857Y-100157142D02*
X143392857Y-100242857D01*
X143350000Y-100328571D01*
X143307142Y-100371428D01*
X143221428Y-100414285D01*
X143050000Y-100457142D01*
X142835714Y-100457142D01*
X142664285Y-100414285D01*
X142578571Y-100371428D01*
X142535714Y-100328571D01*
X142492857Y-100242857D01*
X142492857Y-100157142D01*
X142535714Y-100071428D01*
X142578571Y-100028571D01*
X142664285Y-99985714D01*
X142835714Y-99942857D01*
X143050000Y-99942857D01*
X143221428Y-99985714D01*
X143307142Y-100028571D01*
X143350000Y-100071428D01*
X143392857Y-100157142D01*
X142578571Y-100842857D02*
X142535714Y-100885714D01*
X142492857Y-100842857D01*
X142535714Y-100800000D01*
X142578571Y-100842857D01*
X142492857Y-100842857D01*
X143307142Y-101228571D02*
X143350000Y-101271428D01*
X143392857Y-101357142D01*
X143392857Y-101571428D01*
X143350000Y-101657142D01*
X143307142Y-101700000D01*
X143221428Y-101742857D01*
X143135714Y-101742857D01*
X143007142Y-101700000D01*
X142492857Y-101185714D01*
X142492857Y-101742857D01*
D10*
X155866666Y-111783333D02*
X155900000Y-111750000D01*
X155966666Y-111716666D01*
X156133333Y-111716666D01*
X156200000Y-111750000D01*
X156233333Y-111783333D01*
X156266666Y-111850000D01*
X156266666Y-111916666D01*
X156233333Y-112016666D01*
X155833333Y-112416666D01*
X156266666Y-112416666D01*
X156533333Y-111783333D02*
X156566666Y-111750000D01*
X156633333Y-111716666D01*
X156800000Y-111716666D01*
X156866666Y-111750000D01*
X156900000Y-111783333D01*
X156933333Y-111850000D01*
X156933333Y-111916666D01*
X156900000Y-112016666D01*
X156500000Y-112416666D01*
X156933333Y-112416666D01*
X142300000Y-68583333D02*
X142333333Y-68550000D01*
X142400000Y-68516666D01*
X142566666Y-68516666D01*
X142633333Y-68550000D01*
X142666666Y-68583333D01*
X142700000Y-68650000D01*
X142700000Y-68716666D01*
X142666666Y-68816666D01*
X142266666Y-69216666D01*
X142700000Y-69216666D01*
X142566666Y-112416666D02*
X142166666Y-112416666D01*
X142366666Y-112416666D02*
X142366666Y-111716666D01*
X142300000Y-111816666D01*
X142233333Y-111883333D01*
X142166666Y-111916666D01*
X142900000Y-112416666D02*
X143033333Y-112416666D01*
X143100000Y-112383333D01*
X143133333Y-112350000D01*
X143200000Y-112250000D01*
X143233333Y-112116666D01*
X143233333Y-111850000D01*
X143200000Y-111783333D01*
X143166666Y-111750000D01*
X143100000Y-111716666D01*
X142966666Y-111716666D01*
X142900000Y-111750000D01*
X142866666Y-111783333D01*
X142833333Y-111850000D01*
X142833333Y-112016666D01*
X142866666Y-112083333D01*
X142900000Y-112116666D01*
X142966666Y-112150000D01*
X143100000Y-112150000D01*
X143166666Y-112116666D01*
X143200000Y-112083333D01*
X143233333Y-112016666D01*
X144383333Y-67916666D02*
X143816666Y-67916666D01*
X143750000Y-67950000D01*
X143716666Y-67983333D01*
X143683333Y-68050000D01*
X143683333Y-68183333D01*
X143716666Y-68250000D01*
X143750000Y-68283333D01*
X143816666Y-68316666D01*
X144383333Y-68316666D01*
X143716666Y-68616666D02*
X143683333Y-68716666D01*
X143683333Y-68883333D01*
X143716666Y-68950000D01*
X143750000Y-68983333D01*
X143816666Y-69016666D01*
X143883333Y-69016666D01*
X143950000Y-68983333D01*
X143983333Y-68950000D01*
X144016666Y-68883333D01*
X144050000Y-68750000D01*
X144083333Y-68683333D01*
X144116666Y-68650000D01*
X144183333Y-68616666D01*
X144250000Y-68616666D01*
X144316666Y-68650000D01*
X144350000Y-68683333D01*
X144383333Y-68750000D01*
X144383333Y-68916666D01*
X144350000Y-69016666D01*
X144050000Y-69550000D02*
X144016666Y-69650000D01*
X143983333Y-69683333D01*
X143916666Y-69716666D01*
X143816666Y-69716666D01*
X143750000Y-69683333D01*
X143716666Y-69650000D01*
X143683333Y-69583333D01*
X143683333Y-69316666D01*
X144383333Y-69316666D01*
X144383333Y-69550000D01*
X144350000Y-69616666D01*
X144316666Y-69650000D01*
X144250000Y-69683333D01*
X144183333Y-69683333D01*
X144116666Y-69650000D01*
X144083333Y-69616666D01*
X144050000Y-69550000D01*
X144050000Y-69316666D01*
X154383333Y-99450000D02*
X154383333Y-99116666D01*
X155083333Y-99116666D01*
X154750000Y-99683333D02*
X154750000Y-99916666D01*
X154383333Y-100016666D02*
X154383333Y-99683333D01*
X155083333Y-99683333D01*
X155083333Y-100016666D01*
X154383333Y-100316666D02*
X155083333Y-100316666D01*
X155083333Y-100483333D01*
X155050000Y-100583333D01*
X154983333Y-100650000D01*
X154916666Y-100683333D01*
X154783333Y-100716666D01*
X154683333Y-100716666D01*
X154550000Y-100683333D01*
X154483333Y-100650000D01*
X154416666Y-100583333D01*
X154383333Y-100483333D01*
X154383333Y-100316666D01*
X147316666Y-112016666D02*
X147316666Y-111983333D01*
X147283333Y-112083333D02*
X147283333Y-111983333D01*
X147250000Y-112150000D02*
X147250000Y-111983333D01*
X147216666Y-112216666D02*
X147216666Y-111983333D01*
X147183333Y-112250000D02*
X147183333Y-111983333D01*
X147150000Y-112316666D02*
X147150000Y-111983333D01*
X147116666Y-112383333D02*
X147116666Y-111983333D01*
X147083333Y-112450000D02*
X147083333Y-111983333D01*
X147050000Y-112516666D02*
X147050000Y-111983333D01*
X147016666Y-112450000D02*
X147016666Y-111983333D01*
X146983333Y-112383333D02*
X146983333Y-111983333D01*
X146950000Y-112316666D02*
X146950000Y-111983333D01*
X146916666Y-112250000D02*
X146916666Y-111983333D01*
X146883333Y-112216666D02*
X146883333Y-111983333D01*
X146850000Y-112150000D02*
X146850000Y-111983333D01*
X146816666Y-112083333D02*
X146816666Y-111983333D01*
X146783333Y-111983333D02*
X147050000Y-112483333D01*
X147316666Y-111983333D01*
X146783333Y-112016666D02*
X146783333Y-111983333D01*
X147050000Y-112516666D02*
X146750000Y-111983333D01*
X147350000Y-111983333D01*
X147050000Y-112516666D01*
X148183333Y-112516666D02*
X148183333Y-111816666D01*
X148350000Y-111816666D01*
X148450000Y-111850000D01*
X148516666Y-111916666D01*
X148550000Y-111983333D01*
X148583333Y-112116666D01*
X148583333Y-112216666D01*
X148550000Y-112350000D01*
X148516666Y-112416666D01*
X148450000Y-112483333D01*
X148350000Y-112516666D01*
X148183333Y-112516666D01*
X148883333Y-112150000D02*
X149116666Y-112150000D01*
X149216666Y-112516666D02*
X148883333Y-112516666D01*
X148883333Y-111816666D01*
X149216666Y-111816666D01*
X149750000Y-112150000D02*
X149850000Y-112183333D01*
X149883333Y-112216666D01*
X149916666Y-112283333D01*
X149916666Y-112383333D01*
X149883333Y-112450000D01*
X149850000Y-112483333D01*
X149783333Y-112516666D01*
X149516666Y-112516666D01*
X149516666Y-111816666D01*
X149750000Y-111816666D01*
X149816666Y-111850000D01*
X149850000Y-111883333D01*
X149883333Y-111950000D01*
X149883333Y-112016666D01*
X149850000Y-112083333D01*
X149816666Y-112116666D01*
X149750000Y-112150000D01*
X149516666Y-112150000D01*
X150216666Y-111816666D02*
X150216666Y-112383333D01*
X150250000Y-112450000D01*
X150283333Y-112483333D01*
X150350000Y-112516666D01*
X150483333Y-112516666D01*
X150550000Y-112483333D01*
X150583333Y-112450000D01*
X150616666Y-112383333D01*
X150616666Y-111816666D01*
X151316666Y-111850000D02*
X151250000Y-111816666D01*
X151150000Y-111816666D01*
X151050000Y-111850000D01*
X150983333Y-111916666D01*
X150950000Y-111983333D01*
X150916666Y-112116666D01*
X150916666Y-112216666D01*
X150950000Y-112350000D01*
X150983333Y-112416666D01*
X151050000Y-112483333D01*
X151150000Y-112516666D01*
X151216666Y-112516666D01*
X151316666Y-112483333D01*
X151350000Y-112450000D01*
X151350000Y-112216666D01*
X151216666Y-112216666D01*
X142983333Y-106383333D02*
X143316666Y-106150000D01*
X142983333Y-105983333D02*
X143683333Y-105983333D01*
X143683333Y-106250000D01*
X143650000Y-106316666D01*
X143616666Y-106350000D01*
X143550000Y-106383333D01*
X143450000Y-106383333D01*
X143383333Y-106350000D01*
X143350000Y-106316666D01*
X143316666Y-106250000D01*
X143316666Y-105983333D01*
X143350000Y-106683333D02*
X143350000Y-106916666D01*
X142983333Y-107016666D02*
X142983333Y-106683333D01*
X143683333Y-106683333D01*
X143683333Y-107016666D01*
X143016666Y-107283333D02*
X142983333Y-107383333D01*
X142983333Y-107550000D01*
X143016666Y-107616666D01*
X143050000Y-107650000D01*
X143116666Y-107683333D01*
X143183333Y-107683333D01*
X143250000Y-107650000D01*
X143283333Y-107616666D01*
X143316666Y-107550000D01*
X143350000Y-107416666D01*
X143383333Y-107350000D01*
X143416666Y-107316666D01*
X143483333Y-107283333D01*
X143550000Y-107283333D01*
X143616666Y-107316666D01*
X143650000Y-107350000D01*
X143683333Y-107416666D01*
X143683333Y-107583333D01*
X143650000Y-107683333D01*
X143350000Y-107983333D02*
X143350000Y-108216666D01*
X142983333Y-108316666D02*
X142983333Y-107983333D01*
X143683333Y-107983333D01*
X143683333Y-108316666D01*
X143683333Y-108516666D02*
X143683333Y-108916666D01*
X142983333Y-108716666D02*
X143683333Y-108716666D01*
X156713333Y-94306666D02*
X156213333Y-94306666D01*
X156113333Y-94273333D01*
X156046666Y-94206666D01*
X156013333Y-94106666D01*
X156013333Y-94040000D01*
X156013333Y-94640000D02*
X156713333Y-94640000D01*
X156713333Y-94906666D01*
X156680000Y-94973333D01*
X156646666Y-95006666D01*
X156580000Y-95040000D01*
X156480000Y-95040000D01*
X156413333Y-95006666D01*
X156380000Y-94973333D01*
X156346666Y-94906666D01*
X156346666Y-94640000D01*
X156713333Y-95640000D02*
X156713333Y-95506666D01*
X156680000Y-95440000D01*
X156646666Y-95406666D01*
X156546666Y-95340000D01*
X156413333Y-95306666D01*
X156146666Y-95306666D01*
X156080000Y-95340000D01*
X156046666Y-95373333D01*
X156013333Y-95440000D01*
X156013333Y-95573333D01*
X156046666Y-95640000D01*
X156080000Y-95673333D01*
X156146666Y-95706666D01*
X156313333Y-95706666D01*
X156380000Y-95673333D01*
X156413333Y-95640000D01*
X156446666Y-95573333D01*
X156446666Y-95440000D01*
X156413333Y-95373333D01*
X156380000Y-95340000D01*
X156313333Y-95306666D01*
X148770000Y-106500000D02*
X148736666Y-106466666D01*
X148703333Y-106366666D01*
X148703333Y-106300000D01*
X148736666Y-106200000D01*
X148803333Y-106133333D01*
X148870000Y-106100000D01*
X149003333Y-106066666D01*
X149103333Y-106066666D01*
X149236666Y-106100000D01*
X149303333Y-106133333D01*
X149370000Y-106200000D01*
X149403333Y-106300000D01*
X149403333Y-106366666D01*
X149370000Y-106466666D01*
X149336666Y-106500000D01*
X148703333Y-107166666D02*
X148703333Y-106766666D01*
X148703333Y-106966666D02*
X149403333Y-106966666D01*
X149303333Y-106900000D01*
X149236666Y-106833333D01*
X149203333Y-106766666D01*
X149103333Y-107566666D02*
X149136666Y-107500000D01*
X149170000Y-107466666D01*
X149236666Y-107433333D01*
X149270000Y-107433333D01*
X149336666Y-107466666D01*
X149370000Y-107500000D01*
X149403333Y-107566666D01*
X149403333Y-107700000D01*
X149370000Y-107766666D01*
X149336666Y-107800000D01*
X149270000Y-107833333D01*
X149236666Y-107833333D01*
X149170000Y-107800000D01*
X149136666Y-107766666D01*
X149103333Y-107700000D01*
X149103333Y-107566666D01*
X149070000Y-107500000D01*
X149036666Y-107466666D01*
X148970000Y-107433333D01*
X148836666Y-107433333D01*
X148770000Y-107466666D01*
X148736666Y-107500000D01*
X148703333Y-107566666D01*
X148703333Y-107700000D01*
X148736666Y-107766666D01*
X148770000Y-107800000D01*
X148836666Y-107833333D01*
X148970000Y-107833333D01*
X149036666Y-107800000D01*
X149070000Y-107766666D01*
X149103333Y-107700000D01*
X144580000Y-90260000D02*
X144546666Y-90226666D01*
X144513333Y-90126666D01*
X144513333Y-90060000D01*
X144546666Y-89960000D01*
X144613333Y-89893333D01*
X144680000Y-89860000D01*
X144813333Y-89826666D01*
X144913333Y-89826666D01*
X145046666Y-89860000D01*
X145113333Y-89893333D01*
X145180000Y-89960000D01*
X145213333Y-90060000D01*
X145213333Y-90126666D01*
X145180000Y-90226666D01*
X145146666Y-90260000D01*
X144513333Y-90926666D02*
X144513333Y-90526666D01*
X144513333Y-90726666D02*
X145213333Y-90726666D01*
X145113333Y-90660000D01*
X145046666Y-90593333D01*
X145013333Y-90526666D01*
X144513333Y-91593333D02*
X144513333Y-91193333D01*
X144513333Y-91393333D02*
X145213333Y-91393333D01*
X145113333Y-91326666D01*
X145046666Y-91260000D01*
X145013333Y-91193333D01*
X152390000Y-77810000D02*
X152356666Y-77843333D01*
X152256666Y-77876666D01*
X152190000Y-77876666D01*
X152090000Y-77843333D01*
X152023333Y-77776666D01*
X151990000Y-77710000D01*
X151956666Y-77576666D01*
X151956666Y-77476666D01*
X151990000Y-77343333D01*
X152023333Y-77276666D01*
X152090000Y-77210000D01*
X152190000Y-77176666D01*
X152256666Y-77176666D01*
X152356666Y-77210000D01*
X152390000Y-77243333D01*
X153056666Y-77876666D02*
X152656666Y-77876666D01*
X152856666Y-77876666D02*
X152856666Y-77176666D01*
X152790000Y-77276666D01*
X152723333Y-77343333D01*
X152656666Y-77376666D01*
X153656666Y-77410000D02*
X153656666Y-77876666D01*
X153490000Y-77143333D02*
X153323333Y-77643333D01*
X153756666Y-77643333D01*
X144490000Y-92563333D02*
X144456666Y-92530000D01*
X144423333Y-92430000D01*
X144423333Y-92363333D01*
X144456666Y-92263333D01*
X144523333Y-92196666D01*
X144590000Y-92163333D01*
X144723333Y-92130000D01*
X144823333Y-92130000D01*
X144956666Y-92163333D01*
X145023333Y-92196666D01*
X145090000Y-92263333D01*
X145123333Y-92363333D01*
X145123333Y-92430000D01*
X145090000Y-92530000D01*
X145056666Y-92563333D01*
X145123333Y-93196666D02*
X145123333Y-92863333D01*
X144790000Y-92830000D01*
X144823333Y-92863333D01*
X144856666Y-92930000D01*
X144856666Y-93096666D01*
X144823333Y-93163333D01*
X144790000Y-93196666D01*
X144723333Y-93230000D01*
X144556666Y-93230000D01*
X144490000Y-93196666D01*
X144456666Y-93163333D01*
X144423333Y-93096666D01*
X144423333Y-92930000D01*
X144456666Y-92863333D01*
X144490000Y-92830000D01*
X155705000Y-85230000D02*
X155671666Y-85196666D01*
X155638333Y-85096666D01*
X155638333Y-85030000D01*
X155671666Y-84930000D01*
X155738333Y-84863333D01*
X155805000Y-84830000D01*
X155938333Y-84796666D01*
X156038333Y-84796666D01*
X156171666Y-84830000D01*
X156238333Y-84863333D01*
X156305000Y-84930000D01*
X156338333Y-85030000D01*
X156338333Y-85096666D01*
X156305000Y-85196666D01*
X156271666Y-85230000D01*
X155638333Y-85896666D02*
X155638333Y-85496666D01*
X155638333Y-85696666D02*
X156338333Y-85696666D01*
X156238333Y-85630000D01*
X156171666Y-85563333D01*
X156138333Y-85496666D01*
X156338333Y-86330000D02*
X156338333Y-86396666D01*
X156305000Y-86463333D01*
X156271666Y-86496666D01*
X156205000Y-86530000D01*
X156071666Y-86563333D01*
X155905000Y-86563333D01*
X155771666Y-86530000D01*
X155705000Y-86496666D01*
X155671666Y-86463333D01*
X155638333Y-86396666D01*
X155638333Y-86330000D01*
X155671666Y-86263333D01*
X155705000Y-86230000D01*
X155771666Y-86196666D01*
X155905000Y-86163333D01*
X156071666Y-86163333D01*
X156205000Y-86196666D01*
X156271666Y-86230000D01*
X156305000Y-86263333D01*
X156338333Y-86330000D01*
X145360000Y-101670000D02*
X145326666Y-101703333D01*
X145226666Y-101736666D01*
X145160000Y-101736666D01*
X145060000Y-101703333D01*
X144993333Y-101636666D01*
X144960000Y-101570000D01*
X144926666Y-101436666D01*
X144926666Y-101336666D01*
X144960000Y-101203333D01*
X144993333Y-101136666D01*
X145060000Y-101070000D01*
X145160000Y-101036666D01*
X145226666Y-101036666D01*
X145326666Y-101070000D01*
X145360000Y-101103333D01*
X146026666Y-101736666D02*
X145626666Y-101736666D01*
X145826666Y-101736666D02*
X145826666Y-101036666D01*
X145760000Y-101136666D01*
X145693333Y-101203333D01*
X145626666Y-101236666D01*
X146626666Y-101036666D02*
X146493333Y-101036666D01*
X146426666Y-101070000D01*
X146393333Y-101103333D01*
X146326666Y-101203333D01*
X146293333Y-101336666D01*
X146293333Y-101603333D01*
X146326666Y-101670000D01*
X146360000Y-101703333D01*
X146426666Y-101736666D01*
X146560000Y-101736666D01*
X146626666Y-101703333D01*
X146660000Y-101670000D01*
X146693333Y-101603333D01*
X146693333Y-101436666D01*
X146660000Y-101370000D01*
X146626666Y-101336666D01*
X146560000Y-101303333D01*
X146426666Y-101303333D01*
X146360000Y-101336666D01*
X146326666Y-101370000D01*
X146293333Y-101436666D01*
X143283333Y-84283333D02*
X143616666Y-84050000D01*
X143283333Y-83883333D02*
X143983333Y-83883333D01*
X143983333Y-84150000D01*
X143950000Y-84216666D01*
X143916666Y-84250000D01*
X143850000Y-84283333D01*
X143750000Y-84283333D01*
X143683333Y-84250000D01*
X143650000Y-84216666D01*
X143616666Y-84150000D01*
X143616666Y-83883333D01*
X143916666Y-84550000D02*
X143950000Y-84583333D01*
X143983333Y-84650000D01*
X143983333Y-84816666D01*
X143950000Y-84883333D01*
X143916666Y-84916666D01*
X143850000Y-84950000D01*
X143783333Y-84950000D01*
X143683333Y-84916666D01*
X143283333Y-84516666D01*
X143283333Y-84950000D01*
X155353333Y-104426666D02*
X155120000Y-104093333D01*
X154953333Y-104426666D02*
X154953333Y-103726666D01*
X155220000Y-103726666D01*
X155286666Y-103760000D01*
X155320000Y-103793333D01*
X155353333Y-103860000D01*
X155353333Y-103960000D01*
X155320000Y-104026666D01*
X155286666Y-104060000D01*
X155220000Y-104093333D01*
X154953333Y-104093333D01*
X155953333Y-103960000D02*
X155953333Y-104426666D01*
X155786666Y-103693333D02*
X155620000Y-104193333D01*
X156053333Y-104193333D01*
X146593333Y-98403333D02*
X146926666Y-98170000D01*
X146593333Y-98003333D02*
X147293333Y-98003333D01*
X147293333Y-98270000D01*
X147260000Y-98336666D01*
X147226666Y-98370000D01*
X147160000Y-98403333D01*
X147060000Y-98403333D01*
X146993333Y-98370000D01*
X146960000Y-98336666D01*
X146926666Y-98270000D01*
X146926666Y-98003333D01*
X147293333Y-98636666D02*
X147293333Y-99070000D01*
X147026666Y-98836666D01*
X147026666Y-98936666D01*
X146993333Y-99003333D01*
X146960000Y-99036666D01*
X146893333Y-99070000D01*
X146726666Y-99070000D01*
X146660000Y-99036666D01*
X146626666Y-99003333D01*
X146593333Y-98936666D01*
X146593333Y-98736666D01*
X146626666Y-98670000D01*
X146660000Y-98636666D01*
X155263333Y-90560000D02*
X155230000Y-90593333D01*
X155130000Y-90626666D01*
X155063333Y-90626666D01*
X154963333Y-90593333D01*
X154896666Y-90526666D01*
X154863333Y-90460000D01*
X154830000Y-90326666D01*
X154830000Y-90226666D01*
X154863333Y-90093333D01*
X154896666Y-90026666D01*
X154963333Y-89960000D01*
X155063333Y-89926666D01*
X155130000Y-89926666D01*
X155230000Y-89960000D01*
X155263333Y-89993333D01*
X155596666Y-90626666D02*
X155730000Y-90626666D01*
X155796666Y-90593333D01*
X155830000Y-90560000D01*
X155896666Y-90460000D01*
X155930000Y-90326666D01*
X155930000Y-90060000D01*
X155896666Y-89993333D01*
X155863333Y-89960000D01*
X155796666Y-89926666D01*
X155663333Y-89926666D01*
X155596666Y-89960000D01*
X155563333Y-89993333D01*
X155530000Y-90060000D01*
X155530000Y-90226666D01*
X155563333Y-90293333D01*
X155596666Y-90326666D01*
X155663333Y-90360000D01*
X155796666Y-90360000D01*
X155863333Y-90326666D01*
X155896666Y-90293333D01*
X155930000Y-90226666D01*
X152966666Y-101266666D02*
X152633333Y-101266666D01*
X153333333Y-101033333D02*
X152966666Y-101266666D01*
X153333333Y-101500000D01*
X152633333Y-102100000D02*
X152633333Y-101700000D01*
X152633333Y-101900000D02*
X153333333Y-101900000D01*
X153233333Y-101833333D01*
X153166666Y-101766666D01*
X153133333Y-101700000D01*
X145333333Y-96286666D02*
X144766666Y-96286666D01*
X144700000Y-96320000D01*
X144666666Y-96353333D01*
X144633333Y-96420000D01*
X144633333Y-96553333D01*
X144666666Y-96620000D01*
X144700000Y-96653333D01*
X144766666Y-96686666D01*
X145333333Y-96686666D01*
X145100000Y-97320000D02*
X144633333Y-97320000D01*
X145366666Y-97153333D02*
X144866666Y-96986666D01*
X144866666Y-97420000D01*
X144838333Y-86233333D02*
X145171666Y-86000000D01*
X144838333Y-85833333D02*
X145538333Y-85833333D01*
X145538333Y-86100000D01*
X145505000Y-86166666D01*
X145471666Y-86200000D01*
X145405000Y-86233333D01*
X145305000Y-86233333D01*
X145238333Y-86200000D01*
X145205000Y-86166666D01*
X145171666Y-86100000D01*
X145171666Y-85833333D01*
X145538333Y-86866666D02*
X145538333Y-86533333D01*
X145205000Y-86500000D01*
X145238333Y-86533333D01*
X145271666Y-86600000D01*
X145271666Y-86766666D01*
X145238333Y-86833333D01*
X145205000Y-86866666D01*
X145138333Y-86900000D01*
X144971666Y-86900000D01*
X144905000Y-86866666D01*
X144871666Y-86833333D01*
X144838333Y-86766666D01*
X144838333Y-86600000D01*
X144871666Y-86533333D01*
X144905000Y-86500000D01*
X142035000Y-86213333D02*
X142001666Y-86180000D01*
X141968333Y-86080000D01*
X141968333Y-86013333D01*
X142001666Y-85913333D01*
X142068333Y-85846666D01*
X142135000Y-85813333D01*
X142268333Y-85780000D01*
X142368333Y-85780000D01*
X142501666Y-85813333D01*
X142568333Y-85846666D01*
X142635000Y-85913333D01*
X142668333Y-86013333D01*
X142668333Y-86080000D01*
X142635000Y-86180000D01*
X142601666Y-86213333D01*
X142601666Y-86480000D02*
X142635000Y-86513333D01*
X142668333Y-86580000D01*
X142668333Y-86746666D01*
X142635000Y-86813333D01*
X142601666Y-86846666D01*
X142535000Y-86880000D01*
X142468333Y-86880000D01*
X142368333Y-86846666D01*
X141968333Y-86446666D01*
X141968333Y-86880000D01*
X147640000Y-98413333D02*
X147606666Y-98380000D01*
X147573333Y-98280000D01*
X147573333Y-98213333D01*
X147606666Y-98113333D01*
X147673333Y-98046666D01*
X147740000Y-98013333D01*
X147873333Y-97980000D01*
X147973333Y-97980000D01*
X148106666Y-98013333D01*
X148173333Y-98046666D01*
X148240000Y-98113333D01*
X148273333Y-98213333D01*
X148273333Y-98280000D01*
X148240000Y-98380000D01*
X148206666Y-98413333D01*
X147573333Y-99080000D02*
X147573333Y-98680000D01*
X147573333Y-98880000D02*
X148273333Y-98880000D01*
X148173333Y-98813333D01*
X148106666Y-98746666D01*
X148073333Y-98680000D01*
X143283333Y-78416666D02*
X142716666Y-78416666D01*
X142650000Y-78450000D01*
X142616666Y-78483333D01*
X142583333Y-78550000D01*
X142583333Y-78683333D01*
X142616666Y-78750000D01*
X142650000Y-78783333D01*
X142716666Y-78816666D01*
X143283333Y-78816666D01*
X143283333Y-79083333D02*
X143283333Y-79516666D01*
X143016666Y-79283333D01*
X143016666Y-79383333D01*
X142983333Y-79450000D01*
X142950000Y-79483333D01*
X142883333Y-79516666D01*
X142716666Y-79516666D01*
X142650000Y-79483333D01*
X142616666Y-79450000D01*
X142583333Y-79383333D01*
X142583333Y-79183333D01*
X142616666Y-79116666D01*
X142650000Y-79083333D01*
X143940000Y-86208333D02*
X143906666Y-86175000D01*
X143873333Y-86075000D01*
X143873333Y-86008333D01*
X143906666Y-85908333D01*
X143973333Y-85841666D01*
X144040000Y-85808333D01*
X144173333Y-85775000D01*
X144273333Y-85775000D01*
X144406666Y-85808333D01*
X144473333Y-85841666D01*
X144540000Y-85908333D01*
X144573333Y-86008333D01*
X144573333Y-86075000D01*
X144540000Y-86175000D01*
X144506666Y-86208333D01*
X144340000Y-86808333D02*
X143873333Y-86808333D01*
X144606666Y-86641666D02*
X144106666Y-86475000D01*
X144106666Y-86908333D01*
X142183333Y-84353333D02*
X142516666Y-84120000D01*
X142183333Y-83953333D02*
X142883333Y-83953333D01*
X142883333Y-84220000D01*
X142850000Y-84286666D01*
X142816666Y-84320000D01*
X142750000Y-84353333D01*
X142650000Y-84353333D01*
X142583333Y-84320000D01*
X142550000Y-84286666D01*
X142516666Y-84220000D01*
X142516666Y-83953333D01*
X142183333Y-85020000D02*
X142183333Y-84620000D01*
X142183333Y-84820000D02*
X142883333Y-84820000D01*
X142783333Y-84753333D01*
X142716666Y-84686666D01*
X142683333Y-84620000D01*
X154580000Y-85573333D02*
X154546666Y-85540000D01*
X154513333Y-85440000D01*
X154513333Y-85373333D01*
X154546666Y-85273333D01*
X154613333Y-85206666D01*
X154680000Y-85173333D01*
X154813333Y-85140000D01*
X154913333Y-85140000D01*
X155046666Y-85173333D01*
X155113333Y-85206666D01*
X155180000Y-85273333D01*
X155213333Y-85373333D01*
X155213333Y-85440000D01*
X155180000Y-85540000D01*
X155146666Y-85573333D01*
X155213333Y-85806666D02*
X155213333Y-86240000D01*
X154946666Y-86006666D01*
X154946666Y-86106666D01*
X154913333Y-86173333D01*
X154880000Y-86206666D01*
X154813333Y-86240000D01*
X154646666Y-86240000D01*
X154580000Y-86206666D01*
X154546666Y-86173333D01*
X154513333Y-86106666D01*
X154513333Y-85906666D01*
X154546666Y-85840000D01*
X154580000Y-85806666D01*
X142210000Y-72860000D02*
X142176666Y-72826666D01*
X142143333Y-72726666D01*
X142143333Y-72660000D01*
X142176666Y-72560000D01*
X142243333Y-72493333D01*
X142310000Y-72460000D01*
X142443333Y-72426666D01*
X142543333Y-72426666D01*
X142676666Y-72460000D01*
X142743333Y-72493333D01*
X142810000Y-72560000D01*
X142843333Y-72660000D01*
X142843333Y-72726666D01*
X142810000Y-72826666D01*
X142776666Y-72860000D01*
X142143333Y-73526666D02*
X142143333Y-73126666D01*
X142143333Y-73326666D02*
X142843333Y-73326666D01*
X142743333Y-73260000D01*
X142676666Y-73193333D01*
X142643333Y-73126666D01*
X142843333Y-73760000D02*
X142843333Y-74226666D01*
X142143333Y-73926666D01*
X145793333Y-100546666D02*
X145560000Y-100213333D01*
X145393333Y-100546666D02*
X145393333Y-99846666D01*
X145660000Y-99846666D01*
X145726666Y-99880000D01*
X145760000Y-99913333D01*
X145793333Y-99980000D01*
X145793333Y-100080000D01*
X145760000Y-100146666D01*
X145726666Y-100180000D01*
X145660000Y-100213333D01*
X145393333Y-100213333D01*
X146126666Y-100546666D02*
X146260000Y-100546666D01*
X146326666Y-100513333D01*
X146360000Y-100480000D01*
X146426666Y-100380000D01*
X146460000Y-100246666D01*
X146460000Y-99980000D01*
X146426666Y-99913333D01*
X146393333Y-99880000D01*
X146326666Y-99846666D01*
X146193333Y-99846666D01*
X146126666Y-99880000D01*
X146093333Y-99913333D01*
X146060000Y-99980000D01*
X146060000Y-100146666D01*
X146093333Y-100213333D01*
X146126666Y-100246666D01*
X146193333Y-100280000D01*
X146326666Y-100280000D01*
X146393333Y-100246666D01*
X146426666Y-100213333D01*
X146460000Y-100146666D01*
X152120000Y-98413333D02*
X152086666Y-98380000D01*
X152053333Y-98280000D01*
X152053333Y-98213333D01*
X152086666Y-98113333D01*
X152153333Y-98046666D01*
X152220000Y-98013333D01*
X152353333Y-97980000D01*
X152453333Y-97980000D01*
X152586666Y-98013333D01*
X152653333Y-98046666D01*
X152720000Y-98113333D01*
X152753333Y-98213333D01*
X152753333Y-98280000D01*
X152720000Y-98380000D01*
X152686666Y-98413333D01*
X152453333Y-98813333D02*
X152486666Y-98746666D01*
X152520000Y-98713333D01*
X152586666Y-98680000D01*
X152620000Y-98680000D01*
X152686666Y-98713333D01*
X152720000Y-98746666D01*
X152753333Y-98813333D01*
X152753333Y-98946666D01*
X152720000Y-99013333D01*
X152686666Y-99046666D01*
X152620000Y-99080000D01*
X152586666Y-99080000D01*
X152520000Y-99046666D01*
X152486666Y-99013333D01*
X152453333Y-98946666D01*
X152453333Y-98813333D01*
X152420000Y-98746666D01*
X152386666Y-98713333D01*
X152320000Y-98680000D01*
X152186666Y-98680000D01*
X152120000Y-98713333D01*
X152086666Y-98746666D01*
X152053333Y-98813333D01*
X152053333Y-98946666D01*
X152086666Y-99013333D01*
X152120000Y-99046666D01*
X152186666Y-99080000D01*
X152320000Y-99080000D01*
X152386666Y-99046666D01*
X152420000Y-99013333D01*
X152453333Y-98946666D01*
X154940000Y-94623333D02*
X154906666Y-94590000D01*
X154873333Y-94490000D01*
X154873333Y-94423333D01*
X154906666Y-94323333D01*
X154973333Y-94256666D01*
X155040000Y-94223333D01*
X155173333Y-94190000D01*
X155273333Y-94190000D01*
X155406666Y-94223333D01*
X155473333Y-94256666D01*
X155540000Y-94323333D01*
X155573333Y-94423333D01*
X155573333Y-94490000D01*
X155540000Y-94590000D01*
X155506666Y-94623333D01*
X155573333Y-94856666D02*
X155573333Y-95323333D01*
X154873333Y-95023333D01*
X156500000Y-83240000D02*
X156466666Y-83206666D01*
X156433333Y-83106666D01*
X156433333Y-83040000D01*
X156466666Y-82940000D01*
X156533333Y-82873333D01*
X156600000Y-82840000D01*
X156733333Y-82806666D01*
X156833333Y-82806666D01*
X156966666Y-82840000D01*
X157033333Y-82873333D01*
X157100000Y-82940000D01*
X157133333Y-83040000D01*
X157133333Y-83106666D01*
X157100000Y-83206666D01*
X157066666Y-83240000D01*
X156433333Y-83906666D02*
X156433333Y-83506666D01*
X156433333Y-83706666D02*
X157133333Y-83706666D01*
X157033333Y-83640000D01*
X156966666Y-83573333D01*
X156933333Y-83506666D01*
X157133333Y-84140000D02*
X157133333Y-84573333D01*
X156866666Y-84340000D01*
X156866666Y-84440000D01*
X156833333Y-84506666D01*
X156800000Y-84540000D01*
X156733333Y-84573333D01*
X156566666Y-84573333D01*
X156500000Y-84540000D01*
X156466666Y-84506666D01*
X156433333Y-84440000D01*
X156433333Y-84240000D01*
X156466666Y-84173333D01*
X156500000Y-84140000D01*
X156450000Y-77620000D02*
X156416666Y-77586666D01*
X156383333Y-77486666D01*
X156383333Y-77420000D01*
X156416666Y-77320000D01*
X156483333Y-77253333D01*
X156550000Y-77220000D01*
X156683333Y-77186666D01*
X156783333Y-77186666D01*
X156916666Y-77220000D01*
X156983333Y-77253333D01*
X157050000Y-77320000D01*
X157083333Y-77420000D01*
X157083333Y-77486666D01*
X157050000Y-77586666D01*
X157016666Y-77620000D01*
X156383333Y-78286666D02*
X156383333Y-77886666D01*
X156383333Y-78086666D02*
X157083333Y-78086666D01*
X156983333Y-78020000D01*
X156916666Y-77953333D01*
X156883333Y-77886666D01*
X157083333Y-78920000D02*
X157083333Y-78586666D01*
X156750000Y-78553333D01*
X156783333Y-78586666D01*
X156816666Y-78653333D01*
X156816666Y-78820000D01*
X156783333Y-78886666D01*
X156750000Y-78920000D01*
X156683333Y-78953333D01*
X156516666Y-78953333D01*
X156450000Y-78920000D01*
X156416666Y-78886666D01*
X156383333Y-78820000D01*
X156383333Y-78653333D01*
X156416666Y-78586666D01*
X156450000Y-78553333D01*
X143113333Y-73133333D02*
X143446666Y-72900000D01*
X143113333Y-72733333D02*
X143813333Y-72733333D01*
X143813333Y-73000000D01*
X143780000Y-73066666D01*
X143746666Y-73100000D01*
X143680000Y-73133333D01*
X143580000Y-73133333D01*
X143513333Y-73100000D01*
X143480000Y-73066666D01*
X143446666Y-73000000D01*
X143446666Y-72733333D01*
X143513333Y-73533333D02*
X143546666Y-73466666D01*
X143580000Y-73433333D01*
X143646666Y-73400000D01*
X143680000Y-73400000D01*
X143746666Y-73433333D01*
X143780000Y-73466666D01*
X143813333Y-73533333D01*
X143813333Y-73666666D01*
X143780000Y-73733333D01*
X143746666Y-73766666D01*
X143680000Y-73800000D01*
X143646666Y-73800000D01*
X143580000Y-73766666D01*
X143546666Y-73733333D01*
X143513333Y-73666666D01*
X143513333Y-73533333D01*
X143480000Y-73466666D01*
X143446666Y-73433333D01*
X143380000Y-73400000D01*
X143246666Y-73400000D01*
X143180000Y-73433333D01*
X143146666Y-73466666D01*
X143113333Y-73533333D01*
X143113333Y-73666666D01*
X143146666Y-73733333D01*
X143180000Y-73766666D01*
X143246666Y-73800000D01*
X143380000Y-73800000D01*
X143446666Y-73766666D01*
X143480000Y-73733333D01*
X143513333Y-73666666D01*
X155011666Y-69243666D02*
X154311666Y-69243666D01*
X154311666Y-69077000D01*
X154345000Y-68977000D01*
X154411666Y-68910333D01*
X154478333Y-68877000D01*
X154611666Y-68843666D01*
X154711666Y-68843666D01*
X154845000Y-68877000D01*
X154911666Y-68910333D01*
X154978333Y-68977000D01*
X155011666Y-69077000D01*
X155011666Y-69243666D01*
X154378333Y-68577000D02*
X154345000Y-68543666D01*
X154311666Y-68477000D01*
X154311666Y-68310333D01*
X154345000Y-68243666D01*
X154378333Y-68210333D01*
X154445000Y-68177000D01*
X154511666Y-68177000D01*
X154611666Y-68210333D01*
X155011666Y-68610333D01*
X155011666Y-68177000D01*
X151160000Y-106460000D02*
X151126666Y-106426666D01*
X151093333Y-106326666D01*
X151093333Y-106260000D01*
X151126666Y-106160000D01*
X151193333Y-106093333D01*
X151260000Y-106060000D01*
X151393333Y-106026666D01*
X151493333Y-106026666D01*
X151626666Y-106060000D01*
X151693333Y-106093333D01*
X151760000Y-106160000D01*
X151793333Y-106260000D01*
X151793333Y-106326666D01*
X151760000Y-106426666D01*
X151726666Y-106460000D01*
X151093333Y-107126666D02*
X151093333Y-106726666D01*
X151093333Y-106926666D02*
X151793333Y-106926666D01*
X151693333Y-106860000D01*
X151626666Y-106793333D01*
X151593333Y-106726666D01*
X151093333Y-107460000D02*
X151093333Y-107593333D01*
X151126666Y-107660000D01*
X151160000Y-107693333D01*
X151260000Y-107760000D01*
X151393333Y-107793333D01*
X151660000Y-107793333D01*
X151726666Y-107760000D01*
X151760000Y-107726666D01*
X151793333Y-107660000D01*
X151793333Y-107526666D01*
X151760000Y-107460000D01*
X151726666Y-107426666D01*
X151660000Y-107393333D01*
X151493333Y-107393333D01*
X151426666Y-107426666D01*
X151393333Y-107460000D01*
X151360000Y-107526666D01*
X151360000Y-107660000D01*
X151393333Y-107726666D01*
X151426666Y-107760000D01*
X151493333Y-107793333D01*
X142990000Y-86213333D02*
X142956666Y-86180000D01*
X142923333Y-86080000D01*
X142923333Y-86013333D01*
X142956666Y-85913333D01*
X143023333Y-85846666D01*
X143090000Y-85813333D01*
X143223333Y-85780000D01*
X143323333Y-85780000D01*
X143456666Y-85813333D01*
X143523333Y-85846666D01*
X143590000Y-85913333D01*
X143623333Y-86013333D01*
X143623333Y-86080000D01*
X143590000Y-86180000D01*
X143556666Y-86213333D01*
X143623333Y-86813333D02*
X143623333Y-86680000D01*
X143590000Y-86613333D01*
X143556666Y-86580000D01*
X143456666Y-86513333D01*
X143323333Y-86480000D01*
X143056666Y-86480000D01*
X142990000Y-86513333D01*
X142956666Y-86546666D01*
X142923333Y-86613333D01*
X142923333Y-86746666D01*
X142956666Y-86813333D01*
X142990000Y-86846666D01*
X143056666Y-86880000D01*
X143223333Y-86880000D01*
X143290000Y-86846666D01*
X143323333Y-86813333D01*
X143356666Y-86746666D01*
X143356666Y-86613333D01*
X143323333Y-86546666D01*
X143290000Y-86513333D01*
X143223333Y-86480000D01*
X145788333Y-86229168D02*
X146121666Y-85995835D01*
X145788333Y-85829168D02*
X146488333Y-85829168D01*
X146488333Y-86095835D01*
X146455000Y-86162501D01*
X146421666Y-86195835D01*
X146355000Y-86229168D01*
X146255000Y-86229168D01*
X146188333Y-86195835D01*
X146155000Y-86162501D01*
X146121666Y-86095835D01*
X146121666Y-85829168D01*
X146488333Y-86829168D02*
X146488333Y-86695835D01*
X146455000Y-86629168D01*
X146421666Y-86595835D01*
X146321666Y-86529168D01*
X146188333Y-86495835D01*
X145921666Y-86495835D01*
X145855000Y-86529168D01*
X145821666Y-86562501D01*
X145788333Y-86629168D01*
X145788333Y-86762501D01*
X145821666Y-86829168D01*
X145855000Y-86862501D01*
X145921666Y-86895835D01*
X146088333Y-86895835D01*
X146155000Y-86862501D01*
X146188333Y-86829168D01*
X146221666Y-86762501D01*
X146221666Y-86629168D01*
X146188333Y-86562501D01*
X146155000Y-86529168D01*
X146088333Y-86495835D01*
X156480000Y-81135000D02*
X156446666Y-81101666D01*
X156413333Y-81001666D01*
X156413333Y-80935000D01*
X156446666Y-80835000D01*
X156513333Y-80768333D01*
X156580000Y-80735000D01*
X156713333Y-80701666D01*
X156813333Y-80701666D01*
X156946666Y-80735000D01*
X157013333Y-80768333D01*
X157080000Y-80835000D01*
X157113333Y-80935000D01*
X157113333Y-81001666D01*
X157080000Y-81101666D01*
X157046666Y-81135000D01*
X156413333Y-81801666D02*
X156413333Y-81401666D01*
X156413333Y-81601666D02*
X157113333Y-81601666D01*
X157013333Y-81535000D01*
X156946666Y-81468333D01*
X156913333Y-81401666D01*
X157046666Y-82068333D02*
X157080000Y-82101666D01*
X157113333Y-82168333D01*
X157113333Y-82335000D01*
X157080000Y-82401666D01*
X157046666Y-82435000D01*
X156980000Y-82468333D01*
X156913333Y-82468333D01*
X156813333Y-82435000D01*
X156413333Y-82035000D01*
X156413333Y-82468333D01*
X156753333Y-87100307D02*
X156253333Y-87100307D01*
X156153333Y-87066974D01*
X156086666Y-87000307D01*
X156053333Y-86900307D01*
X156053333Y-86833641D01*
X156053333Y-87433641D02*
X156753333Y-87433641D01*
X156753333Y-87700307D01*
X156720000Y-87766974D01*
X156686666Y-87800307D01*
X156620000Y-87833641D01*
X156520000Y-87833641D01*
X156453333Y-87800307D01*
X156420000Y-87766974D01*
X156386666Y-87700307D01*
X156386666Y-87433641D01*
X156753333Y-88466974D02*
X156753333Y-88133641D01*
X156420000Y-88100307D01*
X156453333Y-88133641D01*
X156486666Y-88200307D01*
X156486666Y-88366974D01*
X156453333Y-88433641D01*
X156420000Y-88466974D01*
X156353333Y-88500307D01*
X156186666Y-88500307D01*
X156120000Y-88466974D01*
X156086666Y-88433641D01*
X156053333Y-88366974D01*
X156053333Y-88200307D01*
X156086666Y-88133641D01*
X156120000Y-88100307D01*
X153883333Y-72646666D02*
X153650000Y-72313333D01*
X153483333Y-72646666D02*
X153483333Y-71946666D01*
X153750000Y-71946666D01*
X153816666Y-71980000D01*
X153850000Y-72013333D01*
X153883333Y-72080000D01*
X153883333Y-72180000D01*
X153850000Y-72246666D01*
X153816666Y-72280000D01*
X153750000Y-72313333D01*
X153483333Y-72313333D01*
X154116666Y-71946666D02*
X154583333Y-71946666D01*
X154283333Y-72646666D01*
X157063333Y-79316666D02*
X156496666Y-79316666D01*
X156430000Y-79350000D01*
X156396666Y-79383333D01*
X156363333Y-79450000D01*
X156363333Y-79583333D01*
X156396666Y-79650000D01*
X156430000Y-79683333D01*
X156496666Y-79716666D01*
X157063333Y-79716666D01*
X156996666Y-80016666D02*
X157030000Y-80050000D01*
X157063333Y-80116666D01*
X157063333Y-80283333D01*
X157030000Y-80350000D01*
X156996666Y-80383333D01*
X156930000Y-80416666D01*
X156863333Y-80416666D01*
X156763333Y-80383333D01*
X156363333Y-79983333D01*
X156363333Y-80416666D01*
D12*
X156680000Y-96856359D02*
X156680000Y-97163641D01*
X155920000Y-96856359D02*
X155920000Y-97163641D01*
X156540000Y-100096267D02*
X156540000Y-99803733D01*
X155520000Y-100096267D02*
X155520000Y-99803733D01*
X149350000Y-104464165D02*
X149350000Y-104695835D01*
X148630000Y-104464165D02*
X148630000Y-104695835D01*
X144570000Y-88605835D02*
X144570000Y-88374165D01*
X145290000Y-88605835D02*
X145290000Y-88374165D01*
X154735276Y-105977500D02*
X155244724Y-105977500D01*
X154735276Y-107022500D02*
X155244724Y-107022500D01*
X155123641Y-76020000D02*
X154816359Y-76020000D01*
X155123641Y-76780000D02*
X154816359Y-76780000D01*
X153600000Y-75650580D02*
X153600000Y-75369420D01*
X152580000Y-75650580D02*
X152580000Y-75369420D01*
X144440000Y-94404165D02*
X144440000Y-94635835D01*
X145160000Y-94404165D02*
X145160000Y-94635835D01*
X153965000Y-86385835D02*
X153965000Y-86154165D01*
X153245000Y-86385835D02*
X153245000Y-86154165D01*
X146025835Y-104020000D02*
X145794165Y-104020000D01*
X146025835Y-103300000D02*
X145794165Y-103300000D01*
X147932379Y-84750000D02*
X148267621Y-84750000D01*
X147932379Y-83990000D02*
X148267621Y-83990000D01*
X155637621Y-105520000D02*
X155302379Y-105520000D01*
X155637621Y-104760000D02*
X155302379Y-104760000D01*
X149400000Y-98412379D02*
X149400000Y-98747621D01*
X148640000Y-98412379D02*
X148640000Y-98747621D01*
X155264165Y-88810000D02*
X155495835Y-88810000D01*
X155264165Y-89530000D02*
X155495835Y-89530000D01*
X148200000Y-99950000D02*
X148200000Y-103250000D01*
X148200000Y-103250000D02*
X152200000Y-103250000D01*
X153430000Y-95980000D02*
X153430000Y-95330000D01*
X146860000Y-95980000D02*
X146210000Y-95980000D01*
X146860000Y-88760000D02*
X146210000Y-88760000D01*
X153430000Y-88760000D02*
X153430000Y-89410000D01*
X146210000Y-95980000D02*
X146210000Y-95330000D01*
X152780000Y-95980000D02*
X153430000Y-95980000D01*
X152780000Y-88760000D02*
X153430000Y-88760000D01*
X151105000Y-86082379D02*
X151105000Y-86417621D01*
X150345000Y-86082379D02*
X150345000Y-86417621D01*
X146765000Y-86385835D02*
X146765000Y-86154165D01*
X147485000Y-86385835D02*
X147485000Y-86154165D01*
X149790000Y-98454165D02*
X149790000Y-98685835D01*
X150510000Y-98454165D02*
X150510000Y-98685835D01*
X143835000Y-78750000D02*
X143835000Y-76025000D01*
X143835000Y-76025000D02*
X144095000Y-76025000D01*
X149285000Y-81475000D02*
X149025000Y-81475000D01*
X149285000Y-78750000D02*
X149285000Y-76025000D01*
X144095000Y-81475000D02*
X144095000Y-83150000D01*
X143835000Y-78750000D02*
X143835000Y-81475000D01*
X149285000Y-76025000D02*
X149025000Y-76025000D01*
X143835000Y-81475000D02*
X144095000Y-81475000D01*
X149285000Y-78750000D02*
X149285000Y-81475000D01*
X149680000Y-86390835D02*
X149680000Y-86159165D01*
X148960000Y-86390835D02*
X148960000Y-86159165D01*
X145302379Y-83990000D02*
X145637621Y-83990000D01*
X145302379Y-84750000D02*
X145637621Y-84750000D01*
X152990000Y-86375835D02*
X152990000Y-86144165D01*
X152270000Y-86375835D02*
X152270000Y-86144165D01*
X145094165Y-73760000D02*
X145325835Y-73760000D01*
X145094165Y-73040000D02*
X145325835Y-73040000D01*
X154796359Y-74990000D02*
X155103641Y-74990000D01*
X154796359Y-75750000D02*
X155103641Y-75750000D01*
X145620000Y-115630000D02*
X145620000Y-113700000D01*
X145742379Y-102980000D02*
X146077621Y-102980000D01*
X145742379Y-102220000D02*
X146077621Y-102220000D01*
X151530000Y-98454165D02*
X151530000Y-98685835D01*
X150810000Y-98454165D02*
X150810000Y-98685835D01*
X154840000Y-96574165D02*
X154840000Y-96805835D01*
X155560000Y-96574165D02*
X155560000Y-96805835D01*
X154449420Y-83570000D02*
X154730580Y-83570000D01*
X154449420Y-84590000D02*
X154730580Y-84590000D01*
D13*
X153910000Y-70930000D02*
X153910000Y-63830000D01*
X145110000Y-63830000D02*
X153910000Y-63830000D01*
X153910000Y-70930000D02*
X145110000Y-70930000D01*
X145110000Y-70930000D02*
X145110000Y-63830000D01*
X145310000Y-64930000D02*
X153710000Y-64930000D01*
D14*
X149510000Y-70450000D02*
X149510000Y-64130000D01*
D12*
X154854165Y-77100000D02*
X155085835Y-77100000D01*
X154854165Y-77820000D02*
X155085835Y-77820000D01*
X154796359Y-74020000D02*
X155103641Y-74020000D01*
X154796359Y-74780000D02*
X155103641Y-74780000D01*
X147617621Y-73780000D02*
X147282379Y-73780000D01*
X147617621Y-73020000D02*
X147282379Y-73020000D01*
X154900000Y-73700000D02*
X156900000Y-73700000D01*
X154900000Y-73700000D02*
X154900000Y-69850000D01*
X156900000Y-73700000D02*
X156900000Y-69850000D01*
X153410000Y-67512500D02*
X153410000Y-69362500D01*
X145610000Y-69362500D02*
X146060000Y-69362500D01*
X145610000Y-67512500D02*
X145610000Y-69362500D01*
X151210000Y-69912500D02*
X151210000Y-69462500D01*
X153410000Y-64962500D02*
X153410000Y-65212500D01*
X153410000Y-69362500D02*
X152960000Y-69362500D01*
X145610000Y-64962500D02*
X145610000Y-65212500D01*
X151210000Y-69912500D02*
X150760000Y-69912500D01*
X146500000Y-104350000D02*
X145300000Y-104350000D01*
X147500000Y-105200000D02*
X147500000Y-109400000D01*
X144300000Y-109400000D02*
X144850000Y-109400000D01*
X146950000Y-105200000D02*
X147500000Y-105200000D01*
X144300000Y-105200000D02*
X144300000Y-109400000D01*
X144850000Y-105200000D02*
X144300000Y-105200000D01*
X147500000Y-109400000D02*
X146950000Y-109400000D01*
X151070000Y-104474165D02*
X151070000Y-104705835D01*
X151790000Y-104474165D02*
X151790000Y-104705835D01*
X148780000Y-86385835D02*
X148780000Y-86154165D01*
X148060000Y-86385835D02*
X148060000Y-86154165D01*
X152105000Y-86082379D02*
X152105000Y-86417621D01*
X151345000Y-86082379D02*
X151345000Y-86417621D01*
X152625000Y-83185000D02*
X155335000Y-83185000D01*
X155335000Y-81615000D02*
X152625000Y-81615000D01*
X152625000Y-81615000D02*
X152625000Y-83185000D01*
X155730000Y-87286359D02*
X155730000Y-87593641D01*
X154970000Y-87286359D02*
X154970000Y-87593641D01*
X153232379Y-73680000D02*
X153567621Y-73680000D01*
X153232379Y-72920000D02*
X153567621Y-72920000D01*
X154050000Y-81330000D02*
X155850000Y-81330000D01*
X154050000Y-78210000D02*
X154850000Y-78210000D01*
X154050000Y-78210000D02*
X153250000Y-78210000D01*
X154050000Y-81330000D02*
X153250000Y-81330000D01*
%LPC*%
D15*
X156300000Y-96500000D03*
X156300000Y-97520000D03*
D16*
X156030000Y-100812500D03*
X156030000Y-99087500D03*
D17*
X148990000Y-104012500D03*
X148990000Y-105147500D03*
D18*
X144930000Y-89057500D03*
X144930000Y-87922500D03*
D19*
X154077500Y-106500000D03*
X155902500Y-106500000D03*
D20*
X155480000Y-76400000D03*
X154460000Y-76400000D03*
D21*
X153090000Y-76285000D03*
X153090000Y-74735000D03*
D17*
X144800000Y-93952500D03*
X144800000Y-95087500D03*
D18*
X153605000Y-86837500D03*
X153605000Y-85702500D03*
D22*
X146477500Y-103660000D03*
X145342500Y-103660000D03*
D23*
X147502500Y-84370000D03*
X148697500Y-84370000D03*
D24*
X156067500Y-105140000D03*
X154872500Y-105140000D03*
D25*
X156000000Y-114510000D03*
D26*
X149020000Y-97982500D03*
X149020000Y-99177500D03*
D27*
X154812500Y-89170000D03*
X155947500Y-89170000D03*
D28*
X149100000Y-102450000D03*
X151300000Y-102450000D03*
X151300000Y-100750000D03*
X149100000Y-100750000D03*
D29*
X146382500Y-89770000D03*
X146382500Y-90170000D03*
X146382500Y-90570000D03*
X146382500Y-90970000D03*
X146382500Y-91370000D03*
X146382500Y-91770000D03*
X146382500Y-92170000D03*
X146382500Y-92570000D03*
X146382500Y-92970000D03*
X146382500Y-93370000D03*
X146382500Y-93770000D03*
X146382500Y-94170000D03*
X146382500Y-94570000D03*
X146382500Y-94970000D03*
D30*
X147220000Y-95807500D03*
X147620000Y-95807500D03*
X148020000Y-95807500D03*
X148420000Y-95807500D03*
X148820000Y-95807500D03*
X149220000Y-95807500D03*
X149620000Y-95807500D03*
X150020000Y-95807500D03*
X150420000Y-95807500D03*
X150820000Y-95807500D03*
X151220000Y-95807500D03*
X151620000Y-95807500D03*
X152020000Y-95807500D03*
X152420000Y-95807500D03*
D29*
X153257500Y-94970000D03*
X153257500Y-94570000D03*
X153257500Y-94170000D03*
X153257500Y-93770000D03*
X153257500Y-93370000D03*
X153257500Y-92970000D03*
X153257500Y-92570000D03*
X153257500Y-92170000D03*
X153257500Y-91770000D03*
X153257500Y-91370000D03*
X153257500Y-90970000D03*
X153257500Y-90570000D03*
X153257500Y-90170000D03*
X153257500Y-89770000D03*
D30*
X152420000Y-88932500D03*
X152020000Y-88932500D03*
X151620000Y-88932500D03*
X151220000Y-88932500D03*
X150820000Y-88932500D03*
X150420000Y-88932500D03*
X150020000Y-88932500D03*
X149620000Y-88932500D03*
X149220000Y-88932500D03*
X148820000Y-88932500D03*
X148420000Y-88932500D03*
X148020000Y-88932500D03*
X147620000Y-88932500D03*
X147220000Y-88932500D03*
D31*
X149820000Y-92370000D03*
D26*
X150725000Y-85652500D03*
X150725000Y-86847500D03*
D18*
X147125000Y-86837500D03*
X147125000Y-85702500D03*
D17*
X150150000Y-98002500D03*
X150150000Y-99137500D03*
D32*
X144655000Y-82350000D03*
X145925000Y-82350000D03*
X147195000Y-82350000D03*
X148465000Y-82350000D03*
X148465000Y-75150000D03*
X147195000Y-75150000D03*
X145925000Y-75150000D03*
X144655000Y-75150000D03*
D18*
X149320000Y-86842500D03*
X149320000Y-85707500D03*
D23*
X144872500Y-84370000D03*
X146067500Y-84370000D03*
D18*
X152630000Y-86827500D03*
X152630000Y-85692500D03*
D27*
X144642500Y-73400000D03*
X145777500Y-73400000D03*
D33*
X154440000Y-75370000D03*
X155460000Y-75370000D03*
D34*
X146950000Y-114400000D03*
D35*
X146950000Y-116010000D03*
D34*
X149490000Y-114400000D03*
D35*
X149490000Y-116010000D03*
D34*
X152030000Y-114400000D03*
D35*
X152030000Y-116010000D03*
D23*
X145312500Y-102600000D03*
X146507500Y-102600000D03*
D17*
X151170000Y-98002500D03*
X151170000Y-99137500D03*
X155200000Y-96122500D03*
X155200000Y-97257500D03*
D36*
X153815000Y-84080000D03*
X155365000Y-84080000D03*
D25*
X143000000Y-114510000D03*
D37*
X146610000Y-70080000D03*
X152410000Y-70080000D03*
D38*
X152910000Y-71530000D03*
X152110000Y-71530000D03*
X150760000Y-71530000D03*
X149760000Y-71530000D03*
X149260000Y-71530000D03*
X148260000Y-71530000D03*
X146910000Y-71530000D03*
X146110000Y-71530000D03*
X146410000Y-71530000D03*
X147210000Y-71530000D03*
X147760000Y-71530000D03*
X148760000Y-71530000D03*
X150260000Y-71530000D03*
X151260000Y-71530000D03*
X151810000Y-71530000D03*
X152610000Y-71530000D03*
D39*
X153830000Y-70610000D03*
X145190000Y-70610000D03*
X153830000Y-66430000D03*
X145190000Y-66430000D03*
D27*
X154402500Y-77460000D03*
X155537500Y-77460000D03*
D33*
X154440000Y-74400000D03*
X155460000Y-74400000D03*
D24*
X148047500Y-73400000D03*
X146852500Y-73400000D03*
D40*
X155900000Y-72900000D03*
X155900000Y-70100000D03*
D25*
X156000000Y-66510000D03*
D41*
X150810000Y-69062500D03*
X150160000Y-69062500D03*
X149510000Y-69062500D03*
X148860000Y-69062500D03*
X148210000Y-69062500D03*
D42*
X150510000Y-66362500D03*
D43*
X146010000Y-66362500D03*
D44*
X152010000Y-69062500D03*
D45*
X152410000Y-66362500D03*
D44*
X147010000Y-69062500D03*
D43*
X153010000Y-66362500D03*
D45*
X146610000Y-66362500D03*
D42*
X148510000Y-66362500D03*
D25*
X143000000Y-66510000D03*
D46*
X145900000Y-105125000D03*
X145900000Y-109475000D03*
D17*
X151430000Y-104022500D03*
X151430000Y-105157500D03*
D18*
X148420000Y-86837500D03*
X148420000Y-85702500D03*
D26*
X151725000Y-85652500D03*
X151725000Y-86847500D03*
D47*
X138990000Y-66300000D03*
D48*
X140600000Y-66300000D03*
D47*
X138990000Y-68840000D03*
D48*
X140600000Y-68840000D03*
D47*
X138990000Y-71380000D03*
D48*
X140600000Y-71380000D03*
D47*
X138990000Y-73920000D03*
D48*
X140600000Y-73920000D03*
X140600000Y-76460000D03*
D47*
X138990000Y-76460000D03*
D48*
X140600000Y-79000000D03*
D47*
X138990000Y-79000000D03*
X138990000Y-81540000D03*
D48*
X140600000Y-81540000D03*
D47*
X138990000Y-84080000D03*
D48*
X140600000Y-84080000D03*
X140600000Y-86620000D03*
D47*
X138990000Y-86620000D03*
X138990000Y-89160000D03*
D48*
X140600000Y-89160000D03*
D47*
X138990000Y-91700000D03*
D48*
X140600000Y-91700000D03*
D47*
X138990000Y-94240000D03*
D48*
X140600000Y-94240000D03*
D47*
X138990000Y-96780000D03*
D48*
X140600000Y-96780000D03*
D47*
X138990000Y-99320000D03*
D48*
X140600000Y-99320000D03*
D47*
X138990000Y-101860000D03*
D48*
X140600000Y-101860000D03*
D47*
X138990000Y-104400000D03*
D48*
X140600000Y-104400000D03*
X140600000Y-106940000D03*
D47*
X138990000Y-106940000D03*
X138990000Y-109480000D03*
D48*
X140600000Y-109480000D03*
D47*
X138990000Y-112020000D03*
D48*
X140600000Y-112020000D03*
D47*
X138990000Y-114560000D03*
D48*
X140600000Y-114560000D03*
D49*
X153447500Y-82400000D03*
X155222500Y-82400000D03*
D15*
X155350000Y-86930000D03*
X155350000Y-87950000D03*
D23*
X152802500Y-73300000D03*
X153997500Y-73300000D03*
D50*
X155187500Y-80720000D03*
X155187500Y-79770000D03*
X155187500Y-78820000D03*
X152912500Y-78820000D03*
X152912500Y-80720000D03*
D47*
X160010000Y-66300000D03*
D48*
X158400000Y-66300000D03*
D47*
X160010000Y-68840000D03*
D48*
X158400000Y-68840000D03*
D47*
X160010000Y-71380000D03*
D48*
X158400000Y-71380000D03*
X158400000Y-73920000D03*
D47*
X160010000Y-73920000D03*
D48*
X158400000Y-76460000D03*
D47*
X160010000Y-76460000D03*
X160010000Y-79000000D03*
D48*
X158400000Y-79000000D03*
D47*
X160010000Y-81540000D03*
D48*
X158400000Y-81540000D03*
X158400000Y-84080000D03*
D47*
X160010000Y-84080000D03*
X160010000Y-86620000D03*
D48*
X158400000Y-86620000D03*
D47*
X160010000Y-89160000D03*
D48*
X158400000Y-89160000D03*
D47*
X160010000Y-91700000D03*
D48*
X158400000Y-91700000D03*
D47*
X160010000Y-94240000D03*
D48*
X158400000Y-94240000D03*
X158400000Y-96780000D03*
D47*
X160010000Y-96780000D03*
D48*
X158400000Y-99320000D03*
D47*
X160010000Y-99320000D03*
X160010000Y-101860000D03*
D48*
X158400000Y-101860000D03*
X158400000Y-104400000D03*
D47*
X160010000Y-104400000D03*
X160010000Y-106940000D03*
D48*
X158400000Y-106940000D03*
X158400000Y-109480000D03*
D47*
X160010000Y-109480000D03*
X160010000Y-112020000D03*
D48*
X158400000Y-112020000D03*
D47*
X160010000Y-114560000D03*
D48*
X158400000Y-114560000D03*
M02*
