M48
; DRILL file {KiCad (5.99.0-11673-ga90656900a)} date Thu Aug 26 12:12:20 2021
; FORMAT={-:-/ absolute / inch / decimal}
; #@! TF.CreationDate,2021-08-26T12:12:20+05:30
; #@! TF.GenerationSoftware,Kicad,Pcbnew,(5.99.0-11673-ga90656900a)
; #@! TF.FileFunction,Plated,1,2,PTH
FMAT,2
INCH
; #@! TA.AperFunction,Plated,PTH,ViaDrill
T1C0.0100
; #@! TA.AperFunction,Plated,PTH,ViaDrill
T2C0.0118
; #@! TA.AperFunction,Plated,PTH,ComponentDrill
T3C0.0138
; #@! TA.AperFunction,Plated,PTH,ComponentDrill
T4C0.0236
; #@! TA.AperFunction,Plated,PTH,ComponentDrill
T5C0.0335
; #@! TA.AperFunction,Plated,PTH,ComponentDrill
T6C0.0394
%
G90
G05
T1
X5.5709Y-3.7598
X5.5709Y-3.8583
X5.5748Y-3.2598
X5.5748Y-3.3622
X5.622Y-4.0748
X5.872Y-3.3228
X5.8819Y-2.9409
X5.8819Y-2.9882
X5.9961Y-2.9134
X5.9961Y-3.248
X5.9961Y-3.2835
X6.0236Y-3.5079
X6.0261Y-4.1994
X6.0386Y-3.4842
X6.0846Y-3.4764
X6.0984Y-2.8307
X6.1732Y-2.7126
X6.1969Y-3.5591
X6.1969Y-4.4567
X6.2008Y-2.8622
X6.2008Y-3.0591
T2
X5.563Y-4.1614
X5.563Y-4.2598
X5.563Y-4.3622
X5.563Y-4.4567
X5.5709Y-3.6614
X5.5906Y-2.8701
X5.5906Y-3.9449
X5.5906Y-3.9724
X5.6024Y-2.7953
X5.6024Y-2.9606
X5.6024Y-3.063
X5.6024Y-3.1693
X5.6181Y-2.7323
X5.6535Y-2.6772
X5.6535Y-4.2992
X5.6535Y-4.3307
X5.6535Y-4.3622
X5.6614Y-3.7638
X5.6713Y-3.5276
X5.689Y-2.8504
X5.7008Y-3.8504
X5.7008Y-4.4803
X5.7008Y-4.5118
X5.7008Y-4.5433
X5.7047Y-3.7835
X5.7147Y-3.9785
X5.7165Y-2.7047
X5.7196Y-3.5655
X5.7205Y-2.8504
X5.7244Y-3.2913
X5.748Y-3.7598
X5.748Y-3.9449
X5.752Y-3.3858
X5.752Y-3.4173
X5.752Y-3.4569
X5.7559Y-3.1772
X5.7638Y-3.2598
X5.7677Y-3.9252
X5.7795Y-4.2008
X5.7835Y-3.1772
X5.7961Y-3.2911
X5.7964Y-3.7291
X5.798Y-3.5623
X5.7992Y-3.6181
X5.804Y-3.5354
X5.8047Y-3.7017
X5.8071Y-3.6575
X5.8071Y-4.0157
X5.811Y-3.4606
X5.8189Y-4.2008
X5.8268Y-3.7244
X5.832Y-3.5339
X5.8386Y-2.7633
X5.8425Y-4.4094
X5.8504Y-3.0236
X5.8559Y-3.5475
X5.8583Y-3.1654
X5.8583Y-4.2008
X5.8661Y-2.8937
X5.8673Y-3.7177
X5.8714Y-3.2796
X5.874Y-3.0669
X5.874Y-3.1181
X5.8835Y-3.5462
X5.8858Y-4.4094
X5.8987Y-3.8256
X5.9055Y-3.4016
X5.9134Y-4.0906
X5.9134Y-4.1535
X5.9173Y-3.733
X5.9258Y-3.8189
X5.9291Y-4.4094
X5.9374Y-2.7699
X5.9456Y-3.8381
X5.9823Y-3.8296
X5.998Y-3.7226
X6.0027Y-3.8075
X6.0079Y-3.8976
X6.0079Y-3.9606
X6.0079Y-4.0551
X6.0099Y-3.7615
X6.0157Y-3.315
X6.0236Y-4.1299
X6.0256Y-3.8228
X6.0276Y-3.1339
X6.0591Y-4.4803
X6.0591Y-4.5118
X6.0591Y-4.5433
X6.0748Y-3.1732
X6.0748Y-3.2087
X6.0786Y-3.7559
X6.0787Y-3.374
X6.0895Y-3.7274
X6.0898Y-3.5431
X6.0946Y-3.7003
X6.0984Y-3.874
X6.0984Y-3.9331
X6.0984Y-4.0039
X6.1167Y-3.5494
X6.1181Y-3.3268
X6.1339Y-3.5709
X6.1398Y-3.6829
X6.1417Y-2.9646
X6.1452Y-3.3479
X6.1477Y-3.2717
X6.1494Y-3.6536
X6.151Y-3.4739
X6.1525Y-3.4084
X6.1693Y-3.6346
X6.1929Y-4.3622
X6.1969Y-4.1575
X6.1969Y-4.2598
X6.2008Y-3.1614
T3
X5.8482Y-3.5864
X5.8482Y-3.6366
X5.8482Y-3.6868
X5.8984Y-3.5864
X5.8984Y-3.6366
X5.8984Y-3.6868
X5.9486Y-3.5864
X5.9486Y-3.6366
X5.9486Y-3.6868
T5
X5.7878Y-2.719
X5.9846Y-2.719
T6
X5.472Y-2.6102
X5.472Y-2.7102
X5.472Y-2.8102
X5.472Y-2.9102
X5.472Y-3.0102
X5.472Y-3.1102
X5.472Y-3.2102
X5.472Y-3.3102
X5.472Y-3.4102
X5.472Y-3.5102
X5.472Y-3.6102
X5.472Y-3.7102
X5.472Y-3.8102
X5.472Y-3.9102
X5.472Y-4.0102
X5.472Y-4.1102
X5.472Y-4.2102
X5.472Y-4.3102
X5.472Y-4.4102
X5.472Y-4.5102
X5.5354Y-2.6102
X5.5354Y-2.7102
X5.5354Y-2.8102
X5.5354Y-2.9102
X5.5354Y-3.0102
X5.5354Y-3.1102
X5.5354Y-3.2102
X5.5354Y-3.3102
X5.5354Y-3.4102
X5.5354Y-3.5102
X5.5354Y-3.6102
X5.5354Y-3.7102
X5.5354Y-3.8102
X5.5354Y-3.9102
X5.5354Y-4.0102
X5.5354Y-4.1102
X5.5354Y-4.2102
X5.5354Y-4.3102
X5.5354Y-4.4102
X5.5354Y-4.5102
X5.7854Y-4.5039
X5.7854Y-4.5673
X5.8854Y-4.5039
X5.8854Y-4.5673
X5.9854Y-4.5039
X5.9854Y-4.5673
X6.2362Y-2.6102
X6.2362Y-2.7102
X6.2362Y-2.8102
X6.2362Y-2.9102
X6.2362Y-3.0102
X6.2362Y-3.1102
X6.2362Y-3.2102
X6.2362Y-3.3102
X6.2362Y-3.4102
X6.2362Y-3.5102
X6.2362Y-3.6102
X6.2362Y-3.7102
X6.2362Y-3.8102
X6.2362Y-3.9102
X6.2362Y-4.0102
X6.2362Y-4.1102
X6.2362Y-4.2102
X6.2362Y-4.3102
X6.2362Y-4.4102
X6.2362Y-4.5102
X6.2996Y-2.6102
X6.2996Y-2.7102
X6.2996Y-2.8102
X6.2996Y-2.9102
X6.2996Y-3.0102
X6.2996Y-3.1102
X6.2996Y-3.2102
X6.2996Y-3.3102
X6.2996Y-3.4102
X6.2996Y-3.5102
X6.2996Y-3.6102
X6.2996Y-3.7102
X6.2996Y-3.8102
X6.2996Y-3.9102
X6.2996Y-4.0102
X6.2996Y-4.1102
X6.2996Y-4.2102
X6.2996Y-4.3102
X6.2996Y-4.4102
X6.2996Y-4.5102
T4
G00X5.7161Y-2.6272
M15
G01X5.7161Y-2.6035
M16
G05
G00X5.7161Y-2.7917
M15
G01X5.7161Y-2.7681
M16
G05
G00X5.7484Y-2.6265
M15
G01X5.7484Y-2.5989
M16
G05
G00X6.024Y-2.5989
M15
G01X6.024Y-2.6265
M16
G05
G00X6.0563Y-2.6272
M15
G01X6.0563Y-2.6035
M16
G05
G00X6.0563Y-2.7917
M15
G01X6.0563Y-2.7681
M16
G05
T0
M30
