%TF.GenerationSoftware,KiCad,Pcbnew,9.0.1*%
%TF.CreationDate,2025-04-27T12:11:08+05:30*%
%TF.ProjectId,Mitayi-Pico-D1,4d697461-7969-42d5-9069-636f2d44312e,0.6*%
%TF.SameCoordinates,PX73df160PY5f2d3c0*%
%TF.FileFunction,Paste,Top*%
%TF.FilePolarity,Positive*%
%FSLAX46Y46*%
G04 Gerber Fmt 4.6, Leading zero omitted, Abs format (unit mm)*
G04 Created by KiCad (PCBNEW 9.0.1) date 2025-04-27 12:11:08*
%MOMM*%
%LPD*%
G01*
G04 APERTURE LIST*
G04 Aperture macros list*
%AMRoundRect*
0 Rectangle with rounded corners*
0 $1 Rounding radius*
0 $2 $3 $4 $5 $6 $7 $8 $9 X,Y pos of 4 corners*
0 Add a 4 corners polygon primitive as box body*
4,1,4,$2,$3,$4,$5,$6,$7,$8,$9,$2,$3,0*
0 Add four circle primitives for the rounded corners*
1,1,$1+$1,$2,$3*
1,1,$1+$1,$4,$5*
1,1,$1+$1,$6,$7*
1,1,$1+$1,$8,$9*
0 Add four rect primitives between the rounded corners*
20,1,$1+$1,$2,$3,$4,$5,0*
20,1,$1+$1,$4,$5,$6,$7,0*
20,1,$1+$1,$6,$7,$8,$9,0*
20,1,$1+$1,$8,$9,$2,$3,0*%
G04 Aperture macros list end*
%ADD10C,0.150000*%
%ADD11RoundRect,0.160000X-0.197500X-0.160000X0.197500X-0.160000X0.197500X0.160000X-0.197500X0.160000X0*%
%ADD12RoundRect,0.218750X0.218750X0.256250X-0.218750X0.256250X-0.218750X-0.256250X0.218750X-0.256250X0*%
%ADD13RoundRect,0.140000X0.140000X0.170000X-0.140000X0.170000X-0.140000X-0.170000X0.140000X-0.170000X0*%
%ADD14RoundRect,0.140000X-0.170000X0.140000X-0.170000X-0.140000X0.170000X-0.140000X0.170000X0.140000X0*%
%ADD15RoundRect,0.225000X-0.250000X0.225000X-0.250000X-0.225000X0.250000X-0.225000X0.250000X0.225000X0*%
%ADD16RoundRect,0.135000X-0.185000X0.135000X-0.185000X-0.135000X0.185000X-0.135000X0.185000X0.135000X0*%
%ADD17RoundRect,0.135000X0.135000X0.185000X-0.135000X0.185000X-0.135000X-0.185000X0.135000X-0.185000X0*%
%ADD18RoundRect,0.135000X-0.135000X-0.185000X0.135000X-0.185000X0.135000X0.185000X-0.135000X0.185000X0*%
%ADD19RoundRect,0.140000X0.170000X-0.140000X0.170000X0.140000X-0.170000X0.140000X-0.170000X-0.140000X0*%
%ADD20RoundRect,0.250000X0.292217X-0.292217X0.292217X0.292217X-0.292217X0.292217X-0.292217X-0.292217X0*%
%ADD21RoundRect,0.050000X0.050000X-0.387500X0.050000X0.387500X-0.050000X0.387500X-0.050000X-0.387500X0*%
%ADD22RoundRect,0.050000X0.387500X-0.050000X0.387500X0.050000X-0.387500X0.050000X-0.387500X-0.050000X0*%
%ADD23RoundRect,0.140000X-0.140000X-0.170000X0.140000X-0.170000X0.140000X0.170000X-0.140000X0.170000X0*%
%ADD24RoundRect,0.150000X0.650000X0.150000X-0.650000X0.150000X-0.650000X-0.150000X0.650000X-0.150000X0*%
%ADD25RoundRect,0.160000X0.197500X0.160000X-0.197500X0.160000X-0.197500X-0.160000X0.197500X-0.160000X0*%
%ADD26RoundRect,0.225000X0.250000X-0.225000X0.250000X0.225000X-0.250000X0.225000X-0.250000X-0.225000X0*%
%ADD27R,1.450000X0.600000*%
%ADD28R,1.450000X0.300000*%
%ADD29R,1.200000X1.400000*%
%ADD30R,1.000000X1.000000*%
%ADD31R,1.150000X1.700000*%
%ADD32RoundRect,0.250000X0.275000X-0.312500X0.275000X0.312500X-0.275000X0.312500X-0.275000X-0.312500X0*%
%ADD33RoundRect,0.135000X0.185000X-0.135000X0.185000X0.135000X-0.185000X0.135000X-0.185000X-0.135000X0*%
%ADD34RoundRect,0.150000X-0.150000X0.512500X-0.150000X-0.512500X0.150000X-0.512500X0.150000X0.512500X0*%
G04 APERTURE END LIST*
D10*
X2180000Y15330000D02*
X580000Y15330000D01*
X580000Y14330000D01*
X2180000Y14330000D01*
X2180000Y15330000D01*
G36*
X2180000Y15330000D02*
G01*
X580000Y15330000D01*
X580000Y14330000D01*
X2180000Y14330000D01*
X2180000Y15330000D01*
G37*
X2180000Y6690000D02*
X580000Y6690000D01*
X580000Y5690000D01*
X2180000Y5690000D01*
X2180000Y6690000D01*
G36*
X2180000Y6690000D02*
G01*
X580000Y6690000D01*
X580000Y5690000D01*
X2180000Y5690000D01*
X2180000Y6690000D01*
G37*
X6610000Y15330000D02*
X4510000Y15330000D01*
X4510000Y14330000D01*
X6610000Y14330000D01*
X6610000Y15330000D01*
G36*
X6610000Y15330000D02*
G01*
X4510000Y15330000D01*
X4510000Y14330000D01*
X6610000Y14330000D01*
X6610000Y15330000D01*
G37*
X6610000Y6690000D02*
X4510000Y6690000D01*
X4510000Y5690000D01*
X6610000Y5690000D01*
X6610000Y6690000D01*
G36*
X6610000Y6690000D02*
G01*
X4510000Y6690000D01*
X4510000Y5690000D01*
X6610000Y5690000D01*
X6610000Y6690000D01*
G37*
D11*
X31112500Y17400000D03*
X32307500Y17400000D03*
D12*
X35737500Y17030000D03*
X34162500Y17030000D03*
D13*
X37700000Y8510000D03*
X36740000Y8510000D03*
D14*
X24670000Y5670000D03*
X24670000Y4710000D03*
D15*
X9710000Y15585000D03*
X9710000Y14035000D03*
D14*
X30600000Y5560000D03*
X30600000Y4600000D03*
D13*
X21550000Y15905000D03*
X20590000Y15905000D03*
X8490000Y5240000D03*
X7530000Y5240000D03*
D16*
X18830000Y8360000D03*
X18830000Y7340000D03*
D17*
X38480000Y16960000D03*
X37460000Y16960000D03*
D18*
X33270000Y10220000D03*
X34290000Y10220000D03*
D19*
X23370000Y15750000D03*
X23370000Y16710000D03*
D20*
X26732500Y10182500D03*
X28007500Y10182500D03*
X26732500Y11457500D03*
X28007500Y11457500D03*
D21*
X24770000Y7382500D03*
X25170000Y7382500D03*
X25570000Y7382500D03*
X25970000Y7382500D03*
X26370000Y7382500D03*
X26770000Y7382500D03*
X27170000Y7382500D03*
X27570000Y7382500D03*
X27970000Y7382500D03*
X28370000Y7382500D03*
X28770000Y7382500D03*
X29170000Y7382500D03*
X29570000Y7382500D03*
X29970000Y7382500D03*
D22*
X30807500Y8220000D03*
X30807500Y8620000D03*
X30807500Y9020000D03*
X30807500Y9420000D03*
X30807500Y9820000D03*
X30807500Y10220000D03*
X30807500Y10620000D03*
X30807500Y11020000D03*
X30807500Y11420000D03*
X30807500Y11820000D03*
X30807500Y12220000D03*
X30807500Y12620000D03*
X30807500Y13020000D03*
X30807500Y13420000D03*
D21*
X29970000Y14257500D03*
X29570000Y14257500D03*
X29170000Y14257500D03*
X28770000Y14257500D03*
X28370000Y14257500D03*
X27970000Y14257500D03*
X27570000Y14257500D03*
X27170000Y14257500D03*
X26770000Y14257500D03*
X26370000Y14257500D03*
X25970000Y14257500D03*
X25570000Y14257500D03*
X25170000Y14257500D03*
X24770000Y14257500D03*
D22*
X23932500Y13420000D03*
X23932500Y13020000D03*
X23932500Y12620000D03*
X23932500Y12220000D03*
X23932500Y11820000D03*
X23932500Y11420000D03*
X23932500Y11020000D03*
X23932500Y10620000D03*
X23932500Y10220000D03*
X23932500Y9820000D03*
X23932500Y9420000D03*
X23932500Y9020000D03*
X23932500Y8620000D03*
X23932500Y8220000D03*
D18*
X20540000Y11825000D03*
X21560000Y11825000D03*
D23*
X33290000Y12750000D03*
X34250000Y12750000D03*
D24*
X17150000Y7955000D03*
X17150000Y9225000D03*
X17150000Y10495000D03*
X17150000Y11765000D03*
X9950000Y11765000D03*
X9950000Y10495000D03*
X9950000Y9225000D03*
X9950000Y7955000D03*
D13*
X21455000Y10720000D03*
X20495000Y10720000D03*
D16*
X18830000Y10690000D03*
X18830000Y9670000D03*
D13*
X21540000Y13930000D03*
X20580000Y13930000D03*
D19*
X8300000Y6430000D03*
X8300000Y7390000D03*
D25*
X12347500Y17500000D03*
X11152500Y17500000D03*
D18*
X17300000Y17300000D03*
X18320000Y17300000D03*
D13*
X34260000Y11630000D03*
X33300000Y11630000D03*
D23*
X31210000Y16100000D03*
X32170000Y16100000D03*
D26*
X19080000Y14015000D03*
X19080000Y15565000D03*
D27*
X6475000Y13760000D03*
X6475000Y12960000D03*
D28*
X6475000Y11760000D03*
X6475000Y10760000D03*
X6475000Y10260000D03*
X6475000Y9260000D03*
D27*
X6475000Y8060000D03*
X6475000Y7260000D03*
X6475000Y7260000D03*
X6475000Y8060000D03*
D28*
X6475000Y8760000D03*
X6475000Y9760000D03*
X6475000Y11260000D03*
X6475000Y12260000D03*
D27*
X6475000Y12960000D03*
X6475000Y13760000D03*
D13*
X12160000Y13760000D03*
X11200000Y13760000D03*
D11*
X11152500Y15750000D03*
X12347500Y15750000D03*
D16*
X8300000Y9860000D03*
X8300000Y8840000D03*
D29*
X37900000Y10330000D03*
X37900000Y12530000D03*
X36200000Y12530000D03*
X36200000Y10330000D03*
D17*
X8490000Y4170000D03*
X7470000Y4170000D03*
D30*
X7650000Y16900000D03*
X5150000Y16900000D03*
D12*
X5587500Y4200000D03*
X4012500Y4200000D03*
D31*
X10225000Y5300000D03*
X14575000Y5300000D03*
D23*
X36710000Y14330000D03*
X37670000Y14330000D03*
D13*
X21450000Y9720000D03*
X20490000Y9720000D03*
D18*
X20540000Y12825000D03*
X21560000Y12825000D03*
D32*
X17400000Y14147500D03*
X17400000Y15922500D03*
D33*
X8300000Y13890000D03*
X8300000Y14910000D03*
D34*
X15620000Y16487500D03*
X14670000Y16487500D03*
X13720000Y16487500D03*
X13720000Y14212500D03*
X15620000Y14212500D03*
D18*
X20460000Y8330000D03*
X21480000Y8330000D03*
D31*
X20940000Y5285000D03*
X16590000Y5285000D03*
M02*
