%TF.GenerationSoftware,KiCad,Pcbnew,(6.0.9)*%
%TF.CreationDate,2023-01-07T18:48:54+05:30*%
%TF.ProjectId,Mitayi-Pico-RP2040,4d697461-7969-42d5-9069-636f2d525032,0.5*%
%TF.SameCoordinates,PX825e060PY6d4a840*%
%TF.FileFunction,Paste,Top*%
%TF.FilePolarity,Positive*%
%FSLAX46Y46*%
G04 Gerber Fmt 4.6, Leading zero omitted, Abs format (unit mm)*
G04 Created by KiCad (PCBNEW (6.0.9)) date 2023-01-07 18:48:54*
%MOMM*%
%LPD*%
G01*
G04 APERTURE LIST*
G04 Aperture macros list*
%AMRoundRect*
0 Rectangle with rounded corners*
0 $1 Rounding radius*
0 $2 $3 $4 $5 $6 $7 $8 $9 X,Y pos of 4 corners*
0 Add a 4 corners polygon primitive as box body*
4,1,4,$2,$3,$4,$5,$6,$7,$8,$9,$2,$3,0*
0 Add four circle primitives for the rounded corners*
1,1,$1+$1,$2,$3*
1,1,$1+$1,$4,$5*
1,1,$1+$1,$6,$7*
1,1,$1+$1,$8,$9*
0 Add four rect primitives between the rounded corners*
20,1,$1+$1,$2,$3,$4,$5,0*
20,1,$1+$1,$4,$5,$6,$7,0*
20,1,$1+$1,$6,$7,$8,$9,0*
20,1,$1+$1,$8,$9,$2,$3,0*%
%AMFreePoly0*
4,1,13,-0.340000,0.160000,-0.327821,0.221229,-0.293137,0.273137,-0.241229,0.307821,-0.180000,0.320000,0.340000,0.320000,0.340000,-0.320000,-0.180000,-0.320000,-0.241229,-0.307821,-0.293137,-0.273137,-0.327821,-0.221229,-0.340000,-0.160000,-0.340000,0.160000,-0.340000,0.160000,$1*%
%AMFreePoly1*
4,1,13,-0.340000,0.320000,0.180000,0.320000,0.241229,0.307821,0.293137,0.273137,0.327821,0.221229,0.340000,0.160000,0.340000,-0.160000,0.327821,-0.221229,0.293137,-0.273137,0.241229,-0.307821,0.180000,-0.320000,-0.340000,-0.320000,-0.340000,0.320000,-0.340000,0.320000,$1*%
G04 Aperture macros list end*
%ADD10R,1.500000X1.900000*%
%ADD11FreePoly0,270.000000*%
%ADD12FreePoly1,270.000000*%
%ADD13RoundRect,0.218750X0.256250X-0.218750X0.256250X0.218750X-0.256250X0.218750X-0.256250X-0.218750X0*%
%ADD14RoundRect,0.155000X0.155000X-0.212500X0.155000X0.212500X-0.155000X0.212500X-0.155000X-0.212500X0*%
%ADD15RoundRect,0.225000X0.225000X0.250000X-0.225000X0.250000X-0.225000X-0.250000X0.225000X-0.250000X0*%
%ADD16RoundRect,0.155000X0.212500X0.155000X-0.212500X0.155000X-0.212500X-0.155000X0.212500X-0.155000X0*%
%ADD17RoundRect,0.160000X0.197500X0.160000X-0.197500X0.160000X-0.197500X-0.160000X0.197500X-0.160000X0*%
%ADD18RoundRect,0.160000X-0.160000X0.197500X-0.160000X-0.197500X0.160000X-0.197500X0.160000X0.197500X0*%
%ADD19RoundRect,0.155000X-0.212500X-0.155000X0.212500X-0.155000X0.212500X0.155000X-0.212500X0.155000X0*%
%ADD20RoundRect,0.050000X-0.050000X-0.387500X0.050000X-0.387500X0.050000X0.387500X-0.050000X0.387500X0*%
%ADD21RoundRect,0.050000X-0.387500X-0.050000X0.387500X-0.050000X0.387500X0.050000X-0.387500X0.050000X0*%
%ADD22RoundRect,0.250000X-0.292217X-0.292217X0.292217X-0.292217X0.292217X0.292217X-0.292217X0.292217X0*%
%ADD23RoundRect,0.155000X-0.155000X0.212500X-0.155000X-0.212500X0.155000X-0.212500X0.155000X0.212500X0*%
%ADD24RoundRect,0.150000X0.150000X-0.650000X0.150000X0.650000X-0.150000X0.650000X-0.150000X-0.650000X0*%
%ADD25FreePoly0,90.000000*%
%ADD26FreePoly1,90.000000*%
%ADD27RoundRect,0.225000X-0.225000X-0.250000X0.225000X-0.250000X0.225000X0.250000X-0.225000X0.250000X0*%
%ADD28R,0.300000X1.450000*%
%ADD29R,1.400000X1.200000*%
%ADD30RoundRect,0.160000X0.160000X-0.197500X0.160000X0.197500X-0.160000X0.197500X-0.160000X-0.197500X0*%
%ADD31R,1.000000X1.000000*%
%ADD32R,1.700000X1.150000*%
%ADD33RoundRect,0.250000X-0.312500X-0.275000X0.312500X-0.275000X0.312500X0.275000X-0.312500X0.275000X0*%
%ADD34RoundRect,0.160000X-0.197500X-0.160000X0.197500X-0.160000X0.197500X0.160000X-0.197500X0.160000X0*%
%ADD35RoundRect,0.150000X0.512500X0.150000X-0.512500X0.150000X-0.512500X-0.150000X0.512500X-0.150000X0*%
G04 APERTURE END LIST*
D10*
%TO.C,J6*%
X9510000Y49637500D03*
X11510000Y49637500D03*
%TD*%
D11*
%TO.C,JP5*%
X17400000Y19730000D03*
D12*
X17400000Y18850000D03*
%TD*%
D13*
%TO.C,D2*%
X17030000Y15262500D03*
X17030000Y16837500D03*
%TD*%
D14*
%TO.C,C17*%
X8510000Y13212500D03*
X8510000Y14347500D03*
%TD*%
%TO.C,C12*%
X5430000Y26442500D03*
X5430000Y27577500D03*
%TD*%
D15*
%TO.C,C13*%
X15585000Y41290000D03*
X14035000Y41290000D03*
%TD*%
D16*
%TO.C,C6*%
X5647500Y20400000D03*
X4512500Y20400000D03*
%TD*%
D14*
%TO.C,C11*%
X15905000Y29362500D03*
X15905000Y30497500D03*
%TD*%
%TO.C,C19*%
X5240000Y42422500D03*
X5240000Y43557500D03*
%TD*%
D17*
%TO.C,R2*%
X8447500Y32170000D03*
X7252500Y32170000D03*
%TD*%
%TO.C,R7*%
X17067500Y10860000D03*
X15872500Y10860000D03*
%TD*%
D18*
%TO.C,R10*%
X10220000Y17817500D03*
X10220000Y16622500D03*
%TD*%
D19*
%TO.C,C10*%
X15662500Y27630000D03*
X16797500Y27630000D03*
%TD*%
D20*
%TO.C,U3*%
X8220000Y27067500D03*
X8620000Y27067500D03*
X9020000Y27067500D03*
X9420000Y27067500D03*
X9820000Y27067500D03*
X10220000Y27067500D03*
X10620000Y27067500D03*
X11020000Y27067500D03*
X11420000Y27067500D03*
X11820000Y27067500D03*
X12220000Y27067500D03*
X12620000Y27067500D03*
X13020000Y27067500D03*
X13420000Y27067500D03*
D21*
X14257500Y26230000D03*
X14257500Y25830000D03*
X14257500Y25430000D03*
X14257500Y25030000D03*
X14257500Y24630000D03*
X14257500Y24230000D03*
X14257500Y23830000D03*
X14257500Y23430000D03*
X14257500Y23030000D03*
X14257500Y22630000D03*
X14257500Y22230000D03*
X14257500Y21830000D03*
X14257500Y21430000D03*
X14257500Y21030000D03*
D20*
X13420000Y20192500D03*
X13020000Y20192500D03*
X12620000Y20192500D03*
X12220000Y20192500D03*
X11820000Y20192500D03*
X11420000Y20192500D03*
X11020000Y20192500D03*
X10620000Y20192500D03*
X10220000Y20192500D03*
X9820000Y20192500D03*
X9420000Y20192500D03*
X9020000Y20192500D03*
X8620000Y20192500D03*
X8220000Y20192500D03*
D21*
X7382500Y21030000D03*
X7382500Y21430000D03*
X7382500Y21830000D03*
X7382500Y22230000D03*
X7382500Y22630000D03*
X7382500Y23030000D03*
X7382500Y23430000D03*
X7382500Y23830000D03*
X7382500Y24230000D03*
X7382500Y24630000D03*
X7382500Y25030000D03*
X7382500Y25430000D03*
X7382500Y25830000D03*
X7382500Y26230000D03*
D22*
X10182500Y22992500D03*
X11457500Y24267500D03*
X11457500Y22992500D03*
X10182500Y24267500D03*
%TD*%
D18*
%TO.C,R5*%
X11825000Y30547500D03*
X11825000Y29352500D03*
%TD*%
D23*
%TO.C,C2*%
X12750000Y17797500D03*
X12750000Y16662500D03*
%TD*%
D24*
%TO.C,U1*%
X7955000Y33850000D03*
X9225000Y33850000D03*
X10495000Y33850000D03*
X11765000Y33850000D03*
X11765000Y41050000D03*
X10495000Y41050000D03*
X9225000Y41050000D03*
X7955000Y41050000D03*
%TD*%
D14*
%TO.C,C5*%
X10720000Y29457500D03*
X10720000Y30592500D03*
%TD*%
D17*
%TO.C,R1*%
X10777500Y32170000D03*
X9582500Y32170000D03*
%TD*%
D14*
%TO.C,C4*%
X13930000Y29372500D03*
X13930000Y30507500D03*
%TD*%
D19*
%TO.C,C1*%
X6342500Y42700000D03*
X7477500Y42700000D03*
%TD*%
D25*
%TO.C,JP1*%
X17500000Y38810000D03*
D26*
X17500000Y39690000D03*
%TD*%
D18*
%TO.C,R9*%
X17300000Y33787500D03*
X17300000Y32592500D03*
%TD*%
D14*
%TO.C,C9*%
X11630000Y16652500D03*
X11630000Y17787500D03*
%TD*%
D23*
%TO.C,C8*%
X16100000Y19877500D03*
X16100000Y18742500D03*
%TD*%
D27*
%TO.C,C15*%
X14015000Y31920000D03*
X15565000Y31920000D03*
%TD*%
D28*
%TO.C,J2*%
X13610000Y44470000D03*
X12810000Y44470000D03*
X12260000Y44470000D03*
X11260000Y44470000D03*
X9760000Y44470000D03*
X8760000Y44470000D03*
X8210000Y44470000D03*
X7410000Y44470000D03*
X7110000Y44470000D03*
X7910000Y44470000D03*
X9260000Y44470000D03*
X10260000Y44470000D03*
X10760000Y44470000D03*
X11760000Y44470000D03*
X13110000Y44470000D03*
X13910000Y44470000D03*
%TD*%
D14*
%TO.C,C16*%
X13760000Y38752500D03*
X13760000Y39887500D03*
%TD*%
D11*
%TO.C,JP4*%
X15750000Y39690000D03*
D12*
X15750000Y38810000D03*
%TD*%
D17*
%TO.C,R4*%
X9947500Y42700000D03*
X8752500Y42700000D03*
%TD*%
D29*
%TO.C,Y1*%
X10330000Y13100000D03*
X12530000Y13100000D03*
X12530000Y14800000D03*
X10330000Y14800000D03*
%TD*%
D30*
%TO.C,R8*%
X4170000Y42422500D03*
X4170000Y43617500D03*
%TD*%
D31*
%TO.C,D1*%
X16900000Y43350000D03*
X16900000Y45850000D03*
%TD*%
D13*
%TO.C,D3*%
X4200000Y45412500D03*
X4200000Y46987500D03*
%TD*%
D32*
%TO.C,SW1*%
X5300000Y40775000D03*
X5300000Y36425000D03*
%TD*%
D23*
%TO.C,C18*%
X14330000Y14377500D03*
X14330000Y13242500D03*
%TD*%
D14*
%TO.C,C7*%
X9720000Y29462500D03*
X9720000Y30597500D03*
%TD*%
D18*
%TO.C,R6*%
X12825000Y30547500D03*
X12825000Y29352500D03*
%TD*%
D33*
%TO.C,C14*%
X14147500Y33600000D03*
X15922500Y33600000D03*
%TD*%
D34*
%TO.C,R3*%
X13802500Y42700000D03*
X14997500Y42700000D03*
%TD*%
D35*
%TO.C,U2*%
X16487500Y35380000D03*
X16487500Y36330000D03*
X16487500Y37280000D03*
X14212500Y37280000D03*
X14212500Y35380000D03*
%TD*%
D18*
%TO.C,R11*%
X8330000Y30627500D03*
X8330000Y29432500D03*
%TD*%
D32*
%TO.C,SW2*%
X5285000Y30060000D03*
X5285000Y34410000D03*
%TD*%
M02*
