%TF.GenerationSoftware,KiCad,Pcbnew,(6.0.9)*%
%TF.CreationDate,2023-01-07T18:48:54+05:30*%
%TF.ProjectId,Mitayi-Pico-RP2040,4d697461-7969-42d5-9069-636f2d525032,0.5*%
%TF.SameCoordinates,PX825e060PY6d4a840*%
%TF.FileFunction,Copper,L2,Bot*%
%TF.FilePolarity,Positive*%
%FSLAX46Y46*%
G04 Gerber Fmt 4.6, Leading zero omitted, Abs format (unit mm)*
G04 Created by KiCad (PCBNEW (6.0.9)) date 2023-01-07 18:48:54*
%MOMM*%
%LPD*%
G01*
G04 APERTURE LIST*
G04 Aperture macros list*
%AMRoundRect*
0 Rectangle with rounded corners*
0 $1 Rounding radius*
0 $2 $3 $4 $5 $6 $7 $8 $9 X,Y pos of 4 corners*
0 Add a 4 corners polygon primitive as box body*
4,1,4,$2,$3,$4,$5,$6,$7,$8,$9,$2,$3,0*
0 Add four circle primitives for the rounded corners*
1,1,$1+$1,$2,$3*
1,1,$1+$1,$4,$5*
1,1,$1+$1,$6,$7*
1,1,$1+$1,$8,$9*
0 Add four rect primitives between the rounded corners*
20,1,$1+$1,$2,$3,$4,$5,0*
20,1,$1+$1,$4,$5,$6,$7,0*
20,1,$1+$1,$6,$7,$8,$9,0*
20,1,$1+$1,$8,$9,$2,$3,0*%
%AMOutline5P*
0 Free polygon, 5 corners , with rotation*
0 The origin of the aperture is its center*
0 number of corners: always 5*
0 $1 to $10 corner X, Y*
0 $11 Rotation angle, in degrees counterclockwise*
0 create outline with 5 corners*
4,1,5,$1,$2,$3,$4,$5,$6,$7,$8,$9,$10,$1,$2,$11*%
%AMOutline6P*
0 Free polygon, 6 corners , with rotation*
0 The origin of the aperture is its center*
0 number of corners: always 6*
0 $1 to $12 corner X, Y*
0 $13 Rotation angle, in degrees counterclockwise*
0 create outline with 6 corners*
4,1,6,$1,$2,$3,$4,$5,$6,$7,$8,$9,$10,$11,$12,$1,$2,$13*%
%AMOutline7P*
0 Free polygon, 7 corners , with rotation*
0 The origin of the aperture is its center*
0 number of corners: always 7*
0 $1 to $14 corner X, Y*
0 $15 Rotation angle, in degrees counterclockwise*
0 create outline with 7 corners*
4,1,7,$1,$2,$3,$4,$5,$6,$7,$8,$9,$10,$11,$12,$13,$14,$1,$2,$15*%
%AMOutline8P*
0 Free polygon, 8 corners , with rotation*
0 The origin of the aperture is its center*
0 number of corners: always 8*
0 $1 to $16 corner X, Y*
0 $17 Rotation angle, in degrees counterclockwise*
0 create outline with 8 corners*
4,1,8,$1,$2,$3,$4,$5,$6,$7,$8,$9,$10,$11,$12,$13,$14,$15,$16,$1,$2,$17*%
G04 Aperture macros list end*
%TA.AperFunction,ComponentPad*%
%ADD10O,1.200000X1.900000*%
%TD*%
%TA.AperFunction,ComponentPad*%
%ADD11C,1.450000*%
%TD*%
%TA.AperFunction,ComponentPad*%
%ADD12C,0.600000*%
%TD*%
%TA.AperFunction,ComponentPad*%
%ADD13O,1.600000X1.700000*%
%TD*%
%TA.AperFunction,ComponentPad*%
%ADD14R,1.600000X3.200000*%
%TD*%
%TA.AperFunction,ComponentPad*%
%ADD15RoundRect,0.500000X0.000000X0.300000X0.000000X0.300000X0.000000X-0.300000X0.000000X-0.300000X0*%
%TD*%
%TA.AperFunction,ComponentPad*%
%ADD16R,3.200000X1.600000*%
%TD*%
%TA.AperFunction,ComponentPad*%
%ADD17O,1.700000X1.600000*%
%TD*%
%TA.AperFunction,ComponentPad*%
%ADD18O,1.700000X1.700000*%
%TD*%
%TA.AperFunction,ComponentPad*%
%ADD19R,1.700000X1.700000*%
%TD*%
%TA.AperFunction,SMDPad,CuDef*%
%ADD20Outline6P,-0.290000X0.117000X-0.087000X0.320000X0.290000X0.320000X0.290000X-0.320000X-0.087000X-0.320000X-0.290000X-0.117000X270.000000*%
%TD*%
%TA.AperFunction,SMDPad,CuDef*%
%ADD21R,0.640000X0.500000*%
%TD*%
%TA.AperFunction,SMDPad,CuDef*%
%ADD22R,0.640000X0.580000*%
%TD*%
%TA.AperFunction,ViaPad*%
%ADD23C,0.400000*%
%TD*%
%TA.AperFunction,ViaPad*%
%ADD24C,0.508000*%
%TD*%
%TA.AperFunction,Conductor*%
%ADD25C,0.200000*%
%TD*%
%TA.AperFunction,Conductor*%
%ADD26C,0.300000*%
%TD*%
G04 APERTURE END LIST*
D10*
%TO.P,J6,6,Shield*%
%TO.N,GND*%
X14010000Y49637500D03*
D11*
X8010000Y46937500D03*
X13010000Y46937500D03*
D10*
X7010000Y49637500D03*
%TD*%
D12*
%TO.P,U3,57,GND*%
%TO.N,GND*%
X12095000Y22355000D03*
X9545000Y24905000D03*
X9545000Y22355000D03*
X12095000Y23630000D03*
X9545000Y23630000D03*
X10820000Y22355000D03*
X10820000Y23630000D03*
X12095000Y24905000D03*
X10820000Y24905000D03*
%TD*%
D13*
%TO.P,J5,1,Pin_1*%
%TO.N,/SWCLK*%
X7950000Y1600000D03*
D14*
X7950000Y-10000D03*
D13*
%TO.P,J5,2,Pin_2*%
%TO.N,GND*%
X10490000Y1600000D03*
D14*
X10490000Y-10000D03*
D13*
%TO.P,J5,3,Pin_3*%
%TO.N,/SWDIO*%
X13030000Y1600000D03*
D14*
X13030000Y-10000D03*
%TD*%
D15*
%TO.P,J2,S1,SHIELD*%
%TO.N,GND*%
X6190000Y49570000D03*
X14830000Y49570000D03*
X6190000Y45390000D03*
X14830000Y45390000D03*
%TD*%
D16*
%TO.P,J3,1,Pin_1*%
%TO.N,/GPIO0*%
X-10000Y49700000D03*
D17*
X1600000Y49700000D03*
D16*
%TO.P,J3,2,Pin_2*%
%TO.N,/GPIO1*%
X-10000Y47160000D03*
D17*
X1600000Y47160000D03*
D16*
%TO.P,J3,3,Pin_3*%
%TO.N,/GPIO2*%
X-10000Y44620000D03*
D17*
X1600000Y44620000D03*
D16*
%TO.P,J3,4,Pin_4*%
%TO.N,/GPIO3*%
X-10000Y42080000D03*
D17*
X1600000Y42080000D03*
%TO.P,J3,5,Pin_5*%
%TO.N,/GPIO4*%
X1600000Y39540000D03*
D16*
X-10000Y39540000D03*
D17*
%TO.P,J3,6,Pin_6*%
%TO.N,/GPIO5*%
X1600000Y37000000D03*
D16*
X-10000Y37000000D03*
%TO.P,J3,7,Pin_7*%
%TO.N,/GPIO6*%
X-10000Y34460000D03*
D17*
X1600000Y34460000D03*
D16*
%TO.P,J3,8,Pin_8*%
%TO.N,/GPIO7*%
X-10000Y31920000D03*
D17*
X1600000Y31920000D03*
%TO.P,J3,9,Pin_9*%
%TO.N,/GPIO8*%
X1600000Y29380000D03*
D16*
X-10000Y29380000D03*
%TO.P,J3,10,Pin_10*%
%TO.N,/GPIO9*%
X-10000Y26840000D03*
D17*
X1600000Y26840000D03*
D16*
%TO.P,J3,11,Pin_11*%
%TO.N,/GPIO10*%
X-10000Y24300000D03*
D17*
X1600000Y24300000D03*
D16*
%TO.P,J3,12,Pin_12*%
%TO.N,/GPIO11*%
X-10000Y21760000D03*
D17*
X1600000Y21760000D03*
D16*
%TO.P,J3,13,Pin_13*%
%TO.N,/GPIO12*%
X-10000Y19220000D03*
D17*
X1600000Y19220000D03*
D16*
%TO.P,J3,14,Pin_14*%
%TO.N,/GPIO13*%
X-10000Y16680000D03*
D17*
X1600000Y16680000D03*
D16*
%TO.P,J3,15,Pin_15*%
%TO.N,/GPIO14*%
X-10000Y14140000D03*
D17*
X1600000Y14140000D03*
D16*
%TO.P,J3,16,Pin_16*%
%TO.N,/GPIO15*%
X-10000Y11600000D03*
D17*
X1600000Y11600000D03*
%TO.P,J3,17,Pin_17*%
%TO.N,/GPIO16*%
X1600000Y9060000D03*
D16*
X-10000Y9060000D03*
%TO.P,J3,18,Pin_18*%
%TO.N,/GPIO17*%
X-10000Y6520000D03*
D17*
X1600000Y6520000D03*
D16*
%TO.P,J3,19,Pin_19*%
%TO.N,/GPIO18*%
X-10000Y3980000D03*
D17*
X1600000Y3980000D03*
D16*
%TO.P,J3,20,Pin_20*%
%TO.N,GND*%
X-10000Y1440000D03*
D17*
X1600000Y1440000D03*
%TD*%
D18*
%TO.P,J1,8,Pin_8*%
%TO.N,/GPIO9*%
X14295000Y5060000D03*
%TO.P,J1,7,Pin_7*%
%TO.N,/GPIO8*%
X14295000Y7600000D03*
%TO.P,J1,6,Pin_6*%
%TO.N,/GPIO14*%
X11755000Y5060000D03*
%TO.P,J1,5,Pin_5*%
%TO.N,/GPIO15*%
X11755000Y7600000D03*
%TO.P,J1,4,Pin_4*%
%TO.N,/GPIO13*%
X9215000Y5060000D03*
%TO.P,J1,3,Pin_3*%
%TO.N,/GPIO12*%
X9215000Y7600000D03*
%TO.P,J1,2,Pin_2*%
%TO.N,+3V3*%
X6675000Y5060000D03*
D19*
%TO.P,J1,1,Pin_1*%
%TO.N,GND*%
X6675000Y7600000D03*
%TD*%
D20*
%TO.P,JP6,1,A*%
%TO.N,/~{USB_BOOT}*%
X7765000Y32055000D03*
D21*
%TO.P,JP6,2,C*%
%TO.N,Net-(JP6-Pad2)*%
X7765000Y31365000D03*
D22*
%TO.P,JP6,3,B*%
%TO.N,/GPIO2*%
X7765000Y30675000D03*
%TD*%
D16*
%TO.P,J4,1,Pin_1*%
%TO.N,VBUS*%
X21010000Y49700000D03*
D17*
X19400000Y49700000D03*
D16*
%TO.P,J4,2,Pin_2*%
%TO.N,/VSYS*%
X21010000Y47160000D03*
D17*
X19400000Y47160000D03*
D16*
%TO.P,J4,3,Pin_3*%
%TO.N,GND*%
X21010000Y44620000D03*
D17*
X19400000Y44620000D03*
%TO.P,J4,4,Pin_4*%
%TO.N,/V_EN*%
X19400000Y42080000D03*
D16*
X21010000Y42080000D03*
D17*
%TO.P,J4,5,Pin_5*%
%TO.N,+3V3*%
X19400000Y39540000D03*
D16*
X21010000Y39540000D03*
%TO.P,J4,6,Pin_6*%
%TO.N,/AREF*%
X21010000Y37000000D03*
D17*
X19400000Y37000000D03*
D16*
%TO.P,J4,7,Pin_7*%
%TO.N,/RUN*%
X21010000Y34460000D03*
D17*
X19400000Y34460000D03*
%TO.P,J4,8,Pin_8*%
%TO.N,/GPIO29*%
X19400000Y31920000D03*
D16*
X21010000Y31920000D03*
%TO.P,J4,9,Pin_9*%
%TO.N,/GPIO28*%
X21010000Y29380000D03*
D17*
X19400000Y29380000D03*
D16*
%TO.P,J4,10,Pin_10*%
%TO.N,/GPIO27*%
X21010000Y26840000D03*
D17*
X19400000Y26840000D03*
D16*
%TO.P,J4,11,Pin_11*%
%TO.N,/GPIO26*%
X21010000Y24300000D03*
D17*
X19400000Y24300000D03*
D16*
%TO.P,J4,12,Pin_12*%
%TO.N,GND*%
X21010000Y21760000D03*
D17*
X19400000Y21760000D03*
%TO.P,J4,13,Pin_13*%
%TO.N,/GPIO25*%
X19400000Y19220000D03*
D16*
X21010000Y19220000D03*
D17*
%TO.P,J4,14,Pin_14*%
%TO.N,/GPIO24*%
X19400000Y16680000D03*
D16*
X21010000Y16680000D03*
%TO.P,J4,15,Pin_15*%
%TO.N,/GPIO23*%
X21010000Y14140000D03*
D17*
X19400000Y14140000D03*
%TO.P,J4,16,Pin_16*%
%TO.N,/GPIO22*%
X19400000Y11600000D03*
D16*
X21010000Y11600000D03*
%TO.P,J4,17,Pin_17*%
%TO.N,/GPIO21*%
X21010000Y9060000D03*
D17*
X19400000Y9060000D03*
%TO.P,J4,18,Pin_18*%
%TO.N,/GPIO20*%
X19400000Y6520000D03*
D16*
X21010000Y6520000D03*
%TO.P,J4,19,Pin_19*%
%TO.N,/GPIO19*%
X21010000Y3980000D03*
D17*
X19400000Y3980000D03*
D16*
%TO.P,J4,20,Pin_20*%
%TO.N,GND*%
X21010000Y1440000D03*
D17*
X19400000Y1440000D03*
%TD*%
D23*
%TO.N,GND*%
X14700000Y29100000D03*
X14700000Y29700000D03*
X15300000Y26400000D03*
X13500000Y3900000D03*
X11800000Y2500000D03*
X10575000Y6325000D03*
X17000000Y30900000D03*
X13800000Y28000000D03*
X7000000Y18700000D03*
X12400000Y10500000D03*
%TO.N,+1V1*%
X13300000Y28700000D03*
X10800000Y26000000D03*
%TO.N,GND*%
X15300000Y1800000D03*
X15700000Y26800000D03*
X9800000Y11700000D03*
X18600000Y40900000D03*
X5600000Y900000D03*
X15000000Y38300000D03*
X13900000Y9400000D03*
X14900000Y36300000D03*
X11800000Y36600000D03*
X18600000Y23100000D03*
X8200000Y37800000D03*
X13700000Y6300000D03*
X4200000Y38300000D03*
X18500000Y15400000D03*
X6900000Y28300000D03*
X2500000Y5300000D03*
X3000000Y44500000D03*
X2600000Y17900000D03*
X15300000Y900000D03*
X2600000Y15200000D03*
X16100000Y13300000D03*
X12156250Y17256250D03*
X13900000Y36300000D03*
X18900000Y5200000D03*
X14800000Y40300000D03*
X3100000Y34400000D03*
X14400000Y36300000D03*
X18600000Y18000000D03*
X8200000Y38500000D03*
X2600000Y8100000D03*
X2600000Y13000000D03*
X8500000Y15400000D03*
X11800000Y32300000D03*
X13400000Y36300000D03*
X2600000Y20400000D03*
X18600000Y43300000D03*
X8200000Y37100000D03*
X5600000Y1800000D03*
X18500000Y10300000D03*
X15300000Y2700000D03*
X5600000Y2700000D03*
X3100000Y36600000D03*
X11800000Y39000000D03*
X14500000Y38300000D03*
X18300000Y2800000D03*
X2600000Y10300000D03*
%TO.N,+3V3*%
X5600000Y47500000D03*
X8600000Y21400000D03*
D24*
X16296500Y20600000D03*
D23*
X6900000Y20200000D03*
D24*
X16200000Y28500000D03*
D23*
%TO.N,VBUS*%
X8500000Y45700000D03*
X12000000Y45700000D03*
%TO.N,/RUN*%
X7000000Y41200000D03*
X13711781Y19317906D03*
%TO.N,/GPIO0*%
X6500000Y26400000D03*
%TO.N,/GPIO1*%
X6250000Y25700000D03*
%TO.N,/GPIO2*%
X5550500Y29050000D03*
X7950000Y28500000D03*
X5900000Y25200000D03*
X6900500Y29250000D03*
%TO.N,/GPIO3*%
X5260287Y25060287D03*
%TO.N,/GPIO4*%
X4750000Y24750000D03*
%TO.N,/GPIO5*%
X4934529Y23929500D03*
%TO.N,/GPIO6*%
X4297924Y23598424D03*
%TO.N,/GPIO8*%
X6100000Y22530500D03*
X6700000Y13100000D03*
%TO.N,/GPIO9*%
X7120551Y13453681D03*
%TO.N,/GPIO12*%
X4350000Y12950000D03*
%TO.N,/GPIO13*%
X3700000Y11100000D03*
%TO.N,/GPIO14*%
X7550000Y17850000D03*
X7500000Y16150000D03*
%TO.N,/GPIO16*%
X12700000Y21200000D03*
%TO.N,/GPIO17*%
X13300000Y21500000D03*
%TO.N,/GPIO18*%
X13869500Y20250000D03*
%TO.N,/~{USB_BOOT}*%
X7050000Y33050000D03*
%TO.N,/AREF*%
X15163000Y28486102D03*
X18100000Y34000000D03*
%TO.N,/GPIO25*%
X17800000Y23750000D03*
%TO.N,/GPIO24*%
X17300000Y23400000D03*
%TO.N,/GPIO23*%
X17050500Y22800000D03*
%TO.N,/GPIO22*%
X16719500Y21300000D03*
%TO.N,/GPIO21*%
X15247114Y22032814D03*
%TO.N,/GPIO20*%
X14700000Y18200000D03*
%TO.N,/GPIO19*%
X14200000Y18500000D03*
%TO.N,/SWCLK*%
X13185709Y18492899D03*
%TO.N,/SWDIO*%
X13750500Y17500000D03*
%TO.N,/QSPI_SD1*%
X8600000Y35200000D03*
X8600000Y28400000D03*
%TO.N,/QSPI_SD2*%
X9300000Y28400000D03*
X9600500Y35200000D03*
%TO.N,/QSPI_SD0*%
X9100000Y26100000D03*
X11600000Y39800000D03*
%TO.N,/QSPI_SCLK*%
X9986439Y26269688D03*
X11100000Y38400000D03*
%TO.N,/QSPI_SD3*%
X10100000Y28400000D03*
X10100000Y38400000D03*
D24*
%TO.N,/VSYS*%
X15400000Y35300000D03*
X14800000Y39300000D03*
D23*
%TO.N,Net-(JP6-Pad2)*%
X6900500Y31250000D03*
%TD*%
D25*
%TO.N,/RUN*%
X14100000Y29063603D02*
X14100000Y31420000D01*
X14319500Y19925625D02*
X14319500Y28844103D01*
X14319500Y28844103D02*
X14100000Y29063603D01*
X14100000Y31420000D02*
X17140000Y34460000D01*
X13711781Y19317906D02*
X14319500Y19925625D01*
%TO.N,/GPIO18*%
X2780000Y3980000D02*
X1600000Y3980000D01*
X10900000Y14500000D02*
X4100000Y7700000D01*
X4100000Y7700000D02*
X4100000Y5300000D01*
X10900000Y17300000D02*
X10900000Y14500000D01*
X4100000Y5300000D02*
X2780000Y3980000D01*
X13850000Y20250000D02*
X10900000Y17300000D01*
X13869500Y20250000D02*
X13850000Y20250000D01*
%TO.N,/AREF*%
X15163000Y31063000D02*
X18100000Y34000000D01*
X15163000Y28486102D02*
X15163000Y31063000D01*
D26*
%TO.N,+3V3*%
X16220000Y28480000D02*
X16200000Y28500000D01*
X16220000Y20676500D02*
X16220000Y28480000D01*
X16296500Y20600000D02*
X16220000Y20676500D01*
D25*
%TO.N,/GPIO21*%
X17340000Y9060000D02*
X19400000Y9060000D01*
X15247114Y11152886D02*
X17340000Y9060000D01*
X15247114Y22032814D02*
X15247114Y11152886D01*
%TO.N,/GPIO9*%
X3200000Y25240000D02*
X1600000Y26840000D01*
X3200000Y23411000D02*
X3200000Y25240000D01*
X3630500Y22980500D02*
X3200000Y23411000D01*
X6550000Y22716897D02*
X6286397Y22980500D01*
X6550000Y22344103D02*
X6550000Y22716897D01*
X6450000Y22244103D02*
X6550000Y22344103D01*
X6450000Y14124232D02*
X6450000Y22244103D01*
X6286397Y22980500D02*
X3630500Y22980500D01*
X7120551Y13453681D02*
X6450000Y14124232D01*
%TO.N,/GPIO8*%
X6100000Y13700000D02*
X6100000Y22530500D01*
X6700000Y13100000D02*
X6100000Y13700000D01*
%TO.N,/GPIO12*%
X2330000Y19220000D02*
X1600000Y19220000D01*
X4350000Y12950000D02*
X4350000Y17200000D01*
X4350000Y17200000D02*
X2330000Y19220000D01*
%TO.N,/GPIO13*%
X2120000Y16680000D02*
X1600000Y16680000D01*
X3700000Y15100000D02*
X2120000Y16680000D01*
X3700000Y11100000D02*
X3700000Y15100000D01*
%TO.N,+1V1*%
X11700000Y26000000D02*
X10800000Y26000000D01*
X13300000Y28700000D02*
X13300000Y27600000D01*
X13300000Y27600000D02*
X11700000Y26000000D01*
%TO.N,+3V3*%
X7400000Y20200000D02*
X8600000Y21400000D01*
D26*
X15400000Y48100000D02*
X6200000Y48100000D01*
X6200000Y48100000D02*
X5600000Y47500000D01*
D25*
X6900000Y20200000D02*
X7400000Y20200000D01*
D26*
X18060000Y39540000D02*
X17400000Y40200000D01*
X17400000Y46100000D02*
X15400000Y48100000D01*
X17400000Y40200000D02*
X17400000Y46100000D01*
X19400000Y39540000D02*
X18060000Y39540000D01*
%TO.N,VBUS*%
X8500000Y45700000D02*
X12000000Y45700000D01*
D25*
%TO.N,/RUN*%
X13400000Y44800000D02*
X16400000Y41800000D01*
X7900000Y44800000D02*
X13400000Y44800000D01*
X16400000Y41800000D02*
X16400000Y35200000D01*
X17140000Y34460000D02*
X19400000Y34460000D01*
X7000000Y43900000D02*
X7900000Y44800000D01*
X16400000Y35200000D02*
X17140000Y34460000D01*
X7000000Y41200000D02*
X7000000Y43900000D01*
%TO.N,/GPIO0*%
X6400000Y43200000D02*
X3300000Y46300000D01*
X3300000Y46300000D02*
X3300000Y48000000D01*
X3300000Y48000000D02*
X1600000Y49700000D01*
X6500000Y26400000D02*
X6400000Y26500000D01*
X6400000Y26500000D02*
X6400000Y43200000D01*
%TO.N,/GPIO1*%
X6020500Y25929500D02*
X6020500Y42739500D01*
X6250000Y25700000D02*
X6020500Y25929500D01*
X6020500Y42739500D02*
X1600000Y47160000D01*
%TO.N,/GPIO2*%
X5550000Y40670000D02*
X1600000Y44620000D01*
X6900500Y29250000D02*
X6900500Y29810500D01*
X5900000Y25200000D02*
X5550000Y25550000D01*
X6900500Y29810500D02*
X7765000Y30675000D01*
X7550000Y28500000D02*
X7950000Y28500000D01*
X6900500Y29250000D02*
X6900500Y29149500D01*
X5550000Y25550000D02*
X5550000Y40670000D01*
X6900500Y29149500D02*
X7550000Y28500000D01*
%TO.N,/GPIO3*%
X5080500Y25240074D02*
X5080500Y38599500D01*
X5260287Y25060287D02*
X5080500Y25240074D01*
X5080500Y38599500D02*
X1600000Y42080000D01*
%TO.N,/GPIO4*%
X4700000Y36440000D02*
X1600000Y39540000D01*
X4750000Y24750000D02*
X4700000Y24800000D01*
X4700000Y24800000D02*
X4700000Y36440000D01*
%TO.N,/GPIO5*%
X4150000Y34450000D02*
X1600000Y37000000D01*
X4934529Y23929500D02*
X4870500Y23929500D01*
X4150000Y24650000D02*
X4150000Y34450000D01*
X4870500Y23929500D02*
X4150000Y24650000D01*
%TO.N,/GPIO6*%
X3650000Y24150000D02*
X3650000Y32410000D01*
X4297924Y23598424D02*
X4201576Y23598424D01*
X4201576Y23598424D02*
X3650000Y24150000D01*
X3650000Y32410000D02*
X1600000Y34460000D01*
%TO.N,/GPIO14*%
X7500000Y17800000D02*
X7550000Y17850000D01*
X7500000Y16150000D02*
X7500000Y17800000D01*
%TO.N,/GPIO16*%
X10000000Y15600000D02*
X3460000Y9060000D01*
X10000000Y18500000D02*
X10000000Y15600000D01*
X3460000Y9060000D02*
X1600000Y9060000D01*
X12700000Y21200000D02*
X10000000Y18500000D01*
%TO.N,/GPIO17*%
X13300000Y20846447D02*
X10450000Y17996447D01*
X13300000Y21500000D02*
X13300000Y20846447D01*
X1910000Y6520000D02*
X1600000Y6520000D01*
X10450000Y15060000D02*
X1910000Y6520000D01*
X10450000Y17996447D02*
X10450000Y15060000D01*
%TO.N,/~{USB_BOOT}*%
X7050000Y33050000D02*
X7050000Y33000000D01*
X7765000Y32285000D02*
X7765000Y32055000D01*
X7050000Y33000000D02*
X7765000Y32285000D01*
%TO.N,/GPIO25*%
X17800000Y23750000D02*
X18000000Y23550000D01*
X18000000Y23550000D02*
X18000000Y20620000D01*
X18000000Y20620000D02*
X19400000Y19220000D01*
%TO.N,/GPIO24*%
X19020000Y16680000D02*
X19400000Y16680000D01*
X17600000Y23100000D02*
X17600000Y18100000D01*
X17600000Y18100000D02*
X19020000Y16680000D01*
X17300000Y23400000D02*
X17600000Y23100000D01*
%TO.N,/GPIO23*%
X17050500Y22800000D02*
X17200000Y22650500D01*
X17200000Y15500000D02*
X18560000Y14140000D01*
X18560000Y14140000D02*
X19400000Y14140000D01*
X17200000Y22650500D02*
X17200000Y15500000D01*
%TO.N,/GPIO22*%
X16800000Y13900000D02*
X19100000Y11600000D01*
X16719500Y21300000D02*
X16800000Y21219500D01*
X16800000Y21219500D02*
X16800000Y13900000D01*
X19100000Y11600000D02*
X19400000Y11600000D01*
%TO.N,/GPIO20*%
X19180000Y6520000D02*
X19400000Y6520000D01*
X14700000Y18200000D02*
X14700000Y11000000D01*
X14700000Y11000000D02*
X19180000Y6520000D01*
%TO.N,/GPIO19*%
X16200000Y7000000D02*
X19220000Y3980000D01*
X14200000Y10700000D02*
X16200000Y8700000D01*
X19220000Y3980000D02*
X19400000Y3980000D01*
X14200000Y18500000D02*
X14200000Y10700000D01*
X16200000Y8700000D02*
X16200000Y7000000D01*
%TO.N,/SWCLK*%
X9750000Y3400000D02*
X7950000Y1600000D01*
X13185709Y18492899D02*
X13100000Y18407190D01*
X12200000Y3400000D02*
X9750000Y3400000D01*
X13100000Y18407190D02*
X13100000Y4300000D01*
X13100000Y4300000D02*
X12200000Y3400000D01*
%TO.N,/SWDIO*%
X13750500Y17500000D02*
X13700000Y17449500D01*
X15700000Y8500000D02*
X15700000Y4270000D01*
X13700000Y10500000D02*
X15700000Y8500000D01*
X15700000Y4270000D02*
X13030000Y1600000D01*
X13700000Y17449500D02*
X13700000Y10500000D01*
%TO.N,/QSPI_SD1*%
X8603200Y28403200D02*
X8603200Y35196800D01*
X8603200Y35196800D02*
X8600000Y35200000D01*
X8600000Y28400000D02*
X8603200Y28403200D01*
%TO.N,/QSPI_SD2*%
X9300000Y28400000D02*
X9400000Y28500000D01*
X9400000Y28500000D02*
X9400000Y34999500D01*
X9400000Y34999500D02*
X9600500Y35200000D01*
%TO.N,/QSPI_SD0*%
X9100000Y26200000D02*
X10600000Y27700000D01*
X9100000Y26100000D02*
X9100000Y26200000D01*
X10600000Y38800000D02*
X11600000Y39800000D01*
X10600000Y27700000D02*
X10600000Y38800000D01*
%TO.N,/QSPI_SCLK*%
X11100000Y27400000D02*
X9986439Y26286439D01*
X9986439Y26286439D02*
X9986439Y26269688D01*
X11100000Y38400000D02*
X11100000Y27400000D01*
%TO.N,/QSPI_SD3*%
X10100000Y38400000D02*
X10100000Y28400000D01*
D26*
%TO.N,/VSYS*%
X14800000Y39300000D02*
X15500000Y38600000D01*
X15500000Y38600000D02*
X15500000Y35400000D01*
X15500000Y35400000D02*
X15400000Y35300000D01*
D25*
%TO.N,Net-(JP6-Pad2)*%
X7015500Y31365000D02*
X7765000Y31365000D01*
X6900500Y31250000D02*
X7015500Y31365000D01*
%TD*%
%TA.AperFunction,Conductor*%
%TO.N,GND*%
G36*
X15397054Y4685115D02*
G01*
X15419500Y4626026D01*
X15419500Y4423053D01*
X15398678Y4365845D01*
X15393433Y4360120D01*
X13575101Y2541788D01*
X13519925Y2516060D01*
X13472875Y2524865D01*
X13373538Y2573745D01*
X13369181Y2574880D01*
X13369178Y2574881D01*
X13185137Y2622819D01*
X13185138Y2622819D01*
X13180776Y2623955D01*
X13176278Y2624191D01*
X13176276Y2624191D01*
X12986363Y2634144D01*
X12986361Y2634144D01*
X12981856Y2634380D01*
X12977393Y2633705D01*
X12977392Y2633705D01*
X12789358Y2605268D01*
X12789357Y2605268D01*
X12784902Y2604594D01*
X12695651Y2571756D01*
X12602191Y2537370D01*
X12602188Y2537369D01*
X12597960Y2535813D01*
X12428667Y2430847D01*
X12283938Y2293983D01*
X12169686Y2130814D01*
X12090576Y1948003D01*
X12089654Y1943591D01*
X12089653Y1943587D01*
X12086993Y1930852D01*
X12049842Y1753019D01*
X12049500Y1746493D01*
X12049500Y269500D01*
X12028678Y212292D01*
X11975955Y181852D01*
X11960500Y180500D01*
X11679000Y180500D01*
X11621792Y201322D01*
X11591352Y254045D01*
X11590000Y269500D01*
X11590000Y1434306D01*
X11585624Y1446329D01*
X11579266Y1450000D01*
X10655694Y1450000D01*
X10643671Y1445624D01*
X10640000Y1439266D01*
X10640000Y269500D01*
X10619178Y212292D01*
X10566455Y181852D01*
X10551000Y180500D01*
X10429000Y180500D01*
X10371792Y201322D01*
X10341352Y254045D01*
X10340000Y269500D01*
X10340000Y1434306D01*
X10335624Y1446329D01*
X10329266Y1450000D01*
X9405694Y1450000D01*
X9393671Y1445624D01*
X9390000Y1439266D01*
X9390000Y269500D01*
X9369178Y212292D01*
X9316455Y181852D01*
X9301000Y180500D01*
X9019499Y180500D01*
X8962291Y201322D01*
X8931851Y254045D01*
X8930499Y269500D01*
X8930499Y1453495D01*
X8930500Y1453507D01*
X8930500Y1699785D01*
X8924133Y1762465D01*
X9391175Y1762465D01*
X9394376Y1753671D01*
X9400734Y1750000D01*
X10324306Y1750000D01*
X10336329Y1754376D01*
X10340000Y1760734D01*
X10340000Y1765694D01*
X10640000Y1765694D01*
X10644376Y1753671D01*
X10650734Y1750000D01*
X11569769Y1750000D01*
X11581792Y1754376D01*
X11584584Y1759212D01*
X11575470Y1854739D01*
X11573877Y1863011D01*
X11517173Y2056301D01*
X11514043Y2064125D01*
X11421811Y2243206D01*
X11417256Y2250299D01*
X11292834Y2408695D01*
X11287010Y2414811D01*
X11134878Y2546825D01*
X11128010Y2551723D01*
X10953665Y2652585D01*
X10945987Y2656101D01*
X10755710Y2722176D01*
X10747513Y2724174D01*
X10655531Y2737511D01*
X10643006Y2734906D01*
X10640000Y2731093D01*
X10640000Y1765694D01*
X10340000Y1765694D01*
X10340000Y2728550D01*
X10335624Y2740573D01*
X10331192Y2743132D01*
X10330196Y2742990D01*
X10134359Y2695793D01*
X10126395Y2693051D01*
X9943025Y2609677D01*
X9935713Y2605472D01*
X9771424Y2488934D01*
X9765038Y2483423D01*
X9625745Y2337915D01*
X9620524Y2331304D01*
X9511261Y2162086D01*
X9507374Y2154587D01*
X9432083Y1967766D01*
X9429689Y1959684D01*
X9391175Y1762465D01*
X8924133Y1762465D01*
X8915427Y1848174D01*
X8855860Y2038252D01*
X8857601Y2038798D01*
X8854578Y2092954D01*
X8876844Y2130157D01*
X9840120Y3093433D01*
X9895296Y3119161D01*
X9903053Y3119500D01*
X12149903Y3119500D01*
X12153941Y3119203D01*
X12158314Y3117702D01*
X12166522Y3118010D01*
X12166524Y3118010D01*
X12204519Y3119437D01*
X12207859Y3119500D01*
X12226090Y3119500D01*
X12230131Y3120253D01*
X12230392Y3120277D01*
X12235240Y3120591D01*
X12262735Y3121623D01*
X12272959Y3126015D01*
X12291785Y3131735D01*
X12302728Y3133773D01*
X12324113Y3146955D01*
X12335663Y3152955D01*
X12358743Y3162871D01*
X12363304Y3166617D01*
X12367662Y3170975D01*
X12383891Y3183803D01*
X12391682Y3188605D01*
X12408310Y3210472D01*
X12416221Y3219534D01*
X13262924Y4066237D01*
X13265985Y4068879D01*
X13270138Y4070909D01*
X13301569Y4104792D01*
X13303884Y4107197D01*
X13316792Y4120105D01*
X13319109Y4123483D01*
X13319284Y4123694D01*
X13322492Y4127347D01*
X13335611Y4141489D01*
X13335613Y4141492D01*
X13341203Y4147518D01*
X13345323Y4157845D01*
X13354597Y4175215D01*
X13356242Y4177614D01*
X13360890Y4184389D01*
X13366689Y4208824D01*
X13370619Y4221250D01*
X13371170Y4222631D01*
X13379924Y4244573D01*
X13380500Y4250447D01*
X13380500Y4256607D01*
X13382905Y4277157D01*
X13383120Y4278064D01*
X13385018Y4286061D01*
X13383909Y4294207D01*
X13384145Y4299023D01*
X13407736Y4355146D01*
X13461883Y4382975D01*
X13521250Y4369488D01*
X13542787Y4349960D01*
X13550134Y4340691D01*
X13603483Y4295287D01*
X13700720Y4212531D01*
X13700723Y4212529D01*
X13704034Y4209711D01*
X13796841Y4157843D01*
X13857944Y4123694D01*
X13880444Y4111119D01*
X13884581Y4109775D01*
X13884583Y4109774D01*
X14068499Y4050017D01*
X14072645Y4048670D01*
X14076972Y4048154D01*
X14088863Y4046736D01*
X14273314Y4024741D01*
X14277643Y4025074D01*
X14277647Y4025074D01*
X14470474Y4039911D01*
X14470478Y4039912D01*
X14474810Y4040245D01*
X14478998Y4041414D01*
X14479002Y4041415D01*
X14598402Y4074753D01*
X14669457Y4094592D01*
X14673340Y4096554D01*
X14673344Y4096555D01*
X14787174Y4154055D01*
X14849841Y4185710D01*
X15009091Y4310130D01*
X15033037Y4337871D01*
X15088425Y4402039D01*
X15141142Y4463112D01*
X15161569Y4499069D01*
X15208301Y4581333D01*
X15240964Y4638830D01*
X15246050Y4654119D01*
X15283865Y4701830D01*
X15343502Y4714071D01*
X15397054Y4685115D01*
G37*
%TD.AperFunction*%
%TA.AperFunction,Conductor*%
G36*
X12779265Y18678569D02*
G01*
X12814184Y18628699D01*
X12816121Y18591742D01*
X12800466Y18492899D01*
X12801562Y18485979D01*
X12818404Y18379642D01*
X12819500Y18365719D01*
X12819500Y8150040D01*
X12798678Y8092832D01*
X12745955Y8062392D01*
X12686000Y8072964D01*
X12651918Y8108257D01*
X12629701Y8150040D01*
X12617478Y8173029D01*
X12614724Y8176406D01*
X12492503Y8326265D01*
X12492502Y8326266D01*
X12489751Y8329639D01*
X12334036Y8458457D01*
X12319239Y8466458D01*
X12160101Y8552503D01*
X12156267Y8554576D01*
X11963213Y8614336D01*
X11958884Y8614791D01*
X11958879Y8614792D01*
X11766562Y8635006D01*
X11766558Y8635006D01*
X11762229Y8635461D01*
X11560969Y8617145D01*
X11551425Y8614336D01*
X11371277Y8561316D01*
X11371271Y8561314D01*
X11367100Y8560086D01*
X11363240Y8558068D01*
X11191867Y8468477D01*
X11191863Y8468474D01*
X11188006Y8466458D01*
X11030508Y8339826D01*
X10900607Y8185015D01*
X10898508Y8181197D01*
X10843173Y8080543D01*
X10803248Y8007921D01*
X10801933Y8003775D01*
X10801932Y8003773D01*
X10743456Y7819434D01*
X10743455Y7819429D01*
X10742142Y7815290D01*
X10741657Y7810970D01*
X10741657Y7810968D01*
X10729860Y7705795D01*
X10719615Y7614458D01*
X10736526Y7413075D01*
X10792229Y7218812D01*
X10884605Y7039069D01*
X10887311Y7035655D01*
X11007429Y6884104D01*
X11010134Y6880691D01*
X11054845Y6842639D01*
X11160720Y6752531D01*
X11160723Y6752529D01*
X11164034Y6749711D01*
X11238565Y6708057D01*
X11313324Y6666276D01*
X11340444Y6651119D01*
X11344581Y6649775D01*
X11344583Y6649774D01*
X11528499Y6590017D01*
X11532645Y6588670D01*
X11733314Y6564741D01*
X11737643Y6565074D01*
X11737647Y6565074D01*
X11930474Y6579911D01*
X11930478Y6579912D01*
X11934810Y6580245D01*
X11938998Y6581414D01*
X11939002Y6581415D01*
X12053208Y6613303D01*
X12129457Y6634592D01*
X12133340Y6636554D01*
X12133344Y6636555D01*
X12264603Y6702859D01*
X12309841Y6725710D01*
X12469091Y6850130D01*
X12493037Y6877871D01*
X12598300Y6999820D01*
X12601142Y7003112D01*
X12653115Y7094601D01*
X12699477Y7134058D01*
X12760355Y7134483D01*
X12807264Y7095677D01*
X12819500Y7050640D01*
X12819500Y5610040D01*
X12798678Y5552832D01*
X12745955Y5522392D01*
X12686000Y5532964D01*
X12651918Y5568257D01*
X12629701Y5610040D01*
X12617478Y5633029D01*
X12614724Y5636406D01*
X12492503Y5786265D01*
X12492502Y5786266D01*
X12489751Y5789639D01*
X12334036Y5918457D01*
X12319239Y5926458D01*
X12160101Y6012503D01*
X12156267Y6014576D01*
X11963213Y6074336D01*
X11958884Y6074791D01*
X11958879Y6074792D01*
X11766562Y6095006D01*
X11766558Y6095006D01*
X11762229Y6095461D01*
X11560969Y6077145D01*
X11551425Y6074336D01*
X11371277Y6021316D01*
X11371271Y6021314D01*
X11367100Y6020086D01*
X11363240Y6018068D01*
X11191867Y5928477D01*
X11191863Y5928474D01*
X11188006Y5926458D01*
X11030508Y5799826D01*
X10900607Y5645015D01*
X10898508Y5641197D01*
X10843173Y5540543D01*
X10803248Y5467921D01*
X10801933Y5463775D01*
X10801932Y5463773D01*
X10743456Y5279434D01*
X10743455Y5279429D01*
X10742142Y5275290D01*
X10741657Y5270970D01*
X10741657Y5270968D01*
X10727810Y5147518D01*
X10719615Y5074458D01*
X10736526Y4873075D01*
X10792229Y4678812D01*
X10884605Y4499069D01*
X10887311Y4495655D01*
X11007429Y4344104D01*
X11010134Y4340691D01*
X11063483Y4295287D01*
X11160720Y4212531D01*
X11160723Y4212529D01*
X11164034Y4209711D01*
X11256841Y4157843D01*
X11317944Y4123694D01*
X11340444Y4111119D01*
X11344581Y4109775D01*
X11344583Y4109774D01*
X11528499Y4050017D01*
X11532645Y4048670D01*
X11536972Y4048154D01*
X11548863Y4046736D01*
X11733314Y4024741D01*
X11737643Y4025074D01*
X11737647Y4025074D01*
X11930474Y4039911D01*
X11930478Y4039912D01*
X11934810Y4040245D01*
X11938998Y4041414D01*
X11939002Y4041415D01*
X12058402Y4074753D01*
X12129457Y4094592D01*
X12133340Y4096554D01*
X12133344Y4096555D01*
X12247174Y4154055D01*
X12309841Y4185710D01*
X12439641Y4287121D01*
X12497139Y4305803D01*
X12500223Y4341050D01*
X12513512Y4361592D01*
X12548425Y4402039D01*
X12601142Y4463112D01*
X12653115Y4554601D01*
X12699477Y4594058D01*
X12760355Y4594483D01*
X12807264Y4555677D01*
X12819500Y4510640D01*
X12819500Y4453053D01*
X12798678Y4395845D01*
X12793433Y4390120D01*
X12643817Y4240504D01*
X12588641Y4214776D01*
X12579960Y4217102D01*
X12569911Y4169825D01*
X12557368Y4154055D01*
X12109880Y3706567D01*
X12054704Y3680839D01*
X12046947Y3680500D01*
X9800092Y3680500D01*
X9796058Y3680796D01*
X9791686Y3682297D01*
X9783474Y3681989D01*
X9783472Y3681989D01*
X9745495Y3680563D01*
X9742156Y3680500D01*
X9723910Y3680500D01*
X9719876Y3679749D01*
X9719586Y3679722D01*
X9714754Y3679409D01*
X9687264Y3678377D01*
X9679712Y3675132D01*
X9679711Y3675132D01*
X9677046Y3673987D01*
X9658211Y3668265D01*
X9655355Y3667733D01*
X9655351Y3667732D01*
X9647272Y3666227D01*
X9640278Y3661916D01*
X9640273Y3661914D01*
X9625892Y3653049D01*
X9614327Y3647041D01*
X9591256Y3637129D01*
X9586696Y3633382D01*
X9582342Y3629028D01*
X9566110Y3616198D01*
X9558318Y3611395D01*
X9553344Y3604854D01*
X9553343Y3604853D01*
X9541687Y3589524D01*
X9533776Y3580462D01*
X8495102Y2541788D01*
X8439926Y2516060D01*
X8392875Y2524865D01*
X8391646Y2525470D01*
X8293538Y2573745D01*
X8289181Y2574880D01*
X8289178Y2574881D01*
X8105137Y2622819D01*
X8105138Y2622819D01*
X8100776Y2623955D01*
X8096278Y2624191D01*
X8096276Y2624191D01*
X7906363Y2634144D01*
X7906361Y2634144D01*
X7901856Y2634380D01*
X7897393Y2633705D01*
X7897392Y2633705D01*
X7709358Y2605268D01*
X7709357Y2605268D01*
X7704902Y2604594D01*
X7615651Y2571756D01*
X7522191Y2537370D01*
X7522188Y2537369D01*
X7517960Y2535813D01*
X7348667Y2430847D01*
X7203938Y2293983D01*
X7089686Y2130814D01*
X7010576Y1948003D01*
X7009654Y1943591D01*
X7009653Y1943587D01*
X7006993Y1930852D01*
X6969842Y1753019D01*
X6969500Y1746493D01*
X6969500Y269500D01*
X6948678Y212292D01*
X6895955Y181852D01*
X6880500Y180500D01*
X1883844Y180500D01*
X1826636Y201322D01*
X1796196Y254045D01*
X1806768Y314000D01*
X1853404Y353133D01*
X1859023Y354686D01*
X1858951Y354932D01*
X2056301Y412827D01*
X2064125Y415957D01*
X2243206Y508189D01*
X2250299Y512744D01*
X2408695Y637166D01*
X2414811Y642990D01*
X2546825Y795122D01*
X2551723Y801990D01*
X2652585Y976335D01*
X2656101Y984013D01*
X2722176Y1174290D01*
X2724174Y1182487D01*
X2737511Y1274469D01*
X2734906Y1286994D01*
X2731093Y1290000D01*
X269500Y1290000D01*
X212292Y1310822D01*
X181852Y1363545D01*
X180500Y1379000D01*
X180500Y1440874D01*
X2995541Y1440874D01*
X3025935Y1239903D01*
X3096119Y1049148D01*
X3203226Y876401D01*
X3342881Y728720D01*
X3509379Y612137D01*
X3695919Y531414D01*
X3700331Y530492D01*
X3700335Y530491D01*
X3807091Y508189D01*
X3894880Y489849D01*
X3901539Y489500D01*
X4050800Y489500D01*
X4140136Y498574D01*
X4197729Y504424D01*
X4197731Y504424D01*
X4202216Y504880D01*
X4299194Y535271D01*
X4391868Y564313D01*
X4391870Y564314D01*
X4396172Y565662D01*
X4573944Y664203D01*
X4728271Y796477D01*
X4852848Y957081D01*
X4942587Y1139455D01*
X4993822Y1336148D01*
X4999310Y1440874D01*
X5004223Y1534619D01*
X5004223Y1534621D01*
X5004459Y1539126D01*
X4974065Y1740097D01*
X4972134Y1745347D01*
X4935620Y1844587D01*
X4903881Y1930852D01*
X4796774Y2103599D01*
X4657119Y2251280D01*
X4490621Y2367863D01*
X4304081Y2448586D01*
X4299669Y2449508D01*
X4299665Y2449509D01*
X4183527Y2473771D01*
X4105120Y2490151D01*
X4098461Y2490500D01*
X3949200Y2490500D01*
X3859864Y2481426D01*
X3802271Y2475576D01*
X3802269Y2475576D01*
X3797784Y2475120D01*
X3716059Y2449509D01*
X3608132Y2415687D01*
X3608130Y2415686D01*
X3603828Y2414338D01*
X3426056Y2315797D01*
X3271729Y2183523D01*
X3147152Y2022919D01*
X3057413Y1840545D01*
X3056278Y1836188D01*
X3056277Y1836185D01*
X3020159Y1697526D01*
X3006178Y1643852D01*
X3005942Y1639354D01*
X3005942Y1639352D01*
X3000454Y1534619D01*
X2995541Y1440874D01*
X180500Y1440874D01*
X180500Y1501000D01*
X201322Y1558208D01*
X254045Y1588648D01*
X269500Y1590000D01*
X1434306Y1590000D01*
X1446329Y1594376D01*
X1450000Y1600734D01*
X1450000Y1605694D01*
X1750000Y1605694D01*
X1754376Y1593671D01*
X1760734Y1590000D01*
X2728550Y1590000D01*
X2740573Y1594376D01*
X2743132Y1598808D01*
X2742990Y1599804D01*
X2695793Y1795641D01*
X2693051Y1803605D01*
X2609677Y1986975D01*
X2605472Y1994287D01*
X2488934Y2158576D01*
X2483423Y2164962D01*
X2337915Y2304255D01*
X2331304Y2309476D01*
X2162086Y2418739D01*
X2154587Y2422626D01*
X1967766Y2497917D01*
X1959684Y2500311D01*
X1762465Y2538825D01*
X1753671Y2535624D01*
X1750000Y2529266D01*
X1750000Y1605694D01*
X1450000Y1605694D01*
X1450000Y2524306D01*
X1445624Y2536329D01*
X1439266Y2540000D01*
X269500Y2540000D01*
X212292Y2560822D01*
X181852Y2613545D01*
X180500Y2629000D01*
X180500Y2910501D01*
X201322Y2967709D01*
X254045Y2998149D01*
X269500Y2999501D01*
X1453495Y2999501D01*
X1453507Y2999500D01*
X1699785Y2999500D01*
X1788707Y3008532D01*
X1843687Y3014117D01*
X1843689Y3014117D01*
X1848174Y3014573D01*
X1960797Y3049867D01*
X2033948Y3072791D01*
X2033950Y3072792D01*
X2038252Y3074140D01*
X2212471Y3170711D01*
X2363713Y3300341D01*
X2485800Y3457734D01*
X2573745Y3636462D01*
X2574881Y3640822D01*
X2575141Y3641522D01*
X2614598Y3687885D01*
X2658559Y3699500D01*
X2729903Y3699500D01*
X2733941Y3699203D01*
X2738314Y3697702D01*
X2746522Y3698010D01*
X2746524Y3698010D01*
X2784519Y3699437D01*
X2787859Y3699500D01*
X2806090Y3699500D01*
X2810131Y3700253D01*
X2810392Y3700277D01*
X2815240Y3700591D01*
X2842735Y3701623D01*
X2852959Y3706015D01*
X2871785Y3711735D01*
X2882728Y3713773D01*
X2904113Y3726955D01*
X2915663Y3732955D01*
X2938743Y3742871D01*
X2943304Y3746617D01*
X2947662Y3750975D01*
X2963891Y3763803D01*
X2971682Y3768605D01*
X2988310Y3790472D01*
X2996221Y3799534D01*
X4262924Y5066237D01*
X4265985Y5068879D01*
X4270138Y5070909D01*
X4273430Y5074458D01*
X5639615Y5074458D01*
X5656526Y4873075D01*
X5712229Y4678812D01*
X5804605Y4499069D01*
X5807311Y4495655D01*
X5927429Y4344104D01*
X5930134Y4340691D01*
X5983483Y4295287D01*
X6080720Y4212531D01*
X6080723Y4212529D01*
X6084034Y4209711D01*
X6176841Y4157843D01*
X6237944Y4123694D01*
X6260444Y4111119D01*
X6264581Y4109775D01*
X6264583Y4109774D01*
X6448499Y4050017D01*
X6452645Y4048670D01*
X6456972Y4048154D01*
X6468863Y4046736D01*
X6653314Y4024741D01*
X6657643Y4025074D01*
X6657647Y4025074D01*
X6850474Y4039911D01*
X6850478Y4039912D01*
X6854810Y4040245D01*
X6858998Y4041414D01*
X6859002Y4041415D01*
X6978402Y4074753D01*
X7049457Y4094592D01*
X7053340Y4096554D01*
X7053344Y4096555D01*
X7167174Y4154055D01*
X7229841Y4185710D01*
X7389091Y4310130D01*
X7413037Y4337871D01*
X7468425Y4402039D01*
X7521142Y4463112D01*
X7541569Y4499069D01*
X7588301Y4581333D01*
X7620964Y4638830D01*
X7632978Y4674943D01*
X7683379Y4826457D01*
X7684754Y4830590D01*
X7710082Y5031088D01*
X7710124Y5034045D01*
X7710451Y5057508D01*
X7710486Y5060000D01*
X7709875Y5066237D01*
X7709069Y5074458D01*
X8179615Y5074458D01*
X8196526Y4873075D01*
X8252229Y4678812D01*
X8344605Y4499069D01*
X8347311Y4495655D01*
X8467429Y4344104D01*
X8470134Y4340691D01*
X8523483Y4295287D01*
X8620720Y4212531D01*
X8620723Y4212529D01*
X8624034Y4209711D01*
X8716841Y4157843D01*
X8777944Y4123694D01*
X8800444Y4111119D01*
X8804581Y4109775D01*
X8804583Y4109774D01*
X8988499Y4050017D01*
X8992645Y4048670D01*
X8996972Y4048154D01*
X9008863Y4046736D01*
X9193314Y4024741D01*
X9197643Y4025074D01*
X9197647Y4025074D01*
X9390474Y4039911D01*
X9390478Y4039912D01*
X9394810Y4040245D01*
X9398998Y4041414D01*
X9399002Y4041415D01*
X9518402Y4074753D01*
X9589457Y4094592D01*
X9593340Y4096554D01*
X9593344Y4096555D01*
X9707174Y4154055D01*
X9769841Y4185710D01*
X9929091Y4310130D01*
X9953037Y4337871D01*
X10008425Y4402039D01*
X10061142Y4463112D01*
X10081569Y4499069D01*
X10128301Y4581333D01*
X10160964Y4638830D01*
X10172978Y4674943D01*
X10223379Y4826457D01*
X10224754Y4830590D01*
X10250082Y5031088D01*
X10250124Y5034045D01*
X10250451Y5057508D01*
X10250486Y5060000D01*
X10249875Y5066237D01*
X10231598Y5252631D01*
X10230765Y5261127D01*
X10185954Y5409548D01*
X10173614Y5450420D01*
X10173614Y5450421D01*
X10172354Y5454593D01*
X10170310Y5458437D01*
X10170308Y5458442D01*
X10104415Y5582368D01*
X10077478Y5633029D01*
X10074724Y5636406D01*
X9952503Y5786265D01*
X9952502Y5786266D01*
X9949751Y5789639D01*
X9794036Y5918457D01*
X9779239Y5926458D01*
X9620101Y6012503D01*
X9616267Y6014576D01*
X9423213Y6074336D01*
X9418884Y6074791D01*
X9418879Y6074792D01*
X9226562Y6095006D01*
X9226558Y6095006D01*
X9222229Y6095461D01*
X9020969Y6077145D01*
X9011425Y6074336D01*
X8831277Y6021316D01*
X8831271Y6021314D01*
X8827100Y6020086D01*
X8823240Y6018068D01*
X8651867Y5928477D01*
X8651863Y5928474D01*
X8648006Y5926458D01*
X8490508Y5799826D01*
X8360607Y5645015D01*
X8358508Y5641197D01*
X8303173Y5540543D01*
X8263248Y5467921D01*
X8261933Y5463775D01*
X8261932Y5463773D01*
X8203456Y5279434D01*
X8203455Y5279429D01*
X8202142Y5275290D01*
X8201657Y5270970D01*
X8201657Y5270968D01*
X8187810Y5147518D01*
X8179615Y5074458D01*
X7709069Y5074458D01*
X7691598Y5252631D01*
X7690765Y5261127D01*
X7645954Y5409548D01*
X7633614Y5450420D01*
X7633614Y5450421D01*
X7632354Y5454593D01*
X7630310Y5458437D01*
X7630308Y5458442D01*
X7564415Y5582368D01*
X7537478Y5633029D01*
X7534724Y5636406D01*
X7412503Y5786265D01*
X7412502Y5786266D01*
X7409751Y5789639D01*
X7254036Y5918457D01*
X7239239Y5926458D01*
X7080101Y6012503D01*
X7076267Y6014576D01*
X6883213Y6074336D01*
X6878884Y6074791D01*
X6878879Y6074792D01*
X6686562Y6095006D01*
X6686558Y6095006D01*
X6682229Y6095461D01*
X6480969Y6077145D01*
X6471425Y6074336D01*
X6291277Y6021316D01*
X6291271Y6021314D01*
X6287100Y6020086D01*
X6283240Y6018068D01*
X6111867Y5928477D01*
X6111863Y5928474D01*
X6108006Y5926458D01*
X5950508Y5799826D01*
X5820607Y5645015D01*
X5818508Y5641197D01*
X5763173Y5540543D01*
X5723248Y5467921D01*
X5721933Y5463775D01*
X5721932Y5463773D01*
X5663456Y5279434D01*
X5663455Y5279429D01*
X5662142Y5275290D01*
X5661657Y5270970D01*
X5661657Y5270968D01*
X5647810Y5147518D01*
X5639615Y5074458D01*
X4273430Y5074458D01*
X4301569Y5104792D01*
X4303884Y5107197D01*
X4316792Y5120105D01*
X4319115Y5123491D01*
X4319292Y5123704D01*
X4322475Y5127329D01*
X4341203Y5147518D01*
X4345326Y5157852D01*
X4354595Y5175212D01*
X4360891Y5184389D01*
X4366690Y5208825D01*
X4370621Y5221253D01*
X4377596Y5238736D01*
X4377597Y5238741D01*
X4379924Y5244573D01*
X4380500Y5250447D01*
X4380500Y5256603D01*
X4382905Y5277153D01*
X4383121Y5278065D01*
X4385019Y5286061D01*
X4381313Y5313291D01*
X4380500Y5325293D01*
X4380500Y6708057D01*
X5525000Y6708057D01*
X5525311Y6702816D01*
X5527323Y6685904D01*
X5530824Y6673166D01*
X5570144Y6584642D01*
X5579293Y6571331D01*
X5646757Y6503984D01*
X5660092Y6494855D01*
X5748668Y6455695D01*
X5761438Y6452214D01*
X5777859Y6450299D01*
X5783009Y6450000D01*
X6509306Y6450000D01*
X6521329Y6454376D01*
X6525000Y6460734D01*
X6525000Y6465694D01*
X6825000Y6465694D01*
X6829376Y6453671D01*
X6835734Y6450000D01*
X7566943Y6450000D01*
X7572184Y6450311D01*
X7589096Y6452323D01*
X7601834Y6455824D01*
X7690358Y6495144D01*
X7703669Y6504293D01*
X7771016Y6571757D01*
X7780145Y6585092D01*
X7819305Y6673668D01*
X7822786Y6686438D01*
X7824701Y6702859D01*
X7825000Y6708009D01*
X7825000Y7434306D01*
X7820624Y7446329D01*
X7814266Y7450000D01*
X6840694Y7450000D01*
X6828671Y7445624D01*
X6825000Y7439266D01*
X6825000Y6465694D01*
X6525000Y6465694D01*
X6525000Y7434306D01*
X6520624Y7446329D01*
X6514266Y7450000D01*
X5540694Y7450000D01*
X5528671Y7445624D01*
X5525000Y7439266D01*
X5525000Y6708057D01*
X4380500Y6708057D01*
X4380500Y7546947D01*
X4401322Y7604155D01*
X4406567Y7609880D01*
X4411145Y7614458D01*
X8179615Y7614458D01*
X8196526Y7413075D01*
X8252229Y7218812D01*
X8344605Y7039069D01*
X8347311Y7035655D01*
X8467429Y6884104D01*
X8470134Y6880691D01*
X8514845Y6842639D01*
X8620720Y6752531D01*
X8620723Y6752529D01*
X8624034Y6749711D01*
X8698565Y6708057D01*
X8773324Y6666276D01*
X8800444Y6651119D01*
X8804581Y6649775D01*
X8804583Y6649774D01*
X8988499Y6590017D01*
X8992645Y6588670D01*
X9193314Y6564741D01*
X9197643Y6565074D01*
X9197647Y6565074D01*
X9390474Y6579911D01*
X9390478Y6579912D01*
X9394810Y6580245D01*
X9398998Y6581414D01*
X9399002Y6581415D01*
X9513208Y6613303D01*
X9589457Y6634592D01*
X9593340Y6636554D01*
X9593344Y6636555D01*
X9724603Y6702859D01*
X9769841Y6725710D01*
X9929091Y6850130D01*
X9953037Y6877871D01*
X10058300Y6999820D01*
X10061142Y7003112D01*
X10081569Y7039069D01*
X10158816Y7175049D01*
X10160964Y7178830D01*
X10172978Y7214943D01*
X10223379Y7366457D01*
X10224754Y7370590D01*
X10250082Y7571088D01*
X10250124Y7574045D01*
X10250451Y7597508D01*
X10250486Y7600000D01*
X10230765Y7801127D01*
X10172354Y7994593D01*
X10170310Y7998437D01*
X10170308Y7998442D01*
X10104415Y8122368D01*
X10077478Y8173029D01*
X10074724Y8176406D01*
X9952503Y8326265D01*
X9952502Y8326266D01*
X9949751Y8329639D01*
X9794036Y8458457D01*
X9779239Y8466458D01*
X9620101Y8552503D01*
X9616267Y8554576D01*
X9423213Y8614336D01*
X9418884Y8614791D01*
X9418879Y8614792D01*
X9226562Y8635006D01*
X9226558Y8635006D01*
X9222229Y8635461D01*
X9020969Y8617145D01*
X9011425Y8614336D01*
X8831277Y8561316D01*
X8831271Y8561314D01*
X8827100Y8560086D01*
X8823240Y8558068D01*
X8651867Y8468477D01*
X8651863Y8468474D01*
X8648006Y8466458D01*
X8490508Y8339826D01*
X8360607Y8185015D01*
X8358508Y8181197D01*
X8303173Y8080543D01*
X8263248Y8007921D01*
X8261933Y8003775D01*
X8261932Y8003773D01*
X8203456Y7819434D01*
X8203455Y7819429D01*
X8202142Y7815290D01*
X8201657Y7810970D01*
X8201657Y7810968D01*
X8189860Y7705795D01*
X8179615Y7614458D01*
X4411145Y7614458D01*
X5374876Y8578189D01*
X5430052Y8603917D01*
X5488857Y8588161D01*
X5523776Y8538291D01*
X5526210Y8504946D01*
X5525299Y8497134D01*
X5525000Y8491991D01*
X5525000Y7765694D01*
X5529376Y7753671D01*
X5535734Y7750000D01*
X6509306Y7750000D01*
X6521329Y7754376D01*
X6525000Y7760734D01*
X6525000Y7765694D01*
X6825000Y7765694D01*
X6829376Y7753671D01*
X6835734Y7750000D01*
X7809306Y7750000D01*
X7821329Y7754376D01*
X7825000Y7760734D01*
X7825000Y8491943D01*
X7824689Y8497184D01*
X7822677Y8514096D01*
X7819176Y8526834D01*
X7779856Y8615358D01*
X7770707Y8628669D01*
X7703243Y8696016D01*
X7689908Y8705145D01*
X7601332Y8744305D01*
X7588562Y8747786D01*
X7572141Y8749701D01*
X7566991Y8750000D01*
X6840694Y8750000D01*
X6828671Y8745624D01*
X6825000Y8739266D01*
X6825000Y7765694D01*
X6525000Y7765694D01*
X6525000Y8734306D01*
X6520624Y8746329D01*
X6514266Y8750000D01*
X5783057Y8750000D01*
X5777819Y8749690D01*
X5770233Y8748787D01*
X5710965Y8762704D01*
X5674509Y8811461D01*
X5677923Y8872245D01*
X5696784Y8900097D01*
X11062924Y14266237D01*
X11065985Y14268879D01*
X11070138Y14270909D01*
X11101569Y14304792D01*
X11103884Y14307197D01*
X11116792Y14320105D01*
X11119109Y14323483D01*
X11119284Y14323694D01*
X11122492Y14327347D01*
X11135611Y14341489D01*
X11135613Y14341492D01*
X11141203Y14347518D01*
X11145323Y14357845D01*
X11154597Y14375215D01*
X11156242Y14377614D01*
X11160890Y14384389D01*
X11166689Y14408824D01*
X11170619Y14421250D01*
X11179924Y14444573D01*
X11180500Y14450447D01*
X11180500Y14456607D01*
X11182905Y14477157D01*
X11183120Y14478064D01*
X11185018Y14486061D01*
X11181313Y14513285D01*
X11180500Y14525287D01*
X11180500Y17146947D01*
X11201322Y17204155D01*
X11206567Y17209880D01*
X12665284Y18668597D01*
X12720460Y18694325D01*
X12779265Y18678569D01*
G37*
%TD.AperFunction*%
%TA.AperFunction,Conductor*%
G36*
X16114000Y6685023D02*
G01*
X16132433Y6670880D01*
X18401274Y4402039D01*
X18427002Y4346863D01*
X18424467Y4316674D01*
X18376045Y4130776D01*
X18375809Y4126278D01*
X18375809Y4126276D01*
X18371362Y4041415D01*
X18365620Y3931856D01*
X18366295Y3927393D01*
X18366295Y3927392D01*
X18394732Y3739358D01*
X18395406Y3734902D01*
X18422260Y3661914D01*
X18452229Y3580462D01*
X18464187Y3547960D01*
X18569153Y3378667D01*
X18706017Y3233938D01*
X18869186Y3119686D01*
X19051997Y3040576D01*
X19056409Y3039654D01*
X19056413Y3039653D01*
X19166739Y3016605D01*
X19246981Y2999842D01*
X19253507Y2999500D01*
X20730500Y2999500D01*
X20787708Y2978678D01*
X20818148Y2925955D01*
X20819500Y2910500D01*
X20819500Y2629000D01*
X20798678Y2571792D01*
X20745955Y2541352D01*
X20730500Y2540000D01*
X19565694Y2540000D01*
X19553671Y2535624D01*
X19550000Y2529266D01*
X19550000Y1605694D01*
X19554376Y1593671D01*
X19560734Y1590000D01*
X20730500Y1590000D01*
X20787708Y1569178D01*
X20818148Y1516455D01*
X20819500Y1501000D01*
X20819500Y1379000D01*
X20798678Y1321792D01*
X20745955Y1291352D01*
X20730500Y1290000D01*
X18271450Y1290000D01*
X18259427Y1285624D01*
X18256868Y1281192D01*
X18257010Y1280196D01*
X18304207Y1084359D01*
X18306949Y1076395D01*
X18390323Y893025D01*
X18394528Y885713D01*
X18511066Y721424D01*
X18516577Y715038D01*
X18662085Y575745D01*
X18668696Y570524D01*
X18837914Y461261D01*
X18845413Y457374D01*
X19032234Y382083D01*
X19040316Y379689D01*
X19157268Y356850D01*
X19209425Y325449D01*
X19229195Y267869D01*
X19207328Y211052D01*
X19154056Y181584D01*
X19140210Y180500D01*
X14099499Y180500D01*
X14042291Y201322D01*
X14011851Y254045D01*
X14010499Y269500D01*
X14010499Y1440874D01*
X15995541Y1440874D01*
X16025935Y1239903D01*
X16096119Y1049148D01*
X16203226Y876401D01*
X16342881Y728720D01*
X16509379Y612137D01*
X16695919Y531414D01*
X16700331Y530492D01*
X16700335Y530491D01*
X16807091Y508189D01*
X16894880Y489849D01*
X16901539Y489500D01*
X17050800Y489500D01*
X17140136Y498574D01*
X17197729Y504424D01*
X17197731Y504424D01*
X17202216Y504880D01*
X17299194Y535271D01*
X17391868Y564313D01*
X17391870Y564314D01*
X17396172Y565662D01*
X17573944Y664203D01*
X17728271Y796477D01*
X17852848Y957081D01*
X17942587Y1139455D01*
X17993822Y1336148D01*
X17999310Y1440874D01*
X18004223Y1534619D01*
X18004223Y1534621D01*
X18004459Y1539126D01*
X17994416Y1605531D01*
X18262489Y1605531D01*
X18265094Y1593006D01*
X18268907Y1590000D01*
X19234306Y1590000D01*
X19246329Y1594376D01*
X19250000Y1600734D01*
X19250000Y2519769D01*
X19245624Y2531792D01*
X19240788Y2534584D01*
X19145261Y2525470D01*
X19136989Y2523877D01*
X18943699Y2467173D01*
X18935875Y2464043D01*
X18756794Y2371811D01*
X18749701Y2367256D01*
X18591305Y2242834D01*
X18585189Y2237010D01*
X18453175Y2084878D01*
X18448277Y2078010D01*
X18347415Y1903665D01*
X18343899Y1895987D01*
X18277824Y1705710D01*
X18275826Y1697513D01*
X18262489Y1605531D01*
X17994416Y1605531D01*
X17974065Y1740097D01*
X17972134Y1745347D01*
X17935620Y1844587D01*
X17903881Y1930852D01*
X17796774Y2103599D01*
X17657119Y2251280D01*
X17490621Y2367863D01*
X17304081Y2448586D01*
X17299669Y2449508D01*
X17299665Y2449509D01*
X17183527Y2473771D01*
X17105120Y2490151D01*
X17098461Y2490500D01*
X16949200Y2490500D01*
X16859864Y2481426D01*
X16802271Y2475576D01*
X16802269Y2475576D01*
X16797784Y2475120D01*
X16716059Y2449509D01*
X16608132Y2415687D01*
X16608130Y2415686D01*
X16603828Y2414338D01*
X16426056Y2315797D01*
X16271729Y2183523D01*
X16147152Y2022919D01*
X16057413Y1840545D01*
X16056278Y1836188D01*
X16056277Y1836185D01*
X16020159Y1697526D01*
X16006178Y1643852D01*
X16005942Y1639354D01*
X16005942Y1639352D01*
X16000454Y1534619D01*
X15995541Y1440874D01*
X14010499Y1440874D01*
X14010499Y1453495D01*
X14010500Y1453507D01*
X14010500Y1699785D01*
X13995427Y1848174D01*
X13935860Y2038252D01*
X13937601Y2038798D01*
X13934578Y2092954D01*
X13956844Y2130157D01*
X15862924Y4036237D01*
X15865985Y4038879D01*
X15870138Y4040909D01*
X15901569Y4074792D01*
X15903884Y4077197D01*
X15916792Y4090105D01*
X15919109Y4093483D01*
X15919284Y4093694D01*
X15922492Y4097347D01*
X15935611Y4111489D01*
X15935613Y4111492D01*
X15941203Y4117518D01*
X15945323Y4127845D01*
X15954597Y4145215D01*
X15955170Y4146050D01*
X15960890Y4154389D01*
X15966689Y4178824D01*
X15970619Y4191250D01*
X15971071Y4192382D01*
X15979924Y4214573D01*
X15980500Y4220447D01*
X15980500Y4226607D01*
X15982905Y4247157D01*
X15983120Y4248064D01*
X15985018Y4256061D01*
X15981313Y4283285D01*
X15980500Y4295287D01*
X15980500Y6607947D01*
X16001322Y6665155D01*
X16054045Y6695595D01*
X16114000Y6685023D01*
G37*
%TD.AperFunction*%
%TA.AperFunction,Conductor*%
G36*
X3806587Y7915891D02*
G01*
X3841506Y7866021D01*
X3837611Y7815969D01*
X3839110Y7815613D01*
X3839109Y7815611D01*
X3833310Y7791171D01*
X3829380Y7778748D01*
X3822404Y7761264D01*
X3822403Y7761259D01*
X3820076Y7755427D01*
X3819500Y7749553D01*
X3819500Y7743392D01*
X3817095Y7722844D01*
X3814982Y7713939D01*
X3816090Y7705797D01*
X3816090Y7705795D01*
X3818687Y7686715D01*
X3819500Y7674713D01*
X3819500Y5453053D01*
X3798678Y5395845D01*
X3793433Y5390120D01*
X2709405Y4306092D01*
X2654229Y4280364D01*
X2595424Y4296120D01*
X2562946Y4338294D01*
X2560809Y4344104D01*
X2535813Y4412040D01*
X2430847Y4581333D01*
X2293983Y4726062D01*
X2130814Y4840314D01*
X1948003Y4919424D01*
X1943591Y4920346D01*
X1943587Y4920347D01*
X1821350Y4945883D01*
X1753019Y4960158D01*
X1746493Y4960500D01*
X269500Y4960500D01*
X212292Y4981322D01*
X181852Y5034045D01*
X180500Y5049500D01*
X180500Y5450501D01*
X201322Y5507709D01*
X254045Y5538149D01*
X269500Y5539501D01*
X1453495Y5539501D01*
X1453507Y5539500D01*
X1699785Y5539500D01*
X1788707Y5548532D01*
X1843687Y5554117D01*
X1843689Y5554117D01*
X1848174Y5554573D01*
X1960797Y5589867D01*
X2033948Y5612791D01*
X2033950Y5612792D01*
X2038252Y5614140D01*
X2212471Y5710711D01*
X2363713Y5840341D01*
X2485800Y5997734D01*
X2573745Y6176462D01*
X2623955Y6369224D01*
X2628205Y6450311D01*
X2634144Y6563637D01*
X2634144Y6563639D01*
X2634380Y6568144D01*
X2632601Y6579911D01*
X2604594Y6765098D01*
X2606830Y6765436D01*
X2611990Y6818149D01*
X2629326Y6842639D01*
X3692606Y7905919D01*
X3747782Y7931647D01*
X3806587Y7915891D01*
G37*
%TD.AperFunction*%
%TA.AperFunction,Conductor*%
G36*
X16614000Y8685023D02*
G01*
X16632433Y8670880D01*
X18393008Y6910305D01*
X18418736Y6855129D01*
X18416201Y6824940D01*
X18376045Y6670776D01*
X18375809Y6666278D01*
X18375809Y6666276D01*
X18367304Y6503984D01*
X18365620Y6471856D01*
X18366295Y6467393D01*
X18366295Y6467392D01*
X18368878Y6450311D01*
X18395406Y6274902D01*
X18396962Y6270674D01*
X18461595Y6095006D01*
X18464187Y6087960D01*
X18569153Y5918667D01*
X18706017Y5773938D01*
X18869186Y5659686D01*
X19051997Y5580576D01*
X19056409Y5579654D01*
X19056413Y5579653D01*
X19166739Y5556605D01*
X19246981Y5539842D01*
X19253507Y5539500D01*
X20730500Y5539500D01*
X20787708Y5518678D01*
X20818148Y5465955D01*
X20819500Y5450500D01*
X20819500Y5049499D01*
X20798678Y4992291D01*
X20745955Y4961851D01*
X20730500Y4960499D01*
X19546505Y4960499D01*
X19546493Y4960500D01*
X19300215Y4960500D01*
X19211293Y4951468D01*
X19156313Y4945883D01*
X19156311Y4945883D01*
X19151826Y4945427D01*
X19071796Y4920347D01*
X18966052Y4887209D01*
X18966050Y4887208D01*
X18961748Y4885860D01*
X18957803Y4883673D01*
X18858970Y4828890D01*
X18798839Y4819366D01*
X18752889Y4843798D01*
X16506567Y7090120D01*
X16480839Y7145296D01*
X16480500Y7153053D01*
X16480500Y8607947D01*
X16501322Y8665155D01*
X16554045Y8695595D01*
X16614000Y8685023D01*
G37*
%TD.AperFunction*%
%TA.AperFunction,Conductor*%
G36*
X15397054Y7225115D02*
G01*
X15419500Y7166026D01*
X15419500Y5497196D01*
X15398678Y5439988D01*
X15345955Y5409548D01*
X15286000Y5420120D01*
X15251918Y5455413D01*
X15243239Y5471736D01*
X15157478Y5633029D01*
X15154724Y5636406D01*
X15032503Y5786265D01*
X15032502Y5786266D01*
X15029751Y5789639D01*
X14874036Y5918457D01*
X14859239Y5926458D01*
X14700101Y6012503D01*
X14696267Y6014576D01*
X14503213Y6074336D01*
X14498884Y6074791D01*
X14498879Y6074792D01*
X14306562Y6095006D01*
X14306558Y6095006D01*
X14302229Y6095461D01*
X14100969Y6077145D01*
X14091425Y6074336D01*
X13911277Y6021316D01*
X13911271Y6021314D01*
X13907100Y6020086D01*
X13903240Y6018068D01*
X13731867Y5928477D01*
X13731863Y5928474D01*
X13728006Y5926458D01*
X13570508Y5799826D01*
X13567712Y5796494D01*
X13567706Y5796488D01*
X13537678Y5760701D01*
X13484955Y5730260D01*
X13425001Y5740831D01*
X13385868Y5787467D01*
X13380500Y5817908D01*
X13380500Y6839142D01*
X13401322Y6896350D01*
X13454045Y6926790D01*
X13514000Y6916218D01*
X13539248Y6894425D01*
X13546036Y6885862D01*
X13550134Y6880691D01*
X13594845Y6842639D01*
X13700720Y6752531D01*
X13700723Y6752529D01*
X13704034Y6749711D01*
X13778565Y6708057D01*
X13853324Y6666276D01*
X13880444Y6651119D01*
X13884581Y6649775D01*
X13884583Y6649774D01*
X14068499Y6590017D01*
X14072645Y6588670D01*
X14273314Y6564741D01*
X14277643Y6565074D01*
X14277647Y6565074D01*
X14470474Y6579911D01*
X14470478Y6579912D01*
X14474810Y6580245D01*
X14478998Y6581414D01*
X14479002Y6581415D01*
X14593208Y6613303D01*
X14669457Y6634592D01*
X14673340Y6636554D01*
X14673344Y6636555D01*
X14804603Y6702859D01*
X14849841Y6725710D01*
X15009091Y6850130D01*
X15033037Y6877871D01*
X15138300Y6999820D01*
X15141142Y7003112D01*
X15161569Y7039069D01*
X15238816Y7175049D01*
X15240964Y7178830D01*
X15246050Y7194119D01*
X15283865Y7241830D01*
X15343502Y7254071D01*
X15397054Y7225115D01*
G37*
%TD.AperFunction*%
%TA.AperFunction,Conductor*%
G36*
X3616265Y8782568D02*
G01*
X3655846Y8736312D01*
X3656435Y8675435D01*
X3635445Y8642132D01*
X2326435Y7333122D01*
X2271259Y7307394D01*
X2212454Y7323150D01*
X2134503Y7377731D01*
X2130814Y7380314D01*
X1948003Y7459424D01*
X1943591Y7460346D01*
X1943587Y7460347D01*
X1821350Y7485883D01*
X1753019Y7500158D01*
X1746493Y7500500D01*
X269500Y7500500D01*
X212292Y7521322D01*
X181852Y7574045D01*
X180500Y7589500D01*
X180500Y7990501D01*
X201322Y8047709D01*
X254045Y8078149D01*
X269500Y8079501D01*
X1453495Y8079501D01*
X1453507Y8079500D01*
X1699785Y8079500D01*
X1788707Y8088532D01*
X1843687Y8094117D01*
X1843689Y8094117D01*
X1848174Y8094573D01*
X1960797Y8129867D01*
X2033948Y8152791D01*
X2033950Y8152792D01*
X2038252Y8154140D01*
X2212471Y8250711D01*
X2363713Y8380341D01*
X2485800Y8537734D01*
X2573745Y8716462D01*
X2574881Y8720822D01*
X2575141Y8721522D01*
X2614598Y8767885D01*
X2658559Y8779500D01*
X3409903Y8779500D01*
X3413941Y8779203D01*
X3418314Y8777702D01*
X3426522Y8778010D01*
X3426524Y8778010D01*
X3464519Y8779437D01*
X3467859Y8779500D01*
X3486090Y8779500D01*
X3490131Y8780253D01*
X3490392Y8780277D01*
X3495240Y8780591D01*
X3522735Y8781623D01*
X3532959Y8786015D01*
X3551783Y8791734D01*
X3556211Y8792559D01*
X3616265Y8782568D01*
G37*
%TD.AperFunction*%
%TA.AperFunction,Conductor*%
G36*
X13514000Y10285023D02*
G01*
X13532433Y10270880D01*
X15393433Y8409880D01*
X15419161Y8354704D01*
X15419500Y8346947D01*
X15419500Y8037196D01*
X15398678Y7979988D01*
X15345955Y7949548D01*
X15286000Y7960120D01*
X15251918Y7995413D01*
X15243239Y8011736D01*
X15157478Y8173029D01*
X15154724Y8176406D01*
X15032503Y8326265D01*
X15032502Y8326266D01*
X15029751Y8329639D01*
X14874036Y8458457D01*
X14859239Y8466458D01*
X14700101Y8552503D01*
X14696267Y8554576D01*
X14503213Y8614336D01*
X14498884Y8614791D01*
X14498879Y8614792D01*
X14306562Y8635006D01*
X14306558Y8635006D01*
X14302229Y8635461D01*
X14100969Y8617145D01*
X14091425Y8614336D01*
X13911277Y8561316D01*
X13911271Y8561314D01*
X13907100Y8560086D01*
X13903240Y8558068D01*
X13731867Y8468477D01*
X13731863Y8468474D01*
X13728006Y8466458D01*
X13570508Y8339826D01*
X13567712Y8336494D01*
X13567706Y8336488D01*
X13537678Y8300701D01*
X13484955Y8270260D01*
X13425001Y8280831D01*
X13385868Y8327467D01*
X13380500Y8357908D01*
X13380500Y10207947D01*
X13401322Y10265155D01*
X13454045Y10295595D01*
X13514000Y10285023D01*
G37*
%TD.AperFunction*%
%TA.AperFunction,Conductor*%
G36*
X2130157Y25913156D02*
G01*
X2893433Y25149880D01*
X2919161Y25094704D01*
X2919500Y25086947D01*
X2919500Y23461097D01*
X2919203Y23457059D01*
X2917702Y23452686D01*
X2918010Y23444478D01*
X2918010Y23444476D01*
X2919437Y23406481D01*
X2919500Y23403141D01*
X2919500Y23384910D01*
X2920253Y23380869D01*
X2920277Y23380608D01*
X2920591Y23375760D01*
X2921623Y23348265D01*
X2926014Y23338045D01*
X2931735Y23319215D01*
X2933773Y23308272D01*
X2946955Y23286887D01*
X2952955Y23275337D01*
X2962871Y23252257D01*
X2966617Y23247696D01*
X2970975Y23243338D01*
X2983803Y23227109D01*
X2988605Y23219318D01*
X2995145Y23214345D01*
X3010472Y23202690D01*
X3019534Y23194779D01*
X3396737Y22817576D01*
X3399379Y22814515D01*
X3401409Y22810362D01*
X3407433Y22804774D01*
X3435291Y22778932D01*
X3437697Y22776616D01*
X3450605Y22763708D01*
X3453991Y22761385D01*
X3454204Y22761208D01*
X3457829Y22758025D01*
X3478018Y22739297D01*
X3488352Y22735174D01*
X3505712Y22725905D01*
X3514889Y22719609D01*
X3537628Y22714213D01*
X3539325Y22713810D01*
X3551753Y22709879D01*
X3569236Y22702904D01*
X3569241Y22702903D01*
X3575073Y22700576D01*
X3580947Y22700000D01*
X3587103Y22700000D01*
X3607653Y22697595D01*
X3616561Y22695481D01*
X3624702Y22696589D01*
X3624704Y22696589D01*
X3643791Y22699187D01*
X3655793Y22700000D01*
X5637398Y22700000D01*
X5694606Y22679178D01*
X5725046Y22626455D01*
X5725302Y22597079D01*
X5714757Y22530500D01*
X5733612Y22411453D01*
X5747008Y22385163D01*
X5784732Y22311126D01*
X5788332Y22304060D01*
X5793433Y22298959D01*
X5793506Y22298803D01*
X5797404Y22293437D01*
X5796361Y22292679D01*
X5819161Y22243783D01*
X5819500Y22236026D01*
X5819500Y13750097D01*
X5819203Y13746059D01*
X5817702Y13741686D01*
X5818010Y13733478D01*
X5818010Y13733476D01*
X5819437Y13695481D01*
X5819500Y13692141D01*
X5819500Y13673910D01*
X5820253Y13669869D01*
X5820277Y13669608D01*
X5820591Y13664760D01*
X5821623Y13637265D01*
X5826014Y13627045D01*
X5831735Y13608215D01*
X5833773Y13597272D01*
X5846955Y13575887D01*
X5852955Y13564337D01*
X5862871Y13541257D01*
X5866617Y13536696D01*
X5870975Y13532338D01*
X5883803Y13516109D01*
X5888605Y13508318D01*
X5895145Y13503345D01*
X5910472Y13491690D01*
X5919534Y13483779D01*
X6296464Y13106849D01*
X6321435Y13057838D01*
X6333612Y12980953D01*
X6336794Y12974708D01*
X6345858Y12956920D01*
X6388332Y12873560D01*
X6473560Y12788332D01*
X6575132Y12736578D01*
X6616651Y12692053D01*
X6619837Y12631257D01*
X6597659Y12594346D01*
X3369880Y9366567D01*
X3314704Y9340839D01*
X3306947Y9340500D01*
X2653656Y9340500D01*
X2596448Y9361322D01*
X2570130Y9398769D01*
X2537370Y9487809D01*
X2537369Y9487811D01*
X2535813Y9492040D01*
X2430847Y9661333D01*
X2293983Y9806062D01*
X2130814Y9920314D01*
X1948003Y9999424D01*
X1943591Y10000346D01*
X1943587Y10000347D01*
X1821350Y10025883D01*
X1753019Y10040158D01*
X1746493Y10040500D01*
X269500Y10040500D01*
X212292Y10061322D01*
X181852Y10114045D01*
X180500Y10129500D01*
X180500Y10530501D01*
X201322Y10587709D01*
X254045Y10618149D01*
X269500Y10619501D01*
X1453495Y10619501D01*
X1453507Y10619500D01*
X1699785Y10619500D01*
X1788707Y10628532D01*
X1843687Y10634117D01*
X1843689Y10634117D01*
X1848174Y10634573D01*
X1960797Y10669867D01*
X2033948Y10692791D01*
X2033950Y10692792D01*
X2038252Y10694140D01*
X2212471Y10790711D01*
X2363713Y10920341D01*
X2485800Y11077734D01*
X2573745Y11256462D01*
X2593302Y11331541D01*
X2622819Y11444863D01*
X2623955Y11449224D01*
X2634380Y11648144D01*
X2604594Y11845098D01*
X2535813Y12032040D01*
X2430847Y12201333D01*
X2293983Y12346062D01*
X2130814Y12460314D01*
X1948003Y12539424D01*
X1943591Y12540346D01*
X1943587Y12540347D01*
X1823533Y12565427D01*
X1753019Y12580158D01*
X1746493Y12580500D01*
X269500Y12580500D01*
X212292Y12601322D01*
X181852Y12654045D01*
X180500Y12669500D01*
X180500Y13070501D01*
X201322Y13127709D01*
X254045Y13158149D01*
X269500Y13159501D01*
X1453495Y13159501D01*
X1453507Y13159500D01*
X1699785Y13159500D01*
X1788707Y13168532D01*
X1843687Y13174117D01*
X1843689Y13174117D01*
X1848174Y13174573D01*
X1960797Y13209867D01*
X2033948Y13232791D01*
X2033950Y13232792D01*
X2038252Y13234140D01*
X2212471Y13330711D01*
X2363713Y13460341D01*
X2381894Y13483779D01*
X2444373Y13564327D01*
X2485800Y13617734D01*
X2495411Y13637265D01*
X2543585Y13735169D01*
X2573745Y13796462D01*
X2579066Y13816887D01*
X2622819Y13984863D01*
X2623955Y13989224D01*
X2634380Y14188144D01*
X2630417Y14214352D01*
X2605268Y14380642D01*
X2605268Y14380643D01*
X2604594Y14385098D01*
X2535813Y14572040D01*
X2430847Y14741333D01*
X2293983Y14886062D01*
X2130814Y15000314D01*
X1948003Y15079424D01*
X1943591Y15080346D01*
X1943587Y15080347D01*
X1819914Y15106183D01*
X1753019Y15120158D01*
X1746493Y15120500D01*
X269500Y15120500D01*
X212292Y15141322D01*
X181852Y15194045D01*
X180500Y15209500D01*
X180500Y15610501D01*
X201322Y15667709D01*
X254045Y15698149D01*
X269500Y15699501D01*
X1453495Y15699501D01*
X1453507Y15699500D01*
X1699785Y15699500D01*
X1788707Y15708532D01*
X1843687Y15714117D01*
X1843689Y15714117D01*
X1848174Y15714573D01*
X1960797Y15749867D01*
X2033948Y15772791D01*
X2033950Y15772792D01*
X2038252Y15774140D01*
X2212471Y15870711D01*
X2322277Y15964826D01*
X2379264Y15986246D01*
X2436687Y15966024D01*
X2443129Y15960184D01*
X3393433Y15009880D01*
X3419161Y14954704D01*
X3419500Y14946947D01*
X3419500Y11394474D01*
X3398678Y11337266D01*
X3393433Y11331541D01*
X3388332Y11326440D01*
X3385152Y11320198D01*
X3385150Y11320196D01*
X3360495Y11271807D01*
X3333612Y11219047D01*
X3314757Y11100000D01*
X3333612Y10980953D01*
X3388332Y10873560D01*
X3473560Y10788332D01*
X3479802Y10785152D01*
X3479804Y10785150D01*
X3485549Y10782223D01*
X3580953Y10733612D01*
X3700000Y10714757D01*
X3819047Y10733612D01*
X3914451Y10782223D01*
X3920196Y10785150D01*
X3920198Y10785152D01*
X3926440Y10788332D01*
X4011668Y10873560D01*
X4066388Y10980953D01*
X4085243Y11100000D01*
X4066388Y11219047D01*
X4039505Y11271807D01*
X4014850Y11320196D01*
X4014848Y11320198D01*
X4011668Y11326440D01*
X4006567Y11331541D01*
X4006494Y11331697D01*
X4002596Y11337063D01*
X4003639Y11337821D01*
X3980839Y11386717D01*
X3980500Y11394474D01*
X3980500Y12568953D01*
X4001322Y12626161D01*
X4054045Y12656601D01*
X4114000Y12646029D01*
X4119312Y12642580D01*
X4123560Y12638332D01*
X4129802Y12635152D01*
X4129804Y12635150D01*
X4174668Y12612291D01*
X4230953Y12583612D01*
X4350000Y12564757D01*
X4469047Y12583612D01*
X4525332Y12612291D01*
X4570196Y12635150D01*
X4570198Y12635152D01*
X4576440Y12638332D01*
X4661668Y12723560D01*
X4716388Y12830953D01*
X4735243Y12950000D01*
X4716388Y13069047D01*
X4670988Y13158149D01*
X4664850Y13170196D01*
X4664848Y13170198D01*
X4661668Y13176440D01*
X4656567Y13181541D01*
X4656494Y13181697D01*
X4652596Y13187063D01*
X4653639Y13187821D01*
X4630839Y13236717D01*
X4630500Y13244474D01*
X4630500Y17149908D01*
X4630796Y17153942D01*
X4632297Y17158314D01*
X4630563Y17204505D01*
X4630500Y17207844D01*
X4630500Y17226090D01*
X4629749Y17230124D01*
X4629722Y17230414D01*
X4629408Y17235261D01*
X4628685Y17254522D01*
X4628377Y17262736D01*
X4623987Y17272954D01*
X4618265Y17291789D01*
X4617733Y17294645D01*
X4617732Y17294649D01*
X4616227Y17302728D01*
X4611916Y17309722D01*
X4611914Y17309727D01*
X4603049Y17324108D01*
X4597040Y17335675D01*
X4589611Y17352966D01*
X4587129Y17358744D01*
X4583382Y17363304D01*
X4579028Y17367658D01*
X4566198Y17383890D01*
X4565707Y17384687D01*
X4565706Y17384688D01*
X4561395Y17391682D01*
X4554854Y17396656D01*
X4554853Y17396657D01*
X4539520Y17408316D01*
X4530458Y17416228D01*
X2647201Y19299486D01*
X2622135Y19349110D01*
X2618859Y19370776D01*
X2604594Y19465098D01*
X2535813Y19652040D01*
X2430847Y19821333D01*
X2293983Y19966062D01*
X2130814Y20080314D01*
X1948003Y20159424D01*
X1943591Y20160346D01*
X1943587Y20160347D01*
X1821350Y20185883D01*
X1753019Y20200158D01*
X1746493Y20200500D01*
X269500Y20200500D01*
X212292Y20221322D01*
X181852Y20274045D01*
X180500Y20289500D01*
X180500Y20690501D01*
X201322Y20747709D01*
X254045Y20778149D01*
X269500Y20779501D01*
X1453495Y20779501D01*
X1453507Y20779500D01*
X1699785Y20779500D01*
X1788707Y20788532D01*
X1843687Y20794117D01*
X1843689Y20794117D01*
X1848174Y20794573D01*
X1960797Y20829867D01*
X2033948Y20852791D01*
X2033950Y20852792D01*
X2038252Y20854140D01*
X2212471Y20950711D01*
X2363713Y21080341D01*
X2369912Y21088332D01*
X2483040Y21234176D01*
X2485800Y21237734D01*
X2573745Y21416462D01*
X2580440Y21442162D01*
X2617423Y21584147D01*
X2623955Y21609224D01*
X2627939Y21685243D01*
X2634144Y21803637D01*
X2634144Y21803639D01*
X2634380Y21808144D01*
X2630099Y21836455D01*
X2605268Y22000642D01*
X2605268Y22000643D01*
X2604594Y22005098D01*
X2535813Y22192040D01*
X2430847Y22361333D01*
X2293983Y22506062D01*
X2130814Y22620314D01*
X1948003Y22699424D01*
X1943591Y22700346D01*
X1943587Y22700347D01*
X1821259Y22725902D01*
X1753019Y22740158D01*
X1746493Y22740500D01*
X269500Y22740500D01*
X212292Y22761322D01*
X181852Y22814045D01*
X180500Y22829500D01*
X180500Y23230501D01*
X201322Y23287709D01*
X254045Y23318149D01*
X269500Y23319501D01*
X1453495Y23319501D01*
X1453507Y23319500D01*
X1699785Y23319500D01*
X1792788Y23328947D01*
X1843687Y23334117D01*
X1843689Y23334117D01*
X1848174Y23334573D01*
X1992768Y23379886D01*
X2033948Y23392791D01*
X2033950Y23392792D01*
X2038252Y23394140D01*
X2197160Y23482224D01*
X2208524Y23488523D01*
X2208525Y23488524D01*
X2212471Y23490711D01*
X2363713Y23620341D01*
X2485800Y23777734D01*
X2573745Y23956462D01*
X2577323Y23970196D01*
X2622819Y24144863D01*
X2623955Y24149224D01*
X2628774Y24241168D01*
X2634144Y24343637D01*
X2634144Y24343639D01*
X2634380Y24348144D01*
X2630174Y24375959D01*
X2605268Y24540642D01*
X2605268Y24540643D01*
X2604594Y24545098D01*
X2553914Y24682844D01*
X2537370Y24727809D01*
X2537369Y24727812D01*
X2535813Y24732040D01*
X2430847Y24901333D01*
X2293983Y25046062D01*
X2130814Y25160314D01*
X1948003Y25239424D01*
X1943591Y25240346D01*
X1943587Y25240347D01*
X1821350Y25265883D01*
X1753019Y25280158D01*
X1746493Y25280500D01*
X269500Y25280500D01*
X212292Y25301322D01*
X181852Y25354045D01*
X180500Y25369500D01*
X180500Y25770501D01*
X201322Y25827709D01*
X254045Y25858149D01*
X269500Y25859501D01*
X1453495Y25859501D01*
X1453507Y25859500D01*
X1699785Y25859500D01*
X1789441Y25868607D01*
X1843687Y25874117D01*
X1843689Y25874117D01*
X1848174Y25874573D01*
X2038252Y25934140D01*
X2038798Y25932399D01*
X2092954Y25935422D01*
X2130157Y25913156D01*
G37*
%TD.AperFunction*%
%TA.AperFunction,Conductor*%
G36*
X17696190Y34158678D02*
G01*
X17726630Y34105955D01*
X17726886Y34076577D01*
X17721435Y34042161D01*
X17696464Y33993151D01*
X15000076Y31296763D01*
X14997015Y31294121D01*
X14992862Y31292091D01*
X14987274Y31286067D01*
X14961432Y31258209D01*
X14959116Y31255803D01*
X14946208Y31242895D01*
X14943885Y31239509D01*
X14943708Y31239296D01*
X14940525Y31235671D01*
X14921797Y31215482D01*
X14917674Y31205148D01*
X14908405Y31187788D01*
X14902109Y31178611D01*
X14896310Y31154171D01*
X14892380Y31141748D01*
X14885404Y31124264D01*
X14885403Y31124259D01*
X14883076Y31118427D01*
X14882500Y31112553D01*
X14882500Y31106392D01*
X14880095Y31085844D01*
X14877982Y31076939D01*
X14879090Y31068797D01*
X14879090Y31068795D01*
X14881687Y31049715D01*
X14882500Y31037713D01*
X14882500Y28780576D01*
X14861678Y28723368D01*
X14856433Y28717643D01*
X14851332Y28712542D01*
X14848152Y28706300D01*
X14848150Y28706298D01*
X14840381Y28691050D01*
X14796612Y28605149D01*
X14777757Y28486102D01*
X14796612Y28367055D01*
X14799795Y28360809D01*
X14840808Y28280317D01*
X14851332Y28259662D01*
X14936560Y28174434D01*
X14942802Y28171254D01*
X14942804Y28171252D01*
X14961683Y28161633D01*
X15043953Y28119714D01*
X15163000Y28100859D01*
X15282047Y28119714D01*
X15364317Y28161633D01*
X15383196Y28171252D01*
X15383198Y28171254D01*
X15389440Y28174434D01*
X15474668Y28259662D01*
X15485193Y28280317D01*
X15526205Y28360809D01*
X15529388Y28367055D01*
X15548243Y28486102D01*
X15529388Y28605149D01*
X15485619Y28691050D01*
X15477850Y28706298D01*
X15477848Y28706300D01*
X15474668Y28712542D01*
X15469567Y28717643D01*
X15469494Y28717799D01*
X15465596Y28723165D01*
X15466639Y28723923D01*
X15443839Y28772819D01*
X15443500Y28780576D01*
X15443500Y30909947D01*
X15464322Y30967155D01*
X15469567Y30972880D01*
X18093151Y33596464D01*
X18142162Y33621435D01*
X18219047Y33633612D01*
X18235949Y33642224D01*
X18320196Y33685150D01*
X18320198Y33685152D01*
X18326440Y33688332D01*
X18411668Y33773560D01*
X18437714Y33824678D01*
X18482239Y33866197D01*
X18543035Y33869383D01*
X18581676Y33845424D01*
X18706017Y33713938D01*
X18869186Y33599686D01*
X19051997Y33520576D01*
X19056409Y33519654D01*
X19056413Y33519653D01*
X19166739Y33496605D01*
X19246981Y33479842D01*
X19253507Y33479500D01*
X20730500Y33479500D01*
X20787708Y33458678D01*
X20818148Y33405955D01*
X20819500Y33390500D01*
X20819500Y32989499D01*
X20798678Y32932291D01*
X20745955Y32901851D01*
X20730500Y32900499D01*
X19546505Y32900499D01*
X19546493Y32900500D01*
X19300215Y32900500D01*
X19211293Y32891468D01*
X19156313Y32885883D01*
X19156311Y32885883D01*
X19151826Y32885427D01*
X19071796Y32860347D01*
X18966052Y32827209D01*
X18966050Y32827208D01*
X18961748Y32825860D01*
X18957803Y32823673D01*
X18798103Y32735150D01*
X18787529Y32729289D01*
X18636287Y32599659D01*
X18514200Y32442266D01*
X18426255Y32263538D01*
X18425120Y32259181D01*
X18425119Y32259178D01*
X18398116Y32155509D01*
X18376045Y32070776D01*
X18365620Y31871856D01*
X18366295Y31867393D01*
X18366295Y31867392D01*
X18384469Y31747223D01*
X18395406Y31674902D01*
X18464187Y31487960D01*
X18569153Y31318667D01*
X18706017Y31173938D01*
X18869186Y31059686D01*
X19051997Y30980576D01*
X19056409Y30979654D01*
X19056413Y30979653D01*
X19166739Y30956605D01*
X19246981Y30939842D01*
X19253507Y30939500D01*
X20730500Y30939500D01*
X20787708Y30918678D01*
X20818148Y30865955D01*
X20819500Y30850500D01*
X20819500Y30449499D01*
X20798678Y30392291D01*
X20745955Y30361851D01*
X20730500Y30360499D01*
X19546505Y30360499D01*
X19546493Y30360500D01*
X19300215Y30360500D01*
X19211293Y30351468D01*
X19156313Y30345883D01*
X19156311Y30345883D01*
X19151826Y30345427D01*
X19071796Y30320347D01*
X18966052Y30287209D01*
X18966050Y30287208D01*
X18961748Y30285860D01*
X18787529Y30189289D01*
X18636287Y30059659D01*
X18514200Y29902266D01*
X18426255Y29723538D01*
X18425120Y29719181D01*
X18425119Y29719178D01*
X18409040Y29657447D01*
X18376045Y29530776D01*
X18365620Y29331856D01*
X18366295Y29327393D01*
X18366295Y29327392D01*
X18383042Y29216656D01*
X18395406Y29134902D01*
X18423919Y29057406D01*
X18456738Y28968207D01*
X18464187Y28947960D01*
X18569153Y28778667D01*
X18706017Y28633938D01*
X18869186Y28519686D01*
X19051997Y28440576D01*
X19056409Y28439654D01*
X19056413Y28439653D01*
X19166739Y28416605D01*
X19246981Y28399842D01*
X19253507Y28399500D01*
X20730500Y28399500D01*
X20787708Y28378678D01*
X20818148Y28325955D01*
X20819500Y28310500D01*
X20819500Y27909499D01*
X20798678Y27852291D01*
X20745955Y27821851D01*
X20730500Y27820499D01*
X19546505Y27820499D01*
X19546493Y27820500D01*
X19300215Y27820500D01*
X19211293Y27811468D01*
X19156313Y27805883D01*
X19156311Y27805883D01*
X19151826Y27805427D01*
X19121244Y27795843D01*
X18966052Y27747209D01*
X18966050Y27747208D01*
X18961748Y27745860D01*
X18787529Y27649289D01*
X18636287Y27519659D01*
X18633528Y27516102D01*
X18633527Y27516101D01*
X18586245Y27455146D01*
X18514200Y27362266D01*
X18426255Y27183538D01*
X18425120Y27179181D01*
X18425119Y27179178D01*
X18422965Y27170909D01*
X18376045Y26990776D01*
X18365620Y26791856D01*
X18366295Y26787393D01*
X18366295Y26787392D01*
X18374207Y26735076D01*
X18395406Y26594902D01*
X18396962Y26590674D01*
X18461653Y26414848D01*
X18464187Y26407960D01*
X18569153Y26238667D01*
X18706017Y26093938D01*
X18869186Y25979686D01*
X19051997Y25900576D01*
X19056409Y25899654D01*
X19056413Y25899653D01*
X19166739Y25876605D01*
X19246981Y25859842D01*
X19253507Y25859500D01*
X20730500Y25859500D01*
X20787708Y25838678D01*
X20818148Y25785955D01*
X20819500Y25770500D01*
X20819500Y25369499D01*
X20798678Y25312291D01*
X20745955Y25281851D01*
X20730500Y25280499D01*
X19546505Y25280499D01*
X19546493Y25280500D01*
X19300215Y25280500D01*
X19211293Y25271468D01*
X19156313Y25265883D01*
X19156311Y25265883D01*
X19151826Y25265427D01*
X19071796Y25240347D01*
X18966052Y25207209D01*
X18966050Y25207208D01*
X18961748Y25205860D01*
X18787529Y25109289D01*
X18636287Y24979659D01*
X18514200Y24822266D01*
X18426255Y24643538D01*
X18425120Y24639181D01*
X18425119Y24639178D01*
X18393713Y24518607D01*
X18376045Y24450776D01*
X18375809Y24446278D01*
X18375809Y24446276D01*
X18367928Y24295888D01*
X18365620Y24251856D01*
X18366295Y24247393D01*
X18366295Y24247392D01*
X18394383Y24061668D01*
X18395406Y24054902D01*
X18464187Y23867960D01*
X18569153Y23698667D01*
X18706017Y23553938D01*
X18869186Y23439686D01*
X19051997Y23360576D01*
X19056409Y23359654D01*
X19056413Y23359653D01*
X19166739Y23336605D01*
X19246981Y23319842D01*
X19253507Y23319500D01*
X20730500Y23319500D01*
X20787708Y23298678D01*
X20818148Y23245955D01*
X20819500Y23230500D01*
X20819500Y22949000D01*
X20798678Y22891792D01*
X20745955Y22861352D01*
X20730500Y22860000D01*
X19565694Y22860000D01*
X19553671Y22855624D01*
X19550000Y22849266D01*
X19550000Y21925694D01*
X19554376Y21913671D01*
X19560734Y21910000D01*
X20730500Y21910000D01*
X20787708Y21889178D01*
X20818148Y21836455D01*
X20819500Y21821000D01*
X20819500Y21699000D01*
X20798678Y21641792D01*
X20745955Y21611352D01*
X20730500Y21610000D01*
X19565694Y21610000D01*
X19553671Y21605624D01*
X19550000Y21599266D01*
X19550000Y20675694D01*
X19554376Y20663671D01*
X19560734Y20660000D01*
X20730500Y20660000D01*
X20787708Y20639178D01*
X20818148Y20586455D01*
X20819500Y20571000D01*
X20819500Y20289499D01*
X20798678Y20232291D01*
X20745955Y20201851D01*
X20730500Y20200499D01*
X19546505Y20200499D01*
X19546493Y20200500D01*
X19300215Y20200500D01*
X19211293Y20191468D01*
X19156313Y20185883D01*
X19156311Y20185883D01*
X19151826Y20185427D01*
X18961748Y20125860D01*
X18961202Y20127601D01*
X18907046Y20124578D01*
X18869843Y20146844D01*
X18306567Y20710120D01*
X18280839Y20765296D01*
X18280500Y20773053D01*
X18280500Y21087168D01*
X18301322Y21144376D01*
X18354045Y21174816D01*
X18414000Y21164244D01*
X18442092Y21138660D01*
X18511067Y21041422D01*
X18516577Y21035038D01*
X18662085Y20895745D01*
X18668696Y20890524D01*
X18837914Y20781261D01*
X18845413Y20777374D01*
X19032234Y20702083D01*
X19040316Y20699689D01*
X19237535Y20661175D01*
X19246329Y20664376D01*
X19250000Y20670734D01*
X19250000Y21594306D01*
X19245624Y21606329D01*
X19239266Y21610000D01*
X19159000Y21610000D01*
X19101792Y21630822D01*
X19071352Y21683545D01*
X19070000Y21699000D01*
X19070000Y21821000D01*
X19090822Y21878208D01*
X19143545Y21908648D01*
X19159000Y21910000D01*
X19234306Y21910000D01*
X19246329Y21914376D01*
X19250000Y21920734D01*
X19250000Y22839769D01*
X19245624Y22851792D01*
X19240788Y22854584D01*
X19145261Y22845470D01*
X19136989Y22843877D01*
X18943699Y22787173D01*
X18935875Y22784043D01*
X18756794Y22691811D01*
X18749701Y22687256D01*
X18591305Y22562834D01*
X18585189Y22557010D01*
X18453175Y22404878D01*
X18448279Y22398014D01*
X18446538Y22395004D01*
X18399868Y22355911D01*
X18338989Y22355963D01*
X18292386Y22395136D01*
X18280500Y22439570D01*
X18280500Y23499902D01*
X18280797Y23503941D01*
X18282298Y23508314D01*
X18281590Y23527187D01*
X18280563Y23554531D01*
X18280500Y23557870D01*
X18280500Y23576090D01*
X18279750Y23580117D01*
X18279724Y23580396D01*
X18279410Y23585240D01*
X18278686Y23604519D01*
X18278378Y23612735D01*
X18273983Y23622964D01*
X18268264Y23641790D01*
X18266227Y23652728D01*
X18261914Y23659726D01*
X18253050Y23674107D01*
X18247041Y23685674D01*
X18239610Y23702970D01*
X18239608Y23702973D01*
X18237129Y23708743D01*
X18233383Y23713304D01*
X18229025Y23717662D01*
X18216197Y23733891D01*
X18211395Y23741682D01*
X18204852Y23746658D01*
X18199555Y23752499D01*
X18177583Y23798360D01*
X18174572Y23817376D01*
X18166388Y23869047D01*
X18163205Y23875293D01*
X18114850Y23970196D01*
X18114848Y23970198D01*
X18111668Y23976440D01*
X18026440Y24061668D01*
X18020198Y24064848D01*
X18020196Y24064850D01*
X17971807Y24089505D01*
X17919047Y24116388D01*
X17800000Y24135243D01*
X17680953Y24116388D01*
X17628193Y24089505D01*
X17579804Y24064850D01*
X17579802Y24064848D01*
X17573560Y24061668D01*
X17488332Y23976440D01*
X17485152Y23970198D01*
X17485150Y23970196D01*
X17464415Y23929500D01*
X17433612Y23869047D01*
X17432516Y23862125D01*
X17431316Y23854551D01*
X17401800Y23801305D01*
X17344963Y23779490D01*
X17329495Y23780572D01*
X17300000Y23785243D01*
X17180953Y23766388D01*
X17172269Y23761963D01*
X17079804Y23714850D01*
X17079802Y23714848D01*
X17073560Y23711668D01*
X16988332Y23626440D01*
X16985152Y23620198D01*
X16985150Y23620196D01*
X16974057Y23598424D01*
X16933612Y23519047D01*
X16914757Y23400000D01*
X16915853Y23393080D01*
X16918370Y23377187D01*
X16933612Y23280953D01*
X16936792Y23274712D01*
X16936793Y23274709D01*
X16939105Y23270172D01*
X16946524Y23209746D01*
X16913366Y23158689D01*
X16900213Y23150470D01*
X16824060Y23111668D01*
X16738832Y23026440D01*
X16718798Y22987121D01*
X16674275Y22945603D01*
X16613479Y22942417D01*
X16564858Y22979055D01*
X16550500Y23027528D01*
X16550500Y28209031D01*
X16564349Y28254325D01*
X16563921Y28254532D01*
X16565252Y28257279D01*
X16568111Y28263179D01*
X16615426Y28360838D01*
X16615426Y28360839D01*
X16618188Y28366539D01*
X16638837Y28489275D01*
X16638968Y28500000D01*
X16621324Y28623204D01*
X16569810Y28736503D01*
X16520262Y28794006D01*
X16492707Y28825986D01*
X16492705Y28825988D01*
X16488567Y28830790D01*
X16462969Y28847382D01*
X16389448Y28895036D01*
X16389445Y28895037D01*
X16384126Y28898485D01*
X16378053Y28900301D01*
X16378049Y28900303D01*
X16270960Y28932329D01*
X16270959Y28932329D01*
X16264884Y28934146D01*
X16258545Y28934185D01*
X16258543Y28934185D01*
X16201896Y28934531D01*
X16140425Y28934907D01*
X16134331Y28933165D01*
X16134329Y28933165D01*
X16077973Y28917058D01*
X16020756Y28900705D01*
X15915496Y28834291D01*
X15911300Y28829540D01*
X15911299Y28829539D01*
X15877328Y28791074D01*
X15833107Y28741003D01*
X15780213Y28628342D01*
X15779237Y28622076D01*
X15779237Y28622075D01*
X15763017Y28517897D01*
X15761065Y28505363D01*
X15777202Y28381953D01*
X15779754Y28376153D01*
X15779755Y28376150D01*
X15819376Y28286107D01*
X15827329Y28268032D01*
X15831407Y28263181D01*
X15831408Y28263179D01*
X15868628Y28218901D01*
X15889500Y28161633D01*
X15889500Y20775430D01*
X15881062Y20737606D01*
X15876713Y20728342D01*
X15875737Y20722073D01*
X15859282Y20616388D01*
X15857565Y20605363D01*
X15873702Y20481953D01*
X15923829Y20368032D01*
X16003914Y20272760D01*
X16009187Y20269250D01*
X16102244Y20207305D01*
X16102246Y20207304D01*
X16107519Y20203794D01*
X16113567Y20201904D01*
X16113568Y20201904D01*
X16118584Y20200337D01*
X16226317Y20166679D01*
X16274104Y20165803D01*
X16344414Y20164514D01*
X16344416Y20164514D01*
X16350757Y20164398D01*
X16407090Y20179756D01*
X16467761Y20174715D01*
X16510997Y20131854D01*
X16519500Y20093890D01*
X16519500Y13950097D01*
X16519203Y13946059D01*
X16517702Y13941686D01*
X16518010Y13933478D01*
X16518010Y13933476D01*
X16519437Y13895481D01*
X16519500Y13892141D01*
X16519500Y13873910D01*
X16520253Y13869869D01*
X16520277Y13869608D01*
X16520591Y13864760D01*
X16521623Y13837265D01*
X16526014Y13827045D01*
X16531735Y13808215D01*
X16533773Y13797272D01*
X16546955Y13775887D01*
X16552955Y13764337D01*
X16562871Y13741257D01*
X16566617Y13736696D01*
X16570975Y13732338D01*
X16583803Y13716109D01*
X16588605Y13708318D01*
X16595145Y13703345D01*
X16610472Y13691690D01*
X16619534Y13683779D01*
X18376476Y11926837D01*
X18402204Y11871661D01*
X18399669Y11841472D01*
X18376045Y11750776D01*
X18365620Y11551856D01*
X18366295Y11547393D01*
X18366295Y11547392D01*
X18394732Y11359358D01*
X18395406Y11354902D01*
X18464187Y11167960D01*
X18569153Y10998667D01*
X18706017Y10853938D01*
X18869186Y10739686D01*
X19051997Y10660576D01*
X19056409Y10659654D01*
X19056413Y10659653D01*
X19166739Y10636605D01*
X19246981Y10619842D01*
X19253507Y10619500D01*
X20730500Y10619500D01*
X20787708Y10598678D01*
X20818148Y10545955D01*
X20819500Y10530500D01*
X20819500Y10129499D01*
X20798678Y10072291D01*
X20745955Y10041851D01*
X20730500Y10040499D01*
X19546505Y10040499D01*
X19546493Y10040500D01*
X19300215Y10040500D01*
X19211293Y10031468D01*
X19156313Y10025883D01*
X19156311Y10025883D01*
X19151826Y10025427D01*
X19071796Y10000347D01*
X18966052Y9967209D01*
X18966050Y9967208D01*
X18961748Y9965860D01*
X18787529Y9869289D01*
X18636287Y9739659D01*
X18514200Y9582266D01*
X18426255Y9403538D01*
X18425119Y9399178D01*
X18424859Y9398478D01*
X18385402Y9352115D01*
X18341441Y9340500D01*
X17493053Y9340500D01*
X17435845Y9361322D01*
X17430120Y9366567D01*
X15553681Y11243006D01*
X15527953Y11298182D01*
X15527614Y11305939D01*
X15527614Y21738340D01*
X15548436Y21795548D01*
X15553681Y21801273D01*
X15558782Y21806374D01*
X15566235Y21821000D01*
X15589919Y21867484D01*
X15613502Y21913767D01*
X15632357Y22032814D01*
X15613502Y22151861D01*
X15574457Y22228491D01*
X15561964Y22253010D01*
X15561962Y22253012D01*
X15558782Y22259254D01*
X15473554Y22344482D01*
X15467312Y22347662D01*
X15467310Y22347664D01*
X15418921Y22372319D01*
X15366161Y22399202D01*
X15247114Y22418057D01*
X15128067Y22399202D01*
X15075307Y22372319D01*
X15026918Y22347664D01*
X15026916Y22347662D01*
X15020674Y22344482D01*
X14935446Y22259254D01*
X14932266Y22253012D01*
X14932264Y22253010D01*
X14919771Y22228491D01*
X14880726Y22151861D01*
X14861871Y22032814D01*
X14880726Y21913767D01*
X14904309Y21867484D01*
X14927994Y21821000D01*
X14935446Y21806374D01*
X14940547Y21801273D01*
X14940620Y21801117D01*
X14944518Y21795751D01*
X14943475Y21794993D01*
X14966275Y21746097D01*
X14966614Y21738340D01*
X14966614Y18636433D01*
X14945792Y18579225D01*
X14893069Y18548785D01*
X14837212Y18557133D01*
X14819047Y18566388D01*
X14700000Y18585243D01*
X14693080Y18584147D01*
X14693079Y18584147D01*
X14656168Y18578301D01*
X14596407Y18589917D01*
X14562947Y18625800D01*
X14514850Y18720196D01*
X14514848Y18720198D01*
X14511668Y18726440D01*
X14426440Y18811668D01*
X14420198Y18814848D01*
X14420196Y18814850D01*
X14330832Y18860383D01*
X14319047Y18866388D01*
X14200000Y18885243D01*
X14080953Y18866388D01*
X14069168Y18860383D01*
X13979804Y18814850D01*
X13979802Y18814848D01*
X13973560Y18811668D01*
X13888332Y18726440D01*
X13885152Y18720198D01*
X13885150Y18720196D01*
X13881532Y18713095D01*
X13833612Y18619047D01*
X13814757Y18500000D01*
X13833612Y18380953D01*
X13845360Y18357897D01*
X13868343Y18312791D01*
X13888332Y18273560D01*
X13893433Y18268459D01*
X13893506Y18268303D01*
X13897404Y18262937D01*
X13896361Y18262179D01*
X13919161Y18213283D01*
X13919500Y18205526D01*
X13919500Y17962682D01*
X13898678Y17905474D01*
X13845955Y17875034D01*
X13816578Y17874778D01*
X13757421Y17884147D01*
X13757420Y17884147D01*
X13750500Y17885243D01*
X13631453Y17866388D01*
X13524060Y17811668D01*
X13520774Y17808382D01*
X13463287Y17791901D01*
X13407672Y17816666D01*
X13380987Y17871386D01*
X13380500Y17880684D01*
X13380500Y18114243D01*
X13401322Y18171451D01*
X13411403Y18180851D01*
X13412149Y18181231D01*
X13497377Y18266459D01*
X13500996Y18273560D01*
X13525214Y18321092D01*
X13552097Y18373852D01*
X13570952Y18492899D01*
X13552097Y18611946D01*
X13510306Y18693965D01*
X13500559Y18713095D01*
X13500557Y18713097D01*
X13497377Y18719339D01*
X13412149Y18804567D01*
X13405907Y18807747D01*
X13405905Y18807749D01*
X13357516Y18832404D01*
X13304756Y18859287D01*
X13185709Y18878142D01*
X13086867Y18862487D01*
X13027106Y18874103D01*
X12988793Y18921415D01*
X12989855Y18982286D01*
X13010011Y19013324D01*
X13208195Y19211508D01*
X13263371Y19237236D01*
X13322176Y19221480D01*
X13350425Y19188984D01*
X13400113Y19091466D01*
X13485341Y19006238D01*
X13491583Y19003058D01*
X13491585Y19003056D01*
X13532349Y18982286D01*
X13592734Y18951518D01*
X13711781Y18932663D01*
X13830828Y18951518D01*
X13891213Y18982286D01*
X13931977Y19003056D01*
X13931979Y19003058D01*
X13938221Y19006238D01*
X14023449Y19091466D01*
X14078169Y19198859D01*
X14090346Y19275744D01*
X14115317Y19324755D01*
X14482424Y19691862D01*
X14485485Y19694504D01*
X14489638Y19696534D01*
X14521069Y19730417D01*
X14523384Y19732822D01*
X14536292Y19745730D01*
X14538615Y19749116D01*
X14538792Y19749329D01*
X14541975Y19752954D01*
X14560703Y19773143D01*
X14563748Y19780774D01*
X14563750Y19780778D01*
X14564826Y19783475D01*
X14574097Y19800837D01*
X14575739Y19803231D01*
X14575741Y19803237D01*
X14580390Y19810013D01*
X14586187Y19834443D01*
X14590118Y19846870D01*
X14597096Y19864361D01*
X14597097Y19864366D01*
X14599424Y19870198D01*
X14600000Y19876072D01*
X14600000Y19882231D01*
X14602405Y19902781D01*
X14602620Y19903688D01*
X14604518Y19911685D01*
X14603208Y19921315D01*
X14600813Y19938909D01*
X14600000Y19950911D01*
X14600000Y28794006D01*
X14600297Y28798044D01*
X14601798Y28802417D01*
X14600063Y28848622D01*
X14600000Y28851962D01*
X14600000Y28870193D01*
X14599247Y28874234D01*
X14599223Y28874495D01*
X14598909Y28879345D01*
X14598320Y28895036D01*
X14597877Y28906838D01*
X14593485Y28917062D01*
X14587765Y28935889D01*
X14587231Y28938755D01*
X14585727Y28946831D01*
X14572545Y28968216D01*
X14566545Y28979766D01*
X14556629Y29002846D01*
X14552883Y29007407D01*
X14548525Y29011765D01*
X14535697Y29027994D01*
X14530895Y29035785D01*
X14509028Y29052413D01*
X14499966Y29060324D01*
X14406567Y29153723D01*
X14380839Y29208899D01*
X14380500Y29216656D01*
X14380500Y31266947D01*
X14401322Y31324155D01*
X14406567Y31329880D01*
X17230120Y34153433D01*
X17285296Y34179161D01*
X17293053Y34179500D01*
X17638982Y34179500D01*
X17696190Y34158678D01*
G37*
%TD.AperFunction*%
%TA.AperFunction,Conductor*%
G36*
X13304155Y44498678D02*
G01*
X13309880Y44493433D01*
X16093433Y41709880D01*
X16119161Y41654704D01*
X16119500Y41646947D01*
X16119500Y35250097D01*
X16119203Y35246059D01*
X16117702Y35241686D01*
X16118010Y35233478D01*
X16118010Y35233476D01*
X16119437Y35195481D01*
X16119500Y35192141D01*
X16119500Y35173910D01*
X16120253Y35169869D01*
X16120277Y35169608D01*
X16120591Y35164760D01*
X16121623Y35137265D01*
X16126014Y35127045D01*
X16131735Y35108215D01*
X16133773Y35097272D01*
X16146955Y35075887D01*
X16152955Y35064337D01*
X16162871Y35041257D01*
X16166617Y35036696D01*
X16170975Y35032338D01*
X16183803Y35016109D01*
X16188605Y35008318D01*
X16195145Y35003345D01*
X16210472Y34991690D01*
X16219534Y34983779D01*
X16680380Y34522933D01*
X16706108Y34467757D01*
X16690352Y34408952D01*
X16680380Y34397067D01*
X13937076Y31653763D01*
X13934015Y31651121D01*
X13929862Y31649091D01*
X13914728Y31632776D01*
X13898432Y31615209D01*
X13896116Y31612803D01*
X13883208Y31599895D01*
X13880885Y31596509D01*
X13880708Y31596296D01*
X13877525Y31592671D01*
X13858797Y31572482D01*
X13854674Y31562148D01*
X13845405Y31544788D01*
X13839109Y31535611D01*
X13833310Y31511171D01*
X13829380Y31498748D01*
X13822404Y31481264D01*
X13822403Y31481259D01*
X13820076Y31475427D01*
X13819500Y31469553D01*
X13819500Y31463392D01*
X13817095Y31442844D01*
X13814982Y31433939D01*
X13816090Y31425797D01*
X13816090Y31425795D01*
X13818687Y31406715D01*
X13819500Y31394713D01*
X13819500Y29113700D01*
X13819203Y29109662D01*
X13817702Y29105289D01*
X13818010Y29097081D01*
X13818010Y29097079D01*
X13819437Y29059084D01*
X13819500Y29055744D01*
X13819500Y29037513D01*
X13820253Y29033472D01*
X13820277Y29033211D01*
X13820591Y29028363D01*
X13821623Y29000868D01*
X13826014Y28990648D01*
X13831735Y28971818D01*
X13833773Y28960875D01*
X13846955Y28939490D01*
X13852955Y28927940D01*
X13862871Y28904860D01*
X13866617Y28900299D01*
X13870975Y28895941D01*
X13883803Y28879712D01*
X13888605Y28871921D01*
X13895145Y28866948D01*
X13910472Y28855293D01*
X13919534Y28847382D01*
X14012933Y28753983D01*
X14038661Y28698807D01*
X14039000Y28691050D01*
X14039000Y20712602D01*
X14018178Y20655394D01*
X13965455Y20624954D01*
X13936079Y20624698D01*
X13869500Y20635243D01*
X13750453Y20616388D01*
X13655681Y20568099D01*
X13595257Y20560679D01*
X13544199Y20593836D01*
X13526399Y20652055D01*
X13538967Y20691555D01*
X13541203Y20693965D01*
X13545326Y20704299D01*
X13554595Y20721659D01*
X13560891Y20730836D01*
X13566690Y20755272D01*
X13570621Y20767700D01*
X13577596Y20785183D01*
X13577597Y20785188D01*
X13579924Y20791020D01*
X13580500Y20796894D01*
X13580500Y20803050D01*
X13582905Y20823600D01*
X13583121Y20824512D01*
X13585019Y20832508D01*
X13581313Y20859739D01*
X13580500Y20871741D01*
X13580500Y21205526D01*
X13601322Y21262734D01*
X13606567Y21268459D01*
X13611668Y21273560D01*
X13618963Y21287876D01*
X13663205Y21374707D01*
X13666388Y21380953D01*
X13685243Y21500000D01*
X13666388Y21619047D01*
X13624853Y21700564D01*
X13614850Y21720196D01*
X13614848Y21720198D01*
X13611668Y21726440D01*
X13526440Y21811668D01*
X13520198Y21814848D01*
X13520196Y21814850D01*
X13471807Y21839505D01*
X13419047Y21866388D01*
X13300000Y21885243D01*
X13180953Y21866388D01*
X13128193Y21839505D01*
X13079804Y21814850D01*
X13079802Y21814848D01*
X13073560Y21811668D01*
X12988332Y21726440D01*
X12985152Y21720198D01*
X12985150Y21720196D01*
X12936792Y21625289D01*
X12933612Y21619047D01*
X12933547Y21618634D01*
X12897918Y21573034D01*
X12838369Y21560379D01*
X12824605Y21563556D01*
X12819047Y21566388D01*
X12700000Y21585243D01*
X12580953Y21566388D01*
X12528193Y21539505D01*
X12479804Y21514850D01*
X12479802Y21514848D01*
X12473560Y21511668D01*
X12388332Y21426440D01*
X12385152Y21420198D01*
X12385150Y21420196D01*
X12381188Y21412420D01*
X12333612Y21319047D01*
X12326408Y21273560D01*
X12321435Y21242162D01*
X12296464Y21193151D01*
X9837076Y18733763D01*
X9834015Y18731121D01*
X9829862Y18729091D01*
X9824274Y18723067D01*
X9798432Y18695209D01*
X9796116Y18692803D01*
X9783208Y18679895D01*
X9780885Y18676509D01*
X9780708Y18676296D01*
X9777525Y18672671D01*
X9758797Y18652482D01*
X9754674Y18642148D01*
X9745405Y18624788D01*
X9739109Y18615611D01*
X9733310Y18591171D01*
X9729380Y18578748D01*
X9722404Y18561264D01*
X9722403Y18561259D01*
X9720076Y18555427D01*
X9719500Y18549553D01*
X9719500Y18543392D01*
X9717095Y18522844D01*
X9714982Y18513939D01*
X9716090Y18505797D01*
X9716090Y18505795D01*
X9718687Y18486715D01*
X9719500Y18474713D01*
X9719500Y15753053D01*
X9698678Y15695845D01*
X9693433Y15690120D01*
X7603633Y13600320D01*
X7548457Y13574592D01*
X7489652Y13590348D01*
X7461403Y13622844D01*
X7432219Y13680121D01*
X7346991Y13765349D01*
X7340749Y13768529D01*
X7340747Y13768531D01*
X7245843Y13816887D01*
X7239598Y13820069D01*
X7162710Y13832246D01*
X7113700Y13857218D01*
X6756567Y14214352D01*
X6730839Y14269527D01*
X6730500Y14277284D01*
X6730500Y16150000D01*
X7114757Y16150000D01*
X7133612Y16030953D01*
X7188332Y15923560D01*
X7273560Y15838332D01*
X7279802Y15835152D01*
X7279804Y15835150D01*
X7328193Y15810495D01*
X7380953Y15783612D01*
X7500000Y15764757D01*
X7619047Y15783612D01*
X7671807Y15810495D01*
X7720196Y15835150D01*
X7720198Y15835152D01*
X7726440Y15838332D01*
X7811668Y15923560D01*
X7866388Y16030953D01*
X7885243Y16150000D01*
X7866388Y16269047D01*
X7811668Y16376440D01*
X7806567Y16381541D01*
X7806494Y16381697D01*
X7802596Y16387063D01*
X7803639Y16387821D01*
X7780839Y16436717D01*
X7780500Y16444474D01*
X7780500Y17505526D01*
X7801322Y17562734D01*
X7806567Y17568459D01*
X7861668Y17623560D01*
X7869614Y17639153D01*
X7892985Y17685023D01*
X7916388Y17730953D01*
X7935243Y17850000D01*
X7916388Y17969047D01*
X7861668Y18076440D01*
X7776440Y18161668D01*
X7770198Y18164848D01*
X7770196Y18164850D01*
X7720600Y18190120D01*
X7669047Y18216388D01*
X7550000Y18235243D01*
X7430953Y18216388D01*
X7379400Y18190120D01*
X7329804Y18164850D01*
X7329802Y18164848D01*
X7323560Y18161668D01*
X7238332Y18076440D01*
X7183612Y17969047D01*
X7164757Y17850000D01*
X7183612Y17730953D01*
X7186793Y17724710D01*
X7209799Y17679559D01*
X7219500Y17639153D01*
X7219500Y16444474D01*
X7198678Y16387266D01*
X7193433Y16381541D01*
X7188332Y16376440D01*
X7133612Y16269047D01*
X7114757Y16150000D01*
X6730500Y16150000D01*
X6730500Y19737398D01*
X6751322Y19794606D01*
X6804045Y19825046D01*
X6833421Y19825302D01*
X6900000Y19814757D01*
X7019047Y19833612D01*
X7082333Y19865858D01*
X7120196Y19885150D01*
X7120198Y19885152D01*
X7126440Y19888332D01*
X7131541Y19893433D01*
X7131697Y19893506D01*
X7137063Y19897404D01*
X7137821Y19896361D01*
X7186717Y19919161D01*
X7194474Y19919500D01*
X7349903Y19919500D01*
X7353941Y19919203D01*
X7358314Y19917702D01*
X7366522Y19918010D01*
X7366524Y19918010D01*
X7404519Y19919437D01*
X7407859Y19919500D01*
X7426090Y19919500D01*
X7430131Y19920253D01*
X7430392Y19920277D01*
X7435240Y19920591D01*
X7462735Y19921623D01*
X7472959Y19926015D01*
X7491785Y19931735D01*
X7502728Y19933773D01*
X7524113Y19946955D01*
X7535663Y19952955D01*
X7558743Y19962871D01*
X7563304Y19966617D01*
X7567662Y19970975D01*
X7583891Y19983803D01*
X7591682Y19988605D01*
X7608310Y20010472D01*
X7616221Y20019534D01*
X8593151Y20996464D01*
X8642162Y21021435D01*
X8719047Y21033612D01*
X8805005Y21077410D01*
X8820196Y21085150D01*
X8820198Y21085152D01*
X8826440Y21088332D01*
X8911668Y21173560D01*
X8921651Y21193151D01*
X8963205Y21274707D01*
X8966388Y21280953D01*
X8985243Y21400000D01*
X8966388Y21519047D01*
X8922662Y21604863D01*
X8914850Y21620196D01*
X8914848Y21620198D01*
X8911668Y21626440D01*
X8826440Y21711668D01*
X8820198Y21714848D01*
X8820196Y21714850D01*
X8758870Y21746097D01*
X8719047Y21766388D01*
X8600000Y21785243D01*
X8480953Y21766388D01*
X8441130Y21746097D01*
X8379804Y21714850D01*
X8379802Y21714848D01*
X8373560Y21711668D01*
X8288332Y21626440D01*
X8285152Y21620198D01*
X8285150Y21620196D01*
X8256112Y21563205D01*
X8233612Y21519047D01*
X8221435Y21442162D01*
X8196464Y21393151D01*
X7309880Y20506567D01*
X7254704Y20480839D01*
X7246947Y20480500D01*
X7194474Y20480500D01*
X7137266Y20501322D01*
X7131541Y20506567D01*
X7126440Y20511668D01*
X7120198Y20514848D01*
X7120196Y20514850D01*
X7050460Y20550382D01*
X7019047Y20566388D01*
X6900000Y20585243D01*
X6833422Y20574698D01*
X6773662Y20586314D01*
X6735349Y20633626D01*
X6730500Y20662602D01*
X6730500Y22091050D01*
X6751322Y22148258D01*
X6756567Y22153983D01*
X6766792Y22164208D01*
X6769115Y22167594D01*
X6769292Y22167807D01*
X6772475Y22171432D01*
X6791203Y22191621D01*
X6794248Y22199252D01*
X6794250Y22199256D01*
X6795326Y22201953D01*
X6804597Y22219315D01*
X6806241Y22221712D01*
X6806243Y22221717D01*
X6810890Y22228491D01*
X6816688Y22252923D01*
X6820619Y22265351D01*
X6827596Y22282839D01*
X6827597Y22282844D01*
X6829924Y22288676D01*
X6830500Y22294550D01*
X6830500Y22300710D01*
X6832905Y22321260D01*
X6833120Y22322167D01*
X6835018Y22330164D01*
X6833744Y22339529D01*
X6831313Y22357388D01*
X6830500Y22369390D01*
X6830500Y22666800D01*
X6830797Y22670838D01*
X6832298Y22675211D01*
X6831458Y22697595D01*
X6830563Y22721416D01*
X6830500Y22724756D01*
X6830500Y22742987D01*
X6829747Y22747028D01*
X6829723Y22747289D01*
X6829409Y22752139D01*
X6829083Y22760817D01*
X6828377Y22779632D01*
X6823985Y22789856D01*
X6818265Y22808683D01*
X6817731Y22811549D01*
X6816227Y22819625D01*
X6803045Y22841010D01*
X6797045Y22852560D01*
X6787129Y22875640D01*
X6783383Y22880201D01*
X6779025Y22884559D01*
X6766197Y22900788D01*
X6761395Y22908579D01*
X6739528Y22925207D01*
X6730466Y22933118D01*
X6520160Y23143424D01*
X6517518Y23146485D01*
X6515488Y23150638D01*
X6481605Y23182069D01*
X6479200Y23184384D01*
X6466292Y23197292D01*
X6462906Y23199615D01*
X6462693Y23199792D01*
X6459068Y23202975D01*
X6438879Y23221703D01*
X6428545Y23225826D01*
X6411185Y23235095D01*
X6402008Y23241391D01*
X6377568Y23247190D01*
X6365145Y23251120D01*
X6347661Y23258096D01*
X6347656Y23258097D01*
X6341824Y23260424D01*
X6335950Y23261000D01*
X6329789Y23261000D01*
X6309241Y23263405D01*
X6300336Y23265518D01*
X6292194Y23264410D01*
X6292192Y23264410D01*
X6273112Y23261813D01*
X6261110Y23261000D01*
X4698277Y23261000D01*
X4641069Y23281822D01*
X4610629Y23334545D01*
X4618978Y23390405D01*
X4664312Y23479377D01*
X4668710Y23507144D01*
X4698225Y23560390D01*
X4755061Y23582207D01*
X4797019Y23572519D01*
X4815482Y23563112D01*
X4934529Y23544257D01*
X5053576Y23563112D01*
X5122879Y23598424D01*
X5154725Y23614650D01*
X5154727Y23614652D01*
X5160969Y23617832D01*
X5246197Y23703060D01*
X5250584Y23711668D01*
X5277836Y23765155D01*
X5300917Y23810453D01*
X5319772Y23929500D01*
X5300917Y24048547D01*
X5265792Y24117484D01*
X5249379Y24149696D01*
X5249377Y24149698D01*
X5246197Y24155940D01*
X5160969Y24241168D01*
X5154727Y24244348D01*
X5154725Y24244350D01*
X5106336Y24269005D01*
X5053576Y24295888D01*
X5046656Y24296984D01*
X5046653Y24296985D01*
X5036542Y24298586D01*
X4983295Y24328100D01*
X4961478Y24384936D01*
X4981298Y24442499D01*
X4987531Y24449423D01*
X5061668Y24523560D01*
X5072643Y24545098D01*
X5116388Y24630953D01*
X5118342Y24629958D01*
X5149950Y24670416D01*
X5211036Y24682844D01*
X5253366Y24676140D01*
X5253367Y24676140D01*
X5260287Y24675044D01*
X5379334Y24693899D01*
X5432094Y24720782D01*
X5480483Y24745437D01*
X5480485Y24745439D01*
X5486727Y24748619D01*
X5571955Y24833847D01*
X5575137Y24840092D01*
X5579249Y24845752D01*
X5580725Y24844679D01*
X5619053Y24880422D01*
X5679849Y24883610D01*
X5694230Y24877800D01*
X5780953Y24833612D01*
X5900000Y24814757D01*
X6019047Y24833612D01*
X6071807Y24860495D01*
X6120196Y24885150D01*
X6120198Y24885152D01*
X6126440Y24888332D01*
X6211668Y24973560D01*
X6216270Y24982590D01*
X6263205Y25074707D01*
X6266388Y25080953D01*
X6285243Y25200000D01*
X6280572Y25229490D01*
X6292188Y25289250D01*
X6339500Y25327563D01*
X6354551Y25331316D01*
X6355906Y25331531D01*
X6369047Y25333612D01*
X6439479Y25369499D01*
X6470196Y25385150D01*
X6470198Y25385152D01*
X6476440Y25388332D01*
X6561668Y25473560D01*
X6616388Y25580953D01*
X6635243Y25700000D01*
X6616388Y25819047D01*
X6569772Y25910536D01*
X6562352Y25970960D01*
X6595509Y26022018D01*
X6617226Y26033324D01*
X6619047Y26033612D01*
X6690319Y26069927D01*
X6720196Y26085150D01*
X6720198Y26085152D01*
X6726440Y26088332D01*
X6811668Y26173560D01*
X6866388Y26280953D01*
X6885243Y26400000D01*
X6866388Y26519047D01*
X6811668Y26626440D01*
X6726440Y26711668D01*
X6720197Y26714849D01*
X6717188Y26717035D01*
X6683144Y26767506D01*
X6680500Y26789039D01*
X6680500Y28757947D01*
X6701322Y28815155D01*
X6754045Y28845595D01*
X6814000Y28835023D01*
X6832433Y28820880D01*
X7316237Y28337076D01*
X7318879Y28334015D01*
X7320909Y28329862D01*
X7326933Y28324274D01*
X7354791Y28298432D01*
X7357197Y28296116D01*
X7370105Y28283208D01*
X7373491Y28280885D01*
X7373704Y28280708D01*
X7377329Y28277525D01*
X7397518Y28258797D01*
X7407852Y28254674D01*
X7425212Y28245405D01*
X7434389Y28239109D01*
X7457128Y28233713D01*
X7458825Y28233310D01*
X7471253Y28229379D01*
X7488736Y28222404D01*
X7488741Y28222403D01*
X7494573Y28220076D01*
X7500447Y28219500D01*
X7506603Y28219500D01*
X7527153Y28217095D01*
X7536061Y28214981D01*
X7544202Y28216089D01*
X7544204Y28216089D01*
X7563291Y28218687D01*
X7575293Y28219500D01*
X7655526Y28219500D01*
X7712734Y28198678D01*
X7718459Y28193433D01*
X7723560Y28188332D01*
X7729802Y28185152D01*
X7729804Y28185150D01*
X7750836Y28174434D01*
X7830953Y28133612D01*
X7950000Y28114757D01*
X8069047Y28133612D01*
X8176440Y28188332D01*
X8176922Y28187385D01*
X8229416Y28202434D01*
X8285031Y28177668D01*
X8287950Y28174310D01*
X8288332Y28173560D01*
X8373560Y28088332D01*
X8379802Y28085152D01*
X8379804Y28085150D01*
X8428193Y28060495D01*
X8480953Y28033612D01*
X8600000Y28014757D01*
X8719047Y28033612D01*
X8771807Y28060495D01*
X8820196Y28085150D01*
X8820198Y28085152D01*
X8826440Y28088332D01*
X8887067Y28148959D01*
X8942243Y28174687D01*
X9001048Y28158931D01*
X9012933Y28148959D01*
X9073560Y28088332D01*
X9079802Y28085152D01*
X9079804Y28085150D01*
X9128193Y28060495D01*
X9180953Y28033612D01*
X9300000Y28014757D01*
X9419047Y28033612D01*
X9471807Y28060495D01*
X9520196Y28085150D01*
X9520198Y28085152D01*
X9526440Y28088332D01*
X9611668Y28173560D01*
X9620702Y28191290D01*
X9665225Y28232808D01*
X9726022Y28235994D01*
X9774642Y28199355D01*
X9779295Y28191296D01*
X9788332Y28173560D01*
X9873560Y28088332D01*
X9879802Y28085152D01*
X9879804Y28085150D01*
X9928193Y28060495D01*
X9980953Y28033612D01*
X10100000Y28014757D01*
X10216578Y28033221D01*
X10276338Y28021605D01*
X10314651Y27974293D01*
X10319500Y27945317D01*
X10319500Y27853051D01*
X10298678Y27795843D01*
X10293432Y27790118D01*
X8967979Y26464666D01*
X8945453Y26448300D01*
X8873560Y26411668D01*
X8788332Y26326440D01*
X8785152Y26320198D01*
X8785150Y26320196D01*
X8772261Y26294899D01*
X8733612Y26219047D01*
X8714757Y26100000D01*
X8733612Y25980953D01*
X8757465Y25934140D01*
X8782786Y25884445D01*
X8788332Y25873560D01*
X8873560Y25788332D01*
X8879802Y25785152D01*
X8879804Y25785150D01*
X8928193Y25760495D01*
X8980953Y25733612D01*
X9100000Y25714757D01*
X9219047Y25733612D01*
X9271807Y25760495D01*
X9320196Y25785150D01*
X9320198Y25785152D01*
X9326440Y25788332D01*
X9411668Y25873560D01*
X9417215Y25884445D01*
X9442535Y25934140D01*
X9466388Y25980953D01*
X9467484Y25987873D01*
X9467485Y25987876D01*
X9480480Y26069927D01*
X9509995Y26123174D01*
X9566830Y26144991D01*
X9624393Y26125171D01*
X9647683Y26096412D01*
X9674771Y26043248D01*
X9759999Y25958020D01*
X9766241Y25954840D01*
X9766243Y25954838D01*
X9814632Y25930183D01*
X9867392Y25903300D01*
X9986439Y25884445D01*
X10105486Y25903300D01*
X10158246Y25930183D01*
X10206635Y25954838D01*
X10206637Y25954840D01*
X10212879Y25958020D01*
X10269382Y26014523D01*
X10324558Y26040251D01*
X10383363Y26024495D01*
X10418282Y25974625D01*
X10420219Y25965513D01*
X10433612Y25880953D01*
X10460495Y25828193D01*
X10483112Y25783805D01*
X10488332Y25773560D01*
X10573560Y25688332D01*
X10579802Y25685152D01*
X10579804Y25685150D01*
X10628193Y25660495D01*
X10680953Y25633612D01*
X10800000Y25614757D01*
X10919047Y25633612D01*
X10971807Y25660495D01*
X11020196Y25685150D01*
X11020198Y25685152D01*
X11026440Y25688332D01*
X11031541Y25693433D01*
X11031697Y25693506D01*
X11037063Y25697404D01*
X11037821Y25696361D01*
X11086717Y25719161D01*
X11094474Y25719500D01*
X11649903Y25719500D01*
X11653941Y25719203D01*
X11658314Y25717702D01*
X11666522Y25718010D01*
X11666524Y25718010D01*
X11704519Y25719437D01*
X11707859Y25719500D01*
X11726090Y25719500D01*
X11730131Y25720253D01*
X11730392Y25720277D01*
X11735240Y25720591D01*
X11762735Y25721623D01*
X11772959Y25726015D01*
X11791785Y25731735D01*
X11802728Y25733773D01*
X11824113Y25746955D01*
X11835663Y25752955D01*
X11858743Y25762871D01*
X11863304Y25766617D01*
X11867662Y25770975D01*
X11883891Y25783803D01*
X11891682Y25788605D01*
X11908310Y25810472D01*
X11916221Y25819534D01*
X13462924Y27366237D01*
X13465985Y27368879D01*
X13470138Y27370909D01*
X13501569Y27404792D01*
X13503884Y27407197D01*
X13516792Y27420105D01*
X13519115Y27423491D01*
X13519292Y27423704D01*
X13522475Y27427329D01*
X13541203Y27447518D01*
X13545326Y27457852D01*
X13554595Y27475212D01*
X13560891Y27484389D01*
X13566690Y27508825D01*
X13570621Y27521253D01*
X13577596Y27538736D01*
X13577597Y27538741D01*
X13579924Y27544573D01*
X13580500Y27550447D01*
X13580500Y27556603D01*
X13582905Y27577153D01*
X13583121Y27578065D01*
X13585019Y27586061D01*
X13581313Y27613291D01*
X13580500Y27625293D01*
X13580500Y28405526D01*
X13601322Y28462734D01*
X13606567Y28468459D01*
X13611668Y28473560D01*
X13619676Y28489275D01*
X13656845Y28562224D01*
X13666388Y28580953D01*
X13685243Y28700000D01*
X13666388Y28819047D01*
X13632659Y28885243D01*
X13614850Y28920196D01*
X13614848Y28920198D01*
X13611668Y28926440D01*
X13526440Y29011668D01*
X13520198Y29014848D01*
X13520196Y29014850D01*
X13469223Y29040822D01*
X13419047Y29066388D01*
X13300000Y29085243D01*
X13180953Y29066388D01*
X13130777Y29040822D01*
X13079804Y29014850D01*
X13079802Y29014848D01*
X13073560Y29011668D01*
X12988332Y28926440D01*
X12985152Y28920198D01*
X12985150Y28920196D01*
X12967341Y28885243D01*
X12933612Y28819047D01*
X12914757Y28700000D01*
X12933612Y28580953D01*
X12943155Y28562224D01*
X12980325Y28489275D01*
X12988332Y28473560D01*
X12993433Y28468459D01*
X12993506Y28468303D01*
X12997404Y28462937D01*
X12996361Y28462179D01*
X13019161Y28413283D01*
X13019500Y28405526D01*
X13019500Y27753053D01*
X12998678Y27695845D01*
X12993433Y27690120D01*
X11609880Y26306567D01*
X11554704Y26280839D01*
X11546947Y26280500D01*
X11094474Y26280500D01*
X11037266Y26301322D01*
X11031541Y26306567D01*
X11026440Y26311668D01*
X11020198Y26314848D01*
X11020196Y26314850D01*
X10970926Y26339954D01*
X10919047Y26366388D01*
X10800000Y26385243D01*
X10692615Y26368235D01*
X10632854Y26379851D01*
X10594541Y26427164D01*
X10595603Y26488034D01*
X10615759Y26519072D01*
X11262924Y27166237D01*
X11265985Y27168879D01*
X11270138Y27170909D01*
X11301569Y27204792D01*
X11303884Y27207197D01*
X11316792Y27220105D01*
X11319115Y27223491D01*
X11319292Y27223704D01*
X11322475Y27227329D01*
X11341203Y27247518D01*
X11345326Y27257852D01*
X11354595Y27275212D01*
X11360891Y27284389D01*
X11366690Y27308829D01*
X11370620Y27321252D01*
X11377596Y27338736D01*
X11377597Y27338741D01*
X11379924Y27344573D01*
X11380500Y27350447D01*
X11380500Y27356608D01*
X11382905Y27377158D01*
X11385018Y27386061D01*
X11381313Y27413285D01*
X11380500Y27425287D01*
X11380500Y38105526D01*
X11401322Y38162734D01*
X11406567Y38168459D01*
X11411668Y38173560D01*
X11466388Y38280953D01*
X11485243Y38400000D01*
X11466388Y38519047D01*
X11425317Y38599653D01*
X11414850Y38620196D01*
X11414848Y38620198D01*
X11411668Y38626440D01*
X11326440Y38711668D01*
X11320198Y38714848D01*
X11320196Y38714850D01*
X11255498Y38747815D01*
X11219047Y38766388D01*
X11182465Y38772182D01*
X11170596Y38774062D01*
X11117350Y38803577D01*
X11095533Y38860413D01*
X11115353Y38917976D01*
X11121586Y38924899D01*
X11502050Y39305363D01*
X14361065Y39305363D01*
X14377202Y39181953D01*
X14379754Y39176153D01*
X14379755Y39176150D01*
X14414527Y39097126D01*
X14427329Y39068032D01*
X14507414Y38972760D01*
X14512687Y38969250D01*
X14605744Y38907305D01*
X14605746Y38907304D01*
X14611019Y38903794D01*
X14617067Y38901904D01*
X14617068Y38901904D01*
X14644462Y38893346D01*
X14729817Y38866679D01*
X14736155Y38866563D01*
X14742414Y38865549D01*
X14741828Y38861930D01*
X14791991Y38840611D01*
X15143432Y38489171D01*
X15169161Y38433995D01*
X15169500Y38426238D01*
X15169500Y35717445D01*
X15148678Y35660237D01*
X15127991Y35642174D01*
X15115496Y35634291D01*
X15033107Y35541003D01*
X14980213Y35428342D01*
X14979237Y35422076D01*
X14979237Y35422075D01*
X14962118Y35312124D01*
X14961065Y35305363D01*
X14977202Y35181953D01*
X14979754Y35176153D01*
X14979755Y35176150D01*
X15020163Y35084318D01*
X15027329Y35068032D01*
X15107414Y34972760D01*
X15112687Y34969250D01*
X15205744Y34907305D01*
X15205746Y34907304D01*
X15211019Y34903794D01*
X15217067Y34901904D01*
X15217068Y34901904D01*
X15237672Y34895467D01*
X15329817Y34866679D01*
X15377604Y34865803D01*
X15447914Y34864514D01*
X15447916Y34864514D01*
X15454257Y34864398D01*
X15574335Y34897135D01*
X15680399Y34962258D01*
X15763921Y35054532D01*
X15800347Y35129716D01*
X15815426Y35160838D01*
X15815426Y35160839D01*
X15818188Y35166539D01*
X15838837Y35289275D01*
X15838968Y35300000D01*
X15832852Y35342705D01*
X15832292Y35363081D01*
X15832305Y35363226D01*
X15834321Y35370750D01*
X15830839Y35410548D01*
X15830500Y35418303D01*
X15830500Y38581704D01*
X15830839Y38589461D01*
X15833641Y38621493D01*
X15834320Y38629250D01*
X15823979Y38667846D01*
X15822299Y38675424D01*
X15816711Y38707112D01*
X15815359Y38714781D01*
X15811465Y38721526D01*
X15809095Y38728036D01*
X15806170Y38734308D01*
X15804155Y38741830D01*
X15781228Y38774573D01*
X15777071Y38781098D01*
X15757083Y38815718D01*
X15726475Y38841401D01*
X15720750Y38846647D01*
X15255181Y39312217D01*
X15230013Y39362532D01*
X15222223Y39416927D01*
X15221324Y39423204D01*
X15169810Y39536503D01*
X15121467Y39592608D01*
X15092707Y39625986D01*
X15092705Y39625988D01*
X15088567Y39630790D01*
X15077946Y39637674D01*
X14989448Y39695036D01*
X14989445Y39695037D01*
X14984126Y39698485D01*
X14978053Y39700301D01*
X14978049Y39700303D01*
X14870960Y39732329D01*
X14870959Y39732329D01*
X14864884Y39734146D01*
X14858545Y39734185D01*
X14858543Y39734185D01*
X14801896Y39734531D01*
X14740425Y39734907D01*
X14734331Y39733165D01*
X14734329Y39733165D01*
X14660928Y39712186D01*
X14620756Y39700705D01*
X14515496Y39634291D01*
X14433107Y39541003D01*
X14380213Y39428342D01*
X14379237Y39422076D01*
X14379237Y39422075D01*
X14375250Y39396464D01*
X14361065Y39305363D01*
X11502050Y39305363D01*
X11593151Y39396464D01*
X11642162Y39421435D01*
X11646203Y39422075D01*
X11719047Y39433612D01*
X11725292Y39436794D01*
X11820196Y39485150D01*
X11820198Y39485152D01*
X11826440Y39488332D01*
X11911668Y39573560D01*
X11966388Y39680953D01*
X11985243Y39800000D01*
X11966388Y39919047D01*
X11911668Y40026440D01*
X11826440Y40111668D01*
X11820198Y40114848D01*
X11820196Y40114850D01*
X11761792Y40144608D01*
X11719047Y40166388D01*
X11600000Y40185243D01*
X11480953Y40166388D01*
X11438208Y40144608D01*
X11379804Y40114850D01*
X11379802Y40114848D01*
X11373560Y40111668D01*
X11288332Y40026440D01*
X11285152Y40020198D01*
X11285150Y40020196D01*
X11236795Y39925293D01*
X11233612Y39919047D01*
X11232516Y39912125D01*
X11221435Y39842162D01*
X11196464Y39793151D01*
X10437076Y39033763D01*
X10434015Y39031121D01*
X10429862Y39029091D01*
X10424274Y39023067D01*
X10398432Y38995209D01*
X10396116Y38992803D01*
X10383208Y38979895D01*
X10380885Y38976509D01*
X10380708Y38976296D01*
X10377525Y38972671D01*
X10358797Y38952482D01*
X10354674Y38942148D01*
X10345405Y38924788D01*
X10339109Y38915611D01*
X10333310Y38891171D01*
X10329380Y38878748D01*
X10322404Y38861264D01*
X10322403Y38861259D01*
X10320076Y38855427D01*
X10319500Y38849553D01*
X10319500Y38849328D01*
X10317978Y38843072D01*
X10316735Y38843375D01*
X10296048Y38794171D01*
X10241899Y38766345D01*
X10216827Y38766740D01*
X10106921Y38784147D01*
X10106920Y38784147D01*
X10100000Y38785243D01*
X9980953Y38766388D01*
X9944502Y38747815D01*
X9879804Y38714850D01*
X9879802Y38714848D01*
X9873560Y38711668D01*
X9788332Y38626440D01*
X9785152Y38620198D01*
X9785150Y38620196D01*
X9774683Y38599653D01*
X9733612Y38519047D01*
X9714757Y38400000D01*
X9733612Y38280953D01*
X9788332Y38173560D01*
X9793433Y38168459D01*
X9793506Y38168303D01*
X9797404Y38162937D01*
X9796361Y38162179D01*
X9819161Y38113283D01*
X9819500Y38105526D01*
X9819500Y35654762D01*
X9798678Y35597554D01*
X9745955Y35567114D01*
X9716579Y35566858D01*
X9600500Y35585243D01*
X9481453Y35566388D01*
X9440957Y35545754D01*
X9380304Y35514850D01*
X9380302Y35514848D01*
X9374060Y35511668D01*
X9288832Y35426440D01*
X9285652Y35420198D01*
X9285650Y35420196D01*
X9253659Y35357410D01*
X9234112Y35319047D01*
X9225767Y35266352D01*
X9221948Y35242242D01*
X9199289Y35195633D01*
X9198411Y35194686D01*
X9196116Y35192303D01*
X9183208Y35179395D01*
X9180885Y35176009D01*
X9180708Y35175796D01*
X9177525Y35172171D01*
X9158797Y35151982D01*
X9154674Y35141648D01*
X9145398Y35124278D01*
X9144517Y35122994D01*
X9094982Y35087602D01*
X9034286Y35092332D01*
X8990831Y35134969D01*
X8983226Y35187268D01*
X8985243Y35200000D01*
X8966388Y35319047D01*
X8926347Y35397632D01*
X8914850Y35420196D01*
X8914848Y35420198D01*
X8911668Y35426440D01*
X8826440Y35511668D01*
X8820198Y35514848D01*
X8820196Y35514850D01*
X8759543Y35545754D01*
X8719047Y35566388D01*
X8600000Y35585243D01*
X8480953Y35566388D01*
X8440457Y35545754D01*
X8379804Y35514850D01*
X8379802Y35514848D01*
X8373560Y35511668D01*
X8288332Y35426440D01*
X8285152Y35420198D01*
X8285150Y35420196D01*
X8273653Y35397632D01*
X8233612Y35319047D01*
X8214757Y35200000D01*
X8233612Y35080953D01*
X8258383Y35032338D01*
X8284928Y34980241D01*
X8288332Y34973560D01*
X8296633Y34965259D01*
X8322361Y34910083D01*
X8322700Y34902326D01*
X8322700Y32374431D01*
X8301878Y32317223D01*
X8249155Y32286783D01*
X8189200Y32297355D01*
X8170768Y32311498D01*
X8000116Y32482149D01*
X7997003Y32485262D01*
X7952131Y32515150D01*
X7943542Y32516850D01*
X7936616Y32519710D01*
X7907644Y32539043D01*
X7460214Y32986473D01*
X7434486Y33041649D01*
X7434364Y33044448D01*
X7435243Y33050000D01*
X7416388Y33169047D01*
X7361668Y33276440D01*
X7276440Y33361668D01*
X7270198Y33364848D01*
X7270196Y33364850D01*
X7219853Y33390501D01*
X7169047Y33416388D01*
X7050000Y33435243D01*
X6930953Y33416388D01*
X6880147Y33390501D01*
X6829804Y33364850D01*
X6829802Y33364848D01*
X6823560Y33361668D01*
X6820582Y33358690D01*
X6763288Y33342264D01*
X6707673Y33367029D01*
X6680987Y33421748D01*
X6680500Y33431047D01*
X6680500Y40790514D01*
X6701322Y40847722D01*
X6754045Y40878162D01*
X6809905Y40869813D01*
X6880953Y40833612D01*
X7000000Y40814757D01*
X7119047Y40833612D01*
X7190095Y40869813D01*
X7220196Y40885150D01*
X7220198Y40885152D01*
X7226440Y40888332D01*
X7311668Y40973560D01*
X7332517Y41014477D01*
X7342640Y41034345D01*
X7366388Y41080953D01*
X7385243Y41200000D01*
X7366388Y41319047D01*
X7311668Y41426440D01*
X7306567Y41431541D01*
X7306494Y41431697D01*
X7302596Y41437063D01*
X7303639Y41437821D01*
X7280839Y41486717D01*
X7280500Y41494474D01*
X7280500Y43746947D01*
X7301322Y43804155D01*
X7306567Y43809880D01*
X7990120Y44493433D01*
X8045296Y44519161D01*
X8053053Y44519500D01*
X13246947Y44519500D01*
X13304155Y44498678D01*
G37*
%TD.AperFunction*%
%TA.AperFunction,Conductor*%
G36*
X17614000Y17685023D02*
G01*
X17632433Y17670880D01*
X18359944Y16943369D01*
X18385672Y16888193D01*
X18383137Y16858004D01*
X18376045Y16830776D01*
X18365620Y16631856D01*
X18395406Y16434902D01*
X18416916Y16376440D01*
X18458976Y16262124D01*
X18464187Y16247960D01*
X18569153Y16078667D01*
X18706017Y15933938D01*
X18869186Y15819686D01*
X19051997Y15740576D01*
X19056409Y15739654D01*
X19056413Y15739653D01*
X19166739Y15716605D01*
X19246981Y15699842D01*
X19253507Y15699500D01*
X20730500Y15699500D01*
X20787708Y15678678D01*
X20818148Y15625955D01*
X20819500Y15610500D01*
X20819500Y15209499D01*
X20798678Y15152291D01*
X20745955Y15121851D01*
X20730500Y15120499D01*
X19546505Y15120499D01*
X19546493Y15120500D01*
X19300215Y15120500D01*
X19211293Y15111468D01*
X19156313Y15105883D01*
X19156311Y15105883D01*
X19151826Y15105427D01*
X19086717Y15085023D01*
X18966052Y15047209D01*
X18966050Y15047208D01*
X18961748Y15045860D01*
X18787529Y14949289D01*
X18636287Y14819659D01*
X18541222Y14697103D01*
X18489708Y14664663D01*
X18429392Y14672925D01*
X18407967Y14688720D01*
X17506567Y15590120D01*
X17480839Y15645296D01*
X17480500Y15653053D01*
X17480500Y17607947D01*
X17501322Y17665155D01*
X17554045Y17695595D01*
X17614000Y17685023D01*
G37*
%TD.AperFunction*%
%TA.AperFunction,Conductor*%
G36*
X2522556Y18625127D02*
G01*
X2543981Y18609332D01*
X4043433Y17109880D01*
X4069161Y17054704D01*
X4069500Y17046947D01*
X4069500Y15345726D01*
X4048678Y15288518D01*
X3995955Y15258078D01*
X3936000Y15268650D01*
X3915294Y15285357D01*
X3911395Y15291682D01*
X3889520Y15308316D01*
X3880458Y15316228D01*
X2654141Y16542546D01*
X2628413Y16597721D01*
X2628196Y16610135D01*
X2634144Y16723637D01*
X2634144Y16723639D01*
X2634380Y16728144D01*
X2618200Y16835135D01*
X2605268Y16920642D01*
X2605268Y16920643D01*
X2604594Y16925098D01*
X2565377Y17031687D01*
X2537370Y17107809D01*
X2537369Y17107812D01*
X2535813Y17112040D01*
X2430847Y17281333D01*
X2293983Y17426062D01*
X2130814Y17540314D01*
X1948003Y17619424D01*
X1943591Y17620346D01*
X1943587Y17620347D01*
X1821350Y17645883D01*
X1753019Y17660158D01*
X1746493Y17660500D01*
X269500Y17660500D01*
X212292Y17681322D01*
X181852Y17734045D01*
X180500Y17749500D01*
X180500Y18150501D01*
X201322Y18207709D01*
X254045Y18238149D01*
X269500Y18239501D01*
X1453495Y18239501D01*
X1453507Y18239500D01*
X1699785Y18239500D01*
X1788707Y18248532D01*
X1843687Y18254117D01*
X1843689Y18254117D01*
X1848174Y18254573D01*
X1960797Y18289867D01*
X2033948Y18312791D01*
X2033950Y18312792D01*
X2038252Y18314140D01*
X2163946Y18383813D01*
X2208524Y18408523D01*
X2208525Y18408524D01*
X2212471Y18410711D01*
X2363713Y18540341D01*
X2366471Y18543897D01*
X2366477Y18543903D01*
X2410724Y18600947D01*
X2462240Y18633389D01*
X2522556Y18625127D01*
G37*
%TD.AperFunction*%
%TA.AperFunction,Conductor*%
G36*
X18014000Y20205023D02*
G01*
X18032433Y20190880D01*
X18458212Y19765101D01*
X18483940Y19709925D01*
X18475135Y19662875D01*
X18426255Y19563538D01*
X18376045Y19370776D01*
X18375809Y19366278D01*
X18375809Y19366276D01*
X18371065Y19275744D01*
X18365620Y19171856D01*
X18395406Y18974902D01*
X18428394Y18885243D01*
X18457287Y18806715D01*
X18464187Y18787960D01*
X18569153Y18618667D01*
X18706017Y18473938D01*
X18709709Y18471353D01*
X18838814Y18380953D01*
X18869186Y18359686D01*
X19051997Y18280576D01*
X19056409Y18279654D01*
X19056413Y18279653D01*
X19166739Y18256605D01*
X19246981Y18239842D01*
X19253507Y18239500D01*
X20730500Y18239500D01*
X20787708Y18218678D01*
X20818148Y18165955D01*
X20819500Y18150500D01*
X20819500Y17749499D01*
X20798678Y17692291D01*
X20745955Y17661851D01*
X20730500Y17660499D01*
X19546505Y17660499D01*
X19546493Y17660500D01*
X19300215Y17660500D01*
X19211293Y17651468D01*
X19156313Y17645883D01*
X19156311Y17645883D01*
X19151826Y17645427D01*
X19131806Y17639153D01*
X18966052Y17587209D01*
X18966050Y17587208D01*
X18961748Y17585860D01*
X18787529Y17489289D01*
X18784106Y17486355D01*
X18784103Y17486353D01*
X18753108Y17459787D01*
X18696121Y17438368D01*
X18638698Y17458590D01*
X18632257Y17464430D01*
X17906567Y18190120D01*
X17880839Y18245296D01*
X17880500Y18253053D01*
X17880500Y20127947D01*
X17901322Y20185155D01*
X17954045Y20215595D01*
X18014000Y20205023D01*
G37*
%TD.AperFunction*%
%TA.AperFunction,Conductor*%
G36*
X2130157Y33533156D02*
G01*
X3343433Y32319880D01*
X3369161Y32264704D01*
X3369500Y32256947D01*
X3369500Y25682053D01*
X3348678Y25624845D01*
X3295955Y25594405D01*
X3236000Y25604977D01*
X3217567Y25619120D01*
X2541788Y26294899D01*
X2516060Y26350075D01*
X2524865Y26397126D01*
X2529585Y26406717D01*
X2573745Y26496462D01*
X2579635Y26519072D01*
X2622819Y26684863D01*
X2623955Y26689224D01*
X2634380Y26888144D01*
X2604594Y27085098D01*
X2560098Y27206035D01*
X2537370Y27267809D01*
X2537369Y27267812D01*
X2535813Y27272040D01*
X2430847Y27441333D01*
X2293983Y27586062D01*
X2130814Y27700314D01*
X1948003Y27779424D01*
X1943591Y27780346D01*
X1943587Y27780347D01*
X1821350Y27805883D01*
X1753019Y27820158D01*
X1746493Y27820500D01*
X269500Y27820500D01*
X212292Y27841322D01*
X181852Y27894045D01*
X180500Y27909500D01*
X180500Y28310501D01*
X201322Y28367709D01*
X254045Y28398149D01*
X269500Y28399501D01*
X1453495Y28399501D01*
X1453507Y28399500D01*
X1699785Y28399500D01*
X1788707Y28408532D01*
X1843687Y28414117D01*
X1843689Y28414117D01*
X1848174Y28414573D01*
X2001856Y28462734D01*
X2033948Y28472791D01*
X2033950Y28472792D01*
X2038252Y28474140D01*
X2212471Y28570711D01*
X2363713Y28700341D01*
X2385103Y28727916D01*
X2442200Y28801526D01*
X2485800Y28857734D01*
X2494048Y28874495D01*
X2559448Y29007407D01*
X2573745Y29036462D01*
X2578852Y29056066D01*
X2622819Y29224863D01*
X2623955Y29229224D01*
X2625044Y29250000D01*
X2634144Y29423637D01*
X2634144Y29423639D01*
X2634380Y29428144D01*
X2625470Y29487063D01*
X2605268Y29620642D01*
X2605268Y29620643D01*
X2604594Y29625098D01*
X2535813Y29812040D01*
X2430847Y29981333D01*
X2293983Y30126062D01*
X2130814Y30240314D01*
X1948003Y30319424D01*
X1943591Y30320346D01*
X1943587Y30320347D01*
X1821350Y30345883D01*
X1753019Y30360158D01*
X1746493Y30360500D01*
X269500Y30360500D01*
X212292Y30381322D01*
X181852Y30434045D01*
X180500Y30449500D01*
X180500Y30850501D01*
X201322Y30907709D01*
X254045Y30938149D01*
X269500Y30939501D01*
X1453495Y30939501D01*
X1453507Y30939500D01*
X1699785Y30939500D01*
X1788707Y30948532D01*
X1843687Y30954117D01*
X1843689Y30954117D01*
X1848174Y30954573D01*
X1960797Y30989867D01*
X2033948Y31012791D01*
X2033950Y31012792D01*
X2038252Y31014140D01*
X2197160Y31102224D01*
X2208524Y31108523D01*
X2208525Y31108524D01*
X2212471Y31110711D01*
X2363713Y31240341D01*
X2485800Y31397734D01*
X2573745Y31576462D01*
X2577961Y31592645D01*
X2618224Y31747223D01*
X2623955Y31769224D01*
X2634380Y31968144D01*
X2604594Y32165098D01*
X2551884Y32308361D01*
X2537370Y32347809D01*
X2537369Y32347812D01*
X2535813Y32352040D01*
X2430847Y32521333D01*
X2293983Y32666062D01*
X2130814Y32780314D01*
X1948003Y32859424D01*
X1943591Y32860346D01*
X1943587Y32860347D01*
X1821350Y32885883D01*
X1753019Y32900158D01*
X1746493Y32900500D01*
X269500Y32900500D01*
X212292Y32921322D01*
X181852Y32974045D01*
X180500Y32989500D01*
X180500Y33390501D01*
X201322Y33447709D01*
X254045Y33478149D01*
X269500Y33479501D01*
X1453495Y33479501D01*
X1453507Y33479500D01*
X1699785Y33479500D01*
X1788707Y33488532D01*
X1843687Y33494117D01*
X1843689Y33494117D01*
X1848174Y33494573D01*
X2038252Y33554140D01*
X2038798Y33552399D01*
X2092954Y33555422D01*
X2130157Y33533156D01*
G37*
%TD.AperFunction*%
%TA.AperFunction,Conductor*%
G36*
X9101547Y35052160D02*
G01*
X9112101Y35013047D01*
X9114982Y35013439D01*
X9118687Y34986215D01*
X9119500Y34974213D01*
X9119500Y28789039D01*
X9098678Y28731831D01*
X9082812Y28717035D01*
X9079803Y28714849D01*
X9073560Y28711668D01*
X9035633Y28673741D01*
X8980457Y28648013D01*
X8921652Y28663769D01*
X8886733Y28713639D01*
X8883700Y28736674D01*
X8883700Y34908726D01*
X8903257Y34962457D01*
X8902596Y34962937D01*
X8904270Y34965241D01*
X8904522Y34965934D01*
X8905735Y34967259D01*
X8906713Y34968605D01*
X8911668Y34973560D01*
X8947607Y35044094D01*
X8992130Y35085612D01*
X9052926Y35088798D01*
X9101547Y35052160D01*
G37*
%TD.AperFunction*%
%TA.AperFunction,Conductor*%
G36*
X8297990Y30221778D02*
G01*
X8322700Y30160233D01*
X8322700Y28878722D01*
X8301878Y28821514D01*
X8249155Y28791074D01*
X8189200Y28801646D01*
X8181390Y28806718D01*
X8176440Y28811668D01*
X8170202Y28814846D01*
X8170200Y28814848D01*
X8093014Y28854176D01*
X8069047Y28866388D01*
X7950000Y28885243D01*
X7830953Y28866388D01*
X7723560Y28811668D01*
X7722014Y28814702D01*
X7676010Y28801526D01*
X7619313Y28827374D01*
X7305632Y29141055D01*
X7279904Y29196231D01*
X7280661Y29217909D01*
X7284647Y29243078D01*
X7284647Y29243080D01*
X7285743Y29250000D01*
X7266888Y29369047D01*
X7212168Y29476440D01*
X7207067Y29481541D01*
X7206994Y29481697D01*
X7203096Y29487063D01*
X7204139Y29487821D01*
X7181339Y29536717D01*
X7181000Y29544474D01*
X7181000Y29657447D01*
X7201822Y29714655D01*
X7207067Y29720380D01*
X7665120Y30178433D01*
X7720296Y30204161D01*
X7728053Y30204500D01*
X8059167Y30204501D01*
X8102776Y30204501D01*
X8107058Y30205353D01*
X8107062Y30205353D01*
X8146830Y30213263D01*
X8155428Y30214973D01*
X8184254Y30234234D01*
X8243389Y30248704D01*
X8297990Y30221778D01*
G37*
%TD.AperFunction*%
%TA.AperFunction,Conductor*%
G36*
X2130157Y41153156D02*
G01*
X4773933Y38509380D01*
X4799661Y38454204D01*
X4800000Y38446447D01*
X4800000Y36951553D01*
X4779178Y36894345D01*
X4726455Y36863905D01*
X4666500Y36874477D01*
X4648067Y36888620D01*
X2541788Y38994899D01*
X2516060Y39050075D01*
X2524865Y39097126D01*
X2532280Y39112194D01*
X2573745Y39196462D01*
X2578840Y39216020D01*
X2622819Y39384863D01*
X2623955Y39389224D01*
X2624191Y39393724D01*
X2634144Y39583637D01*
X2634144Y39583639D01*
X2634380Y39588144D01*
X2626890Y39637674D01*
X2605268Y39780642D01*
X2605268Y39780643D01*
X2604594Y39785098D01*
X2553013Y39925292D01*
X2537370Y39967809D01*
X2537369Y39967812D01*
X2535813Y39972040D01*
X2430847Y40141333D01*
X2293983Y40286062D01*
X2130814Y40400314D01*
X1948003Y40479424D01*
X1943591Y40480346D01*
X1943587Y40480347D01*
X1821350Y40505883D01*
X1753019Y40520158D01*
X1746493Y40520500D01*
X269500Y40520500D01*
X212292Y40541322D01*
X181852Y40594045D01*
X180500Y40609500D01*
X180500Y41010501D01*
X201322Y41067709D01*
X254045Y41098149D01*
X269500Y41099501D01*
X1453495Y41099501D01*
X1453507Y41099500D01*
X1699785Y41099500D01*
X1788707Y41108532D01*
X1843687Y41114117D01*
X1843689Y41114117D01*
X1848174Y41114573D01*
X2038252Y41174140D01*
X2038798Y41172399D01*
X2092954Y41175422D01*
X2130157Y41153156D01*
G37*
%TD.AperFunction*%
%TA.AperFunction,Conductor*%
G36*
X2130157Y43693156D02*
G01*
X5243433Y40579880D01*
X5269161Y40524704D01*
X5269500Y40516947D01*
X5269500Y39022052D01*
X5248678Y38964844D01*
X5195955Y38934404D01*
X5136000Y38944976D01*
X5117567Y38959119D01*
X2541788Y41534898D01*
X2516060Y41590074D01*
X2524865Y41637125D01*
X2528311Y41644127D01*
X2573745Y41736462D01*
X2581576Y41766524D01*
X2622819Y41924863D01*
X2623955Y41929224D01*
X2624293Y41935674D01*
X2634144Y42123637D01*
X2634144Y42123639D01*
X2634380Y42128144D01*
X2604594Y42325098D01*
X2535813Y42512040D01*
X2430847Y42681333D01*
X2293983Y42826062D01*
X2130814Y42940314D01*
X1948003Y43019424D01*
X1943591Y43020346D01*
X1943587Y43020347D01*
X1821350Y43045883D01*
X1753019Y43060158D01*
X1746493Y43060500D01*
X269500Y43060500D01*
X212292Y43081322D01*
X181852Y43134045D01*
X180500Y43149500D01*
X180500Y43550501D01*
X201322Y43607709D01*
X254045Y43638149D01*
X269500Y43639501D01*
X1453495Y43639501D01*
X1453507Y43639500D01*
X1699785Y43639500D01*
X1788707Y43648532D01*
X1843687Y43654117D01*
X1843689Y43654117D01*
X1848174Y43654573D01*
X2038252Y43714140D01*
X2038798Y43712399D01*
X2092954Y43715422D01*
X2130157Y43693156D01*
G37*
%TD.AperFunction*%
%TA.AperFunction,Conductor*%
G36*
X2130157Y46233156D02*
G01*
X5713933Y42649380D01*
X5739661Y42594204D01*
X5740000Y42586447D01*
X5740000Y41091553D01*
X5719178Y41034345D01*
X5666455Y41003905D01*
X5606500Y41014477D01*
X5588067Y41028620D01*
X2541788Y44074899D01*
X2516060Y44130075D01*
X2524865Y44177126D01*
X2567790Y44264359D01*
X2573745Y44276462D01*
X2577599Y44291256D01*
X2622819Y44464863D01*
X2623955Y44469224D01*
X2634380Y44668144D01*
X2630099Y44696455D01*
X2605268Y44860642D01*
X2605268Y44860643D01*
X2604594Y44865098D01*
X2554383Y45001568D01*
X2537370Y45047809D01*
X2537369Y45047812D01*
X2535813Y45052040D01*
X2430847Y45221333D01*
X2293983Y45366062D01*
X2130814Y45480314D01*
X1948003Y45559424D01*
X1943591Y45560346D01*
X1943587Y45560347D01*
X1811810Y45587876D01*
X1753019Y45600158D01*
X1746493Y45600500D01*
X269500Y45600500D01*
X212292Y45621322D01*
X181852Y45674045D01*
X180500Y45689500D01*
X180500Y46090501D01*
X201322Y46147709D01*
X254045Y46178149D01*
X269500Y46179501D01*
X1453495Y46179501D01*
X1453507Y46179500D01*
X1699785Y46179500D01*
X1788707Y46188532D01*
X1843687Y46194117D01*
X1843689Y46194117D01*
X1848174Y46194573D01*
X2038252Y46254140D01*
X2038798Y46252399D01*
X2092954Y46255422D01*
X2130157Y46233156D01*
G37*
%TD.AperFunction*%
%TA.AperFunction,Conductor*%
G36*
X2130157Y48773156D02*
G01*
X2993433Y47909880D01*
X3019161Y47854704D01*
X3019500Y47846947D01*
X3019500Y46352053D01*
X2998678Y46294845D01*
X2945955Y46264405D01*
X2886000Y46274977D01*
X2867567Y46289120D01*
X2541788Y46614899D01*
X2516060Y46670075D01*
X2524865Y46717126D01*
X2543949Y46755908D01*
X2573745Y46816462D01*
X2604624Y46935008D01*
X2622819Y47004863D01*
X2623955Y47009224D01*
X2629570Y47116363D01*
X2634144Y47203637D01*
X2634144Y47203639D01*
X2634380Y47208144D01*
X2613372Y47347059D01*
X2605268Y47400642D01*
X2605268Y47400643D01*
X2604594Y47405098D01*
X2535813Y47592040D01*
X2430847Y47761333D01*
X2293983Y47906062D01*
X2130814Y48020314D01*
X1948003Y48099424D01*
X1943591Y48100346D01*
X1943587Y48100347D01*
X1821350Y48125883D01*
X1753019Y48140158D01*
X1746493Y48140500D01*
X269500Y48140500D01*
X212292Y48161322D01*
X181852Y48214045D01*
X180500Y48229500D01*
X180500Y48630501D01*
X201322Y48687709D01*
X254045Y48718149D01*
X269500Y48719501D01*
X1453495Y48719501D01*
X1453507Y48719500D01*
X1699785Y48719500D01*
X1790553Y48728720D01*
X1843687Y48734117D01*
X1843689Y48734117D01*
X1848174Y48734573D01*
X2038252Y48794140D01*
X2038798Y48792399D01*
X2092954Y48795422D01*
X2130157Y48773156D01*
G37*
%TD.AperFunction*%
%TD*%
%TA.AperFunction,NonConductor*%
G36*
X6022271Y50798678D02*
G01*
X6052711Y50745955D01*
X6042139Y50686000D01*
X5995503Y50646867D01*
X5985084Y50643781D01*
X5927436Y50630472D01*
X5918111Y50627188D01*
X5765480Y50553403D01*
X5757114Y50548134D01*
X5624632Y50442376D01*
X5617624Y50435368D01*
X5511866Y50302886D01*
X5506597Y50294520D01*
X5432812Y50141889D01*
X5429528Y50132564D01*
X5391122Y49966210D01*
X5390067Y49958844D01*
X5390000Y49956508D01*
X5390000Y49735694D01*
X5394376Y49723671D01*
X5400734Y49720000D01*
X6054306Y49720000D01*
X6066329Y49724376D01*
X6077082Y49743001D01*
X6123719Y49782133D01*
X6154158Y49787500D01*
X7894306Y49787500D01*
X7906329Y49791876D01*
X7910000Y49798234D01*
X7910000Y50032328D01*
X7909755Y50036992D01*
X7895670Y50171006D01*
X7893739Y50180091D01*
X7838160Y50351143D01*
X7834386Y50359620D01*
X7744459Y50515379D01*
X7739006Y50522886D01*
X7618657Y50656546D01*
X7609980Y50664358D01*
X7581397Y50718111D01*
X7594053Y50777661D01*
X7642026Y50815143D01*
X7669531Y50819500D01*
X13350469Y50819500D01*
X13407677Y50798678D01*
X13438117Y50745955D01*
X13427545Y50686000D01*
X13410020Y50664358D01*
X13401343Y50656546D01*
X13280994Y50522886D01*
X13275541Y50515379D01*
X13185614Y50359620D01*
X13181840Y50351143D01*
X13126261Y50180091D01*
X13124330Y50171006D01*
X13110245Y50036992D01*
X13110000Y50032328D01*
X13110000Y49803194D01*
X13114376Y49791171D01*
X13120734Y49787500D01*
X14868825Y49787500D01*
X14926033Y49766678D01*
X14952457Y49728941D01*
X14954375Y49723671D01*
X14960734Y49720000D01*
X15614305Y49720000D01*
X15626328Y49724376D01*
X15629999Y49730734D01*
X15629999Y49956509D01*
X15629932Y49958847D01*
X15628879Y49966204D01*
X15590472Y50132564D01*
X15587188Y50141889D01*
X15513403Y50294520D01*
X15508134Y50302886D01*
X15402376Y50435368D01*
X15395368Y50442376D01*
X15262886Y50548134D01*
X15254520Y50553403D01*
X15101889Y50627188D01*
X15092564Y50630472D01*
X15034916Y50643781D01*
X14983858Y50676939D01*
X14966059Y50735158D01*
X14989847Y50791198D01*
X15044091Y50818837D01*
X15054937Y50819500D01*
X19061857Y50819500D01*
X19119065Y50798678D01*
X19149505Y50745955D01*
X19138933Y50686000D01*
X19088472Y50645573D01*
X18966052Y50607209D01*
X18966050Y50607208D01*
X18961748Y50605860D01*
X18957803Y50603673D01*
X18798516Y50515379D01*
X18787529Y50509289D01*
X18636287Y50379659D01*
X18514200Y50222266D01*
X18426255Y50043538D01*
X18376045Y49850776D01*
X18375809Y49846278D01*
X18375809Y49846276D01*
X18369384Y49723671D01*
X18365620Y49651856D01*
X18366295Y49647393D01*
X18366295Y49647392D01*
X18393955Y49464499D01*
X18395406Y49454902D01*
X18464187Y49267960D01*
X18569153Y49098667D01*
X18706017Y48953938D01*
X18869186Y48839686D01*
X19051997Y48760576D01*
X19056409Y48759654D01*
X19056413Y48759653D01*
X19166739Y48736605D01*
X19246981Y48719842D01*
X19253507Y48719500D01*
X20730500Y48719500D01*
X20787708Y48698678D01*
X20818148Y48645955D01*
X20819500Y48630500D01*
X20819500Y48229499D01*
X20798678Y48172291D01*
X20745955Y48141851D01*
X20730500Y48140499D01*
X19546505Y48140499D01*
X19546493Y48140500D01*
X19300215Y48140500D01*
X19211293Y48131468D01*
X19156313Y48125883D01*
X19156311Y48125883D01*
X19151826Y48125427D01*
X19101702Y48109719D01*
X18966052Y48067209D01*
X18966050Y48067208D01*
X18961748Y48065860D01*
X18787529Y47969289D01*
X18636287Y47839659D01*
X18514200Y47682266D01*
X18426255Y47503538D01*
X18425120Y47499181D01*
X18425119Y47499178D01*
X18392697Y47374705D01*
X18376045Y47310776D01*
X18375809Y47306278D01*
X18375809Y47306276D01*
X18367479Y47147319D01*
X18365620Y47111856D01*
X18366295Y47107393D01*
X18366295Y47107392D01*
X18394732Y46919358D01*
X18395406Y46914902D01*
X18464187Y46727960D01*
X18569153Y46558667D01*
X18706017Y46413938D01*
X18869186Y46299686D01*
X19051997Y46220576D01*
X19056409Y46219654D01*
X19056413Y46219653D01*
X19127302Y46204844D01*
X19246981Y46179842D01*
X19253507Y46179500D01*
X20730500Y46179500D01*
X20787708Y46158678D01*
X20818148Y46105955D01*
X20819500Y46090500D01*
X20819500Y45809000D01*
X20798678Y45751792D01*
X20745955Y45721352D01*
X20730500Y45720000D01*
X19565694Y45720000D01*
X19553671Y45715624D01*
X19550000Y45709266D01*
X19550000Y44785694D01*
X19554376Y44773671D01*
X19560734Y44770000D01*
X20730500Y44770000D01*
X20787708Y44749178D01*
X20818148Y44696455D01*
X20819500Y44681000D01*
X20819500Y44559000D01*
X20798678Y44501792D01*
X20745955Y44471352D01*
X20730500Y44470000D01*
X19565694Y44470000D01*
X19553671Y44465624D01*
X19550000Y44459266D01*
X19550000Y43535694D01*
X19554376Y43523671D01*
X19560734Y43520000D01*
X20730500Y43520000D01*
X20787708Y43499178D01*
X20818148Y43446455D01*
X20819500Y43431000D01*
X20819500Y43149499D01*
X20798678Y43092291D01*
X20745955Y43061851D01*
X20730500Y43060499D01*
X19546505Y43060499D01*
X19546493Y43060500D01*
X19300215Y43060500D01*
X19211293Y43051468D01*
X19156313Y43045883D01*
X19156311Y43045883D01*
X19151826Y43045427D01*
X19071796Y43020347D01*
X18966052Y42987209D01*
X18966050Y42987208D01*
X18961748Y42985860D01*
X18787529Y42889289D01*
X18636287Y42759659D01*
X18514200Y42602266D01*
X18426255Y42423538D01*
X18376045Y42230776D01*
X18365620Y42031856D01*
X18366295Y42027393D01*
X18366295Y42027392D01*
X18388275Y41882056D01*
X18395406Y41834902D01*
X18420564Y41766524D01*
X18461706Y41654704D01*
X18464187Y41647960D01*
X18569153Y41478667D01*
X18706017Y41333938D01*
X18869186Y41219686D01*
X19051997Y41140576D01*
X19056409Y41139654D01*
X19056413Y41139653D01*
X19166739Y41116605D01*
X19246981Y41099842D01*
X19253507Y41099500D01*
X20730500Y41099500D01*
X20787708Y41078678D01*
X20818148Y41025955D01*
X20819500Y41010500D01*
X20819500Y40609499D01*
X20798678Y40552291D01*
X20745955Y40521851D01*
X20730500Y40520499D01*
X19546505Y40520499D01*
X19546493Y40520500D01*
X19300215Y40520500D01*
X19211293Y40511468D01*
X19156313Y40505883D01*
X19156311Y40505883D01*
X19151826Y40505427D01*
X19071796Y40480347D01*
X18966052Y40447209D01*
X18966050Y40447208D01*
X18961748Y40445860D01*
X18787529Y40349289D01*
X18636287Y40219659D01*
X18514200Y40062266D01*
X18512211Y40058225D01*
X18512211Y40058224D01*
X18509045Y40051789D01*
X18446801Y39925292D01*
X18444298Y39920206D01*
X18400358Y39878069D01*
X18364442Y39870500D01*
X18233764Y39870500D01*
X18176556Y39891322D01*
X18170831Y39896567D01*
X17756567Y40310831D01*
X17730839Y40366007D01*
X17730500Y40373764D01*
X17730500Y44461192D01*
X18256868Y44461192D01*
X18257010Y44460196D01*
X18304207Y44264359D01*
X18306949Y44256395D01*
X18390323Y44073025D01*
X18394528Y44065713D01*
X18511066Y43901424D01*
X18516577Y43895038D01*
X18662085Y43755745D01*
X18668696Y43750524D01*
X18837914Y43641261D01*
X18845413Y43637374D01*
X19032234Y43562083D01*
X19040316Y43559689D01*
X19237535Y43521175D01*
X19246329Y43524376D01*
X19250000Y43530734D01*
X19250000Y44454306D01*
X19245624Y44466329D01*
X19239266Y44470000D01*
X18271450Y44470000D01*
X18259427Y44465624D01*
X18256868Y44461192D01*
X17730500Y44461192D01*
X17730500Y44785531D01*
X18262489Y44785531D01*
X18265094Y44773006D01*
X18268907Y44770000D01*
X19234306Y44770000D01*
X19246329Y44774376D01*
X19250000Y44780734D01*
X19250000Y45699769D01*
X19245624Y45711792D01*
X19240788Y45714584D01*
X19145261Y45705470D01*
X19136989Y45703877D01*
X18943699Y45647173D01*
X18935875Y45644043D01*
X18756794Y45551811D01*
X18749701Y45547256D01*
X18591305Y45422834D01*
X18585189Y45417010D01*
X18453175Y45264878D01*
X18448277Y45258010D01*
X18347415Y45083665D01*
X18343899Y45075987D01*
X18277824Y44885710D01*
X18275826Y44877513D01*
X18262489Y44785531D01*
X17730500Y44785531D01*
X17730500Y46081697D01*
X17730839Y46089455D01*
X17730854Y46089623D01*
X17734321Y46129250D01*
X17723977Y46167852D01*
X17722297Y46175431D01*
X17716711Y46207114D01*
X17716711Y46207115D01*
X17715359Y46214781D01*
X17711467Y46221523D01*
X17709097Y46228034D01*
X17706170Y46234311D01*
X17704155Y46241830D01*
X17699690Y46248206D01*
X17699688Y46248211D01*
X17681235Y46274564D01*
X17677063Y46281112D01*
X17660978Y46308973D01*
X17660975Y46308976D01*
X17657083Y46315718D01*
X17626487Y46341391D01*
X17620762Y46346636D01*
X15646636Y48320762D01*
X15641391Y48326487D01*
X15620723Y48351118D01*
X15615718Y48357083D01*
X15608976Y48360975D01*
X15608973Y48360978D01*
X15581112Y48377063D01*
X15574564Y48381235D01*
X15548211Y48399688D01*
X15548206Y48399690D01*
X15541830Y48404155D01*
X15534312Y48406170D01*
X15528037Y48409096D01*
X15521523Y48411467D01*
X15514781Y48415359D01*
X15475417Y48422300D01*
X15467846Y48423979D01*
X15452622Y48428058D01*
X15436770Y48432306D01*
X15436769Y48432306D01*
X15429249Y48434321D01*
X15389451Y48430839D01*
X15381696Y48430500D01*
X15314890Y48430500D01*
X15257682Y48451322D01*
X15227242Y48504045D01*
X15237814Y48564000D01*
X15259365Y48589055D01*
X15395368Y48697624D01*
X15402376Y48704632D01*
X15508134Y48837114D01*
X15513403Y48845480D01*
X15587188Y48998111D01*
X15590472Y49007436D01*
X15628878Y49173790D01*
X15629933Y49181156D01*
X15630000Y49183492D01*
X15630000Y49404306D01*
X15625624Y49416329D01*
X15619266Y49420000D01*
X14071175Y49420000D01*
X14013967Y49440822D01*
X14013931Y49440874D01*
X15995541Y49440874D01*
X16025935Y49239903D01*
X16027490Y49235676D01*
X16027491Y49235673D01*
X16050260Y49173790D01*
X16096119Y49049148D01*
X16203226Y48876401D01*
X16342881Y48728720D01*
X16509379Y48612137D01*
X16695919Y48531414D01*
X16700331Y48530492D01*
X16700335Y48530491D01*
X16813038Y48506947D01*
X16894880Y48489849D01*
X16901539Y48489500D01*
X17050800Y48489500D01*
X17140136Y48498574D01*
X17197729Y48504424D01*
X17197731Y48504424D01*
X17202216Y48504880D01*
X17390869Y48564000D01*
X17391868Y48564313D01*
X17391870Y48564314D01*
X17396172Y48565662D01*
X17573944Y48664203D01*
X17728271Y48796477D01*
X17852848Y48957081D01*
X17942587Y49139455D01*
X17953450Y49181156D01*
X17992686Y49331787D01*
X17993822Y49336148D01*
X17998216Y49420000D01*
X18004223Y49534619D01*
X18004223Y49534621D01*
X18004459Y49539126D01*
X17974065Y49740097D01*
X17971105Y49748144D01*
X17905437Y49926622D01*
X17903881Y49930852D01*
X17796774Y50103599D01*
X17657119Y50251280D01*
X17490621Y50367863D01*
X17304081Y50448586D01*
X17299669Y50449508D01*
X17299665Y50449509D01*
X17183527Y50473771D01*
X17105120Y50490151D01*
X17098461Y50490500D01*
X16949200Y50490500D01*
X16859864Y50481426D01*
X16802271Y50475576D01*
X16802269Y50475576D01*
X16797784Y50475120D01*
X16716059Y50449509D01*
X16608132Y50415687D01*
X16608130Y50415686D01*
X16603828Y50414338D01*
X16426056Y50315797D01*
X16271729Y50183523D01*
X16147152Y50022919D01*
X16057413Y49840545D01*
X16056278Y49836188D01*
X16056277Y49836185D01*
X16031248Y49740097D01*
X16006178Y49643852D01*
X16005942Y49639354D01*
X16005942Y49639352D01*
X15996055Y49450674D01*
X15995541Y49440874D01*
X14013931Y49440874D01*
X13987543Y49478559D01*
X13985625Y49483829D01*
X13979266Y49487500D01*
X13125694Y49487500D01*
X13113671Y49483124D01*
X13110000Y49476766D01*
X13110000Y49242672D01*
X13110245Y49238008D01*
X13124330Y49103994D01*
X13126261Y49094909D01*
X13181840Y48923857D01*
X13185614Y48915380D01*
X13275541Y48759621D01*
X13280994Y48752114D01*
X13401347Y48618450D01*
X13408233Y48612250D01*
X13436789Y48591503D01*
X13470832Y48541031D01*
X13464469Y48480485D01*
X13420676Y48438194D01*
X13384476Y48430500D01*
X7635524Y48430500D01*
X7578316Y48451322D01*
X7547876Y48504045D01*
X7558448Y48564000D01*
X7583211Y48591503D01*
X7611767Y48612250D01*
X7618653Y48618450D01*
X7739006Y48752114D01*
X7744459Y48759621D01*
X7834386Y48915380D01*
X7838160Y48923857D01*
X7893739Y49094909D01*
X7895670Y49103994D01*
X7909755Y49238008D01*
X7910000Y49242672D01*
X7910000Y49471806D01*
X7905624Y49483829D01*
X7899266Y49487500D01*
X7045694Y49487500D01*
X7033671Y49483124D01*
X7022918Y49464499D01*
X6976281Y49425367D01*
X6945842Y49420000D01*
X5405695Y49420000D01*
X5393672Y49415624D01*
X5390001Y49409266D01*
X5390001Y49183491D01*
X5390068Y49181153D01*
X5391121Y49173796D01*
X5429528Y49007436D01*
X5432812Y48998111D01*
X5506597Y48845480D01*
X5511866Y48837114D01*
X5617624Y48704632D01*
X5624632Y48697624D01*
X5757114Y48591866D01*
X5765480Y48586597D01*
X5918111Y48512812D01*
X5927436Y48509528D01*
X5942211Y48506117D01*
X5993269Y48472959D01*
X6011068Y48414740D01*
X5987344Y48358851D01*
X5984282Y48357083D01*
X5979277Y48351118D01*
X5979276Y48351117D01*
X5958609Y48326487D01*
X5953364Y48320762D01*
X5521071Y47888469D01*
X5486460Y47867260D01*
X5480953Y47866388D01*
X5474708Y47863206D01*
X5474705Y47863205D01*
X5379804Y47814850D01*
X5379802Y47814848D01*
X5373560Y47811668D01*
X5288332Y47726440D01*
X5233612Y47619047D01*
X5214757Y47500000D01*
X5233612Y47380953D01*
X5288332Y47273560D01*
X5373560Y47188332D01*
X5379802Y47185152D01*
X5379804Y47185150D01*
X5427735Y47160728D01*
X5480953Y47133612D01*
X5600000Y47114757D01*
X5719047Y47133612D01*
X5772265Y47160728D01*
X5820196Y47185150D01*
X5820198Y47185152D01*
X5826440Y47188332D01*
X5911668Y47273560D01*
X5932853Y47315137D01*
X5963205Y47374705D01*
X5963206Y47374708D01*
X5966388Y47380953D01*
X5967260Y47386460D01*
X5988469Y47421071D01*
X6310831Y47743433D01*
X6366007Y47769161D01*
X6373764Y47769500D01*
X7353266Y47769500D01*
X7410474Y47748678D01*
X7416199Y47743433D01*
X7998904Y47160728D01*
X8010497Y47155322D01*
X8017591Y47157223D01*
X8603801Y47743433D01*
X8658977Y47769161D01*
X8666734Y47769500D01*
X12353266Y47769500D01*
X12410474Y47748678D01*
X12416199Y47743433D01*
X12998904Y47160728D01*
X13010497Y47155322D01*
X13017591Y47157223D01*
X13603801Y47743433D01*
X13658977Y47769161D01*
X13666734Y47769500D01*
X15226236Y47769500D01*
X15283444Y47748678D01*
X15289169Y47743433D01*
X17043433Y45989169D01*
X17069161Y45933993D01*
X17069500Y45926236D01*
X17069500Y40218304D01*
X17069161Y40210549D01*
X17065679Y40170751D01*
X17074589Y40137500D01*
X17076020Y40132158D01*
X17077700Y40124583D01*
X17084641Y40085219D01*
X17088533Y40078477D01*
X17090904Y40071963D01*
X17093830Y40065688D01*
X17095845Y40058170D01*
X17100310Y40051794D01*
X17100312Y40051789D01*
X17118765Y40025436D01*
X17122937Y40018888D01*
X17139022Y39991027D01*
X17139025Y39991024D01*
X17142917Y39984282D01*
X17148882Y39979277D01*
X17173513Y39958609D01*
X17179238Y39953364D01*
X17813364Y39319238D01*
X17818609Y39313513D01*
X17844282Y39282917D01*
X17851024Y39279025D01*
X17851027Y39279022D01*
X17878888Y39262937D01*
X17885436Y39258765D01*
X17911789Y39240312D01*
X17911794Y39240310D01*
X17918170Y39235845D01*
X17925688Y39233830D01*
X17931963Y39230904D01*
X17938477Y39228533D01*
X17945219Y39224641D01*
X17984583Y39217700D01*
X17992154Y39216021D01*
X18007378Y39211942D01*
X18023230Y39207694D01*
X18023231Y39207694D01*
X18030751Y39205679D01*
X18070551Y39209161D01*
X18078308Y39209500D01*
X18364741Y39209500D01*
X18421949Y39188678D01*
X18448267Y39151230D01*
X18464187Y39107960D01*
X18569153Y38938667D01*
X18572250Y38935392D01*
X18584551Y38922384D01*
X18706017Y38793938D01*
X18869186Y38679686D01*
X19051997Y38600576D01*
X19056409Y38599654D01*
X19056413Y38599653D01*
X19166739Y38576605D01*
X19246981Y38559842D01*
X19253507Y38559500D01*
X20730500Y38559500D01*
X20787708Y38538678D01*
X20818148Y38485955D01*
X20819500Y38470500D01*
X20819500Y38069499D01*
X20798678Y38012291D01*
X20745955Y37981851D01*
X20730500Y37980499D01*
X19546505Y37980499D01*
X19546493Y37980500D01*
X19300215Y37980500D01*
X19211293Y37971468D01*
X19156313Y37965883D01*
X19156311Y37965883D01*
X19151826Y37965427D01*
X19071796Y37940347D01*
X18966052Y37907209D01*
X18966050Y37907208D01*
X18961748Y37905860D01*
X18787529Y37809289D01*
X18636287Y37679659D01*
X18514200Y37522266D01*
X18426255Y37343538D01*
X18376045Y37150776D01*
X18365620Y36951856D01*
X18366295Y36947393D01*
X18366295Y36947392D01*
X18375183Y36888620D01*
X18395406Y36754902D01*
X18464187Y36567960D01*
X18569153Y36398667D01*
X18706017Y36253938D01*
X18869186Y36139686D01*
X19051997Y36060576D01*
X19056409Y36059654D01*
X19056413Y36059653D01*
X19166739Y36036605D01*
X19246981Y36019842D01*
X19253507Y36019500D01*
X20730500Y36019500D01*
X20787708Y35998678D01*
X20818148Y35945955D01*
X20819500Y35930500D01*
X20819500Y35529499D01*
X20798678Y35472291D01*
X20745955Y35441851D01*
X20730500Y35440499D01*
X19546505Y35440499D01*
X19546493Y35440500D01*
X19300215Y35440500D01*
X19211293Y35431468D01*
X19156313Y35425883D01*
X19156311Y35425883D01*
X19151826Y35425427D01*
X19116706Y35414421D01*
X18966052Y35367209D01*
X18966050Y35367208D01*
X18961748Y35365860D01*
X18787529Y35269289D01*
X18636287Y35139659D01*
X18633528Y35136102D01*
X18633527Y35136101D01*
X18603408Y35097272D01*
X18514200Y34982266D01*
X18512211Y34978225D01*
X18512211Y34978224D01*
X18505823Y34965241D01*
X18426255Y34803538D01*
X18425119Y34799178D01*
X18424859Y34798478D01*
X18385402Y34752115D01*
X18341441Y34740500D01*
X17293053Y34740500D01*
X17235845Y34761322D01*
X17230120Y34766567D01*
X16706567Y35290120D01*
X16680839Y35345296D01*
X16680500Y35353053D01*
X16680500Y41749902D01*
X16680797Y41753941D01*
X16682298Y41758314D01*
X16680563Y41804531D01*
X16680500Y41807870D01*
X16680500Y41826090D01*
X16679750Y41830117D01*
X16679724Y41830396D01*
X16679410Y41835240D01*
X16678686Y41854519D01*
X16678378Y41862735D01*
X16673983Y41872964D01*
X16668264Y41891790D01*
X16666227Y41902728D01*
X16661914Y41909726D01*
X16653050Y41924107D01*
X16647041Y41935674D01*
X16639610Y41952970D01*
X16639608Y41952973D01*
X16637129Y41958743D01*
X16633383Y41963304D01*
X16629025Y41967662D01*
X16616197Y41983891D01*
X16611395Y41991682D01*
X16589528Y42008310D01*
X16580466Y42016221D01*
X14360607Y44236080D01*
X14334879Y44291256D01*
X14350635Y44350061D01*
X14400505Y44384980D01*
X14462276Y44379141D01*
X14558106Y44332815D01*
X14567443Y44329527D01*
X14664709Y44307071D01*
X14677406Y44308630D01*
X14679716Y44311107D01*
X14680000Y44312502D01*
X14680000Y44319235D01*
X14980000Y44319235D01*
X14984376Y44307212D01*
X14987308Y44305519D01*
X14988730Y44305556D01*
X15092557Y44329527D01*
X15101895Y44332815D01*
X15254520Y44406597D01*
X15262886Y44411866D01*
X15395368Y44517624D01*
X15402376Y44524632D01*
X15508134Y44657114D01*
X15513403Y44665480D01*
X15587188Y44818111D01*
X15590472Y44827436D01*
X15628878Y44993790D01*
X15629933Y45001156D01*
X15630000Y45003492D01*
X15630000Y45224306D01*
X15625624Y45236329D01*
X15619266Y45240000D01*
X14995694Y45240000D01*
X14983671Y45235624D01*
X14980000Y45229266D01*
X14980000Y44319235D01*
X14680000Y44319235D01*
X14680000Y45224306D01*
X14675624Y45236329D01*
X14669266Y45240000D01*
X14045695Y45240000D01*
X14033672Y45235624D01*
X14030001Y45229266D01*
X14030001Y45003491D01*
X14030068Y45001153D01*
X14031121Y44993796D01*
X14069528Y44827436D01*
X14072812Y44818111D01*
X14119141Y44722276D01*
X14125294Y44661708D01*
X14091074Y44611355D01*
X14032495Y44594779D01*
X13976080Y44620607D01*
X13633763Y44962924D01*
X13631121Y44965985D01*
X13629091Y44970138D01*
X13595208Y45001569D01*
X13592803Y45003884D01*
X13579895Y45016792D01*
X13576509Y45019115D01*
X13576296Y45019292D01*
X13572671Y45022475D01*
X13552482Y45041203D01*
X13542148Y45045326D01*
X13524788Y45054595D01*
X13515611Y45060891D01*
X13491171Y45066690D01*
X13478748Y45070620D01*
X13461264Y45077596D01*
X13461259Y45077597D01*
X13455427Y45079924D01*
X13449553Y45080500D01*
X13443392Y45080500D01*
X13422844Y45082905D01*
X13413939Y45085018D01*
X13405797Y45083910D01*
X13405795Y45083910D01*
X13386715Y45081313D01*
X13374713Y45080500D01*
X7950092Y45080500D01*
X7946058Y45080796D01*
X7941686Y45082297D01*
X7933474Y45081989D01*
X7933472Y45081989D01*
X7895495Y45080563D01*
X7892156Y45080500D01*
X7873910Y45080500D01*
X7869876Y45079749D01*
X7869586Y45079722D01*
X7864753Y45079409D01*
X7837265Y45078377D01*
X7827041Y45073985D01*
X7808215Y45068265D01*
X7797272Y45066227D01*
X7775887Y45053045D01*
X7764337Y45047045D01*
X7741257Y45037129D01*
X7736696Y45033383D01*
X7732338Y45029025D01*
X7716109Y45016197D01*
X7708318Y45011395D01*
X7702308Y45003491D01*
X7691690Y44989528D01*
X7683779Y44980466D01*
X6837076Y44133763D01*
X6834015Y44131121D01*
X6829862Y44129091D01*
X6824274Y44123067D01*
X6798432Y44095209D01*
X6796116Y44092803D01*
X6783208Y44079895D01*
X6780885Y44076509D01*
X6780708Y44076296D01*
X6777525Y44072671D01*
X6758797Y44052482D01*
X6754674Y44042148D01*
X6745405Y44024788D01*
X6739109Y44015611D01*
X6733310Y43991171D01*
X6729380Y43978748D01*
X6722404Y43961264D01*
X6722403Y43961259D01*
X6720076Y43955427D01*
X6719500Y43949553D01*
X6719500Y43943392D01*
X6717095Y43922844D01*
X6714982Y43913939D01*
X6716090Y43905797D01*
X6716090Y43905795D01*
X6718687Y43886715D01*
X6719500Y43874713D01*
X6719500Y43492053D01*
X6698678Y43434845D01*
X6645955Y43404405D01*
X6586000Y43414977D01*
X6567567Y43429120D01*
X5798040Y44198647D01*
X5772312Y44253823D01*
X5788068Y44312628D01*
X5837938Y44347547D01*
X5899708Y44341709D01*
X5918109Y44332814D01*
X5927443Y44329527D01*
X6024709Y44307071D01*
X6037406Y44308630D01*
X6039716Y44311107D01*
X6040000Y44312502D01*
X6040000Y44319235D01*
X6340000Y44319235D01*
X6344376Y44307212D01*
X6347308Y44305519D01*
X6348730Y44305556D01*
X6452557Y44329527D01*
X6461895Y44332815D01*
X6614520Y44406597D01*
X6622886Y44411866D01*
X6755368Y44517624D01*
X6762376Y44524632D01*
X6868134Y44657114D01*
X6873403Y44665480D01*
X6947188Y44818111D01*
X6950472Y44827436D01*
X6988878Y44993790D01*
X6989933Y45001156D01*
X6990000Y45003492D01*
X6990000Y45224306D01*
X6985624Y45236329D01*
X6979266Y45240000D01*
X6355694Y45240000D01*
X6343671Y45235624D01*
X6340000Y45229266D01*
X6340000Y44319235D01*
X6040000Y44319235D01*
X6040000Y45224306D01*
X6035624Y45236329D01*
X6029266Y45240000D01*
X5405695Y45240000D01*
X5393672Y45235624D01*
X5390001Y45229266D01*
X5390001Y45003491D01*
X5390068Y45001153D01*
X5391121Y44993796D01*
X5429528Y44827436D01*
X5432811Y44818115D01*
X5441709Y44799708D01*
X5447861Y44739140D01*
X5413641Y44688788D01*
X5355061Y44672212D01*
X5298647Y44698040D01*
X4440993Y45555694D01*
X5390000Y45555694D01*
X5394376Y45543671D01*
X5400734Y45540000D01*
X6024306Y45540000D01*
X6036329Y45544376D01*
X6040000Y45550734D01*
X6040000Y45555694D01*
X6340000Y45555694D01*
X6344376Y45543671D01*
X6350734Y45540000D01*
X6974305Y45540000D01*
X6986328Y45544376D01*
X6999804Y45567717D01*
X7046441Y45606849D01*
X7107321Y45606848D01*
X7147488Y45577396D01*
X7199549Y45509549D01*
X7204182Y45505994D01*
X7312558Y45422834D01*
X7319767Y45417302D01*
X7459764Y45359313D01*
X7517620Y45351696D01*
X7569391Y45344880D01*
X7569396Y45344880D01*
X7572280Y45344500D01*
X7647720Y45344500D01*
X7650604Y45344880D01*
X7650609Y45344880D01*
X7702380Y45351696D01*
X7760236Y45359313D01*
X7900233Y45417302D01*
X7907443Y45422834D01*
X8015818Y45505994D01*
X8020451Y45509549D01*
X8024455Y45514767D01*
X8024830Y45515006D01*
X8028126Y45518302D01*
X8028857Y45517571D01*
X8075803Y45547473D01*
X8136161Y45539522D01*
X8174356Y45500989D01*
X8188332Y45473560D01*
X8273560Y45388332D01*
X8279802Y45385152D01*
X8279804Y45385150D01*
X8317267Y45366062D01*
X8380953Y45333612D01*
X8500000Y45314757D01*
X8619047Y45333612D01*
X8670441Y45359799D01*
X8710847Y45369500D01*
X11789153Y45369500D01*
X11829559Y45359799D01*
X11880953Y45333612D01*
X12000000Y45314757D01*
X12119047Y45333612D01*
X12182733Y45366062D01*
X12220196Y45385150D01*
X12220198Y45385152D01*
X12226440Y45388332D01*
X12311668Y45473560D01*
X12315110Y45480314D01*
X12350684Y45550133D01*
X12366388Y45580953D01*
X12385243Y45700000D01*
X12366388Y45819047D01*
X12326088Y45898140D01*
X12314850Y45920196D01*
X12314848Y45920198D01*
X12311668Y45926440D01*
X12226440Y46011668D01*
X12220198Y46014848D01*
X12220196Y46014850D01*
X12164018Y46043474D01*
X12119047Y46066388D01*
X12000000Y46085243D01*
X11880953Y46066388D01*
X11835983Y46043474D01*
X11829559Y46040201D01*
X11789153Y46030500D01*
X8710847Y46030500D01*
X8670446Y46040199D01*
X8664015Y46043475D01*
X8622495Y46087998D01*
X8616285Y46110390D01*
X8616015Y46112313D01*
X12403132Y46112313D01*
X12404641Y46106683D01*
X12418869Y46094574D01*
X12425992Y46089623D01*
X12593858Y45995806D01*
X12601796Y45992338D01*
X12776355Y45935621D01*
X12824329Y45898140D01*
X12837091Y45862595D01*
X12849313Y45769764D01*
X12907302Y45629767D01*
X12910852Y45625140D01*
X12910853Y45625139D01*
X12967120Y45551811D01*
X12999549Y45509549D01*
X13004182Y45505994D01*
X13112558Y45422834D01*
X13119767Y45417302D01*
X13259764Y45359313D01*
X13317620Y45351696D01*
X13369391Y45344880D01*
X13369396Y45344880D01*
X13372280Y45344500D01*
X13447720Y45344500D01*
X13450604Y45344880D01*
X13450609Y45344880D01*
X13502380Y45351696D01*
X13560236Y45359313D01*
X13700233Y45417302D01*
X13707443Y45422834D01*
X13815818Y45505994D01*
X13820451Y45509549D01*
X13852880Y45551811D01*
X13875218Y45580922D01*
X13926563Y45613632D01*
X13986922Y45605686D01*
X14029459Y45557181D01*
X14034376Y45543671D01*
X14040734Y45540000D01*
X14664306Y45540000D01*
X14676329Y45544376D01*
X14680000Y45550734D01*
X14680000Y45555694D01*
X14980000Y45555694D01*
X14984376Y45543671D01*
X14990734Y45540000D01*
X15614305Y45540000D01*
X15626328Y45544376D01*
X15629999Y45550734D01*
X15629999Y45776509D01*
X15629932Y45778847D01*
X15628879Y45786204D01*
X15590472Y45952564D01*
X15587188Y45961889D01*
X15513403Y46114520D01*
X15508134Y46122886D01*
X15402376Y46255368D01*
X15395368Y46262376D01*
X15262886Y46368134D01*
X15254520Y46373403D01*
X15101895Y46447185D01*
X15092557Y46450473D01*
X14995291Y46472929D01*
X14982594Y46471370D01*
X14980284Y46468893D01*
X14980000Y46467498D01*
X14980000Y45555694D01*
X14680000Y45555694D01*
X14680000Y46460765D01*
X14675624Y46472788D01*
X14672692Y46474481D01*
X14671270Y46474444D01*
X14567443Y46450473D01*
X14558105Y46447185D01*
X14405480Y46373403D01*
X14397114Y46368134D01*
X14264632Y46262376D01*
X14257624Y46255368D01*
X14151866Y46122886D01*
X14146597Y46114520D01*
X14128374Y46076824D01*
X14084729Y46034381D01*
X14024013Y46029923D01*
X13974636Y46065535D01*
X13966021Y46081501D01*
X13934053Y46158678D01*
X13912698Y46210233D01*
X13869936Y46265961D01*
X13851630Y46324020D01*
X13863160Y46364100D01*
X13948767Y46514796D01*
X13952288Y46522704D01*
X14012990Y46705181D01*
X14014911Y46713638D01*
X14039246Y46906274D01*
X14039593Y46911230D01*
X14039925Y46935008D01*
X14039717Y46939980D01*
X14020770Y47133217D01*
X14019085Y47141726D01*
X13963503Y47325822D01*
X13960205Y47333824D01*
X13869917Y47503633D01*
X13865125Y47510844D01*
X13843757Y47537044D01*
X13832767Y47543595D01*
X13827350Y47542718D01*
X12408538Y46123906D01*
X12403132Y46112313D01*
X8616015Y46112313D01*
X8614864Y46120504D01*
X7798365Y46937003D01*
X8227822Y46937003D01*
X8229723Y46929909D01*
X8823949Y46335683D01*
X8835542Y46330277D01*
X8841285Y46331816D01*
X8848781Y46340501D01*
X8853777Y46347582D01*
X8948767Y46514796D01*
X8952288Y46522704D01*
X9012990Y46705181D01*
X9014911Y46713638D01*
X9039246Y46906274D01*
X9039593Y46911230D01*
X9039925Y46935008D01*
X9039717Y46939980D01*
X9038975Y46947546D01*
X11980504Y46947546D01*
X11996597Y46755908D01*
X11998161Y46747388D01*
X12051167Y46562531D01*
X12054356Y46554477D01*
X12142260Y46383435D01*
X12146955Y46376149D01*
X12176808Y46338484D01*
X12187702Y46331782D01*
X12192921Y46332553D01*
X12786772Y46926404D01*
X12792178Y46937997D01*
X12790277Y46945091D01*
X12196725Y47538643D01*
X12185132Y47544049D01*
X12179614Y47542570D01*
X12162966Y47522729D01*
X12158067Y47515575D01*
X12065424Y47347059D01*
X12062011Y47339096D01*
X12003861Y47155785D01*
X12002062Y47147319D01*
X11980625Y46956205D01*
X11980504Y46947546D01*
X9038975Y46947546D01*
X9020770Y47133217D01*
X9019085Y47141726D01*
X8963503Y47325822D01*
X8960205Y47333824D01*
X8869917Y47503633D01*
X8865125Y47510844D01*
X8843757Y47537044D01*
X8832767Y47543595D01*
X8827350Y47542718D01*
X8233228Y46948596D01*
X8227822Y46937003D01*
X7798365Y46937003D01*
X7196725Y47538643D01*
X7185132Y47544049D01*
X7179614Y47542570D01*
X7162966Y47522729D01*
X7158067Y47515575D01*
X7065424Y47347059D01*
X7062011Y47339096D01*
X7003861Y47155785D01*
X7002062Y47147319D01*
X6980625Y46956205D01*
X6980504Y46947546D01*
X6996597Y46755908D01*
X6998161Y46747388D01*
X7051167Y46562531D01*
X7054356Y46554477D01*
X7142259Y46383437D01*
X7146957Y46376146D01*
X7148386Y46374343D01*
X7148671Y46373487D01*
X7149312Y46372492D01*
X7149056Y46372327D01*
X7167597Y46316574D01*
X7149240Y46264888D01*
X7126861Y46235723D01*
X7115239Y46220576D01*
X7107302Y46210233D01*
X7085947Y46158678D01*
X7053979Y46081501D01*
X7012849Y46036616D01*
X6952491Y46028670D01*
X6901145Y46061380D01*
X6891626Y46076824D01*
X6873403Y46114520D01*
X6868134Y46122886D01*
X6762376Y46255368D01*
X6755368Y46262376D01*
X6622886Y46368134D01*
X6614520Y46373403D01*
X6461895Y46447185D01*
X6452557Y46450473D01*
X6355291Y46472929D01*
X6342594Y46471370D01*
X6340284Y46468893D01*
X6340000Y46467498D01*
X6340000Y45555694D01*
X6040000Y45555694D01*
X6040000Y46460765D01*
X6035624Y46472788D01*
X6032692Y46474481D01*
X6031270Y46474444D01*
X5927443Y46450473D01*
X5918105Y46447185D01*
X5765480Y46373403D01*
X5757114Y46368134D01*
X5624632Y46262376D01*
X5617624Y46255368D01*
X5511866Y46122886D01*
X5506597Y46114520D01*
X5432812Y45961889D01*
X5429528Y45952564D01*
X5391122Y45786210D01*
X5390067Y45778844D01*
X5390000Y45776508D01*
X5390000Y45555694D01*
X4440993Y45555694D01*
X3606567Y46390120D01*
X3580839Y46445296D01*
X3580500Y46453053D01*
X3580500Y47949908D01*
X3580796Y47953942D01*
X3582297Y47958314D01*
X3581567Y47977776D01*
X3580563Y48004505D01*
X3580500Y48007844D01*
X3580500Y48026090D01*
X3579749Y48030124D01*
X3579722Y48030414D01*
X3579408Y48035261D01*
X3578685Y48054522D01*
X3578377Y48062735D01*
X3573985Y48072959D01*
X3568265Y48091786D01*
X3567731Y48094652D01*
X3566227Y48102728D01*
X3553045Y48124113D01*
X3547045Y48135663D01*
X3537129Y48158743D01*
X3533383Y48163304D01*
X3529025Y48167662D01*
X3516197Y48183891D01*
X3511395Y48191682D01*
X3489528Y48208310D01*
X3480466Y48216221D01*
X2541788Y49154899D01*
X2516060Y49210075D01*
X2524865Y49257126D01*
X2571756Y49352420D01*
X2573745Y49356462D01*
X2589156Y49415624D01*
X2595733Y49440874D01*
X2995541Y49440874D01*
X3025935Y49239903D01*
X3027490Y49235676D01*
X3027491Y49235673D01*
X3050260Y49173790D01*
X3096119Y49049148D01*
X3203226Y48876401D01*
X3342881Y48728720D01*
X3509379Y48612137D01*
X3695919Y48531414D01*
X3700331Y48530492D01*
X3700335Y48530491D01*
X3813038Y48506947D01*
X3894880Y48489849D01*
X3901539Y48489500D01*
X4050800Y48489500D01*
X4140136Y48498574D01*
X4197729Y48504424D01*
X4197731Y48504424D01*
X4202216Y48504880D01*
X4390869Y48564000D01*
X4391868Y48564313D01*
X4391870Y48564314D01*
X4396172Y48565662D01*
X4573944Y48664203D01*
X4728271Y48796477D01*
X4852848Y48957081D01*
X4942587Y49139455D01*
X4953450Y49181156D01*
X4992686Y49331787D01*
X4993822Y49336148D01*
X4998216Y49420000D01*
X5004223Y49534619D01*
X5004223Y49534621D01*
X5004459Y49539126D01*
X4974065Y49740097D01*
X4971105Y49748144D01*
X4905437Y49926622D01*
X4903881Y49930852D01*
X4796774Y50103599D01*
X4657119Y50251280D01*
X4490621Y50367863D01*
X4304081Y50448586D01*
X4299669Y50449508D01*
X4299665Y50449509D01*
X4183527Y50473771D01*
X4105120Y50490151D01*
X4098461Y50490500D01*
X3949200Y50490500D01*
X3859864Y50481426D01*
X3802271Y50475576D01*
X3802269Y50475576D01*
X3797784Y50475120D01*
X3716059Y50449509D01*
X3608132Y50415687D01*
X3608130Y50415686D01*
X3603828Y50414338D01*
X3426056Y50315797D01*
X3271729Y50183523D01*
X3147152Y50022919D01*
X3057413Y49840545D01*
X3056278Y49836188D01*
X3056277Y49836185D01*
X3031248Y49740097D01*
X3006178Y49643852D01*
X3005942Y49639354D01*
X3005942Y49639352D01*
X2996055Y49450674D01*
X2995541Y49440874D01*
X2595733Y49440874D01*
X2622819Y49544863D01*
X2623955Y49549224D01*
X2624191Y49553724D01*
X2634144Y49743637D01*
X2634144Y49743639D01*
X2634380Y49748144D01*
X2606749Y49930852D01*
X2605268Y49940642D01*
X2605268Y49940643D01*
X2604594Y49945098D01*
X2565377Y50051687D01*
X2537370Y50127809D01*
X2537369Y50127812D01*
X2535813Y50132040D01*
X2430847Y50301333D01*
X2293983Y50446062D01*
X2130814Y50560314D01*
X1948003Y50639424D01*
X1943591Y50640346D01*
X1943587Y50640347D01*
X1929062Y50643381D01*
X1877321Y50675462D01*
X1858306Y50733296D01*
X1880915Y50789821D01*
X1934568Y50818590D01*
X1947262Y50819500D01*
X5965063Y50819500D01*
X6022271Y50798678D01*
G37*
%TD.AperFunction*%
%TA.AperFunction,NonConductor*%
G36*
X2130157Y38613156D02*
G01*
X4393433Y36349880D01*
X4419161Y36294704D01*
X4419500Y36286947D01*
X4419500Y34792053D01*
X4398678Y34734845D01*
X4345955Y34704405D01*
X4286000Y34714977D01*
X4267567Y34729120D01*
X2541788Y36454899D01*
X2516060Y36510075D01*
X2524865Y36557126D01*
X2571756Y36652420D01*
X2573745Y36656462D01*
X2623955Y36849224D01*
X2624191Y36853724D01*
X2634144Y37043637D01*
X2634144Y37043639D01*
X2634380Y37048144D01*
X2604594Y37245098D01*
X2535813Y37432040D01*
X2430847Y37601333D01*
X2293983Y37746062D01*
X2130814Y37860314D01*
X1948003Y37939424D01*
X1943591Y37940346D01*
X1943587Y37940347D01*
X1821350Y37965883D01*
X1753019Y37980158D01*
X1746493Y37980500D01*
X269500Y37980500D01*
X212292Y38001322D01*
X181852Y38054045D01*
X180500Y38069500D01*
X180500Y38470501D01*
X201322Y38527709D01*
X254045Y38558149D01*
X269500Y38559501D01*
X1453495Y38559501D01*
X1453507Y38559500D01*
X1699785Y38559500D01*
X1788707Y38568532D01*
X1843687Y38574117D01*
X1843689Y38574117D01*
X1848174Y38574573D01*
X2038252Y38634140D01*
X2038798Y38632399D01*
X2092954Y38635422D01*
X2130157Y38613156D01*
G37*
%TD.AperFunction*%
%TA.AperFunction,NonConductor*%
G36*
X2130157Y36073156D02*
G01*
X3843433Y34359880D01*
X3869161Y34304704D01*
X3869500Y34296947D01*
X3869500Y32802053D01*
X3848678Y32744845D01*
X3795955Y32714405D01*
X3736000Y32724977D01*
X3717567Y32739120D01*
X2541788Y33914899D01*
X2516060Y33970075D01*
X2524865Y34017126D01*
X2571756Y34112420D01*
X2573745Y34116462D01*
X2584742Y34158678D01*
X2622819Y34304863D01*
X2623955Y34309224D01*
X2631857Y34460000D01*
X2634144Y34503637D01*
X2634144Y34503639D01*
X2634380Y34508144D01*
X2632144Y34522933D01*
X2605268Y34700642D01*
X2605268Y34700643D01*
X2604594Y34705098D01*
X2565377Y34811687D01*
X2537370Y34887809D01*
X2537369Y34887812D01*
X2535813Y34892040D01*
X2430847Y35061333D01*
X2293983Y35206062D01*
X2130814Y35320314D01*
X1948003Y35399424D01*
X1943591Y35400346D01*
X1943587Y35400347D01*
X1809579Y35428342D01*
X1753019Y35440158D01*
X1746493Y35440500D01*
X269500Y35440500D01*
X212292Y35461322D01*
X181852Y35514045D01*
X180500Y35529500D01*
X180500Y35930501D01*
X201322Y35987709D01*
X254045Y36018149D01*
X269500Y36019501D01*
X1453495Y36019501D01*
X1453507Y36019500D01*
X1699785Y36019500D01*
X1788707Y36028532D01*
X1843687Y36034117D01*
X1843689Y36034117D01*
X1848174Y36034573D01*
X2038252Y36094140D01*
X2038798Y36092399D01*
X2092954Y36095422D01*
X2130157Y36073156D01*
G37*
%TD.AperFunction*%
%TA.AperFunction,NonConductor*%
G36*
X17214000Y15085023D02*
G01*
X17232433Y15070880D01*
X18326237Y13977076D01*
X18328879Y13974015D01*
X18330909Y13969862D01*
X18336933Y13964274D01*
X18364791Y13938432D01*
X18367197Y13936116D01*
X18374331Y13928982D01*
X18394051Y13894404D01*
X18395406Y13894902D01*
X18455218Y13732338D01*
X18464187Y13707960D01*
X18569153Y13538667D01*
X18706017Y13393938D01*
X18869186Y13279686D01*
X19051997Y13200576D01*
X19056409Y13199654D01*
X19056413Y13199653D01*
X19142366Y13181697D01*
X19246981Y13159842D01*
X19253507Y13159500D01*
X20730500Y13159500D01*
X20787708Y13138678D01*
X20818148Y13085955D01*
X20819500Y13070500D01*
X20819500Y12669499D01*
X20798678Y12612291D01*
X20745955Y12581851D01*
X20730500Y12580499D01*
X19546505Y12580499D01*
X19546493Y12580500D01*
X19300215Y12580500D01*
X19211293Y12571468D01*
X19156313Y12565883D01*
X19156311Y12565883D01*
X19151826Y12565427D01*
X19071796Y12540347D01*
X18966052Y12507209D01*
X18966050Y12507208D01*
X18961748Y12505860D01*
X18957803Y12503673D01*
X18791470Y12411474D01*
X18791467Y12411472D01*
X18787529Y12409289D01*
X18787306Y12409692D01*
X18731028Y12394823D01*
X18676163Y12420524D01*
X17106567Y13990120D01*
X17080839Y14045296D01*
X17080500Y14053053D01*
X17080500Y15007947D01*
X17101322Y15065155D01*
X17154045Y15095595D01*
X17214000Y15085023D01*
G37*
%TD.AperFunction*%
%TA.AperFunction,NonConductor*%
G36*
X18403552Y8758678D02*
G01*
X18429870Y8721231D01*
X18435788Y8705145D01*
X18461595Y8635006D01*
X18464187Y8627960D01*
X18569153Y8458667D01*
X18706017Y8313938D01*
X18869186Y8199686D01*
X19051997Y8120576D01*
X19056409Y8119654D01*
X19056413Y8119653D01*
X19166739Y8096605D01*
X19246981Y8079842D01*
X19253507Y8079500D01*
X20730500Y8079500D01*
X20787708Y8058678D01*
X20818148Y8005955D01*
X20819500Y7990500D01*
X20819500Y7589499D01*
X20798678Y7532291D01*
X20745955Y7501851D01*
X20730500Y7500499D01*
X19546505Y7500499D01*
X19546493Y7500500D01*
X19300215Y7500500D01*
X19211293Y7491468D01*
X19156313Y7485883D01*
X19156311Y7485883D01*
X19151826Y7485427D01*
X19071796Y7460347D01*
X18966052Y7427209D01*
X18966050Y7427208D01*
X18961748Y7425860D01*
X18833234Y7354624D01*
X18773106Y7345100D01*
X18727155Y7369532D01*
X17469120Y8627567D01*
X17443392Y8682743D01*
X17459148Y8741548D01*
X17509018Y8776467D01*
X17532053Y8779500D01*
X18346344Y8779500D01*
X18403552Y8758678D01*
G37*
%TD.AperFunction*%
M02*
