G04 #@! TF.GenerationSoftware,KiCad,Pcbnew,(6.0.7)*
G04 #@! TF.CreationDate,2022-09-22T23:06:15+05:30*
G04 #@! TF.ProjectId,Mitayi-Pico-RP2040,4d697461-7969-42d5-9069-636f2d525032,0.4*
G04 #@! TF.SameCoordinates,PX825e060PY6d4a840*
G04 #@! TF.FileFunction,AssemblyDrawing,Bot*
%FSLAX46Y46*%
G04 Gerber Fmt 4.6, Leading zero omitted, Abs format (unit mm)*
G04 Created by KiCad (PCBNEW (6.0.7)) date 2022-09-22 23:06:15*
%MOMM*%
%LPD*%
G01*
G04 APERTURE LIST*
%ADD10C,0.050000*%
%ADD11C,0.100000*%
G04 APERTURE END LIST*
D10*
X8770714Y32386429D02*
X9013571Y32386429D01*
X9042142Y32372143D01*
X9056428Y32357858D01*
X9070714Y32329286D01*
X9070714Y32272143D01*
X9056428Y32243572D01*
X9042142Y32229286D01*
X9013571Y32215000D01*
X8770714Y32215000D01*
X8913571Y31972143D02*
X8927857Y31929286D01*
X8942142Y31915000D01*
X8970714Y31900715D01*
X9013571Y31900715D01*
X9042142Y31915000D01*
X9056428Y31929286D01*
X9070714Y31957858D01*
X9070714Y32072143D01*
X8770714Y32072143D01*
X8770714Y31972143D01*
X8785000Y31943572D01*
X8799285Y31929286D01*
X8827857Y31915000D01*
X8856428Y31915000D01*
X8885000Y31929286D01*
X8899285Y31943572D01*
X8913571Y31972143D01*
X8913571Y32072143D01*
X8770714Y31772143D02*
X9013571Y31772143D01*
X9042142Y31757858D01*
X9056428Y31743572D01*
X9070714Y31715000D01*
X9070714Y31657858D01*
X9056428Y31629286D01*
X9042142Y31615000D01*
X9013571Y31600715D01*
X8770714Y31600715D01*
X8770714Y31500715D02*
X8770714Y31329286D01*
X9070714Y31415000D02*
X8770714Y31415000D01*
X9099285Y31300715D02*
X9099285Y31072143D01*
X9056428Y31015000D02*
X9070714Y30972143D01*
X9070714Y30900715D01*
X9056428Y30872143D01*
X9042142Y30857858D01*
X9013571Y30843572D01*
X8985000Y30843572D01*
X8956428Y30857858D01*
X8942142Y30872143D01*
X8927857Y30900715D01*
X8913571Y30957858D01*
X8899285Y30986429D01*
X8885000Y31000715D01*
X8856428Y31015000D01*
X8827857Y31015000D01*
X8799285Y31000715D01*
X8785000Y30986429D01*
X8770714Y30957858D01*
X8770714Y30886429D01*
X8785000Y30843572D01*
X8913571Y30715000D02*
X8913571Y30615000D01*
X9070714Y30572143D02*
X9070714Y30715000D01*
X8770714Y30715000D01*
X8770714Y30572143D01*
X9070714Y30300715D02*
X9070714Y30443572D01*
X8770714Y30443572D01*
X7600714Y31615000D02*
X7815000Y31615000D01*
X7857857Y31629286D01*
X7886428Y31657858D01*
X7900714Y31700715D01*
X7900714Y31729286D01*
X7900714Y31472143D02*
X7600714Y31472143D01*
X7600714Y31357858D01*
X7615000Y31329286D01*
X7629285Y31315000D01*
X7657857Y31300715D01*
X7700714Y31300715D01*
X7729285Y31315000D01*
X7743571Y31329286D01*
X7757857Y31357858D01*
X7757857Y31472143D01*
X7600714Y31043572D02*
X7600714Y31100715D01*
X7615000Y31129286D01*
X7629285Y31143572D01*
X7672142Y31172143D01*
X7729285Y31186429D01*
X7843571Y31186429D01*
X7872142Y31172143D01*
X7886428Y31157858D01*
X7900714Y31129286D01*
X7900714Y31072143D01*
X7886428Y31043572D01*
X7872142Y31029286D01*
X7843571Y31015000D01*
X7772142Y31015000D01*
X7743571Y31029286D01*
X7729285Y31043572D01*
X7715000Y31072143D01*
X7715000Y31129286D01*
X7729285Y31157858D01*
X7743571Y31172143D01*
X7772142Y31186429D01*
X16603571Y6830000D02*
X16603571Y6730000D01*
X16760714Y6687143D02*
X16760714Y6830000D01*
X16460714Y6830000D01*
X16460714Y6687143D01*
X16460714Y6587143D02*
X16760714Y6387143D01*
X16460714Y6387143D02*
X16760714Y6587143D01*
X16760714Y6272858D02*
X16460714Y6272858D01*
X16460714Y6158572D01*
X16475000Y6130000D01*
X16489285Y6115715D01*
X16517857Y6101429D01*
X16560714Y6101429D01*
X16589285Y6115715D01*
X16603571Y6130000D01*
X16617857Y6158572D01*
X16617857Y6272858D01*
X16589285Y5930000D02*
X16575000Y5958572D01*
X16560714Y5972858D01*
X16532142Y5987143D01*
X16517857Y5987143D01*
X16489285Y5972858D01*
X16475000Y5958572D01*
X16460714Y5930000D01*
X16460714Y5872858D01*
X16475000Y5844286D01*
X16489285Y5830000D01*
X16517857Y5815715D01*
X16532142Y5815715D01*
X16560714Y5830000D01*
X16575000Y5844286D01*
X16589285Y5872858D01*
X16589285Y5930000D01*
X16603571Y5958572D01*
X16617857Y5972858D01*
X16646428Y5987143D01*
X16703571Y5987143D01*
X16732142Y5972858D01*
X16746428Y5958572D01*
X16760714Y5930000D01*
X16760714Y5872858D01*
X16746428Y5844286D01*
X16732142Y5830000D01*
X16703571Y5815715D01*
X16646428Y5815715D01*
X16617857Y5830000D01*
X16603571Y5844286D01*
X16589285Y5872858D01*
X10585000Y6494286D02*
X10585000Y6280000D01*
X10599285Y6237143D01*
X10627857Y6208572D01*
X10670714Y6194286D01*
X10699285Y6194286D01*
X10285000Y6194286D02*
X10456428Y6194286D01*
X10370714Y6194286D02*
X10370714Y6494286D01*
X10399285Y6451429D01*
X10427857Y6422858D01*
X10456428Y6408572D01*
X19545714Y23864286D02*
X19245714Y23864286D01*
X19388571Y23864286D02*
X19388571Y23692858D01*
X19545714Y23692858D02*
X19245714Y23692858D01*
X19531428Y23435715D02*
X19545714Y23464286D01*
X19545714Y23521429D01*
X19531428Y23550000D01*
X19502857Y23564286D01*
X19388571Y23564286D01*
X19360000Y23550000D01*
X19345714Y23521429D01*
X19345714Y23464286D01*
X19360000Y23435715D01*
X19388571Y23421429D01*
X19417142Y23421429D01*
X19445714Y23564286D01*
X19545714Y23164286D02*
X19388571Y23164286D01*
X19360000Y23178572D01*
X19345714Y23207143D01*
X19345714Y23264286D01*
X19360000Y23292858D01*
X19531428Y23164286D02*
X19545714Y23192858D01*
X19545714Y23264286D01*
X19531428Y23292858D01*
X19502857Y23307143D01*
X19474285Y23307143D01*
X19445714Y23292858D01*
X19431428Y23264286D01*
X19431428Y23192858D01*
X19417142Y23164286D01*
X19545714Y22892858D02*
X19245714Y22892858D01*
X19531428Y22892858D02*
X19545714Y22921429D01*
X19545714Y22978572D01*
X19531428Y23007143D01*
X19517142Y23021429D01*
X19488571Y23035715D01*
X19402857Y23035715D01*
X19374285Y23021429D01*
X19360000Y23007143D01*
X19345714Y22978572D01*
X19345714Y22921429D01*
X19360000Y22892858D01*
X19531428Y22635715D02*
X19545714Y22664286D01*
X19545714Y22721429D01*
X19531428Y22750000D01*
X19502857Y22764286D01*
X19388571Y22764286D01*
X19360000Y22750000D01*
X19345714Y22721429D01*
X19345714Y22664286D01*
X19360000Y22635715D01*
X19388571Y22621429D01*
X19417142Y22621429D01*
X19445714Y22764286D01*
X19545714Y22492858D02*
X19345714Y22492858D01*
X19402857Y22492858D02*
X19374285Y22478572D01*
X19360000Y22464286D01*
X19345714Y22435715D01*
X19345714Y22407143D01*
X19574285Y22378572D02*
X19574285Y22150000D01*
X19274285Y22092858D02*
X19260000Y22078572D01*
X19245714Y22050000D01*
X19245714Y21978572D01*
X19260000Y21950000D01*
X19274285Y21935715D01*
X19302857Y21921429D01*
X19331428Y21921429D01*
X19374285Y21935715D01*
X19545714Y22107143D01*
X19545714Y21921429D01*
X19235714Y25670000D02*
X19450000Y25670000D01*
X19492857Y25684286D01*
X19521428Y25712858D01*
X19535714Y25755715D01*
X19535714Y25784286D01*
X19335714Y25398572D02*
X19535714Y25398572D01*
X19221428Y25470000D02*
X19435714Y25541429D01*
X19435714Y25355715D01*
D11*
X8235000Y32465000D02*
X7295000Y32465000D01*
X7295000Y30265000D02*
X8235000Y30265000D01*
X8235000Y30265000D02*
X8235000Y32465000D01*
X7295000Y32465000D02*
X7295000Y30265000D01*
X15565000Y3790000D02*
X15565000Y8870000D01*
X5405000Y3790000D02*
X15565000Y3790000D01*
X6675000Y8870000D02*
X5405000Y7600000D01*
X15565000Y8870000D02*
X6675000Y8870000D01*
X5405000Y7600000D02*
X5405000Y3790000D01*
X18130000Y50970000D02*
X18130000Y170000D01*
X20670000Y50335000D02*
X20035000Y50970000D01*
X18130000Y170000D02*
X20670000Y170000D01*
X20035000Y50970000D02*
X18130000Y50970000D01*
X20670000Y170000D02*
X20670000Y50335000D01*
M02*
