M48
; DRILL file {KiCad (6.0.7)} date Thu Sep 22 23:06:19 2022
; FORMAT={-:-/ absolute / metric / decimal}
; #@! TF.CreationDate,2022-09-22T23:06:19+05:30
; #@! TF.GenerationSoftware,Kicad,Pcbnew,(6.0.7)
; #@! TF.FileFunction,Plated,1,2,PTH
FMAT,2
METRIC
; #@! TA.AperFunction,Plated,PTH,ViaDrill
T1C0.200
; #@! TA.AperFunction,Plated,PTH,ViaDrill
T2C0.254
; #@! TA.AperFunction,Plated,PTH,ComponentDrill
T3C0.350
; #@! TA.AperFunction,Plated,PTH,ComponentDrill
T4C0.600
; #@! TA.AperFunction,Plated,PTH,ComponentDrill
T5C0.850
; #@! TA.AperFunction,Plated,PTH,ComponentDrill
T6C1.000
%
G90
G05
T1
X2.5Y5.3
X2.6Y20.4
X2.6Y17.9
X2.6Y15.2
X2.6Y13.0
X2.6Y10.3
X2.6Y8.1
X3.0Y44.5
X3.1Y36.6
X3.1Y34.4
X3.8Y12.0
X4.1Y10.55
X4.2Y38.3
X4.298Y23.598
X4.4Y12.6
X4.75Y24.75
X4.935Y23.929
X5.26Y25.06
X5.55Y29.05
X5.6Y47.5
X5.6Y2.7
X5.6Y1.8
X5.6Y0.9
X5.9Y25.2
X6.1Y22.53
X6.25Y25.7
X6.5Y26.4
X6.7Y18.6
X6.9Y28.3
X6.9Y20.2
X6.901Y31.25
X6.901Y29.25
X7.0Y41.2
X7.05Y33.05
X7.4Y14.3
X7.5Y16.15
X7.55Y17.85
X7.95Y28.5
X8.2Y38.5
X8.2Y37.8
X8.2Y37.1
X8.5Y45.7
X8.5Y15.4
X8.6Y35.2
X8.6Y28.4
X8.6Y21.4
X8.6Y11.1
X9.0Y10.7
X9.1Y26.1
X9.3Y28.4
X9.601Y35.2
X9.8Y11.7
X9.986Y26.27
X10.1Y38.4
X10.1Y28.4
X10.2Y6.3
X10.8Y26.0
X11.1Y38.4
X11.6Y39.8
X11.8Y39.0
X11.8Y36.6
X11.8Y32.3
X12.0Y45.7
X12.156Y17.256
X12.3Y10.9
X12.7Y21.2
X13.186Y18.493
X13.3Y28.7
X13.3Y21.5
X13.4Y36.3
X13.7Y6.3
X13.712Y19.318
X13.75Y17.5
X13.9Y36.3
X13.9Y9.4
X13.95Y28.3
X14.0Y20.5
X14.2Y18.5
X14.4Y36.3
X14.5Y38.3
X14.7Y18.2
X14.8Y40.3
X14.9Y36.3
X15.0Y38.3
X15.1Y28.4
X15.3Y22.0
X15.3Y2.7
X15.3Y1.8
X15.3Y0.9
X15.7Y26.8
X16.1Y13.3
X16.75Y22.0
X17.0Y30.9
X17.05Y22.8
X17.3Y23.4
X17.8Y23.75
X18.1Y34.0
X18.3Y2.8
X18.5Y15.4
X18.5Y10.3
X18.6Y43.3
X18.6Y40.9
X18.6Y23.1
X18.6Y18.0
X18.9Y5.2
T2
X14.8Y39.3
X15.4Y35.3
X16.1Y20.8
X16.2Y28.5
T3
X9.545Y24.905
X9.545Y23.63
X9.545Y22.355
X10.82Y24.905
X10.82Y23.63
X10.82Y22.355
X12.095Y24.905
X12.095Y23.63
X12.095Y22.355
T5
X8.01Y46.938
X13.01Y46.938
T6
X-0.01Y49.7
X-0.01Y47.16
X-0.01Y44.62
X-0.01Y42.08
X-0.01Y39.54
X-0.01Y37.0
X-0.01Y34.46
X-0.01Y31.92
X-0.01Y29.38
X-0.01Y26.84
X-0.01Y24.3
X-0.01Y21.76
X-0.01Y19.22
X-0.01Y16.68
X-0.01Y14.14
X-0.01Y11.6
X-0.01Y9.06
X-0.01Y6.52
X-0.01Y3.98
X-0.01Y1.44
X1.6Y49.7
X1.6Y47.16
X1.6Y44.62
X1.6Y42.08
X1.6Y39.54
X1.6Y37.0
X1.6Y34.46
X1.6Y31.92
X1.6Y29.38
X1.6Y26.84
X1.6Y24.3
X1.6Y21.76
X1.6Y19.22
X1.6Y16.68
X1.6Y14.14
X1.6Y11.6
X1.6Y9.06
X1.6Y6.52
X1.6Y3.98
X1.6Y1.44
X6.675Y7.6
X6.675Y5.06
X7.95Y1.6
X7.95Y-0.01
X9.215Y7.6
X9.215Y5.06
X10.49Y1.6
X10.49Y-0.01
X11.755Y7.6
X11.755Y5.06
X13.03Y1.6
X13.03Y-0.01
X14.295Y7.6
X14.295Y5.06
X19.4Y49.7
X19.4Y47.16
X19.4Y44.62
X19.4Y42.08
X19.4Y39.54
X19.4Y37.0
X19.4Y34.46
X19.4Y31.92
X19.4Y29.38
X19.4Y26.84
X19.4Y24.3
X19.4Y21.76
X19.4Y19.22
X19.4Y16.68
X19.4Y14.14
X19.4Y11.6
X19.4Y9.06
X19.4Y6.52
X19.4Y3.98
X19.4Y1.44
X21.01Y49.7
X21.01Y47.16
X21.01Y44.62
X21.01Y42.08
X21.01Y39.54
X21.01Y37.0
X21.01Y34.46
X21.01Y31.92
X21.01Y29.38
X21.01Y26.84
X21.01Y24.3
X21.01Y21.76
X21.01Y19.22
X21.01Y16.68
X21.01Y14.14
X21.01Y11.6
X21.01Y9.06
X21.01Y6.52
X21.01Y3.98
X21.01Y1.44
T4
G00X6.19Y49.27
M15
G01X6.19Y49.87
M16
G05
G00X6.19Y45.09
M15
G01X6.19Y45.69
M16
G05
G00X7.01Y49.287
M15
G01X7.01Y49.987
M16
G05
G00X14.01Y49.987
M15
G01X14.01Y49.287
M16
G05
G00X14.83Y49.27
M15
G01X14.83Y49.87
M16
G05
G00X14.83Y45.09
M15
G01X14.83Y45.69
M16
G05
T0
M30
