G04 #@! TF.GenerationSoftware,KiCad,Pcbnew,(6.0.7)*
G04 #@! TF.CreationDate,2022-09-22T23:06:15+05:30*
G04 #@! TF.ProjectId,Mitayi-Pico-RP2040,4d697461-7969-42d5-9069-636f2d525032,0.4*
G04 #@! TF.SameCoordinates,PX825e060PY6d4a840*
G04 #@! TF.FileFunction,OtherDrawing,Comment*
%FSLAX46Y46*%
G04 Gerber Fmt 4.6, Leading zero omitted, Abs format (unit mm)*
G04 Created by KiCad (PCBNEW (6.0.7)) date 2022-09-22 23:06:15*
%MOMM*%
%LPD*%
G01*
G04 APERTURE LIST*
%ADD10C,0.100000*%
%ADD11C,0.150000*%
%ADD12C,0.080000*%
%ADD13C,0.020000*%
G04 APERTURE END LIST*
D10*
X10500000Y54600000D02*
X10500000Y-4000000D01*
D11*
X6452380Y-5702380D02*
X5880952Y-5702380D01*
X6166666Y-5702380D02*
X6166666Y-4702380D01*
X6071428Y-4845238D01*
X5976190Y-4940476D01*
X5880952Y-4988095D01*
X6785714Y-4702380D02*
X7404761Y-4702380D01*
X7071428Y-5083333D01*
X7214285Y-5083333D01*
X7309523Y-5130952D01*
X7357142Y-5178571D01*
X7404761Y-5273809D01*
X7404761Y-5511904D01*
X7357142Y-5607142D01*
X7309523Y-5654761D01*
X7214285Y-5702380D01*
X6928571Y-5702380D01*
X6833333Y-5654761D01*
X6785714Y-5607142D01*
X7833333Y-5607142D02*
X7880952Y-5654761D01*
X7833333Y-5702380D01*
X7785714Y-5654761D01*
X7833333Y-5607142D01*
X7833333Y-5702380D01*
X8500000Y-4702380D02*
X8595238Y-4702380D01*
X8690476Y-4750000D01*
X8738095Y-4797619D01*
X8785714Y-4892857D01*
X8833333Y-5083333D01*
X8833333Y-5321428D01*
X8785714Y-5511904D01*
X8738095Y-5607142D01*
X8690476Y-5654761D01*
X8595238Y-5702380D01*
X8500000Y-5702380D01*
X8404761Y-5654761D01*
X8357142Y-5607142D01*
X8309523Y-5511904D01*
X8261904Y-5321428D01*
X8261904Y-5083333D01*
X8309523Y-4892857D01*
X8357142Y-4797619D01*
X8404761Y-4750000D01*
X8500000Y-4702380D01*
X9452380Y-4702380D02*
X9547619Y-4702380D01*
X9642857Y-4750000D01*
X9690476Y-4797619D01*
X9738095Y-4892857D01*
X9785714Y-5083333D01*
X9785714Y-5321428D01*
X9738095Y-5511904D01*
X9690476Y-5607142D01*
X9642857Y-5654761D01*
X9547619Y-5702380D01*
X9452380Y-5702380D01*
X9357142Y-5654761D01*
X9309523Y-5607142D01*
X9261904Y-5511904D01*
X9214285Y-5321428D01*
X9214285Y-5083333D01*
X9261904Y-4892857D01*
X9309523Y-4797619D01*
X9357142Y-4750000D01*
X9452380Y-4702380D01*
X10404761Y-4702380D02*
X10500000Y-4702380D01*
X10595238Y-4750000D01*
X10642857Y-4797619D01*
X10690476Y-4892857D01*
X10738095Y-5083333D01*
X10738095Y-5321428D01*
X10690476Y-5511904D01*
X10642857Y-5607142D01*
X10595238Y-5654761D01*
X10500000Y-5702380D01*
X10404761Y-5702380D01*
X10309523Y-5654761D01*
X10261904Y-5607142D01*
X10214285Y-5511904D01*
X10166666Y-5321428D01*
X10166666Y-5083333D01*
X10214285Y-4892857D01*
X10261904Y-4797619D01*
X10309523Y-4750000D01*
X10404761Y-4702380D01*
X11357142Y-4702380D02*
X11452380Y-4702380D01*
X11547619Y-4750000D01*
X11595238Y-4797619D01*
X11642857Y-4892857D01*
X11690476Y-5083333D01*
X11690476Y-5321428D01*
X11642857Y-5511904D01*
X11595238Y-5607142D01*
X11547619Y-5654761D01*
X11452380Y-5702380D01*
X11357142Y-5702380D01*
X11261904Y-5654761D01*
X11214285Y-5607142D01*
X11166666Y-5511904D01*
X11119047Y-5321428D01*
X11119047Y-5083333D01*
X11166666Y-4892857D01*
X11214285Y-4797619D01*
X11261904Y-4750000D01*
X11357142Y-4702380D01*
X12880952Y-5702380D02*
X12880952Y-5035714D01*
X12880952Y-5130952D02*
X12928571Y-5083333D01*
X13023809Y-5035714D01*
X13166666Y-5035714D01*
X13261904Y-5083333D01*
X13309523Y-5178571D01*
X13309523Y-5702380D01*
X13309523Y-5178571D02*
X13357142Y-5083333D01*
X13452380Y-5035714D01*
X13595238Y-5035714D01*
X13690476Y-5083333D01*
X13738095Y-5178571D01*
X13738095Y-5702380D01*
X14214285Y-5702380D02*
X14214285Y-5035714D01*
X14214285Y-5130952D02*
X14261904Y-5083333D01*
X14357142Y-5035714D01*
X14500000Y-5035714D01*
X14595238Y-5083333D01*
X14642857Y-5178571D01*
X14642857Y-5702380D01*
X14642857Y-5178571D02*
X14690476Y-5083333D01*
X14785714Y-5035714D01*
X14928571Y-5035714D01*
X15023809Y-5083333D01*
X15071428Y-5178571D01*
X15071428Y-5702380D01*
X4000000Y990000D02*
X4000000Y-6986420D01*
X17000000Y990000D02*
X17000000Y-6986420D01*
X4000000Y-6400000D02*
X17000000Y-6400000D01*
X4000000Y-6400000D02*
X17000000Y-6400000D01*
X4000000Y-6400000D02*
X5126504Y-6986421D01*
X4000000Y-6400000D02*
X5126504Y-5813579D01*
X17000000Y-6400000D02*
X15873496Y-5813579D01*
X17000000Y-6400000D02*
X15873496Y-6986421D01*
X5880952Y57102381D02*
X5928571Y57150000D01*
X6023809Y57197620D01*
X6261904Y57197620D01*
X6357142Y57150000D01*
X6404761Y57102381D01*
X6452380Y57007143D01*
X6452380Y56911905D01*
X6404761Y56769048D01*
X5833333Y56197620D01*
X6452380Y56197620D01*
X7404761Y56197620D02*
X6833333Y56197620D01*
X7119047Y56197620D02*
X7119047Y57197620D01*
X7023809Y57054762D01*
X6928571Y56959524D01*
X6833333Y56911905D01*
X7833333Y56292858D02*
X7880952Y56245239D01*
X7833333Y56197620D01*
X7785714Y56245239D01*
X7833333Y56292858D01*
X7833333Y56197620D01*
X8500000Y57197620D02*
X8595238Y57197620D01*
X8690476Y57150000D01*
X8738095Y57102381D01*
X8785714Y57007143D01*
X8833333Y56816667D01*
X8833333Y56578572D01*
X8785714Y56388096D01*
X8738095Y56292858D01*
X8690476Y56245239D01*
X8595238Y56197620D01*
X8500000Y56197620D01*
X8404761Y56245239D01*
X8357142Y56292858D01*
X8309523Y56388096D01*
X8261904Y56578572D01*
X8261904Y56816667D01*
X8309523Y57007143D01*
X8357142Y57102381D01*
X8404761Y57150000D01*
X8500000Y57197620D01*
X9452380Y57197620D02*
X9547619Y57197620D01*
X9642857Y57150000D01*
X9690476Y57102381D01*
X9738095Y57007143D01*
X9785714Y56816667D01*
X9785714Y56578572D01*
X9738095Y56388096D01*
X9690476Y56292858D01*
X9642857Y56245239D01*
X9547619Y56197620D01*
X9452380Y56197620D01*
X9357142Y56245239D01*
X9309523Y56292858D01*
X9261904Y56388096D01*
X9214285Y56578572D01*
X9214285Y56816667D01*
X9261904Y57007143D01*
X9309523Y57102381D01*
X9357142Y57150000D01*
X9452380Y57197620D01*
X10404761Y57197620D02*
X10500000Y57197620D01*
X10595238Y57150000D01*
X10642857Y57102381D01*
X10690476Y57007143D01*
X10738095Y56816667D01*
X10738095Y56578572D01*
X10690476Y56388096D01*
X10642857Y56292858D01*
X10595238Y56245239D01*
X10500000Y56197620D01*
X10404761Y56197620D01*
X10309523Y56245239D01*
X10261904Y56292858D01*
X10214285Y56388096D01*
X10166666Y56578572D01*
X10166666Y56816667D01*
X10214285Y57007143D01*
X10261904Y57102381D01*
X10309523Y57150000D01*
X10404761Y57197620D01*
X11357142Y57197620D02*
X11452380Y57197620D01*
X11547619Y57150000D01*
X11595238Y57102381D01*
X11642857Y57007143D01*
X11690476Y56816667D01*
X11690476Y56578572D01*
X11642857Y56388096D01*
X11595238Y56292858D01*
X11547619Y56245239D01*
X11452380Y56197620D01*
X11357142Y56197620D01*
X11261904Y56245239D01*
X11214285Y56292858D01*
X11166666Y56388096D01*
X11119047Y56578572D01*
X11119047Y56816667D01*
X11166666Y57007143D01*
X11214285Y57102381D01*
X11261904Y57150000D01*
X11357142Y57197620D01*
X12880952Y56197620D02*
X12880952Y56864286D01*
X12880952Y56769048D02*
X12928571Y56816667D01*
X13023809Y56864286D01*
X13166666Y56864286D01*
X13261904Y56816667D01*
X13309523Y56721429D01*
X13309523Y56197620D01*
X13309523Y56721429D02*
X13357142Y56816667D01*
X13452380Y56864286D01*
X13595238Y56864286D01*
X13690476Y56816667D01*
X13738095Y56721429D01*
X13738095Y56197620D01*
X14214285Y56197620D02*
X14214285Y56864286D01*
X14214285Y56769048D02*
X14261904Y56816667D01*
X14357142Y56864286D01*
X14500000Y56864286D01*
X14595238Y56816667D01*
X14642857Y56721429D01*
X14642857Y56197620D01*
X14642857Y56721429D02*
X14690476Y56816667D01*
X14785714Y56864286D01*
X14928571Y56864286D01*
X15023809Y56816667D01*
X15071428Y56721429D01*
X15071428Y56197620D01*
X0Y51500000D02*
X0Y56086420D01*
X21000000Y51500000D02*
X21000000Y56086420D01*
X0Y55500000D02*
X21000000Y55500000D01*
X0Y55500000D02*
X21000000Y55500000D01*
X0Y55500000D02*
X1126504Y54913579D01*
X0Y55500000D02*
X1126504Y56086421D01*
X21000000Y55500000D02*
X19873496Y56086421D01*
X21000000Y55500000D02*
X19873496Y54913579D01*
X25102380Y21404762D02*
X25102380Y20928572D01*
X25578571Y20880953D01*
X25530952Y20928572D01*
X25483333Y21023810D01*
X25483333Y21261905D01*
X25530952Y21357143D01*
X25578571Y21404762D01*
X25673809Y21452381D01*
X25911904Y21452381D01*
X26007142Y21404762D01*
X26054761Y21357143D01*
X26102380Y21261905D01*
X26102380Y21023810D01*
X26054761Y20928572D01*
X26007142Y20880953D01*
X26102380Y22404762D02*
X26102380Y21833334D01*
X26102380Y22119048D02*
X25102380Y22119048D01*
X25245238Y22023810D01*
X25340476Y21928572D01*
X25388095Y21833334D01*
X26007142Y22833334D02*
X26054761Y22880953D01*
X26102380Y22833334D01*
X26054761Y22785715D01*
X26007142Y22833334D01*
X26102380Y22833334D01*
X25102380Y23500000D02*
X25102380Y23595239D01*
X25150000Y23690477D01*
X25197619Y23738096D01*
X25292857Y23785715D01*
X25483333Y23833334D01*
X25721428Y23833334D01*
X25911904Y23785715D01*
X26007142Y23738096D01*
X26054761Y23690477D01*
X26102380Y23595239D01*
X26102380Y23500000D01*
X26054761Y23404762D01*
X26007142Y23357143D01*
X25911904Y23309524D01*
X25721428Y23261905D01*
X25483333Y23261905D01*
X25292857Y23309524D01*
X25197619Y23357143D01*
X25150000Y23404762D01*
X25102380Y23500000D01*
X25102380Y24452381D02*
X25102380Y24547620D01*
X25150000Y24642858D01*
X25197619Y24690477D01*
X25292857Y24738096D01*
X25483333Y24785715D01*
X25721428Y24785715D01*
X25911904Y24738096D01*
X26007142Y24690477D01*
X26054761Y24642858D01*
X26102380Y24547620D01*
X26102380Y24452381D01*
X26054761Y24357143D01*
X26007142Y24309524D01*
X25911904Y24261905D01*
X25721428Y24214286D01*
X25483333Y24214286D01*
X25292857Y24261905D01*
X25197619Y24309524D01*
X25150000Y24357143D01*
X25102380Y24452381D01*
X25102380Y25404762D02*
X25102380Y25500000D01*
X25150000Y25595239D01*
X25197619Y25642858D01*
X25292857Y25690477D01*
X25483333Y25738096D01*
X25721428Y25738096D01*
X25911904Y25690477D01*
X26007142Y25642858D01*
X26054761Y25595239D01*
X26102380Y25500000D01*
X26102380Y25404762D01*
X26054761Y25309524D01*
X26007142Y25261905D01*
X25911904Y25214286D01*
X25721428Y25166667D01*
X25483333Y25166667D01*
X25292857Y25214286D01*
X25197619Y25261905D01*
X25150000Y25309524D01*
X25102380Y25404762D01*
X25102380Y26357143D02*
X25102380Y26452381D01*
X25150000Y26547620D01*
X25197619Y26595239D01*
X25292857Y26642858D01*
X25483333Y26690477D01*
X25721428Y26690477D01*
X25911904Y26642858D01*
X26007142Y26595239D01*
X26054761Y26547620D01*
X26102380Y26452381D01*
X26102380Y26357143D01*
X26054761Y26261905D01*
X26007142Y26214286D01*
X25911904Y26166667D01*
X25721428Y26119048D01*
X25483333Y26119048D01*
X25292857Y26166667D01*
X25197619Y26214286D01*
X25150000Y26261905D01*
X25102380Y26357143D01*
X26102380Y27880953D02*
X25435714Y27880953D01*
X25530952Y27880953D02*
X25483333Y27928572D01*
X25435714Y28023810D01*
X25435714Y28166667D01*
X25483333Y28261905D01*
X25578571Y28309524D01*
X26102380Y28309524D01*
X25578571Y28309524D02*
X25483333Y28357143D01*
X25435714Y28452381D01*
X25435714Y28595239D01*
X25483333Y28690477D01*
X25578571Y28738096D01*
X26102380Y28738096D01*
X26102380Y29214286D02*
X25435714Y29214286D01*
X25530952Y29214286D02*
X25483333Y29261905D01*
X25435714Y29357143D01*
X25435714Y29500000D01*
X25483333Y29595239D01*
X25578571Y29642858D01*
X26102380Y29642858D01*
X25578571Y29642858D02*
X25483333Y29690477D01*
X25435714Y29785715D01*
X25435714Y29928572D01*
X25483333Y30023810D01*
X25578571Y30071429D01*
X26102380Y30071429D01*
X21500000Y51000000D02*
X27386420Y51000000D01*
X21500000Y0D02*
X27386420Y0D01*
X26800000Y51000000D02*
X26800000Y0D01*
X26800000Y51000000D02*
X26800000Y0D01*
X26800000Y51000000D02*
X26213579Y49873496D01*
X26800000Y51000000D02*
X27386421Y49873496D01*
X26800000Y0D02*
X27386421Y1126504D01*
X26800000Y0D02*
X26213579Y1126504D01*
X-5764286Y21347143D02*
X-5097620Y21347143D01*
X-6145239Y21109048D02*
X-5430953Y20870953D01*
X-5430953Y21490000D01*
X-5669048Y22013810D02*
X-5716667Y21918572D01*
X-5764286Y21870953D01*
X-5859524Y21823334D01*
X-5907143Y21823334D01*
X-6002381Y21870953D01*
X-6050000Y21918572D01*
X-6097620Y22013810D01*
X-6097620Y22204286D01*
X-6050000Y22299524D01*
X-6002381Y22347143D01*
X-5907143Y22394762D01*
X-5859524Y22394762D01*
X-5764286Y22347143D01*
X-5716667Y22299524D01*
X-5669048Y22204286D01*
X-5669048Y22013810D01*
X-5621429Y21918572D01*
X-5573810Y21870953D01*
X-5478572Y21823334D01*
X-5288096Y21823334D01*
X-5192858Y21870953D01*
X-5145239Y21918572D01*
X-5097620Y22013810D01*
X-5097620Y22204286D01*
X-5145239Y22299524D01*
X-5192858Y22347143D01*
X-5288096Y22394762D01*
X-5478572Y22394762D01*
X-5573810Y22347143D01*
X-5621429Y22299524D01*
X-5669048Y22204286D01*
X-5192858Y22823334D02*
X-5145239Y22870953D01*
X-5097620Y22823334D01*
X-5145239Y22775715D01*
X-5192858Y22823334D01*
X-5097620Y22823334D01*
X-6097620Y23490000D02*
X-6097620Y23585239D01*
X-6050000Y23680477D01*
X-6002381Y23728096D01*
X-5907143Y23775715D01*
X-5716667Y23823334D01*
X-5478572Y23823334D01*
X-5288096Y23775715D01*
X-5192858Y23728096D01*
X-5145239Y23680477D01*
X-5097620Y23585239D01*
X-5097620Y23490000D01*
X-5145239Y23394762D01*
X-5192858Y23347143D01*
X-5288096Y23299524D01*
X-5478572Y23251905D01*
X-5716667Y23251905D01*
X-5907143Y23299524D01*
X-6002381Y23347143D01*
X-6050000Y23394762D01*
X-6097620Y23490000D01*
X-6097620Y24442381D02*
X-6097620Y24537620D01*
X-6050000Y24632858D01*
X-6002381Y24680477D01*
X-5907143Y24728096D01*
X-5716667Y24775715D01*
X-5478572Y24775715D01*
X-5288096Y24728096D01*
X-5192858Y24680477D01*
X-5145239Y24632858D01*
X-5097620Y24537620D01*
X-5097620Y24442381D01*
X-5145239Y24347143D01*
X-5192858Y24299524D01*
X-5288096Y24251905D01*
X-5478572Y24204286D01*
X-5716667Y24204286D01*
X-5907143Y24251905D01*
X-6002381Y24299524D01*
X-6050000Y24347143D01*
X-6097620Y24442381D01*
X-6097620Y25394762D02*
X-6097620Y25490000D01*
X-6050000Y25585239D01*
X-6002381Y25632858D01*
X-5907143Y25680477D01*
X-5716667Y25728096D01*
X-5478572Y25728096D01*
X-5288096Y25680477D01*
X-5192858Y25632858D01*
X-5145239Y25585239D01*
X-5097620Y25490000D01*
X-5097620Y25394762D01*
X-5145239Y25299524D01*
X-5192858Y25251905D01*
X-5288096Y25204286D01*
X-5478572Y25156667D01*
X-5716667Y25156667D01*
X-5907143Y25204286D01*
X-6002381Y25251905D01*
X-6050000Y25299524D01*
X-6097620Y25394762D01*
X-6097620Y26347143D02*
X-6097620Y26442381D01*
X-6050000Y26537620D01*
X-6002381Y26585239D01*
X-5907143Y26632858D01*
X-5716667Y26680477D01*
X-5478572Y26680477D01*
X-5288096Y26632858D01*
X-5192858Y26585239D01*
X-5145239Y26537620D01*
X-5097620Y26442381D01*
X-5097620Y26347143D01*
X-5145239Y26251905D01*
X-5192858Y26204286D01*
X-5288096Y26156667D01*
X-5478572Y26109048D01*
X-5716667Y26109048D01*
X-5907143Y26156667D01*
X-6002381Y26204286D01*
X-6050000Y26251905D01*
X-6097620Y26347143D01*
X-5097620Y27870953D02*
X-5764286Y27870953D01*
X-5669048Y27870953D02*
X-5716667Y27918572D01*
X-5764286Y28013810D01*
X-5764286Y28156667D01*
X-5716667Y28251905D01*
X-5621429Y28299524D01*
X-5097620Y28299524D01*
X-5621429Y28299524D02*
X-5716667Y28347143D01*
X-5764286Y28442381D01*
X-5764286Y28585239D01*
X-5716667Y28680477D01*
X-5621429Y28728096D01*
X-5097620Y28728096D01*
X-5097620Y29204286D02*
X-5764286Y29204286D01*
X-5669048Y29204286D02*
X-5716667Y29251905D01*
X-5764286Y29347143D01*
X-5764286Y29490000D01*
X-5716667Y29585239D01*
X-5621429Y29632858D01*
X-5097620Y29632858D01*
X-5621429Y29632858D02*
X-5716667Y29680477D01*
X-5764286Y29775715D01*
X-5764286Y29918572D01*
X-5716667Y30013810D01*
X-5621429Y30061429D01*
X-5097620Y30061429D01*
X3500000Y49490000D02*
X-4986420Y49490000D01*
X3500000Y1490000D02*
X-4986420Y1490000D01*
X-4400000Y49490000D02*
X-4400000Y1490000D01*
X-4400000Y49490000D02*
X-4400000Y1490000D01*
X-4400000Y49490000D02*
X-4986421Y48363496D01*
X-4400000Y49490000D02*
X-3813579Y48363496D01*
X-4400000Y1490000D02*
X-3813579Y2616504D01*
X-4400000Y1490000D02*
X-4986421Y2616504D01*
D12*
X8795714Y50861310D02*
X8795714Y51361310D01*
X8986190Y51361310D01*
X9033809Y51337500D01*
X9057619Y51313691D01*
X9081428Y51266072D01*
X9081428Y51194643D01*
X9057619Y51147024D01*
X9033809Y51123215D01*
X8986190Y51099405D01*
X8795714Y51099405D01*
X9581428Y50908929D02*
X9557619Y50885120D01*
X9486190Y50861310D01*
X9438571Y50861310D01*
X9367142Y50885120D01*
X9319523Y50932739D01*
X9295714Y50980358D01*
X9271904Y51075596D01*
X9271904Y51147024D01*
X9295714Y51242262D01*
X9319523Y51289881D01*
X9367142Y51337500D01*
X9438571Y51361310D01*
X9486190Y51361310D01*
X9557619Y51337500D01*
X9581428Y51313691D01*
X9962380Y51123215D02*
X10033809Y51099405D01*
X10057619Y51075596D01*
X10081428Y51027977D01*
X10081428Y50956548D01*
X10057619Y50908929D01*
X10033809Y50885120D01*
X9986190Y50861310D01*
X9795714Y50861310D01*
X9795714Y51361310D01*
X9962380Y51361310D01*
X10010000Y51337500D01*
X10033809Y51313691D01*
X10057619Y51266072D01*
X10057619Y51218453D01*
X10033809Y51170834D01*
X10010000Y51147024D01*
X9962380Y51123215D01*
X9795714Y51123215D01*
X10676666Y51123215D02*
X10843333Y51123215D01*
X10914761Y50861310D02*
X10676666Y50861310D01*
X10676666Y51361310D01*
X10914761Y51361310D01*
X11343333Y50861310D02*
X11343333Y51361310D01*
X11343333Y50885120D02*
X11295714Y50861310D01*
X11200476Y50861310D01*
X11152857Y50885120D01*
X11129047Y50908929D01*
X11105238Y50956548D01*
X11105238Y51099405D01*
X11129047Y51147024D01*
X11152857Y51170834D01*
X11200476Y51194643D01*
X11295714Y51194643D01*
X11343333Y51170834D01*
X11795714Y51194643D02*
X11795714Y50789881D01*
X11771904Y50742262D01*
X11748095Y50718453D01*
X11700476Y50694643D01*
X11629047Y50694643D01*
X11581428Y50718453D01*
X11795714Y50885120D02*
X11748095Y50861310D01*
X11652857Y50861310D01*
X11605238Y50885120D01*
X11581428Y50908929D01*
X11557619Y50956548D01*
X11557619Y51099405D01*
X11581428Y51147024D01*
X11605238Y51170834D01*
X11652857Y51194643D01*
X11748095Y51194643D01*
X11795714Y51170834D01*
X12224285Y50885120D02*
X12176666Y50861310D01*
X12081428Y50861310D01*
X12033809Y50885120D01*
X12010000Y50932739D01*
X12010000Y51123215D01*
X12033809Y51170834D01*
X12081428Y51194643D01*
X12176666Y51194643D01*
X12224285Y51170834D01*
X12248095Y51123215D01*
X12248095Y51075596D01*
X12010000Y51027977D01*
D13*
X11260000Y49070000D02*
X9760000Y49070000D01*
X13760000Y45200000D02*
X13760000Y49570000D01*
X13400000Y50070000D02*
X7620000Y50070000D01*
X12960000Y49570000D02*
X8060000Y49570000D01*
X7260000Y45200000D02*
X7260000Y49570000D01*
X10760000Y48570000D02*
X10260000Y48570000D01*
X13760000Y50570000D02*
X7260000Y50570000D01*
X13410000Y45920000D02*
X13410000Y49570000D01*
X10760000Y45200000D02*
X10760000Y48570000D01*
X11260000Y45200000D02*
X11260000Y49070000D01*
X12960000Y45200000D02*
X12960000Y49570000D01*
X8060000Y45200000D02*
X8060000Y49570000D01*
X7610000Y45920000D02*
X7610000Y49570000D01*
X9760000Y45200000D02*
X9760000Y49070000D01*
X10260000Y45200000D02*
X10260000Y48570000D01*
M02*
