G04 #@! TF.GenerationSoftware,KiCad,Pcbnew,(6.0.7)*
G04 #@! TF.CreationDate,2022-09-22T23:06:15+05:30*
G04 #@! TF.ProjectId,Mitayi-Pico-RP2040,4d697461-7969-42d5-9069-636f2d525032,0.4*
G04 #@! TF.SameCoordinates,PX825e060PY6d4a840*
G04 #@! TF.FileFunction,Soldermask,Bot*
G04 #@! TF.FilePolarity,Negative*
%FSLAX46Y46*%
G04 Gerber Fmt 4.6, Leading zero omitted, Abs format (unit mm)*
G04 Created by KiCad (PCBNEW (6.0.7)) date 2022-09-22 23:06:15*
%MOMM*%
%LPD*%
G01*
G04 APERTURE LIST*
G04 Aperture macros list*
%AMRoundRect*
0 Rectangle with rounded corners*
0 $1 Rounding radius*
0 $2 $3 $4 $5 $6 $7 $8 $9 X,Y pos of 4 corners*
0 Add a 4 corners polygon primitive as box body*
4,1,4,$2,$3,$4,$5,$6,$7,$8,$9,$2,$3,0*
0 Add four circle primitives for the rounded corners*
1,1,$1+$1,$2,$3*
1,1,$1+$1,$4,$5*
1,1,$1+$1,$6,$7*
1,1,$1+$1,$8,$9*
0 Add four rect primitives between the rounded corners*
20,1,$1+$1,$2,$3,$4,$5,0*
20,1,$1+$1,$4,$5,$6,$7,0*
20,1,$1+$1,$6,$7,$8,$9,0*
20,1,$1+$1,$8,$9,$2,$3,0*%
%AMOutline5P*
0 Free polygon, 5 corners , with rotation*
0 The origin of the aperture is its center*
0 number of corners: always 5*
0 $1 to $10 corner X, Y*
0 $11 Rotation angle, in degrees counterclockwise*
0 create outline with 5 corners*
4,1,5,$1,$2,$3,$4,$5,$6,$7,$8,$9,$10,$1,$2,$11*%
%AMOutline6P*
0 Free polygon, 6 corners , with rotation*
0 The origin of the aperture is its center*
0 number of corners: always 6*
0 $1 to $12 corner X, Y*
0 $13 Rotation angle, in degrees counterclockwise*
0 create outline with 6 corners*
4,1,6,$1,$2,$3,$4,$5,$6,$7,$8,$9,$10,$11,$12,$1,$2,$13*%
%AMOutline7P*
0 Free polygon, 7 corners , with rotation*
0 The origin of the aperture is its center*
0 number of corners: always 7*
0 $1 to $14 corner X, Y*
0 $15 Rotation angle, in degrees counterclockwise*
0 create outline with 7 corners*
4,1,7,$1,$2,$3,$4,$5,$6,$7,$8,$9,$10,$11,$12,$13,$14,$1,$2,$15*%
%AMOutline8P*
0 Free polygon, 8 corners , with rotation*
0 The origin of the aperture is its center*
0 number of corners: always 8*
0 $1 to $16 corner X, Y*
0 $17 Rotation angle, in degrees counterclockwise*
0 create outline with 8 corners*
4,1,8,$1,$2,$3,$4,$5,$6,$7,$8,$9,$10,$11,$12,$13,$14,$15,$16,$1,$2,$17*%
G04 Aperture macros list end*
%ADD10C,1.500000*%
%ADD11O,1.600000X1.700000*%
%ADD12R,1.600000X3.200000*%
%ADD13C,0.670000*%
%ADD14RoundRect,0.500000X0.000000X0.300000X0.000000X0.300000X0.000000X-0.300000X0.000000X-0.300000X0*%
%ADD15Outline6P,-0.290000X0.117000X-0.087000X0.320000X0.290000X0.320000X0.290000X-0.320000X-0.087000X-0.320000X-0.290000X-0.117000X270.000000*%
%ADD16R,0.640000X0.500000*%
%ADD17R,0.640000X0.580000*%
%ADD18O,1.200000X1.900000*%
%ADD19C,1.450000*%
%ADD20R,3.200000X1.600000*%
%ADD21O,1.700000X1.600000*%
%ADD22R,1.700000X1.700000*%
%ADD23O,1.700000X1.700000*%
G04 APERTURE END LIST*
G36*
X10268110Y43618025D02*
G01*
X10308672Y43617517D01*
X10345646Y43616722D01*
X10377560Y43615640D01*
X10402942Y43614269D01*
X10420319Y43612607D01*
X10428217Y43610652D01*
X10430585Y43606918D01*
X10434582Y43595317D01*
X10439679Y43575606D01*
X10446001Y43547220D01*
X10453672Y43509591D01*
X10462818Y43462153D01*
X10473562Y43404340D01*
X10478758Y43376028D01*
X10488468Y43323412D01*
X10496543Y43280288D01*
X10503199Y43245695D01*
X10508651Y43218674D01*
X10513116Y43198264D01*
X10516811Y43183506D01*
X10519952Y43173438D01*
X10522755Y43167102D01*
X10525436Y43163536D01*
X10528212Y43161781D01*
X10528531Y43161652D01*
X10536484Y43158395D01*
X10553129Y43151563D01*
X10577089Y43141723D01*
X10606987Y43129438D01*
X10641446Y43115277D01*
X10679088Y43099803D01*
X10699391Y43091476D01*
X10738814Y43075490D01*
X10769724Y43063315D01*
X10793273Y43054557D01*
X10810615Y43048819D01*
X10822904Y43045707D01*
X10831294Y43044827D01*
X10836938Y43045783D01*
X10837178Y43045880D01*
X10845354Y43050526D01*
X10861455Y43060704D01*
X10884378Y43075681D01*
X10913022Y43094726D01*
X10946283Y43117104D01*
X10983060Y43142084D01*
X11022250Y43168934D01*
X11025876Y43171427D01*
X11064606Y43197960D01*
X11100592Y43222428D01*
X11132774Y43244125D01*
X11160091Y43262343D01*
X11181484Y43276374D01*
X11195892Y43285511D01*
X11202254Y43289047D01*
X11204995Y43288035D01*
X11215493Y43280153D01*
X11233000Y43264831D01*
X11257123Y43242437D01*
X11287467Y43213338D01*
X11323640Y43177905D01*
X11365248Y43136505D01*
X11366617Y43135134D01*
X11405988Y43095597D01*
X11438133Y43063047D01*
X11463723Y43036746D01*
X11483426Y43015954D01*
X11497912Y42999933D01*
X11507848Y42987942D01*
X11513903Y42979243D01*
X11516748Y42973097D01*
X11517050Y42968765D01*
X11517007Y42968586D01*
X11513021Y42960708D01*
X11503464Y42944895D01*
X11489053Y42922245D01*
X11470505Y42893855D01*
X11448538Y42860824D01*
X11423868Y42824249D01*
X11397212Y42785229D01*
X11371150Y42747026D01*
X11346019Y42709574D01*
X11323996Y42676110D01*
X11305733Y42647651D01*
X11291881Y42625212D01*
X11283091Y42609808D01*
X11280014Y42602455D01*
X11280689Y42598821D01*
X11285089Y42585285D01*
X11292995Y42564172D01*
X11303714Y42537097D01*
X11316557Y42505678D01*
X11330832Y42471532D01*
X11345847Y42436276D01*
X11360911Y42401527D01*
X11375332Y42368901D01*
X11388420Y42340016D01*
X11399482Y42316488D01*
X11407829Y42299936D01*
X11412767Y42291974D01*
X11416036Y42289687D01*
X11424893Y42286069D01*
X11439542Y42281770D01*
X11460838Y42276596D01*
X11489637Y42270357D01*
X11526794Y42262859D01*
X11573164Y42253912D01*
X11629603Y42243323D01*
X11651095Y42239316D01*
X11704753Y42229144D01*
X11748472Y42220556D01*
X11782984Y42213389D01*
X11809018Y42207481D01*
X11827308Y42202668D01*
X11838584Y42198789D01*
X11843578Y42195679D01*
X11844589Y42193650D01*
X11846318Y42185614D01*
X11847704Y42171542D01*
X11848774Y42150595D01*
X11849554Y42121931D01*
X11850071Y42084712D01*
X11850353Y42038097D01*
X11850426Y41981247D01*
X11850425Y41980020D01*
X11850316Y41933005D01*
X11850046Y41889158D01*
X11849638Y41849796D01*
X11849110Y41816238D01*
X11848485Y41789803D01*
X11847781Y41771809D01*
X11847021Y41763573D01*
X11846750Y41762557D01*
X11845539Y41758861D01*
X11843398Y41755630D01*
X11839331Y41752617D01*
X11832340Y41749572D01*
X11821430Y41746249D01*
X11805605Y41742400D01*
X11783868Y41737776D01*
X11755224Y41732131D01*
X11718675Y41725216D01*
X11673226Y41716785D01*
X11617880Y41706588D01*
X11599693Y41703224D01*
X11546233Y41693104D01*
X11503073Y41684518D01*
X11469711Y41677355D01*
X11445647Y41671502D01*
X11430383Y41666849D01*
X11423417Y41663285D01*
X11423383Y41663249D01*
X11418976Y41655636D01*
X11411291Y41639264D01*
X11400959Y41615710D01*
X11388613Y41586555D01*
X11374883Y41553377D01*
X11360402Y41517755D01*
X11345803Y41481269D01*
X11331716Y41445497D01*
X11318774Y41412019D01*
X11307609Y41382414D01*
X11298852Y41358261D01*
X11293136Y41341138D01*
X11291092Y41332626D01*
X11293899Y41326032D01*
X11302353Y41311300D01*
X11315752Y41289639D01*
X11333389Y41262149D01*
X11354555Y41229934D01*
X11378542Y41194096D01*
X11404644Y41155737D01*
X11429698Y41118930D01*
X11453787Y41082962D01*
X11475083Y41050571D01*
X11492879Y41022858D01*
X11506466Y41000926D01*
X11515138Y40985878D01*
X11518185Y40978818D01*
X11518084Y40978144D01*
X11512763Y40969540D01*
X11499417Y40953490D01*
X11478121Y40930076D01*
X11448951Y40899380D01*
X11411984Y40861483D01*
X11367296Y40816468D01*
X11354128Y40803315D01*
X11311142Y40760757D01*
X11275545Y40726178D01*
X11247222Y40699472D01*
X11226057Y40680529D01*
X11211932Y40669242D01*
X11204733Y40665504D01*
X11198798Y40667922D01*
X11184518Y40676007D01*
X11163266Y40689083D01*
X11136160Y40706433D01*
X11104315Y40727342D01*
X11068849Y40751092D01*
X11030880Y40776968D01*
X10997054Y40800040D01*
X10961249Y40824059D01*
X10928938Y40845314D01*
X10901237Y40863087D01*
X10879264Y40876664D01*
X10864138Y40885329D01*
X10856974Y40888366D01*
X10854053Y40887817D01*
X10841507Y40883113D01*
X10822241Y40874376D01*
X10798285Y40862553D01*
X10771669Y40848591D01*
X10766589Y40845864D01*
X10737587Y40830926D01*
X10714017Y40819898D01*
X10697233Y40813378D01*
X10688590Y40811961D01*
X10684980Y40816359D01*
X10677577Y40830067D01*
X10666550Y40853203D01*
X10651835Y40885915D01*
X10633366Y40928352D01*
X10611077Y40980665D01*
X10584902Y41043002D01*
X10554775Y41115512D01*
X10529544Y41176498D01*
X10501792Y41243595D01*
X10477795Y41301660D01*
X10457289Y41351360D01*
X10440009Y41393364D01*
X10425691Y41428339D01*
X10414071Y41456952D01*
X10404882Y41479871D01*
X10397862Y41497763D01*
X10392745Y41511297D01*
X10389268Y41521140D01*
X10387164Y41527959D01*
X10386170Y41532422D01*
X10386022Y41535196D01*
X10386454Y41536950D01*
X10387201Y41538350D01*
X10387456Y41538729D01*
X10394230Y41545055D01*
X10408026Y41556069D01*
X10426982Y41570330D01*
X10449236Y41586396D01*
X10500051Y41625959D01*
X10551264Y41676114D01*
X10592473Y41730007D01*
X10624111Y41788322D01*
X10646608Y41851743D01*
X10660396Y41920953D01*
X10664061Y41975925D01*
X10659012Y42042110D01*
X10644095Y42106224D01*
X10619974Y42167303D01*
X10587311Y42224386D01*
X10546770Y42276512D01*
X10499013Y42322717D01*
X10444703Y42362041D01*
X10384505Y42393520D01*
X10319079Y42416194D01*
X10291112Y42422108D01*
X10242841Y42427407D01*
X10191605Y42428212D01*
X10141728Y42424519D01*
X10097536Y42416327D01*
X10037571Y42396326D01*
X9974701Y42364861D01*
X9917983Y42324736D01*
X9868131Y42276654D01*
X9825861Y42221318D01*
X9791887Y42159430D01*
X9766926Y42091692D01*
X9762534Y42075277D01*
X9758394Y42054850D01*
X9755896Y42033092D01*
X9754702Y42006761D01*
X9754472Y41972613D01*
X9754887Y41944504D01*
X9757205Y41906136D01*
X9762292Y41872846D01*
X9770989Y41841059D01*
X9784135Y41807198D01*
X9802570Y41767685D01*
X9805058Y41762637D01*
X9817903Y41737867D01*
X9829972Y41717943D01*
X9843513Y41699798D01*
X9860776Y41680362D01*
X9884010Y41656568D01*
X9906595Y41635087D01*
X9933716Y41611366D01*
X9960200Y41590035D01*
X9982610Y41573971D01*
X9994486Y41566098D01*
X10013939Y41551815D01*
X10024878Y41541072D01*
X10028303Y41532976D01*
X10026384Y41526302D01*
X10020564Y41510325D01*
X10011262Y41486153D01*
X9998903Y41454811D01*
X9983910Y41417324D01*
X9966708Y41374720D01*
X9947721Y41328021D01*
X9927373Y41278256D01*
X9906088Y41226447D01*
X9884290Y41173622D01*
X9862403Y41120806D01*
X9840852Y41069024D01*
X9820060Y41019301D01*
X9800451Y40972663D01*
X9782450Y40930136D01*
X9766481Y40892744D01*
X9752967Y40861514D01*
X9742333Y40837471D01*
X9735003Y40821639D01*
X9731400Y40815046D01*
X9730507Y40814210D01*
X9726203Y40812177D01*
X9719557Y40812601D01*
X9709092Y40816052D01*
X9693333Y40823099D01*
X9670802Y40834310D01*
X9640022Y40850256D01*
X9556768Y40893774D01*
X9503144Y40857955D01*
X9494219Y40851968D01*
X9470219Y40835735D01*
X9440273Y40815356D01*
X9406502Y40792278D01*
X9371029Y40767953D01*
X9335979Y40743828D01*
X9311816Y40727335D01*
X9281849Y40707381D01*
X9255443Y40690359D01*
X9233972Y40677131D01*
X9218807Y40668561D01*
X9211323Y40665512D01*
X9210459Y40665705D01*
X9202284Y40671119D01*
X9187842Y40683208D01*
X9168156Y40700950D01*
X9144246Y40723324D01*
X9117133Y40749307D01*
X9087838Y40777877D01*
X9057382Y40808012D01*
X9026786Y40838689D01*
X8997070Y40868888D01*
X8969255Y40897585D01*
X8944363Y40923759D01*
X8923414Y40946387D01*
X8907429Y40964448D01*
X8897430Y40976919D01*
X8894435Y40982778D01*
X8898037Y40988839D01*
X8907235Y41003015D01*
X8921288Y41024180D01*
X8939470Y41051256D01*
X8961057Y41083163D01*
X8985325Y41118822D01*
X9011548Y41157155D01*
X9037157Y41194725D01*
X9061222Y41230483D01*
X9082489Y41262550D01*
X9100256Y41289842D01*
X9113818Y41311279D01*
X9122471Y41325779D01*
X9125512Y41332260D01*
X9125170Y41334253D01*
X9121606Y41345622D01*
X9114663Y41364952D01*
X9104953Y41390718D01*
X9093090Y41421396D01*
X9079690Y41455461D01*
X9065364Y41491388D01*
X9050729Y41527652D01*
X9036396Y41562730D01*
X9022980Y41595096D01*
X9011095Y41623226D01*
X9001355Y41645594D01*
X8994373Y41660677D01*
X8990764Y41666949D01*
X8990673Y41667013D01*
X8983394Y41669245D01*
X8966527Y41673173D01*
X8941322Y41678544D01*
X8909028Y41685103D01*
X8870896Y41692597D01*
X8828177Y41700770D01*
X8782119Y41709369D01*
X8734227Y41718296D01*
X8684441Y41727862D01*
X8644574Y41735914D01*
X8614065Y41742576D01*
X8592348Y41747971D01*
X8578860Y41752225D01*
X8573037Y41755461D01*
X8571167Y41762792D01*
X8569494Y41779775D01*
X8568111Y41804829D01*
X8567016Y41836481D01*
X8566208Y41873259D01*
X8565686Y41913690D01*
X8565446Y41956302D01*
X8565489Y41999621D01*
X8565811Y42042174D01*
X8566412Y42082490D01*
X8567290Y42119096D01*
X8568443Y42150519D01*
X8569869Y42175285D01*
X8571568Y42191923D01*
X8573536Y42198960D01*
X8573841Y42199156D01*
X8582094Y42201758D01*
X8599848Y42206043D01*
X8625860Y42211751D01*
X8658888Y42218623D01*
X8697689Y42226400D01*
X8741022Y42234823D01*
X8787644Y42243632D01*
X8834636Y42252533D01*
X8879536Y42261338D01*
X8919109Y42269412D01*
X8952238Y42276518D01*
X8977808Y42282413D01*
X8994702Y42286860D01*
X9001804Y42289618D01*
X9005225Y42295192D01*
X9012518Y42309827D01*
X9022737Y42331735D01*
X9035205Y42359337D01*
X9049242Y42391052D01*
X9064170Y42425300D01*
X9079311Y42460503D01*
X9093984Y42495080D01*
X9107512Y42527452D01*
X9119215Y42556039D01*
X9128415Y42579260D01*
X9134432Y42595537D01*
X9136589Y42603289D01*
X9136456Y42603930D01*
X9132190Y42612231D01*
X9122419Y42628361D01*
X9107828Y42651274D01*
X9089098Y42679924D01*
X9066914Y42713262D01*
X9041958Y42750242D01*
X9014912Y42789818D01*
X9009099Y42798282D01*
X8982444Y42837326D01*
X8958011Y42873492D01*
X8936482Y42905743D01*
X8918540Y42933043D01*
X8904868Y42954355D01*
X8896148Y42968642D01*
X8893063Y42974866D01*
X8896811Y42980472D01*
X8907461Y42992771D01*
X8923981Y43010722D01*
X8945340Y43033284D01*
X8970505Y43059417D01*
X8998443Y43088083D01*
X9028123Y43118241D01*
X9058512Y43148852D01*
X9088578Y43178875D01*
X9117288Y43207271D01*
X9143611Y43233000D01*
X9166513Y43255022D01*
X9184964Y43272298D01*
X9197930Y43283787D01*
X9204379Y43288450D01*
X9207829Y43287945D01*
X9219306Y43282578D01*
X9238432Y43271484D01*
X9265466Y43254499D01*
X9300663Y43231460D01*
X9344283Y43202203D01*
X9396583Y43166566D01*
X9409566Y43157681D01*
X9448946Y43130893D01*
X9485325Y43106388D01*
X9517686Y43084837D01*
X9545010Y43066909D01*
X9566279Y43053274D01*
X9580475Y43044601D01*
X9586580Y43041562D01*
X9590093Y43042286D01*
X9603243Y43046653D01*
X9623976Y43054388D01*
X9650664Y43064812D01*
X9681683Y43077250D01*
X9715407Y43091026D01*
X9750210Y43105462D01*
X9784466Y43119883D01*
X9816550Y43133612D01*
X9844837Y43145973D01*
X9867700Y43156289D01*
X9883513Y43163884D01*
X9890652Y43168081D01*
X9893049Y43172376D01*
X9897302Y43185401D01*
X9902796Y43207125D01*
X9909631Y43237996D01*
X9917903Y43278462D01*
X9927712Y43328972D01*
X9939155Y43389974D01*
X9941218Y43401083D01*
X9950031Y43447750D01*
X9958399Y43490854D01*
X9966069Y43529174D01*
X9972789Y43561485D01*
X9978305Y43586564D01*
X9982364Y43603188D01*
X9984713Y43610133D01*
X9991216Y43612022D01*
X10007455Y43613736D01*
X10031888Y43615179D01*
X10063044Y43616347D01*
X10099449Y43617240D01*
X10139631Y43617856D01*
X10182117Y43618193D01*
X10225435Y43618250D01*
X10268110Y43618025D01*
G37*
D10*
X17000000Y1490000D03*
D11*
X7950000Y1600000D03*
D12*
X7950000Y-10000D03*
D11*
X10490000Y1600000D03*
D12*
X10490000Y-10000D03*
D11*
X13030000Y1600000D03*
D12*
X13030000Y-10000D03*
D10*
X4000000Y1490000D03*
D13*
X7610000Y45920000D03*
X13410000Y45920000D03*
D14*
X14830000Y45390000D03*
X6190000Y45390000D03*
X14830000Y49570000D03*
X6190000Y49570000D03*
D15*
X7765000Y32055000D03*
D16*
X7765000Y31365000D03*
D17*
X7765000Y30675000D03*
D10*
X17000000Y49490000D03*
D18*
X7010000Y49637500D03*
D19*
X13010000Y46937500D03*
X8010000Y46937500D03*
D18*
X14010000Y49637500D03*
D10*
X4000000Y49490000D03*
D20*
X-10000Y49700000D03*
D21*
X1600000Y49700000D03*
D20*
X-10000Y47160000D03*
D21*
X1600000Y47160000D03*
D20*
X-10000Y44620000D03*
D21*
X1600000Y44620000D03*
D20*
X-10000Y42080000D03*
D21*
X1600000Y42080000D03*
X1600000Y39540000D03*
D20*
X-10000Y39540000D03*
D21*
X1600000Y37000000D03*
D20*
X-10000Y37000000D03*
X-10000Y34460000D03*
D21*
X1600000Y34460000D03*
D20*
X-10000Y31920000D03*
D21*
X1600000Y31920000D03*
X1600000Y29380000D03*
D20*
X-10000Y29380000D03*
X-10000Y26840000D03*
D21*
X1600000Y26840000D03*
D20*
X-10000Y24300000D03*
D21*
X1600000Y24300000D03*
D20*
X-10000Y21760000D03*
D21*
X1600000Y21760000D03*
D20*
X-10000Y19220000D03*
D21*
X1600000Y19220000D03*
D20*
X-10000Y16680000D03*
D21*
X1600000Y16680000D03*
D20*
X-10000Y14140000D03*
D21*
X1600000Y14140000D03*
D20*
X-10000Y11600000D03*
D21*
X1600000Y11600000D03*
X1600000Y9060000D03*
D20*
X-10000Y9060000D03*
X-10000Y6520000D03*
D21*
X1600000Y6520000D03*
D20*
X-10000Y3980000D03*
D21*
X1600000Y3980000D03*
D20*
X-10000Y1440000D03*
D21*
X1600000Y1440000D03*
D22*
X6675000Y7600000D03*
D23*
X6675000Y5060000D03*
X9215000Y7600000D03*
X9215000Y5060000D03*
X11755000Y7600000D03*
X11755000Y5060000D03*
X14295000Y7600000D03*
X14295000Y5060000D03*
D20*
X21010000Y49700000D03*
D21*
X19400000Y49700000D03*
D20*
X21010000Y47160000D03*
D21*
X19400000Y47160000D03*
D20*
X21010000Y44620000D03*
D21*
X19400000Y44620000D03*
X19400000Y42080000D03*
D20*
X21010000Y42080000D03*
D21*
X19400000Y39540000D03*
D20*
X21010000Y39540000D03*
X21010000Y37000000D03*
D21*
X19400000Y37000000D03*
D20*
X21010000Y34460000D03*
D21*
X19400000Y34460000D03*
X19400000Y31920000D03*
D20*
X21010000Y31920000D03*
X21010000Y29380000D03*
D21*
X19400000Y29380000D03*
D20*
X21010000Y26840000D03*
D21*
X19400000Y26840000D03*
D20*
X21010000Y24300000D03*
D21*
X19400000Y24300000D03*
D20*
X21010000Y21760000D03*
D21*
X19400000Y21760000D03*
X19400000Y19220000D03*
D20*
X21010000Y19220000D03*
D21*
X19400000Y16680000D03*
D20*
X21010000Y16680000D03*
X21010000Y14140000D03*
D21*
X19400000Y14140000D03*
X19400000Y11600000D03*
D20*
X21010000Y11600000D03*
X21010000Y9060000D03*
D21*
X19400000Y9060000D03*
X19400000Y6520000D03*
D20*
X21010000Y6520000D03*
X21010000Y3980000D03*
D21*
X19400000Y3980000D03*
D20*
X21010000Y1440000D03*
D21*
X19400000Y1440000D03*
M02*
