%TF.GenerationSoftware,KiCad,Pcbnew,(6.0.7)*%
%TF.CreationDate,2022-09-23T08:48:55+05:30*%
%TF.ProjectId,Mitayi-Pico-RP2040,4d697461-7969-42d5-9069-636f2d525032,0.4*%
%TF.SameCoordinates,PX825e060PY6d4a840*%
%TF.FileFunction,Drillmap*%
%TF.FilePolarity,Positive*%
%FSLAX45Y45*%
G04 Gerber Fmt 4.5, Leading zero omitted, Abs format (unit mm)*
G04 Created by KiCad (PCBNEW (6.0.7)) date 2022-09-23 08:48:55*
%MOMM*%
%LPD*%
G01*
G04 APERTURE LIST*
%ADD10C,0.100000*%
%ADD11C,0.200000*%
%ADD12C,0.065000*%
%ADD13C,0.150000*%
G04 APERTURE END LIST*
D10*
X0Y5100000D02*
X2100000Y5100000D01*
X2100000Y0D02*
X0Y0D01*
X2100000Y5100000D02*
X2100000Y0D01*
X0Y0D02*
X0Y5100000D01*
D11*
D12*
X728500Y4624500D02*
X793500Y4559500D01*
X793500Y4624500D02*
X728500Y4559500D01*
X1308500Y4624500D02*
X1373500Y4559500D01*
X1373500Y4624500D02*
X1308500Y4559500D01*
D13*
X475000Y4949000D02*
G75*
G03*
X475000Y4949000I-75000J0D01*
G01*
X475000Y149000D02*
G75*
G03*
X475000Y149000I-75000J0D01*
G01*
X1775000Y4949000D02*
G75*
G03*
X1775000Y4949000I-75000J0D01*
G01*
X1775000Y149000D02*
G75*
G03*
X1775000Y149000I-75000J0D01*
G01*
D11*
X252619Y-315476D02*
X252619Y-115476D01*
X300238Y-115476D01*
X328810Y-125000D01*
X347857Y-144048D01*
X357381Y-163095D01*
X366905Y-201190D01*
X366905Y-229762D01*
X357381Y-267857D01*
X347857Y-286905D01*
X328810Y-305952D01*
X300238Y-315476D01*
X252619Y-315476D01*
X452619Y-315476D02*
X452619Y-182143D01*
X452619Y-220238D02*
X462143Y-201190D01*
X471667Y-191667D01*
X490714Y-182143D01*
X509762Y-182143D01*
X576429Y-315476D02*
X576429Y-182143D01*
X576429Y-115476D02*
X566905Y-125000D01*
X576429Y-134524D01*
X585952Y-125000D01*
X576429Y-115476D01*
X576429Y-134524D01*
X700238Y-315476D02*
X681190Y-305952D01*
X671667Y-286905D01*
X671667Y-115476D01*
X805000Y-315476D02*
X785952Y-305952D01*
X776428Y-286905D01*
X776428Y-115476D01*
X1033571Y-315476D02*
X1033571Y-115476D01*
X1100238Y-258333D01*
X1166905Y-115476D01*
X1166905Y-315476D01*
X1347857Y-315476D02*
X1347857Y-210714D01*
X1338333Y-191667D01*
X1319286Y-182143D01*
X1281190Y-182143D01*
X1262143Y-191667D01*
X1347857Y-305952D02*
X1328810Y-315476D01*
X1281190Y-315476D01*
X1262143Y-305952D01*
X1252619Y-286905D01*
X1252619Y-267857D01*
X1262143Y-248809D01*
X1281190Y-239286D01*
X1328810Y-239286D01*
X1347857Y-229762D01*
X1443095Y-182143D02*
X1443095Y-382143D01*
X1443095Y-191667D02*
X1462143Y-182143D01*
X1500238Y-182143D01*
X1519286Y-191667D01*
X1528809Y-201190D01*
X1538333Y-220238D01*
X1538333Y-277381D01*
X1528809Y-296429D01*
X1519286Y-305952D01*
X1500238Y-315476D01*
X1462143Y-315476D01*
X1443095Y-305952D01*
X1624048Y-296429D02*
X1633571Y-305952D01*
X1624048Y-315476D01*
X1614524Y-305952D01*
X1624048Y-296429D01*
X1624048Y-315476D01*
X1624048Y-191667D02*
X1633571Y-201190D01*
X1624048Y-210714D01*
X1614524Y-201190D01*
X1624048Y-191667D01*
X1624048Y-210714D01*
D12*
X-70000Y-612500D02*
X-5000Y-677500D01*
X-5000Y-612500D02*
X-70000Y-677500D01*
D11*
X290714Y-535476D02*
X309762Y-535476D01*
X328810Y-545000D01*
X338333Y-554524D01*
X347857Y-573571D01*
X357381Y-611667D01*
X357381Y-659286D01*
X347857Y-697381D01*
X338333Y-716428D01*
X328810Y-725952D01*
X309762Y-735476D01*
X290714Y-735476D01*
X271667Y-725952D01*
X262143Y-716428D01*
X252619Y-697381D01*
X243095Y-659286D01*
X243095Y-611667D01*
X252619Y-573571D01*
X262143Y-554524D01*
X271667Y-545000D01*
X290714Y-535476D01*
X443095Y-716428D02*
X452619Y-725952D01*
X443095Y-735476D01*
X433571Y-725952D01*
X443095Y-716428D01*
X443095Y-735476D01*
X624048Y-535476D02*
X585952Y-535476D01*
X566905Y-545000D01*
X557381Y-554524D01*
X538333Y-583095D01*
X528810Y-621190D01*
X528810Y-697381D01*
X538333Y-716428D01*
X547857Y-725952D01*
X566905Y-735476D01*
X605000Y-735476D01*
X624048Y-725952D01*
X633571Y-716428D01*
X643095Y-697381D01*
X643095Y-649762D01*
X633571Y-630714D01*
X624048Y-621190D01*
X605000Y-611667D01*
X566905Y-611667D01*
X547857Y-621190D01*
X538333Y-630714D01*
X528810Y-649762D01*
X824048Y-535476D02*
X728809Y-535476D01*
X719286Y-630714D01*
X728809Y-621190D01*
X747857Y-611667D01*
X795476Y-611667D01*
X814524Y-621190D01*
X824048Y-630714D01*
X833571Y-649762D01*
X833571Y-697381D01*
X824048Y-716428D01*
X814524Y-725952D01*
X795476Y-735476D01*
X747857Y-735476D01*
X728809Y-725952D01*
X719286Y-716428D01*
X957381Y-535476D02*
X976428Y-535476D01*
X995476Y-545000D01*
X1005000Y-554524D01*
X1014524Y-573571D01*
X1024048Y-611667D01*
X1024048Y-659286D01*
X1014524Y-697381D01*
X1005000Y-716428D01*
X995476Y-725952D01*
X976428Y-735476D01*
X957381Y-735476D01*
X938333Y-725952D01*
X928809Y-716428D01*
X919286Y-697381D01*
X909762Y-659286D01*
X909762Y-611667D01*
X919286Y-573571D01*
X928809Y-554524D01*
X938333Y-545000D01*
X957381Y-535476D01*
X1109762Y-735476D02*
X1109762Y-602143D01*
X1109762Y-621190D02*
X1119286Y-611667D01*
X1138333Y-602143D01*
X1166905Y-602143D01*
X1185952Y-611667D01*
X1195476Y-630714D01*
X1195476Y-735476D01*
X1195476Y-630714D02*
X1205000Y-611667D01*
X1224048Y-602143D01*
X1252619Y-602143D01*
X1271667Y-611667D01*
X1281190Y-630714D01*
X1281190Y-735476D01*
X1376429Y-735476D02*
X1376429Y-602143D01*
X1376429Y-621190D02*
X1385952Y-611667D01*
X1405000Y-602143D01*
X1433571Y-602143D01*
X1452619Y-611667D01*
X1462143Y-630714D01*
X1462143Y-735476D01*
X1462143Y-630714D02*
X1471667Y-611667D01*
X1490714Y-602143D01*
X1519286Y-602143D01*
X1538333Y-611667D01*
X1547857Y-630714D01*
X1547857Y-735476D01*
X1938333Y-525952D02*
X1766905Y-783095D01*
X2195476Y-535476D02*
X2214524Y-535476D01*
X2233571Y-545000D01*
X2243095Y-554524D01*
X2252619Y-573571D01*
X2262143Y-611667D01*
X2262143Y-659286D01*
X2252619Y-697381D01*
X2243095Y-716428D01*
X2233571Y-725952D01*
X2214524Y-735476D01*
X2195476Y-735476D01*
X2176429Y-725952D01*
X2166905Y-716428D01*
X2157381Y-697381D01*
X2147857Y-659286D01*
X2147857Y-611667D01*
X2157381Y-573571D01*
X2166905Y-554524D01*
X2176429Y-545000D01*
X2195476Y-535476D01*
X2347857Y-716428D02*
X2357381Y-725952D01*
X2347857Y-735476D01*
X2338333Y-725952D01*
X2347857Y-716428D01*
X2347857Y-735476D01*
X2481190Y-535476D02*
X2500238Y-535476D01*
X2519286Y-545000D01*
X2528810Y-554524D01*
X2538333Y-573571D01*
X2547857Y-611667D01*
X2547857Y-659286D01*
X2538333Y-697381D01*
X2528810Y-716428D01*
X2519286Y-725952D01*
X2500238Y-735476D01*
X2481190Y-735476D01*
X2462143Y-725952D01*
X2452619Y-716428D01*
X2443095Y-697381D01*
X2433571Y-659286D01*
X2433571Y-611667D01*
X2443095Y-573571D01*
X2452619Y-554524D01*
X2462143Y-545000D01*
X2481190Y-535476D01*
X2624048Y-554524D02*
X2633571Y-545000D01*
X2652619Y-535476D01*
X2700238Y-535476D01*
X2719286Y-545000D01*
X2728810Y-554524D01*
X2738333Y-573571D01*
X2738333Y-592619D01*
X2728810Y-621190D01*
X2614524Y-735476D01*
X2738333Y-735476D01*
X2919286Y-535476D02*
X2824048Y-535476D01*
X2814524Y-630714D01*
X2824048Y-621190D01*
X2843095Y-611667D01*
X2890714Y-611667D01*
X2909762Y-621190D01*
X2919286Y-630714D01*
X2928809Y-649762D01*
X2928809Y-697381D01*
X2919286Y-716428D01*
X2909762Y-725952D01*
X2890714Y-735476D01*
X2843095Y-735476D01*
X2824048Y-725952D01*
X2814524Y-716428D01*
X3100238Y-535476D02*
X3062143Y-535476D01*
X3043095Y-545000D01*
X3033571Y-554524D01*
X3014524Y-583095D01*
X3005000Y-621190D01*
X3005000Y-697381D01*
X3014524Y-716428D01*
X3024048Y-725952D01*
X3043095Y-735476D01*
X3081190Y-735476D01*
X3100238Y-725952D01*
X3109762Y-716428D01*
X3119286Y-697381D01*
X3119286Y-649762D01*
X3109762Y-630714D01*
X3100238Y-621190D01*
X3081190Y-611667D01*
X3043095Y-611667D01*
X3024048Y-621190D01*
X3014524Y-630714D01*
X3005000Y-649762D01*
X3195476Y-535476D02*
X3195476Y-573571D01*
X3271667Y-535476D02*
X3271667Y-573571D01*
X3566905Y-811667D02*
X3557381Y-802143D01*
X3538333Y-773571D01*
X3528809Y-754524D01*
X3519286Y-725952D01*
X3509762Y-678333D01*
X3509762Y-640238D01*
X3519286Y-592619D01*
X3528809Y-564048D01*
X3538333Y-545000D01*
X3557381Y-516428D01*
X3566905Y-506905D01*
X3633571Y-554524D02*
X3643095Y-545000D01*
X3662143Y-535476D01*
X3709762Y-535476D01*
X3728809Y-545000D01*
X3738333Y-554524D01*
X3747857Y-573571D01*
X3747857Y-592619D01*
X3738333Y-621190D01*
X3624048Y-735476D01*
X3747857Y-735476D01*
X3985952Y-735476D02*
X3985952Y-535476D01*
X4071667Y-735476D02*
X4071667Y-630714D01*
X4062143Y-611667D01*
X4043095Y-602143D01*
X4014524Y-602143D01*
X3995476Y-611667D01*
X3985952Y-621190D01*
X4195476Y-735476D02*
X4176428Y-725952D01*
X4166905Y-716428D01*
X4157381Y-697381D01*
X4157381Y-640238D01*
X4166905Y-621190D01*
X4176428Y-611667D01*
X4195476Y-602143D01*
X4224048Y-602143D01*
X4243095Y-611667D01*
X4252619Y-621190D01*
X4262143Y-640238D01*
X4262143Y-697381D01*
X4252619Y-716428D01*
X4243095Y-725952D01*
X4224048Y-735476D01*
X4195476Y-735476D01*
X4376429Y-735476D02*
X4357381Y-725952D01*
X4347857Y-706905D01*
X4347857Y-535476D01*
X4528810Y-725952D02*
X4509762Y-735476D01*
X4471667Y-735476D01*
X4452619Y-725952D01*
X4443095Y-706905D01*
X4443095Y-630714D01*
X4452619Y-611667D01*
X4471667Y-602143D01*
X4509762Y-602143D01*
X4528810Y-611667D01*
X4538333Y-630714D01*
X4538333Y-649762D01*
X4443095Y-668810D01*
X4614524Y-725952D02*
X4633571Y-735476D01*
X4671667Y-735476D01*
X4690714Y-725952D01*
X4700238Y-706905D01*
X4700238Y-697381D01*
X4690714Y-678333D01*
X4671667Y-668810D01*
X4643095Y-668810D01*
X4624048Y-659286D01*
X4614524Y-640238D01*
X4614524Y-630714D01*
X4624048Y-611667D01*
X4643095Y-602143D01*
X4671667Y-602143D01*
X4690714Y-611667D01*
X4766905Y-811667D02*
X4776429Y-802143D01*
X4795476Y-773571D01*
X4805000Y-754524D01*
X4814524Y-725952D01*
X4824048Y-678333D01*
X4824048Y-640238D01*
X4814524Y-592619D01*
X4805000Y-564048D01*
X4795476Y-545000D01*
X4776429Y-516428D01*
X4766905Y-506905D01*
X5128810Y-811667D02*
X5119286Y-802143D01*
X5100238Y-773571D01*
X5090714Y-754524D01*
X5081190Y-725952D01*
X5071667Y-678333D01*
X5071667Y-640238D01*
X5081190Y-592619D01*
X5090714Y-564048D01*
X5100238Y-545000D01*
X5119286Y-516428D01*
X5128810Y-506905D01*
X5205000Y-602143D02*
X5205000Y-735476D01*
X5205000Y-621190D02*
X5214524Y-611667D01*
X5233571Y-602143D01*
X5262143Y-602143D01*
X5281190Y-611667D01*
X5290714Y-630714D01*
X5290714Y-735476D01*
X5414524Y-735476D02*
X5395476Y-725952D01*
X5385952Y-716428D01*
X5376429Y-697381D01*
X5376429Y-640238D01*
X5385952Y-621190D01*
X5395476Y-611667D01*
X5414524Y-602143D01*
X5443095Y-602143D01*
X5462143Y-611667D01*
X5471667Y-621190D01*
X5481190Y-640238D01*
X5481190Y-697381D01*
X5471667Y-716428D01*
X5462143Y-725952D01*
X5443095Y-735476D01*
X5414524Y-735476D01*
X5538333Y-602143D02*
X5614524Y-602143D01*
X5566905Y-535476D02*
X5566905Y-706905D01*
X5576429Y-725952D01*
X5595476Y-735476D01*
X5614524Y-735476D01*
X5833571Y-602143D02*
X5833571Y-802143D01*
X5833571Y-611667D02*
X5852619Y-602143D01*
X5890714Y-602143D01*
X5909762Y-611667D01*
X5919286Y-621190D01*
X5928809Y-640238D01*
X5928809Y-697381D01*
X5919286Y-716428D01*
X5909762Y-725952D01*
X5890714Y-735476D01*
X5852619Y-735476D01*
X5833571Y-725952D01*
X6043095Y-735476D02*
X6024048Y-725952D01*
X6014524Y-706905D01*
X6014524Y-535476D01*
X6205000Y-735476D02*
X6205000Y-630714D01*
X6195476Y-611667D01*
X6176428Y-602143D01*
X6138333Y-602143D01*
X6119286Y-611667D01*
X6205000Y-725952D02*
X6185952Y-735476D01*
X6138333Y-735476D01*
X6119286Y-725952D01*
X6109762Y-706905D01*
X6109762Y-687857D01*
X6119286Y-668810D01*
X6138333Y-659286D01*
X6185952Y-659286D01*
X6205000Y-649762D01*
X6271667Y-602143D02*
X6347857Y-602143D01*
X6300238Y-535476D02*
X6300238Y-706905D01*
X6309762Y-725952D01*
X6328809Y-735476D01*
X6347857Y-735476D01*
X6490714Y-725952D02*
X6471667Y-735476D01*
X6433571Y-735476D01*
X6414524Y-725952D01*
X6405000Y-706905D01*
X6405000Y-630714D01*
X6414524Y-611667D01*
X6433571Y-602143D01*
X6471667Y-602143D01*
X6490714Y-611667D01*
X6500238Y-630714D01*
X6500238Y-649762D01*
X6405000Y-668810D01*
X6671667Y-735476D02*
X6671667Y-535476D01*
X6671667Y-725952D02*
X6652619Y-735476D01*
X6614524Y-735476D01*
X6595476Y-725952D01*
X6585952Y-716428D01*
X6576428Y-697381D01*
X6576428Y-640238D01*
X6585952Y-621190D01*
X6595476Y-611667D01*
X6614524Y-602143D01*
X6652619Y-602143D01*
X6671667Y-611667D01*
X6747857Y-811667D02*
X6757381Y-802143D01*
X6776428Y-773571D01*
X6785952Y-754524D01*
X6795476Y-725952D01*
X6805000Y-678333D01*
X6805000Y-640238D01*
X6795476Y-592619D01*
X6785952Y-564048D01*
X6776428Y-545000D01*
X6757381Y-516428D01*
X6747857Y-506905D01*
D13*
X-5000Y-909000D02*
G75*
G03*
X-5000Y-909000I-75000J0D01*
G01*
D11*
X357381Y-999476D02*
X243095Y-999476D01*
X300238Y-999476D02*
X300238Y-799476D01*
X281190Y-828048D01*
X262143Y-847095D01*
X243095Y-856619D01*
X443095Y-980428D02*
X452619Y-989952D01*
X443095Y-999476D01*
X433571Y-989952D01*
X443095Y-980428D01*
X443095Y-999476D01*
X633571Y-799476D02*
X538333Y-799476D01*
X528810Y-894714D01*
X538333Y-885190D01*
X557381Y-875667D01*
X605000Y-875667D01*
X624048Y-885190D01*
X633571Y-894714D01*
X643095Y-913762D01*
X643095Y-961381D01*
X633571Y-980428D01*
X624048Y-989952D01*
X605000Y-999476D01*
X557381Y-999476D01*
X538333Y-989952D01*
X528810Y-980428D01*
X766905Y-799476D02*
X785952Y-799476D01*
X805000Y-809000D01*
X814524Y-818524D01*
X824048Y-837571D01*
X833571Y-875667D01*
X833571Y-923286D01*
X824048Y-961381D01*
X814524Y-980428D01*
X805000Y-989952D01*
X785952Y-999476D01*
X766905Y-999476D01*
X747857Y-989952D01*
X738333Y-980428D01*
X728809Y-961381D01*
X719286Y-923286D01*
X719286Y-875667D01*
X728809Y-837571D01*
X738333Y-818524D01*
X747857Y-809000D01*
X766905Y-799476D01*
X957381Y-799476D02*
X976428Y-799476D01*
X995476Y-809000D01*
X1005000Y-818524D01*
X1014524Y-837571D01*
X1024048Y-875667D01*
X1024048Y-923286D01*
X1014524Y-961381D01*
X1005000Y-980428D01*
X995476Y-989952D01*
X976428Y-999476D01*
X957381Y-999476D01*
X938333Y-989952D01*
X928809Y-980428D01*
X919286Y-961381D01*
X909762Y-923286D01*
X909762Y-875667D01*
X919286Y-837571D01*
X928809Y-818524D01*
X938333Y-809000D01*
X957381Y-799476D01*
X1109762Y-999476D02*
X1109762Y-866143D01*
X1109762Y-885190D02*
X1119286Y-875667D01*
X1138333Y-866143D01*
X1166905Y-866143D01*
X1185952Y-875667D01*
X1195476Y-894714D01*
X1195476Y-999476D01*
X1195476Y-894714D02*
X1205000Y-875667D01*
X1224048Y-866143D01*
X1252619Y-866143D01*
X1271667Y-875667D01*
X1281190Y-894714D01*
X1281190Y-999476D01*
X1376429Y-999476D02*
X1376429Y-866143D01*
X1376429Y-885190D02*
X1385952Y-875667D01*
X1405000Y-866143D01*
X1433571Y-866143D01*
X1452619Y-875667D01*
X1462143Y-894714D01*
X1462143Y-999476D01*
X1462143Y-894714D02*
X1471667Y-875667D01*
X1490714Y-866143D01*
X1519286Y-866143D01*
X1538333Y-875667D01*
X1547857Y-894714D01*
X1547857Y-999476D01*
X1938333Y-789952D02*
X1766905Y-1047095D01*
X2195476Y-799476D02*
X2214524Y-799476D01*
X2233571Y-809000D01*
X2243095Y-818524D01*
X2252619Y-837571D01*
X2262143Y-875667D01*
X2262143Y-923286D01*
X2252619Y-961381D01*
X2243095Y-980428D01*
X2233571Y-989952D01*
X2214524Y-999476D01*
X2195476Y-999476D01*
X2176429Y-989952D01*
X2166905Y-980428D01*
X2157381Y-961381D01*
X2147857Y-923286D01*
X2147857Y-875667D01*
X2157381Y-837571D01*
X2166905Y-818524D01*
X2176429Y-809000D01*
X2195476Y-799476D01*
X2347857Y-980428D02*
X2357381Y-989952D01*
X2347857Y-999476D01*
X2338333Y-989952D01*
X2347857Y-980428D01*
X2347857Y-999476D01*
X2481190Y-799476D02*
X2500238Y-799476D01*
X2519286Y-809000D01*
X2528810Y-818524D01*
X2538333Y-837571D01*
X2547857Y-875667D01*
X2547857Y-923286D01*
X2538333Y-961381D01*
X2528810Y-980428D01*
X2519286Y-989952D01*
X2500238Y-999476D01*
X2481190Y-999476D01*
X2462143Y-989952D01*
X2452619Y-980428D01*
X2443095Y-961381D01*
X2433571Y-923286D01*
X2433571Y-875667D01*
X2443095Y-837571D01*
X2452619Y-818524D01*
X2462143Y-809000D01*
X2481190Y-799476D01*
X2728810Y-799476D02*
X2633571Y-799476D01*
X2624048Y-894714D01*
X2633571Y-885190D01*
X2652619Y-875667D01*
X2700238Y-875667D01*
X2719286Y-885190D01*
X2728810Y-894714D01*
X2738333Y-913762D01*
X2738333Y-961381D01*
X2728810Y-980428D01*
X2719286Y-989952D01*
X2700238Y-999476D01*
X2652619Y-999476D01*
X2633571Y-989952D01*
X2624048Y-980428D01*
X2833571Y-999476D02*
X2871667Y-999476D01*
X2890714Y-989952D01*
X2900238Y-980428D01*
X2919286Y-951857D01*
X2928809Y-913762D01*
X2928809Y-837571D01*
X2919286Y-818524D01*
X2909762Y-809000D01*
X2890714Y-799476D01*
X2852619Y-799476D01*
X2833571Y-809000D01*
X2824048Y-818524D01*
X2814524Y-837571D01*
X2814524Y-885190D01*
X2824048Y-904238D01*
X2833571Y-913762D01*
X2852619Y-923286D01*
X2890714Y-923286D01*
X2909762Y-913762D01*
X2919286Y-904238D01*
X2928809Y-885190D01*
X3119286Y-999476D02*
X3005000Y-999476D01*
X3062143Y-999476D02*
X3062143Y-799476D01*
X3043095Y-828048D01*
X3024048Y-847095D01*
X3005000Y-856619D01*
X3195476Y-799476D02*
X3195476Y-837571D01*
X3271667Y-799476D02*
X3271667Y-837571D01*
X3566905Y-1075667D02*
X3557381Y-1066143D01*
X3538333Y-1037571D01*
X3528809Y-1018524D01*
X3519286Y-989952D01*
X3509762Y-942333D01*
X3509762Y-904238D01*
X3519286Y-856619D01*
X3528809Y-828048D01*
X3538333Y-809000D01*
X3557381Y-780428D01*
X3566905Y-770905D01*
X3728809Y-866143D02*
X3728809Y-999476D01*
X3681190Y-789952D02*
X3633571Y-932809D01*
X3757381Y-932809D01*
X3985952Y-999476D02*
X3985952Y-799476D01*
X4071667Y-999476D02*
X4071667Y-894714D01*
X4062143Y-875667D01*
X4043095Y-866143D01*
X4014524Y-866143D01*
X3995476Y-875667D01*
X3985952Y-885190D01*
X4195476Y-999476D02*
X4176428Y-989952D01*
X4166905Y-980428D01*
X4157381Y-961381D01*
X4157381Y-904238D01*
X4166905Y-885190D01*
X4176428Y-875667D01*
X4195476Y-866143D01*
X4224048Y-866143D01*
X4243095Y-875667D01*
X4252619Y-885190D01*
X4262143Y-904238D01*
X4262143Y-961381D01*
X4252619Y-980428D01*
X4243095Y-989952D01*
X4224048Y-999476D01*
X4195476Y-999476D01*
X4376429Y-999476D02*
X4357381Y-989952D01*
X4347857Y-970905D01*
X4347857Y-799476D01*
X4528810Y-989952D02*
X4509762Y-999476D01*
X4471667Y-999476D01*
X4452619Y-989952D01*
X4443095Y-970905D01*
X4443095Y-894714D01*
X4452619Y-875667D01*
X4471667Y-866143D01*
X4509762Y-866143D01*
X4528810Y-875667D01*
X4538333Y-894714D01*
X4538333Y-913762D01*
X4443095Y-932809D01*
X4614524Y-989952D02*
X4633571Y-999476D01*
X4671667Y-999476D01*
X4690714Y-989952D01*
X4700238Y-970905D01*
X4700238Y-961381D01*
X4690714Y-942333D01*
X4671667Y-932809D01*
X4643095Y-932809D01*
X4624048Y-923286D01*
X4614524Y-904238D01*
X4614524Y-894714D01*
X4624048Y-875667D01*
X4643095Y-866143D01*
X4671667Y-866143D01*
X4690714Y-875667D01*
X4766905Y-1075667D02*
X4776429Y-1066143D01*
X4795476Y-1037571D01*
X4805000Y-1018524D01*
X4814524Y-989952D01*
X4824048Y-942333D01*
X4824048Y-904238D01*
X4814524Y-856619D01*
X4805000Y-828048D01*
X4795476Y-809000D01*
X4776429Y-780428D01*
X4766905Y-770905D01*
X5128810Y-1075667D02*
X5119286Y-1066143D01*
X5100238Y-1037571D01*
X5090714Y-1018524D01*
X5081190Y-989952D01*
X5071667Y-942333D01*
X5071667Y-904238D01*
X5081190Y-856619D01*
X5090714Y-828048D01*
X5100238Y-809000D01*
X5119286Y-780428D01*
X5128810Y-770905D01*
X5205000Y-866143D02*
X5205000Y-999476D01*
X5205000Y-885190D02*
X5214524Y-875667D01*
X5233571Y-866143D01*
X5262143Y-866143D01*
X5281190Y-875667D01*
X5290714Y-894714D01*
X5290714Y-999476D01*
X5414524Y-999476D02*
X5395476Y-989952D01*
X5385952Y-980428D01*
X5376429Y-961381D01*
X5376429Y-904238D01*
X5385952Y-885190D01*
X5395476Y-875667D01*
X5414524Y-866143D01*
X5443095Y-866143D01*
X5462143Y-875667D01*
X5471667Y-885190D01*
X5481190Y-904238D01*
X5481190Y-961381D01*
X5471667Y-980428D01*
X5462143Y-989952D01*
X5443095Y-999476D01*
X5414524Y-999476D01*
X5538333Y-866143D02*
X5614524Y-866143D01*
X5566905Y-799476D02*
X5566905Y-970905D01*
X5576429Y-989952D01*
X5595476Y-999476D01*
X5614524Y-999476D01*
X5833571Y-866143D02*
X5833571Y-1066143D01*
X5833571Y-875667D02*
X5852619Y-866143D01*
X5890714Y-866143D01*
X5909762Y-875667D01*
X5919286Y-885190D01*
X5928809Y-904238D01*
X5928809Y-961381D01*
X5919286Y-980428D01*
X5909762Y-989952D01*
X5890714Y-999476D01*
X5852619Y-999476D01*
X5833571Y-989952D01*
X6043095Y-999476D02*
X6024048Y-989952D01*
X6014524Y-970905D01*
X6014524Y-799476D01*
X6205000Y-999476D02*
X6205000Y-894714D01*
X6195476Y-875667D01*
X6176428Y-866143D01*
X6138333Y-866143D01*
X6119286Y-875667D01*
X6205000Y-989952D02*
X6185952Y-999476D01*
X6138333Y-999476D01*
X6119286Y-989952D01*
X6109762Y-970905D01*
X6109762Y-951857D01*
X6119286Y-932809D01*
X6138333Y-923286D01*
X6185952Y-923286D01*
X6205000Y-913762D01*
X6271667Y-866143D02*
X6347857Y-866143D01*
X6300238Y-799476D02*
X6300238Y-970905D01*
X6309762Y-989952D01*
X6328809Y-999476D01*
X6347857Y-999476D01*
X6490714Y-989952D02*
X6471667Y-999476D01*
X6433571Y-999476D01*
X6414524Y-989952D01*
X6405000Y-970905D01*
X6405000Y-894714D01*
X6414524Y-875667D01*
X6433571Y-866143D01*
X6471667Y-866143D01*
X6490714Y-875667D01*
X6500238Y-894714D01*
X6500238Y-913762D01*
X6405000Y-932809D01*
X6671667Y-999476D02*
X6671667Y-799476D01*
X6671667Y-989952D02*
X6652619Y-999476D01*
X6614524Y-999476D01*
X6595476Y-989952D01*
X6585952Y-980428D01*
X6576428Y-961381D01*
X6576428Y-904238D01*
X6585952Y-885190D01*
X6595476Y-875667D01*
X6614524Y-866143D01*
X6652619Y-866143D01*
X6671667Y-875667D01*
X6747857Y-1075667D02*
X6757381Y-1066143D01*
X6776428Y-1037571D01*
X6785952Y-1018524D01*
X6795476Y-989952D01*
X6805000Y-942333D01*
X6805000Y-904238D01*
X6795476Y-856619D01*
X6785952Y-828048D01*
X6776428Y-809000D01*
X6757381Y-780428D01*
X6747857Y-770905D01*
M02*
