G04 #@! TF.GenerationSoftware,KiCad,Pcbnew,(6.0.7)*
G04 #@! TF.CreationDate,2022-09-22T23:06:15+05:30*
G04 #@! TF.ProjectId,Mitayi-Pico-RP2040,4d697461-7969-42d5-9069-636f2d525032,0.4*
G04 #@! TF.SameCoordinates,PX825e060PY6d4a840*
G04 #@! TF.FileFunction,Legend,Top*
G04 #@! TF.FilePolarity,Positive*
%FSLAX46Y46*%
G04 Gerber Fmt 4.6, Leading zero omitted, Abs format (unit mm)*
G04 Created by KiCad (PCBNEW (6.0.7)) date 2022-09-22 23:06:15*
%MOMM*%
%LPD*%
G01*
G04 APERTURE LIST*
G04 Aperture macros list*
%AMRoundRect*
0 Rectangle with rounded corners*
0 $1 Rounding radius*
0 $2 $3 $4 $5 $6 $7 $8 $9 X,Y pos of 4 corners*
0 Add a 4 corners polygon primitive as box body*
4,1,4,$2,$3,$4,$5,$6,$7,$8,$9,$2,$3,0*
0 Add four circle primitives for the rounded corners*
1,1,$1+$1,$2,$3*
1,1,$1+$1,$4,$5*
1,1,$1+$1,$6,$7*
1,1,$1+$1,$8,$9*
0 Add four rect primitives between the rounded corners*
20,1,$1+$1,$2,$3,$4,$5,0*
20,1,$1+$1,$4,$5,$6,$7,0*
20,1,$1+$1,$6,$7,$8,$9,0*
20,1,$1+$1,$8,$9,$2,$3,0*%
%AMFreePoly0*
4,1,13,-0.340000,0.160000,-0.327821,0.221229,-0.293137,0.273137,-0.241229,0.307821,-0.180000,0.320000,0.340000,0.320000,0.340000,-0.320000,-0.180000,-0.320000,-0.241229,-0.307821,-0.293137,-0.273137,-0.327821,-0.221229,-0.340000,-0.160000,-0.340000,0.160000,-0.340000,0.160000,$1*%
%AMFreePoly1*
4,1,13,-0.340000,0.320000,0.180000,0.320000,0.241229,0.307821,0.293137,0.273137,0.327821,0.221229,0.340000,0.160000,0.340000,-0.160000,0.327821,-0.221229,0.293137,-0.273137,0.241229,-0.307821,0.180000,-0.320000,-0.340000,-0.320000,-0.340000,0.320000,-0.340000,0.320000,$1*%
G04 Aperture macros list end*
%ADD10C,0.150000*%
%ADD11C,0.120000*%
%ADD12C,0.100000*%
%ADD13C,0.020000*%
%ADD14FreePoly0,270.000000*%
%ADD15FreePoly1,270.000000*%
%ADD16RoundRect,0.218750X0.256250X-0.218750X0.256250X0.218750X-0.256250X0.218750X-0.256250X-0.218750X0*%
%ADD17RoundRect,0.155000X0.155000X-0.212500X0.155000X0.212500X-0.155000X0.212500X-0.155000X-0.212500X0*%
%ADD18RoundRect,0.225000X0.225000X0.250000X-0.225000X0.250000X-0.225000X-0.250000X0.225000X-0.250000X0*%
%ADD19RoundRect,0.155000X0.212500X0.155000X-0.212500X0.155000X-0.212500X-0.155000X0.212500X-0.155000X0*%
%ADD20RoundRect,0.160000X0.197500X0.160000X-0.197500X0.160000X-0.197500X-0.160000X0.197500X-0.160000X0*%
%ADD21C,1.500000*%
%ADD22RoundRect,0.160000X-0.160000X0.197500X-0.160000X-0.197500X0.160000X-0.197500X0.160000X0.197500X0*%
%ADD23RoundRect,0.155000X-0.212500X-0.155000X0.212500X-0.155000X0.212500X0.155000X-0.212500X0.155000X0*%
%ADD24RoundRect,0.050000X-0.387500X-0.050000X0.387500X-0.050000X0.387500X0.050000X-0.387500X0.050000X0*%
%ADD25RoundRect,0.050000X-0.050000X-0.387500X0.050000X-0.387500X0.050000X0.387500X-0.050000X0.387500X0*%
%ADD26RoundRect,0.144000X-1.456000X-1.456000X1.456000X-1.456000X1.456000X1.456000X-1.456000X1.456000X0*%
%ADD27RoundRect,0.155000X-0.155000X0.212500X-0.155000X-0.212500X0.155000X-0.212500X0.155000X0.212500X0*%
%ADD28RoundRect,0.150000X0.150000X-0.650000X0.150000X0.650000X-0.150000X0.650000X-0.150000X-0.650000X0*%
%ADD29O,1.600000X1.700000*%
%ADD30R,1.600000X3.200000*%
%ADD31FreePoly0,90.000000*%
%ADD32FreePoly1,90.000000*%
%ADD33RoundRect,0.225000X-0.225000X-0.250000X0.225000X-0.250000X0.225000X0.250000X-0.225000X0.250000X0*%
%ADD34C,0.670000*%
%ADD35R,0.300000X1.450000*%
%ADD36RoundRect,0.500000X0.000000X0.300000X0.000000X0.300000X0.000000X-0.300000X0.000000X-0.300000X0*%
%ADD37R,1.400000X1.200000*%
%ADD38RoundRect,0.160000X0.160000X-0.197500X0.160000X0.197500X-0.160000X0.197500X-0.160000X-0.197500X0*%
%ADD39R,1.000000X1.000000*%
%ADD40R,0.400000X1.350000*%
%ADD41R,1.500000X1.900000*%
%ADD42O,1.200000X1.900000*%
%ADD43C,1.450000*%
%ADD44R,1.200000X1.900000*%
%ADD45R,1.700000X1.150000*%
%ADD46R,3.200000X1.600000*%
%ADD47O,1.700000X1.600000*%
%ADD48RoundRect,0.250000X-0.312500X-0.275000X0.312500X-0.275000X0.312500X0.275000X-0.312500X0.275000X0*%
%ADD49RoundRect,0.160000X-0.197500X-0.160000X0.197500X-0.160000X0.197500X0.160000X-0.197500X0.160000X0*%
%ADD50RoundRect,0.150000X0.512500X0.150000X-0.512500X0.150000X-0.512500X-0.150000X0.512500X-0.150000X0*%
%ADD51R,1.700000X1.700000*%
%ADD52O,1.700000X1.700000*%
G04 APERTURE END LIST*
D10*
X15650000Y3700000D02*
X5350000Y3700000D01*
X15650000Y8950000D02*
X15650000Y3700000D01*
X15650000Y8950000D02*
X5350000Y8950000D01*
X5350000Y3700000D02*
X5350000Y8950000D01*
X16833333Y47483334D02*
X17266666Y47483334D01*
X17033333Y47216667D01*
X17133333Y47216667D01*
X17200000Y47183334D01*
X17233333Y47150000D01*
X17266666Y47083334D01*
X17266666Y46916667D01*
X17233333Y46850000D01*
X17200000Y46816667D01*
X17133333Y46783334D01*
X16933333Y46783334D01*
X16866666Y46816667D01*
X16833333Y46850000D01*
X17600000Y46783334D02*
X17733333Y46783334D01*
X17800000Y46816667D01*
X17833333Y46850000D01*
X17900000Y46950000D01*
X17933333Y47083334D01*
X17933333Y47350000D01*
X17900000Y47416667D01*
X17866666Y47450000D01*
X17800000Y47483334D01*
X17666666Y47483334D01*
X17600000Y47450000D01*
X17566666Y47416667D01*
X17533333Y47350000D01*
X17533333Y47183334D01*
X17566666Y47116667D01*
X17600000Y47083334D01*
X17666666Y47050000D01*
X17800000Y47050000D01*
X17866666Y47083334D01*
X17900000Y47116667D01*
X17933333Y47183334D01*
X4340476Y7954762D02*
X4302380Y7954762D01*
X4416666Y7916667D02*
X4302380Y7916667D01*
X4492857Y7878572D02*
X4302380Y7878572D01*
X4569047Y7840477D02*
X4302380Y7840477D01*
X4607142Y7802381D02*
X4302380Y7802381D01*
X4683333Y7764286D02*
X4302380Y7764286D01*
X4759523Y7726191D02*
X4302380Y7726191D01*
X4835714Y7688096D02*
X4302380Y7688096D01*
X4911904Y7650000D02*
X4302380Y7650000D01*
X4835714Y7611905D02*
X4302380Y7611905D01*
X4759523Y7573810D02*
X4302380Y7573810D01*
X4683333Y7535715D02*
X4302380Y7535715D01*
X4607142Y7497620D02*
X4302380Y7497620D01*
X4569047Y7459524D02*
X4302380Y7459524D01*
X4492857Y7421429D02*
X4302380Y7421429D01*
X4416666Y7383334D02*
X4302380Y7383334D01*
X4302380Y7345239D02*
X4873809Y7650000D01*
X4302380Y7954762D01*
X4340476Y7345239D02*
X4302380Y7345239D01*
X4911904Y7650000D02*
X4302380Y7307143D01*
X4302380Y7992858D01*
X4911904Y7650000D01*
X16866666Y4216667D02*
X16900000Y4250000D01*
X16966666Y4283334D01*
X17133333Y4283334D01*
X17200000Y4250000D01*
X17233333Y4216667D01*
X17266666Y4150000D01*
X17266666Y4083334D01*
X17233333Y3983334D01*
X16833333Y3583334D01*
X17266666Y3583334D01*
X17533333Y4216667D02*
X17566666Y4250000D01*
X17633333Y4283334D01*
X17800000Y4283334D01*
X17866666Y4250000D01*
X17900000Y4216667D01*
X17933333Y4150000D01*
X17933333Y4083334D01*
X17900000Y3983334D01*
X17500000Y3583334D01*
X17933333Y3583334D01*
X3133333Y42200000D02*
X3133333Y41733334D01*
X2966666Y42466667D02*
X2800000Y41966667D01*
X3233333Y41966667D01*
X3566666Y3583334D02*
X3166666Y3583334D01*
X3366666Y3583334D02*
X3366666Y4283334D01*
X3300000Y4183334D01*
X3233333Y4116667D01*
X3166666Y4083334D01*
X3900000Y3583334D02*
X4033333Y3583334D01*
X4100000Y3616667D01*
X4133333Y3650000D01*
X4200000Y3750000D01*
X4233333Y3883334D01*
X4233333Y4150000D01*
X4200000Y4216667D01*
X4166666Y4250000D01*
X4100000Y4283334D01*
X3966666Y4283334D01*
X3900000Y4250000D01*
X3866666Y4216667D01*
X3833333Y4150000D01*
X3833333Y3983334D01*
X3866666Y3916667D01*
X3900000Y3883334D01*
X3966666Y3850000D01*
X4100000Y3850000D01*
X4166666Y3883334D01*
X4200000Y3916667D01*
X4233333Y3983334D01*
G36*
X3431213Y10786413D02*
G01*
X3431213Y11253508D01*
X3679392Y11253508D01*
X3686059Y11199612D01*
X3713285Y11167386D01*
X3777182Y11156829D01*
X4395037Y11156829D01*
X4433931Y11158496D01*
X4463379Y11169053D01*
X4486715Y11199057D01*
X4493938Y11255175D01*
X4487826Y11311849D01*
X4466157Y11342408D01*
X4438376Y11352965D01*
X4400593Y11354632D01*
X4097222Y11354632D01*
X4097222Y11535766D01*
X4368367Y11467979D01*
X4371701Y11466868D01*
X4418373Y11459089D01*
X4461156Y11478536D01*
X4489493Y11536877D01*
X4497272Y11587994D01*
X4485048Y11626332D01*
X4459489Y11646335D01*
X4420596Y11658003D01*
X4048327Y11750237D01*
X4003877Y11753571D01*
X3956093Y11748014D01*
X3924422Y11717733D01*
X3913866Y11655781D01*
X3913866Y11354632D01*
X3778293Y11354632D01*
X3720508Y11347964D01*
X3698283Y11333518D01*
X3684948Y11304626D01*
X3679392Y11253508D01*
X3431213Y11253508D01*
X3431213Y11895255D01*
X3677169Y11895255D01*
X3685226Y11840665D01*
X3709396Y11811356D01*
X3739955Y11799687D01*
X3779404Y11798021D01*
X3783849Y11798021D01*
X3861637Y11816912D01*
X3879139Y11852889D01*
X3884973Y11909701D01*
X3876639Y11964291D01*
X3851636Y11993601D01*
X3821632Y12004157D01*
X3782738Y12005824D01*
X3778293Y12005824D01*
X3698283Y11984155D01*
X3682448Y11951095D01*
X3677169Y11895255D01*
X3431213Y11895255D01*
X3431213Y12370314D01*
X3662723Y12370314D01*
X3669946Y12299333D01*
X3691616Y12237520D01*
X3724397Y12186541D01*
X3764958Y12148064D01*
X3829063Y12110143D01*
X3903587Y12083056D01*
X3988528Y12066804D01*
X4083887Y12061387D01*
X4157353Y12065091D01*
X4228102Y12076204D01*
X4296136Y12094724D01*
X4352254Y12117922D01*
X4400593Y12147509D01*
X4441432Y12186402D01*
X4475047Y12237520D01*
X4497550Y12299611D01*
X4505051Y12371426D01*
X4497411Y12443518D01*
X4474491Y12506442D01*
X4440320Y12558255D01*
X4398926Y12597009D01*
X4345447Y12627708D01*
X4275022Y12655350D01*
X4218842Y12669858D01*
X4155501Y12678563D01*
X4084998Y12681464D01*
X4007087Y12677884D01*
X3934856Y12667142D01*
X3868304Y12649238D01*
X3812464Y12625207D01*
X3764958Y12595342D01*
X3725092Y12556171D01*
X3692171Y12504220D01*
X3670085Y12441573D01*
X3662723Y12370314D01*
X3431213Y12370314D01*
X3431213Y13132632D01*
X3679392Y13132632D01*
X3686893Y13075402D01*
X3709396Y13045954D01*
X3737732Y13036509D01*
X3776071Y13034842D01*
X3971651Y13034842D01*
X4049006Y13043053D01*
X4118089Y13067685D01*
X4178899Y13108740D01*
X4226127Y13162142D01*
X4254464Y13223816D01*
X4263909Y13293763D01*
X4238351Y13377107D01*
X4215014Y13407111D01*
X4192789Y13427113D01*
X4238351Y13438226D01*
X4257520Y13466840D01*
X4263909Y13521569D01*
X4256964Y13577965D01*
X4236128Y13607136D01*
X4207791Y13617692D01*
X4170564Y13619359D01*
X3777182Y13619359D01*
X3738844Y13617692D01*
X3709396Y13608247D01*
X3686893Y13579077D01*
X3679392Y13522681D01*
X3686893Y13465729D01*
X3709396Y13437114D01*
X3737732Y13426557D01*
X3776071Y13424891D01*
X3972762Y13424891D01*
X4042771Y13397665D01*
X4069441Y13326545D01*
X4043882Y13256536D01*
X3972762Y13230422D01*
X3777182Y13230422D01*
X3720508Y13223754D01*
X3689671Y13194862D01*
X3679392Y13132632D01*
X3431213Y13132632D01*
X3431213Y13997184D01*
X3668279Y13997184D01*
X3676753Y13925092D01*
X3702172Y13855500D01*
X3745511Y13792298D01*
X3807741Y13739374D01*
X3884556Y13703537D01*
X3971651Y13691591D01*
X4055303Y13701839D01*
X4128460Y13732583D01*
X4191123Y13783824D01*
X4238968Y13848400D01*
X4267675Y13919150D01*
X4277244Y13996073D01*
X4267614Y14073120D01*
X4238721Y14144240D01*
X4190567Y14209433D01*
X4127596Y14261291D01*
X4054254Y14292406D01*
X3970539Y14302778D01*
X3886223Y14290971D01*
X3811075Y14255550D01*
X3749123Y14202905D01*
X3704395Y14139424D01*
X3677308Y14069416D01*
X3668279Y13997184D01*
X3431213Y13997184D01*
X3431213Y14472799D01*
X3678281Y14472799D01*
X3685504Y14415848D01*
X3707173Y14387233D01*
X3736621Y14376676D01*
X3774959Y14375009D01*
X4163897Y14375009D01*
X4196123Y14376121D01*
X4243907Y14396123D01*
X4262798Y14471688D01*
X4262728Y14472244D01*
X4342808Y14472244D01*
X4349476Y14416126D01*
X4372256Y14386678D01*
X4401149Y14376676D01*
X4439487Y14375009D01*
X4477825Y14376676D01*
X4507273Y14387233D01*
X4529776Y14415570D01*
X4537277Y14471688D01*
X4529776Y14528918D01*
X4507273Y14558366D01*
X4478936Y14567811D01*
X4440598Y14569478D01*
X4402260Y14567811D01*
X4372812Y14557810D01*
X4349476Y14528362D01*
X4342808Y14472244D01*
X4262728Y14472244D01*
X4255575Y14528918D01*
X4233906Y14558366D01*
X4204458Y14567811D01*
X4166119Y14569478D01*
X3776071Y14569478D01*
X3737177Y14567811D01*
X3708284Y14558366D01*
X3685782Y14529195D01*
X3678281Y14472799D01*
X3431213Y14472799D01*
X3431213Y14902298D01*
X3668279Y14902298D01*
X3672107Y14834820D01*
X3683590Y14775368D01*
X3702728Y14723942D01*
X3763291Y14663379D01*
X3808158Y14647127D01*
X3861637Y14641709D01*
X3914560Y14647127D01*
X3957760Y14663379D01*
X4011656Y14717274D01*
X4039437Y14787283D01*
X4053883Y14859514D01*
X4069718Y14916188D01*
X4097222Y14935079D01*
X4121669Y14869516D01*
X4105001Y14791173D01*
X4088332Y14741722D01*
X4127226Y14691716D01*
X4192789Y14667268D01*
X4237239Y14706162D01*
X4265576Y14788394D01*
X4275022Y14868404D01*
X4267999Y14955215D01*
X4246929Y15022735D01*
X4211814Y15070963D01*
X4162652Y15099900D01*
X4099444Y15109546D01*
X4044576Y15104267D01*
X3997765Y15088432D01*
X3934979Y15035092D01*
X3900808Y14965917D01*
X3882751Y14896186D01*
X3869971Y14840345D01*
X3851636Y14821732D01*
X3831633Y14838678D01*
X3824966Y14889518D01*
X3852191Y14973973D01*
X3879417Y15047871D01*
X3860526Y15087321D01*
X3809130Y15118991D01*
X3772737Y15129548D01*
X3730509Y15108434D01*
X3695937Y15041574D01*
X3675194Y14972862D01*
X3668279Y14902298D01*
X3431213Y14902298D01*
X3431213Y15299569D01*
X3678281Y15299569D01*
X3685504Y15242618D01*
X3707173Y15214003D01*
X3736621Y15203446D01*
X3774959Y15201779D01*
X4163897Y15201779D01*
X4196123Y15202891D01*
X4243907Y15222893D01*
X4262798Y15298458D01*
X4262728Y15299014D01*
X4342808Y15299014D01*
X4349476Y15242896D01*
X4372256Y15213448D01*
X4401149Y15203446D01*
X4439487Y15201779D01*
X4477825Y15203446D01*
X4507273Y15214003D01*
X4529776Y15242340D01*
X4537277Y15298458D01*
X4529776Y15355688D01*
X4507273Y15385136D01*
X4478936Y15394581D01*
X4440598Y15396248D01*
X4402260Y15394581D01*
X4372812Y15384580D01*
X4349476Y15355132D01*
X4342808Y15299014D01*
X4262728Y15299014D01*
X4255575Y15355688D01*
X4233906Y15385136D01*
X4204458Y15394581D01*
X4166119Y15396248D01*
X3776071Y15396248D01*
X3737177Y15394581D01*
X3708284Y15385136D01*
X3685782Y15355965D01*
X3678281Y15299569D01*
X3431213Y15299569D01*
X3431213Y15793520D01*
X3672724Y15793520D01*
X3687726Y15745181D01*
X3721619Y15709621D01*
X4116113Y15479592D01*
X4177232Y15457367D01*
X4215014Y15471813D01*
X4250574Y15515152D01*
X4273911Y15576271D01*
X4264465Y15611831D01*
X4245574Y15631278D01*
X4215014Y15649613D01*
X3934979Y15795187D01*
X4215014Y15940761D01*
X4260020Y15970209D01*
X4275022Y16008547D01*
X4250574Y16075222D01*
X4214737Y16118561D01*
X4176121Y16133007D01*
X4116113Y16110782D01*
X3720508Y15879642D01*
X3708284Y15869641D01*
X3684392Y15839081D01*
X3672724Y15793520D01*
X3431213Y15793520D01*
X3431213Y16443046D01*
X3663834Y16443046D01*
X3670016Y16339491D01*
X3688560Y16265523D01*
X3719466Y16221143D01*
X3762736Y16206349D01*
X3813853Y16220796D01*
X3863859Y16281914D01*
X3851636Y16326364D01*
X3847191Y16338588D01*
X3837189Y16382205D01*
X3833856Y16439712D01*
X3854969Y16513054D01*
X3907198Y16549726D01*
X3907198Y16286359D01*
X3939980Y16211350D01*
X3981652Y16185930D01*
X4041104Y16177457D01*
X4106806Y16186903D01*
X4167231Y16215239D01*
X4214875Y16256495D01*
X4248908Y16308029D01*
X4269327Y16369842D01*
X4276133Y16441934D01*
X4266811Y16527315D01*
X4238845Y16602695D01*
X4192234Y16668074D01*
X4130065Y16718389D01*
X4055427Y16748578D01*
X3968317Y16758641D01*
X3896580Y16750862D01*
X3829534Y16727526D01*
X3767181Y16688632D01*
X3725092Y16645988D01*
X3692171Y16589175D01*
X3670919Y16520694D01*
X3663834Y16443046D01*
X3431213Y16443046D01*
X3431213Y16929218D01*
X3671613Y16929218D01*
X3687171Y16871988D01*
X3719397Y16820315D01*
X3758291Y16803091D01*
X3816076Y16819759D01*
X3886825Y16850874D01*
X3944981Y16876063D01*
X3990542Y16895324D01*
X4049562Y16849022D01*
X4118459Y16821241D01*
X4197234Y16811981D01*
X4266132Y16819204D01*
X4328362Y16840873D01*
X4381146Y16873655D01*
X4421707Y16914216D01*
X4461218Y16976322D01*
X4484925Y17039663D01*
X4492827Y17104239D01*
X4492827Y17344269D01*
X4485326Y17401499D01*
X4462823Y17430947D01*
X4433375Y17441504D01*
X4395037Y17443171D01*
X3778293Y17443171D01*
X3720508Y17436503D01*
X3689671Y17407055D01*
X3679392Y17345381D01*
X3686893Y17288151D01*
X3709396Y17258703D01*
X3738844Y17248146D01*
X3777182Y17246479D01*
X3902753Y17246479D01*
X3902753Y17106462D01*
X3904976Y17072013D01*
X3802617Y17028798D01*
X3735572Y16999905D01*
X3703839Y16985336D01*
X3682170Y16964778D01*
X3671613Y16929218D01*
X3431213Y16929218D01*
X3431213Y18214860D01*
X4768787Y17813587D01*
X4768787Y10385140D01*
X3431213Y10786413D01*
G37*
G36*
X4182406Y12477689D02*
G01*
X4252380Y12456436D01*
X4294365Y12421015D01*
X4308359Y12371426D01*
X4294399Y12321836D01*
X4252519Y12286415D01*
X4182719Y12265162D01*
X4084998Y12258078D01*
X4078331Y12258078D01*
X3983041Y12265232D01*
X3914977Y12286693D01*
X3874138Y12322461D01*
X3860526Y12372537D01*
X3874520Y12421640D01*
X3916505Y12456714D01*
X3986479Y12477758D01*
X4084442Y12484773D01*
X4182406Y12477689D01*
G37*
G36*
X4296136Y17106462D02*
G01*
X4271133Y17039787D01*
X4197234Y17007561D01*
X4123892Y17039787D01*
X4099444Y17104239D01*
X4099444Y17246479D01*
X4296136Y17246479D01*
X4296136Y17106462D01*
G37*
G36*
X4019573Y14097475D02*
G01*
X4053883Y14071638D01*
X4081664Y13997184D01*
X4054994Y13922731D01*
X4021379Y13896894D01*
X3973873Y13888282D01*
X3926089Y13897450D01*
X3891641Y13924953D01*
X3863859Y13998296D01*
X3891085Y14070527D01*
X3924978Y14097197D01*
X3972206Y14106087D01*
X4019573Y14097475D01*
G37*
G36*
X4071107Y16516388D02*
G01*
X4100556Y16444713D01*
X4084998Y16389150D01*
X4043882Y16369703D01*
X4008322Y16411931D01*
X4008322Y16551948D01*
X4071107Y16516388D01*
G37*
G36*
X5142988Y10288972D02*
G01*
X5142988Y10979535D01*
X5442073Y10979535D01*
X5452967Y10886845D01*
X5485650Y10797369D01*
X5541371Y10716109D01*
X5621381Y10648065D01*
X5720144Y10601988D01*
X5832122Y10586629D01*
X5939675Y10599805D01*
X6033734Y10639334D01*
X6114300Y10705215D01*
X6175816Y10788241D01*
X6212725Y10879205D01*
X6225028Y10978106D01*
X6212646Y11077166D01*
X6175498Y11168606D01*
X6113586Y11252426D01*
X6032623Y11319101D01*
X5938326Y11359106D01*
X5830693Y11372441D01*
X5722287Y11357261D01*
X5625667Y11311719D01*
X5546015Y11244032D01*
X5488507Y11162415D01*
X5453682Y11072404D01*
X5442073Y10979535D01*
X5142988Y10979535D01*
X5142988Y11722485D01*
X5447788Y11722485D01*
X5462076Y11613186D01*
X5504938Y11522460D01*
X5553873Y11463524D01*
X5606379Y11443879D01*
X5680674Y11476740D01*
X5737467Y11533533D01*
X5756398Y11581039D01*
X5729966Y11644618D01*
X5703534Y11728914D01*
X5737110Y11813925D01*
X5831407Y11853930D01*
X5926419Y11812496D01*
X5960709Y11723199D01*
X5936421Y11649619D01*
X5904988Y11572466D01*
X5924633Y11524246D01*
X5983569Y11473882D01*
X6065723Y11443879D01*
X6130731Y11481026D01*
X6157877Y11521031D01*
X6172164Y11543891D01*
X6201454Y11619615D01*
X6216456Y11725342D01*
X6205978Y11813131D01*
X6174546Y11897427D01*
X6122158Y11978231D01*
X6069116Y12031452D01*
X6001429Y12073957D01*
X5922133Y12101818D01*
X5834265Y12111105D01*
X5746040Y12101818D01*
X5665672Y12073957D01*
X5596914Y12031452D01*
X5543514Y11978231D01*
X5490333Y11895205D01*
X5458424Y11809956D01*
X5447788Y11722485D01*
X5142988Y11722485D01*
X5142988Y12329704D01*
X5454932Y12329704D01*
X5464219Y12256480D01*
X5492079Y12219690D01*
X5529941Y12206117D01*
X5579233Y12203974D01*
X6079296Y12203974D01*
X6120729Y12205402D01*
X6182166Y12231120D01*
X6206454Y12328275D01*
X6206364Y12328989D01*
X6309324Y12328989D01*
X6317897Y12256837D01*
X6347186Y12218976D01*
X6384334Y12206117D01*
X6433626Y12203974D01*
X6482918Y12206117D01*
X6520779Y12219690D01*
X6549712Y12256123D01*
X6559356Y12328275D01*
X6549712Y12401856D01*
X6520779Y12439717D01*
X6484346Y12451862D01*
X6435054Y12454005D01*
X6385763Y12451862D01*
X6347901Y12439003D01*
X6317897Y12401141D01*
X6309324Y12328989D01*
X6206364Y12328989D01*
X6197168Y12401856D01*
X6169307Y12439717D01*
X6131445Y12451862D01*
X6082153Y12454005D01*
X5580662Y12454005D01*
X5530656Y12451862D01*
X5493508Y12439717D01*
X5464576Y12402213D01*
X5454932Y12329704D01*
X5142988Y12329704D01*
X5142988Y13231245D01*
X5456361Y13231245D01*
X5466005Y13157664D01*
X5494937Y13119802D01*
X5532799Y13106229D01*
X5582091Y13104086D01*
X5743539Y13104086D01*
X5743539Y12925492D01*
X5753699Y12841672D01*
X5784179Y12759757D01*
X5834979Y12679748D01*
X5886950Y12626527D01*
X5954280Y12584021D01*
X6033754Y12556161D01*
X6122158Y12546874D01*
X6210741Y12556161D01*
X6290751Y12584021D01*
X6358616Y12626527D01*
X6410766Y12679748D01*
X6461566Y12759599D01*
X6492046Y12841038D01*
X6502206Y12924064D01*
X6502206Y13229816D01*
X6492562Y13303397D01*
X6463629Y13341259D01*
X6425768Y13354832D01*
X6376476Y13356975D01*
X5583519Y13356975D01*
X5509224Y13348402D01*
X5469577Y13310541D01*
X5456361Y13231245D01*
X5142988Y13231245D01*
X5142988Y13959907D01*
X5454932Y13959907D01*
X5464576Y13886327D01*
X5493508Y13848465D01*
X5530656Y13834892D01*
X5580662Y13832749D01*
X6375047Y13832749D01*
X6449342Y13839892D01*
X6488990Y13878826D01*
X6502206Y13958479D01*
X6492562Y14032059D01*
X6463629Y14069921D01*
X6425768Y14083494D01*
X6376476Y14085637D01*
X5582091Y14085637D01*
X5509224Y14077065D01*
X5468505Y14039203D01*
X5454932Y13959907D01*
X5142988Y13959907D01*
X5142988Y14632849D01*
X5452074Y14632849D01*
X5460647Y14559982D01*
X5490651Y14521406D01*
X5528512Y14507833D01*
X5577804Y14505690D01*
X5850696Y14505690D01*
X6312182Y14197080D01*
X6387906Y14164219D01*
X6434340Y14181721D01*
X6482203Y14234227D01*
X6517922Y14317809D01*
X6504349Y14364244D01*
X6447913Y14411392D01*
X6093583Y14632849D01*
X6447913Y14854305D01*
X6506492Y14905740D01*
X6517922Y14948603D01*
X6475774Y15038614D01*
X6432733Y15085763D01*
X6387906Y15101479D01*
X6312182Y15068618D01*
X5850696Y14760008D01*
X5580662Y14760008D01*
X5529941Y14757864D01*
X5491365Y14744291D01*
X5460647Y14705715D01*
X5452074Y14632849D01*
X5142988Y14632849D01*
X5142988Y15303647D01*
X5440644Y15303647D01*
X5464933Y15227209D01*
X5508867Y15165058D01*
X5557802Y15144341D01*
X5630668Y15168630D01*
X6427911Y15554393D01*
X6483632Y15601541D01*
X6502206Y15668693D01*
X6482203Y15736558D01*
X6429339Y15784421D01*
X5630668Y16170184D01*
X5557802Y16194473D01*
X5509224Y16173756D01*
X5466362Y16111605D01*
X5442073Y16035167D01*
X5455646Y15989447D01*
X5482078Y15963729D01*
X5523512Y15941584D01*
X5677817Y15867289D01*
X5677817Y15471525D01*
X5523512Y15397230D01*
X5480649Y15375084D01*
X5453503Y15349367D01*
X5440644Y15303647D01*
X5142988Y15303647D01*
X5142988Y16738826D01*
X5454932Y16738826D01*
X5463504Y16667389D01*
X5492794Y16629527D01*
X5529227Y16616668D01*
X5577804Y16614525D01*
X6296466Y16614525D01*
X6296466Y16341634D01*
X6309324Y16268768D01*
X6340043Y16244479D01*
X6399336Y16237335D01*
X6459343Y16244479D01*
X6492919Y16273054D01*
X6503634Y16340205D01*
X6503634Y17134590D01*
X6490776Y17207456D01*
X6460058Y17231745D01*
X6400764Y17238889D01*
X6340757Y17231745D01*
X6307181Y17203170D01*
X6296466Y17136019D01*
X6296466Y16861699D01*
X5579233Y16861699D01*
X5529941Y16859556D01*
X5492794Y16846697D01*
X5463504Y16809549D01*
X5454932Y16738826D01*
X5142988Y16738826D01*
X5142988Y17444629D01*
X5454932Y17444629D01*
X5464576Y17371048D01*
X5493508Y17333186D01*
X5530656Y17319613D01*
X5580662Y17317470D01*
X6375047Y17317470D01*
X6449342Y17324614D01*
X6488990Y17363547D01*
X6502206Y17443200D01*
X6492562Y17516781D01*
X6463629Y17554643D01*
X6425768Y17568216D01*
X6376476Y17570359D01*
X5582091Y17570359D01*
X5509224Y17561786D01*
X5468505Y17523924D01*
X5454932Y17444629D01*
X5142988Y17444629D01*
X5142988Y17807531D01*
X5456361Y17807531D01*
X5464933Y17738951D01*
X5502438Y17698232D01*
X5580662Y17684659D01*
X6373618Y17684659D01*
X6423624Y17686802D01*
X6462201Y17700375D01*
X6491133Y17738058D01*
X6500777Y17811103D01*
X6491133Y17885220D01*
X6462201Y17926118D01*
X6412309Y17965151D01*
X6344929Y18017100D01*
X6260061Y18081966D01*
X6157705Y18159747D01*
X6037862Y18250444D01*
X6463629Y18574770D01*
X6472202Y18583343D01*
X6491490Y18619776D01*
X6500777Y18686213D01*
X6491490Y18759079D01*
X6463629Y18797655D01*
X6425768Y18811228D01*
X6376476Y18813371D01*
X5583519Y18813371D01*
X5532084Y18811228D01*
X5494937Y18797655D01*
X5466005Y18759793D01*
X5456361Y18689070D01*
X5466005Y18616204D01*
X5494937Y18577628D01*
X5531370Y18564054D01*
X5580662Y18561911D01*
X6062151Y18561911D01*
X6026610Y18535479D01*
X5937135Y18470471D01*
X5840873Y18400105D01*
X5784973Y18357600D01*
X5769257Y18346170D01*
X5739967Y18308308D01*
X5724966Y18249729D01*
X5741396Y18189722D01*
X5767114Y18154718D01*
X5800689Y18129000D01*
X5843016Y18097925D01*
X5921419Y18041846D01*
X6004822Y17981482D01*
X6062151Y17937548D01*
X5583519Y17937548D01*
X5509224Y17930404D01*
X5480649Y17910401D01*
X5463504Y17873254D01*
X5456361Y17807531D01*
X5142988Y17807531D01*
X5142988Y19625235D01*
X6857012Y19111028D01*
X6857012Y9774765D01*
X5142988Y10288972D01*
G37*
G36*
X6249317Y12925492D02*
G01*
X6217170Y12839767D01*
X6122158Y12798334D01*
X6027861Y12839767D01*
X5996428Y12924064D01*
X5996428Y13104086D01*
X6249317Y13104086D01*
X6249317Y12925492D01*
G37*
G36*
X5893737Y11108480D02*
G01*
X5937849Y11075261D01*
X5973568Y10979535D01*
X5939278Y10883809D01*
X5896058Y10850590D01*
X5834979Y10839517D01*
X5773543Y10851305D01*
X5729252Y10886666D01*
X5693533Y10980964D01*
X5728537Y11073832D01*
X5772114Y11108122D01*
X5832836Y11119552D01*
X5893737Y11108480D01*
G37*
G36*
X6085011Y15670121D02*
G01*
X5889272Y15574395D01*
X5889272Y15764419D01*
X6085011Y15670121D01*
G37*
D11*
X16920000Y20190000D02*
X16920000Y18390000D01*
X17880000Y20190000D02*
X16920000Y20190000D01*
X17880000Y18390000D02*
X16920000Y18390000D01*
X17880000Y20190000D02*
X17880000Y18390000D01*
X16295000Y14565000D02*
X17765000Y14565000D01*
X17765000Y14565000D02*
X17765000Y16850000D01*
X16295000Y16850000D02*
X16295000Y14565000D01*
X8150000Y13664165D02*
X8150000Y13895835D01*
X8870000Y13664165D02*
X8870000Y13895835D01*
X5070000Y26894165D02*
X5070000Y27125835D01*
X5790000Y26894165D02*
X5790000Y27125835D01*
X14950580Y41800000D02*
X14669420Y41800000D01*
X14950580Y40780000D02*
X14669420Y40780000D01*
X5195835Y20040000D02*
X4964165Y20040000D01*
X5195835Y20760000D02*
X4964165Y20760000D01*
X16265000Y29814165D02*
X16265000Y30045835D01*
X15545000Y29814165D02*
X15545000Y30045835D01*
G36*
X16814160Y7302985D02*
G01*
X16814795Y7264250D01*
X16807651Y7208211D01*
X16786220Y7164555D01*
X16747644Y7136456D01*
X16689065Y7127090D01*
X16627311Y7136615D01*
X16586830Y7165190D01*
X16564446Y7212497D01*
X16556985Y7278220D01*
X16556985Y7341720D01*
X16810985Y7341720D01*
X16814160Y7302985D01*
G37*
G36*
X17172512Y9021083D02*
G01*
X17172512Y6078917D01*
X15927488Y6078917D01*
X15927488Y6617820D01*
X16139155Y6617820D01*
X16144235Y6547652D01*
X16159475Y6489550D01*
X16210910Y6405095D01*
X16281395Y6358105D01*
X16358865Y6343500D01*
X16416015Y6350961D01*
X16468085Y6373345D01*
X16515710Y6413826D01*
X16559525Y6475580D01*
X16599371Y6426050D01*
X16647790Y6391760D01*
X16700971Y6371757D01*
X16755105Y6365090D01*
X16839560Y6381759D01*
X16904965Y6431765D01*
X16946875Y6510029D01*
X16960845Y6611470D01*
X16955448Y6676875D01*
X16939255Y6730850D01*
X16884645Y6808320D01*
X16810350Y6850865D01*
X16730975Y6864200D01*
X16639535Y6843880D01*
X16597625Y6814670D01*
X16558255Y6767680D01*
X16514599Y6819432D01*
X16464910Y6855310D01*
X16410459Y6876265D01*
X16352515Y6883250D01*
X16262980Y6864200D01*
X16195670Y6810225D01*
X16153760Y6726405D01*
X16142806Y6674811D01*
X16139155Y6617820D01*
X15927488Y6617820D01*
X15927488Y7341720D01*
X16155665Y7341720D01*
X16421095Y7341720D01*
X16421095Y7285840D01*
X16428080Y7191931D01*
X16449035Y7113402D01*
X16483960Y7050255D01*
X16534548Y7004041D01*
X16602493Y6976313D01*
X16687795Y6967070D01*
X16772250Y6976242D01*
X16839348Y7003759D01*
X16889090Y7049620D01*
X16923309Y7112132D01*
X16943841Y7189602D01*
X16950685Y7282030D01*
X16949415Y7331560D01*
X16946240Y7388710D01*
X16940525Y7446495D01*
X16931635Y7497930D01*
X16155665Y7497930D01*
X16155665Y7341720D01*
X15927488Y7341720D01*
X15927488Y7749390D01*
X16155665Y7749390D01*
X16155665Y7580480D01*
X16238850Y7614770D01*
X16289650Y7638106D01*
X16344260Y7664935D01*
X16401569Y7694621D01*
X16460465Y7726530D01*
X16518885Y7759868D01*
X16574765Y7793840D01*
X16941795Y7593180D01*
X16941795Y7750660D01*
X16690335Y7881470D01*
X16941795Y8005930D01*
X16941795Y8174840D01*
X16570955Y7969100D01*
X16515234Y8000215D01*
X16457290Y8032600D01*
X16399029Y8064826D01*
X16342355Y8095465D01*
X16288380Y8124040D01*
X16238215Y8150075D01*
X16155665Y8187540D01*
X16155665Y8018630D01*
X16224404Y7989420D01*
X16301080Y7955130D01*
X16380296Y7918300D01*
X16456655Y7881470D01*
X16377915Y7844164D01*
X16299175Y7808445D01*
X16223927Y7776219D01*
X16155665Y7749390D01*
X15927488Y7749390D01*
X15927488Y8756500D01*
X16155665Y8756500D01*
X16155665Y8252310D01*
X16285205Y8252310D01*
X16285205Y8600290D01*
X16506185Y8600290D01*
X16506185Y8322160D01*
X16635725Y8322160D01*
X16635725Y8600290D01*
X16812255Y8600290D01*
X16812255Y8280250D01*
X16941795Y8280250D01*
X16941795Y8756500D01*
X16155665Y8756500D01*
X15927488Y8756500D01*
X15927488Y9021083D01*
X17172512Y9021083D01*
G37*
G36*
X16808445Y6685765D02*
G01*
X16831305Y6614010D01*
X16809080Y6542255D01*
X16742405Y6512410D01*
X16674460Y6528920D01*
X16610325Y6584800D01*
X16640170Y6647347D01*
X16668745Y6687670D01*
X16741135Y6716880D01*
X16808445Y6685765D01*
G37*
G36*
X16440780Y6718150D02*
G01*
X16506185Y6663540D01*
X16472530Y6584800D01*
X16440780Y6530825D01*
X16405855Y6500345D01*
X16361405Y6490820D01*
X16296000Y6524475D01*
X16268695Y6615280D01*
X16294730Y6701005D01*
X16371565Y6737200D01*
X16440780Y6718150D01*
G37*
X4880000Y42874165D02*
X4880000Y43105835D01*
X5600000Y42874165D02*
X5600000Y43105835D01*
X7817621Y32550000D02*
X7482379Y32550000D01*
X7817621Y31790000D02*
X7482379Y31790000D01*
X16637621Y10480000D02*
X16302379Y10480000D01*
X16637621Y11240000D02*
X16302379Y11240000D01*
X10600000Y17387621D02*
X10600000Y17052379D01*
X9840000Y17387621D02*
X9840000Y17052379D01*
G36*
X16801111Y40864977D02*
G01*
X16865008Y40825527D01*
X16925571Y40783856D01*
X16980023Y40742739D01*
X16737770Y40742739D01*
X16737770Y40898314D01*
X16801111Y40864977D01*
G37*
G36*
X16333090Y40392696D02*
G01*
X16333090Y40606056D01*
X16463291Y40606056D01*
X16625534Y40606056D01*
X16625534Y40531602D01*
X16737770Y40531602D01*
X16737770Y40606056D01*
X17151155Y40606056D01*
X17151155Y40728293D01*
X17103788Y40772743D01*
X17050587Y40817193D01*
X16994052Y40860532D01*
X16936684Y40901648D01*
X16879593Y40939986D01*
X16823892Y40974991D01*
X16771802Y41005272D01*
X16725546Y41029442D01*
X16625534Y41029442D01*
X16625534Y40742739D01*
X16463291Y40742739D01*
X16463291Y40606056D01*
X16333090Y40606056D01*
X16333090Y41372818D01*
X16448845Y41372818D01*
X16453707Y41311144D01*
X16468292Y41259471D01*
X16491211Y41217104D01*
X16521076Y41183350D01*
X16598864Y41141123D01*
X16644703Y41131538D01*
X16693320Y41128343D01*
X17151155Y41128343D01*
X17151155Y41496167D01*
X17037808Y41496167D01*
X17037808Y41266138D01*
X16701099Y41266138D01*
X16636507Y41274334D01*
X16596086Y41298920D01*
X16574833Y41336841D01*
X16567749Y41385042D01*
X16584417Y41454495D01*
X16618866Y41516169D01*
X16509964Y41568398D01*
X16466625Y41489499D01*
X16453290Y41436993D01*
X16448845Y41372818D01*
X16333090Y41372818D01*
X16333090Y41707304D01*
X17266910Y41707304D01*
X17266910Y40392696D01*
X16333090Y40392696D01*
G37*
X16114165Y27990000D02*
X16345835Y27990000D01*
X16114165Y27270000D02*
X16345835Y27270000D01*
X14430000Y20020000D02*
X14430000Y20670000D01*
X7860000Y20020000D02*
X7210000Y20020000D01*
X7860000Y27240000D02*
X7210000Y27240000D01*
X14430000Y27240000D02*
X14430000Y26590000D01*
X7210000Y20020000D02*
X7210000Y20670000D01*
X13780000Y20020000D02*
X14430000Y20020000D01*
X13780000Y27240000D02*
X14430000Y27240000D01*
X12205000Y30117621D02*
X12205000Y29782379D01*
X11445000Y30117621D02*
X11445000Y29782379D01*
X12390000Y17345835D02*
X12390000Y17114165D01*
X13110000Y17345835D02*
X13110000Y17114165D01*
X7135000Y37450000D02*
X7135000Y40175000D01*
X7135000Y40175000D02*
X7395000Y40175000D01*
X12585000Y34725000D02*
X12325000Y34725000D01*
X12585000Y37450000D02*
X12585000Y40175000D01*
X7395000Y34725000D02*
X7395000Y33050000D01*
X7135000Y37450000D02*
X7135000Y34725000D01*
X12585000Y40175000D02*
X12325000Y40175000D01*
X7135000Y34725000D02*
X7395000Y34725000D01*
X12585000Y37450000D02*
X12585000Y34725000D01*
X11080000Y29909165D02*
X11080000Y30140835D01*
X10360000Y29909165D02*
X10360000Y30140835D01*
X10347621Y31790000D02*
X10012379Y31790000D01*
X10347621Y32550000D02*
X10012379Y32550000D01*
X14290000Y29824165D02*
X14290000Y30055835D01*
X13570000Y29824165D02*
X13570000Y30055835D01*
X6794165Y43060000D02*
X7025835Y43060000D01*
X6794165Y42340000D02*
X7025835Y42340000D01*
X6620000Y370000D02*
X6620000Y2300000D01*
X17020000Y38350000D02*
X17980000Y38350000D01*
X17020000Y38350000D02*
X17020000Y40150000D01*
X17020000Y40150000D02*
X17980000Y40150000D01*
X17980000Y38350000D02*
X17980000Y40150000D01*
X16920000Y33357621D02*
X16920000Y33022379D01*
X17680000Y33357621D02*
X17680000Y33022379D01*
X11270000Y17104165D02*
X11270000Y17335835D01*
X11990000Y17104165D02*
X11990000Y17335835D01*
X15740000Y19425835D02*
X15740000Y19194165D01*
X16460000Y19425835D02*
X16460000Y19194165D01*
X14649420Y32430000D02*
X14930580Y32430000D01*
X14649420Y31410000D02*
X14930580Y31410000D01*
D12*
X14910000Y45070000D02*
X14910000Y52170000D01*
X6110000Y52170000D02*
X14910000Y52170000D01*
X14910000Y45070000D02*
X6110000Y45070000D01*
X6110000Y45070000D02*
X6110000Y52170000D01*
X6310000Y51070000D02*
X14710000Y51070000D01*
D13*
X10510000Y45550000D02*
X10510000Y51870000D01*
D11*
X14120000Y39204165D02*
X14120000Y39435835D01*
X13400000Y39204165D02*
X13400000Y39435835D01*
X16230000Y38350000D02*
X15270000Y38350000D01*
X16230000Y40150000D02*
X16230000Y38350000D01*
X16230000Y40150000D02*
X15270000Y40150000D01*
X15270000Y40150000D02*
X15270000Y38350000D01*
X9517621Y42320000D02*
X9182379Y42320000D01*
X9517621Y43080000D02*
X9182379Y43080000D01*
X9430000Y12300000D02*
X13430000Y12300000D01*
X9430000Y15600000D02*
X9430000Y12300000D01*
X4550000Y42852379D02*
X4550000Y43187621D01*
X3790000Y42852379D02*
X3790000Y43187621D01*
X16050000Y42700000D02*
X17750000Y42700000D01*
X17750000Y42700000D02*
X17750000Y45850000D01*
X16050000Y42700000D02*
X16050000Y45850000D01*
X3465000Y44715000D02*
X4935000Y44715000D01*
X4935000Y44715000D02*
X4935000Y47000000D01*
X3465000Y47000000D02*
X3465000Y44715000D01*
X14410000Y48487500D02*
X14410000Y46637500D01*
X6610000Y46637500D02*
X7060000Y46637500D01*
X6610000Y48487500D02*
X6610000Y46637500D01*
X12210000Y46087500D02*
X12210000Y46537500D01*
X14410000Y51037500D02*
X14410000Y50787500D01*
X14410000Y46637500D02*
X13960000Y46637500D01*
X6610000Y51037500D02*
X6610000Y50787500D01*
X12210000Y46087500D02*
X11760000Y46087500D01*
G36*
X16933090Y20458253D02*
G01*
X16933090Y20869416D01*
X17048845Y20869416D01*
X17053012Y20805797D01*
X17065514Y20750512D01*
X17085516Y20703562D01*
X17112186Y20664946D01*
X17182751Y20613828D01*
X17271095Y20597159D01*
X17335548Y20604691D01*
X17389628Y20627287D01*
X17433338Y20664946D01*
X17466428Y20717915D01*
X17488653Y20786442D01*
X17500013Y20870527D01*
X17563354Y20864971D01*
X17637808Y20859414D01*
X17637808Y20622718D01*
X17751155Y20622718D01*
X17751155Y20973873D01*
X17666283Y20978040D01*
X17578356Y20983874D01*
X17487928Y20991653D01*
X17395555Y21001654D01*
X17393194Y20925256D01*
X17386109Y20864971D01*
X17359439Y20784405D01*
X17318323Y20746622D01*
X17265539Y20737177D01*
X17228867Y20742733D01*
X17197197Y20763291D01*
X17174416Y20804407D01*
X17165526Y20870527D01*
X17168027Y20922478D01*
X17175527Y20964983D01*
X17197752Y21027213D01*
X17084405Y21054994D01*
X17072181Y21023324D01*
X17060513Y20977207D01*
X17052179Y20923867D01*
X17048845Y20869416D01*
X16933090Y20869416D01*
X16933090Y21407261D01*
X17048845Y21407261D01*
X17053707Y21345586D01*
X17068292Y21293913D01*
X17091211Y21251547D01*
X17121076Y21217793D01*
X17198864Y21175565D01*
X17244703Y21165980D01*
X17293320Y21162786D01*
X17751155Y21162786D01*
X17751155Y21530609D01*
X17637808Y21530609D01*
X17637808Y21300581D01*
X17301099Y21300581D01*
X17236507Y21308776D01*
X17196086Y21333363D01*
X17174833Y21371284D01*
X17167749Y21419484D01*
X17184417Y21488938D01*
X17218866Y21550612D01*
X17109964Y21602841D01*
X17066625Y21523942D01*
X17053290Y21471435D01*
X17048845Y21407261D01*
X16933090Y21407261D01*
X16933090Y21741747D01*
X17866910Y21741747D01*
X17866910Y20458253D01*
X16933090Y20458253D01*
G37*
X5900000Y41550000D02*
X4700000Y41550000D01*
X6900000Y40700000D02*
X6900000Y36500000D01*
X3700000Y36500000D02*
X4250000Y36500000D01*
X6350000Y40700000D02*
X6900000Y40700000D01*
X3700000Y40700000D02*
X3700000Y36500000D01*
X4250000Y40700000D02*
X3700000Y40700000D01*
X6900000Y36500000D02*
X6350000Y36500000D01*
X13970000Y13925835D02*
X13970000Y13694165D01*
X14690000Y13925835D02*
X14690000Y13694165D01*
G36*
X3539047Y30990676D02*
G01*
X3513573Y30906700D01*
X3472206Y30829308D01*
X3416535Y30761473D01*
X3348700Y30705802D01*
X3271308Y30664435D01*
X3187332Y30638961D01*
X3100000Y30630359D01*
X3012668Y30638961D01*
X2928692Y30664435D01*
X2851300Y30705802D01*
X2783465Y30761473D01*
X2727794Y30829308D01*
X2686427Y30906700D01*
X2660953Y30990676D01*
X2652351Y31078008D01*
X2652351Y31305444D01*
X2759402Y31305444D01*
X3333918Y31305444D01*
X3333918Y31124310D01*
X3447266Y31124310D01*
X3447266Y31624372D01*
X3333918Y31624372D01*
X3333918Y31443239D01*
X2759402Y31443239D01*
X2759402Y31305444D01*
X2652351Y31305444D01*
X2652351Y31932189D01*
X2744956Y31932189D01*
X2749540Y31869959D01*
X2763291Y31818841D01*
X2785655Y31777725D01*
X2816076Y31745499D01*
X2854136Y31721885D01*
X2899419Y31706605D01*
X2951092Y31698271D01*
X3008322Y31695492D01*
X3447266Y31695492D01*
X3447266Y31832176D01*
X3018323Y31832176D01*
X2945536Y31836621D01*
X2897752Y31852179D01*
X2871638Y31882182D01*
X2863859Y31929966D01*
X2871638Y31977750D01*
X2897197Y32007198D01*
X2944425Y32022200D01*
X3017212Y32026645D01*
X3447266Y32026645D01*
X3447266Y32164440D01*
X3008322Y32164440D01*
X2951092Y32161662D01*
X2899419Y32153327D01*
X2854136Y32138326D01*
X2816076Y32115545D01*
X2763291Y32043869D01*
X2749540Y31993446D01*
X2744956Y31932189D01*
X2652351Y31932189D01*
X2652351Y32512261D01*
X2750512Y32512261D01*
X2753151Y32457393D01*
X2761069Y32406137D01*
X2775237Y32360020D01*
X2796629Y32320571D01*
X2863304Y32263341D01*
X2910115Y32247506D01*
X2967206Y32242228D01*
X3013878Y32248478D01*
X3058328Y32267231D01*
X3097222Y32303485D01*
X3127226Y32362243D01*
X3187233Y32298346D01*
X3227794Y32280427D01*
X3273911Y32274454D01*
X3338363Y32284455D01*
X3396704Y32322238D01*
X3438931Y32398914D01*
X3451016Y32455032D01*
X3455044Y32525596D01*
X3450044Y32617830D01*
X3438376Y32703396D01*
X2770514Y32703396D01*
X2761763Y32655335D01*
X2755512Y32606718D01*
X2751762Y32558656D01*
X2750512Y32512261D01*
X2652351Y32512261D01*
X2652351Y33043439D01*
X2744956Y33043439D01*
X2749540Y32981209D01*
X2763291Y32930091D01*
X2785655Y32888975D01*
X2816076Y32856749D01*
X2854136Y32833135D01*
X2899419Y32817855D01*
X2951092Y32809521D01*
X3008322Y32806743D01*
X3447266Y32806743D01*
X3447266Y32943426D01*
X3018323Y32943426D01*
X2945536Y32947871D01*
X2897752Y32963429D01*
X2871638Y32993433D01*
X2863859Y33041216D01*
X2871638Y33089000D01*
X2897197Y33118448D01*
X2944425Y33133450D01*
X3017212Y33137895D01*
X3447266Y33137895D01*
X3447266Y33275690D01*
X3008322Y33275690D01*
X2951092Y33272912D01*
X2899419Y33264578D01*
X2854136Y33249576D01*
X2816076Y33226795D01*
X2763291Y33155119D01*
X2749540Y33104696D01*
X2744956Y33043439D01*
X2652351Y33043439D01*
X2652351Y33321992D01*
X2660953Y33409324D01*
X2686427Y33493300D01*
X2727794Y33570692D01*
X2783465Y33638527D01*
X2851300Y33694198D01*
X2928692Y33735565D01*
X3012668Y33761039D01*
X3100000Y33769641D01*
X3187332Y33761039D01*
X3271308Y33735565D01*
X3348700Y33694198D01*
X3416535Y33638527D01*
X3472206Y33570692D01*
X3513573Y33493300D01*
X3539047Y33409324D01*
X3547649Y33321992D01*
X3547649Y31078008D01*
X3539047Y30990676D01*
G37*
G36*
X3060551Y32493370D02*
G01*
X3038881Y32408359D01*
X2967206Y32376689D01*
X2917755Y32387801D01*
X2887751Y32416138D01*
X2873305Y32455588D01*
X2869416Y32501149D01*
X2870527Y32535042D01*
X2873861Y32566713D01*
X3060551Y32566713D01*
X3060551Y32493370D01*
G37*
G36*
X3335029Y32536709D02*
G01*
X3336141Y32504483D01*
X3333363Y32467811D01*
X3322250Y32436696D01*
X3298914Y32415583D01*
X3259464Y32407804D01*
X3196679Y32434474D01*
X3173898Y32513373D01*
X3173898Y32566713D01*
X3331696Y32566713D01*
X3335029Y32536709D01*
G37*
G36*
X3331696Y39130634D02*
G01*
X3332251Y39111743D01*
X3325862Y39062570D01*
X3306693Y39023954D01*
X3273911Y38998951D01*
X3226683Y38990617D01*
X3149451Y39021732D01*
X3129031Y39062570D01*
X3122225Y39122856D01*
X3122225Y39152859D01*
X3328918Y39152859D01*
X3331696Y39130634D01*
G37*
G36*
X3542862Y37576064D02*
G01*
X3517167Y37491359D01*
X3475440Y37413294D01*
X3419286Y37344869D01*
X3350861Y37288715D01*
X3272796Y37246988D01*
X3188091Y37221293D01*
X3100000Y37212617D01*
X3011909Y37221293D01*
X2927204Y37246988D01*
X2849139Y37288715D01*
X2780714Y37344869D01*
X2724560Y37413294D01*
X2682833Y37491359D01*
X2657138Y37576064D01*
X2648462Y37664155D01*
X2648462Y37891591D01*
X2755512Y37891591D01*
X3330029Y37891591D01*
X3330029Y37710457D01*
X3443376Y37710457D01*
X3443376Y38210519D01*
X3330029Y38210519D01*
X3330029Y38029386D01*
X2755512Y38029386D01*
X2755512Y37891591D01*
X2648462Y37891591D01*
X2648462Y38536116D01*
X2741066Y38536116D01*
X2746931Y38458143D01*
X2764526Y38394616D01*
X2793851Y38345536D01*
X2857609Y38298447D01*
X2943314Y38282751D01*
X2995126Y38287473D01*
X3037214Y38301642D01*
X3099444Y38349981D01*
X3139449Y38414434D01*
X3166675Y38481664D01*
X3183344Y38524447D01*
X3203902Y38563341D01*
X3230572Y38591678D01*
X3265576Y38602791D01*
X3309409Y38590690D01*
X3335708Y38554390D01*
X3344475Y38493888D01*
X3333363Y38415545D01*
X3306693Y38353871D01*
X3412261Y38313866D01*
X3444488Y38393320D01*
X3455322Y38444576D01*
X3458934Y38503889D01*
X3452884Y38571984D01*
X3434733Y38629584D01*
X3404483Y38676689D01*
X3339474Y38723778D01*
X3253353Y38739474D01*
X3171676Y38721694D01*
X3116669Y38676689D01*
X3079997Y38616126D01*
X3054439Y38551673D01*
X3034992Y38505001D01*
X3011656Y38462773D01*
X2982207Y38431658D01*
X2944425Y38419434D01*
X2911643Y38424435D01*
X2882751Y38442771D01*
X2862748Y38478886D01*
X2855525Y38536116D01*
X2859414Y38591539D01*
X2871082Y38637795D01*
X2904420Y38709471D01*
X2793295Y38749476D01*
X2759402Y38672799D01*
X2745650Y38613070D01*
X2741066Y38536116D01*
X2648462Y38536116D01*
X2648462Y38806149D01*
X2755512Y38806149D01*
X2828299Y38837820D01*
X2904976Y38876158D01*
X2978318Y38917274D01*
X3042215Y38957279D01*
X3073608Y38908662D01*
X3116669Y38876158D01*
X3168342Y38857822D01*
X3225571Y38851711D01*
X3279606Y38856295D01*
X3326139Y38870046D01*
X3396704Y38922831D01*
X3420873Y38960613D01*
X3437820Y39005063D01*
X3447821Y39055625D01*
X3451155Y39111743D01*
X3450044Y39150637D01*
X3447266Y39197309D01*
X3441709Y39245649D01*
X3433375Y39289543D01*
X2755512Y39289543D01*
X2755512Y39152859D01*
X3008877Y39152859D01*
X3008877Y39081739D01*
X2945953Y39044096D01*
X2883862Y39008952D01*
X2820937Y38977143D01*
X2755512Y38949501D01*
X2755512Y38806149D01*
X2648462Y38806149D01*
X2648462Y39335845D01*
X2657138Y39423936D01*
X2682833Y39508641D01*
X2724560Y39586706D01*
X2780714Y39655131D01*
X2849139Y39711285D01*
X2927204Y39753012D01*
X3011909Y39778707D01*
X3100000Y39787383D01*
X3188091Y39778707D01*
X3272796Y39753012D01*
X3350861Y39711285D01*
X3419286Y39655131D01*
X3475440Y39586706D01*
X3517167Y39508641D01*
X3542862Y39423936D01*
X3551538Y39335845D01*
X3551538Y37664155D01*
X3542862Y37576064D01*
G37*
X10080000Y29914165D02*
X10080000Y30145835D01*
X9360000Y29914165D02*
X9360000Y30145835D01*
X13205000Y30117621D02*
X13205000Y29782379D01*
X12445000Y30117621D02*
X12445000Y29782379D01*
G36*
X15832807Y15292683D02*
G01*
X15833363Y15272681D01*
X15813916Y15198227D01*
X15762243Y15152666D01*
X15687789Y15129329D01*
X15601111Y15122662D01*
X15552077Y15124745D01*
X15507211Y15130996D01*
X15433312Y15158777D01*
X15384417Y15209895D01*
X15366637Y15288238D01*
X15366637Y15300462D01*
X15367749Y15312686D01*
X15830029Y15312686D01*
X15832807Y15292683D01*
G37*
G36*
X16036322Y14850664D02*
G01*
X16011007Y14767209D01*
X15969896Y14690297D01*
X15914571Y14622883D01*
X15847157Y14567557D01*
X15770245Y14526447D01*
X15686790Y14501131D01*
X15600000Y14492583D01*
X15513210Y14501131D01*
X15429755Y14526447D01*
X15352843Y14567557D01*
X15285429Y14622883D01*
X15230104Y14690297D01*
X15188993Y14767209D01*
X15163678Y14850664D01*
X15155130Y14937454D01*
X15155130Y15302684D01*
X15247734Y15302684D01*
X15252595Y15235593D01*
X15267181Y15174335D01*
X15292323Y15120023D01*
X15328855Y15073767D01*
X15377333Y15036123D01*
X15438313Y15007647D01*
X15512628Y14989729D01*
X15601111Y14983756D01*
X15687650Y14989173D01*
X15760576Y15005425D01*
X15820861Y15031400D01*
X15869478Y15065988D01*
X15906566Y15109188D01*
X15932264Y15161000D01*
X15947266Y15220035D01*
X15952266Y15284904D01*
X15948933Y15361581D01*
X15935598Y15449369D01*
X15264402Y15449369D01*
X15251623Y15374360D01*
X15247734Y15302684D01*
X15155130Y15302684D01*
X15155130Y15553827D01*
X15256624Y15553827D01*
X15369971Y15553827D01*
X15369971Y15858309D01*
X15563329Y15858309D01*
X15563329Y15614946D01*
X15676676Y15614946D01*
X15676676Y15858309D01*
X15831140Y15858309D01*
X15831140Y15578274D01*
X15944488Y15578274D01*
X15944488Y15994993D01*
X15256624Y15994993D01*
X15256624Y15553827D01*
X15155130Y15553827D01*
X15155130Y16109452D01*
X15256624Y16109452D01*
X15369971Y16109452D01*
X15369971Y16403933D01*
X15944488Y16403933D01*
X15944488Y16541728D01*
X15256624Y16541728D01*
X15256624Y16109452D01*
X15155130Y16109452D01*
X15155130Y16969559D01*
X15247734Y16969559D01*
X15252595Y16902468D01*
X15267181Y16841210D01*
X15292323Y16786898D01*
X15328855Y16740642D01*
X15377333Y16702998D01*
X15438313Y16674522D01*
X15512628Y16656604D01*
X15601111Y16650631D01*
X15687650Y16656048D01*
X15760576Y16672300D01*
X15820861Y16698275D01*
X15869478Y16732863D01*
X15906566Y16776063D01*
X15932264Y16827875D01*
X15947266Y16886910D01*
X15952266Y16951779D01*
X15948933Y17028456D01*
X15935598Y17116244D01*
X15264402Y17116244D01*
X15251623Y17041235D01*
X15247734Y16969559D01*
X15155130Y16969559D01*
X15155130Y17162546D01*
X15163678Y17249336D01*
X15188993Y17332791D01*
X15230104Y17409703D01*
X15285429Y17477117D01*
X15352843Y17532443D01*
X15429755Y17573553D01*
X15513210Y17598869D01*
X15600000Y17607417D01*
X15686790Y17598869D01*
X15770245Y17573553D01*
X15847157Y17532443D01*
X15914571Y17477117D01*
X15969896Y17409703D01*
X16011007Y17332791D01*
X16036322Y17249336D01*
X16044870Y17162546D01*
X16044870Y14937454D01*
X16036322Y14850664D01*
G37*
G36*
X15832807Y16959558D02*
G01*
X15833363Y16939556D01*
X15813916Y16865102D01*
X15762243Y16819541D01*
X15687789Y16796204D01*
X15601111Y16789537D01*
X15552077Y16791620D01*
X15507211Y16797871D01*
X15433312Y16825652D01*
X15384417Y16876770D01*
X15366637Y16955113D01*
X15366637Y16967337D01*
X15367749Y16979561D01*
X15830029Y16979561D01*
X15832807Y16959558D01*
G37*
X13325000Y32815000D02*
X16035000Y32815000D01*
X16035000Y34385000D02*
X13325000Y34385000D01*
X13325000Y34385000D02*
X13325000Y32815000D01*
X14232379Y42320000D02*
X14567621Y42320000D01*
X14232379Y43080000D02*
X14567621Y43080000D01*
X15350000Y34770000D02*
X17150000Y34770000D01*
X15350000Y37890000D02*
X16150000Y37890000D01*
X15350000Y37890000D02*
X14550000Y37890000D01*
X15350000Y34770000D02*
X14550000Y34770000D01*
X7950000Y30197621D02*
X7950000Y29862379D01*
X8710000Y30197621D02*
X8710000Y29862379D01*
X4685000Y29285000D02*
X5885000Y29285000D01*
X6335000Y30135000D02*
X6885000Y30135000D01*
X3685000Y34335000D02*
X4235000Y34335000D01*
X6885000Y34335000D02*
X6335000Y34335000D01*
X4235000Y30135000D02*
X3685000Y30135000D01*
X6885000Y30135000D02*
X6885000Y34335000D01*
X3685000Y30135000D02*
X3685000Y34335000D01*
G36*
X17433090Y40401586D02*
G01*
X17433090Y40540492D01*
X17563291Y40540492D01*
X17676639Y40540492D01*
X17676639Y40677176D01*
X18251155Y40677176D01*
X18251155Y40770521D01*
X18207816Y40818304D01*
X18167811Y40877201D01*
X18133363Y40939431D01*
X18107804Y40997216D01*
X17994456Y40952766D01*
X18021682Y40884979D01*
X18061131Y40813859D01*
X17676639Y40813859D01*
X17676639Y40958322D01*
X17563291Y40958322D01*
X17563291Y40540492D01*
X17433090Y40540492D01*
X17433090Y41363928D01*
X17548845Y41363928D01*
X17553707Y41302254D01*
X17568292Y41250581D01*
X17591211Y41208214D01*
X17621076Y41174460D01*
X17698864Y41132233D01*
X17744703Y41122648D01*
X17793320Y41119453D01*
X18251155Y41119453D01*
X18251155Y41487277D01*
X18137808Y41487277D01*
X18137808Y41257248D01*
X17801099Y41257248D01*
X17736507Y41265444D01*
X17696086Y41290030D01*
X17674833Y41327951D01*
X17667749Y41376152D01*
X17684417Y41445605D01*
X17718866Y41507279D01*
X17609964Y41559508D01*
X17566625Y41480609D01*
X17553290Y41428103D01*
X17548845Y41363928D01*
X17433090Y41363928D01*
X17433090Y41698414D01*
X18366910Y41698414D01*
X18366910Y40401586D01*
X17433090Y40401586D01*
G37*
%LPC*%
D14*
X17400000Y19730000D03*
D15*
X17400000Y18850000D03*
D16*
X17030000Y15262500D03*
X17030000Y16837500D03*
D17*
X8510000Y13212500D03*
X8510000Y14347500D03*
X5430000Y26442500D03*
X5430000Y27577500D03*
D18*
X15585000Y41290000D03*
X14035000Y41290000D03*
D19*
X4512500Y20400000D03*
X5647500Y20400000D03*
D17*
X15905000Y29362500D03*
X15905000Y30497500D03*
X5240000Y42422500D03*
X5240000Y43557500D03*
D20*
X8247500Y32170000D03*
X7052500Y32170000D03*
X17067500Y10860000D03*
X15872500Y10860000D03*
D21*
X17000000Y1490000D03*
D22*
X10220000Y17817500D03*
X10220000Y16622500D03*
D23*
X15662500Y27630000D03*
X16797500Y27630000D03*
D24*
X7382500Y26230000D03*
X7382500Y25830000D03*
X7382500Y25430000D03*
X7382500Y25030000D03*
X7382500Y24630000D03*
X7382500Y24230000D03*
X7382500Y23830000D03*
X7382500Y23430000D03*
X7382500Y23030000D03*
X7382500Y22630000D03*
X7382500Y22230000D03*
X7382500Y21830000D03*
X7382500Y21430000D03*
X7382500Y21030000D03*
D25*
X8220000Y20192500D03*
X8620000Y20192500D03*
X9020000Y20192500D03*
X9420000Y20192500D03*
X9820000Y20192500D03*
X10220000Y20192500D03*
X10620000Y20192500D03*
X11020000Y20192500D03*
X11420000Y20192500D03*
X11820000Y20192500D03*
X12220000Y20192500D03*
X12620000Y20192500D03*
X13020000Y20192500D03*
X13420000Y20192500D03*
D24*
X14257500Y21030000D03*
X14257500Y21430000D03*
X14257500Y21830000D03*
X14257500Y22230000D03*
X14257500Y22630000D03*
X14257500Y23030000D03*
X14257500Y23430000D03*
X14257500Y23830000D03*
X14257500Y24230000D03*
X14257500Y24630000D03*
X14257500Y25030000D03*
X14257500Y25430000D03*
X14257500Y25830000D03*
X14257500Y26230000D03*
D25*
X13420000Y27067500D03*
X13020000Y27067500D03*
X12620000Y27067500D03*
X12220000Y27067500D03*
X11820000Y27067500D03*
X11420000Y27067500D03*
X11020000Y27067500D03*
X10620000Y27067500D03*
X10220000Y27067500D03*
X9820000Y27067500D03*
X9420000Y27067500D03*
X9020000Y27067500D03*
X8620000Y27067500D03*
X8220000Y27067500D03*
D26*
X10820000Y23630000D03*
D22*
X11825000Y30547500D03*
X11825000Y29352500D03*
D27*
X12750000Y17797500D03*
X12750000Y16662500D03*
D28*
X7955000Y33850000D03*
X9225000Y33850000D03*
X10495000Y33850000D03*
X11765000Y33850000D03*
X11765000Y41050000D03*
X10495000Y41050000D03*
X9225000Y41050000D03*
X7955000Y41050000D03*
D17*
X10720000Y29457500D03*
X10720000Y30592500D03*
D20*
X10777500Y32170000D03*
X9582500Y32170000D03*
D17*
X13930000Y29372500D03*
X13930000Y30507500D03*
D23*
X7477500Y42700000D03*
X6342500Y42700000D03*
D29*
X7950000Y1600000D03*
D30*
X7950000Y-10000D03*
D29*
X10490000Y1600000D03*
D30*
X10490000Y-10000D03*
D29*
X13030000Y1600000D03*
D30*
X13030000Y-10000D03*
D31*
X17500000Y38810000D03*
D32*
X17500000Y39690000D03*
D22*
X17300000Y33787500D03*
X17300000Y32592500D03*
D17*
X11630000Y16652500D03*
X11630000Y17787500D03*
D27*
X16100000Y19877500D03*
X16100000Y18742500D03*
D33*
X14015000Y31920000D03*
X15565000Y31920000D03*
D21*
X4000000Y1490000D03*
D34*
X7610000Y45920000D03*
X13410000Y45920000D03*
D35*
X13910000Y44470000D03*
X13110000Y44470000D03*
X11760000Y44470000D03*
X10760000Y44470000D03*
X10260000Y44470000D03*
X9260000Y44470000D03*
X7910000Y44470000D03*
X7110000Y44470000D03*
X7410000Y44470000D03*
X8210000Y44470000D03*
X8760000Y44470000D03*
X9760000Y44470000D03*
X11260000Y44470000D03*
X12260000Y44470000D03*
X12810000Y44470000D03*
X13610000Y44470000D03*
D36*
X14830000Y45390000D03*
X6190000Y45390000D03*
X14830000Y49570000D03*
X6190000Y49570000D03*
D17*
X13760000Y39887500D03*
X13760000Y38752500D03*
D15*
X15750000Y38810000D03*
D14*
X15750000Y39690000D03*
D20*
X9947500Y42700000D03*
X8752500Y42700000D03*
D37*
X10330000Y13100000D03*
X12530000Y13100000D03*
X12530000Y14800000D03*
X10330000Y14800000D03*
D38*
X4170000Y42422500D03*
X4170000Y43617500D03*
D39*
X16900000Y43350000D03*
X16900000Y45850000D03*
D16*
X4200000Y45412500D03*
X4200000Y46987500D03*
D21*
X17000000Y49490000D03*
D40*
X11810000Y46937500D03*
X11160000Y46937500D03*
X10510000Y46937500D03*
X9860000Y46937500D03*
X9210000Y46937500D03*
D41*
X11510000Y49637500D03*
D42*
X7010000Y49637500D03*
D43*
X13010000Y46937500D03*
D44*
X13410000Y49637500D03*
D43*
X8010000Y46937500D03*
D42*
X14010000Y49637500D03*
D44*
X7610000Y49637500D03*
D41*
X9510000Y49637500D03*
D21*
X4000000Y49490000D03*
D45*
X5300000Y40775000D03*
X5300000Y36425000D03*
D27*
X14330000Y14377500D03*
X14330000Y13242500D03*
D17*
X9720000Y29462500D03*
X9720000Y30597500D03*
D22*
X12825000Y30547500D03*
X12825000Y29352500D03*
D46*
X-10000Y49700000D03*
D47*
X1600000Y49700000D03*
D46*
X-10000Y47160000D03*
D47*
X1600000Y47160000D03*
D46*
X-10000Y44620000D03*
D47*
X1600000Y44620000D03*
D46*
X-10000Y42080000D03*
D47*
X1600000Y42080000D03*
X1600000Y39540000D03*
D46*
X-10000Y39540000D03*
D47*
X1600000Y37000000D03*
D46*
X-10000Y37000000D03*
X-10000Y34460000D03*
D47*
X1600000Y34460000D03*
D46*
X-10000Y31920000D03*
D47*
X1600000Y31920000D03*
X1600000Y29380000D03*
D46*
X-10000Y29380000D03*
X-10000Y26840000D03*
D47*
X1600000Y26840000D03*
D46*
X-10000Y24300000D03*
D47*
X1600000Y24300000D03*
D46*
X-10000Y21760000D03*
D47*
X1600000Y21760000D03*
D46*
X-10000Y19220000D03*
D47*
X1600000Y19220000D03*
D46*
X-10000Y16680000D03*
D47*
X1600000Y16680000D03*
D46*
X-10000Y14140000D03*
D47*
X1600000Y14140000D03*
D46*
X-10000Y11600000D03*
D47*
X1600000Y11600000D03*
X1600000Y9060000D03*
D46*
X-10000Y9060000D03*
X-10000Y6520000D03*
D47*
X1600000Y6520000D03*
D46*
X-10000Y3980000D03*
D47*
X1600000Y3980000D03*
D46*
X-10000Y1440000D03*
D47*
X1600000Y1440000D03*
D48*
X14147500Y33600000D03*
X15922500Y33600000D03*
D49*
X13802500Y42700000D03*
X14997500Y42700000D03*
D50*
X16487500Y35380000D03*
X16487500Y36330000D03*
X16487500Y37280000D03*
X14212500Y37280000D03*
X14212500Y35380000D03*
D22*
X8330000Y30627500D03*
X8330000Y29432500D03*
D45*
X5285000Y30060000D03*
X5285000Y34410000D03*
D51*
X6675000Y7600000D03*
D52*
X6675000Y5060000D03*
X9215000Y7600000D03*
X9215000Y5060000D03*
X11755000Y7600000D03*
X11755000Y5060000D03*
X14295000Y7600000D03*
X14295000Y5060000D03*
D46*
X21010000Y49700000D03*
D47*
X19400000Y49700000D03*
D46*
X21010000Y47160000D03*
D47*
X19400000Y47160000D03*
D46*
X21010000Y44620000D03*
D47*
X19400000Y44620000D03*
X19400000Y42080000D03*
D46*
X21010000Y42080000D03*
D47*
X19400000Y39540000D03*
D46*
X21010000Y39540000D03*
X21010000Y37000000D03*
D47*
X19400000Y37000000D03*
D46*
X21010000Y34460000D03*
D47*
X19400000Y34460000D03*
X19400000Y31920000D03*
D46*
X21010000Y31920000D03*
X21010000Y29380000D03*
D47*
X19400000Y29380000D03*
D46*
X21010000Y26840000D03*
D47*
X19400000Y26840000D03*
D46*
X21010000Y24300000D03*
D47*
X19400000Y24300000D03*
D46*
X21010000Y21760000D03*
D47*
X19400000Y21760000D03*
X19400000Y19220000D03*
D46*
X21010000Y19220000D03*
D47*
X19400000Y16680000D03*
D46*
X21010000Y16680000D03*
X21010000Y14140000D03*
D47*
X19400000Y14140000D03*
X19400000Y11600000D03*
D46*
X21010000Y11600000D03*
X21010000Y9060000D03*
D47*
X19400000Y9060000D03*
X19400000Y6520000D03*
D46*
X21010000Y6520000D03*
X21010000Y3980000D03*
D47*
X19400000Y3980000D03*
D46*
X21010000Y1440000D03*
D47*
X19400000Y1440000D03*
M02*
