%TF.GenerationSoftware,KiCad,Pcbnew,(6.0.7)*%
%TF.CreationDate,2022-09-23T08:48:44+05:30*%
%TF.ProjectId,Mitayi-Pico-RP2040,4d697461-7969-42d5-9069-636f2d525032,0.4*%
%TF.SameCoordinates,PX825e060PY6d4a840*%
%TF.FileFunction,Other,User*%
%FSLAX46Y46*%
G04 Gerber Fmt 4.6, Leading zero omitted, Abs format (unit mm)*
G04 Created by KiCad (PCBNEW (6.0.7)) date 2022-09-23 08:48:44*
%MOMM*%
%LPD*%
G01*
G04 APERTURE LIST*
%ADD10C,0.050000*%
G04 APERTURE END LIST*
D10*
%TO.C,JP5*%
X16930000Y18360000D02*
X16930000Y20220000D01*
X17870000Y18360000D02*
X16930000Y18360000D01*
X16930000Y20220000D02*
X17870000Y20220000D01*
X17870000Y20220000D02*
X17870000Y18360000D01*
%TO.C,D2*%
X17760000Y14570000D02*
X16300000Y14570000D01*
X17760000Y17530000D02*
X17760000Y14570000D01*
X16300000Y14570000D02*
X16300000Y17530000D01*
X16300000Y17530000D02*
X17760000Y17530000D01*
%TO.C,C17*%
X8970000Y14860000D02*
X8970000Y12700000D01*
X8050000Y14860000D02*
X8970000Y14860000D01*
X8050000Y12700000D02*
X8050000Y14860000D01*
X8970000Y12700000D02*
X8050000Y12700000D01*
%TO.C,C12*%
X5890000Y28090000D02*
X5890000Y25930000D01*
X4970000Y25930000D02*
X4970000Y28090000D01*
X4970000Y28090000D02*
X5890000Y28090000D01*
X5890000Y25930000D02*
X4970000Y25930000D01*
%TO.C,C13*%
X13330000Y42020000D02*
X16290000Y42020000D01*
X13330000Y40560000D02*
X13330000Y42020000D01*
X16290000Y40560000D02*
X13330000Y40560000D01*
X16290000Y42020000D02*
X16290000Y40560000D01*
%TO.C,C6*%
X4000000Y19940000D02*
X4000000Y20860000D01*
X4000000Y20860000D02*
X6160000Y20860000D01*
X6160000Y19940000D02*
X4000000Y19940000D01*
X6160000Y20860000D02*
X6160000Y19940000D01*
%TO.C,C11*%
X16365000Y31010000D02*
X16365000Y28850000D01*
X16365000Y28850000D02*
X15445000Y28850000D01*
X15445000Y31010000D02*
X16365000Y31010000D01*
X15445000Y28850000D02*
X15445000Y31010000D01*
%TO.C,C19*%
X5700000Y41910000D02*
X4780000Y41910000D01*
X5700000Y44070000D02*
X5700000Y41910000D01*
X4780000Y44070000D02*
X5700000Y44070000D01*
X4780000Y41910000D02*
X4780000Y44070000D01*
%TO.C,R2*%
X8950000Y32640000D02*
X8950000Y31700000D01*
X8950000Y31700000D02*
X6750000Y31700000D01*
X6750000Y31700000D02*
X6750000Y32640000D01*
X6750000Y32640000D02*
X8950000Y32640000D01*
%TO.C,R7*%
X15370000Y10390000D02*
X15370000Y11330000D01*
X17570000Y11330000D02*
X17570000Y10390000D01*
X17570000Y10390000D02*
X15370000Y10390000D01*
X15370000Y11330000D02*
X17570000Y11330000D01*
%TO.C,H3*%
X18118034Y1490000D02*
G75*
G03*
X18118034Y1490000I-1118034J0D01*
G01*
%TO.C,R10*%
X9750000Y16120000D02*
X9750000Y18320000D01*
X10690000Y16120000D02*
X9750000Y16120000D01*
X9750000Y18320000D02*
X10690000Y18320000D01*
X10690000Y18320000D02*
X10690000Y16120000D01*
%TO.C,C10*%
X15150000Y27170000D02*
X15150000Y28090000D01*
X17310000Y27170000D02*
X15150000Y27170000D01*
X17310000Y28090000D02*
X17310000Y27170000D01*
X15150000Y28090000D02*
X17310000Y28090000D01*
%TO.C,U3*%
X6700000Y27750000D02*
X6700000Y19510000D01*
X6700000Y19510000D02*
X14940000Y19510000D01*
X14940000Y19510000D02*
X14940000Y27750000D01*
X14940000Y27750000D02*
X6700000Y27750000D01*
%TO.C,R5*%
X11355000Y31050000D02*
X12295000Y31050000D01*
X11355000Y28850000D02*
X11355000Y31050000D01*
X12295000Y28850000D02*
X11355000Y28850000D01*
X12295000Y31050000D02*
X12295000Y28850000D01*
%TO.C,C2*%
X12290000Y18310000D02*
X13210000Y18310000D01*
X13210000Y18310000D02*
X13210000Y16150000D01*
X13210000Y16150000D02*
X12290000Y16150000D01*
X12290000Y16150000D02*
X12290000Y18310000D01*
%TO.C,U1*%
X7000000Y32800000D02*
X12720000Y32800000D01*
X12720000Y32800000D02*
X12720000Y42100000D01*
X7000000Y42100000D02*
X7000000Y32800000D01*
X12720000Y42100000D02*
X7000000Y42100000D01*
%TO.C,C5*%
X11180000Y28945000D02*
X10260000Y28945000D01*
X10260000Y28945000D02*
X10260000Y31105000D01*
X10260000Y31105000D02*
X11180000Y31105000D01*
X11180000Y31105000D02*
X11180000Y28945000D01*
%TO.C,R1*%
X11280000Y31700000D02*
X9080000Y31700000D01*
X9080000Y32640000D02*
X11280000Y32640000D01*
X11280000Y32640000D02*
X11280000Y31700000D01*
X9080000Y31700000D02*
X9080000Y32640000D01*
%TO.C,C4*%
X14390000Y28860000D02*
X13470000Y28860000D01*
X13470000Y28860000D02*
X13470000Y31020000D01*
X14390000Y31020000D02*
X14390000Y28860000D01*
X13470000Y31020000D02*
X14390000Y31020000D01*
%TO.C,C1*%
X7990000Y42240000D02*
X5830000Y42240000D01*
X7990000Y43160000D02*
X7990000Y42240000D01*
X5830000Y42240000D02*
X5830000Y43160000D01*
X5830000Y43160000D02*
X7990000Y43160000D01*
%TO.C,J5*%
X14800000Y-200000D02*
X14800000Y3400000D01*
X14800000Y3400000D02*
X6150000Y3400000D01*
X6150000Y3400000D02*
X6150000Y-200000D01*
X6150000Y-200000D02*
X14800000Y-200000D01*
%TO.C,JP1*%
X17970000Y38320000D02*
X17030000Y38320000D01*
X17030000Y40180000D02*
X17970000Y40180000D01*
X17030000Y38320000D02*
X17030000Y40180000D01*
X17970000Y40180000D02*
X17970000Y38320000D01*
%TO.C,R9*%
X16830000Y34290000D02*
X17770000Y34290000D01*
X16830000Y32090000D02*
X16830000Y34290000D01*
X17770000Y32090000D02*
X16830000Y32090000D01*
X17770000Y34290000D02*
X17770000Y32090000D01*
%TO.C,C9*%
X12090000Y16140000D02*
X11170000Y16140000D01*
X11170000Y16140000D02*
X11170000Y18300000D01*
X12090000Y18300000D02*
X12090000Y16140000D01*
X11170000Y18300000D02*
X12090000Y18300000D01*
%TO.C,C8*%
X15640000Y20390000D02*
X16560000Y20390000D01*
X15640000Y18230000D02*
X15640000Y20390000D01*
X16560000Y18230000D02*
X15640000Y18230000D01*
X16560000Y20390000D02*
X16560000Y18230000D01*
%TO.C,C15*%
X16270000Y31190000D02*
X13310000Y31190000D01*
X13310000Y31190000D02*
X13310000Y32650000D01*
X16270000Y32650000D02*
X16270000Y31190000D01*
X13310000Y32650000D02*
X16270000Y32650000D01*
%TO.C,H2*%
X5118034Y1490000D02*
G75*
G03*
X5118034Y1490000I-1118034J0D01*
G01*
%TO.C,J2*%
X15510000Y43570000D02*
X5510000Y43570000D01*
X5510000Y43570000D02*
X5510000Y52570000D01*
X5510000Y52570000D02*
X15510000Y52570000D01*
X15510000Y52570000D02*
X15510000Y43570000D01*
%TO.C,C16*%
X13300000Y38240000D02*
X13300000Y40400000D01*
X13300000Y40400000D02*
X14220000Y40400000D01*
X14220000Y38240000D02*
X13300000Y38240000D01*
X14220000Y40400000D02*
X14220000Y38240000D01*
%TO.C,JP4*%
X15280000Y38320000D02*
X15280000Y40180000D01*
X16220000Y38320000D02*
X15280000Y38320000D01*
X15280000Y40180000D02*
X16220000Y40180000D01*
X16220000Y40180000D02*
X16220000Y38320000D01*
%TO.C,R4*%
X8250000Y43170000D02*
X10450000Y43170000D01*
X10450000Y43170000D02*
X10450000Y42230000D01*
X8250000Y42230000D02*
X8250000Y43170000D01*
X10450000Y42230000D02*
X8250000Y42230000D01*
%TO.C,Y1*%
X13530000Y12250000D02*
X13530000Y15650000D01*
X9330000Y15650000D02*
X9330000Y12250000D01*
X9330000Y12250000D02*
X13530000Y12250000D01*
X13530000Y15650000D02*
X9330000Y15650000D01*
%TO.C,R8*%
X3700000Y44120000D02*
X4640000Y44120000D01*
X4640000Y44120000D02*
X4640000Y41920000D01*
X3700000Y41920000D02*
X3700000Y44120000D01*
X4640000Y41920000D02*
X3700000Y41920000D01*
%TO.C,D1*%
X17850000Y42600000D02*
X17850000Y46600000D01*
X15950000Y42600000D02*
X17850000Y42600000D01*
X15950000Y46600000D02*
X17850000Y46600000D01*
X15950000Y42600000D02*
X15950000Y46600000D01*
%TO.C,D3*%
X3470000Y47680000D02*
X4930000Y47680000D01*
X3470000Y44720000D02*
X3470000Y47680000D01*
X4930000Y44720000D02*
X3470000Y44720000D01*
X4930000Y47680000D02*
X4930000Y44720000D01*
%TO.C,H4*%
X18118034Y49490000D02*
G75*
G03*
X18118034Y49490000I-1118034J0D01*
G01*
%TO.C,J6*%
X14910000Y52040000D02*
X6110000Y52040000D01*
X14910000Y52040000D02*
X14910000Y45940000D01*
X14910000Y45940000D02*
X6110000Y45940000D01*
X6110000Y45940000D02*
X6110000Y52040000D01*
%TO.C,H1*%
X5118034Y49490000D02*
G75*
G03*
X5118034Y49490000I-1118034J0D01*
G01*
%TO.C,SW1*%
X6900000Y41550000D02*
X3700000Y41550000D01*
X3700000Y41550000D02*
X3700000Y35650000D01*
X3700000Y35650000D02*
X6900000Y35650000D01*
X6900000Y35650000D02*
X6900000Y41550000D01*
%TO.C,C18*%
X13870000Y12730000D02*
X13870000Y14890000D01*
X13870000Y14890000D02*
X14790000Y14890000D01*
X14790000Y14890000D02*
X14790000Y12730000D01*
X14790000Y12730000D02*
X13870000Y12730000D01*
%TO.C,C7*%
X9260000Y31110000D02*
X10180000Y31110000D01*
X10180000Y31110000D02*
X10180000Y28950000D01*
X10180000Y28950000D02*
X9260000Y28950000D01*
X9260000Y28950000D02*
X9260000Y31110000D01*
%TO.C,R6*%
X13295000Y31050000D02*
X13295000Y28850000D01*
X12355000Y31050000D02*
X13295000Y31050000D01*
X13295000Y28850000D02*
X12355000Y28850000D01*
X12355000Y28850000D02*
X12355000Y31050000D01*
%TO.C,J3*%
X-200000Y-350000D02*
X3400000Y-350000D01*
X-200000Y51500000D02*
X-200000Y-350000D01*
X3400000Y51500000D02*
X-200000Y51500000D01*
X3400000Y-350000D02*
X3400000Y51500000D01*
%TO.C,C14*%
X16735000Y32720000D02*
X13335000Y32720000D01*
X13335000Y34480000D02*
X16735000Y34480000D01*
X13335000Y32720000D02*
X13335000Y34480000D01*
X16735000Y34480000D02*
X16735000Y32720000D01*
%TO.C,R3*%
X13300000Y42230000D02*
X13300000Y43170000D01*
X15500000Y42230000D02*
X13300000Y42230000D01*
X13300000Y43170000D02*
X15500000Y43170000D01*
X15500000Y43170000D02*
X15500000Y42230000D01*
%TO.C,U2*%
X17400000Y38030000D02*
X13300000Y38030000D01*
X13300000Y34630000D02*
X17400000Y34630000D01*
X13300000Y38030000D02*
X13300000Y34630000D01*
X17400000Y34630000D02*
X17400000Y38030000D01*
%TO.C,R11*%
X7860000Y31130000D02*
X8800000Y31130000D01*
X7860000Y28930000D02*
X7860000Y31130000D01*
X8800000Y28930000D02*
X7860000Y28930000D01*
X8800000Y31130000D02*
X8800000Y28930000D01*
%TO.C,SW2*%
X3685000Y29285000D02*
X6885000Y29285000D01*
X6885000Y29285000D02*
X6885000Y35185000D01*
X6885000Y35185000D02*
X3685000Y35185000D01*
X3685000Y35185000D02*
X3685000Y29285000D01*
%TD*%
M02*
