%TF.GenerationSoftware,KiCad,Pcbnew,(6.0.7)*%
%TF.CreationDate,2022-09-23T08:48:44+05:30*%
%TF.ProjectId,Mitayi-Pico-RP2040,4d697461-7969-42d5-9069-636f2d525032,0.4*%
%TF.SameCoordinates,PX825e060PY6d4a840*%
%TF.FileFunction,Soldermask,Bot*%
%TF.FilePolarity,Negative*%
%FSLAX46Y46*%
G04 Gerber Fmt 4.6, Leading zero omitted, Abs format (unit mm)*
G04 Created by KiCad (PCBNEW (6.0.7)) date 2022-09-23 08:48:44*
%MOMM*%
%LPD*%
G01*
G04 APERTURE LIST*
G04 Aperture macros list*
%AMRoundRect*
0 Rectangle with rounded corners*
0 $1 Rounding radius*
0 $2 $3 $4 $5 $6 $7 $8 $9 X,Y pos of 4 corners*
0 Add a 4 corners polygon primitive as box body*
4,1,4,$2,$3,$4,$5,$6,$7,$8,$9,$2,$3,0*
0 Add four circle primitives for the rounded corners*
1,1,$1+$1,$2,$3*
1,1,$1+$1,$4,$5*
1,1,$1+$1,$6,$7*
1,1,$1+$1,$8,$9*
0 Add four rect primitives between the rounded corners*
20,1,$1+$1,$2,$3,$4,$5,0*
20,1,$1+$1,$4,$5,$6,$7,0*
20,1,$1+$1,$6,$7,$8,$9,0*
20,1,$1+$1,$8,$9,$2,$3,0*%
%AMOutline5P*
0 Free polygon, 5 corners , with rotation*
0 The origin of the aperture is its center*
0 number of corners: always 5*
0 $1 to $10 corner X, Y*
0 $11 Rotation angle, in degrees counterclockwise*
0 create outline with 5 corners*
4,1,5,$1,$2,$3,$4,$5,$6,$7,$8,$9,$10,$1,$2,$11*%
%AMOutline6P*
0 Free polygon, 6 corners , with rotation*
0 The origin of the aperture is its center*
0 number of corners: always 6*
0 $1 to $12 corner X, Y*
0 $13 Rotation angle, in degrees counterclockwise*
0 create outline with 6 corners*
4,1,6,$1,$2,$3,$4,$5,$6,$7,$8,$9,$10,$11,$12,$1,$2,$13*%
%AMOutline7P*
0 Free polygon, 7 corners , with rotation*
0 The origin of the aperture is its center*
0 number of corners: always 7*
0 $1 to $14 corner X, Y*
0 $15 Rotation angle, in degrees counterclockwise*
0 create outline with 7 corners*
4,1,7,$1,$2,$3,$4,$5,$6,$7,$8,$9,$10,$11,$12,$13,$14,$1,$2,$15*%
%AMOutline8P*
0 Free polygon, 8 corners , with rotation*
0 The origin of the aperture is its center*
0 number of corners: always 8*
0 $1 to $16 corner X, Y*
0 $17 Rotation angle, in degrees counterclockwise*
0 create outline with 8 corners*
4,1,8,$1,$2,$3,$4,$5,$6,$7,$8,$9,$10,$11,$12,$13,$14,$15,$16,$1,$2,$17*%
G04 Aperture macros list end*
%ADD10C,0.150000*%
%ADD11C,1.500000*%
%ADD12O,1.600000X1.700000*%
%ADD13R,1.600000X3.200000*%
%ADD14C,0.670000*%
%ADD15RoundRect,0.500000X0.000000X0.300000X0.000000X0.300000X0.000000X-0.300000X0.000000X-0.300000X0*%
%ADD16O,1.200000X1.900000*%
%ADD17C,1.450000*%
%ADD18R,3.200000X1.600000*%
%ADD19O,1.700000X1.600000*%
%ADD20R,1.700000X1.700000*%
%ADD21O,1.700000X1.700000*%
%ADD22Outline6P,-0.290000X0.117000X-0.087000X0.320000X0.290000X0.320000X0.290000X-0.320000X-0.087000X-0.320000X-0.290000X-0.117000X270.000000*%
%ADD23R,0.640000X0.500000*%
%ADD24R,0.640000X0.580000*%
G04 APERTURE END LIST*
D10*
X11200000Y40928572D02*
X11085714Y40928572D01*
X11028571Y40900000D01*
X10971428Y40842858D01*
X10942857Y40728572D01*
X10942857Y40528572D01*
X10971428Y40414286D01*
X11028571Y40357143D01*
X11085714Y40328572D01*
X11200000Y40328572D01*
X11257142Y40357143D01*
X11314285Y40414286D01*
X11342857Y40528572D01*
X11342857Y40728572D01*
X11314285Y40842858D01*
X11257142Y40900000D01*
X11200000Y40928572D01*
X10714285Y40357143D02*
X10628571Y40328572D01*
X10485714Y40328572D01*
X10428571Y40357143D01*
X10400000Y40385715D01*
X10371428Y40442858D01*
X10371428Y40500000D01*
X10400000Y40557143D01*
X10428571Y40585715D01*
X10485714Y40614286D01*
X10600000Y40642858D01*
X10657142Y40671429D01*
X10685714Y40700000D01*
X10714285Y40757143D01*
X10714285Y40814286D01*
X10685714Y40871429D01*
X10657142Y40900000D01*
X10600000Y40928572D01*
X10457142Y40928572D01*
X10371428Y40900000D01*
X10114285Y40328572D02*
X10114285Y40928572D01*
X10114285Y40642858D02*
X9771428Y40642858D01*
X9771428Y40328572D02*
X9771428Y40928572D01*
X9542857Y40928572D02*
X9400000Y40328572D01*
X9285714Y40757143D01*
X9171428Y40328572D01*
X9028571Y40928572D01*
%TO.C,G\u002A\u002A\u002A*%
G36*
X10268110Y44218025D02*
G01*
X10308672Y44217517D01*
X10345646Y44216722D01*
X10377560Y44215640D01*
X10402942Y44214269D01*
X10420319Y44212607D01*
X10428217Y44210652D01*
X10430585Y44206918D01*
X10434582Y44195317D01*
X10439679Y44175606D01*
X10446001Y44147220D01*
X10453672Y44109591D01*
X10462818Y44062153D01*
X10473562Y44004340D01*
X10478758Y43976028D01*
X10488468Y43923412D01*
X10496543Y43880288D01*
X10503199Y43845695D01*
X10508651Y43818674D01*
X10513116Y43798264D01*
X10516811Y43783506D01*
X10519952Y43773438D01*
X10522755Y43767102D01*
X10525436Y43763536D01*
X10528212Y43761781D01*
X10528531Y43761652D01*
X10536484Y43758395D01*
X10553129Y43751563D01*
X10577089Y43741723D01*
X10606987Y43729438D01*
X10641446Y43715277D01*
X10679088Y43699803D01*
X10699391Y43691476D01*
X10738814Y43675490D01*
X10769724Y43663315D01*
X10793273Y43654557D01*
X10810615Y43648819D01*
X10822904Y43645707D01*
X10831294Y43644827D01*
X10836938Y43645783D01*
X10837178Y43645880D01*
X10845354Y43650526D01*
X10861455Y43660704D01*
X10884378Y43675681D01*
X10913022Y43694726D01*
X10946283Y43717104D01*
X10983060Y43742084D01*
X11022250Y43768934D01*
X11025876Y43771427D01*
X11064606Y43797960D01*
X11100592Y43822428D01*
X11132774Y43844125D01*
X11160091Y43862343D01*
X11181484Y43876374D01*
X11195892Y43885511D01*
X11202254Y43889047D01*
X11204995Y43888035D01*
X11215493Y43880153D01*
X11233000Y43864831D01*
X11257123Y43842437D01*
X11287467Y43813338D01*
X11323640Y43777905D01*
X11365248Y43736505D01*
X11366617Y43735134D01*
X11405988Y43695597D01*
X11438133Y43663047D01*
X11463723Y43636746D01*
X11483426Y43615954D01*
X11497912Y43599933D01*
X11507848Y43587942D01*
X11513903Y43579243D01*
X11516748Y43573097D01*
X11517050Y43568765D01*
X11517007Y43568586D01*
X11513021Y43560708D01*
X11503464Y43544895D01*
X11489053Y43522245D01*
X11470505Y43493855D01*
X11448538Y43460824D01*
X11423868Y43424249D01*
X11397212Y43385229D01*
X11371150Y43347026D01*
X11346019Y43309574D01*
X11323996Y43276110D01*
X11305733Y43247651D01*
X11291881Y43225212D01*
X11283091Y43209808D01*
X11280014Y43202455D01*
X11280689Y43198821D01*
X11285089Y43185285D01*
X11292995Y43164172D01*
X11303714Y43137097D01*
X11316557Y43105678D01*
X11330832Y43071532D01*
X11345847Y43036276D01*
X11360911Y43001527D01*
X11375332Y42968901D01*
X11388420Y42940016D01*
X11399482Y42916488D01*
X11407829Y42899936D01*
X11412767Y42891974D01*
X11416036Y42889687D01*
X11424893Y42886069D01*
X11439542Y42881770D01*
X11460838Y42876596D01*
X11489637Y42870357D01*
X11526794Y42862859D01*
X11573164Y42853912D01*
X11629603Y42843323D01*
X11651095Y42839316D01*
X11704753Y42829144D01*
X11748472Y42820556D01*
X11782984Y42813389D01*
X11809018Y42807481D01*
X11827308Y42802668D01*
X11838584Y42798789D01*
X11843578Y42795679D01*
X11844589Y42793650D01*
X11846318Y42785614D01*
X11847704Y42771542D01*
X11848774Y42750595D01*
X11849554Y42721931D01*
X11850071Y42684712D01*
X11850353Y42638097D01*
X11850426Y42581247D01*
X11850425Y42580020D01*
X11850316Y42533005D01*
X11850046Y42489158D01*
X11849638Y42449796D01*
X11849110Y42416238D01*
X11848485Y42389803D01*
X11847781Y42371809D01*
X11847021Y42363573D01*
X11846750Y42362557D01*
X11845539Y42358861D01*
X11843398Y42355630D01*
X11839331Y42352617D01*
X11832340Y42349572D01*
X11821430Y42346249D01*
X11805605Y42342400D01*
X11783868Y42337776D01*
X11755224Y42332131D01*
X11718675Y42325216D01*
X11673226Y42316785D01*
X11617880Y42306588D01*
X11599693Y42303224D01*
X11546233Y42293104D01*
X11503073Y42284518D01*
X11469711Y42277355D01*
X11445647Y42271502D01*
X11430383Y42266849D01*
X11423417Y42263285D01*
X11423383Y42263249D01*
X11418976Y42255636D01*
X11411291Y42239264D01*
X11400959Y42215710D01*
X11388613Y42186555D01*
X11374883Y42153377D01*
X11360402Y42117755D01*
X11345803Y42081269D01*
X11331716Y42045497D01*
X11318774Y42012019D01*
X11307609Y41982414D01*
X11298852Y41958261D01*
X11293136Y41941138D01*
X11291092Y41932626D01*
X11293899Y41926032D01*
X11302353Y41911300D01*
X11315752Y41889639D01*
X11333389Y41862149D01*
X11354555Y41829934D01*
X11378542Y41794096D01*
X11404644Y41755737D01*
X11429698Y41718930D01*
X11453787Y41682962D01*
X11475083Y41650571D01*
X11492879Y41622858D01*
X11506466Y41600926D01*
X11515138Y41585878D01*
X11518185Y41578818D01*
X11518084Y41578144D01*
X11512763Y41569540D01*
X11499417Y41553490D01*
X11478121Y41530076D01*
X11448951Y41499380D01*
X11411984Y41461483D01*
X11367296Y41416468D01*
X11354128Y41403315D01*
X11311142Y41360757D01*
X11275545Y41326178D01*
X11247222Y41299472D01*
X11226057Y41280529D01*
X11211932Y41269242D01*
X11204733Y41265504D01*
X11198798Y41267922D01*
X11184518Y41276007D01*
X11163266Y41289083D01*
X11136160Y41306433D01*
X11104315Y41327342D01*
X11068849Y41351092D01*
X11030880Y41376968D01*
X10997054Y41400040D01*
X10961249Y41424059D01*
X10928938Y41445314D01*
X10901237Y41463087D01*
X10879264Y41476664D01*
X10864138Y41485329D01*
X10856974Y41488366D01*
X10854053Y41487817D01*
X10841507Y41483113D01*
X10822241Y41474376D01*
X10798285Y41462553D01*
X10771669Y41448591D01*
X10766589Y41445864D01*
X10737587Y41430926D01*
X10714017Y41419898D01*
X10697233Y41413378D01*
X10688590Y41411961D01*
X10684980Y41416359D01*
X10677577Y41430067D01*
X10666550Y41453203D01*
X10651835Y41485915D01*
X10633366Y41528352D01*
X10611077Y41580665D01*
X10584902Y41643002D01*
X10554775Y41715512D01*
X10529544Y41776498D01*
X10501792Y41843595D01*
X10477795Y41901660D01*
X10457289Y41951360D01*
X10440009Y41993364D01*
X10425691Y42028339D01*
X10414071Y42056952D01*
X10404882Y42079871D01*
X10397862Y42097763D01*
X10392745Y42111297D01*
X10389268Y42121140D01*
X10387164Y42127959D01*
X10386170Y42132422D01*
X10386022Y42135196D01*
X10386454Y42136950D01*
X10387201Y42138350D01*
X10387456Y42138729D01*
X10394230Y42145055D01*
X10408026Y42156069D01*
X10426982Y42170330D01*
X10449236Y42186396D01*
X10500051Y42225959D01*
X10551264Y42276114D01*
X10592473Y42330007D01*
X10624111Y42388322D01*
X10646608Y42451743D01*
X10660396Y42520953D01*
X10664061Y42575925D01*
X10659012Y42642110D01*
X10644095Y42706224D01*
X10619974Y42767303D01*
X10587311Y42824386D01*
X10546770Y42876512D01*
X10499013Y42922717D01*
X10444703Y42962041D01*
X10384505Y42993520D01*
X10319079Y43016194D01*
X10291112Y43022108D01*
X10242841Y43027407D01*
X10191605Y43028212D01*
X10141728Y43024519D01*
X10097536Y43016327D01*
X10037571Y42996326D01*
X9974701Y42964861D01*
X9917983Y42924736D01*
X9868131Y42876654D01*
X9825861Y42821318D01*
X9791887Y42759430D01*
X9766926Y42691692D01*
X9762534Y42675277D01*
X9758394Y42654850D01*
X9755896Y42633092D01*
X9754702Y42606761D01*
X9754472Y42572613D01*
X9754887Y42544504D01*
X9757205Y42506136D01*
X9762292Y42472846D01*
X9770989Y42441059D01*
X9784135Y42407198D01*
X9802570Y42367685D01*
X9805058Y42362637D01*
X9817903Y42337867D01*
X9829972Y42317943D01*
X9843513Y42299798D01*
X9860776Y42280362D01*
X9884010Y42256568D01*
X9906595Y42235087D01*
X9933716Y42211366D01*
X9960200Y42190035D01*
X9982610Y42173971D01*
X9994486Y42166098D01*
X10013939Y42151815D01*
X10024878Y42141072D01*
X10028303Y42132976D01*
X10026384Y42126302D01*
X10020564Y42110325D01*
X10011262Y42086153D01*
X9998903Y42054811D01*
X9983910Y42017324D01*
X9966708Y41974720D01*
X9947721Y41928021D01*
X9927373Y41878256D01*
X9906088Y41826447D01*
X9884290Y41773622D01*
X9862403Y41720806D01*
X9840852Y41669024D01*
X9820060Y41619301D01*
X9800451Y41572663D01*
X9782450Y41530136D01*
X9766481Y41492744D01*
X9752967Y41461514D01*
X9742333Y41437471D01*
X9735003Y41421639D01*
X9731400Y41415046D01*
X9730507Y41414210D01*
X9726203Y41412177D01*
X9719557Y41412601D01*
X9709092Y41416052D01*
X9693333Y41423099D01*
X9670802Y41434310D01*
X9640022Y41450256D01*
X9556768Y41493774D01*
X9503144Y41457955D01*
X9494219Y41451968D01*
X9470219Y41435735D01*
X9440273Y41415356D01*
X9406502Y41392278D01*
X9371029Y41367953D01*
X9335979Y41343828D01*
X9311816Y41327335D01*
X9281849Y41307381D01*
X9255443Y41290359D01*
X9233972Y41277131D01*
X9218807Y41268561D01*
X9211323Y41265512D01*
X9210459Y41265705D01*
X9202284Y41271119D01*
X9187842Y41283208D01*
X9168156Y41300950D01*
X9144246Y41323324D01*
X9117133Y41349307D01*
X9087838Y41377877D01*
X9057382Y41408012D01*
X9026786Y41438689D01*
X8997070Y41468888D01*
X8969255Y41497585D01*
X8944363Y41523759D01*
X8923414Y41546387D01*
X8907429Y41564448D01*
X8897430Y41576919D01*
X8894435Y41582778D01*
X8898037Y41588839D01*
X8907235Y41603015D01*
X8921288Y41624180D01*
X8939470Y41651256D01*
X8961057Y41683163D01*
X8985325Y41718822D01*
X9011548Y41757155D01*
X9037157Y41794725D01*
X9061222Y41830483D01*
X9082489Y41862550D01*
X9100256Y41889842D01*
X9113818Y41911279D01*
X9122471Y41925779D01*
X9125512Y41932260D01*
X9125170Y41934253D01*
X9121606Y41945622D01*
X9114663Y41964952D01*
X9104953Y41990718D01*
X9093090Y42021396D01*
X9079690Y42055461D01*
X9065364Y42091388D01*
X9050729Y42127652D01*
X9036396Y42162730D01*
X9022980Y42195096D01*
X9011095Y42223226D01*
X9001355Y42245594D01*
X8994373Y42260677D01*
X8990764Y42266949D01*
X8990673Y42267013D01*
X8983394Y42269245D01*
X8966527Y42273173D01*
X8941322Y42278544D01*
X8909028Y42285103D01*
X8870896Y42292597D01*
X8828177Y42300770D01*
X8782119Y42309369D01*
X8734227Y42318296D01*
X8684441Y42327862D01*
X8644574Y42335914D01*
X8614065Y42342576D01*
X8592348Y42347971D01*
X8578860Y42352225D01*
X8573037Y42355461D01*
X8571167Y42362792D01*
X8569494Y42379775D01*
X8568111Y42404829D01*
X8567016Y42436481D01*
X8566208Y42473259D01*
X8565686Y42513690D01*
X8565446Y42556302D01*
X8565489Y42599621D01*
X8565811Y42642174D01*
X8566412Y42682490D01*
X8567290Y42719096D01*
X8568443Y42750519D01*
X8569869Y42775285D01*
X8571568Y42791923D01*
X8573536Y42798960D01*
X8573841Y42799156D01*
X8582094Y42801758D01*
X8599848Y42806043D01*
X8625860Y42811751D01*
X8658888Y42818623D01*
X8697689Y42826400D01*
X8741022Y42834823D01*
X8787644Y42843632D01*
X8834636Y42852533D01*
X8879536Y42861338D01*
X8919109Y42869412D01*
X8952238Y42876518D01*
X8977808Y42882413D01*
X8994702Y42886860D01*
X9001804Y42889618D01*
X9005225Y42895192D01*
X9012518Y42909827D01*
X9022737Y42931735D01*
X9035205Y42959337D01*
X9049242Y42991052D01*
X9064170Y43025300D01*
X9079311Y43060503D01*
X9093984Y43095080D01*
X9107512Y43127452D01*
X9119215Y43156039D01*
X9128415Y43179260D01*
X9134432Y43195537D01*
X9136589Y43203289D01*
X9136456Y43203930D01*
X9132190Y43212231D01*
X9122419Y43228361D01*
X9107828Y43251274D01*
X9089098Y43279924D01*
X9066914Y43313262D01*
X9041958Y43350242D01*
X9014912Y43389818D01*
X9009099Y43398282D01*
X8982444Y43437326D01*
X8958011Y43473492D01*
X8936482Y43505743D01*
X8918540Y43533043D01*
X8904868Y43554355D01*
X8896148Y43568642D01*
X8893063Y43574866D01*
X8896811Y43580472D01*
X8907461Y43592771D01*
X8923981Y43610722D01*
X8945340Y43633284D01*
X8970505Y43659417D01*
X8998443Y43688083D01*
X9028123Y43718241D01*
X9058512Y43748852D01*
X9088578Y43778875D01*
X9117288Y43807271D01*
X9143611Y43833000D01*
X9166513Y43855022D01*
X9184964Y43872298D01*
X9197930Y43883787D01*
X9204379Y43888450D01*
X9207829Y43887945D01*
X9219306Y43882578D01*
X9238432Y43871484D01*
X9265466Y43854499D01*
X9300663Y43831460D01*
X9344283Y43802203D01*
X9396583Y43766566D01*
X9409566Y43757681D01*
X9448946Y43730893D01*
X9485325Y43706388D01*
X9517686Y43684837D01*
X9545010Y43666909D01*
X9566279Y43653274D01*
X9580475Y43644601D01*
X9586580Y43641562D01*
X9590093Y43642286D01*
X9603243Y43646653D01*
X9623976Y43654388D01*
X9650664Y43664812D01*
X9681683Y43677250D01*
X9715407Y43691026D01*
X9750210Y43705462D01*
X9784466Y43719883D01*
X9816550Y43733612D01*
X9844837Y43745973D01*
X9867700Y43756289D01*
X9883513Y43763884D01*
X9890652Y43768081D01*
X9893049Y43772376D01*
X9897302Y43785401D01*
X9902796Y43807125D01*
X9909631Y43837996D01*
X9917903Y43878462D01*
X9927712Y43928972D01*
X9939155Y43989974D01*
X9941218Y44001083D01*
X9950031Y44047750D01*
X9958399Y44090854D01*
X9966069Y44129174D01*
X9972789Y44161485D01*
X9978305Y44186564D01*
X9982364Y44203188D01*
X9984713Y44210133D01*
X9991216Y44212022D01*
X10007455Y44213736D01*
X10031888Y44215179D01*
X10063044Y44216347D01*
X10099449Y44217240D01*
X10139631Y44217856D01*
X10182117Y44218193D01*
X10225435Y44218250D01*
X10268110Y44218025D01*
G37*
%TD*%
D11*
%TO.C,H3*%
X17000000Y1490000D03*
%TD*%
D12*
%TO.C,J5*%
X7950000Y1600000D03*
D13*
X7950000Y-10000D03*
D12*
X10490000Y1600000D03*
D13*
X10490000Y-10000D03*
D12*
X13030000Y1600000D03*
D13*
X13030000Y-10000D03*
%TD*%
D11*
%TO.C,H2*%
X4000000Y1490000D03*
%TD*%
D14*
%TO.C,J2*%
X7610000Y45920000D03*
X13410000Y45920000D03*
D15*
X14830000Y45390000D03*
X6190000Y45390000D03*
X14830000Y49570000D03*
X6190000Y49570000D03*
%TD*%
D11*
%TO.C,H4*%
X17000000Y49490000D03*
%TD*%
D16*
%TO.C,J6*%
X7010000Y49637500D03*
D17*
X13010000Y46937500D03*
X8010000Y46937500D03*
D16*
X14010000Y49637500D03*
%TD*%
D11*
%TO.C,H1*%
X4000000Y49490000D03*
%TD*%
D18*
%TO.C,J3*%
X-10000Y49700000D03*
D19*
X1600000Y49700000D03*
D18*
X-10000Y47160000D03*
D19*
X1600000Y47160000D03*
D18*
X-10000Y44620000D03*
D19*
X1600000Y44620000D03*
D18*
X-10000Y42080000D03*
D19*
X1600000Y42080000D03*
X1600000Y39540000D03*
D18*
X-10000Y39540000D03*
D19*
X1600000Y37000000D03*
D18*
X-10000Y37000000D03*
X-10000Y34460000D03*
D19*
X1600000Y34460000D03*
D18*
X-10000Y31920000D03*
D19*
X1600000Y31920000D03*
X1600000Y29380000D03*
D18*
X-10000Y29380000D03*
X-10000Y26840000D03*
D19*
X1600000Y26840000D03*
D18*
X-10000Y24300000D03*
D19*
X1600000Y24300000D03*
D18*
X-10000Y21760000D03*
D19*
X1600000Y21760000D03*
D18*
X-10000Y19220000D03*
D19*
X1600000Y19220000D03*
D18*
X-10000Y16680000D03*
D19*
X1600000Y16680000D03*
D18*
X-10000Y14140000D03*
D19*
X1600000Y14140000D03*
D18*
X-10000Y11600000D03*
D19*
X1600000Y11600000D03*
X1600000Y9060000D03*
D18*
X-10000Y9060000D03*
X-10000Y6520000D03*
D19*
X1600000Y6520000D03*
D18*
X-10000Y3980000D03*
D19*
X1600000Y3980000D03*
D18*
X-10000Y1440000D03*
D19*
X1600000Y1440000D03*
%TD*%
D20*
%TO.C,J1*%
X6675000Y7600000D03*
D21*
X6675000Y5060000D03*
X9215000Y7600000D03*
X9215000Y5060000D03*
X11755000Y7600000D03*
X11755000Y5060000D03*
X14295000Y7600000D03*
X14295000Y5060000D03*
%TD*%
D22*
%TO.C,JP6*%
X7765000Y32055000D03*
D23*
X7765000Y31365000D03*
D24*
X7765000Y30675000D03*
%TD*%
D18*
%TO.C,J4*%
X21010000Y49700000D03*
D19*
X19400000Y49700000D03*
D18*
X21010000Y47160000D03*
D19*
X19400000Y47160000D03*
D18*
X21010000Y44620000D03*
D19*
X19400000Y44620000D03*
X19400000Y42080000D03*
D18*
X21010000Y42080000D03*
D19*
X19400000Y39540000D03*
D18*
X21010000Y39540000D03*
X21010000Y37000000D03*
D19*
X19400000Y37000000D03*
D18*
X21010000Y34460000D03*
D19*
X19400000Y34460000D03*
X19400000Y31920000D03*
D18*
X21010000Y31920000D03*
X21010000Y29380000D03*
D19*
X19400000Y29380000D03*
D18*
X21010000Y26840000D03*
D19*
X19400000Y26840000D03*
D18*
X21010000Y24300000D03*
D19*
X19400000Y24300000D03*
D18*
X21010000Y21760000D03*
D19*
X19400000Y21760000D03*
X19400000Y19220000D03*
D18*
X21010000Y19220000D03*
D19*
X19400000Y16680000D03*
D18*
X21010000Y16680000D03*
X21010000Y14140000D03*
D19*
X19400000Y14140000D03*
X19400000Y11600000D03*
D18*
X21010000Y11600000D03*
X21010000Y9060000D03*
D19*
X19400000Y9060000D03*
X19400000Y6520000D03*
D18*
X21010000Y6520000D03*
X21010000Y3980000D03*
D19*
X19400000Y3980000D03*
D18*
X21010000Y1440000D03*
D19*
X19400000Y1440000D03*
%TD*%
M02*
