G04 #@! TF.GenerationSoftware,KiCad,Pcbnew,(6.0.6)*
G04 #@! TF.CreationDate,2022-08-20T10:32:50+05:30*
G04 #@! TF.ProjectId,Mitayi-Pico-RP2040,4d697461-7969-42d5-9069-636f2d525032,0.2*
G04 #@! TF.SameCoordinates,PX848f8c0PY6ea0500*
G04 #@! TF.FileFunction,Copper,L2,Bot*
G04 #@! TF.FilePolarity,Positive*
%FSLAX46Y46*%
G04 Gerber Fmt 4.6, Leading zero omitted, Abs format (unit mm)*
G04 Created by KiCad (PCBNEW (6.0.6)) date 2022-08-20 10:32:50*
%MOMM*%
%LPD*%
G01*
G04 APERTURE LIST*
G04 Aperture macros list*
%AMRoundRect*
0 Rectangle with rounded corners*
0 $1 Rounding radius*
0 $2 $3 $4 $5 $6 $7 $8 $9 X,Y pos of 4 corners*
0 Add a 4 corners polygon primitive as box body*
4,1,4,$2,$3,$4,$5,$6,$7,$8,$9,$2,$3,0*
0 Add four circle primitives for the rounded corners*
1,1,$1+$1,$2,$3*
1,1,$1+$1,$4,$5*
1,1,$1+$1,$6,$7*
1,1,$1+$1,$8,$9*
0 Add four rect primitives between the rounded corners*
20,1,$1+$1,$2,$3,$4,$5,0*
20,1,$1+$1,$4,$5,$6,$7,0*
20,1,$1+$1,$6,$7,$8,$9,0*
20,1,$1+$1,$8,$9,$2,$3,0*%
G04 Aperture macros list end*
G04 #@! TA.AperFunction,Profile*
%ADD10C,0.100000*%
G04 #@! TD*
G04 #@! TA.AperFunction,ComponentPad*
%ADD11C,0.600000*%
G04 #@! TD*
G04 #@! TA.AperFunction,ComponentPad*
%ADD12O,1.600000X1.700000*%
G04 #@! TD*
G04 #@! TA.AperFunction,ComponentPad*
%ADD13R,1.600000X3.200000*%
G04 #@! TD*
G04 #@! TA.AperFunction,ComponentPad*
%ADD14RoundRect,0.500000X0.000000X0.300000X0.000000X0.300000X0.000000X-0.300000X0.000000X-0.300000X0*%
G04 #@! TD*
G04 #@! TA.AperFunction,ComponentPad*
%ADD15O,1.200000X1.900000*%
G04 #@! TD*
G04 #@! TA.AperFunction,ComponentPad*
%ADD16C,1.450000*%
G04 #@! TD*
G04 #@! TA.AperFunction,ComponentPad*
%ADD17R,3.200000X1.600000*%
G04 #@! TD*
G04 #@! TA.AperFunction,ComponentPad*
%ADD18O,1.700000X1.600000*%
G04 #@! TD*
G04 #@! TA.AperFunction,SMDPad,CuDef*
%ADD19R,2.000000X1.500000*%
G04 #@! TD*
G04 #@! TA.AperFunction,SMDPad,CuDef*
%ADD20R,2.000000X3.800000*%
G04 #@! TD*
G04 #@! TA.AperFunction,SMDPad,CuDef*
%ADD21RoundRect,0.135000X-0.135000X-0.185000X0.135000X-0.185000X0.135000X0.185000X-0.135000X0.185000X0*%
G04 #@! TD*
G04 #@! TA.AperFunction,ViaPad*
%ADD22C,0.500000*%
G04 #@! TD*
G04 #@! TA.AperFunction,Conductor*
%ADD23C,0.200000*%
G04 #@! TD*
G04 #@! TA.AperFunction,Conductor*
%ADD24C,0.300000*%
G04 #@! TD*
G04 APERTURE END LIST*
D10*
X0Y51000000D02*
X21000000Y51000000D01*
X21000000Y0D02*
X0Y0D01*
X21000000Y51000000D02*
X21000000Y0D01*
X0Y0D02*
X0Y51000000D01*
D11*
X10820000Y24905000D03*
X12095000Y24905000D03*
X10820000Y23630000D03*
X10820000Y22355000D03*
X9545000Y23630000D03*
X12095000Y23630000D03*
X9545000Y22355000D03*
X9545000Y24905000D03*
X12095000Y22355000D03*
D12*
X7950000Y1600000D03*
D13*
X7950000Y-10000D03*
D12*
X10490000Y1600000D03*
D13*
X10490000Y-10000D03*
D12*
X13030000Y1600000D03*
D13*
X13030000Y-10000D03*
D14*
X14830000Y45390000D03*
X6190000Y45390000D03*
X14830000Y49570000D03*
X6190000Y49570000D03*
D15*
X7010000Y49637500D03*
D16*
X13010000Y46937500D03*
X8010000Y46937500D03*
D15*
X14010000Y49637500D03*
D17*
X-10000Y49700000D03*
D18*
X1600000Y49700000D03*
D17*
X-10000Y47160000D03*
D18*
X1600000Y47160000D03*
D17*
X-10000Y44620000D03*
D18*
X1600000Y44620000D03*
D17*
X-10000Y42080000D03*
D18*
X1600000Y42080000D03*
X1600000Y39540000D03*
D17*
X-10000Y39540000D03*
D18*
X1600000Y37000000D03*
D17*
X-10000Y37000000D03*
X-10000Y34460000D03*
D18*
X1600000Y34460000D03*
D17*
X-10000Y31920000D03*
D18*
X1600000Y31920000D03*
X1600000Y29380000D03*
D17*
X-10000Y29380000D03*
X-10000Y26840000D03*
D18*
X1600000Y26840000D03*
D17*
X-10000Y24300000D03*
D18*
X1600000Y24300000D03*
D17*
X-10000Y21760000D03*
D18*
X1600000Y21760000D03*
D17*
X-10000Y19220000D03*
D18*
X1600000Y19220000D03*
D17*
X-10000Y16680000D03*
D18*
X1600000Y16680000D03*
D17*
X-10000Y14140000D03*
D18*
X1600000Y14140000D03*
D17*
X-10000Y11600000D03*
D18*
X1600000Y11600000D03*
X1600000Y9060000D03*
D17*
X-10000Y9060000D03*
X-10000Y6520000D03*
D18*
X1600000Y6520000D03*
D17*
X-10000Y3980000D03*
D18*
X1600000Y3980000D03*
D17*
X-10000Y1440000D03*
D18*
X1600000Y1440000D03*
D19*
X7980000Y37100000D03*
X7980000Y39400000D03*
D20*
X14280000Y39400000D03*
D19*
X7980000Y41700000D03*
D21*
X14890000Y42510000D03*
X15910000Y42510000D03*
D17*
X21010000Y49700000D03*
D18*
X19400000Y49700000D03*
D17*
X21010000Y47160000D03*
D18*
X19400000Y47160000D03*
D17*
X21010000Y44620000D03*
D18*
X19400000Y44620000D03*
X19400000Y42080000D03*
D17*
X21010000Y42080000D03*
D18*
X19400000Y39540000D03*
D17*
X21010000Y39540000D03*
X21010000Y37000000D03*
D18*
X19400000Y37000000D03*
D17*
X21010000Y34460000D03*
D18*
X19400000Y34460000D03*
X19400000Y31920000D03*
D17*
X21010000Y31920000D03*
X21010000Y29380000D03*
D18*
X19400000Y29380000D03*
D17*
X21010000Y26840000D03*
D18*
X19400000Y26840000D03*
D17*
X21010000Y24300000D03*
D18*
X19400000Y24300000D03*
D17*
X21010000Y21760000D03*
D18*
X19400000Y21760000D03*
X19400000Y19220000D03*
D17*
X21010000Y19220000D03*
D18*
X19400000Y16680000D03*
D17*
X21010000Y16680000D03*
X21010000Y14140000D03*
D18*
X19400000Y14140000D03*
X19400000Y11600000D03*
D17*
X21010000Y11600000D03*
X21010000Y9060000D03*
D18*
X19400000Y9060000D03*
X19400000Y6520000D03*
D17*
X21010000Y6520000D03*
X21010000Y3980000D03*
D18*
X19400000Y3980000D03*
D17*
X21010000Y1440000D03*
D18*
X19400000Y1440000D03*
D22*
X11516352Y18999642D03*
X13349500Y21446740D03*
X10000000Y42500000D03*
X2500000Y23000000D03*
X3300000Y35500000D03*
X7500000Y16300000D03*
X3300000Y45000000D03*
X3300000Y38200000D03*
X15300000Y34500000D03*
X8800000Y9300000D03*
X10500000Y4000000D03*
X9400000Y4000000D03*
X3000000Y15800000D03*
X17150500Y32738412D03*
X17800000Y47100000D03*
X5800000Y2200000D03*
X13600000Y13000000D03*
X18400000Y2800000D03*
X10400000Y41300000D03*
X6300000Y43600000D03*
X15400000Y30300000D03*
X18400000Y10400000D03*
X5800000Y18200000D03*
X13300000Y33500000D03*
X13300000Y42000000D03*
X3800000Y12500000D03*
X5900000Y19900000D03*
X5800000Y600000D03*
X3000000Y15100000D03*
X17236444Y27763556D03*
X11200000Y10500000D03*
X7800000Y9300000D03*
X3700000Y46600000D03*
X7100000Y30000000D03*
X4600000Y5200000D03*
X6200000Y47300000D03*
X4600000Y6800000D03*
X18400000Y12900000D03*
X18300000Y5200000D03*
X2500000Y20500000D03*
X2300000Y5200000D03*
X10200000Y36800000D03*
X11600000Y4000000D03*
X18400000Y15400000D03*
X7000000Y15800000D03*
X3300000Y40800000D03*
X18400000Y25600000D03*
X5800000Y1400000D03*
X2600000Y33200000D03*
X11200000Y12100000D03*
X17272881Y29427119D03*
X10400000Y40100000D03*
X6600000Y35500000D03*
X10200000Y38100000D03*
X4600000Y6000000D03*
X18500000Y38300000D03*
X14900000Y600000D03*
X10500000Y48200000D03*
X14000000Y26900000D03*
X9800000Y9300000D03*
X3000000Y43100000D03*
X2300000Y10300000D03*
X9000000Y21400000D03*
X18500000Y18000000D03*
X4600000Y48000000D03*
X2500000Y18000000D03*
X14900000Y2200000D03*
X2300000Y7800000D03*
X13300000Y32600000D03*
X2300000Y2800000D03*
X18400000Y7800000D03*
X18500000Y35700000D03*
X2600000Y30600000D03*
X14900000Y1400000D03*
X18500000Y43300000D03*
X7100000Y29200000D03*
X6153562Y14946438D03*
X14100000Y36400000D03*
X4800000Y20400000D03*
X5500000Y43600000D03*
X13800000Y31800000D03*
X11078395Y29718778D03*
X10826988Y18829172D03*
X12900000Y17500000D03*
X9300000Y45812998D03*
X11809500Y45644502D03*
X8600000Y13700000D03*
X11300000Y21180980D03*
X17400000Y31300000D03*
X8270092Y25517746D03*
X6278798Y25436394D03*
X5050500Y26400000D03*
X8300000Y24100000D03*
X8500000Y23100000D03*
X8439859Y21977065D03*
X8314428Y21261095D03*
X6900000Y20400000D03*
X10029287Y21571395D03*
X14050500Y20400000D03*
X14400000Y18900000D03*
X14000000Y11100000D03*
X10148511Y31600000D03*
X14379875Y27500500D03*
X15549500Y27700000D03*
X14063556Y9336444D03*
X15681610Y26004265D03*
X16363024Y25846220D03*
X16800000Y25300000D03*
X17597651Y23574961D03*
X17042782Y23149021D03*
X16950980Y22455569D03*
X15802125Y22011413D03*
X15674060Y21323733D03*
X15660341Y20560341D03*
X13100000Y18800000D03*
X13774346Y19212827D03*
X15100000Y35700000D03*
X17250500Y40800000D03*
X7100000Y28195644D03*
X6400000Y32400000D03*
X7353780Y34863024D03*
X8422430Y26200459D03*
X9042664Y25683692D03*
X7949500Y32400000D03*
X9600000Y39200000D03*
X8600000Y28100000D03*
X9741023Y25893704D03*
X9800000Y35600000D03*
X10133475Y32696958D03*
X10439791Y25925744D03*
X15900000Y44100000D03*
D23*
X14153260Y21446740D02*
X14600480Y20999520D01*
X14600480Y20999520D02*
X14600480Y20100480D01*
X14350489Y19850489D02*
X12367199Y19850489D01*
X13349500Y21446740D02*
X14153260Y21446740D01*
X14600480Y20100480D02*
X14350489Y19850489D01*
X12367199Y19850489D02*
X11516352Y18999642D01*
X17300000Y29400000D02*
X17272881Y29427119D01*
X17300000Y27827112D02*
X17300000Y29400000D01*
X17236444Y27763556D02*
X17300000Y27827112D01*
X13300000Y48100000D02*
X12200000Y49200000D01*
D24*
X19400000Y39600000D02*
X19400000Y39540000D01*
D23*
X12900000Y17500000D02*
X12156160Y17500000D01*
D24*
X4800000Y16300000D02*
X4800000Y20400000D01*
D23*
X12200000Y49200000D02*
X8600000Y49200000D01*
X16400000Y42500000D02*
X16700000Y42800000D01*
X7400000Y48000000D02*
X5765000Y48000000D01*
D24*
X16500000Y42500000D02*
X19400000Y39600000D01*
X15910000Y42510000D02*
X15910000Y37010000D01*
D23*
X12918778Y29718778D02*
X13800000Y30600000D01*
D24*
X15910000Y37010000D02*
X15300000Y36400000D01*
D23*
X16700000Y42800000D02*
X16700000Y47300000D01*
X12156160Y17500000D02*
X10826988Y18829172D01*
D24*
X6153562Y14946438D02*
X4800000Y16300000D01*
D23*
X15900000Y48100000D02*
X13300000Y48100000D01*
X11078395Y29718778D02*
X12918778Y29718778D01*
X5300000Y47535000D02*
X5300000Y43800000D01*
D24*
X15300000Y36400000D02*
X14100000Y36400000D01*
X15910000Y42510000D02*
X15920000Y42500000D01*
D23*
X16700000Y47300000D02*
X15900000Y48100000D01*
D24*
X16400000Y42500000D02*
X16500000Y42500000D01*
D23*
X5765000Y48000000D02*
X5300000Y47535000D01*
D24*
X15920000Y42500000D02*
X16400000Y42500000D01*
D23*
X8600000Y49200000D02*
X7400000Y48000000D01*
X13800000Y30600000D02*
X13800000Y31800000D01*
X5300000Y43800000D02*
X5500000Y43600000D01*
D24*
X11809500Y45890500D02*
X11000000Y46700000D01*
X11809500Y45644502D02*
X11809500Y45890500D01*
X11000000Y46700000D02*
X10187002Y46700000D01*
X10187002Y46700000D02*
X9300000Y45812998D01*
D23*
X9700000Y20465006D02*
X10415974Y21180980D01*
X15000000Y27122873D02*
X13300000Y25422873D01*
X9700000Y14800000D02*
X9700000Y20465006D01*
X12180980Y21180980D02*
X11300000Y21180980D01*
X10415974Y21180980D02*
X11300000Y21180980D01*
X8600000Y13700000D02*
X9700000Y14800000D01*
X13300000Y25422873D02*
X13300000Y22300000D01*
X17400000Y31200000D02*
X15000000Y28800000D01*
X13300000Y22300000D02*
X12180980Y21180980D01*
X15000000Y28800000D02*
X15000000Y27122873D01*
X17400000Y31300000D02*
X17400000Y31200000D01*
X4850480Y46449520D02*
X4850480Y43472393D01*
X5850499Y27989943D02*
X8270092Y25570350D01*
X1600000Y49700000D02*
X4850480Y46449520D01*
X8270092Y25570350D02*
X8270092Y25517746D01*
X4850480Y43472393D02*
X5850499Y42472374D01*
X5850499Y42472374D02*
X5850499Y27989943D01*
X4450960Y43306907D02*
X4450960Y44849040D01*
X5450989Y42306878D02*
X4450960Y43306907D01*
X6278798Y26578798D02*
X5450989Y27406607D01*
X2140000Y47160000D02*
X1600000Y47160000D01*
X4450960Y44849040D02*
X2140000Y47160000D01*
X6278798Y25436394D02*
X6278798Y26578798D01*
X5450989Y27406607D02*
X5450989Y42306878D01*
X1600000Y44620000D02*
X2572861Y44620000D01*
X2572861Y44620000D02*
X4800000Y42392861D01*
X4800000Y26650500D02*
X5050500Y26400000D01*
X4800000Y42392861D02*
X4800000Y26650500D01*
X8300000Y24100000D02*
X6530012Y24100000D01*
X4400000Y39100000D02*
X3960000Y39540000D01*
X3960000Y39540000D02*
X1600000Y39540000D01*
X6530012Y24100000D02*
X4400000Y26230012D01*
X4400000Y26230012D02*
X4400000Y39100000D01*
X2720000Y29380000D02*
X1600000Y29380000D01*
X8500000Y23100000D02*
X6965006Y23100000D01*
X6965006Y23100000D02*
X4000000Y26065006D01*
X4000000Y28100000D02*
X2720000Y29380000D01*
X4000000Y26065006D02*
X4000000Y28100000D01*
X2560000Y26840000D02*
X1600000Y26840000D01*
X8439859Y21977065D02*
X7422935Y21977065D01*
X7422935Y21977065D02*
X2560000Y26840000D01*
X4400000Y24300000D02*
X1600000Y24300000D01*
X7438905Y21261095D02*
X4400000Y24300000D01*
X8314428Y21261095D02*
X7438905Y21261095D01*
X7000000Y20500000D02*
X7000000Y21000000D01*
X7000000Y21000000D02*
X6240000Y21760000D01*
X6240000Y21760000D02*
X1600000Y21760000D01*
X9300480Y15500480D02*
X2860000Y9060000D01*
X9300480Y20842588D02*
X9300480Y15500480D01*
X10029287Y21571395D02*
X9300480Y20842588D01*
X2860000Y9060000D02*
X1600000Y9060000D01*
X14050500Y20400000D02*
X13993229Y20457271D01*
X10100000Y20100000D02*
X10100000Y13900000D01*
X10100000Y13900000D02*
X2720000Y6520000D01*
X13993229Y20457271D02*
X10457271Y20457271D01*
X2720000Y6520000D02*
X1600000Y6520000D01*
X10457271Y20457271D02*
X10100000Y20100000D01*
X14600480Y11700480D02*
X14000000Y11100000D01*
X14400000Y18900000D02*
X14600480Y18699520D01*
X14600480Y18699520D02*
X14600480Y11700480D01*
X15000000Y26300000D02*
X15000000Y10272888D01*
X15549500Y26849500D02*
X15000000Y26300000D01*
X10148511Y29451489D02*
X12099500Y27500500D01*
X15000000Y10272888D02*
X14063556Y9336444D01*
X12099500Y27500500D02*
X14379875Y27500500D01*
X10148511Y31600000D02*
X10148511Y29451489D01*
X15549500Y27700000D02*
X15549500Y26849500D01*
X17486445Y30521452D02*
X18051452Y30521452D01*
X16200000Y26522655D02*
X16200000Y29235007D01*
X16200000Y29235007D02*
X17486445Y30521452D01*
X18051452Y30521452D02*
X19400000Y31870000D01*
X19400000Y31870000D02*
X19400000Y31920000D01*
X15681610Y26004265D02*
X16200000Y26522655D01*
X16363024Y25846220D02*
X16363024Y25863024D01*
X18380000Y29380000D02*
X19400000Y29380000D01*
X18000000Y27500000D02*
X18000000Y29000000D01*
X18000000Y29000000D02*
X18380000Y29380000D01*
X16363024Y25863024D02*
X18000000Y27500000D01*
X18340000Y26840000D02*
X19400000Y26840000D01*
X16800000Y25300000D02*
X18340000Y26840000D01*
X17900000Y23272612D02*
X17900000Y17300000D01*
X18520000Y16680000D02*
X19400000Y16680000D01*
X17597651Y23574961D02*
X17900000Y23272612D01*
X17900000Y17300000D02*
X18520000Y16680000D01*
X17500480Y22691323D02*
X17500480Y14699520D01*
X17042782Y23149021D02*
X17500480Y22691323D01*
X18060000Y14140000D02*
X19400000Y14140000D01*
X17500480Y14699520D02*
X18060000Y14140000D01*
X17100000Y22306549D02*
X17100000Y12400000D01*
X16950980Y22455569D02*
X17100000Y22306549D01*
X17100000Y12400000D02*
X17900000Y11600000D01*
X17900000Y11600000D02*
X19400000Y11600000D01*
X15802125Y22011413D02*
X16700000Y21113538D01*
X16700000Y10400000D02*
X18040000Y9060000D01*
X18040000Y9060000D02*
X19400000Y9060000D01*
X16700000Y21113538D02*
X16700000Y10400000D01*
X16300000Y20019603D02*
X16300000Y8300000D01*
X16300480Y20020083D02*
X16300000Y20019603D01*
X16300480Y20697313D02*
X16300480Y20020083D01*
X15674060Y21323733D02*
X16300480Y20697313D01*
X16300000Y8300000D02*
X18080000Y6520000D01*
X18080000Y6520000D02*
X19400000Y6520000D01*
X17620000Y3980000D02*
X19400000Y3980000D01*
X15900480Y5699520D02*
X17620000Y3980000D01*
X15900480Y20320202D02*
X15900480Y5699520D01*
X15660341Y20560341D02*
X15900480Y20320202D01*
X13600000Y18300000D02*
X13600000Y14765006D01*
X7950000Y3950000D02*
X7950000Y1600000D01*
X13100000Y18800000D02*
X13600000Y18300000D01*
X12630480Y13795486D02*
X12630480Y8630480D01*
X12630480Y8630480D02*
X7950000Y3950000D01*
X13600000Y14765006D02*
X12630480Y13795486D01*
X14100000Y14700000D02*
X13030000Y13630000D01*
X13774346Y18748527D02*
X14100000Y18422873D01*
X13774346Y19212827D02*
X13774346Y18748527D01*
X13030000Y13630000D02*
X13030000Y1600000D01*
X14100000Y18422873D02*
X14100000Y14700000D01*
X15600000Y35700000D02*
X15100000Y35700000D01*
X17300000Y40750500D02*
X17300000Y37400000D01*
X17300000Y37400000D02*
X15600000Y35700000D01*
X17250500Y40800000D02*
X17300000Y40750500D01*
D24*
X14280000Y39400000D02*
X14280000Y41900000D01*
X14280000Y41900000D02*
X14890000Y42510000D01*
D23*
X7100000Y28195644D02*
X6546446Y28749198D01*
X6400000Y29102751D02*
X6400000Y32400000D01*
X6399966Y29102751D02*
G75*
G03*
X6546447Y28749199I500034J49D01*
G01*
X7650999Y27256108D02*
X7650999Y30241894D01*
X7353780Y30953327D02*
X7353780Y34863024D01*
X7504552Y30595448D02*
X7500226Y30599774D01*
X8422430Y26200459D02*
X8422430Y26277570D01*
X8422430Y26277570D02*
X7797445Y26902555D01*
X7504555Y30595451D02*
G75*
G02*
X7650999Y30241894I-353555J-353551D01*
G01*
X7500208Y30599756D02*
G75*
G02*
X7353780Y30953327I353592J353544D01*
G01*
X7797441Y26902551D02*
G75*
G02*
X7650999Y27256108I353559J353549D01*
G01*
X9042664Y26350229D02*
X9042664Y25683692D01*
X8050499Y32299001D02*
X8050499Y27756608D01*
X7949500Y32400000D02*
X8050499Y32299001D01*
X8196946Y27403054D02*
X8896218Y26703782D01*
X8050505Y27756608D02*
G75*
G03*
X8196946Y27403054I499995J-8D01*
G01*
X8896196Y26703760D02*
G75*
G02*
X9042664Y26350229I-353496J-353560D01*
G01*
X8600000Y28100000D02*
X8700000Y28200000D01*
X8846447Y35446447D02*
X9453554Y36053554D01*
X9600000Y36407107D02*
X9600000Y39200000D01*
X8700000Y28200000D02*
X8700000Y35092893D01*
X9599995Y36407107D02*
G75*
G02*
X9453554Y36053554I-499995J-7D01*
G01*
X8846444Y35446450D02*
G75*
G03*
X8700000Y35092893I353556J-353550D01*
G01*
X9345949Y35145949D02*
X9800000Y35600000D01*
X9199502Y28607605D02*
X9199502Y34792395D01*
X9741023Y25893704D02*
X9741023Y27651870D01*
X9594576Y28005424D02*
X9345948Y28254052D01*
X9199505Y28607605D02*
G75*
G03*
X9345948Y28254052I499995J-5D01*
G01*
X9740995Y27651870D02*
G75*
G03*
X9594576Y28005424I-499995J30D01*
G01*
X9345947Y35145951D02*
G75*
G03*
X9199502Y34792395I353553J-353551D01*
G01*
X9599011Y29108096D02*
X9599011Y31955387D01*
X10439791Y25925744D02*
X10439791Y27853102D01*
X10293344Y28206656D02*
X9745457Y28754543D01*
X9745458Y32308941D02*
X10133475Y32696958D01*
X10439795Y27853102D02*
G75*
G03*
X10293344Y28206656I-499995J-2D01*
G01*
X9745461Y28754547D02*
G75*
G02*
X9599011Y29108096I353539J353553D01*
G01*
X9745454Y32308945D02*
G75*
G03*
X9599011Y31955387I353546J-353545D01*
G01*
D24*
X7980000Y41700000D02*
X8500000Y42220000D01*
X9838683Y47199519D02*
X11206909Y47199519D01*
X8500000Y42220000D02*
X8500000Y45860836D01*
X13500000Y44100000D02*
X15900000Y44100000D01*
X12500000Y45906428D02*
X12500000Y45100000D01*
X8500000Y45860836D02*
X9838683Y47199519D01*
X11206909Y47199519D02*
X12500000Y45906428D01*
X12500000Y45100000D02*
X13500000Y44100000D01*
G04 #@! TA.AperFunction,Conductor*
G36*
X15438815Y20166576D02*
G01*
X15464401Y20149545D01*
X15470454Y20147654D01*
X15470456Y20147653D01*
X15537520Y20126701D01*
X15585916Y20089766D01*
X15599980Y20041750D01*
X15599980Y5753451D01*
X15599637Y5748787D01*
X15598055Y5744178D01*
X15598363Y5735969D01*
X15598363Y5735968D01*
X15599917Y5694572D01*
X15599980Y5691234D01*
X15599980Y5671572D01*
X15600729Y5667547D01*
X15600847Y5666272D01*
X15601160Y5661443D01*
X15602254Y5632312D01*
X15605496Y5624765D01*
X15605497Y5624762D01*
X15607238Y5620710D01*
X15612960Y5601875D01*
X15615271Y5589467D01*
X15619582Y5582474D01*
X15619582Y5582473D01*
X15629632Y5566169D01*
X15635641Y5554601D01*
X15646444Y5529457D01*
X15650458Y5524571D01*
X15655647Y5519382D01*
X15668476Y5503152D01*
X15669700Y5501167D01*
X15674012Y5494172D01*
X15680553Y5489198D01*
X15697778Y5476100D01*
X15706840Y5468189D01*
X17369381Y3805648D01*
X17372434Y3802111D01*
X17374575Y3797731D01*
X17380600Y3792142D01*
X17410960Y3763979D01*
X17413366Y3761663D01*
X17427277Y3747752D01*
X17430648Y3745439D01*
X17431623Y3744629D01*
X17435267Y3741430D01*
X17450623Y3727186D01*
X17456646Y3721599D01*
X17464274Y3718556D01*
X17464275Y3718555D01*
X17466298Y3717748D01*
X17468371Y3716921D01*
X17485733Y3707650D01*
X17496146Y3700507D01*
X17504137Y3698611D01*
X17504141Y3698609D01*
X17522778Y3694187D01*
X17535200Y3690259D01*
X17560622Y3680117D01*
X17566915Y3679500D01*
X17574256Y3679500D01*
X17594804Y3677095D01*
X17605066Y3674660D01*
X17613208Y3675768D01*
X17613210Y3675768D01*
X17634656Y3678687D01*
X17646658Y3679500D01*
X18332393Y3679500D01*
X18389601Y3658678D01*
X18415918Y3621232D01*
X18446119Y3539148D01*
X18553226Y3366401D01*
X18692881Y3218720D01*
X18859379Y3102137D01*
X19045919Y3021414D01*
X19050331Y3020492D01*
X19050335Y3020491D01*
X19163038Y2996947D01*
X19244880Y2979849D01*
X19251539Y2979500D01*
X20730500Y2979500D01*
X20787708Y2958678D01*
X20818148Y2905955D01*
X20819500Y2890500D01*
X20819500Y2629000D01*
X20798678Y2571792D01*
X20745955Y2541352D01*
X20730500Y2540000D01*
X19565694Y2540000D01*
X19553671Y2535624D01*
X19550000Y2529266D01*
X19550000Y1605694D01*
X19554376Y1593671D01*
X19560734Y1590000D01*
X20730500Y1590000D01*
X20787708Y1569178D01*
X20818148Y1516455D01*
X20819500Y1501000D01*
X20819500Y1379000D01*
X20798678Y1321792D01*
X20745955Y1291352D01*
X20730500Y1290000D01*
X18271450Y1290000D01*
X18259427Y1285624D01*
X18256868Y1281192D01*
X18257010Y1280196D01*
X18304207Y1084359D01*
X18306949Y1076395D01*
X18390323Y893025D01*
X18394528Y885713D01*
X18511066Y721424D01*
X18516577Y715038D01*
X18662085Y575745D01*
X18668696Y570524D01*
X18837914Y461261D01*
X18845413Y457374D01*
X19032234Y382083D01*
X19040316Y379689D01*
X19157268Y356850D01*
X19209425Y325449D01*
X19229195Y267869D01*
X19207328Y211052D01*
X19154056Y181584D01*
X19140210Y180500D01*
X14119500Y180500D01*
X14062292Y201322D01*
X14031852Y254045D01*
X14030500Y269500D01*
X14030500Y1443329D01*
X16045739Y1443329D01*
X16074614Y1252401D01*
X16076169Y1248174D01*
X16076170Y1248171D01*
X16139371Y1076395D01*
X16141290Y1071179D01*
X16243045Y907066D01*
X16375721Y766765D01*
X16533898Y656009D01*
X16711115Y579320D01*
X16715527Y578398D01*
X16715531Y578397D01*
X16822414Y556068D01*
X16900133Y539832D01*
X16906468Y539500D01*
X17048259Y539500D01*
X17192110Y554112D01*
X17376373Y611856D01*
X17545261Y705472D01*
X17610533Y761417D01*
X17688455Y828204D01*
X17688459Y828208D01*
X17691875Y831136D01*
X17810227Y983714D01*
X17812213Y987751D01*
X17812216Y987755D01*
X17893492Y1152932D01*
X17895481Y1156974D01*
X17899992Y1174290D01*
X17943019Y1339476D01*
X17944155Y1343837D01*
X17949369Y1443329D01*
X17954025Y1532164D01*
X17954025Y1532166D01*
X17954261Y1536671D01*
X17943847Y1605531D01*
X18262489Y1605531D01*
X18265094Y1593006D01*
X18268907Y1590000D01*
X19234306Y1590000D01*
X19246329Y1594376D01*
X19250000Y1600734D01*
X19250000Y2519769D01*
X19245624Y2531792D01*
X19240788Y2534584D01*
X19145261Y2525470D01*
X19136989Y2523877D01*
X18943699Y2467173D01*
X18935875Y2464043D01*
X18756794Y2371811D01*
X18749701Y2367256D01*
X18591305Y2242834D01*
X18585189Y2237010D01*
X18453175Y2084878D01*
X18448277Y2078010D01*
X18347415Y1903665D01*
X18343899Y1895987D01*
X18277824Y1705710D01*
X18275826Y1697513D01*
X18262489Y1605531D01*
X17943847Y1605531D01*
X17925386Y1727599D01*
X17917711Y1748461D01*
X17860267Y1904590D01*
X17860266Y1904593D01*
X17858710Y1908821D01*
X17756955Y2072934D01*
X17624279Y2213235D01*
X17466102Y2323991D01*
X17288885Y2400680D01*
X17284473Y2401602D01*
X17284469Y2401603D01*
X17168221Y2425888D01*
X17099867Y2440168D01*
X17093532Y2440500D01*
X16951741Y2440500D01*
X16807890Y2425888D01*
X16623627Y2368144D01*
X16454739Y2274528D01*
X16426471Y2250299D01*
X16311545Y2151796D01*
X16311541Y2151792D01*
X16308125Y2148864D01*
X16305366Y2145307D01*
X16305365Y2145306D01*
X16301731Y2140621D01*
X16189773Y1996286D01*
X16187787Y1992249D01*
X16187784Y1992245D01*
X16148621Y1912654D01*
X16104519Y1823026D01*
X16103384Y1818669D01*
X16103383Y1818666D01*
X16073268Y1703051D01*
X16055845Y1636163D01*
X16055609Y1631665D01*
X16055609Y1631663D01*
X16046089Y1450000D01*
X16045739Y1443329D01*
X14030500Y1443329D01*
X14030500Y1700800D01*
X14018085Y1823026D01*
X14015576Y1847729D01*
X14015576Y1847731D01*
X14015120Y1852216D01*
X13954338Y2046172D01*
X13888491Y2164962D01*
X13857985Y2219997D01*
X13857984Y2219998D01*
X13855797Y2223944D01*
X13723523Y2378271D01*
X13694634Y2400680D01*
X13608911Y2467173D01*
X13562919Y2502848D01*
X13520183Y2523877D01*
X13380545Y2592587D01*
X13381696Y2594927D01*
X13342123Y2628594D01*
X13330500Y2672569D01*
X13330500Y13468663D01*
X13351322Y13525871D01*
X13356567Y13531596D01*
X14148047Y14323076D01*
X14203223Y14348804D01*
X14262028Y14333048D01*
X14296947Y14283178D01*
X14299980Y14260143D01*
X14299980Y11861817D01*
X14279158Y11804609D01*
X14273913Y11798884D01*
X14051711Y11576682D01*
X13996535Y11550954D01*
X13988235Y11550617D01*
X13976245Y11550690D01*
X13938231Y11550922D01*
X13932138Y11549180D01*
X13932134Y11549180D01*
X13837728Y11522198D01*
X13814155Y11515461D01*
X13705019Y11446601D01*
X13679522Y11417731D01*
X13632624Y11364629D01*
X13619596Y11349878D01*
X13564754Y11233068D01*
X13563778Y11226803D01*
X13563778Y11226801D01*
X13552649Y11155320D01*
X13544901Y11105560D01*
X13561633Y10977606D01*
X13613605Y10859490D01*
X13696639Y10760709D01*
X13804060Y10689204D01*
X13810113Y10687313D01*
X13810115Y10687312D01*
X13826158Y10682300D01*
X13927233Y10650722D01*
X13976759Y10649814D01*
X14049912Y10648473D01*
X14049914Y10648473D01*
X14056255Y10648357D01*
X14180755Y10682300D01*
X14290724Y10749821D01*
X14294975Y10754517D01*
X14294977Y10754519D01*
X14373068Y10840793D01*
X14373069Y10840794D01*
X14377322Y10845493D01*
X14408593Y10910035D01*
X14430823Y10955917D01*
X14430824Y10955920D01*
X14433588Y10961625D01*
X14437206Y10983126D01*
X14450731Y11063523D01*
X14454997Y11088880D01*
X14455063Y11094302D01*
X14455264Y11094833D01*
X14455345Y11095737D01*
X14455597Y11095714D01*
X14476579Y11151252D01*
X14481123Y11156152D01*
X14547567Y11222596D01*
X14602743Y11248324D01*
X14661548Y11232568D01*
X14696467Y11182698D01*
X14699500Y11159663D01*
X14699500Y10434225D01*
X14678678Y10377017D01*
X14673433Y10371292D01*
X14115267Y9813126D01*
X14060091Y9787398D01*
X14051791Y9787061D01*
X14039801Y9787134D01*
X14001787Y9787366D01*
X13995694Y9785624D01*
X13995690Y9785624D01*
X13901284Y9758642D01*
X13877711Y9751905D01*
X13768575Y9683045D01*
X13716503Y9624085D01*
X13692121Y9596477D01*
X13683152Y9586322D01*
X13628310Y9469512D01*
X13627334Y9463247D01*
X13627334Y9463245D01*
X13611337Y9360500D01*
X13608457Y9342004D01*
X13625189Y9214050D01*
X13677161Y9095934D01*
X13760195Y8997153D01*
X13867616Y8925648D01*
X13873669Y8923757D01*
X13873671Y8923756D01*
X13889714Y8918744D01*
X13990789Y8887166D01*
X14040315Y8886258D01*
X14113468Y8884917D01*
X14113470Y8884917D01*
X14119811Y8884801D01*
X14244311Y8918744D01*
X14354280Y8986265D01*
X14358531Y8990961D01*
X14358533Y8990963D01*
X14436624Y9077237D01*
X14436625Y9077238D01*
X14440878Y9081937D01*
X14450471Y9101737D01*
X14494379Y9192361D01*
X14494380Y9192364D01*
X14497144Y9198069D01*
X14518553Y9325324D01*
X14518619Y9330746D01*
X14518820Y9331277D01*
X14518901Y9332181D01*
X14519153Y9332158D01*
X14540135Y9387696D01*
X14544679Y9392596D01*
X15174352Y10022269D01*
X15177889Y10025322D01*
X15182269Y10027463D01*
X15216022Y10063849D01*
X15218337Y10066254D01*
X15232248Y10080165D01*
X15234561Y10083536D01*
X15235371Y10084511D01*
X15238570Y10088155D01*
X15252814Y10103511D01*
X15258401Y10109534D01*
X15263079Y10121259D01*
X15272350Y10138621D01*
X15279493Y10149034D01*
X15281389Y10157025D01*
X15281391Y10157029D01*
X15285813Y10175666D01*
X15289741Y10188088D01*
X15299883Y10213510D01*
X15300500Y10219803D01*
X15300500Y10227144D01*
X15302905Y10247694D01*
X15305340Y10257954D01*
X15301313Y10287544D01*
X15300500Y10299546D01*
X15300500Y20092489D01*
X15321322Y20149697D01*
X15374045Y20180137D01*
X15438815Y20166576D01*
G37*
G04 #@! TD.AperFunction*
G04 #@! TA.AperFunction,Conductor*
G36*
X10538816Y18479770D02*
G01*
X10572732Y18457194D01*
X10631048Y18418376D01*
X10637101Y18416485D01*
X10637103Y18416484D01*
X10671676Y18405683D01*
X10754221Y18379894D01*
X10781119Y18379401D01*
X10817201Y18378739D01*
X10878502Y18352687D01*
X11905541Y17325648D01*
X11908594Y17322111D01*
X11910735Y17317731D01*
X11916760Y17312142D01*
X11947120Y17283979D01*
X11949526Y17281663D01*
X11963437Y17267752D01*
X11966808Y17265439D01*
X11967783Y17264629D01*
X11971427Y17261430D01*
X11986784Y17247185D01*
X11992806Y17241599D01*
X12004534Y17236920D01*
X12021893Y17227651D01*
X12032306Y17220508D01*
X12040300Y17218611D01*
X12058933Y17214189D01*
X12071362Y17210258D01*
X12090947Y17202444D01*
X12090953Y17202443D01*
X12096782Y17200117D01*
X12103075Y17199500D01*
X12110415Y17199500D01*
X12130966Y17197095D01*
X12141226Y17194660D01*
X12149368Y17195768D01*
X12149370Y17195768D01*
X12170816Y17198687D01*
X12182818Y17199500D01*
X12522578Y17199500D01*
X12579786Y17178678D01*
X12590705Y17167768D01*
X12596639Y17160709D01*
X12704060Y17089204D01*
X12710113Y17087313D01*
X12710115Y17087312D01*
X12715544Y17085616D01*
X12827233Y17050722D01*
X12876759Y17049814D01*
X12949912Y17048473D01*
X12949914Y17048473D01*
X12956255Y17048357D01*
X13080755Y17082300D01*
X13163933Y17133371D01*
X13223578Y17145561D01*
X13277105Y17116558D01*
X13299500Y17057527D01*
X13299500Y14926343D01*
X13278678Y14869135D01*
X13273433Y14863410D01*
X12456128Y14046105D01*
X12452591Y14043052D01*
X12448211Y14040911D01*
X12442622Y14034886D01*
X12414459Y14004526D01*
X12412143Y14002120D01*
X12398232Y13988209D01*
X12395919Y13984838D01*
X12395109Y13983863D01*
X12391910Y13980219D01*
X12378394Y13965648D01*
X12372079Y13958840D01*
X12367402Y13947116D01*
X12358131Y13929753D01*
X12350988Y13919340D01*
X12349091Y13911346D01*
X12344669Y13892713D01*
X12340738Y13880284D01*
X12332924Y13860699D01*
X12332923Y13860693D01*
X12330597Y13854864D01*
X12329980Y13848571D01*
X12329980Y13841231D01*
X12327575Y13820681D01*
X12325140Y13810420D01*
X12326248Y13802278D01*
X12326248Y13802276D01*
X12329167Y13780830D01*
X12329980Y13768828D01*
X12329980Y8791817D01*
X12309158Y8734609D01*
X12303913Y8728884D01*
X7775648Y4200619D01*
X7772111Y4197566D01*
X7767731Y4195425D01*
X7762142Y4189400D01*
X7733979Y4159040D01*
X7731663Y4156634D01*
X7717752Y4142723D01*
X7715439Y4139352D01*
X7714629Y4138377D01*
X7711430Y4134733D01*
X7697185Y4119376D01*
X7691599Y4113354D01*
X7686922Y4101630D01*
X7677651Y4084267D01*
X7670508Y4073854D01*
X7668611Y4065860D01*
X7664189Y4047227D01*
X7660258Y4034798D01*
X7652444Y4015213D01*
X7652443Y4015207D01*
X7650117Y4009378D01*
X7649500Y4003085D01*
X7649500Y3995745D01*
X7647095Y3975195D01*
X7644660Y3964934D01*
X7645768Y3956792D01*
X7645768Y3956790D01*
X7648687Y3935344D01*
X7649500Y3923342D01*
X7649500Y2667607D01*
X7628678Y2610399D01*
X7591232Y2584082D01*
X7509148Y2553881D01*
X7336401Y2446774D01*
X7188720Y2307119D01*
X7072137Y2140621D01*
X6991414Y1954081D01*
X6990492Y1949669D01*
X6990491Y1949665D01*
X6970660Y1854739D01*
X6949849Y1755120D01*
X6949500Y1748461D01*
X6949500Y269500D01*
X6928678Y212292D01*
X6875955Y181852D01*
X6860500Y180500D01*
X1883844Y180500D01*
X1826636Y201322D01*
X1796196Y254045D01*
X1806768Y314000D01*
X1853404Y353133D01*
X1859023Y354686D01*
X1858951Y354932D01*
X2056301Y412827D01*
X2064125Y415957D01*
X2243206Y508189D01*
X2250299Y512744D01*
X2408695Y637166D01*
X2414811Y642990D01*
X2546825Y795122D01*
X2551723Y801990D01*
X2652585Y976335D01*
X2656101Y984013D01*
X2722176Y1174290D01*
X2724174Y1182487D01*
X2737511Y1274469D01*
X2734906Y1286994D01*
X2731093Y1290000D01*
X269500Y1290000D01*
X212292Y1310822D01*
X181852Y1363545D01*
X180500Y1379000D01*
X180500Y1443329D01*
X3045739Y1443329D01*
X3074614Y1252401D01*
X3076169Y1248174D01*
X3076170Y1248171D01*
X3139371Y1076395D01*
X3141290Y1071179D01*
X3243045Y907066D01*
X3375721Y766765D01*
X3533898Y656009D01*
X3711115Y579320D01*
X3715527Y578398D01*
X3715531Y578397D01*
X3822414Y556068D01*
X3900133Y539832D01*
X3906468Y539500D01*
X4048259Y539500D01*
X4192110Y554112D01*
X4376373Y611856D01*
X4545261Y705472D01*
X4610533Y761417D01*
X4688455Y828204D01*
X4688459Y828208D01*
X4691875Y831136D01*
X4810227Y983714D01*
X4812213Y987751D01*
X4812216Y987755D01*
X4893492Y1152932D01*
X4895481Y1156974D01*
X4899992Y1174290D01*
X4943019Y1339476D01*
X4944155Y1343837D01*
X4949369Y1443329D01*
X4954025Y1532164D01*
X4954025Y1532166D01*
X4954261Y1536671D01*
X4925386Y1727599D01*
X4917711Y1748461D01*
X4860267Y1904590D01*
X4860266Y1904593D01*
X4858710Y1908821D01*
X4756955Y2072934D01*
X4624279Y2213235D01*
X4466102Y2323991D01*
X4288885Y2400680D01*
X4284473Y2401602D01*
X4284469Y2401603D01*
X4168221Y2425888D01*
X4099867Y2440168D01*
X4093532Y2440500D01*
X3951741Y2440500D01*
X3807890Y2425888D01*
X3623627Y2368144D01*
X3454739Y2274528D01*
X3426471Y2250299D01*
X3311545Y2151796D01*
X3311541Y2151792D01*
X3308125Y2148864D01*
X3305366Y2145307D01*
X3305365Y2145306D01*
X3301731Y2140621D01*
X3189773Y1996286D01*
X3187787Y1992249D01*
X3187784Y1992245D01*
X3148621Y1912654D01*
X3104519Y1823026D01*
X3103384Y1818669D01*
X3103383Y1818666D01*
X3073268Y1703051D01*
X3055845Y1636163D01*
X3055609Y1631665D01*
X3055609Y1631663D01*
X3046089Y1450000D01*
X3045739Y1443329D01*
X180500Y1443329D01*
X180500Y1501000D01*
X201322Y1558208D01*
X254045Y1588648D01*
X269500Y1590000D01*
X1434306Y1590000D01*
X1446329Y1594376D01*
X1450000Y1600734D01*
X1450000Y1605694D01*
X1750000Y1605694D01*
X1754376Y1593671D01*
X1760734Y1590000D01*
X2728550Y1590000D01*
X2740573Y1594376D01*
X2743132Y1598808D01*
X2742990Y1599804D01*
X2695793Y1795641D01*
X2693051Y1803605D01*
X2609677Y1986975D01*
X2605472Y1994287D01*
X2488934Y2158576D01*
X2483423Y2164962D01*
X2337915Y2304255D01*
X2331304Y2309476D01*
X2162086Y2418739D01*
X2154587Y2422626D01*
X1967766Y2497917D01*
X1959684Y2500311D01*
X1762465Y2538825D01*
X1753671Y2535624D01*
X1750000Y2529266D01*
X1750000Y1605694D01*
X1450000Y1605694D01*
X1450000Y2524306D01*
X1445624Y2536329D01*
X1439266Y2540000D01*
X269500Y2540000D01*
X212292Y2560822D01*
X181852Y2613545D01*
X180500Y2629000D01*
X180500Y2890500D01*
X201322Y2947708D01*
X254045Y2978148D01*
X269500Y2979500D01*
X1700800Y2979500D01*
X1790136Y2988574D01*
X1847729Y2994424D01*
X1847731Y2994424D01*
X1852216Y2994880D01*
X1981669Y3035448D01*
X2041868Y3054313D01*
X2041870Y3054314D01*
X2046172Y3055662D01*
X2223944Y3154203D01*
X2378271Y3286477D01*
X2502848Y3447081D01*
X2592587Y3629455D01*
X2604857Y3676558D01*
X2642686Y3821787D01*
X2643822Y3826148D01*
X2645156Y3851597D01*
X2654223Y4024619D01*
X2654223Y4024621D01*
X2654459Y4029126D01*
X2624065Y4230097D01*
X2605521Y4280500D01*
X2555437Y4416622D01*
X2553881Y4420852D01*
X2446774Y4593599D01*
X2307119Y4741280D01*
X2140621Y4857863D01*
X1954081Y4938586D01*
X1949669Y4939508D01*
X1949665Y4939509D01*
X1833527Y4963771D01*
X1755120Y4980151D01*
X1748461Y4980500D01*
X269500Y4980500D01*
X212292Y5001322D01*
X181852Y5054045D01*
X180500Y5069500D01*
X180500Y5430500D01*
X201322Y5487708D01*
X254045Y5518148D01*
X269500Y5519500D01*
X1700800Y5519500D01*
X1798827Y5529457D01*
X1847729Y5534424D01*
X1847731Y5534424D01*
X1852216Y5534880D01*
X2026404Y5589467D01*
X2041868Y5594313D01*
X2041870Y5594314D01*
X2046172Y5595662D01*
X2183117Y5671572D01*
X2219997Y5692015D01*
X2219998Y5692016D01*
X2223944Y5694203D01*
X2378271Y5826477D01*
X2502848Y5987081D01*
X2592311Y6168894D01*
X2636251Y6211031D01*
X2675389Y6216322D01*
X2675342Y6217575D01*
X2724947Y6219437D01*
X2728286Y6219500D01*
X2747948Y6219500D01*
X2751973Y6220249D01*
X2753248Y6220367D01*
X2758077Y6220680D01*
X2787208Y6221774D01*
X2794755Y6225016D01*
X2794758Y6225017D01*
X2798810Y6226758D01*
X2817645Y6232480D01*
X2821974Y6233286D01*
X2821976Y6233287D01*
X2830053Y6234791D01*
X2853352Y6249152D01*
X2864919Y6255161D01*
X2884286Y6263482D01*
X2890063Y6265964D01*
X2894949Y6269978D01*
X2900138Y6275167D01*
X2916368Y6287996D01*
X2918353Y6289220D01*
X2918354Y6289220D01*
X2925348Y6293532D01*
X2943420Y6317298D01*
X2951331Y6326360D01*
X10274352Y13649381D01*
X10277889Y13652434D01*
X10282269Y13654575D01*
X10316022Y13690961D01*
X10318337Y13693366D01*
X10332248Y13707277D01*
X10334561Y13710648D01*
X10335371Y13711623D01*
X10338570Y13715267D01*
X10352815Y13730624D01*
X10358401Y13736646D01*
X10363080Y13748374D01*
X10372349Y13765733D01*
X10379492Y13776146D01*
X10383685Y13793815D01*
X10385811Y13802773D01*
X10389742Y13815202D01*
X10397556Y13834787D01*
X10397557Y13834793D01*
X10399883Y13840622D01*
X10400500Y13846915D01*
X10400500Y13854255D01*
X10402905Y13874805D01*
X10403442Y13877069D01*
X10405340Y13885066D01*
X10401764Y13911346D01*
X10401313Y13914656D01*
X10400500Y13926658D01*
X10400500Y18405683D01*
X10421322Y18462891D01*
X10474045Y18493331D01*
X10538816Y18479770D01*
G37*
G04 #@! TD.AperFunction*
G04 #@! TA.AperFunction,Conductor*
G36*
X12691548Y8162568D02*
G01*
X12726467Y8112698D01*
X12729500Y8089663D01*
X12729500Y2667607D01*
X12708678Y2610399D01*
X12671232Y2584082D01*
X12589148Y2553881D01*
X12416401Y2446774D01*
X12268720Y2307119D01*
X12152137Y2140621D01*
X12071414Y1954081D01*
X12070492Y1949669D01*
X12070491Y1949665D01*
X12050660Y1854739D01*
X12029849Y1755120D01*
X12029500Y1748461D01*
X12029500Y269500D01*
X12008678Y212292D01*
X11955955Y181852D01*
X11940500Y180500D01*
X11679000Y180500D01*
X11621792Y201322D01*
X11591352Y254045D01*
X11590000Y269500D01*
X11590000Y1434306D01*
X11585624Y1446329D01*
X11579266Y1450000D01*
X10655694Y1450000D01*
X10643671Y1445624D01*
X10640000Y1439266D01*
X10640000Y269500D01*
X10619178Y212292D01*
X10566455Y181852D01*
X10551000Y180500D01*
X10429000Y180500D01*
X10371792Y201322D01*
X10341352Y254045D01*
X10340000Y269500D01*
X10340000Y1434306D01*
X10335624Y1446329D01*
X10329266Y1450000D01*
X9405694Y1450000D01*
X9393671Y1445624D01*
X9390000Y1439266D01*
X9390000Y269500D01*
X9369178Y212292D01*
X9316455Y181852D01*
X9301000Y180500D01*
X9039500Y180500D01*
X8982292Y201322D01*
X8951852Y254045D01*
X8950500Y269500D01*
X8950500Y1700800D01*
X8944236Y1762465D01*
X9391175Y1762465D01*
X9394376Y1753671D01*
X9400734Y1750000D01*
X10324306Y1750000D01*
X10336329Y1754376D01*
X10340000Y1760734D01*
X10340000Y1765694D01*
X10640000Y1765694D01*
X10644376Y1753671D01*
X10650734Y1750000D01*
X11569769Y1750000D01*
X11581792Y1754376D01*
X11584584Y1759212D01*
X11575470Y1854739D01*
X11573877Y1863011D01*
X11517173Y2056301D01*
X11514043Y2064125D01*
X11421811Y2243206D01*
X11417256Y2250299D01*
X11292834Y2408695D01*
X11287010Y2414811D01*
X11134878Y2546825D01*
X11128010Y2551723D01*
X10953665Y2652585D01*
X10945987Y2656101D01*
X10755710Y2722176D01*
X10747513Y2724174D01*
X10655531Y2737511D01*
X10643006Y2734906D01*
X10640000Y2731093D01*
X10640000Y1765694D01*
X10340000Y1765694D01*
X10340000Y2728550D01*
X10335624Y2740573D01*
X10331192Y2743132D01*
X10330196Y2742990D01*
X10134359Y2695793D01*
X10126395Y2693051D01*
X9943025Y2609677D01*
X9935713Y2605472D01*
X9771424Y2488934D01*
X9765038Y2483423D01*
X9625745Y2337915D01*
X9620524Y2331304D01*
X9511261Y2162086D01*
X9507374Y2154587D01*
X9432083Y1967766D01*
X9429689Y1959684D01*
X9391175Y1762465D01*
X8944236Y1762465D01*
X8938085Y1823026D01*
X8935576Y1847729D01*
X8935576Y1847731D01*
X8935120Y1852216D01*
X8874338Y2046172D01*
X8808491Y2164962D01*
X8777985Y2219997D01*
X8777984Y2219998D01*
X8775797Y2223944D01*
X8643523Y2378271D01*
X8614634Y2400680D01*
X8528911Y2467173D01*
X8482919Y2502848D01*
X8440183Y2523877D01*
X8300545Y2592587D01*
X8301696Y2594927D01*
X8262123Y2628594D01*
X8250500Y2672569D01*
X8250500Y3788664D01*
X8271322Y3845872D01*
X8276568Y3851597D01*
X12577568Y8152596D01*
X12632743Y8178324D01*
X12691548Y8162568D01*
G37*
G04 #@! TD.AperFunction*
G04 #@! TA.AperFunction,Conductor*
G36*
X16334480Y7836259D02*
G01*
X16352913Y7822116D01*
X17829381Y6345648D01*
X17832434Y6342111D01*
X17834575Y6337731D01*
X17840600Y6332142D01*
X17870960Y6303979D01*
X17873366Y6301663D01*
X17887277Y6287752D01*
X17890648Y6285439D01*
X17891623Y6284629D01*
X17895267Y6281430D01*
X17902019Y6275167D01*
X17916646Y6261599D01*
X17928374Y6256920D01*
X17945733Y6247651D01*
X17956146Y6240508D01*
X17964140Y6238611D01*
X17982773Y6234189D01*
X17995202Y6230258D01*
X18014787Y6222444D01*
X18014793Y6222443D01*
X18020622Y6220117D01*
X18026915Y6219500D01*
X18034255Y6219500D01*
X18054806Y6217095D01*
X18065066Y6214660D01*
X18073208Y6215768D01*
X18073210Y6215768D01*
X18094656Y6218687D01*
X18106658Y6219500D01*
X18332393Y6219500D01*
X18389601Y6198678D01*
X18415918Y6161232D01*
X18446119Y6079148D01*
X18553226Y5906401D01*
X18692881Y5758720D01*
X18859379Y5642137D01*
X19045919Y5561414D01*
X19050331Y5560492D01*
X19050335Y5560491D01*
X19163038Y5536947D01*
X19244880Y5519849D01*
X19251539Y5519500D01*
X20730500Y5519500D01*
X20787708Y5498678D01*
X20818148Y5445955D01*
X20819500Y5430500D01*
X20819500Y5069500D01*
X20798678Y5012292D01*
X20745955Y4981852D01*
X20730500Y4980500D01*
X19299200Y4980500D01*
X19209864Y4971426D01*
X19152271Y4965576D01*
X19152269Y4965576D01*
X19147784Y4965120D01*
X19066059Y4939509D01*
X18958132Y4905687D01*
X18958130Y4905686D01*
X18953828Y4904338D01*
X18776056Y4805797D01*
X18621729Y4673523D01*
X18497152Y4512919D01*
X18407413Y4330545D01*
X18405073Y4331696D01*
X18371406Y4292123D01*
X18327431Y4280500D01*
X17781337Y4280500D01*
X17724129Y4301322D01*
X17718404Y4306567D01*
X16227047Y5797924D01*
X16201319Y5853100D01*
X16200980Y5860857D01*
X16200980Y7759183D01*
X16221802Y7816391D01*
X16274525Y7846831D01*
X16334480Y7836259D01*
G37*
G04 #@! TD.AperFunction*
G04 #@! TA.AperFunction,Conductor*
G36*
X16734000Y9936739D02*
G01*
X16752433Y9922596D01*
X17789381Y8885648D01*
X17792434Y8882111D01*
X17794575Y8877731D01*
X17800600Y8872142D01*
X17830960Y8843979D01*
X17833366Y8841663D01*
X17847277Y8827752D01*
X17850648Y8825439D01*
X17851623Y8824629D01*
X17855267Y8821430D01*
X17862019Y8815167D01*
X17876646Y8801599D01*
X17888374Y8796920D01*
X17905733Y8787651D01*
X17916146Y8780508D01*
X17924140Y8778611D01*
X17942773Y8774189D01*
X17955202Y8770258D01*
X17974787Y8762444D01*
X17974793Y8762443D01*
X17980622Y8760117D01*
X17986915Y8759500D01*
X17994255Y8759500D01*
X18014806Y8757095D01*
X18025066Y8754660D01*
X18033208Y8755768D01*
X18033210Y8755768D01*
X18054656Y8758687D01*
X18066658Y8759500D01*
X18332393Y8759500D01*
X18389601Y8738678D01*
X18415918Y8701232D01*
X18446119Y8619148D01*
X18553226Y8446401D01*
X18692881Y8298720D01*
X18859379Y8182137D01*
X19045919Y8101414D01*
X19050331Y8100492D01*
X19050335Y8100491D01*
X19163038Y8076947D01*
X19244880Y8059849D01*
X19251539Y8059500D01*
X20730500Y8059500D01*
X20787708Y8038678D01*
X20818148Y7985955D01*
X20819500Y7970500D01*
X20819500Y7609500D01*
X20798678Y7552292D01*
X20745955Y7521852D01*
X20730500Y7520500D01*
X19299200Y7520500D01*
X19209864Y7511426D01*
X19152271Y7505576D01*
X19152269Y7505576D01*
X19147784Y7505120D01*
X19066059Y7479509D01*
X18958132Y7445687D01*
X18958130Y7445686D01*
X18953828Y7444338D01*
X18776056Y7345797D01*
X18621729Y7213523D01*
X18497152Y7052919D01*
X18407413Y6870545D01*
X18405073Y6871696D01*
X18371406Y6832123D01*
X18327431Y6820500D01*
X18241337Y6820500D01*
X18184129Y6841322D01*
X18178404Y6846567D01*
X16626567Y8398404D01*
X16600839Y8453580D01*
X16600500Y8461337D01*
X16600500Y9859663D01*
X16621322Y9916871D01*
X16674045Y9947311D01*
X16734000Y9936739D01*
G37*
G04 #@! TD.AperFunction*
G04 #@! TA.AperFunction,Conductor*
G36*
X8107846Y13778866D02*
G01*
X8142765Y13728996D01*
X8145346Y13708419D01*
X8144901Y13705560D01*
X8161633Y13577606D01*
X8213605Y13459490D01*
X8296639Y13360709D01*
X8404060Y13289204D01*
X8410113Y13287313D01*
X8410115Y13287312D01*
X8415544Y13285616D01*
X8527233Y13250722D01*
X8576759Y13249814D01*
X8649912Y13248473D01*
X8649914Y13248473D01*
X8656255Y13248357D01*
X8780755Y13282300D01*
X8854062Y13327310D01*
X8913707Y13339500D01*
X8967235Y13310497D01*
X8989596Y13253873D01*
X8970329Y13196123D01*
X8963562Y13188533D01*
X2701238Y6926209D01*
X2646062Y6900481D01*
X2587257Y6916237D01*
X2558768Y6953232D01*
X2557413Y6952571D01*
X2555438Y6956621D01*
X2553881Y6960852D01*
X2446774Y7133599D01*
X2307119Y7281280D01*
X2140621Y7397863D01*
X1954081Y7478586D01*
X1949669Y7479508D01*
X1949665Y7479509D01*
X1833527Y7503771D01*
X1755120Y7520151D01*
X1748461Y7520500D01*
X269500Y7520500D01*
X212292Y7541322D01*
X181852Y7594045D01*
X180500Y7609500D01*
X180500Y7970500D01*
X201322Y8027708D01*
X254045Y8058148D01*
X269500Y8059500D01*
X1700800Y8059500D01*
X1790136Y8068574D01*
X1847729Y8074424D01*
X1847731Y8074424D01*
X1852216Y8074880D01*
X1981669Y8115448D01*
X2041868Y8134313D01*
X2041870Y8134314D01*
X2046172Y8135662D01*
X2223944Y8234203D01*
X2378271Y8366477D01*
X2502848Y8527081D01*
X2592587Y8709455D01*
X2594927Y8708304D01*
X2628594Y8747877D01*
X2672569Y8759500D01*
X2806069Y8759500D01*
X2810733Y8759157D01*
X2815342Y8757575D01*
X2823551Y8757883D01*
X2823552Y8757883D01*
X2864948Y8759437D01*
X2868286Y8759500D01*
X2887948Y8759500D01*
X2891973Y8760249D01*
X2893248Y8760367D01*
X2898077Y8760680D01*
X2927208Y8761774D01*
X2934755Y8765016D01*
X2934758Y8765017D01*
X2938810Y8766758D01*
X2957645Y8772480D01*
X2961974Y8773286D01*
X2961976Y8773287D01*
X2970053Y8774791D01*
X2993352Y8789152D01*
X3004919Y8795161D01*
X3024286Y8803482D01*
X3030063Y8805964D01*
X3034949Y8809978D01*
X3040138Y8815167D01*
X3056368Y8827996D01*
X3058353Y8829220D01*
X3058354Y8829220D01*
X3065348Y8833532D01*
X3083420Y8857298D01*
X3091331Y8866360D01*
X7993865Y13768894D01*
X8049041Y13794622D01*
X8107846Y13778866D01*
G37*
G04 #@! TD.AperFunction*
G04 #@! TA.AperFunction,Conductor*
G36*
X10672071Y28502189D02*
G01*
X10679395Y28495634D01*
X11848881Y27326148D01*
X11851934Y27322611D01*
X11854075Y27318231D01*
X11860100Y27312642D01*
X11890460Y27284479D01*
X11892866Y27282163D01*
X11906777Y27268252D01*
X11910148Y27265939D01*
X11911123Y27265129D01*
X11914767Y27261930D01*
X11929306Y27248444D01*
X11936146Y27242099D01*
X11947874Y27237420D01*
X11965233Y27228151D01*
X11975646Y27221008D01*
X11983640Y27219111D01*
X12002273Y27214689D01*
X12014702Y27210758D01*
X12034287Y27202944D01*
X12034293Y27202943D01*
X12040122Y27200617D01*
X12046415Y27200000D01*
X12053755Y27200000D01*
X12074306Y27197595D01*
X12084566Y27195160D01*
X12092708Y27196268D01*
X12092710Y27196268D01*
X12114156Y27199187D01*
X12126158Y27200000D01*
X14002453Y27200000D01*
X14059661Y27179178D01*
X14070580Y27168268D01*
X14076514Y27161209D01*
X14183935Y27089704D01*
X14189988Y27087813D01*
X14189990Y27087812D01*
X14291747Y27056021D01*
X14307108Y27051222D01*
X14307333Y27051218D01*
X14358264Y27022751D01*
X14379880Y26965839D01*
X14359857Y26908346D01*
X14353822Y26901666D01*
X13125648Y25673492D01*
X13122111Y25670439D01*
X13117731Y25668298D01*
X13112142Y25662273D01*
X13083979Y25631913D01*
X13081663Y25629507D01*
X13067752Y25615596D01*
X13065439Y25612225D01*
X13064629Y25611250D01*
X13061430Y25607606D01*
X13051578Y25596985D01*
X13041599Y25586227D01*
X13037200Y25575200D01*
X13036922Y25574503D01*
X13027651Y25557140D01*
X13020508Y25546727D01*
X13018611Y25538733D01*
X13014189Y25520100D01*
X13010258Y25507671D01*
X13002444Y25488086D01*
X13002443Y25488080D01*
X13000117Y25482251D01*
X12999500Y25475958D01*
X12999500Y25468618D01*
X12997095Y25448068D01*
X12994660Y25437807D01*
X12995768Y25429665D01*
X12995768Y25429663D01*
X12998687Y25408217D01*
X12999500Y25396215D01*
X12999500Y22461337D01*
X12978678Y22404129D01*
X12973433Y22398404D01*
X12082576Y21507547D01*
X12027400Y21481819D01*
X12019643Y21481480D01*
X11676583Y21481480D01*
X11619375Y21502302D01*
X11609164Y21512380D01*
X11599193Y21523952D01*
X11490906Y21594139D01*
X11482454Y21596667D01*
X11373348Y21629297D01*
X11373349Y21629297D01*
X11367273Y21631114D01*
X11360934Y21631153D01*
X11360932Y21631153D01*
X11301448Y21631516D01*
X11238231Y21631902D01*
X11232138Y21630160D01*
X11232134Y21630160D01*
X11146286Y21605624D01*
X11114155Y21596441D01*
X11005019Y21527581D01*
X11000821Y21522827D01*
X11000818Y21522825D01*
X10990873Y21511565D01*
X10937396Y21482469D01*
X10924165Y21481480D01*
X10573402Y21481480D01*
X10516194Y21502302D01*
X10485754Y21555025D01*
X10484590Y21564698D01*
X10484378Y21567954D01*
X10484420Y21571395D01*
X10470251Y21670334D01*
X10467025Y21692860D01*
X10467025Y21692861D01*
X10466126Y21699136D01*
X10427128Y21784907D01*
X10415340Y21810834D01*
X10415339Y21810835D01*
X10412715Y21816607D01*
X10361546Y21875992D01*
X10332623Y21909559D01*
X10332622Y21909560D01*
X10328480Y21914367D01*
X10220193Y21984554D01*
X10206675Y21988597D01*
X10130385Y22011413D01*
X10096560Y22021529D01*
X10090221Y22021568D01*
X10090219Y22021568D01*
X10030735Y22021931D01*
X9967518Y22022317D01*
X9961425Y22020575D01*
X9961421Y22020575D01*
X9908032Y22005316D01*
X9843442Y21986856D01*
X9734306Y21917996D01*
X9648883Y21821273D01*
X9594041Y21704463D01*
X9593065Y21698198D01*
X9593065Y21698196D01*
X9576327Y21590690D01*
X9574188Y21576955D01*
X9574324Y21575911D01*
X9553578Y21521012D01*
X9549039Y21516119D01*
X9126132Y21093211D01*
X9122591Y21090154D01*
X9118211Y21088013D01*
X9112620Y21081986D01*
X9084459Y21051628D01*
X9082143Y21049222D01*
X9068232Y21035311D01*
X9065919Y21031940D01*
X9065109Y21030965D01*
X9061910Y21027321D01*
X9047972Y21012295D01*
X9042079Y21005942D01*
X9037402Y20994218D01*
X9028131Y20976855D01*
X9020988Y20966442D01*
X9019091Y20958448D01*
X9014669Y20939815D01*
X9010738Y20927386D01*
X9002924Y20907801D01*
X9002923Y20907795D01*
X9000597Y20901966D01*
X8999980Y20895673D01*
X8999980Y20888333D01*
X8997575Y20867783D01*
X8995140Y20857522D01*
X8996248Y20849380D01*
X8996248Y20849378D01*
X8999167Y20827932D01*
X8999980Y20815930D01*
X8999980Y15661817D01*
X8979158Y15604609D01*
X8973913Y15598884D01*
X2761596Y9386567D01*
X2706420Y9360839D01*
X2698663Y9360500D01*
X2667607Y9360500D01*
X2610399Y9381322D01*
X2584081Y9418769D01*
X2567718Y9463245D01*
X2553881Y9500852D01*
X2446774Y9673599D01*
X2307119Y9821280D01*
X2140621Y9937863D01*
X1954081Y10018586D01*
X1949669Y10019508D01*
X1949665Y10019509D01*
X1833527Y10043771D01*
X1755120Y10060151D01*
X1748461Y10060500D01*
X269500Y10060500D01*
X212292Y10081322D01*
X181852Y10134045D01*
X180500Y10149500D01*
X180500Y10510500D01*
X201322Y10567708D01*
X254045Y10598148D01*
X269500Y10599500D01*
X1700800Y10599500D01*
X1790136Y10608574D01*
X1847729Y10614424D01*
X1847731Y10614424D01*
X1852216Y10614880D01*
X1949194Y10645271D01*
X2041868Y10674313D01*
X2041870Y10674314D01*
X2046172Y10675662D01*
X2223944Y10774203D01*
X2378271Y10906477D01*
X2428945Y10971805D01*
X2500088Y11063523D01*
X2502848Y11067081D01*
X2516949Y11095737D01*
X2581440Y11226801D01*
X2592587Y11249455D01*
X2604857Y11296558D01*
X2642686Y11441787D01*
X2643822Y11446148D01*
X2647277Y11512080D01*
X2654223Y11644619D01*
X2654223Y11644621D01*
X2654459Y11649126D01*
X2624065Y11850097D01*
X2620546Y11859663D01*
X2555437Y12036622D01*
X2553881Y12040852D01*
X2446774Y12213599D01*
X2307119Y12361280D01*
X2140621Y12477863D01*
X1954081Y12558586D01*
X1949669Y12559508D01*
X1949665Y12559509D01*
X1833527Y12583771D01*
X1755120Y12600151D01*
X1748461Y12600500D01*
X269500Y12600500D01*
X212292Y12621322D01*
X181852Y12674045D01*
X180500Y12689500D01*
X180500Y13050500D01*
X201322Y13107708D01*
X254045Y13138148D01*
X269500Y13139500D01*
X1700800Y13139500D01*
X1790136Y13148574D01*
X1847729Y13154424D01*
X1847731Y13154424D01*
X1852216Y13154880D01*
X1983823Y13196123D01*
X2041868Y13214313D01*
X2041870Y13214314D01*
X2046172Y13215662D01*
X2223944Y13314203D01*
X2378271Y13446477D01*
X2502848Y13607081D01*
X2545766Y13694301D01*
X2561552Y13726384D01*
X2592587Y13789455D01*
X2603948Y13833068D01*
X2642686Y13981787D01*
X2643822Y13986148D01*
X2654459Y14189126D01*
X2624065Y14390097D01*
X2605521Y14440500D01*
X2583978Y14499050D01*
X2553881Y14580852D01*
X2446774Y14753599D01*
X2307119Y14901280D01*
X2140621Y15017863D01*
X1954081Y15098586D01*
X1949669Y15099508D01*
X1949665Y15099509D01*
X1833527Y15123771D01*
X1755120Y15140151D01*
X1748461Y15140500D01*
X269500Y15140500D01*
X212292Y15161322D01*
X181852Y15214045D01*
X180500Y15229500D01*
X180500Y15590500D01*
X201322Y15647708D01*
X254045Y15678148D01*
X269500Y15679500D01*
X1700800Y15679500D01*
X1790136Y15688574D01*
X1847729Y15694424D01*
X1847731Y15694424D01*
X1852216Y15694880D01*
X1981669Y15735448D01*
X2041868Y15754313D01*
X2041870Y15754314D01*
X2046172Y15755662D01*
X2223944Y15854203D01*
X2378271Y15986477D01*
X2502848Y16147081D01*
X2529312Y16200862D01*
X2566390Y16276216D01*
X2592587Y16329455D01*
X2643822Y16526148D01*
X2654459Y16729126D01*
X2624065Y16930097D01*
X2553881Y17120852D01*
X2446774Y17293599D01*
X2423954Y17317731D01*
X2310216Y17438005D01*
X2307119Y17441280D01*
X2140621Y17557863D01*
X1954081Y17638586D01*
X1949669Y17639508D01*
X1949665Y17639509D01*
X1833527Y17663771D01*
X1755120Y17680151D01*
X1748461Y17680500D01*
X269500Y17680500D01*
X212292Y17701322D01*
X181852Y17754045D01*
X180500Y17769500D01*
X180500Y18130500D01*
X201322Y18187708D01*
X254045Y18218148D01*
X269500Y18219500D01*
X1700800Y18219500D01*
X1790136Y18228574D01*
X1847729Y18234424D01*
X1847731Y18234424D01*
X1852216Y18234880D01*
X1981669Y18275448D01*
X2041868Y18294313D01*
X2041870Y18294314D01*
X2046172Y18295662D01*
X2201540Y18381784D01*
X2219997Y18392015D01*
X2219998Y18392016D01*
X2223944Y18394203D01*
X2378271Y18526477D01*
X2403879Y18559490D01*
X2471095Y18646145D01*
X2502848Y18687081D01*
X2592587Y18869455D01*
X2643822Y19066148D01*
X2648038Y19146601D01*
X2654223Y19264619D01*
X2654223Y19264621D01*
X2654459Y19269126D01*
X2624065Y19470097D01*
X2618638Y19484849D01*
X2569469Y19618485D01*
X2553881Y19660852D01*
X2446774Y19833599D01*
X2307119Y19981280D01*
X2140621Y20097863D01*
X1954081Y20178586D01*
X1949669Y20179508D01*
X1949665Y20179509D01*
X1833527Y20203771D01*
X1755120Y20220151D01*
X1748461Y20220500D01*
X269500Y20220500D01*
X212292Y20241322D01*
X181852Y20294045D01*
X180500Y20309500D01*
X180500Y20405560D01*
X4344901Y20405560D01*
X4361633Y20277606D01*
X4413605Y20159490D01*
X4423555Y20147653D01*
X4428628Y20141618D01*
X4449500Y20084350D01*
X4449500Y16346883D01*
X4447506Y16328152D01*
X4445049Y16316739D01*
X4445914Y16309434D01*
X4448883Y16284346D01*
X4449363Y16276216D01*
X4449500Y16274559D01*
X4449500Y16270885D01*
X4450103Y16267265D01*
X4452534Y16252656D01*
X4453125Y16248507D01*
X4458764Y16200862D01*
X4461716Y16194714D01*
X4462691Y16191632D01*
X4463812Y16184897D01*
X4467305Y16178424D01*
X4467306Y16178420D01*
X4482868Y16149579D01*
X4484217Y16147081D01*
X4486607Y16142651D01*
X4488492Y16138952D01*
X4509274Y16095674D01*
X4512592Y16091726D01*
X4513954Y16090364D01*
X4514526Y16089740D01*
X4516275Y16087667D01*
X4519222Y16082206D01*
X4556164Y16048057D01*
X4558659Y16045659D01*
X5684012Y14920306D01*
X5709328Y14868912D01*
X5713956Y14833523D01*
X5715195Y14824044D01*
X5767167Y14705928D01*
X5850201Y14607147D01*
X5957622Y14535642D01*
X5963675Y14533751D01*
X5963677Y14533750D01*
X5979720Y14528738D01*
X6080795Y14497160D01*
X6130321Y14496252D01*
X6203474Y14494911D01*
X6203476Y14494911D01*
X6209817Y14494795D01*
X6334317Y14528738D01*
X6444286Y14596259D01*
X6448537Y14600955D01*
X6448539Y14600957D01*
X6526630Y14687231D01*
X6526631Y14687232D01*
X6530884Y14691931D01*
X6562349Y14756874D01*
X6584385Y14802355D01*
X6584386Y14802358D01*
X6587150Y14808063D01*
X6591434Y14833523D01*
X6600847Y14889477D01*
X6608559Y14935318D01*
X6608695Y14946438D01*
X6592124Y15062151D01*
X6591300Y15067903D01*
X6591300Y15067904D01*
X6590401Y15074179D01*
X6545792Y15172292D01*
X6539615Y15185877D01*
X6539614Y15185878D01*
X6536990Y15191650D01*
X6452755Y15289410D01*
X6344468Y15359597D01*
X6338393Y15361414D01*
X6226912Y15394755D01*
X6226909Y15394755D01*
X6220835Y15396572D01*
X6221018Y15397184D01*
X6175610Y15420072D01*
X5176567Y16419115D01*
X5150839Y16474291D01*
X5150500Y16482048D01*
X5150500Y20081563D01*
X5170932Y20134585D01*
X5169521Y20135536D01*
X5173065Y20140790D01*
X5177322Y20145493D01*
X5205558Y20203771D01*
X5230823Y20255917D01*
X5230824Y20255920D01*
X5233588Y20261625D01*
X5254997Y20388880D01*
X5255133Y20400000D01*
X5236839Y20527741D01*
X5183428Y20645212D01*
X5099193Y20742972D01*
X4990906Y20813159D01*
X4983253Y20815448D01*
X4922885Y20833502D01*
X4867273Y20850134D01*
X4860934Y20850173D01*
X4860932Y20850173D01*
X4801448Y20850536D01*
X4738231Y20850922D01*
X4732138Y20849180D01*
X4732134Y20849180D01*
X4657790Y20827932D01*
X4614155Y20815461D01*
X4505019Y20746601D01*
X4465702Y20702083D01*
X4431778Y20663671D01*
X4419596Y20649878D01*
X4364754Y20533068D01*
X4344901Y20405560D01*
X180500Y20405560D01*
X180500Y20670500D01*
X201322Y20727708D01*
X254045Y20758148D01*
X269500Y20759500D01*
X1700800Y20759500D01*
X1790136Y20768574D01*
X1847729Y20774424D01*
X1847731Y20774424D01*
X1852216Y20774880D01*
X1963359Y20809710D01*
X2041868Y20834313D01*
X2041870Y20834314D01*
X2046172Y20835662D01*
X2174764Y20906942D01*
X2219997Y20932015D01*
X2219998Y20932016D01*
X2223944Y20934203D01*
X2378271Y21066477D01*
X2401607Y21096561D01*
X2486674Y21206230D01*
X2502848Y21227081D01*
X2592587Y21409455D01*
X2594927Y21408304D01*
X2628594Y21447877D01*
X2672569Y21459500D01*
X6078664Y21459500D01*
X6135872Y21438678D01*
X6141597Y21433432D01*
X6663236Y20911792D01*
X6688964Y20856617D01*
X6673207Y20797812D01*
X6647794Y20773590D01*
X6610383Y20749986D01*
X6610380Y20749984D01*
X6605019Y20746601D01*
X6565702Y20702083D01*
X6531778Y20663671D01*
X6519596Y20649878D01*
X6464754Y20533068D01*
X6444901Y20405560D01*
X6461633Y20277606D01*
X6513605Y20159490D01*
X6596639Y20060709D01*
X6704060Y19989204D01*
X6710113Y19987313D01*
X6710115Y19987312D01*
X6747831Y19975529D01*
X6827233Y19950722D01*
X6876759Y19949814D01*
X6949912Y19948473D01*
X6949914Y19948473D01*
X6956255Y19948357D01*
X7080755Y19982300D01*
X7190724Y20049821D01*
X7194975Y20054517D01*
X7194977Y20054519D01*
X7273068Y20140793D01*
X7273069Y20140794D01*
X7277322Y20145493D01*
X7305558Y20203771D01*
X7330823Y20255917D01*
X7330824Y20255920D01*
X7333588Y20261625D01*
X7354997Y20388880D01*
X7355133Y20400000D01*
X7336839Y20527741D01*
X7308481Y20590111D01*
X7300500Y20626948D01*
X7300500Y20871595D01*
X7321322Y20928803D01*
X7374045Y20959243D01*
X7389500Y20960595D01*
X7393161Y20960595D01*
X7413709Y20958190D01*
X7423971Y20955755D01*
X7432113Y20956863D01*
X7432115Y20956863D01*
X7453561Y20959782D01*
X7465563Y20960595D01*
X7937006Y20960595D01*
X7994214Y20939773D01*
X8005133Y20928863D01*
X8006375Y20927386D01*
X8011067Y20921804D01*
X8118488Y20850299D01*
X8124541Y20848408D01*
X8124543Y20848407D01*
X8158338Y20837849D01*
X8241661Y20811817D01*
X8291187Y20810909D01*
X8364340Y20809568D01*
X8364342Y20809568D01*
X8370683Y20809452D01*
X8495183Y20843395D01*
X8507379Y20850883D01*
X8580326Y20895673D01*
X8605152Y20910916D01*
X8609403Y20915612D01*
X8609405Y20915614D01*
X8687496Y21001888D01*
X8687497Y21001889D01*
X8691750Y21006588D01*
X8707067Y21038202D01*
X8745251Y21117012D01*
X8745252Y21117015D01*
X8748016Y21122720D01*
X8769425Y21249975D01*
X8769561Y21261095D01*
X8751267Y21388836D01*
X8697856Y21506307D01*
X8698657Y21506671D01*
X8686503Y21561036D01*
X8714519Y21615086D01*
X8720336Y21619482D01*
X8720304Y21619521D01*
X8725180Y21623569D01*
X8730583Y21626886D01*
X8734834Y21631582D01*
X8734836Y21631584D01*
X8812927Y21717858D01*
X8812928Y21717859D01*
X8817181Y21722558D01*
X8830948Y21750972D01*
X8870682Y21832982D01*
X8870683Y21832985D01*
X8873447Y21838690D01*
X8880096Y21878208D01*
X8894285Y21962553D01*
X8894856Y21965945D01*
X8894992Y21977065D01*
X8878505Y22092190D01*
X8877597Y22098530D01*
X8877597Y22098531D01*
X8876698Y22104806D01*
X8834952Y22196622D01*
X8825912Y22216504D01*
X8825911Y22216505D01*
X8823287Y22222277D01*
X8778026Y22274805D01*
X8743195Y22315229D01*
X8743194Y22315230D01*
X8739052Y22320037D01*
X8630765Y22390224D01*
X8617247Y22394267D01*
X8527448Y22421123D01*
X8507132Y22427199D01*
X8500793Y22427238D01*
X8500791Y22427238D01*
X8441307Y22427601D01*
X8378090Y22427987D01*
X8371997Y22426245D01*
X8371993Y22426245D01*
X8297233Y22404878D01*
X8254014Y22392526D01*
X8144878Y22323666D01*
X8140680Y22318912D01*
X8140677Y22318910D01*
X8130732Y22307650D01*
X8077255Y22278554D01*
X8064024Y22277565D01*
X7584273Y22277565D01*
X7527065Y22298387D01*
X7521340Y22303632D01*
X7177405Y22647567D01*
X7151677Y22702743D01*
X7167433Y22761548D01*
X7217303Y22796467D01*
X7240338Y22799500D01*
X8122578Y22799500D01*
X8179786Y22778678D01*
X8190705Y22767768D01*
X8196639Y22760709D01*
X8304060Y22689204D01*
X8310113Y22687313D01*
X8310115Y22687312D01*
X8326158Y22682300D01*
X8427233Y22650722D01*
X8476759Y22649814D01*
X8549912Y22648473D01*
X8549914Y22648473D01*
X8556255Y22648357D01*
X8680755Y22682300D01*
X8790724Y22749821D01*
X8794975Y22754517D01*
X8794977Y22754519D01*
X8873068Y22840793D01*
X8873069Y22840794D01*
X8877322Y22845493D01*
X8905359Y22903361D01*
X8930823Y22955917D01*
X8930824Y22955920D01*
X8933588Y22961625D01*
X8954997Y23088880D01*
X8955133Y23100000D01*
X8939308Y23210500D01*
X8937738Y23221465D01*
X8937738Y23221466D01*
X8936839Y23227741D01*
X8912128Y23282089D01*
X8886053Y23339439D01*
X8886052Y23339440D01*
X8883428Y23345212D01*
X8831082Y23405963D01*
X8803336Y23438164D01*
X8803335Y23438165D01*
X8799193Y23442972D01*
X8690906Y23513159D01*
X8670433Y23519282D01*
X8573353Y23548316D01*
X8573351Y23548316D01*
X8567273Y23550134D01*
X8563837Y23550155D01*
X8511395Y23578627D01*
X8489081Y23635269D01*
X8508396Y23693003D01*
X8531481Y23713446D01*
X8585323Y23746505D01*
X8590724Y23749821D01*
X8594975Y23754517D01*
X8594977Y23754519D01*
X8673068Y23840793D01*
X8673069Y23840794D01*
X8677322Y23845493D01*
X8711874Y23916808D01*
X8730823Y23955917D01*
X8730824Y23955920D01*
X8733588Y23961625D01*
X8738046Y23988120D01*
X8747728Y24045673D01*
X8754997Y24088880D01*
X8755133Y24100000D01*
X8736839Y24227741D01*
X8683428Y24345212D01*
X8617848Y24421322D01*
X8603336Y24438164D01*
X8603335Y24438165D01*
X8599193Y24442972D01*
X8490906Y24513159D01*
X8477388Y24517202D01*
X8373348Y24548317D01*
X8373349Y24548317D01*
X8367273Y24550134D01*
X8360934Y24550173D01*
X8360932Y24550173D01*
X8301448Y24550536D01*
X8238231Y24550922D01*
X8232138Y24549180D01*
X8232134Y24549180D01*
X8137728Y24522198D01*
X8114155Y24515461D01*
X8005019Y24446601D01*
X8000821Y24441847D01*
X8000818Y24441845D01*
X7990873Y24430585D01*
X7937396Y24401489D01*
X7924165Y24400500D01*
X6691349Y24400500D01*
X6634141Y24421322D01*
X6628416Y24426567D01*
X6221247Y24833736D01*
X6195519Y24888912D01*
X6211275Y24947717D01*
X6261145Y24982636D01*
X6285809Y24985654D01*
X6312262Y24985169D01*
X6328711Y24984867D01*
X6328713Y24984867D01*
X6335053Y24984751D01*
X6459553Y25018694D01*
X6569522Y25086215D01*
X6573773Y25090911D01*
X6573775Y25090913D01*
X6651866Y25177187D01*
X6651867Y25177188D01*
X6656120Y25181887D01*
X6681513Y25234298D01*
X6709621Y25292311D01*
X6709622Y25292314D01*
X6712386Y25298019D01*
X6716307Y25321322D01*
X6728906Y25396215D01*
X6733795Y25425274D01*
X6733931Y25436394D01*
X6716947Y25554987D01*
X6716536Y25557859D01*
X6716536Y25557860D01*
X6715637Y25564135D01*
X6669788Y25664975D01*
X6664850Y25675835D01*
X6662226Y25681606D01*
X6658089Y25686407D01*
X6658088Y25686409D01*
X6600874Y25752809D01*
X6579298Y25810904D01*
X6579298Y26524862D01*
X6579641Y26529529D01*
X6581224Y26534140D01*
X6579361Y26583761D01*
X6579298Y26587100D01*
X6579298Y26606746D01*
X6578546Y26610783D01*
X6578432Y26612019D01*
X6578117Y26616884D01*
X6578102Y26617301D01*
X6578026Y26619322D01*
X6596700Y26677267D01*
X6648251Y26709652D01*
X6708558Y26701324D01*
X6729895Y26685575D01*
X7793429Y25622041D01*
X7819157Y25566866D01*
X7818436Y25545419D01*
X7814993Y25523306D01*
X7821412Y25474217D01*
X7830043Y25408217D01*
X7831725Y25395352D01*
X7883697Y25277236D01*
X7966731Y25178455D01*
X8074152Y25106950D01*
X8080205Y25105059D01*
X8080207Y25105058D01*
X8096250Y25100046D01*
X8197325Y25068468D01*
X8246851Y25067560D01*
X8320004Y25066219D01*
X8320006Y25066219D01*
X8326347Y25066103D01*
X8450847Y25100046D01*
X8560816Y25167567D01*
X8565067Y25172263D01*
X8565069Y25172265D01*
X8643160Y25258539D01*
X8643161Y25258540D01*
X8647414Y25263239D01*
X8650180Y25268947D01*
X8655074Y25279048D01*
X8698757Y25321452D01*
X8759477Y25325856D01*
X8784482Y25314327D01*
X8846724Y25272896D01*
X8852777Y25271005D01*
X8852779Y25271004D01*
X8868822Y25265992D01*
X8969897Y25234414D01*
X9019423Y25233506D01*
X9092576Y25232165D01*
X9092578Y25232165D01*
X9098919Y25232049D01*
X9223419Y25265992D01*
X9233830Y25272384D01*
X9327984Y25330195D01*
X9333388Y25333513D01*
X9337639Y25338209D01*
X9337641Y25338211D01*
X9415732Y25424485D01*
X9415733Y25424486D01*
X9419986Y25429185D01*
X9426434Y25442494D01*
X9470115Y25484898D01*
X9530835Y25489304D01*
X9541546Y25485262D01*
X9545083Y25482908D01*
X9551134Y25481018D01*
X9551135Y25481017D01*
X9567930Y25475770D01*
X9668256Y25444426D01*
X9717782Y25443518D01*
X9790935Y25442177D01*
X9790937Y25442177D01*
X9797278Y25442061D01*
X9921778Y25476004D01*
X9929943Y25481017D01*
X10026343Y25540207D01*
X10031747Y25543525D01*
X10043890Y25556941D01*
X10097716Y25585382D01*
X10159189Y25571303D01*
X10243851Y25514948D01*
X10249904Y25513057D01*
X10249906Y25513056D01*
X10265949Y25508044D01*
X10367024Y25476466D01*
X10416550Y25475558D01*
X10489703Y25474217D01*
X10489705Y25474217D01*
X10496046Y25474101D01*
X10620546Y25508044D01*
X10626641Y25511786D01*
X10697000Y25554987D01*
X10730515Y25575565D01*
X10734766Y25580261D01*
X10734768Y25580263D01*
X10812859Y25666537D01*
X10812860Y25666538D01*
X10817113Y25671237D01*
X10863004Y25765955D01*
X10870614Y25781661D01*
X10870615Y25781664D01*
X10873379Y25787369D01*
X10877339Y25810904D01*
X10884964Y25856229D01*
X10894788Y25914624D01*
X10894924Y25925744D01*
X10876630Y26053485D01*
X10823219Y26170956D01*
X10819082Y26175757D01*
X10819081Y26175759D01*
X10761867Y26242159D01*
X10740291Y26300254D01*
X10740291Y27819024D01*
X10741643Y27834479D01*
X10743575Y27845436D01*
X10744927Y27853103D01*
X10741774Y27870985D01*
X10740696Y27879455D01*
X10738706Y27904735D01*
X10732883Y27978717D01*
X10703468Y28101238D01*
X10694111Y28123828D01*
X10656586Y28214418D01*
X10656583Y28214425D01*
X10655247Y28217649D01*
X10589410Y28325083D01*
X10570086Y28347708D01*
X10553561Y28367056D01*
X10548573Y28373943D01*
X10547380Y28376719D01*
X10543393Y28381572D01*
X10540440Y28386423D01*
X10528479Y28446116D01*
X10557686Y28499532D01*
X10614395Y28521677D01*
X10672071Y28502189D01*
G37*
G04 #@! TD.AperFunction*
G04 #@! TA.AperFunction,Conductor*
G36*
X17134000Y11936739D02*
G01*
X17152433Y11922596D01*
X17649381Y11425648D01*
X17652434Y11422111D01*
X17654575Y11417731D01*
X17660600Y11412142D01*
X17690960Y11383979D01*
X17693366Y11381663D01*
X17707277Y11367752D01*
X17710648Y11365439D01*
X17711623Y11364629D01*
X17715267Y11361430D01*
X17722594Y11354634D01*
X17736646Y11341599D01*
X17744274Y11338556D01*
X17744275Y11338555D01*
X17746298Y11337748D01*
X17748371Y11336921D01*
X17765733Y11327650D01*
X17776146Y11320507D01*
X17784137Y11318611D01*
X17784141Y11318609D01*
X17802778Y11314187D01*
X17815200Y11310259D01*
X17840622Y11300117D01*
X17846915Y11299500D01*
X17854256Y11299500D01*
X17874804Y11297095D01*
X17885066Y11294660D01*
X17893208Y11295768D01*
X17893210Y11295768D01*
X17914656Y11298687D01*
X17926658Y11299500D01*
X18332393Y11299500D01*
X18389601Y11278678D01*
X18415918Y11241232D01*
X18446119Y11159148D01*
X18553226Y10986401D01*
X18556323Y10983126D01*
X18582053Y10955917D01*
X18692881Y10838720D01*
X18859379Y10722137D01*
X19045919Y10641414D01*
X19050331Y10640492D01*
X19050335Y10640491D01*
X19163038Y10616947D01*
X19244880Y10599849D01*
X19251539Y10599500D01*
X20730500Y10599500D01*
X20787708Y10578678D01*
X20818148Y10525955D01*
X20819500Y10510500D01*
X20819500Y10149500D01*
X20798678Y10092292D01*
X20745955Y10061852D01*
X20730500Y10060500D01*
X19299200Y10060500D01*
X19209864Y10051426D01*
X19152271Y10045576D01*
X19152269Y10045576D01*
X19147784Y10045120D01*
X19083131Y10024859D01*
X18958132Y9985687D01*
X18958130Y9985686D01*
X18953828Y9984338D01*
X18776056Y9885797D01*
X18621729Y9753523D01*
X18497152Y9592919D01*
X18407413Y9410545D01*
X18405073Y9411696D01*
X18371406Y9372123D01*
X18327431Y9360500D01*
X18201337Y9360500D01*
X18144129Y9381322D01*
X18138404Y9386567D01*
X17026567Y10498404D01*
X17000839Y10553580D01*
X17000500Y10561337D01*
X17000500Y11859663D01*
X17021322Y11916871D01*
X17074045Y11947311D01*
X17134000Y11936739D01*
G37*
G04 #@! TD.AperFunction*
G04 #@! TA.AperFunction,Conductor*
G36*
X17534000Y14236739D02*
G01*
X17552433Y14222596D01*
X17809381Y13965648D01*
X17812434Y13962111D01*
X17814575Y13957731D01*
X17820600Y13952142D01*
X17850960Y13923979D01*
X17853366Y13921663D01*
X17867277Y13907752D01*
X17870648Y13905439D01*
X17871623Y13904629D01*
X17875267Y13901430D01*
X17884129Y13893210D01*
X17896646Y13881599D01*
X17904274Y13878556D01*
X17904275Y13878555D01*
X17906298Y13877748D01*
X17908371Y13876921D01*
X17925733Y13867650D01*
X17936146Y13860507D01*
X17944137Y13858611D01*
X17944141Y13858609D01*
X17962778Y13854187D01*
X17975200Y13850259D01*
X18000622Y13840117D01*
X18006915Y13839500D01*
X18014256Y13839500D01*
X18034804Y13837095D01*
X18045066Y13834660D01*
X18053208Y13835768D01*
X18053210Y13835768D01*
X18074656Y13838687D01*
X18086658Y13839500D01*
X18332393Y13839500D01*
X18389601Y13818678D01*
X18415918Y13781232D01*
X18446119Y13699148D01*
X18553226Y13526401D01*
X18692881Y13378720D01*
X18859379Y13262137D01*
X19045919Y13181414D01*
X19050331Y13180492D01*
X19050335Y13180491D01*
X19163038Y13156947D01*
X19244880Y13139849D01*
X19251539Y13139500D01*
X20730500Y13139500D01*
X20787708Y13118678D01*
X20818148Y13065955D01*
X20819500Y13050500D01*
X20819500Y12689500D01*
X20798678Y12632292D01*
X20745955Y12601852D01*
X20730500Y12600500D01*
X19299200Y12600500D01*
X19209864Y12591426D01*
X19152271Y12585576D01*
X19152269Y12585576D01*
X19147784Y12585120D01*
X19071892Y12561337D01*
X18958132Y12525687D01*
X18958130Y12525686D01*
X18953828Y12524338D01*
X18776056Y12425797D01*
X18621729Y12293523D01*
X18497152Y12132919D01*
X18407413Y11950545D01*
X18405073Y11951696D01*
X18371406Y11912123D01*
X18327431Y11900500D01*
X18061337Y11900500D01*
X18004129Y11921322D01*
X17998404Y11926567D01*
X17426567Y12498404D01*
X17400839Y12553580D01*
X17400500Y12561337D01*
X17400500Y14159663D01*
X17421322Y14216871D01*
X17474045Y14247311D01*
X17534000Y14236739D01*
G37*
G04 #@! TD.AperFunction*
G04 #@! TA.AperFunction,Conductor*
G36*
X17934480Y16836260D02*
G01*
X17952912Y16822117D01*
X18244380Y16530648D01*
X18269381Y16505647D01*
X18272435Y16502109D01*
X18274575Y16497731D01*
X18280600Y16492142D01*
X18310947Y16463991D01*
X18313353Y16461675D01*
X18327276Y16447752D01*
X18330659Y16445431D01*
X18331619Y16444634D01*
X18335273Y16441425D01*
X18350618Y16427190D01*
X18350621Y16427188D01*
X18356646Y16421599D01*
X18360737Y16419967D01*
X18395341Y16377158D01*
X18444562Y16243378D01*
X18444565Y16243373D01*
X18446119Y16239148D01*
X18553226Y16066401D01*
X18692881Y15918720D01*
X18859379Y15802137D01*
X19045919Y15721414D01*
X19050331Y15720492D01*
X19050335Y15720491D01*
X19163038Y15696947D01*
X19244880Y15679849D01*
X19251539Y15679500D01*
X20730500Y15679500D01*
X20787708Y15658678D01*
X20818148Y15605955D01*
X20819500Y15590500D01*
X20819500Y15229500D01*
X20798678Y15172292D01*
X20745955Y15141852D01*
X20730500Y15140500D01*
X19299200Y15140500D01*
X19209864Y15131426D01*
X19152271Y15125576D01*
X19152269Y15125576D01*
X19147784Y15125120D01*
X19066059Y15099509D01*
X18958132Y15065687D01*
X18958130Y15065686D01*
X18953828Y15064338D01*
X18776056Y14965797D01*
X18621729Y14833523D01*
X18497152Y14672919D01*
X18407413Y14490545D01*
X18405073Y14491696D01*
X18371406Y14452123D01*
X18327431Y14440500D01*
X18221337Y14440500D01*
X18164129Y14461322D01*
X18158405Y14466567D01*
X17827048Y14797923D01*
X17801319Y14853099D01*
X17800980Y14860856D01*
X17800980Y16759184D01*
X17821802Y16816392D01*
X17874525Y16846832D01*
X17934480Y16836260D01*
G37*
G04 #@! TD.AperFunction*
G04 #@! TA.AperFunction,Conductor*
G36*
X18334000Y19027578D02*
G01*
X18373133Y18980942D01*
X18375348Y18973786D01*
X18375935Y18969903D01*
X18446119Y18779148D01*
X18553226Y18606401D01*
X18692881Y18458720D01*
X18785021Y18394203D01*
X18849708Y18348909D01*
X18859379Y18342137D01*
X19045919Y18261414D01*
X19050331Y18260492D01*
X19050335Y18260491D01*
X19163038Y18236947D01*
X19244880Y18219849D01*
X19251539Y18219500D01*
X20730500Y18219500D01*
X20787708Y18198678D01*
X20818148Y18145955D01*
X20819500Y18130500D01*
X20819500Y17769500D01*
X20798678Y17712292D01*
X20745955Y17681852D01*
X20730500Y17680500D01*
X19299200Y17680500D01*
X19209864Y17671426D01*
X19152271Y17665576D01*
X19152269Y17665576D01*
X19147784Y17665120D01*
X19066059Y17639509D01*
X18958132Y17605687D01*
X18958130Y17605686D01*
X18953828Y17604338D01*
X18776056Y17505797D01*
X18621729Y17373523D01*
X18618970Y17369966D01*
X18618969Y17369965D01*
X18521851Y17244761D01*
X18470335Y17212320D01*
X18410019Y17220582D01*
X18388594Y17236377D01*
X18226567Y17398404D01*
X18200839Y17453580D01*
X18200500Y17461337D01*
X18200500Y18950502D01*
X18221322Y19007710D01*
X18274045Y19038150D01*
X18334000Y19027578D01*
G37*
G04 #@! TD.AperFunction*
G04 #@! TA.AperFunction,Conductor*
G36*
X13352023Y19529167D02*
G01*
X13382463Y19476444D01*
X13375378Y19423165D01*
X13339100Y19345895D01*
X13338124Y19339630D01*
X13338124Y19339628D01*
X13332904Y19306101D01*
X13303529Y19252777D01*
X13246750Y19230811D01*
X13219467Y19234524D01*
X13167273Y19250134D01*
X13160934Y19250173D01*
X13160932Y19250173D01*
X13101448Y19250536D01*
X13038231Y19250922D01*
X13032138Y19249180D01*
X13032134Y19249180D01*
X12946373Y19224669D01*
X12914155Y19215461D01*
X12805019Y19146601D01*
X12752947Y19087641D01*
X12730114Y19061787D01*
X12719596Y19049878D01*
X12664754Y18933068D01*
X12663778Y18926803D01*
X12663778Y18926801D01*
X12652686Y18855559D01*
X12644901Y18805560D01*
X12661633Y18677606D01*
X12713605Y18559490D01*
X12796639Y18460709D01*
X12904060Y18389204D01*
X12910113Y18387313D01*
X12910115Y18387312D01*
X12937556Y18378739D01*
X13027233Y18350722D01*
X13054131Y18350229D01*
X13090213Y18349567D01*
X13151514Y18323515D01*
X13273433Y18201596D01*
X13299161Y18146420D01*
X13299500Y18138663D01*
X13299500Y17941703D01*
X13278678Y17884495D01*
X13225955Y17854055D01*
X13162093Y17867019D01*
X13096227Y17909710D01*
X13096228Y17909710D01*
X13090906Y17913159D01*
X13077388Y17917202D01*
X13029089Y17931647D01*
X12967273Y17950134D01*
X12960934Y17950173D01*
X12960932Y17950173D01*
X12901448Y17950536D01*
X12838231Y17950922D01*
X12832138Y17949180D01*
X12832134Y17949180D01*
X12737728Y17922198D01*
X12714155Y17915461D01*
X12605019Y17846601D01*
X12600821Y17841847D01*
X12600818Y17841845D01*
X12590873Y17830585D01*
X12537396Y17801489D01*
X12524165Y17800500D01*
X12317497Y17800500D01*
X12260289Y17821322D01*
X12254564Y17826567D01*
X11650044Y18431087D01*
X11624316Y18486263D01*
X11640072Y18545068D01*
X11685488Y18577018D01*
X11685169Y18577755D01*
X11688719Y18579291D01*
X11689563Y18579885D01*
X11690990Y18580274D01*
X11690992Y18580275D01*
X11697107Y18581942D01*
X11736943Y18606401D01*
X11801672Y18646145D01*
X11807076Y18649463D01*
X11811327Y18654159D01*
X11811329Y18654161D01*
X11889420Y18740435D01*
X11889421Y18740436D01*
X11893674Y18745135D01*
X11912203Y18783378D01*
X11947175Y18855559D01*
X11947176Y18855562D01*
X11949940Y18861267D01*
X11971349Y18988522D01*
X11971415Y18993943D01*
X11971616Y18994474D01*
X11971697Y18995379D01*
X11971949Y18995356D01*
X11992931Y19050893D01*
X11997475Y19055793D01*
X12465604Y19523922D01*
X12520780Y19549650D01*
X12528537Y19549989D01*
X13294815Y19549989D01*
X13352023Y19529167D01*
G37*
G04 #@! TD.AperFunction*
G04 #@! TA.AperFunction,Conductor*
G36*
X14661548Y26255441D02*
G01*
X14696467Y26205571D01*
X14699500Y26182536D01*
X14699500Y21540336D01*
X14678678Y21483128D01*
X14625955Y21452688D01*
X14566000Y21463260D01*
X14547573Y21477398D01*
X14403876Y21621095D01*
X14400827Y21624627D01*
X14398685Y21629009D01*
X14362299Y21662762D01*
X14359894Y21665077D01*
X14345983Y21678988D01*
X14342612Y21681301D01*
X14341637Y21682111D01*
X14337993Y21685310D01*
X14322636Y21699555D01*
X14316614Y21705141D01*
X14304886Y21709820D01*
X14287527Y21719089D01*
X14277114Y21726232D01*
X14267745Y21728455D01*
X14250487Y21732551D01*
X14238058Y21736482D01*
X14218473Y21744296D01*
X14218467Y21744297D01*
X14212638Y21746623D01*
X14206345Y21747240D01*
X14199005Y21747240D01*
X14178455Y21749645D01*
X14177887Y21749780D01*
X14168194Y21752080D01*
X14160052Y21750972D01*
X14160050Y21750972D01*
X14138604Y21748053D01*
X14126602Y21747240D01*
X13726083Y21747240D01*
X13668875Y21768062D01*
X13658664Y21778140D01*
X13648693Y21789712D01*
X13540406Y21859899D01*
X13486596Y21875992D01*
X13437753Y21912333D01*
X13423697Y21971568D01*
X13449165Y22024193D01*
X13474356Y22049384D01*
X13477891Y22052435D01*
X13482269Y22054575D01*
X13516009Y22090947D01*
X13518324Y22093352D01*
X13532248Y22107276D01*
X13534569Y22110659D01*
X13535366Y22111619D01*
X13538575Y22115273D01*
X13552810Y22130618D01*
X13552812Y22130621D01*
X13558401Y22136646D01*
X13563078Y22148370D01*
X13572352Y22165738D01*
X13574844Y22169370D01*
X13574845Y22169372D01*
X13579492Y22176146D01*
X13581389Y22184140D01*
X13581390Y22184142D01*
X13585811Y22202773D01*
X13589742Y22215202D01*
X13597556Y22234787D01*
X13597557Y22234793D01*
X13599883Y22240622D01*
X13600500Y22246915D01*
X13600500Y22254255D01*
X13602905Y22274805D01*
X13603442Y22277069D01*
X13605340Y22285066D01*
X13603262Y22300340D01*
X13601313Y22314656D01*
X13600500Y22326658D01*
X13600500Y25261536D01*
X13621322Y25318744D01*
X13626567Y25324469D01*
X14547567Y26245469D01*
X14602743Y26271197D01*
X14661548Y26255441D01*
G37*
G04 #@! TD.AperFunction*
G04 #@! TA.AperFunction,Conductor*
G36*
X4295871Y23978678D02*
G01*
X4301596Y23973433D01*
X6062596Y22212433D01*
X6088324Y22157257D01*
X6072568Y22098452D01*
X6022698Y22063533D01*
X5999663Y22060500D01*
X2667607Y22060500D01*
X2610399Y22081322D01*
X2584081Y22118769D01*
X2579722Y22130618D01*
X2553881Y22200852D01*
X2446774Y22373599D01*
X2307119Y22521280D01*
X2140621Y22637863D01*
X1954081Y22718586D01*
X1949669Y22719508D01*
X1949665Y22719509D01*
X1820449Y22746503D01*
X1755120Y22760151D01*
X1748461Y22760500D01*
X269500Y22760500D01*
X212292Y22781322D01*
X181852Y22834045D01*
X180500Y22849500D01*
X180500Y23210500D01*
X201322Y23267708D01*
X254045Y23298148D01*
X269500Y23299500D01*
X1700800Y23299500D01*
X1790136Y23308574D01*
X1847729Y23314424D01*
X1847731Y23314424D01*
X1852216Y23314880D01*
X2028925Y23370257D01*
X2041868Y23374313D01*
X2041870Y23374314D01*
X2046172Y23375662D01*
X2198529Y23460115D01*
X2219997Y23472015D01*
X2219998Y23472016D01*
X2223944Y23474203D01*
X2378271Y23606477D01*
X2502848Y23767081D01*
X2508555Y23778678D01*
X2592587Y23949455D01*
X2594927Y23948304D01*
X2628594Y23987877D01*
X2672569Y23999500D01*
X4238663Y23999500D01*
X4295871Y23978678D01*
G37*
G04 #@! TD.AperFunction*
G04 #@! TA.AperFunction,Conductor*
G36*
X2615529Y26349491D02*
G01*
X2645126Y26329903D01*
X4222596Y24752433D01*
X4248324Y24697257D01*
X4232568Y24638452D01*
X4182698Y24603533D01*
X4159663Y24600500D01*
X2667607Y24600500D01*
X2610399Y24621322D01*
X2584081Y24658769D01*
X2569921Y24697257D01*
X2553881Y24740852D01*
X2446774Y24913599D01*
X2307119Y25061280D01*
X2148616Y25172265D01*
X2144310Y25175280D01*
X2140621Y25177863D01*
X1954081Y25258586D01*
X1949669Y25259508D01*
X1949665Y25259509D01*
X1833527Y25283771D01*
X1755120Y25300151D01*
X1748461Y25300500D01*
X269500Y25300500D01*
X212292Y25321322D01*
X181852Y25374045D01*
X180500Y25389500D01*
X180500Y25750500D01*
X201322Y25807708D01*
X254045Y25838148D01*
X269500Y25839500D01*
X1700800Y25839500D01*
X1790136Y25848574D01*
X1847729Y25854424D01*
X1847731Y25854424D01*
X1852216Y25854880D01*
X2032036Y25911232D01*
X2041868Y25914313D01*
X2041870Y25914314D01*
X2046172Y25915662D01*
X2223944Y26014203D01*
X2378271Y26146477D01*
X2381935Y26151200D01*
X2500086Y26303520D01*
X2500087Y26303521D01*
X2502848Y26307081D01*
X2504839Y26311128D01*
X2506715Y26314130D01*
X2554687Y26351613D01*
X2615529Y26349491D01*
G37*
G04 #@! TD.AperFunction*
G04 #@! TA.AperFunction,Conductor*
G36*
X19011018Y30976517D02*
G01*
X19045919Y30961414D01*
X19050331Y30960492D01*
X19050335Y30960491D01*
X19156761Y30938258D01*
X19244880Y30919849D01*
X19251539Y30919500D01*
X20730500Y30919500D01*
X20787708Y30898678D01*
X20818148Y30845955D01*
X20819500Y30830500D01*
X20819500Y30469500D01*
X20798678Y30412292D01*
X20745955Y30381852D01*
X20730500Y30380500D01*
X19299200Y30380500D01*
X19209864Y30371426D01*
X19152271Y30365576D01*
X19152269Y30365576D01*
X19147784Y30365120D01*
X19102545Y30350943D01*
X18958132Y30305687D01*
X18958130Y30305686D01*
X18953828Y30304338D01*
X18903822Y30276619D01*
X18803283Y30220889D01*
X18776056Y30205797D01*
X18621729Y30073523D01*
X18618970Y30069966D01*
X18618969Y30069965D01*
X18579915Y30019617D01*
X18497152Y29912919D01*
X18407413Y29730545D01*
X18405645Y29731415D01*
X18370768Y29690431D01*
X18330143Y29678877D01*
X18312792Y29678226D01*
X18305245Y29674984D01*
X18305242Y29674983D01*
X18301190Y29673242D01*
X18282355Y29667520D01*
X18278026Y29666714D01*
X18278024Y29666713D01*
X18269947Y29665209D01*
X18262954Y29660898D01*
X18262953Y29660898D01*
X18246649Y29650848D01*
X18235081Y29644839D01*
X18209937Y29634036D01*
X18205051Y29630022D01*
X18199862Y29624833D01*
X18183632Y29612004D01*
X18181647Y29610780D01*
X18174652Y29606468D01*
X18169678Y29599927D01*
X18156580Y29582702D01*
X18148669Y29573640D01*
X17825648Y29250619D01*
X17822111Y29247566D01*
X17817731Y29245425D01*
X17812142Y29239400D01*
X17783979Y29209040D01*
X17781663Y29206634D01*
X17767752Y29192723D01*
X17765439Y29189352D01*
X17764629Y29188377D01*
X17761430Y29184733D01*
X17759459Y29182608D01*
X17741599Y29163354D01*
X17736922Y29151630D01*
X17727651Y29134267D01*
X17720508Y29123854D01*
X17718611Y29115860D01*
X17714189Y29097227D01*
X17710258Y29084798D01*
X17702444Y29065213D01*
X17702443Y29065207D01*
X17700117Y29059378D01*
X17699500Y29053085D01*
X17699500Y29045745D01*
X17697095Y29025195D01*
X17694660Y29014934D01*
X17695768Y29006792D01*
X17695768Y29006790D01*
X17698687Y28985344D01*
X17699500Y28973342D01*
X17699500Y27661337D01*
X17678678Y27604129D01*
X17673433Y27598405D01*
X17091971Y27016942D01*
X16652433Y26577404D01*
X16597257Y26551675D01*
X16538452Y26567431D01*
X16503533Y26617301D01*
X16500500Y26640336D01*
X16500500Y29073670D01*
X16521322Y29130878D01*
X16526567Y29136603D01*
X17584849Y30194885D01*
X17640025Y30220613D01*
X17647782Y30220952D01*
X17997521Y30220952D01*
X18002185Y30220609D01*
X18006794Y30219027D01*
X18015003Y30219335D01*
X18015004Y30219335D01*
X18056400Y30220889D01*
X18059738Y30220952D01*
X18079400Y30220952D01*
X18083425Y30221701D01*
X18084700Y30221819D01*
X18089529Y30222132D01*
X18118660Y30223226D01*
X18126207Y30226468D01*
X18126210Y30226469D01*
X18130262Y30228210D01*
X18149097Y30233932D01*
X18153426Y30234738D01*
X18153428Y30234739D01*
X18161505Y30236243D01*
X18184804Y30250604D01*
X18196371Y30256613D01*
X18215738Y30264934D01*
X18221515Y30267416D01*
X18226401Y30271430D01*
X18231590Y30276619D01*
X18247820Y30289448D01*
X18249805Y30290672D01*
X18249806Y30290672D01*
X18256800Y30294984D01*
X18274872Y30318750D01*
X18282783Y30327812D01*
X18912740Y30957769D01*
X18967916Y30983497D01*
X19011018Y30976517D01*
G37*
G04 #@! TD.AperFunction*
G04 #@! TA.AperFunction,Conductor*
G36*
X18449315Y28920335D02*
G01*
X18473907Y28894330D01*
X18553226Y28766401D01*
X18692881Y28618720D01*
X18782048Y28556285D01*
X18844421Y28512611D01*
X18859379Y28502137D01*
X19045919Y28421414D01*
X19050331Y28420492D01*
X19050335Y28420491D01*
X19163038Y28396947D01*
X19244880Y28379849D01*
X19251539Y28379500D01*
X20730500Y28379500D01*
X20787708Y28358678D01*
X20818148Y28305955D01*
X20819500Y28290500D01*
X20819500Y27929500D01*
X20798678Y27872292D01*
X20745955Y27841852D01*
X20730500Y27840500D01*
X19299200Y27840500D01*
X19209864Y27831426D01*
X19152271Y27825576D01*
X19152269Y27825576D01*
X19147784Y27825120D01*
X19073973Y27801989D01*
X18958132Y27765687D01*
X18958130Y27765686D01*
X18953828Y27764338D01*
X18873213Y27719652D01*
X18802455Y27680430D01*
X18776056Y27665797D01*
X18621729Y27533523D01*
X18618970Y27529966D01*
X18618969Y27529965D01*
X18560243Y27454256D01*
X18497152Y27372919D01*
X18495163Y27368878D01*
X18495163Y27368877D01*
X18445374Y27267693D01*
X18407413Y27190545D01*
X18405073Y27191696D01*
X18371406Y27152123D01*
X18327431Y27140500D01*
X18312052Y27140500D01*
X18308027Y27139751D01*
X18306752Y27139633D01*
X18301918Y27139320D01*
X18294403Y27139037D01*
X18281890Y27138568D01*
X18223942Y27157230D01*
X18191547Y27208775D01*
X18199864Y27269084D01*
X18213304Y27288031D01*
X18216020Y27290959D01*
X18218337Y27293366D01*
X18232248Y27307277D01*
X18234561Y27310648D01*
X18235371Y27311623D01*
X18238570Y27315267D01*
X18252814Y27330623D01*
X18258401Y27336646D01*
X18263079Y27348371D01*
X18272350Y27365733D01*
X18279493Y27376146D01*
X18281389Y27384137D01*
X18281391Y27384141D01*
X18285813Y27402778D01*
X18289741Y27415200D01*
X18299883Y27440622D01*
X18300500Y27446915D01*
X18300500Y27454256D01*
X18302905Y27474806D01*
X18305340Y27485066D01*
X18301313Y27514656D01*
X18300500Y27526658D01*
X18300500Y28838663D01*
X18321322Y28895871D01*
X18326567Y28901596D01*
X18335334Y28910363D01*
X18390510Y28936091D01*
X18449315Y28920335D01*
G37*
G04 #@! TD.AperFunction*
G04 #@! TA.AperFunction,Conductor*
G36*
X3855871Y39218678D02*
G01*
X3861596Y39213433D01*
X4073433Y39001596D01*
X4099161Y38946420D01*
X4099500Y38938663D01*
X4099500Y28640337D01*
X4078678Y28583129D01*
X4025955Y28552689D01*
X3966000Y28563261D01*
X3947567Y28577404D01*
X2970619Y29554352D01*
X2967566Y29557889D01*
X2965425Y29562269D01*
X2929039Y29596022D01*
X2926634Y29598337D01*
X2912723Y29612248D01*
X2909352Y29614561D01*
X2908377Y29615371D01*
X2904733Y29618570D01*
X2889376Y29632815D01*
X2883354Y29638401D01*
X2871626Y29643080D01*
X2854267Y29652349D01*
X2843854Y29659492D01*
X2834485Y29661715D01*
X2817227Y29665811D01*
X2804798Y29669742D01*
X2785213Y29677556D01*
X2785207Y29677557D01*
X2779378Y29679883D01*
X2773085Y29680500D01*
X2765745Y29680500D01*
X2745195Y29682905D01*
X2744627Y29683040D01*
X2734934Y29685340D01*
X2726792Y29684232D01*
X2726790Y29684232D01*
X2705344Y29681313D01*
X2693342Y29680500D01*
X2667607Y29680500D01*
X2610399Y29701322D01*
X2584081Y29738769D01*
X2555437Y29816622D01*
X2553881Y29820852D01*
X2446774Y29993599D01*
X2307119Y30141280D01*
X2140621Y30257863D01*
X1954081Y30338586D01*
X1949669Y30339508D01*
X1949665Y30339509D01*
X1833527Y30363771D01*
X1755120Y30380151D01*
X1748461Y30380500D01*
X269500Y30380500D01*
X212292Y30401322D01*
X181852Y30454045D01*
X180500Y30469500D01*
X180500Y30830500D01*
X201322Y30887708D01*
X254045Y30918148D01*
X269500Y30919500D01*
X1700800Y30919500D01*
X1790136Y30928574D01*
X1847729Y30934424D01*
X1847731Y30934424D01*
X1852216Y30934880D01*
X1985080Y30976517D01*
X2041868Y30994313D01*
X2041870Y30994314D01*
X2046172Y30995662D01*
X2223944Y31094203D01*
X2378271Y31226477D01*
X2424481Y31286050D01*
X2444474Y31311825D01*
X2502848Y31387081D01*
X2521442Y31424868D01*
X2577817Y31539439D01*
X2592587Y31569455D01*
X2596764Y31585488D01*
X2642686Y31761787D01*
X2643822Y31766148D01*
X2645596Y31800000D01*
X2654223Y31964619D01*
X2654223Y31964621D01*
X2654459Y31969126D01*
X2624065Y32170097D01*
X2607375Y32215461D01*
X2582681Y32282576D01*
X2553881Y32360852D01*
X2446774Y32533599D01*
X2307119Y32681280D01*
X2140621Y32797863D01*
X1954081Y32878586D01*
X1949669Y32879508D01*
X1949665Y32879509D01*
X1833527Y32903771D01*
X1755120Y32920151D01*
X1748461Y32920500D01*
X269500Y32920500D01*
X212292Y32941322D01*
X181852Y32994045D01*
X180500Y33009500D01*
X180500Y33370500D01*
X201322Y33427708D01*
X254045Y33458148D01*
X269500Y33459500D01*
X1700800Y33459500D01*
X1790136Y33468574D01*
X1847729Y33474424D01*
X1847731Y33474424D01*
X1852216Y33474880D01*
X1981669Y33515448D01*
X2041868Y33534313D01*
X2041870Y33534314D01*
X2046172Y33535662D01*
X2223944Y33634203D01*
X2378271Y33766477D01*
X2502848Y33927081D01*
X2592587Y34109455D01*
X2643822Y34306148D01*
X2649310Y34410874D01*
X2654223Y34504619D01*
X2654223Y34504621D01*
X2654459Y34509126D01*
X2624065Y34710097D01*
X2614966Y34734829D01*
X2579060Y34832418D01*
X2553881Y34900852D01*
X2446774Y35073599D01*
X2399959Y35123105D01*
X2310216Y35218005D01*
X2307119Y35221280D01*
X2140621Y35337863D01*
X1954081Y35418586D01*
X1949669Y35419508D01*
X1949665Y35419509D01*
X1833527Y35443771D01*
X1755120Y35460151D01*
X1748461Y35460500D01*
X269500Y35460500D01*
X212292Y35481322D01*
X181852Y35534045D01*
X180500Y35549500D01*
X180500Y35910500D01*
X201322Y35967708D01*
X254045Y35998148D01*
X269500Y35999500D01*
X1700800Y35999500D01*
X1790136Y36008574D01*
X1847729Y36014424D01*
X1847731Y36014424D01*
X1852216Y36014880D01*
X1964712Y36050134D01*
X2041868Y36074313D01*
X2041870Y36074314D01*
X2046172Y36075662D01*
X2188648Y36154638D01*
X2219997Y36172015D01*
X2219998Y36172016D01*
X2223944Y36174203D01*
X2378271Y36306477D01*
X2416846Y36356207D01*
X2450381Y36399441D01*
X2502848Y36467081D01*
X2592587Y36649455D01*
X2616654Y36741847D01*
X2642686Y36841787D01*
X2643822Y36846148D01*
X2646731Y36901650D01*
X2654223Y37044619D01*
X2654223Y37044621D01*
X2654459Y37049126D01*
X2624065Y37250097D01*
X2621316Y37257570D01*
X2580839Y37367582D01*
X2553881Y37440852D01*
X2446774Y37613599D01*
X2307119Y37761280D01*
X2140621Y37877863D01*
X1954081Y37958586D01*
X1949669Y37959508D01*
X1949665Y37959509D01*
X1833527Y37983771D01*
X1755120Y38000151D01*
X1748461Y38000500D01*
X269500Y38000500D01*
X212292Y38021322D01*
X181852Y38074045D01*
X180500Y38089500D01*
X180500Y38450500D01*
X201322Y38507708D01*
X254045Y38538148D01*
X269500Y38539500D01*
X1700800Y38539500D01*
X1790136Y38548574D01*
X1847729Y38554424D01*
X1847731Y38554424D01*
X1852216Y38554880D01*
X1981669Y38595448D01*
X2041868Y38614313D01*
X2041870Y38614314D01*
X2046172Y38615662D01*
X2223944Y38714203D01*
X2378271Y38846477D01*
X2389311Y38860709D01*
X2500088Y39003523D01*
X2502848Y39007081D01*
X2516452Y39034727D01*
X2592587Y39189455D01*
X2594927Y39188304D01*
X2628594Y39227877D01*
X2672569Y39239500D01*
X3798663Y39239500D01*
X3855871Y39218678D01*
G37*
G04 #@! TD.AperFunction*
G04 #@! TA.AperFunction,Conductor*
G36*
X2649440Y44118450D02*
G01*
X4473433Y42294457D01*
X4499161Y42239281D01*
X4499500Y42231524D01*
X4499500Y39640337D01*
X4478678Y39583129D01*
X4425955Y39552689D01*
X4366000Y39563261D01*
X4347567Y39577404D01*
X4210619Y39714352D01*
X4207566Y39717889D01*
X4205425Y39722269D01*
X4169039Y39756022D01*
X4166634Y39758337D01*
X4152723Y39772248D01*
X4149352Y39774561D01*
X4148377Y39775371D01*
X4144733Y39778570D01*
X4129376Y39792815D01*
X4123354Y39798401D01*
X4111626Y39803080D01*
X4094267Y39812349D01*
X4083854Y39819492D01*
X4074485Y39821715D01*
X4057227Y39825811D01*
X4044798Y39829742D01*
X4025213Y39837556D01*
X4025207Y39837557D01*
X4019378Y39839883D01*
X4013085Y39840500D01*
X4005745Y39840500D01*
X3985195Y39842905D01*
X3984627Y39843040D01*
X3974934Y39845340D01*
X3966792Y39844232D01*
X3966790Y39844232D01*
X3945344Y39841313D01*
X3933342Y39840500D01*
X2667607Y39840500D01*
X2610399Y39861322D01*
X2584081Y39898769D01*
X2557257Y39971677D01*
X2553881Y39980852D01*
X2446774Y40153599D01*
X2307119Y40301280D01*
X2140621Y40417863D01*
X1954081Y40498586D01*
X1949669Y40499508D01*
X1949665Y40499509D01*
X1833527Y40523771D01*
X1755120Y40540151D01*
X1748461Y40540500D01*
X269500Y40540500D01*
X212292Y40561322D01*
X181852Y40614045D01*
X180500Y40629500D01*
X180500Y40990500D01*
X201322Y41047708D01*
X254045Y41078148D01*
X269500Y41079500D01*
X1700800Y41079500D01*
X1790136Y41088574D01*
X1847729Y41094424D01*
X1847731Y41094424D01*
X1852216Y41094880D01*
X1981669Y41135448D01*
X2041868Y41154313D01*
X2041870Y41154314D01*
X2046172Y41155662D01*
X2223944Y41254203D01*
X2378271Y41386477D01*
X2417662Y41437259D01*
X2500088Y41543523D01*
X2502848Y41547081D01*
X2592587Y41729455D01*
X2604493Y41775160D01*
X2642686Y41921787D01*
X2643822Y41926148D01*
X2644058Y41930648D01*
X2654223Y42124619D01*
X2654223Y42124621D01*
X2654459Y42129126D01*
X2624065Y42330097D01*
X2553881Y42520852D01*
X2446774Y42693599D01*
X2307119Y42841280D01*
X2140621Y42957863D01*
X1954081Y43038586D01*
X1949669Y43039508D01*
X1949665Y43039509D01*
X1833527Y43063771D01*
X1755120Y43080151D01*
X1748461Y43080500D01*
X269500Y43080500D01*
X212292Y43101322D01*
X181852Y43154045D01*
X180500Y43169500D01*
X180500Y43530500D01*
X201322Y43587708D01*
X254045Y43618148D01*
X269500Y43619500D01*
X1700800Y43619500D01*
X1790136Y43628574D01*
X1847729Y43634424D01*
X1847731Y43634424D01*
X1852216Y43634880D01*
X1981669Y43675448D01*
X2041868Y43694313D01*
X2041870Y43694314D01*
X2046172Y43695662D01*
X2174037Y43766539D01*
X2219997Y43792015D01*
X2219998Y43792016D01*
X2223944Y43794203D01*
X2378271Y43926477D01*
X2502848Y44087081D01*
X2506650Y44094808D01*
X2550586Y44136946D01*
X2611332Y44140985D01*
X2649440Y44118450D01*
G37*
G04 #@! TD.AperFunction*
G04 #@! TA.AperFunction,Conductor*
G36*
X6022271Y50798678D02*
G01*
X6052711Y50745955D01*
X6042139Y50686000D01*
X5995503Y50646867D01*
X5985084Y50643781D01*
X5927436Y50630472D01*
X5918111Y50627188D01*
X5765480Y50553403D01*
X5757114Y50548134D01*
X5624632Y50442376D01*
X5617624Y50435368D01*
X5511866Y50302886D01*
X5506597Y50294520D01*
X5432812Y50141889D01*
X5429528Y50132564D01*
X5391122Y49966210D01*
X5390067Y49958844D01*
X5390000Y49956508D01*
X5390000Y49735694D01*
X5394376Y49723671D01*
X5400734Y49720000D01*
X6054306Y49720000D01*
X6066329Y49724376D01*
X6077082Y49743001D01*
X6123719Y49782133D01*
X6154158Y49787500D01*
X7894306Y49787500D01*
X7906329Y49791876D01*
X7910000Y49798234D01*
X7910000Y50032328D01*
X7909755Y50036992D01*
X7895670Y50171006D01*
X7893739Y50180091D01*
X7838160Y50351143D01*
X7834386Y50359620D01*
X7744459Y50515379D01*
X7739006Y50522886D01*
X7618657Y50656546D01*
X7609980Y50664358D01*
X7581397Y50718111D01*
X7594053Y50777661D01*
X7642026Y50815143D01*
X7669531Y50819500D01*
X13350469Y50819500D01*
X13407677Y50798678D01*
X13438117Y50745955D01*
X13427545Y50686000D01*
X13410020Y50664358D01*
X13401343Y50656546D01*
X13280994Y50522886D01*
X13275541Y50515379D01*
X13185614Y50359620D01*
X13181840Y50351143D01*
X13126261Y50180091D01*
X13124330Y50171006D01*
X13110245Y50036992D01*
X13110000Y50032328D01*
X13110000Y49803194D01*
X13114376Y49791171D01*
X13120734Y49787500D01*
X14868825Y49787500D01*
X14926033Y49766678D01*
X14952457Y49728941D01*
X14954375Y49723671D01*
X14960734Y49720000D01*
X15614305Y49720000D01*
X15626328Y49724376D01*
X15629999Y49730734D01*
X15629999Y49956509D01*
X15629932Y49958847D01*
X15628879Y49966204D01*
X15590472Y50132564D01*
X15587188Y50141889D01*
X15513403Y50294520D01*
X15508134Y50302886D01*
X15402376Y50435368D01*
X15395368Y50442376D01*
X15262886Y50548134D01*
X15254520Y50553403D01*
X15101889Y50627188D01*
X15092564Y50630472D01*
X15034916Y50643781D01*
X14983858Y50676939D01*
X14966059Y50735158D01*
X14989847Y50791198D01*
X15044091Y50818837D01*
X15054937Y50819500D01*
X18994974Y50819500D01*
X19052182Y50798678D01*
X19082622Y50745955D01*
X19072050Y50686000D01*
X19021589Y50645573D01*
X18958132Y50625687D01*
X18958130Y50625686D01*
X18953828Y50624338D01*
X18776056Y50525797D01*
X18621729Y50393523D01*
X18497152Y50232919D01*
X18407413Y50050545D01*
X18406278Y50046188D01*
X18406277Y50046185D01*
X18382918Y49956509D01*
X18356178Y49853852D01*
X18355942Y49849354D01*
X18355942Y49849352D01*
X18349164Y49720000D01*
X18345541Y49650874D01*
X18375935Y49449903D01*
X18377490Y49445676D01*
X18377491Y49445673D01*
X18400819Y49382269D01*
X18446119Y49259148D01*
X18553226Y49086401D01*
X18692881Y48938720D01*
X18859379Y48822137D01*
X19045919Y48741414D01*
X19050331Y48740492D01*
X19050335Y48740491D01*
X19163038Y48716947D01*
X19244880Y48699849D01*
X19251539Y48699500D01*
X20730500Y48699500D01*
X20787708Y48678678D01*
X20818148Y48625955D01*
X20819500Y48610500D01*
X20819500Y48249500D01*
X20798678Y48192292D01*
X20745955Y48161852D01*
X20730500Y48160500D01*
X19299200Y48160500D01*
X19209864Y48151426D01*
X19152271Y48145576D01*
X19152269Y48145576D01*
X19147784Y48145120D01*
X19066059Y48119509D01*
X18958132Y48085687D01*
X18958130Y48085686D01*
X18953828Y48084338D01*
X18776056Y47985797D01*
X18621729Y47853523D01*
X18618970Y47849966D01*
X18618969Y47849965D01*
X18577576Y47796601D01*
X18497152Y47692919D01*
X18495163Y47688878D01*
X18495163Y47688877D01*
X18489530Y47677430D01*
X18407413Y47510545D01*
X18406278Y47506188D01*
X18406277Y47506185D01*
X18375467Y47387905D01*
X18356178Y47313852D01*
X18355942Y47309354D01*
X18355942Y47309352D01*
X18347895Y47155785D01*
X18345541Y47110874D01*
X18375935Y46909903D01*
X18377490Y46905676D01*
X18377491Y46905673D01*
X18411027Y46814526D01*
X18446119Y46719148D01*
X18553226Y46546401D01*
X18692881Y46398720D01*
X18859379Y46282137D01*
X19045919Y46201414D01*
X19050331Y46200492D01*
X19050335Y46200491D01*
X19163038Y46176947D01*
X19244880Y46159849D01*
X19251539Y46159500D01*
X20730500Y46159500D01*
X20787708Y46138678D01*
X20818148Y46085955D01*
X20819500Y46070500D01*
X20819500Y45809000D01*
X20798678Y45751792D01*
X20745955Y45721352D01*
X20730500Y45720000D01*
X19565694Y45720000D01*
X19553671Y45715624D01*
X19550000Y45709266D01*
X19550000Y44785694D01*
X19554376Y44773671D01*
X19560734Y44770000D01*
X20730500Y44770000D01*
X20787708Y44749178D01*
X20818148Y44696455D01*
X20819500Y44681000D01*
X20819500Y44559000D01*
X20798678Y44501792D01*
X20745955Y44471352D01*
X20730500Y44470000D01*
X19565694Y44470000D01*
X19553671Y44465624D01*
X19550000Y44459266D01*
X19550000Y43535694D01*
X19554376Y43523671D01*
X19560734Y43520000D01*
X20730500Y43520000D01*
X20787708Y43499178D01*
X20818148Y43446455D01*
X20819500Y43431000D01*
X20819500Y43169500D01*
X20798678Y43112292D01*
X20745955Y43081852D01*
X20730500Y43080500D01*
X19299200Y43080500D01*
X19209864Y43071426D01*
X19152271Y43065576D01*
X19152269Y43065576D01*
X19147784Y43065120D01*
X19066059Y43039509D01*
X18958132Y43005687D01*
X18958130Y43005686D01*
X18953828Y43004338D01*
X18776056Y42905797D01*
X18621729Y42773523D01*
X18618970Y42769966D01*
X18618969Y42769965D01*
X18583350Y42724045D01*
X18497152Y42612919D01*
X18407413Y42430545D01*
X18406278Y42426188D01*
X18406277Y42426185D01*
X18369679Y42285684D01*
X18356178Y42233852D01*
X18355942Y42229354D01*
X18355942Y42229352D01*
X18347412Y42066570D01*
X18345541Y42030874D01*
X18375935Y41829903D01*
X18446119Y41639148D01*
X18553226Y41466401D01*
X18692881Y41318720D01*
X18859379Y41202137D01*
X19045919Y41121414D01*
X19050331Y41120492D01*
X19050335Y41120491D01*
X19163038Y41096947D01*
X19244880Y41079849D01*
X19251539Y41079500D01*
X20730500Y41079500D01*
X20787708Y41058678D01*
X20818148Y41005955D01*
X20819500Y40990500D01*
X20819500Y40629500D01*
X20798678Y40572292D01*
X20745955Y40541852D01*
X20730500Y40540500D01*
X19299200Y40540500D01*
X19147784Y40525120D01*
X19064281Y40498952D01*
X19003467Y40501713D01*
X18974736Y40520946D01*
X16969153Y42526529D01*
X16943425Y42581705D01*
X16956187Y42634259D01*
X16958401Y42636646D01*
X16963080Y42648374D01*
X16972349Y42665733D01*
X16979492Y42676146D01*
X16984411Y42696874D01*
X16985811Y42702773D01*
X16989742Y42715202D01*
X16997556Y42734787D01*
X16997557Y42734793D01*
X16999883Y42740622D01*
X17000500Y42746915D01*
X17000500Y42754255D01*
X17002905Y42774805D01*
X17003442Y42777069D01*
X17005340Y42785066D01*
X17001313Y42814656D01*
X17000500Y42826658D01*
X17000500Y44461192D01*
X18256868Y44461192D01*
X18257010Y44460196D01*
X18304207Y44264359D01*
X18306949Y44256395D01*
X18390323Y44073025D01*
X18394528Y44065713D01*
X18511066Y43901424D01*
X18516577Y43895038D01*
X18662085Y43755745D01*
X18668696Y43750524D01*
X18837914Y43641261D01*
X18845413Y43637374D01*
X19032234Y43562083D01*
X19040316Y43559689D01*
X19237535Y43521175D01*
X19246329Y43524376D01*
X19250000Y43530734D01*
X19250000Y44454306D01*
X19245624Y44466329D01*
X19239266Y44470000D01*
X18271450Y44470000D01*
X18259427Y44465624D01*
X18256868Y44461192D01*
X17000500Y44461192D01*
X17000500Y44785531D01*
X18262489Y44785531D01*
X18265094Y44773006D01*
X18268907Y44770000D01*
X19234306Y44770000D01*
X19246329Y44774376D01*
X19250000Y44780734D01*
X19250000Y45699769D01*
X19245624Y45711792D01*
X19240788Y45714584D01*
X19145261Y45705470D01*
X19136989Y45703877D01*
X18943699Y45647173D01*
X18935875Y45644043D01*
X18756794Y45551811D01*
X18749701Y45547256D01*
X18591305Y45422834D01*
X18585189Y45417010D01*
X18453175Y45264878D01*
X18448277Y45258010D01*
X18347415Y45083665D01*
X18343899Y45075987D01*
X18277824Y44885710D01*
X18275826Y44877513D01*
X18262489Y44785531D01*
X17000500Y44785531D01*
X17000500Y47246069D01*
X17000843Y47250733D01*
X17002425Y47255342D01*
X17000563Y47304948D01*
X17000500Y47308286D01*
X17000500Y47327948D01*
X16999751Y47331973D01*
X16999633Y47333248D01*
X16999319Y47338089D01*
X16999282Y47339096D01*
X16998226Y47367208D01*
X16994984Y47374755D01*
X16994983Y47374758D01*
X16993242Y47378810D01*
X16987520Y47397645D01*
X16986714Y47401974D01*
X16986713Y47401976D01*
X16985209Y47410053D01*
X16970848Y47433352D01*
X16964839Y47444919D01*
X16956518Y47464286D01*
X16954036Y47470063D01*
X16950022Y47474949D01*
X16944833Y47480138D01*
X16932004Y47496368D01*
X16930780Y47498353D01*
X16930780Y47498354D01*
X16926468Y47505348D01*
X16919241Y47510844D01*
X16902702Y47523420D01*
X16893640Y47531331D01*
X16150619Y48274352D01*
X16147566Y48277889D01*
X16145425Y48282269D01*
X16109039Y48316022D01*
X16106634Y48318337D01*
X16092723Y48332248D01*
X16089352Y48334561D01*
X16088377Y48335371D01*
X16084733Y48338570D01*
X16069376Y48352815D01*
X16063354Y48358401D01*
X16051626Y48363080D01*
X16034267Y48372349D01*
X16023854Y48379492D01*
X16014485Y48381715D01*
X15997227Y48385811D01*
X15984798Y48389742D01*
X15965213Y48397556D01*
X15965207Y48397557D01*
X15959378Y48399883D01*
X15953085Y48400500D01*
X15945745Y48400500D01*
X15925195Y48402905D01*
X15924627Y48403040D01*
X15914934Y48405340D01*
X15906792Y48404232D01*
X15906790Y48404232D01*
X15885344Y48401313D01*
X15873342Y48400500D01*
X15258154Y48400500D01*
X15200946Y48421322D01*
X15170506Y48474045D01*
X15181078Y48534000D01*
X15219418Y48569628D01*
X15254520Y48586597D01*
X15262886Y48591866D01*
X15395368Y48697624D01*
X15402376Y48704632D01*
X15508134Y48837114D01*
X15513403Y48845480D01*
X15587188Y48998111D01*
X15590472Y49007436D01*
X15628878Y49173790D01*
X15629933Y49181156D01*
X15630000Y49183492D01*
X15630000Y49404306D01*
X15625624Y49416329D01*
X15619266Y49420000D01*
X14071175Y49420000D01*
X14013967Y49440822D01*
X14012212Y49443329D01*
X16045739Y49443329D01*
X16074614Y49252401D01*
X16076169Y49248174D01*
X16076170Y49248171D01*
X16132559Y49094909D01*
X16141290Y49071179D01*
X16243045Y48907066D01*
X16375721Y48766765D01*
X16533898Y48656009D01*
X16711115Y48579320D01*
X16715527Y48578398D01*
X16715531Y48578397D01*
X16822414Y48556068D01*
X16900133Y48539832D01*
X16906468Y48539500D01*
X17048259Y48539500D01*
X17192110Y48554112D01*
X17376373Y48611856D01*
X17534487Y48699500D01*
X17541314Y48703284D01*
X17541315Y48703285D01*
X17545261Y48705472D01*
X17610533Y48761417D01*
X17688455Y48828204D01*
X17688459Y48828208D01*
X17691875Y48831136D01*
X17728753Y48878678D01*
X17807467Y48980156D01*
X17810227Y48983714D01*
X17812213Y48987751D01*
X17812216Y48987755D01*
X17893492Y49152932D01*
X17895481Y49156974D01*
X17899862Y49173790D01*
X17943019Y49339476D01*
X17944155Y49343837D01*
X17944391Y49348337D01*
X17954025Y49532164D01*
X17954025Y49532166D01*
X17954261Y49536671D01*
X17925386Y49727599D01*
X17919720Y49743001D01*
X17860267Y49904590D01*
X17860266Y49904593D01*
X17858710Y49908821D01*
X17756955Y50072934D01*
X17624279Y50213235D01*
X17466102Y50323991D01*
X17288885Y50400680D01*
X17284473Y50401602D01*
X17284469Y50401603D01*
X17168221Y50425888D01*
X17099867Y50440168D01*
X17093532Y50440500D01*
X16951741Y50440500D01*
X16807890Y50425888D01*
X16623627Y50368144D01*
X16547200Y50325780D01*
X16490806Y50294520D01*
X16454739Y50274528D01*
X16406193Y50232919D01*
X16311545Y50151796D01*
X16311541Y50151792D01*
X16308125Y50148864D01*
X16305366Y50145307D01*
X16305365Y50145306D01*
X16302715Y50141889D01*
X16189773Y49996286D01*
X16187787Y49992249D01*
X16187784Y49992245D01*
X16167045Y49950097D01*
X16104519Y49823026D01*
X16103384Y49818669D01*
X16103383Y49818666D01*
X16083674Y49743001D01*
X16055845Y49636163D01*
X16055609Y49631665D01*
X16055609Y49631663D01*
X16046084Y49449903D01*
X16045739Y49443329D01*
X14012212Y49443329D01*
X13987543Y49478559D01*
X13985625Y49483829D01*
X13979266Y49487500D01*
X13125694Y49487500D01*
X13113671Y49483124D01*
X13110000Y49476766D01*
X13110000Y49242672D01*
X13110245Y49238008D01*
X13124330Y49103994D01*
X13126261Y49094909D01*
X13181840Y48923857D01*
X13185614Y48915380D01*
X13224656Y48847757D01*
X13235228Y48787802D01*
X13204788Y48735079D01*
X13147580Y48714257D01*
X13090372Y48735079D01*
X13084647Y48740324D01*
X12450619Y49374352D01*
X12447566Y49377889D01*
X12445425Y49382269D01*
X12409039Y49416022D01*
X12406634Y49418337D01*
X12392723Y49432248D01*
X12389352Y49434561D01*
X12388377Y49435371D01*
X12384733Y49438570D01*
X12369376Y49452815D01*
X12363354Y49458401D01*
X12351626Y49463080D01*
X12334267Y49472349D01*
X12323854Y49479492D01*
X12308549Y49483124D01*
X12297227Y49485811D01*
X12284798Y49489742D01*
X12265213Y49497556D01*
X12265207Y49497557D01*
X12259378Y49499883D01*
X12253085Y49500500D01*
X12245745Y49500500D01*
X12225195Y49502905D01*
X12224627Y49503040D01*
X12214934Y49505340D01*
X12206792Y49504232D01*
X12206790Y49504232D01*
X12185344Y49501313D01*
X12173342Y49500500D01*
X8653931Y49500500D01*
X8649267Y49500843D01*
X8644658Y49502425D01*
X8636449Y49502117D01*
X8636448Y49502117D01*
X8595051Y49500563D01*
X8591713Y49500500D01*
X8572052Y49500500D01*
X8568027Y49499751D01*
X8566752Y49499633D01*
X8561923Y49499320D01*
X8532791Y49498226D01*
X8525243Y49494983D01*
X8525239Y49494982D01*
X8521195Y49493244D01*
X8502352Y49487519D01*
X8489947Y49485209D01*
X8479159Y49478559D01*
X8466649Y49470848D01*
X8455081Y49464839D01*
X8429937Y49454036D01*
X8425051Y49450022D01*
X8419862Y49444833D01*
X8403632Y49432004D01*
X8401647Y49430780D01*
X8394652Y49426468D01*
X8389678Y49419927D01*
X8376580Y49402702D01*
X8368669Y49393640D01*
X8051852Y49076823D01*
X7996676Y49051095D01*
X7937871Y49066851D01*
X7902952Y49116721D01*
X7900406Y49149058D01*
X7909756Y49238025D01*
X7910000Y49242672D01*
X7910000Y49471806D01*
X7905624Y49483829D01*
X7899266Y49487500D01*
X7045694Y49487500D01*
X7033671Y49483124D01*
X7022918Y49464499D01*
X6976281Y49425367D01*
X6945842Y49420000D01*
X5405695Y49420000D01*
X5393672Y49415624D01*
X5390001Y49409266D01*
X5390001Y49183491D01*
X5390068Y49181153D01*
X5391121Y49173796D01*
X5429528Y49007436D01*
X5432812Y48998111D01*
X5506597Y48845480D01*
X5511866Y48837114D01*
X5617624Y48704632D01*
X5624632Y48697624D01*
X5757114Y48591866D01*
X5765480Y48586597D01*
X5918111Y48512812D01*
X5927436Y48509528D01*
X6071713Y48476219D01*
X6122771Y48443061D01*
X6140570Y48384842D01*
X6116782Y48328802D01*
X6062538Y48301163D01*
X6051692Y48300500D01*
X5818931Y48300500D01*
X5814267Y48300843D01*
X5809658Y48302425D01*
X5801449Y48302117D01*
X5801448Y48302117D01*
X5760051Y48300563D01*
X5756713Y48300500D01*
X5737052Y48300500D01*
X5733027Y48299751D01*
X5731752Y48299633D01*
X5726923Y48299320D01*
X5697791Y48298226D01*
X5690243Y48294983D01*
X5690239Y48294982D01*
X5686195Y48293244D01*
X5667352Y48287519D01*
X5654947Y48285209D01*
X5637334Y48274352D01*
X5631649Y48270848D01*
X5620081Y48264839D01*
X5594937Y48254036D01*
X5590051Y48250022D01*
X5584862Y48244833D01*
X5568632Y48232004D01*
X5566647Y48230780D01*
X5559652Y48226468D01*
X5554678Y48219927D01*
X5541580Y48202702D01*
X5533669Y48193640D01*
X5125648Y47785619D01*
X5122111Y47782566D01*
X5117731Y47780425D01*
X5112142Y47774400D01*
X5083979Y47744040D01*
X5081663Y47741634D01*
X5067752Y47727723D01*
X5065439Y47724352D01*
X5064629Y47723377D01*
X5061430Y47719733D01*
X5056846Y47714791D01*
X5041599Y47698354D01*
X5036922Y47686630D01*
X5027651Y47669267D01*
X5020508Y47658854D01*
X5018611Y47650860D01*
X5014189Y47632227D01*
X5010258Y47619798D01*
X5002444Y47600213D01*
X5002443Y47600207D01*
X5000117Y47594378D01*
X4999500Y47588085D01*
X4999500Y47580745D01*
X4997095Y47560195D01*
X4994660Y47549934D01*
X4995768Y47541792D01*
X4995768Y47541790D01*
X4996967Y47532981D01*
X4998634Y47520737D01*
X4998687Y47520344D01*
X4999500Y47508342D01*
X4999500Y46940337D01*
X4978678Y46883129D01*
X4925955Y46852689D01*
X4866000Y46863261D01*
X4847567Y46877404D01*
X2566055Y49158916D01*
X2540327Y49214092D01*
X2549132Y49261143D01*
X2590598Y49345413D01*
X2592587Y49349455D01*
X2601135Y49382269D01*
X2617040Y49443329D01*
X3045739Y49443329D01*
X3074614Y49252401D01*
X3076169Y49248174D01*
X3076170Y49248171D01*
X3132559Y49094909D01*
X3141290Y49071179D01*
X3243045Y48907066D01*
X3375721Y48766765D01*
X3533898Y48656009D01*
X3711115Y48579320D01*
X3715527Y48578398D01*
X3715531Y48578397D01*
X3822414Y48556068D01*
X3900133Y48539832D01*
X3906468Y48539500D01*
X4048259Y48539500D01*
X4192110Y48554112D01*
X4376373Y48611856D01*
X4534487Y48699500D01*
X4541314Y48703284D01*
X4541315Y48703285D01*
X4545261Y48705472D01*
X4610533Y48761417D01*
X4688455Y48828204D01*
X4688459Y48828208D01*
X4691875Y48831136D01*
X4728753Y48878678D01*
X4807467Y48980156D01*
X4810227Y48983714D01*
X4812213Y48987751D01*
X4812216Y48987755D01*
X4893492Y49152932D01*
X4895481Y49156974D01*
X4899862Y49173790D01*
X4943019Y49339476D01*
X4944155Y49343837D01*
X4944391Y49348337D01*
X4954025Y49532164D01*
X4954025Y49532166D01*
X4954261Y49536671D01*
X4925386Y49727599D01*
X4919720Y49743001D01*
X4860267Y49904590D01*
X4860266Y49904593D01*
X4858710Y49908821D01*
X4756955Y50072934D01*
X4624279Y50213235D01*
X4466102Y50323991D01*
X4288885Y50400680D01*
X4284473Y50401602D01*
X4284469Y50401603D01*
X4168221Y50425888D01*
X4099867Y50440168D01*
X4093532Y50440500D01*
X3951741Y50440500D01*
X3807890Y50425888D01*
X3623627Y50368144D01*
X3547200Y50325780D01*
X3490806Y50294520D01*
X3454739Y50274528D01*
X3406193Y50232919D01*
X3311545Y50151796D01*
X3311541Y50151792D01*
X3308125Y50148864D01*
X3305366Y50145307D01*
X3305365Y50145306D01*
X3302715Y50141889D01*
X3189773Y49996286D01*
X3187787Y49992249D01*
X3187784Y49992245D01*
X3167045Y49950097D01*
X3104519Y49823026D01*
X3103384Y49818669D01*
X3103383Y49818666D01*
X3083674Y49743001D01*
X3055845Y49636163D01*
X3055609Y49631665D01*
X3055609Y49631663D01*
X3046084Y49449903D01*
X3045739Y49443329D01*
X2617040Y49443329D01*
X2642686Y49541787D01*
X2643822Y49546148D01*
X2644058Y49550648D01*
X2654223Y49744619D01*
X2654223Y49744621D01*
X2654459Y49749126D01*
X2624065Y49950097D01*
X2621707Y49956508D01*
X2555437Y50136622D01*
X2553881Y50140852D01*
X2446774Y50313599D01*
X2307119Y50461280D01*
X2140621Y50577863D01*
X1976649Y50648820D01*
X1932415Y50690649D01*
X1925418Y50751126D01*
X1958931Y50801951D01*
X2011995Y50819500D01*
X5965063Y50819500D01*
X6022271Y50798678D01*
G37*
G04 #@! TD.AperFunction*
G04 #@! TA.AperFunction,Conductor*
G36*
X2446411Y46428016D02*
G01*
X2452853Y46422176D01*
X4124393Y44750636D01*
X4150121Y44695460D01*
X4150460Y44687703D01*
X4150460Y43682238D01*
X4129638Y43625030D01*
X4076915Y43594590D01*
X4016960Y43605162D01*
X3998527Y43619305D01*
X2823480Y44794352D01*
X2820427Y44797889D01*
X2818286Y44802269D01*
X2781900Y44836022D01*
X2779495Y44838337D01*
X2765584Y44852248D01*
X2762213Y44854561D01*
X2761238Y44855371D01*
X2757594Y44858570D01*
X2742237Y44872815D01*
X2736215Y44878401D01*
X2724487Y44883080D01*
X2707128Y44892349D01*
X2696715Y44899492D01*
X2687346Y44901715D01*
X2670088Y44905811D01*
X2657658Y44909742D01*
X2638037Y44917570D01*
X2592618Y44958109D01*
X2587491Y44969502D01*
X2579506Y44991205D01*
X2553881Y45060852D01*
X2446774Y45233599D01*
X2435821Y45245182D01*
X2310216Y45378005D01*
X2307119Y45381280D01*
X2140621Y45497863D01*
X1954081Y45578586D01*
X1949669Y45579508D01*
X1949665Y45579509D01*
X1833570Y45603762D01*
X1755120Y45620151D01*
X1748461Y45620500D01*
X269500Y45620500D01*
X212292Y45641322D01*
X181852Y45694045D01*
X180500Y45709500D01*
X180500Y46070500D01*
X201322Y46127708D01*
X254045Y46158148D01*
X269500Y46159500D01*
X1700800Y46159500D01*
X1790136Y46168574D01*
X1847729Y46174424D01*
X1847731Y46174424D01*
X1852216Y46174880D01*
X1981669Y46215448D01*
X2041868Y46234313D01*
X2041870Y46234314D01*
X2046172Y46235662D01*
X2159564Y46298516D01*
X2219997Y46332015D01*
X2219998Y46332016D01*
X2223944Y46334203D01*
X2281384Y46383435D01*
X2332001Y46426818D01*
X2388989Y46448238D01*
X2446411Y46428016D01*
G37*
G04 #@! TD.AperFunction*
G04 #@! TA.AperFunction,NonConductor*
G36*
X2096056Y48769475D02*
G01*
X2124787Y48750242D01*
X4523913Y46351116D01*
X4549641Y46295940D01*
X4549980Y46288183D01*
X4549980Y45389857D01*
X4529158Y45332649D01*
X4476435Y45302209D01*
X4416480Y45312781D01*
X4398047Y45326924D01*
X2675576Y47049395D01*
X2649848Y47104571D01*
X2649631Y47116985D01*
X2654223Y47204619D01*
X2654223Y47204621D01*
X2654459Y47209126D01*
X2624065Y47410097D01*
X2617160Y47428866D01*
X2583502Y47520344D01*
X2553881Y47600852D01*
X2446774Y47773599D01*
X2437857Y47783029D01*
X2310216Y47918005D01*
X2307119Y47921280D01*
X2140621Y48037863D01*
X1954081Y48118586D01*
X1949669Y48119508D01*
X1949665Y48119509D01*
X1833527Y48143771D01*
X1755120Y48160151D01*
X1748461Y48160500D01*
X269500Y48160500D01*
X212292Y48181322D01*
X181852Y48234045D01*
X180500Y48249500D01*
X180500Y48610500D01*
X201322Y48667708D01*
X254045Y48698148D01*
X269500Y48699500D01*
X1700800Y48699500D01*
X1790136Y48708574D01*
X1847729Y48714424D01*
X1847731Y48714424D01*
X1852216Y48714880D01*
X2035240Y48772236D01*
X2096056Y48769475D01*
G37*
G04 #@! TD.AperFunction*
G04 #@! TA.AperFunction,NonConductor*
G36*
X16394000Y42106028D02*
G01*
X16412433Y42091885D01*
X17132077Y41372241D01*
X17157805Y41317065D01*
X17142049Y41258260D01*
X17093602Y41223734D01*
X17064655Y41215461D01*
X16955519Y41146601D01*
X16909438Y41094424D01*
X16896460Y41079729D01*
X16870096Y41049878D01*
X16815254Y40933068D01*
X16814278Y40926803D01*
X16814278Y40926801D01*
X16805710Y40871769D01*
X16795401Y40805560D01*
X16812133Y40677606D01*
X16864105Y40559490D01*
X16947139Y40460709D01*
X16952417Y40457196D01*
X16952420Y40457193D01*
X16959814Y40452272D01*
X16995900Y40403240D01*
X16999500Y40378184D01*
X16999500Y37561337D01*
X16978678Y37504129D01*
X16973433Y37498404D01*
X16413146Y36938117D01*
X16357970Y36912389D01*
X16299165Y36928145D01*
X16264246Y36978015D01*
X16261282Y36997558D01*
X16260569Y37015717D01*
X16260500Y37019209D01*
X16260500Y42028952D01*
X16281322Y42086160D01*
X16334045Y42116600D01*
X16394000Y42106028D01*
G37*
G04 #@! TD.AperFunction*
G04 #@! TA.AperFunction,NonConductor*
G36*
X12095871Y48878678D02*
G01*
X12101596Y48873433D01*
X12874047Y48100982D01*
X12899775Y48045806D01*
X12884019Y47987001D01*
X12834149Y47952082D01*
X12825591Y47950558D01*
X12825616Y47950427D01*
X12812827Y47947987D01*
X12628339Y47893689D01*
X12620316Y47890447D01*
X12449897Y47801354D01*
X12442632Y47796601D01*
X12410739Y47770958D01*
X12404111Y47760014D01*
X12404934Y47754698D01*
X12998904Y47160728D01*
X13010497Y47155322D01*
X13017591Y47157223D01*
X13621955Y47761587D01*
X13622590Y47760952D01*
X13652800Y47791162D01*
X13690412Y47799500D01*
X15738663Y47799500D01*
X15795871Y47778678D01*
X15801596Y47773433D01*
X16373433Y47201596D01*
X16399161Y47146420D01*
X16399500Y47138663D01*
X16399500Y44450137D01*
X16378678Y44392929D01*
X16325955Y44362489D01*
X16266000Y44373061D01*
X16243080Y44392039D01*
X16199193Y44442972D01*
X16090906Y44513159D01*
X16077388Y44517202D01*
X15973348Y44548317D01*
X15973349Y44548317D01*
X15967273Y44550134D01*
X15960934Y44550173D01*
X15960932Y44550173D01*
X15901448Y44550536D01*
X15838231Y44550922D01*
X15832138Y44549180D01*
X15832134Y44549180D01*
X15746244Y44524632D01*
X15714155Y44515461D01*
X15708797Y44512080D01*
X15708792Y44512078D01*
X15632960Y44464231D01*
X15585468Y44450500D01*
X15528125Y44450500D01*
X15470917Y44471322D01*
X15440477Y44524045D01*
X15451049Y44584000D01*
X15458569Y44595025D01*
X15508138Y44657120D01*
X15513403Y44665480D01*
X15587188Y44818111D01*
X15590472Y44827436D01*
X15628878Y44993790D01*
X15629933Y45001156D01*
X15630000Y45003492D01*
X15630000Y45224306D01*
X15625624Y45236329D01*
X15619266Y45240000D01*
X14045695Y45240000D01*
X14033672Y45235624D01*
X14030001Y45229266D01*
X14030001Y45003491D01*
X14030068Y45001153D01*
X14031121Y44993796D01*
X14069528Y44827436D01*
X14072812Y44818111D01*
X14146597Y44665480D01*
X14151862Y44657120D01*
X14201431Y44595025D01*
X14220848Y44537325D01*
X14198634Y44480643D01*
X14145183Y44451501D01*
X14131875Y44450500D01*
X13682048Y44450500D01*
X13624840Y44471322D01*
X13619115Y44476567D01*
X12876567Y45219115D01*
X12850839Y45274291D01*
X12850500Y45282048D01*
X12850500Y45555694D01*
X14030000Y45555694D01*
X14034376Y45543671D01*
X14040734Y45540000D01*
X14664306Y45540000D01*
X14676329Y45544376D01*
X14680000Y45550734D01*
X14680000Y45555694D01*
X14980000Y45555694D01*
X14984376Y45543671D01*
X14990734Y45540000D01*
X15614305Y45540000D01*
X15626328Y45544376D01*
X15629999Y45550734D01*
X15629999Y45776509D01*
X15629932Y45778847D01*
X15628879Y45786204D01*
X15590472Y45952564D01*
X15587188Y45961889D01*
X15513403Y46114520D01*
X15508134Y46122886D01*
X15402376Y46255368D01*
X15395368Y46262376D01*
X15262886Y46368134D01*
X15254520Y46373403D01*
X15101895Y46447185D01*
X15092557Y46450473D01*
X14995291Y46472929D01*
X14982594Y46471370D01*
X14980284Y46468893D01*
X14980000Y46467498D01*
X14980000Y45555694D01*
X14680000Y45555694D01*
X14680000Y46460765D01*
X14675624Y46472788D01*
X14672692Y46474481D01*
X14671270Y46474444D01*
X14567443Y46450473D01*
X14558105Y46447185D01*
X14405480Y46373403D01*
X14397114Y46368134D01*
X14264632Y46262376D01*
X14257624Y46255368D01*
X14151866Y46122886D01*
X14146597Y46114520D01*
X14072812Y45961889D01*
X14069528Y45952564D01*
X14031122Y45786210D01*
X14030067Y45778844D01*
X14030000Y45776508D01*
X14030000Y45555694D01*
X12850500Y45555694D01*
X12850500Y45823970D01*
X12871322Y45881178D01*
X12924045Y45911618D01*
X12950038Y45912344D01*
X12984114Y45908281D01*
X12996872Y45908013D01*
X13053630Y45885996D01*
X13078638Y45849473D01*
X13114966Y45749662D01*
X13191018Y45659027D01*
X13197761Y45655134D01*
X13197762Y45655133D01*
X13259567Y45619450D01*
X13293482Y45599869D01*
X13301146Y45598518D01*
X13301148Y45598517D01*
X13341098Y45591473D01*
X13380645Y45584500D01*
X13439355Y45584500D01*
X13478902Y45591473D01*
X13518852Y45598517D01*
X13518854Y45598518D01*
X13526518Y45599869D01*
X13560433Y45619450D01*
X13622238Y45655133D01*
X13622239Y45655134D01*
X13628982Y45659027D01*
X13705034Y45749662D01*
X13745500Y45860842D01*
X13745500Y45979158D01*
X13705034Y46090338D01*
X13628982Y46180973D01*
X13622239Y46184866D01*
X13622238Y46184867D01*
X13533264Y46236236D01*
X13533265Y46236236D01*
X13526518Y46240131D01*
X13518849Y46241483D01*
X13518847Y46241484D01*
X13516179Y46241954D01*
X13512981Y46243618D01*
X13511532Y46244146D01*
X13511601Y46244337D01*
X13468699Y46266669D01*
X12798365Y46937003D01*
X13227822Y46937003D01*
X13229723Y46929909D01*
X13823949Y46335683D01*
X13835542Y46330277D01*
X13841285Y46331816D01*
X13848781Y46340501D01*
X13853777Y46347582D01*
X13948767Y46514796D01*
X13952288Y46522704D01*
X14012990Y46705181D01*
X14014911Y46713638D01*
X14039246Y46906274D01*
X14039593Y46911230D01*
X14039925Y46935008D01*
X14039717Y46939980D01*
X14020770Y47133217D01*
X14019085Y47141726D01*
X13963503Y47325822D01*
X13960205Y47333824D01*
X13869917Y47503633D01*
X13865125Y47510844D01*
X13843757Y47537044D01*
X13832767Y47543595D01*
X13827350Y47542718D01*
X13233228Y46948596D01*
X13227822Y46937003D01*
X12798365Y46937003D01*
X12196725Y47538643D01*
X12185132Y47544049D01*
X12179614Y47542570D01*
X12162966Y47522729D01*
X12158067Y47515575D01*
X12065424Y47347059D01*
X12062011Y47339096D01*
X12003861Y47155785D01*
X12002062Y47147320D01*
X11997737Y47108762D01*
X11970667Y47054232D01*
X11914879Y47029860D01*
X11856477Y47047049D01*
X11846359Y47055751D01*
X11487900Y47414210D01*
X11476065Y47428866D01*
X11473725Y47432490D01*
X11469734Y47438671D01*
X11444114Y47458869D01*
X11438017Y47464286D01*
X11436753Y47465357D01*
X11434163Y47467947D01*
X11431183Y47470076D01*
X11431173Y47470085D01*
X11419130Y47478690D01*
X11415774Y47481209D01*
X11401238Y47492669D01*
X11378098Y47510911D01*
X11371659Y47513172D01*
X11368796Y47514660D01*
X11363240Y47518630D01*
X11349551Y47522724D01*
X11335008Y47527073D01*
X11317254Y47532383D01*
X11313276Y47533676D01*
X11273294Y47547717D01*
X11273286Y47547719D01*
X11268003Y47549574D01*
X11262865Y47550019D01*
X11260936Y47550019D01*
X11260127Y47550054D01*
X11257388Y47550286D01*
X11251445Y47552063D01*
X11203323Y47550172D01*
X11201177Y47550088D01*
X11197683Y47550019D01*
X9885573Y47550019D01*
X9866841Y47552013D01*
X9862616Y47552923D01*
X9862612Y47552923D01*
X9855423Y47554471D01*
X9823334Y47550673D01*
X9823021Y47550636D01*
X9814915Y47550158D01*
X9813234Y47550019D01*
X9809568Y47550019D01*
X9791339Y47546985D01*
X9787211Y47546397D01*
X9773005Y47544716D01*
X9746850Y47541621D01*
X9746847Y47541620D01*
X9739545Y47540756D01*
X9733391Y47537801D01*
X9730315Y47536828D01*
X9723580Y47535707D01*
X9691932Y47518630D01*
X9681357Y47512924D01*
X9677619Y47511019D01*
X9639404Y47492669D01*
X9639401Y47492667D01*
X9634357Y47490245D01*
X9630409Y47486927D01*
X9629047Y47485565D01*
X9628423Y47484993D01*
X9626350Y47483244D01*
X9620889Y47480297D01*
X9586740Y47443355D01*
X9584342Y47440860D01*
X9176758Y47033276D01*
X9121582Y47007548D01*
X9062777Y47023304D01*
X9027858Y47073174D01*
X9025250Y47087525D01*
X9020770Y47133217D01*
X9019085Y47141726D01*
X8963503Y47325822D01*
X8960205Y47333824D01*
X8869917Y47503633D01*
X8865125Y47510844D01*
X8843757Y47537044D01*
X8832767Y47543595D01*
X8827350Y47542718D01*
X7551301Y46266669D01*
X7508399Y46244337D01*
X7508468Y46244146D01*
X7507019Y46243618D01*
X7503821Y46241954D01*
X7501153Y46241484D01*
X7501151Y46241483D01*
X7493482Y46240131D01*
X7486735Y46236236D01*
X7486736Y46236236D01*
X7397762Y46184867D01*
X7397761Y46184866D01*
X7391018Y46180973D01*
X7314966Y46090338D01*
X7274500Y45979158D01*
X7274500Y45860842D01*
X7314966Y45749662D01*
X7391018Y45659027D01*
X7397761Y45655134D01*
X7397762Y45655133D01*
X7459567Y45619450D01*
X7493482Y45599869D01*
X7501146Y45598518D01*
X7501148Y45598517D01*
X7541098Y45591473D01*
X7580645Y45584500D01*
X7639355Y45584500D01*
X7678902Y45591473D01*
X7718852Y45598517D01*
X7718854Y45598518D01*
X7726518Y45599869D01*
X7760433Y45619450D01*
X7822238Y45655133D01*
X7822239Y45655134D01*
X7828982Y45659027D01*
X7905034Y45749662D01*
X7942217Y45851822D01*
X7981350Y45898458D01*
X8019022Y45910120D01*
X8053672Y45912786D01*
X8112309Y45896414D01*
X8146704Y45846181D01*
X8149500Y45824048D01*
X8149500Y42739500D01*
X8128678Y42682292D01*
X8075955Y42651852D01*
X8060500Y42650500D01*
X6960252Y42650500D01*
X6955968Y42649648D01*
X6955969Y42649648D01*
X6910370Y42640578D01*
X6910369Y42640578D01*
X6901769Y42638867D01*
X6835448Y42594552D01*
X6791133Y42528231D01*
X6789422Y42519631D01*
X6789422Y42519630D01*
X6784767Y42496228D01*
X6779500Y42469748D01*
X6779500Y40930252D01*
X6791133Y40871769D01*
X6835448Y40805448D01*
X6901769Y40761133D01*
X6910369Y40759422D01*
X6910370Y40759422D01*
X6943507Y40752831D01*
X6960252Y40749500D01*
X8999748Y40749500D01*
X9016493Y40752831D01*
X9049630Y40759422D01*
X9049631Y40759422D01*
X9058231Y40761133D01*
X9124552Y40805448D01*
X9168867Y40871769D01*
X9180500Y40930252D01*
X9180500Y42469748D01*
X9175233Y42496228D01*
X9170578Y42519630D01*
X9170578Y42519631D01*
X9168867Y42528231D01*
X9124552Y42594552D01*
X9058231Y42638867D01*
X9049631Y42640578D01*
X9049630Y42640578D01*
X9004031Y42649648D01*
X9004032Y42649648D01*
X8999748Y42650500D01*
X8939500Y42650500D01*
X8882292Y42671322D01*
X8851852Y42724045D01*
X8850500Y42739500D01*
X8850500Y45406614D01*
X8871322Y45463822D01*
X8924045Y45494262D01*
X8984000Y45483690D01*
X8994847Y45475839D01*
X8996639Y45473707D01*
X9104060Y45402202D01*
X9110113Y45400311D01*
X9110115Y45400310D01*
X9126158Y45395298D01*
X9227233Y45363720D01*
X9276759Y45362812D01*
X9349912Y45361471D01*
X9349914Y45361471D01*
X9356255Y45361355D01*
X9480755Y45395298D01*
X9590724Y45462819D01*
X9594975Y45467515D01*
X9594977Y45467517D01*
X9673068Y45553791D01*
X9673069Y45553792D01*
X9677322Y45558491D01*
X9706857Y45619450D01*
X9730823Y45668915D01*
X9730824Y45668918D01*
X9733588Y45674623D01*
X9736277Y45690604D01*
X9744298Y45738281D01*
X9769132Y45786448D01*
X10306117Y46323433D01*
X10361293Y46349161D01*
X10369050Y46349500D01*
X10817953Y46349500D01*
X10875161Y46328678D01*
X10880885Y46323433D01*
X11121298Y46083021D01*
X11349452Y45854867D01*
X11375181Y45799691D01*
X11372871Y45777785D01*
X11374254Y45777570D01*
X11355797Y45659027D01*
X11354401Y45650062D01*
X11360965Y45599869D01*
X11367845Y45547256D01*
X11371133Y45522108D01*
X11423105Y45403992D01*
X11506139Y45305211D01*
X11613560Y45233706D01*
X11619613Y45231815D01*
X11619615Y45231814D01*
X11643647Y45224306D01*
X11736733Y45195224D01*
X11786259Y45194316D01*
X11859412Y45192975D01*
X11859414Y45192975D01*
X11865755Y45192859D01*
X11990255Y45226802D01*
X12013933Y45241340D01*
X12073577Y45253530D01*
X12127105Y45224528D01*
X12149500Y45165496D01*
X12149500Y45146883D01*
X12147506Y45128152D01*
X12145049Y45116739D01*
X12145914Y45109434D01*
X12148883Y45084346D01*
X12149363Y45076216D01*
X12149500Y45074559D01*
X12149500Y45070885D01*
X12152534Y45052656D01*
X12153125Y45048507D01*
X12158764Y45000862D01*
X12161716Y44994714D01*
X12162691Y44991632D01*
X12163812Y44984897D01*
X12167305Y44978424D01*
X12167306Y44978420D01*
X12186607Y44942651D01*
X12188492Y44938952D01*
X12209274Y44895674D01*
X12212592Y44891726D01*
X12213954Y44890364D01*
X12214526Y44889740D01*
X12216275Y44887667D01*
X12219222Y44882206D01*
X12256164Y44848057D01*
X12258659Y44845659D01*
X13219009Y43885309D01*
X13230844Y43870653D01*
X13237175Y43860848D01*
X13262795Y43840650D01*
X13268895Y43835230D01*
X13270159Y43834159D01*
X13272747Y43831571D01*
X13275727Y43829442D01*
X13275737Y43829433D01*
X13287780Y43820828D01*
X13291131Y43818313D01*
X13328811Y43788608D01*
X13335249Y43786347D01*
X13338116Y43784858D01*
X13343670Y43780889D01*
X13350720Y43778781D01*
X13350719Y43778781D01*
X13389629Y43767144D01*
X13393616Y43765849D01*
X13433619Y43751801D01*
X13433624Y43751800D01*
X13438906Y43749945D01*
X13444044Y43749500D01*
X13445973Y43749500D01*
X13446782Y43749465D01*
X13449521Y43749233D01*
X13455464Y43747456D01*
X13505732Y43749431D01*
X13509226Y43749500D01*
X15586566Y43749500D01*
X15635881Y43734587D01*
X15704060Y43689204D01*
X15710113Y43687313D01*
X15710115Y43687312D01*
X15731494Y43680633D01*
X15827233Y43650722D01*
X15876759Y43649814D01*
X15949912Y43648473D01*
X15949914Y43648473D01*
X15956255Y43648357D01*
X16080755Y43682300D01*
X16190724Y43749821D01*
X16228916Y43792015D01*
X16244516Y43809249D01*
X16298345Y43837689D01*
X16357861Y43824875D01*
X16395216Y43776804D01*
X16399500Y43749523D01*
X16399500Y43029835D01*
X16378678Y42972627D01*
X16325955Y42942187D01*
X16266000Y42952759D01*
X16247567Y42966902D01*
X16240404Y42974065D01*
X16233348Y42977355D01*
X16233347Y42977356D01*
X16200948Y42992464D01*
X16133173Y43024068D01*
X16126423Y43024957D01*
X16126422Y43024957D01*
X16087206Y43030120D01*
X16087199Y43030120D01*
X16084316Y43030500D01*
X15735684Y43030500D01*
X15732801Y43030120D01*
X15732794Y43030120D01*
X15693578Y43024957D01*
X15693577Y43024957D01*
X15686827Y43024068D01*
X15619052Y42992464D01*
X15586653Y42977356D01*
X15586652Y42977355D01*
X15579596Y42974065D01*
X15495935Y42890404D01*
X15492645Y42883348D01*
X15492644Y42883347D01*
X15480661Y42857649D01*
X15437613Y42814601D01*
X15376965Y42809295D01*
X15327095Y42844214D01*
X15319339Y42857649D01*
X15307356Y42883347D01*
X15307355Y42883348D01*
X15304065Y42890404D01*
X15220404Y42974065D01*
X15213348Y42977355D01*
X15213347Y42977356D01*
X15180948Y42992464D01*
X15113173Y43024068D01*
X15106423Y43024957D01*
X15106422Y43024957D01*
X15067206Y43030120D01*
X15067199Y43030120D01*
X15064316Y43030500D01*
X14715684Y43030500D01*
X14712801Y43030120D01*
X14712794Y43030120D01*
X14673578Y43024957D01*
X14673577Y43024957D01*
X14666827Y43024068D01*
X14599052Y42992464D01*
X14566653Y42977356D01*
X14566652Y42977355D01*
X14559596Y42974065D01*
X14475935Y42890404D01*
X14425932Y42783173D01*
X14425043Y42776423D01*
X14425043Y42776422D01*
X14421159Y42746915D01*
X14419500Y42734316D01*
X14419500Y42572048D01*
X14398678Y42514840D01*
X14393433Y42509115D01*
X14065309Y42180991D01*
X14050653Y42169156D01*
X14040848Y42162825D01*
X14020650Y42137205D01*
X14015233Y42131108D01*
X14014162Y42129844D01*
X14011572Y42127254D01*
X14009443Y42124274D01*
X14009434Y42124264D01*
X14000829Y42112221D01*
X13998314Y42108870D01*
X13968608Y42071189D01*
X13966347Y42064751D01*
X13964859Y42061887D01*
X13960889Y42056331D01*
X13958782Y42049287D01*
X13958782Y42049286D01*
X13947140Y42010356D01*
X13945843Y42006367D01*
X13931802Y41966385D01*
X13931800Y41966377D01*
X13929945Y41961094D01*
X13929500Y41955956D01*
X13929500Y41954027D01*
X13929465Y41953218D01*
X13929233Y41950479D01*
X13927456Y41944536D01*
X13928350Y41921787D01*
X13929431Y41894268D01*
X13929500Y41890774D01*
X13929500Y41589500D01*
X13908678Y41532292D01*
X13855955Y41501852D01*
X13840500Y41500500D01*
X13260252Y41500500D01*
X13255968Y41499648D01*
X13255969Y41499648D01*
X13210370Y41490578D01*
X13210369Y41490578D01*
X13201769Y41488867D01*
X13135448Y41444552D01*
X13091133Y41378231D01*
X13079500Y41319748D01*
X13079500Y37480252D01*
X13080352Y37475969D01*
X13088179Y37436622D01*
X13091133Y37421769D01*
X13135448Y37355448D01*
X13201769Y37311133D01*
X13210369Y37309422D01*
X13210370Y37309422D01*
X13243507Y37302831D01*
X13260252Y37299500D01*
X15299748Y37299500D01*
X15316493Y37302831D01*
X15349630Y37309422D01*
X15349631Y37309422D01*
X15358231Y37311133D01*
X15421055Y37353112D01*
X15480188Y37367582D01*
X15534790Y37340656D01*
X15559500Y37279111D01*
X15559500Y37192048D01*
X15538678Y37134840D01*
X15533433Y37129115D01*
X15180885Y36776567D01*
X15125709Y36750839D01*
X15117952Y36750500D01*
X14413899Y36750500D01*
X14365494Y36764814D01*
X14290906Y36813159D01*
X14277388Y36817202D01*
X14229090Y36831646D01*
X14167273Y36850134D01*
X14160934Y36850173D01*
X14160932Y36850173D01*
X14101448Y36850536D01*
X14038231Y36850922D01*
X14032138Y36849180D01*
X14032134Y36849180D01*
X13937728Y36822198D01*
X13914155Y36815461D01*
X13805019Y36746601D01*
X13719596Y36649878D01*
X13664754Y36533068D01*
X13663778Y36526803D01*
X13663778Y36526801D01*
X13650449Y36441190D01*
X13644901Y36405560D01*
X13648345Y36379222D01*
X13660669Y36284981D01*
X13661633Y36277606D01*
X13713605Y36159490D01*
X13796639Y36060709D01*
X13904060Y35989204D01*
X13910113Y35987313D01*
X13910115Y35987312D01*
X13944867Y35976455D01*
X14027233Y35950722D01*
X14076759Y35949814D01*
X14149912Y35948473D01*
X14149914Y35948473D01*
X14156255Y35948357D01*
X14280755Y35982300D01*
X14368775Y36036344D01*
X14415343Y36049500D01*
X14626262Y36049500D01*
X14683470Y36028678D01*
X14713910Y35975955D01*
X14706825Y35922677D01*
X14664754Y35833068D01*
X14663778Y35826803D01*
X14663778Y35826801D01*
X14648355Y35727741D01*
X14644901Y35705560D01*
X14645723Y35699276D01*
X14659155Y35596559D01*
X14661633Y35577606D01*
X14713605Y35459490D01*
X14796639Y35360709D01*
X14904060Y35289204D01*
X14910113Y35287313D01*
X14910115Y35287312D01*
X14949191Y35275104D01*
X15027233Y35250722D01*
X15076387Y35249821D01*
X15149912Y35248473D01*
X15149914Y35248473D01*
X15156255Y35248357D01*
X15280755Y35282300D01*
X15286451Y35285797D01*
X15385320Y35346503D01*
X15390724Y35349821D01*
X15409193Y35370226D01*
X15463022Y35398666D01*
X15475177Y35399500D01*
X15546069Y35399500D01*
X15550733Y35399157D01*
X15555342Y35397575D01*
X15563551Y35397883D01*
X15563552Y35397883D01*
X15604948Y35399437D01*
X15608286Y35399500D01*
X15627948Y35399500D01*
X15631973Y35400249D01*
X15633248Y35400367D01*
X15638077Y35400680D01*
X15667208Y35401774D01*
X15674755Y35405016D01*
X15674758Y35405017D01*
X15678810Y35406758D01*
X15697645Y35412480D01*
X15701974Y35413286D01*
X15701976Y35413287D01*
X15710053Y35414791D01*
X15733352Y35429152D01*
X15744919Y35435161D01*
X15764286Y35443482D01*
X15770063Y35445964D01*
X15774949Y35449978D01*
X15780138Y35455167D01*
X15796368Y35467996D01*
X15798353Y35469220D01*
X15798354Y35469220D01*
X15805348Y35473532D01*
X15823420Y35497298D01*
X15831331Y35506360D01*
X17474352Y37149381D01*
X17477889Y37152434D01*
X17482269Y37154575D01*
X17516022Y37190961D01*
X17518337Y37193366D01*
X17532248Y37207277D01*
X17534561Y37210648D01*
X17535371Y37211623D01*
X17538570Y37215267D01*
X17552815Y37230624D01*
X17558401Y37236646D01*
X17563080Y37248374D01*
X17572349Y37265733D01*
X17579492Y37276146D01*
X17585811Y37302773D01*
X17589742Y37315202D01*
X17597556Y37334787D01*
X17597557Y37334793D01*
X17599883Y37340622D01*
X17600500Y37346915D01*
X17600500Y37354255D01*
X17602905Y37374805D01*
X17603442Y37377069D01*
X17605340Y37385066D01*
X17601313Y37414656D01*
X17600500Y37426658D01*
X17600500Y40481011D01*
X17621205Y40534738D01*
X17620022Y40535536D01*
X17623499Y40540690D01*
X17623516Y40540736D01*
X17627822Y40545493D01*
X17642716Y40576235D01*
X17681298Y40655866D01*
X17724980Y40698271D01*
X17785700Y40702676D01*
X17824325Y40679993D01*
X18430413Y40073905D01*
X18456141Y40018729D01*
X18447336Y39971680D01*
X18407413Y39890545D01*
X18406278Y39886188D01*
X18406277Y39886185D01*
X18372372Y39756021D01*
X18356178Y39693852D01*
X18355942Y39689354D01*
X18355942Y39689352D01*
X18350076Y39577404D01*
X18345541Y39490874D01*
X18375935Y39289903D01*
X18377490Y39285676D01*
X18377491Y39285673D01*
X18398756Y39227877D01*
X18446119Y39099148D01*
X18553226Y38926401D01*
X18692881Y38778720D01*
X18859379Y38662137D01*
X19045919Y38581414D01*
X19050331Y38580492D01*
X19050335Y38580491D01*
X19151639Y38559328D01*
X19244880Y38539849D01*
X19251539Y38539500D01*
X20730500Y38539500D01*
X20787708Y38518678D01*
X20818148Y38465955D01*
X20819500Y38450500D01*
X20819500Y38089500D01*
X20798678Y38032292D01*
X20745955Y38001852D01*
X20730500Y38000500D01*
X19299200Y38000500D01*
X19209864Y37991426D01*
X19152271Y37985576D01*
X19152269Y37985576D01*
X19147784Y37985120D01*
X19066059Y37959509D01*
X18958132Y37925687D01*
X18958130Y37925686D01*
X18953828Y37924338D01*
X18776056Y37825797D01*
X18621729Y37693523D01*
X18497152Y37532919D01*
X18495163Y37528878D01*
X18495163Y37528877D01*
X18473385Y37484619D01*
X18407413Y37350545D01*
X18406278Y37346188D01*
X18406277Y37346185D01*
X18371270Y37211791D01*
X18356178Y37153852D01*
X18355942Y37149354D01*
X18355942Y37149352D01*
X18345948Y36958631D01*
X18345541Y36950874D01*
X18375935Y36749903D01*
X18377490Y36745676D01*
X18377491Y36745673D01*
X18410987Y36654634D01*
X18446119Y36559148D01*
X18553226Y36386401D01*
X18692881Y36238720D01*
X18859379Y36122137D01*
X19045919Y36041414D01*
X19050331Y36040492D01*
X19050335Y36040491D01*
X19163038Y36016947D01*
X19244880Y35999849D01*
X19251539Y35999500D01*
X20730500Y35999500D01*
X20787708Y35978678D01*
X20818148Y35925955D01*
X20819500Y35910500D01*
X20819500Y35549500D01*
X20798678Y35492292D01*
X20745955Y35461852D01*
X20730500Y35460500D01*
X19299200Y35460500D01*
X19210634Y35451504D01*
X19152271Y35445576D01*
X19152269Y35445576D01*
X19147784Y35445120D01*
X19116005Y35435161D01*
X18958132Y35385687D01*
X18958130Y35385686D01*
X18953828Y35384338D01*
X18776056Y35285797D01*
X18621729Y35153523D01*
X18618970Y35149966D01*
X18618969Y35149965D01*
X18586601Y35108236D01*
X18497152Y34992919D01*
X18407413Y34810545D01*
X18406278Y34806188D01*
X18406277Y34806185D01*
X18383552Y34718941D01*
X18356178Y34613852D01*
X18355942Y34609354D01*
X18355942Y34609352D01*
X18350454Y34504619D01*
X18345541Y34410874D01*
X18375935Y34209903D01*
X18446119Y34019148D01*
X18553226Y33846401D01*
X18692881Y33698720D01*
X18859379Y33582137D01*
X19045919Y33501414D01*
X19050331Y33500492D01*
X19050335Y33500491D01*
X19163038Y33476947D01*
X19244880Y33459849D01*
X19251539Y33459500D01*
X20730500Y33459500D01*
X20787708Y33438678D01*
X20818148Y33385955D01*
X20819500Y33370500D01*
X20819500Y33009500D01*
X20798678Y32952292D01*
X20745955Y32921852D01*
X20730500Y32920500D01*
X19299200Y32920500D01*
X19209864Y32911426D01*
X19152271Y32905576D01*
X19152269Y32905576D01*
X19147784Y32905120D01*
X19138473Y32902202D01*
X18958132Y32845687D01*
X18958130Y32845686D01*
X18953828Y32844338D01*
X18776056Y32745797D01*
X18621729Y32613523D01*
X18497152Y32452919D01*
X18407413Y32270545D01*
X18406278Y32266188D01*
X18406277Y32266185D01*
X18373889Y32141847D01*
X18356178Y32073852D01*
X18355942Y32069354D01*
X18355942Y32069352D01*
X18348824Y31933512D01*
X18345541Y31870874D01*
X18375935Y31669903D01*
X18377490Y31665676D01*
X18377491Y31665673D01*
X18400401Y31603405D01*
X18446119Y31479148D01*
X18448493Y31475319D01*
X18448494Y31475317D01*
X18461786Y31453878D01*
X18474234Y31394285D01*
X18449077Y31344048D01*
X17953048Y30848019D01*
X17897872Y30822291D01*
X17890115Y30821952D01*
X17775587Y30821952D01*
X17718379Y30842774D01*
X17687939Y30895497D01*
X17698511Y30955452D01*
X17709603Y30970677D01*
X17773065Y31040789D01*
X17773067Y31040793D01*
X17777322Y31045493D01*
X17830167Y31154564D01*
X17830823Y31155917D01*
X17830824Y31155920D01*
X17833588Y31161625D01*
X17837616Y31185564D01*
X17854426Y31285488D01*
X17854997Y31288880D01*
X17855133Y31300000D01*
X17836839Y31427741D01*
X17783428Y31545212D01*
X17699193Y31642972D01*
X17590906Y31713159D01*
X17577388Y31717202D01*
X17473348Y31748317D01*
X17473349Y31748317D01*
X17467273Y31750134D01*
X17460934Y31750173D01*
X17460932Y31750173D01*
X17401448Y31750536D01*
X17338231Y31750922D01*
X17332138Y31749180D01*
X17332134Y31749180D01*
X17277314Y31733512D01*
X17214155Y31715461D01*
X17105019Y31646601D01*
X17019596Y31549878D01*
X16964754Y31433068D01*
X16963778Y31426803D01*
X16963778Y31426801D01*
X16950894Y31344048D01*
X16944901Y31305560D01*
X16954908Y31229035D01*
X16941679Y31169611D01*
X16929592Y31154564D01*
X14825652Y29050623D01*
X14822111Y29047566D01*
X14817731Y29045425D01*
X14812140Y29039398D01*
X14783979Y29009040D01*
X14781663Y29006634D01*
X14767752Y28992723D01*
X14765439Y28989352D01*
X14764629Y28988377D01*
X14761430Y28984733D01*
X14752861Y28975495D01*
X14741599Y28963354D01*
X14736922Y28951630D01*
X14727651Y28934267D01*
X14720508Y28923854D01*
X14718611Y28915860D01*
X14714189Y28897227D01*
X14710258Y28884798D01*
X14702444Y28865213D01*
X14702443Y28865207D01*
X14700117Y28859378D01*
X14699500Y28853085D01*
X14699500Y28845745D01*
X14697095Y28825195D01*
X14694660Y28814934D01*
X14695768Y28806792D01*
X14695768Y28806790D01*
X14698687Y28785344D01*
X14699500Y28773342D01*
X14699500Y27992357D01*
X14678678Y27935149D01*
X14625955Y27904709D01*
X14574221Y27911429D01*
X14570781Y27913659D01*
X14447148Y27950634D01*
X14440809Y27950673D01*
X14440807Y27950673D01*
X14381323Y27951036D01*
X14318106Y27951422D01*
X14312013Y27949680D01*
X14312009Y27949680D01*
X14241402Y27929500D01*
X14194030Y27915961D01*
X14084894Y27847101D01*
X14080696Y27842347D01*
X14080693Y27842345D01*
X14070748Y27831085D01*
X14017271Y27801989D01*
X14004040Y27801000D01*
X12260837Y27801000D01*
X12203629Y27821822D01*
X12197904Y27827067D01*
X10897539Y29127432D01*
X10871811Y29182608D01*
X10887567Y29241413D01*
X10937437Y29276332D01*
X10987012Y29275316D01*
X11005628Y29269500D01*
X11055154Y29268592D01*
X11128307Y29267251D01*
X11128309Y29267251D01*
X11134650Y29267135D01*
X11259150Y29301078D01*
X11369119Y29368599D01*
X11387588Y29389004D01*
X11441417Y29417444D01*
X11453572Y29418278D01*
X12864847Y29418278D01*
X12869511Y29417935D01*
X12874120Y29416353D01*
X12882329Y29416661D01*
X12882330Y29416661D01*
X12923726Y29418215D01*
X12927064Y29418278D01*
X12946726Y29418278D01*
X12950751Y29419027D01*
X12952026Y29419145D01*
X12956855Y29419458D01*
X12985986Y29420552D01*
X12993533Y29423794D01*
X12993536Y29423795D01*
X12997588Y29425536D01*
X13016423Y29431258D01*
X13020752Y29432064D01*
X13020754Y29432065D01*
X13028831Y29433569D01*
X13052130Y29447930D01*
X13063697Y29453939D01*
X13083064Y29462260D01*
X13088841Y29464742D01*
X13093727Y29468756D01*
X13098916Y29473945D01*
X13115146Y29486774D01*
X13117131Y29487998D01*
X13117132Y29487998D01*
X13124126Y29492310D01*
X13142198Y29516076D01*
X13150109Y29525138D01*
X13974352Y30349381D01*
X13977889Y30352434D01*
X13982269Y30354575D01*
X14016022Y30390961D01*
X14018337Y30393366D01*
X14032248Y30407277D01*
X14034561Y30410648D01*
X14035371Y30411623D01*
X14038570Y30415267D01*
X14052815Y30430624D01*
X14058401Y30436646D01*
X14063080Y30448374D01*
X14072349Y30465733D01*
X14079492Y30476146D01*
X14085811Y30502773D01*
X14089742Y30515202D01*
X14097556Y30534787D01*
X14097557Y30534793D01*
X14099883Y30540622D01*
X14100500Y30546915D01*
X14100500Y30554255D01*
X14102905Y30574805D01*
X14103442Y30577069D01*
X14105340Y30585066D01*
X14101313Y30614656D01*
X14100500Y30626658D01*
X14100500Y31426324D01*
X14123515Y31486048D01*
X14177322Y31545493D01*
X14200012Y31592324D01*
X14230823Y31655917D01*
X14230824Y31655920D01*
X14233588Y31661625D01*
X14235731Y31674360D01*
X14250439Y31761787D01*
X14254997Y31788880D01*
X14255133Y31800000D01*
X14236839Y31927741D01*
X14183428Y32045212D01*
X14099193Y32142972D01*
X13990906Y32213159D01*
X13977388Y32217202D01*
X13882998Y32245431D01*
X13867273Y32250134D01*
X13860934Y32250173D01*
X13860932Y32250173D01*
X13801448Y32250536D01*
X13738231Y32250922D01*
X13732138Y32249180D01*
X13732134Y32249180D01*
X13637728Y32222198D01*
X13614155Y32215461D01*
X13505019Y32146601D01*
X13457837Y32093178D01*
X13424376Y32055290D01*
X13419596Y32049878D01*
X13364754Y31933068D01*
X13363778Y31926803D01*
X13363778Y31926801D01*
X13351075Y31845212D01*
X13344901Y31805560D01*
X13361633Y31677606D01*
X13413605Y31559490D01*
X13430460Y31539439D01*
X13478628Y31482136D01*
X13499500Y31424868D01*
X13499500Y30761337D01*
X13478678Y30704129D01*
X13473433Y30698404D01*
X12820374Y30045345D01*
X12765198Y30019617D01*
X12757441Y30019278D01*
X11454978Y30019278D01*
X11397770Y30040100D01*
X11387559Y30050178D01*
X11377588Y30061750D01*
X11269301Y30131937D01*
X11255783Y30135980D01*
X11151743Y30167095D01*
X11151744Y30167095D01*
X11145668Y30168912D01*
X11139329Y30168951D01*
X11139327Y30168951D01*
X11079843Y30169314D01*
X11016626Y30169700D01*
X11010533Y30167958D01*
X11010529Y30167958D01*
X10926231Y30143865D01*
X10892550Y30134239D01*
X10783414Y30065379D01*
X10697991Y29968656D01*
X10643149Y29851846D01*
X10642173Y29845581D01*
X10642173Y29845579D01*
X10625951Y29741390D01*
X10596576Y29688066D01*
X10539797Y29666100D01*
X10482183Y29685770D01*
X10450691Y29737871D01*
X10449011Y29755082D01*
X10449011Y31226324D01*
X10472026Y31286048D01*
X10525833Y31345493D01*
X10544259Y31383523D01*
X10579334Y31455917D01*
X10579335Y31455920D01*
X10582099Y31461625D01*
X10603508Y31588880D01*
X10603644Y31600000D01*
X10585350Y31727741D01*
X10531939Y31845212D01*
X10447704Y31942972D01*
X10339417Y32013159D01*
X10215784Y32050134D01*
X10209446Y32050173D01*
X10209444Y32050173D01*
X10168324Y32050424D01*
X10126487Y32050679D01*
X10069408Y32071849D01*
X10039290Y32124758D01*
X10050228Y32184647D01*
X10064098Y32202610D01*
X10081551Y32220063D01*
X10136727Y32245791D01*
X10146109Y32246115D01*
X10167954Y32245714D01*
X10183388Y32245431D01*
X10183390Y32245431D01*
X10189730Y32245315D01*
X10314230Y32279258D01*
X10424199Y32346779D01*
X10428450Y32351475D01*
X10428452Y32351477D01*
X10506543Y32437751D01*
X10506544Y32437752D01*
X10510797Y32442451D01*
X10532202Y32486630D01*
X10564298Y32552875D01*
X10564299Y32552878D01*
X10567063Y32558583D01*
X10588472Y32685838D01*
X10588608Y32696958D01*
X10571967Y32813159D01*
X10571213Y32818423D01*
X10571213Y32818424D01*
X10570314Y32824699D01*
X10527233Y32919450D01*
X10519528Y32936397D01*
X10519527Y32936398D01*
X10516903Y32942170D01*
X10432668Y33039930D01*
X10324381Y33110117D01*
X10310863Y33114160D01*
X10206823Y33145275D01*
X10206824Y33145275D01*
X10200748Y33147092D01*
X10194409Y33147131D01*
X10194407Y33147131D01*
X10134923Y33147494D01*
X10071706Y33147880D01*
X10065613Y33146138D01*
X10065609Y33146138D01*
X9971203Y33119156D01*
X9947630Y33112419D01*
X9838494Y33043559D01*
X9831043Y33035122D01*
X9757890Y32952292D01*
X9753071Y32946836D01*
X9698229Y32830026D01*
X9697253Y32823761D01*
X9697253Y32823759D01*
X9684041Y32738900D01*
X9678376Y32702518D01*
X9678512Y32701474D01*
X9657766Y32646575D01*
X9653227Y32641681D01*
X9651935Y32640389D01*
X9596759Y32614661D01*
X9537954Y32630417D01*
X9503035Y32680287D01*
X9500002Y32703322D01*
X9500002Y34758318D01*
X9501354Y34773771D01*
X9503286Y34784729D01*
X9503286Y34784730D01*
X9504638Y34792398D01*
X9503286Y34800066D01*
X9503286Y34807851D01*
X9504060Y34807851D01*
X9503771Y34821031D01*
X9505270Y34832418D01*
X9511282Y34854855D01*
X9522246Y34881326D01*
X9533861Y34901443D01*
X9540846Y34910546D01*
X9550375Y34919667D01*
X9549828Y34920214D01*
X9555332Y34925718D01*
X9561713Y34930186D01*
X9572558Y34945674D01*
X9582529Y34957558D01*
X9748076Y35123105D01*
X9803252Y35148833D01*
X9812634Y35149157D01*
X9834479Y35148756D01*
X9849913Y35148473D01*
X9849915Y35148473D01*
X9856255Y35148357D01*
X9980755Y35182300D01*
X10090724Y35249821D01*
X10094975Y35254517D01*
X10094977Y35254519D01*
X10173068Y35340793D01*
X10173069Y35340794D01*
X10177322Y35345493D01*
X10195083Y35382151D01*
X10230823Y35455917D01*
X10230824Y35455920D01*
X10233588Y35461625D01*
X10235592Y35473532D01*
X10248372Y35549500D01*
X10254997Y35588880D01*
X10255133Y35600000D01*
X10240016Y35705560D01*
X10237738Y35721465D01*
X10237738Y35721466D01*
X10236839Y35727741D01*
X10183428Y35845212D01*
X10164578Y35867089D01*
X10103336Y35938164D01*
X10103335Y35938165D01*
X10099193Y35942972D01*
X9990906Y36013159D01*
X9918405Y36034842D01*
X9869562Y36071183D01*
X9855506Y36130418D01*
X9861680Y36154163D01*
X9862332Y36155738D01*
X9862336Y36155749D01*
X9863673Y36158978D01*
X9882817Y36238720D01*
X9892270Y36278098D01*
X9892270Y36278101D01*
X9893086Y36281498D01*
X9897414Y36336499D01*
X9898760Y36344913D01*
X9899883Y36347729D01*
X9900500Y36354022D01*
X9900500Y36372224D01*
X9900776Y36379222D01*
X9900891Y36380680D01*
X9901967Y36389135D01*
X9903784Y36399441D01*
X9903784Y36399443D01*
X9905136Y36407111D01*
X9901852Y36425735D01*
X9900500Y36441190D01*
X9900500Y38826324D01*
X9923515Y38886048D01*
X9977322Y38945493D01*
X9986376Y38964181D01*
X10030823Y39055917D01*
X10030824Y39055920D01*
X10033588Y39061625D01*
X10040613Y39103378D01*
X10054426Y39185488D01*
X10054997Y39188880D01*
X10055133Y39200000D01*
X10036839Y39327741D01*
X9983428Y39445212D01*
X9899193Y39542972D01*
X9790906Y39613159D01*
X9777388Y39617202D01*
X9673348Y39648317D01*
X9673349Y39648317D01*
X9667273Y39650134D01*
X9660934Y39650173D01*
X9660932Y39650173D01*
X9601448Y39650536D01*
X9538231Y39650922D01*
X9532138Y39649180D01*
X9532134Y39649180D01*
X9463014Y39629425D01*
X9414155Y39615461D01*
X9316991Y39554155D01*
X9257499Y39541238D01*
X9203621Y39569584D01*
X9180500Y39629425D01*
X9180500Y40169748D01*
X9168867Y40228231D01*
X9124552Y40294552D01*
X9058231Y40338867D01*
X9049631Y40340578D01*
X9049630Y40340578D01*
X9004031Y40349648D01*
X9004032Y40349648D01*
X8999748Y40350500D01*
X6960252Y40350500D01*
X6955968Y40349648D01*
X6955969Y40349648D01*
X6910370Y40340578D01*
X6910369Y40340578D01*
X6901769Y40338867D01*
X6835448Y40294552D01*
X6791133Y40228231D01*
X6779500Y40169748D01*
X6779500Y38630252D01*
X6791133Y38571769D01*
X6835448Y38505448D01*
X6901769Y38461133D01*
X6910369Y38459422D01*
X6910370Y38459422D01*
X6943507Y38452831D01*
X6960252Y38449500D01*
X8999748Y38449500D01*
X9016493Y38452831D01*
X9049630Y38459422D01*
X9049631Y38459422D01*
X9058231Y38461133D01*
X9124552Y38505448D01*
X9136501Y38523331D01*
X9185596Y38559328D01*
X9246345Y38555345D01*
X9290322Y38513246D01*
X9299500Y38473883D01*
X9299500Y38168098D01*
X9278678Y38110890D01*
X9225955Y38080450D01*
X9166000Y38091022D01*
X9160218Y38094663D01*
X9144909Y38105145D01*
X9056332Y38144305D01*
X9043562Y38147786D01*
X9027141Y38149701D01*
X9021991Y38150000D01*
X8145694Y38150000D01*
X8133671Y38145624D01*
X8130000Y38139266D01*
X8130000Y36065694D01*
X8134376Y36053671D01*
X8140734Y36050000D01*
X8810163Y36050000D01*
X8867371Y36029178D01*
X8897811Y35976455D01*
X8887239Y35916500D01*
X8873096Y35898067D01*
X8658054Y35683025D01*
X8646174Y35673057D01*
X8630681Y35662209D01*
X8626215Y35655831D01*
X8626214Y35655830D01*
X8620268Y35647338D01*
X8615041Y35640587D01*
X8573822Y35592324D01*
X8550375Y35564871D01*
X8514520Y35506360D01*
X8487108Y35461625D01*
X8484540Y35457435D01*
X8459873Y35397883D01*
X8444476Y35360709D01*
X8436322Y35341024D01*
X8435508Y35337633D01*
X8435506Y35337627D01*
X8421192Y35278000D01*
X8406909Y35218503D01*
X8406635Y35215023D01*
X8406635Y35215022D01*
X8402579Y35163475D01*
X8401236Y35155076D01*
X8400117Y35152271D01*
X8399500Y35145978D01*
X8399500Y35127838D01*
X8399224Y35120835D01*
X8399100Y35119264D01*
X8398024Y35110814D01*
X8396552Y35102463D01*
X8394864Y35092889D01*
X8396216Y35085222D01*
X8398148Y35074265D01*
X8399500Y35058810D01*
X8399500Y32805966D01*
X8378678Y32748758D01*
X8325955Y32718318D01*
X8266000Y32728890D01*
X8252538Y32738510D01*
X8248693Y32742972D01*
X8140406Y32813159D01*
X8016773Y32850134D01*
X8010434Y32850173D01*
X8010432Y32850173D01*
X7950948Y32850536D01*
X7887731Y32850922D01*
X7881638Y32849180D01*
X7881634Y32849180D01*
X7767737Y32816628D01*
X7707009Y32820928D01*
X7663253Y32863257D01*
X7654280Y32902202D01*
X7654280Y34489348D01*
X7677295Y34549072D01*
X7731102Y34608517D01*
X7740695Y34628317D01*
X7784603Y34718941D01*
X7784604Y34718944D01*
X7787368Y34724649D01*
X7793033Y34758318D01*
X7803583Y34821031D01*
X7808777Y34851904D01*
X7808913Y34863024D01*
X7790619Y34990765D01*
X7752654Y35074265D01*
X7739833Y35102463D01*
X7739832Y35102464D01*
X7737208Y35108236D01*
X7652973Y35205996D01*
X7544686Y35276183D01*
X7531168Y35280226D01*
X7427128Y35311341D01*
X7427129Y35311341D01*
X7421053Y35313158D01*
X7414714Y35313197D01*
X7414712Y35313197D01*
X7355228Y35313560D01*
X7292011Y35313946D01*
X7285918Y35312204D01*
X7285914Y35312204D01*
X7217742Y35292720D01*
X7167935Y35278485D01*
X7058799Y35209625D01*
X7033194Y35180633D01*
X6978995Y35119264D01*
X6973376Y35112902D01*
X6918534Y34996092D01*
X6917558Y34989827D01*
X6917558Y34989825D01*
X6902350Y34892148D01*
X6898681Y34868584D01*
X6899503Y34862300D01*
X6908644Y34792398D01*
X6915413Y34740630D01*
X6967385Y34622514D01*
X7029118Y34549074D01*
X7032408Y34545160D01*
X7053280Y34487892D01*
X7053280Y30987415D01*
X7051927Y30971955D01*
X7049996Y30961011D01*
X7049996Y30961008D01*
X7048644Y30953343D01*
X7049996Y30945673D01*
X7051804Y30935412D01*
X7052881Y30926942D01*
X7053573Y30918148D01*
X7060684Y30827729D01*
X7061498Y30824338D01*
X7061500Y30824328D01*
X7073347Y30774972D01*
X7090092Y30705206D01*
X7138303Y30588792D01*
X7204133Y30481354D01*
X7222779Y30459519D01*
X7240083Y30439255D01*
X7245017Y30432442D01*
X7246190Y30429711D01*
X7250204Y30424825D01*
X7262815Y30412214D01*
X7267550Y30407091D01*
X7268923Y30405484D01*
X7274157Y30398724D01*
X7279593Y30390960D01*
X7284448Y30384025D01*
X7286999Y30382238D01*
X7288787Y30379685D01*
X7295156Y30375226D01*
X7296305Y30374076D01*
X7296327Y30374058D01*
X7300672Y30369713D01*
X7300126Y30369167D01*
X7309658Y30360042D01*
X7316640Y30350943D01*
X7328255Y30330826D01*
X7339219Y30304355D01*
X7345230Y30281920D01*
X7346612Y30271430D01*
X7346730Y30270531D01*
X7346441Y30257351D01*
X7347215Y30257351D01*
X7347215Y30249566D01*
X7345863Y30241898D01*
X7347215Y30234230D01*
X7347215Y30234229D01*
X7349147Y30223271D01*
X7350499Y30207818D01*
X7350499Y28710492D01*
X7329677Y28653284D01*
X7276954Y28622844D01*
X7236000Y28625224D01*
X7167273Y28645778D01*
X7160934Y28645817D01*
X7160932Y28645817D01*
X7110816Y28646123D01*
X7053736Y28667294D01*
X7048428Y28672188D01*
X6783021Y28937594D01*
X6773052Y28949473D01*
X6762195Y28964976D01*
X6755818Y28969440D01*
X6750311Y28974947D01*
X6750858Y28975495D01*
X6741340Y28984603D01*
X6734335Y28993731D01*
X6722724Y29013839D01*
X6711753Y29040317D01*
X6705739Y29062757D01*
X6704253Y29074039D01*
X6704540Y29087325D01*
X6703786Y29087325D01*
X6703785Y29095114D01*
X6705136Y29102781D01*
X6701854Y29121385D01*
X6700500Y29136846D01*
X6700500Y32026324D01*
X6723515Y32086048D01*
X6777322Y32145493D01*
X6808435Y32209710D01*
X6830823Y32255917D01*
X6830824Y32255920D01*
X6833588Y32261625D01*
X6854997Y32388880D01*
X6855133Y32400000D01*
X6836839Y32527741D01*
X6783428Y32645212D01*
X6734050Y32702518D01*
X6703336Y32738164D01*
X6703335Y32738165D01*
X6699193Y32742972D01*
X6590906Y32813159D01*
X6467273Y32850134D01*
X6460934Y32850173D01*
X6460932Y32850173D01*
X6401448Y32850536D01*
X6338231Y32850922D01*
X6332138Y32849180D01*
X6332134Y32849180D01*
X6264456Y32829837D01*
X6203729Y32834137D01*
X6159972Y32876466D01*
X6150999Y32915411D01*
X6150999Y36308057D01*
X6680000Y36308057D01*
X6680311Y36302816D01*
X6682323Y36285904D01*
X6685824Y36273166D01*
X6725144Y36184642D01*
X6734293Y36171331D01*
X6801757Y36103984D01*
X6815092Y36094855D01*
X6903668Y36055695D01*
X6916438Y36052214D01*
X6932859Y36050299D01*
X6938009Y36050000D01*
X7814306Y36050000D01*
X7826329Y36054376D01*
X7830000Y36060734D01*
X7830000Y36934306D01*
X7825624Y36946329D01*
X7819266Y36950000D01*
X6695694Y36950000D01*
X6683671Y36945624D01*
X6680000Y36939266D01*
X6680000Y36308057D01*
X6150999Y36308057D01*
X6150999Y37265694D01*
X6680000Y37265694D01*
X6684376Y37253671D01*
X6690734Y37250000D01*
X7814306Y37250000D01*
X7826329Y37254376D01*
X7830000Y37260734D01*
X7830000Y38134306D01*
X7825624Y38146329D01*
X7819266Y38150000D01*
X6938057Y38150000D01*
X6932816Y38149689D01*
X6915904Y38147677D01*
X6903166Y38144176D01*
X6814642Y38104856D01*
X6801331Y38095707D01*
X6733984Y38028243D01*
X6724855Y38014908D01*
X6685695Y37926332D01*
X6682214Y37913562D01*
X6680299Y37897141D01*
X6680000Y37891991D01*
X6680000Y37265694D01*
X6150999Y37265694D01*
X6150999Y42418443D01*
X6151342Y42423107D01*
X6152924Y42427716D01*
X6151062Y42477323D01*
X6150999Y42480661D01*
X6150999Y42500322D01*
X6150250Y42504347D01*
X6150132Y42505622D01*
X6149818Y42510463D01*
X6149428Y42520852D01*
X6148725Y42539583D01*
X6145482Y42547131D01*
X6145481Y42547135D01*
X6143743Y42551179D01*
X6138018Y42570022D01*
X6137212Y42574349D01*
X6135708Y42582427D01*
X6121347Y42605726D01*
X6115338Y42617293D01*
X6107017Y42636660D01*
X6104535Y42642437D01*
X6100521Y42647323D01*
X6095332Y42652512D01*
X6082503Y42668742D01*
X6081279Y42670727D01*
X6081279Y42670728D01*
X6076967Y42677722D01*
X6053201Y42695794D01*
X6044139Y42703705D01*
X5689130Y43058714D01*
X5663402Y43113890D01*
X5679158Y43172695D01*
X5705490Y43197487D01*
X5790724Y43249821D01*
X5794975Y43254517D01*
X5794977Y43254519D01*
X5873068Y43340793D01*
X5873069Y43340794D01*
X5877322Y43345493D01*
X5883968Y43359211D01*
X5930823Y43455917D01*
X5930824Y43455920D01*
X5933588Y43461625D01*
X5954997Y43588880D01*
X5955133Y43600000D01*
X5936839Y43727741D01*
X5907094Y43793162D01*
X5886053Y43839439D01*
X5886052Y43839440D01*
X5883428Y43845212D01*
X5834993Y43901424D01*
X5803336Y43938164D01*
X5803335Y43938165D01*
X5799193Y43942972D01*
X5690906Y44013159D01*
X5663999Y44021206D01*
X5615156Y44057546D01*
X5600500Y44106474D01*
X5600500Y44351961D01*
X5621322Y44409169D01*
X5674045Y44439609D01*
X5734000Y44429037D01*
X5745025Y44421517D01*
X5757120Y44411862D01*
X5765480Y44406597D01*
X5918105Y44332815D01*
X5927443Y44329527D01*
X6024709Y44307071D01*
X6037406Y44308630D01*
X6039716Y44311107D01*
X6040000Y44312502D01*
X6040000Y44319235D01*
X6340000Y44319235D01*
X6344376Y44307212D01*
X6347308Y44305519D01*
X6348730Y44305556D01*
X6452557Y44329527D01*
X6461895Y44332815D01*
X6614520Y44406597D01*
X6622886Y44411866D01*
X6755368Y44517624D01*
X6762376Y44524632D01*
X6868134Y44657114D01*
X6873403Y44665480D01*
X6947188Y44818111D01*
X6950472Y44827436D01*
X6988878Y44993790D01*
X6989933Y45001156D01*
X6990000Y45003492D01*
X6990000Y45224306D01*
X6985624Y45236329D01*
X6979266Y45240000D01*
X6355694Y45240000D01*
X6343671Y45235624D01*
X6340000Y45229266D01*
X6340000Y44319235D01*
X6040000Y44319235D01*
X6040000Y45555694D01*
X6340000Y45555694D01*
X6344376Y45543671D01*
X6350734Y45540000D01*
X6974305Y45540000D01*
X6986328Y45544376D01*
X6989999Y45550734D01*
X6989999Y45776509D01*
X6989932Y45778847D01*
X6988879Y45786204D01*
X6950472Y45952564D01*
X6947188Y45961889D01*
X6873403Y46114520D01*
X6868134Y46122886D01*
X6762376Y46255368D01*
X6755368Y46262376D01*
X6622886Y46368134D01*
X6614520Y46373403D01*
X6461895Y46447185D01*
X6452557Y46450473D01*
X6355291Y46472929D01*
X6342594Y46471370D01*
X6340284Y46468893D01*
X6340000Y46467498D01*
X6340000Y45555694D01*
X6040000Y45555694D01*
X6040000Y46460765D01*
X6035624Y46472788D01*
X6032692Y46474481D01*
X6031270Y46474444D01*
X5927443Y46450473D01*
X5918105Y46447185D01*
X5765480Y46373403D01*
X5757120Y46368138D01*
X5745025Y46358483D01*
X5687325Y46339066D01*
X5630643Y46361280D01*
X5601501Y46414731D01*
X5600500Y46428039D01*
X5600500Y47373664D01*
X5621322Y47430872D01*
X5626568Y47436597D01*
X5863405Y47673433D01*
X5918580Y47699161D01*
X5926337Y47699500D01*
X7120433Y47699500D01*
X7177641Y47678678D01*
X7208081Y47625955D01*
X7197509Y47566000D01*
X7188611Y47553291D01*
X7162962Y47522724D01*
X7158067Y47515575D01*
X7065424Y47347059D01*
X7062011Y47339096D01*
X7003861Y47155785D01*
X7002062Y47147319D01*
X6980625Y46956205D01*
X6980504Y46947546D01*
X6996597Y46755908D01*
X6998161Y46747388D01*
X7051167Y46562531D01*
X7054356Y46554477D01*
X7142260Y46383435D01*
X7146955Y46376149D01*
X7176808Y46338484D01*
X7187702Y46331782D01*
X7192921Y46332553D01*
X8610859Y47750491D01*
X8616265Y47762084D01*
X8614815Y47767493D01*
X8589298Y47788603D01*
X8582120Y47793445D01*
X8412960Y47884909D01*
X8404964Y47888270D01*
X8221262Y47945135D01*
X8212768Y47946879D01*
X8021524Y47966980D01*
X8008499Y47967071D01*
X8008512Y47968860D01*
X7955885Y47982768D01*
X7920795Y48032517D01*
X7925893Y48093183D01*
X7943751Y48118780D01*
X8177787Y48352815D01*
X8698405Y48873433D01*
X8753580Y48899161D01*
X8761337Y48899500D01*
X12038663Y48899500D01*
X12095871Y48878678D01*
G37*
G04 #@! TD.AperFunction*
G04 #@! TA.AperFunction,NonConductor*
G36*
X2697965Y28977064D02*
G01*
X3196446Y28478582D01*
X3673433Y28001595D01*
X3699161Y27946420D01*
X3699500Y27938663D01*
X3699500Y26340337D01*
X3678678Y26283129D01*
X3625955Y26252689D01*
X3566000Y26263261D01*
X3547567Y26277404D01*
X2810619Y27014352D01*
X2807566Y27017889D01*
X2805425Y27022269D01*
X2769039Y27056022D01*
X2766634Y27058337D01*
X2752723Y27072248D01*
X2749352Y27074561D01*
X2748377Y27075371D01*
X2744733Y27078570D01*
X2729376Y27092815D01*
X2723354Y27098401D01*
X2711626Y27103080D01*
X2694267Y27112349D01*
X2683854Y27119492D01*
X2674485Y27121715D01*
X2657227Y27125811D01*
X2644805Y27129739D01*
X2640257Y27131553D01*
X2594833Y27172088D01*
X2589703Y27183489D01*
X2588438Y27186927D01*
X2553881Y27280852D01*
X2446774Y27453599D01*
X2307119Y27601280D01*
X2140621Y27717863D01*
X1954081Y27798586D01*
X1949669Y27799508D01*
X1949665Y27799509D01*
X1833527Y27823771D01*
X1755120Y27840151D01*
X1748461Y27840500D01*
X269500Y27840500D01*
X212292Y27861322D01*
X181852Y27914045D01*
X180500Y27929500D01*
X180500Y28290500D01*
X201322Y28347708D01*
X254045Y28378148D01*
X269500Y28379500D01*
X1700800Y28379500D01*
X1790136Y28388574D01*
X1847729Y28394424D01*
X1847731Y28394424D01*
X1852216Y28394880D01*
X2021544Y28447944D01*
X2041868Y28454313D01*
X2041870Y28454314D01*
X2046172Y28455662D01*
X2223944Y28554203D01*
X2378271Y28686477D01*
X2389999Y28701596D01*
X2484115Y28822931D01*
X2502848Y28847081D01*
X2504834Y28851118D01*
X2504837Y28851122D01*
X2547386Y28937594D01*
X2555176Y28953426D01*
X2599116Y28995563D01*
X2659862Y28999598D01*
X2697965Y28977064D01*
G37*
G04 #@! TD.AperFunction*
G04 #@! TA.AperFunction,NonConductor*
G36*
X18434006Y26405026D02*
G01*
X18458598Y26379021D01*
X18553226Y26226401D01*
X18692881Y26078720D01*
X18859379Y25962137D01*
X19045919Y25881414D01*
X19050331Y25880492D01*
X19050335Y25880491D01*
X19163038Y25856947D01*
X19244880Y25839849D01*
X19251539Y25839500D01*
X20730500Y25839500D01*
X20787708Y25818678D01*
X20818148Y25765955D01*
X20819500Y25750500D01*
X20819500Y25389500D01*
X20798678Y25332292D01*
X20745955Y25301852D01*
X20730500Y25300500D01*
X19299200Y25300500D01*
X19209864Y25291426D01*
X19152271Y25285576D01*
X19152269Y25285576D01*
X19147784Y25285120D01*
X19072527Y25261536D01*
X18958132Y25225687D01*
X18958130Y25225686D01*
X18953828Y25224338D01*
X18776056Y25125797D01*
X18621729Y24993523D01*
X18497152Y24832919D01*
X18407413Y24650545D01*
X18406278Y24646188D01*
X18406277Y24646185D01*
X18372226Y24515461D01*
X18356178Y24453852D01*
X18355942Y24449354D01*
X18355942Y24449352D01*
X18350737Y24350019D01*
X18345541Y24250874D01*
X18375935Y24049903D01*
X18377490Y24045676D01*
X18377491Y24045673D01*
X18397179Y23992163D01*
X18446119Y23859148D01*
X18553226Y23686401D01*
X18692881Y23538720D01*
X18859379Y23422137D01*
X19045919Y23341414D01*
X19050331Y23340492D01*
X19050335Y23340491D01*
X19163038Y23316947D01*
X19244880Y23299849D01*
X19251539Y23299500D01*
X20730500Y23299500D01*
X20787708Y23278678D01*
X20818148Y23225955D01*
X20819500Y23210500D01*
X20819500Y22949000D01*
X20798678Y22891792D01*
X20745955Y22861352D01*
X20730500Y22860000D01*
X19565694Y22860000D01*
X19553671Y22855624D01*
X19550000Y22849266D01*
X19550000Y21925694D01*
X19554376Y21913671D01*
X19560734Y21910000D01*
X20730500Y21910000D01*
X20787708Y21889178D01*
X20818148Y21836455D01*
X20819500Y21821000D01*
X20819500Y21699000D01*
X20798678Y21641792D01*
X20745955Y21611352D01*
X20730500Y21610000D01*
X19565694Y21610000D01*
X19553671Y21605624D01*
X19550000Y21599266D01*
X19550000Y20675694D01*
X19554376Y20663671D01*
X19560734Y20660000D01*
X20730500Y20660000D01*
X20787708Y20639178D01*
X20818148Y20586455D01*
X20819500Y20571000D01*
X20819500Y20309500D01*
X20798678Y20252292D01*
X20745955Y20221852D01*
X20730500Y20220500D01*
X19299200Y20220500D01*
X19209864Y20211426D01*
X19152271Y20205576D01*
X19152269Y20205576D01*
X19147784Y20205120D01*
X19068063Y20180137D01*
X18958132Y20145687D01*
X18958130Y20145686D01*
X18953828Y20144338D01*
X18893799Y20111063D01*
X18796617Y20057194D01*
X18776056Y20045797D01*
X18621729Y19913523D01*
X18497152Y19752919D01*
X18407413Y19570545D01*
X18406278Y19566188D01*
X18406277Y19566185D01*
X18375626Y19448514D01*
X18341056Y19398402D01*
X18282362Y19382235D01*
X18227008Y19407578D01*
X18200895Y19462573D01*
X18200500Y19470948D01*
X18200500Y21219744D01*
X18221322Y21276952D01*
X18274045Y21307392D01*
X18334000Y21296820D01*
X18370519Y21256581D01*
X18390323Y21213025D01*
X18394528Y21205713D01*
X18511066Y21041424D01*
X18516577Y21035038D01*
X18662085Y20895745D01*
X18668696Y20890524D01*
X18837914Y20781261D01*
X18845413Y20777374D01*
X19032234Y20702083D01*
X19040316Y20699689D01*
X19237535Y20661175D01*
X19246329Y20664376D01*
X19250000Y20670734D01*
X19250000Y21594306D01*
X19245624Y21606329D01*
X19239266Y21610000D01*
X19159000Y21610000D01*
X19101792Y21630822D01*
X19071352Y21683545D01*
X19070000Y21699000D01*
X19070000Y21821000D01*
X19090822Y21878208D01*
X19143545Y21908648D01*
X19159000Y21910000D01*
X19234306Y21910000D01*
X19246329Y21914376D01*
X19250000Y21920734D01*
X19250000Y22839769D01*
X19245624Y22851792D01*
X19240788Y22854584D01*
X19145261Y22845470D01*
X19136989Y22843877D01*
X18943699Y22787173D01*
X18935875Y22784043D01*
X18756794Y22691811D01*
X18749701Y22687256D01*
X18591305Y22562834D01*
X18585189Y22557010D01*
X18453175Y22404878D01*
X18448277Y22398010D01*
X18366537Y22256719D01*
X18319867Y22217627D01*
X18258987Y22217680D01*
X18212385Y22256853D01*
X18200500Y22301286D01*
X18200500Y23218681D01*
X18200843Y23223345D01*
X18202425Y23227954D01*
X18200563Y23277560D01*
X18200500Y23280898D01*
X18200500Y23300560D01*
X18199751Y23304585D01*
X18199633Y23305860D01*
X18199319Y23310701D01*
X18199180Y23314424D01*
X18198226Y23339820D01*
X18194984Y23347367D01*
X18194983Y23347370D01*
X18193242Y23351422D01*
X18187520Y23370257D01*
X18186714Y23374586D01*
X18186713Y23374588D01*
X18185209Y23382665D01*
X18170848Y23405964D01*
X18164839Y23417531D01*
X18156518Y23436898D01*
X18154036Y23442675D01*
X18150022Y23447561D01*
X18144833Y23452750D01*
X18132004Y23468980D01*
X18130780Y23470965D01*
X18130780Y23470966D01*
X18126468Y23477960D01*
X18102702Y23496032D01*
X18093640Y23503943D01*
X18078301Y23519282D01*
X18053071Y23575002D01*
X18052784Y23574961D01*
X18052643Y23575949D01*
X18052642Y23575951D01*
X18037294Y23683126D01*
X18035389Y23696426D01*
X18035389Y23696427D01*
X18034490Y23702702D01*
X17999946Y23778678D01*
X17983704Y23814400D01*
X17983703Y23814401D01*
X17981079Y23820173D01*
X17896844Y23917933D01*
X17788557Y23988120D01*
X17775039Y23992163D01*
X17670999Y24023278D01*
X17671000Y24023278D01*
X17664924Y24025095D01*
X17658585Y24025134D01*
X17658583Y24025134D01*
X17599099Y24025497D01*
X17535882Y24025883D01*
X17529789Y24024141D01*
X17529785Y24024141D01*
X17443569Y23999500D01*
X17411806Y23990422D01*
X17302670Y23921562D01*
X17217247Y23824839D01*
X17162405Y23708029D01*
X17157217Y23674711D01*
X17127844Y23621390D01*
X17068735Y23599407D01*
X16981013Y23599943D01*
X16974920Y23598201D01*
X16974916Y23598201D01*
X16898763Y23576436D01*
X16856937Y23564482D01*
X16747801Y23495622D01*
X16726952Y23472015D01*
X16668617Y23405963D01*
X16662378Y23398899D01*
X16607536Y23282089D01*
X16606560Y23275824D01*
X16606560Y23275822D01*
X16596390Y23210500D01*
X16587683Y23154581D01*
X16604415Y23026627D01*
X16656387Y22908511D01*
X16660466Y22903659D01*
X16660651Y22903361D01*
X16673204Y22843790D01*
X16651802Y22797417D01*
X16570576Y22705447D01*
X16515734Y22588637D01*
X16514758Y22582372D01*
X16514758Y22582370D01*
X16504737Y22518005D01*
X16495881Y22461129D01*
X16503237Y22404878D01*
X16509987Y22353260D01*
X16512613Y22333175D01*
X16564585Y22215059D01*
X16647619Y22116278D01*
X16683806Y22092190D01*
X16755040Y22044773D01*
X16754100Y22043360D01*
X16791486Y22005316D01*
X16799500Y21968408D01*
X16799500Y21653875D01*
X16778678Y21596667D01*
X16725955Y21566227D01*
X16666000Y21576799D01*
X16647567Y21590942D01*
X16282775Y21955734D01*
X16257545Y22011454D01*
X16257258Y22011413D01*
X16257117Y22012401D01*
X16257116Y22012403D01*
X16242882Y22111794D01*
X16239863Y22132878D01*
X16239863Y22132879D01*
X16238964Y22139154D01*
X16189968Y22246915D01*
X16188178Y22250852D01*
X16188177Y22250853D01*
X16185553Y22256625D01*
X16161047Y22285066D01*
X16105461Y22349577D01*
X16105460Y22349578D01*
X16101318Y22354385D01*
X15993031Y22424572D01*
X15984248Y22427199D01*
X15875473Y22459730D01*
X15875474Y22459730D01*
X15869398Y22461547D01*
X15863059Y22461586D01*
X15863057Y22461586D01*
X15803573Y22461949D01*
X15740356Y22462335D01*
X15734263Y22460593D01*
X15734259Y22460593D01*
X15639853Y22433611D01*
X15616280Y22426874D01*
X15507144Y22358014D01*
X15462664Y22307650D01*
X15456208Y22300340D01*
X15402732Y22271244D01*
X15343064Y22283329D01*
X15305124Y22330941D01*
X15300500Y22359255D01*
X15300500Y25550570D01*
X15321322Y25607778D01*
X15374045Y25638218D01*
X15438816Y25624657D01*
X15480387Y25596985D01*
X15480390Y25596983D01*
X15485670Y25593469D01*
X15491723Y25591578D01*
X15491725Y25591577D01*
X15513107Y25584897D01*
X15608843Y25554987D01*
X15658369Y25554079D01*
X15731522Y25552738D01*
X15731524Y25552738D01*
X15737865Y25552622D01*
X15862365Y25586565D01*
X15882994Y25599231D01*
X15942639Y25611421D01*
X15997690Y25580654D01*
X16055579Y25511786D01*
X16055584Y25511781D01*
X16059663Y25506929D01*
X16167084Y25435424D01*
X16254168Y25408217D01*
X16283439Y25399072D01*
X16331835Y25362137D01*
X16345891Y25313032D01*
X16345876Y25311824D01*
X16344901Y25305560D01*
X16361633Y25177606D01*
X16413605Y25059490D01*
X16496639Y24960709D01*
X16604060Y24889204D01*
X16610113Y24887313D01*
X16610115Y24887312D01*
X16626158Y24882300D01*
X16727233Y24850722D01*
X16776759Y24849814D01*
X16849912Y24848473D01*
X16849914Y24848473D01*
X16856255Y24848357D01*
X16980755Y24882300D01*
X17090724Y24949821D01*
X17094975Y24954517D01*
X17094977Y24954519D01*
X17173068Y25040793D01*
X17173069Y25040794D01*
X17177322Y25045493D01*
X17202327Y25097103D01*
X17230823Y25155917D01*
X17230824Y25155920D01*
X17233588Y25161625D01*
X17235886Y25175280D01*
X17249599Y25256794D01*
X17254997Y25288880D01*
X17255063Y25294302D01*
X17255264Y25294833D01*
X17255345Y25295737D01*
X17255597Y25295714D01*
X17276579Y25351252D01*
X17281123Y25356152D01*
X18320025Y26395054D01*
X18375201Y26420782D01*
X18434006Y26405026D01*
G37*
G04 #@! TD.AperFunction*
G04 #@! TA.AperFunction,NonConductor*
G36*
X12090852Y20135949D02*
G01*
X12121292Y20083226D01*
X12110720Y20023271D01*
X12096577Y20004838D01*
X11568063Y19476324D01*
X11512887Y19450596D01*
X11504587Y19450259D01*
X11492597Y19450332D01*
X11454583Y19450564D01*
X11448490Y19448822D01*
X11448486Y19448822D01*
X11362172Y19424153D01*
X11330507Y19415103D01*
X11221371Y19346243D01*
X11149283Y19264619D01*
X11139697Y19253765D01*
X11086221Y19224669D01*
X11029316Y19236972D01*
X11028970Y19236223D01*
X11025618Y19237772D01*
X11024583Y19237996D01*
X11017894Y19242331D01*
X11004376Y19246374D01*
X10900336Y19277489D01*
X10900337Y19277489D01*
X10894261Y19279306D01*
X10887922Y19279345D01*
X10887920Y19279345D01*
X10828436Y19279708D01*
X10765219Y19280094D01*
X10759126Y19278352D01*
X10759122Y19278352D01*
X10674575Y19254188D01*
X10641143Y19244633D01*
X10536992Y19178918D01*
X10477499Y19166001D01*
X10423621Y19194347D01*
X10400500Y19254188D01*
X10400500Y19938663D01*
X10421322Y19995871D01*
X10426567Y20001596D01*
X10555675Y20130704D01*
X10610851Y20156432D01*
X10618608Y20156771D01*
X12033644Y20156771D01*
X12090852Y20135949D01*
G37*
G04 #@! TD.AperFunction*
M02*
