G04 #@! TF.GenerationSoftware,KiCad,Pcbnew,(6.0.6)*
G04 #@! TF.CreationDate,2022-08-20T10:32:50+05:30*
G04 #@! TF.ProjectId,Mitayi-Pico-RP2040,4d697461-7969-42d5-9069-636f2d525032,0.2*
G04 #@! TF.SameCoordinates,PX848f8c0PY6ea0500*
G04 #@! TF.FileFunction,Soldermask,Bot*
G04 #@! TF.FilePolarity,Negative*
%FSLAX46Y46*%
G04 Gerber Fmt 4.6, Leading zero omitted, Abs format (unit mm)*
G04 Created by KiCad (PCBNEW (6.0.6)) date 2022-08-20 10:32:50*
%MOMM*%
%LPD*%
G01*
G04 APERTURE LIST*
G04 Aperture macros list*
%AMRoundRect*
0 Rectangle with rounded corners*
0 $1 Rounding radius*
0 $2 $3 $4 $5 $6 $7 $8 $9 X,Y pos of 4 corners*
0 Add a 4 corners polygon primitive as box body*
4,1,4,$2,$3,$4,$5,$6,$7,$8,$9,$2,$3,0*
0 Add four circle primitives for the rounded corners*
1,1,$1+$1,$2,$3*
1,1,$1+$1,$4,$5*
1,1,$1+$1,$6,$7*
1,1,$1+$1,$8,$9*
0 Add four rect primitives between the rounded corners*
20,1,$1+$1,$2,$3,$4,$5,0*
20,1,$1+$1,$4,$5,$6,$7,0*
20,1,$1+$1,$6,$7,$8,$9,0*
20,1,$1+$1,$8,$9,$2,$3,0*%
G04 Aperture macros list end*
G04 #@! TA.AperFunction,Profile*
%ADD10C,0.100000*%
G04 #@! TD*
%ADD11C,1.500000*%
%ADD12O,1.600000X1.700000*%
%ADD13R,1.600000X3.200000*%
%ADD14C,0.670000*%
%ADD15RoundRect,0.500000X0.000000X0.300000X0.000000X0.300000X0.000000X-0.300000X0.000000X-0.300000X0*%
%ADD16O,1.200000X1.900000*%
%ADD17C,1.450000*%
%ADD18R,3.200000X1.600000*%
%ADD19O,1.700000X1.600000*%
%ADD20R,2.000000X1.500000*%
%ADD21R,2.000000X3.800000*%
%ADD22RoundRect,0.135000X-0.135000X-0.185000X0.135000X-0.185000X0.135000X0.185000X-0.135000X0.185000X0*%
G04 APERTURE END LIST*
D10*
X0Y51000000D02*
X21000000Y51000000D01*
X21000000Y0D02*
X0Y0D01*
X21000000Y51000000D02*
X21000000Y0D01*
X0Y0D02*
X0Y51000000D01*
D11*
X17000000Y1490000D03*
D12*
X7950000Y1600000D03*
D13*
X7950000Y-10000D03*
D12*
X10490000Y1600000D03*
D13*
X10490000Y-10000D03*
D12*
X13030000Y1600000D03*
D13*
X13030000Y-10000D03*
D11*
X4000000Y1490000D03*
D14*
X7610000Y45920000D03*
X13410000Y45920000D03*
D15*
X14830000Y45390000D03*
X6190000Y45390000D03*
X14830000Y49570000D03*
X6190000Y49570000D03*
D11*
X17000000Y49490000D03*
D16*
X7010000Y49637500D03*
D17*
X13010000Y46937500D03*
X8010000Y46937500D03*
D16*
X14010000Y49637500D03*
D11*
X4000000Y49490000D03*
D18*
X-10000Y49700000D03*
D19*
X1600000Y49700000D03*
D18*
X-10000Y47160000D03*
D19*
X1600000Y47160000D03*
D18*
X-10000Y44620000D03*
D19*
X1600000Y44620000D03*
D18*
X-10000Y42080000D03*
D19*
X1600000Y42080000D03*
X1600000Y39540000D03*
D18*
X-10000Y39540000D03*
D19*
X1600000Y37000000D03*
D18*
X-10000Y37000000D03*
X-10000Y34460000D03*
D19*
X1600000Y34460000D03*
D18*
X-10000Y31920000D03*
D19*
X1600000Y31920000D03*
X1600000Y29380000D03*
D18*
X-10000Y29380000D03*
X-10000Y26840000D03*
D19*
X1600000Y26840000D03*
D18*
X-10000Y24300000D03*
D19*
X1600000Y24300000D03*
D18*
X-10000Y21760000D03*
D19*
X1600000Y21760000D03*
D18*
X-10000Y19220000D03*
D19*
X1600000Y19220000D03*
D18*
X-10000Y16680000D03*
D19*
X1600000Y16680000D03*
D18*
X-10000Y14140000D03*
D19*
X1600000Y14140000D03*
D18*
X-10000Y11600000D03*
D19*
X1600000Y11600000D03*
X1600000Y9060000D03*
D18*
X-10000Y9060000D03*
X-10000Y6520000D03*
D19*
X1600000Y6520000D03*
D18*
X-10000Y3980000D03*
D19*
X1600000Y3980000D03*
D18*
X-10000Y1440000D03*
D19*
X1600000Y1440000D03*
D20*
X7980000Y37100000D03*
X7980000Y39400000D03*
D21*
X14280000Y39400000D03*
D20*
X7980000Y41700000D03*
D22*
X14890000Y42510000D03*
X15910000Y42510000D03*
D18*
X21010000Y49700000D03*
D19*
X19400000Y49700000D03*
D18*
X21010000Y47160000D03*
D19*
X19400000Y47160000D03*
D18*
X21010000Y44620000D03*
D19*
X19400000Y44620000D03*
X19400000Y42080000D03*
D18*
X21010000Y42080000D03*
D19*
X19400000Y39540000D03*
D18*
X21010000Y39540000D03*
X21010000Y37000000D03*
D19*
X19400000Y37000000D03*
D18*
X21010000Y34460000D03*
D19*
X19400000Y34460000D03*
X19400000Y31920000D03*
D18*
X21010000Y31920000D03*
X21010000Y29380000D03*
D19*
X19400000Y29380000D03*
D18*
X21010000Y26840000D03*
D19*
X19400000Y26840000D03*
D18*
X21010000Y24300000D03*
D19*
X19400000Y24300000D03*
D18*
X21010000Y21760000D03*
D19*
X19400000Y21760000D03*
X19400000Y19220000D03*
D18*
X21010000Y19220000D03*
D19*
X19400000Y16680000D03*
D18*
X21010000Y16680000D03*
X21010000Y14140000D03*
D19*
X19400000Y14140000D03*
X19400000Y11600000D03*
D18*
X21010000Y11600000D03*
X21010000Y9060000D03*
D19*
X19400000Y9060000D03*
X19400000Y6520000D03*
D18*
X21010000Y6520000D03*
X21010000Y3980000D03*
D19*
X19400000Y3980000D03*
D18*
X21010000Y1440000D03*
D19*
X19400000Y1440000D03*
M02*
