G04 #@! TF.GenerationSoftware,KiCad,Pcbnew,(6.0.6)*
G04 #@! TF.CreationDate,2022-08-20T10:32:50+05:30*
G04 #@! TF.ProjectId,Mitayi-Pico-RP2040,4d697461-7969-42d5-9069-636f2d525032,0.2*
G04 #@! TF.SameCoordinates,PX848f8c0PY6ea0500*
G04 #@! TF.FileFunction,AssemblyDrawing,Bot*
%FSLAX46Y46*%
G04 Gerber Fmt 4.6, Leading zero omitted, Abs format (unit mm)*
G04 Created by KiCad (PCBNEW (6.0.6)) date 2022-08-20 10:32:50*
%MOMM*%
%LPD*%
G01*
G04 APERTURE LIST*
G04 #@! TA.AperFunction,Profile*
%ADD10C,0.100000*%
G04 #@! TD*
%ADD11C,0.080000*%
%ADD12C,0.100000*%
G04 APERTURE END LIST*
D10*
X0Y51000000D02*
X21000000Y51000000D01*
X21000000Y0D02*
X0Y0D01*
X21000000Y51000000D02*
X21000000Y0D01*
X0Y0D02*
X0Y51000000D01*
D11*
X8780952Y43006191D02*
X8380952Y43006191D01*
X8780952Y42777620D01*
X8380952Y42777620D01*
X8742857Y42358572D02*
X8761904Y42377620D01*
X8780952Y42434762D01*
X8780952Y42472858D01*
X8761904Y42530000D01*
X8723809Y42568096D01*
X8685714Y42587143D01*
X8609523Y42606191D01*
X8552380Y42606191D01*
X8476190Y42587143D01*
X8438095Y42568096D01*
X8400000Y42530000D01*
X8380952Y42472858D01*
X8380952Y42434762D01*
X8400000Y42377620D01*
X8419047Y42358572D01*
X8780952Y42187143D02*
X8380952Y42187143D01*
X8380952Y42034762D01*
X8400000Y41996667D01*
X8419047Y41977620D01*
X8457142Y41958572D01*
X8514285Y41958572D01*
X8552380Y41977620D01*
X8571428Y41996667D01*
X8590476Y42034762D01*
X8590476Y42187143D01*
X8780952Y41577620D02*
X8780952Y41806191D01*
X8780952Y41691905D02*
X8380952Y41691905D01*
X8438095Y41730000D01*
X8476190Y41768096D01*
X8495238Y41806191D01*
X8780952Y41196667D02*
X8780952Y41425239D01*
X8780952Y41310953D02*
X8380952Y41310953D01*
X8438095Y41349048D01*
X8476190Y41387143D01*
X8495238Y41425239D01*
X8780952Y40815715D02*
X8780952Y41044286D01*
X8780952Y40930000D02*
X8380952Y40930000D01*
X8438095Y40968096D01*
X8476190Y41006191D01*
X8495238Y41044286D01*
X8380952Y40682381D02*
X8380952Y40415715D01*
X8780952Y40587143D01*
X8628571Y40263334D02*
X8628571Y39958572D01*
X8380952Y39806191D02*
X8380952Y39558572D01*
X8533333Y39691905D01*
X8533333Y39634762D01*
X8552380Y39596667D01*
X8571428Y39577620D01*
X8609523Y39558572D01*
X8704761Y39558572D01*
X8742857Y39577620D01*
X8761904Y39596667D01*
X8780952Y39634762D01*
X8780952Y39749048D01*
X8761904Y39787143D01*
X8742857Y39806191D01*
X8742857Y39387143D02*
X8761904Y39368096D01*
X8780952Y39387143D01*
X8761904Y39406191D01*
X8742857Y39387143D01*
X8780952Y39387143D01*
X8380952Y39234762D02*
X8380952Y38987143D01*
X8533333Y39120477D01*
X8533333Y39063334D01*
X8552380Y39025239D01*
X8571428Y39006191D01*
X8609523Y38987143D01*
X8704761Y38987143D01*
X8742857Y39006191D01*
X8761904Y39025239D01*
X8780952Y39063334D01*
X8780952Y39177620D01*
X8761904Y39215715D01*
X8742857Y39234762D01*
X8819047Y38910953D02*
X8819047Y38606191D01*
X8761904Y38530000D02*
X8780952Y38472858D01*
X8780952Y38377620D01*
X8761904Y38339524D01*
X8742857Y38320477D01*
X8704761Y38301429D01*
X8666666Y38301429D01*
X8628571Y38320477D01*
X8609523Y38339524D01*
X8590476Y38377620D01*
X8571428Y38453810D01*
X8552380Y38491905D01*
X8533333Y38510953D01*
X8495238Y38530000D01*
X8457142Y38530000D01*
X8419047Y38510953D01*
X8400000Y38491905D01*
X8380952Y38453810D01*
X8380952Y38358572D01*
X8400000Y38301429D01*
X8380952Y38053810D02*
X8380952Y37977620D01*
X8400000Y37939524D01*
X8438095Y37901429D01*
X8514285Y37882381D01*
X8647619Y37882381D01*
X8723809Y37901429D01*
X8761904Y37939524D01*
X8780952Y37977620D01*
X8780952Y38053810D01*
X8761904Y38091905D01*
X8723809Y38130000D01*
X8647619Y38149048D01*
X8514285Y38149048D01*
X8438095Y38130000D01*
X8400000Y38091905D01*
X8380952Y38053810D01*
X8380952Y37768096D02*
X8380952Y37539524D01*
X8780952Y37653810D02*
X8380952Y37653810D01*
X8419047Y37425239D02*
X8400000Y37406191D01*
X8380952Y37368096D01*
X8380952Y37272858D01*
X8400000Y37234762D01*
X8419047Y37215715D01*
X8457142Y37196667D01*
X8495238Y37196667D01*
X8552380Y37215715D01*
X8780952Y37444286D01*
X8780952Y37196667D01*
X8419047Y37044286D02*
X8400000Y37025239D01*
X8380952Y36987143D01*
X8380952Y36891905D01*
X8400000Y36853810D01*
X8419047Y36834762D01*
X8457142Y36815715D01*
X8495238Y36815715D01*
X8552380Y36834762D01*
X8780952Y37063334D01*
X8780952Y36815715D01*
X8380952Y36682381D02*
X8380952Y36434762D01*
X8533333Y36568096D01*
X8533333Y36510953D01*
X8552380Y36472858D01*
X8571428Y36453810D01*
X8609523Y36434762D01*
X8704761Y36434762D01*
X8742857Y36453810D01*
X8761904Y36472858D01*
X8780952Y36510953D01*
X8780952Y36625239D01*
X8761904Y36663334D01*
X8742857Y36682381D01*
X10910952Y39704762D02*
X11234761Y39704762D01*
X11272857Y39685715D01*
X11291904Y39666667D01*
X11310952Y39628572D01*
X11310952Y39552381D01*
X11291904Y39514286D01*
X11272857Y39495239D01*
X11234761Y39476191D01*
X10910952Y39476191D01*
X11310952Y39076191D02*
X11310952Y39304762D01*
X11310952Y39190477D02*
X10910952Y39190477D01*
X10968095Y39228572D01*
X11006190Y39266667D01*
X11025238Y39304762D01*
X16647619Y43599048D02*
X16514285Y43199048D01*
X16380952Y43599048D01*
X16019047Y43199048D02*
X16152380Y43389524D01*
X16247619Y43199048D02*
X16247619Y43599048D01*
X16095238Y43599048D01*
X16057142Y43580000D01*
X16038095Y43560953D01*
X16019047Y43522858D01*
X16019047Y43465715D01*
X16038095Y43427620D01*
X16057142Y43408572D01*
X16095238Y43389524D01*
X16247619Y43389524D01*
X15866666Y43560953D02*
X15847619Y43580000D01*
X15809523Y43599048D01*
X15714285Y43599048D01*
X15676190Y43580000D01*
X15657142Y43560953D01*
X15638095Y43522858D01*
X15638095Y43484762D01*
X15657142Y43427620D01*
X15885714Y43199048D01*
X15638095Y43199048D01*
X15561904Y43160953D02*
X15257142Y43160953D01*
X15085714Y43599048D02*
X15009523Y43599048D01*
X14971428Y43580000D01*
X14933333Y43541905D01*
X14914285Y43465715D01*
X14914285Y43332381D01*
X14933333Y43256191D01*
X14971428Y43218096D01*
X15009523Y43199048D01*
X15085714Y43199048D01*
X15123809Y43218096D01*
X15161904Y43256191D01*
X15180952Y43332381D01*
X15180952Y43465715D01*
X15161904Y43541905D01*
X15123809Y43580000D01*
X15085714Y43599048D01*
X14742857Y43599048D02*
X14742857Y43275239D01*
X14723809Y43237143D01*
X14704761Y43218096D01*
X14666666Y43199048D01*
X14590476Y43199048D01*
X14552380Y43218096D01*
X14533333Y43237143D01*
X14514285Y43275239D01*
X14514285Y43599048D01*
X14380952Y43599048D02*
X14152380Y43599048D01*
X14266666Y43199048D02*
X14266666Y43599048D01*
X17133333Y42739048D02*
X17133333Y42453334D01*
X17152380Y42396191D01*
X17190476Y42358096D01*
X17247619Y42339048D01*
X17285714Y42339048D01*
X16942857Y42339048D02*
X16942857Y42739048D01*
X16790476Y42739048D01*
X16752380Y42720000D01*
X16733333Y42700953D01*
X16714285Y42662858D01*
X16714285Y42605715D01*
X16733333Y42567620D01*
X16752380Y42548572D01*
X16790476Y42529524D01*
X16942857Y42529524D01*
X16561904Y42700953D02*
X16542857Y42720000D01*
X16504761Y42739048D01*
X16409523Y42739048D01*
X16371428Y42720000D01*
X16352380Y42700953D01*
X16333333Y42662858D01*
X16333333Y42624762D01*
X16352380Y42567620D01*
X16580952Y42339048D01*
X16333333Y42339048D01*
X19590952Y24185715D02*
X19190952Y24185715D01*
X19381428Y24185715D02*
X19381428Y23957143D01*
X19590952Y23957143D02*
X19190952Y23957143D01*
X19571904Y23614286D02*
X19590952Y23652381D01*
X19590952Y23728572D01*
X19571904Y23766667D01*
X19533809Y23785715D01*
X19381428Y23785715D01*
X19343333Y23766667D01*
X19324285Y23728572D01*
X19324285Y23652381D01*
X19343333Y23614286D01*
X19381428Y23595239D01*
X19419523Y23595239D01*
X19457619Y23785715D01*
X19590952Y23252381D02*
X19381428Y23252381D01*
X19343333Y23271429D01*
X19324285Y23309524D01*
X19324285Y23385715D01*
X19343333Y23423810D01*
X19571904Y23252381D02*
X19590952Y23290477D01*
X19590952Y23385715D01*
X19571904Y23423810D01*
X19533809Y23442858D01*
X19495714Y23442858D01*
X19457619Y23423810D01*
X19438571Y23385715D01*
X19438571Y23290477D01*
X19419523Y23252381D01*
X19590952Y22890477D02*
X19190952Y22890477D01*
X19571904Y22890477D02*
X19590952Y22928572D01*
X19590952Y23004762D01*
X19571904Y23042858D01*
X19552857Y23061905D01*
X19514761Y23080953D01*
X19400476Y23080953D01*
X19362380Y23061905D01*
X19343333Y23042858D01*
X19324285Y23004762D01*
X19324285Y22928572D01*
X19343333Y22890477D01*
X19571904Y22547620D02*
X19590952Y22585715D01*
X19590952Y22661905D01*
X19571904Y22700000D01*
X19533809Y22719048D01*
X19381428Y22719048D01*
X19343333Y22700000D01*
X19324285Y22661905D01*
X19324285Y22585715D01*
X19343333Y22547620D01*
X19381428Y22528572D01*
X19419523Y22528572D01*
X19457619Y22719048D01*
X19590952Y22357143D02*
X19324285Y22357143D01*
X19400476Y22357143D02*
X19362380Y22338096D01*
X19343333Y22319048D01*
X19324285Y22280953D01*
X19324285Y22242858D01*
X19629047Y22204762D02*
X19629047Y21900000D01*
X19229047Y21823810D02*
X19210000Y21804762D01*
X19190952Y21766667D01*
X19190952Y21671429D01*
X19210000Y21633334D01*
X19229047Y21614286D01*
X19267142Y21595239D01*
X19305238Y21595239D01*
X19362380Y21614286D01*
X19590952Y21842858D01*
X19590952Y21595239D01*
X19180952Y25703334D02*
X19466666Y25703334D01*
X19523809Y25722381D01*
X19561904Y25760477D01*
X19580952Y25817620D01*
X19580952Y25855715D01*
X19180952Y25550953D02*
X19180952Y25303334D01*
X19333333Y25436667D01*
X19333333Y25379524D01*
X19352380Y25341429D01*
X19371428Y25322381D01*
X19409523Y25303334D01*
X19504761Y25303334D01*
X19542857Y25322381D01*
X19561904Y25341429D01*
X19580952Y25379524D01*
X19580952Y25493810D01*
X19561904Y25531905D01*
X19542857Y25550953D01*
D12*
X10280000Y36050000D02*
X12980000Y36050000D01*
X9280000Y37050000D02*
X10280000Y36050000D01*
X9280000Y37050000D02*
X9280000Y42750000D01*
X9280000Y42750000D02*
X12980000Y42750000D01*
X12980000Y36050000D02*
X12980000Y42750000D01*
X14875000Y42780000D02*
X14875000Y42240000D01*
X15925000Y42240000D02*
X15925000Y42780000D01*
X14875000Y42240000D02*
X15925000Y42240000D01*
X15925000Y42780000D02*
X14875000Y42780000D01*
X18130000Y50970000D02*
X18130000Y170000D01*
X20670000Y50335000D02*
X20035000Y50970000D01*
X18130000Y170000D02*
X20670000Y170000D01*
X20035000Y50970000D02*
X18130000Y50970000D01*
X20670000Y170000D02*
X20670000Y50335000D01*
M02*
