G04 #@! TF.GenerationSoftware,KiCad,Pcbnew,(6.0.6)*
G04 #@! TF.CreationDate,2022-08-20T10:32:50+05:30*
G04 #@! TF.ProjectId,Mitayi-Pico-RP2040,4d697461-7969-42d5-9069-636f2d525032,0.2*
G04 #@! TF.SameCoordinates,PX848f8c0PY6ea0500*
G04 #@! TF.FileFunction,Paste,Top*
G04 #@! TF.FilePolarity,Positive*
%FSLAX46Y46*%
G04 Gerber Fmt 4.6, Leading zero omitted, Abs format (unit mm)*
G04 Created by KiCad (PCBNEW (6.0.6)) date 2022-08-20 10:32:50*
%MOMM*%
%LPD*%
G01*
G04 APERTURE LIST*
G04 Aperture macros list*
%AMRoundRect*
0 Rectangle with rounded corners*
0 $1 Rounding radius*
0 $2 $3 $4 $5 $6 $7 $8 $9 X,Y pos of 4 corners*
0 Add a 4 corners polygon primitive as box body*
4,1,4,$2,$3,$4,$5,$6,$7,$8,$9,$2,$3,0*
0 Add four circle primitives for the rounded corners*
1,1,$1+$1,$2,$3*
1,1,$1+$1,$4,$5*
1,1,$1+$1,$6,$7*
1,1,$1+$1,$8,$9*
0 Add four rect primitives between the rounded corners*
20,1,$1+$1,$2,$3,$4,$5,0*
20,1,$1+$1,$4,$5,$6,$7,0*
20,1,$1+$1,$6,$7,$8,$9,0*
20,1,$1+$1,$8,$9,$2,$3,0*%
G04 Aperture macros list end*
G04 #@! TA.AperFunction,Profile*
%ADD10C,0.100000*%
G04 #@! TD*
%ADD11RoundRect,0.135000X-0.185000X0.135000X-0.185000X-0.135000X0.185000X-0.135000X0.185000X0.135000X0*%
%ADD12RoundRect,0.237500X0.237500X-0.300000X0.237500X0.300000X-0.237500X0.300000X-0.237500X-0.300000X0*%
%ADD13RoundRect,0.155000X-0.155000X0.212500X-0.155000X-0.212500X0.155000X-0.212500X0.155000X0.212500X0*%
%ADD14RoundRect,0.155000X0.155000X-0.212500X0.155000X0.212500X-0.155000X0.212500X-0.155000X-0.212500X0*%
%ADD15RoundRect,0.237500X-0.250000X-0.237500X0.250000X-0.237500X0.250000X0.237500X-0.250000X0.237500X0*%
%ADD16RoundRect,0.135000X0.135000X0.185000X-0.135000X0.185000X-0.135000X-0.185000X0.135000X-0.185000X0*%
%ADD17RoundRect,0.225000X0.250000X-0.225000X0.250000X0.225000X-0.250000X0.225000X-0.250000X-0.225000X0*%
%ADD18RoundRect,0.155000X0.212500X0.155000X-0.212500X0.155000X-0.212500X-0.155000X0.212500X-0.155000X0*%
%ADD19RoundRect,0.160000X-0.197500X-0.160000X0.197500X-0.160000X0.197500X0.160000X-0.197500X0.160000X0*%
%ADD20RoundRect,0.160000X0.197500X0.160000X-0.197500X0.160000X-0.197500X-0.160000X0.197500X-0.160000X0*%
%ADD21RoundRect,0.160000X-0.160000X0.197500X-0.160000X-0.197500X0.160000X-0.197500X0.160000X0.197500X0*%
%ADD22RoundRect,0.155000X-0.212500X-0.155000X0.212500X-0.155000X0.212500X0.155000X-0.212500X0.155000X0*%
%ADD23R,1.400000X1.200000*%
%ADD24RoundRect,0.250000X-0.292217X-0.292217X0.292217X-0.292217X0.292217X0.292217X-0.292217X0.292217X0*%
%ADD25RoundRect,0.050000X-0.387500X-0.050000X0.387500X-0.050000X0.387500X0.050000X-0.387500X0.050000X0*%
%ADD26RoundRect,0.050000X-0.050000X-0.387500X0.050000X-0.387500X0.050000X0.387500X-0.050000X0.387500X0*%
%ADD27RoundRect,0.150000X0.150000X-0.650000X0.150000X0.650000X-0.150000X0.650000X-0.150000X-0.650000X0*%
%ADD28RoundRect,0.135000X-0.135000X-0.185000X0.135000X-0.185000X0.135000X0.185000X-0.135000X0.185000X0*%
%ADD29RoundRect,0.225000X-0.225000X-0.250000X0.225000X-0.250000X0.225000X0.250000X-0.225000X0.250000X0*%
%ADD30R,0.300000X1.450000*%
%ADD31R,1.100000X1.100000*%
%ADD32R,0.400000X1.350000*%
%ADD33R,1.500000X1.900000*%
%ADD34R,1.700000X1.150000*%
%ADD35RoundRect,0.250000X-0.312500X-0.275000X0.312500X-0.275000X0.312500X0.275000X-0.312500X0.275000X0*%
%ADD36RoundRect,0.150000X0.512500X0.150000X-0.512500X0.150000X-0.512500X-0.150000X0.512500X-0.150000X0*%
G04 APERTURE END LIST*
D10*
X0Y51000000D02*
X21000000Y51000000D01*
X21000000Y0D02*
X0Y0D01*
X21000000Y51000000D02*
X21000000Y0D01*
X0Y0D02*
X0Y51000000D01*
D11*
X17300000Y19500000D03*
X17300000Y18480000D03*
D12*
X17030000Y15187500D03*
X17030000Y16912500D03*
D13*
X9990000Y11987500D03*
X9990000Y10852500D03*
D14*
X5930000Y26942500D03*
X5930000Y28077500D03*
D15*
X15077500Y9500000D03*
X16902500Y9500000D03*
D16*
X16480000Y39600000D03*
X15460000Y39600000D03*
D17*
X14090000Y39715000D03*
X14090000Y41265000D03*
D13*
X5800000Y22047500D03*
X5800000Y20912500D03*
D14*
X14605000Y29162500D03*
X14605000Y30297500D03*
D18*
X7477500Y12340000D03*
X6342500Y12340000D03*
D19*
X8302500Y31630000D03*
X9497500Y31630000D03*
D20*
X17067500Y10860000D03*
X15872500Y10860000D03*
D21*
X10020000Y18017500D03*
X10020000Y16822500D03*
D22*
X15812500Y26830000D03*
X16947500Y26830000D03*
D23*
X10100000Y13550000D03*
X12300000Y13550000D03*
X12300000Y15250000D03*
X10100000Y15250000D03*
D24*
X10182500Y24267500D03*
X11457500Y22992500D03*
X11457500Y24267500D03*
X10182500Y22992500D03*
D25*
X7382500Y26230000D03*
X7382500Y25830000D03*
X7382500Y25430000D03*
X7382500Y25030000D03*
X7382500Y24630000D03*
X7382500Y24230000D03*
X7382500Y23830000D03*
X7382500Y23430000D03*
X7382500Y23030000D03*
X7382500Y22630000D03*
X7382500Y22230000D03*
X7382500Y21830000D03*
X7382500Y21430000D03*
X7382500Y21030000D03*
D26*
X8220000Y20192500D03*
X8620000Y20192500D03*
X9020000Y20192500D03*
X9420000Y20192500D03*
X9820000Y20192500D03*
X10220000Y20192500D03*
X10620000Y20192500D03*
X11020000Y20192500D03*
X11420000Y20192500D03*
X11820000Y20192500D03*
X12220000Y20192500D03*
X12620000Y20192500D03*
X13020000Y20192500D03*
X13420000Y20192500D03*
D25*
X14257500Y21030000D03*
X14257500Y21430000D03*
X14257500Y21830000D03*
X14257500Y22230000D03*
X14257500Y22630000D03*
X14257500Y23030000D03*
X14257500Y23430000D03*
X14257500Y23830000D03*
X14257500Y24230000D03*
X14257500Y24630000D03*
X14257500Y25030000D03*
X14257500Y25430000D03*
X14257500Y25830000D03*
X14257500Y26230000D03*
D26*
X13420000Y27067500D03*
X13020000Y27067500D03*
X12620000Y27067500D03*
X12220000Y27067500D03*
X11820000Y27067500D03*
X11420000Y27067500D03*
X11020000Y27067500D03*
X10620000Y27067500D03*
X10220000Y27067500D03*
X9820000Y27067500D03*
X9420000Y27067500D03*
X9020000Y27067500D03*
X8620000Y27067500D03*
X8220000Y27067500D03*
D21*
X11725000Y30347500D03*
X11725000Y29152500D03*
D14*
X8125000Y29162500D03*
X8125000Y30297500D03*
D13*
X11150000Y17997500D03*
X11150000Y16862500D03*
D27*
X5655000Y33650000D03*
X6925000Y33650000D03*
X8195000Y33650000D03*
X9465000Y33650000D03*
X9465000Y40850000D03*
X8195000Y40850000D03*
X6925000Y40850000D03*
X5655000Y40850000D03*
D14*
X10320000Y29157500D03*
X10320000Y30292500D03*
D19*
X5872500Y31630000D03*
X7067500Y31630000D03*
D14*
X13630000Y29172500D03*
X13630000Y30307500D03*
D22*
X5642500Y42600000D03*
X6777500Y42600000D03*
D28*
X15440000Y40630000D03*
X16460000Y40630000D03*
D19*
X6312500Y13400000D03*
X7507500Y13400000D03*
D13*
X12170000Y17997500D03*
X12170000Y16862500D03*
X16200000Y19877500D03*
X16200000Y18742500D03*
D29*
X14815000Y31920000D03*
X16365000Y31920000D03*
D30*
X13910000Y44470000D03*
X13110000Y44470000D03*
X11760000Y44470000D03*
X10760000Y44470000D03*
X10260000Y44470000D03*
X9260000Y44470000D03*
X7910000Y44470000D03*
X7110000Y44470000D03*
X7410000Y44470000D03*
X8210000Y44470000D03*
X8760000Y44470000D03*
X9760000Y44470000D03*
X11260000Y44470000D03*
X12260000Y44470000D03*
X12810000Y44470000D03*
X13610000Y44470000D03*
D22*
X15402500Y38540000D03*
X16537500Y38540000D03*
D28*
X15440000Y41600000D03*
X16460000Y41600000D03*
D20*
X9047500Y42600000D03*
X7852500Y42600000D03*
D31*
X16900000Y43100000D03*
X16900000Y45900000D03*
D32*
X11810000Y46937500D03*
X11160000Y46937500D03*
X10510000Y46937500D03*
X9860000Y46937500D03*
X9210000Y46937500D03*
D33*
X11510000Y49637500D03*
X9510000Y49637500D03*
D34*
X6900000Y10875000D03*
X6900000Y6525000D03*
D13*
X12430000Y11977500D03*
X12430000Y10842500D03*
D14*
X9420000Y29162500D03*
X9420000Y30297500D03*
D21*
X12725000Y30347500D03*
X12725000Y29152500D03*
D35*
X14447500Y33600000D03*
X16222500Y33600000D03*
D11*
X16350000Y29070000D03*
X16350000Y28050000D03*
D19*
X13802500Y42700000D03*
X14997500Y42700000D03*
D36*
X16187500Y35280000D03*
X16187500Y36230000D03*
X16187500Y37180000D03*
X13912500Y37180000D03*
X13912500Y35280000D03*
M02*
