%TF.GenerationSoftware,KiCad,Pcbnew,(6.0.9)*%
%TF.CreationDate,2023-01-07T18:48:54+05:30*%
%TF.ProjectId,Mitayi-Pico-RP2040,4d697461-7969-42d5-9069-636f2d525032,0.5*%
%TF.SameCoordinates,PX825e060PY6d4a840*%
%TF.FileFunction,AssemblyDrawing,Top*%
%FSLAX46Y46*%
G04 Gerber Fmt 4.6, Leading zero omitted, Abs format (unit mm)*
G04 Created by KiCad (PCBNEW (6.0.9)) date 2023-01-07 18:48:54*
%MOMM*%
%LPD*%
G01*
G04 APERTURE LIST*
%ADD10C,0.050000*%
%ADD11C,0.100000*%
G04 APERTURE END LIST*
D10*
%TO.C,J6*%
X9252857Y48701786D02*
X9252857Y48458929D01*
X9267142Y48430358D01*
X9281428Y48416072D01*
X9310000Y48401786D01*
X9367142Y48401786D01*
X9395714Y48416072D01*
X9410000Y48430358D01*
X9424285Y48458929D01*
X9424285Y48701786D01*
X9552857Y48416072D02*
X9595714Y48401786D01*
X9667142Y48401786D01*
X9695714Y48416072D01*
X9710000Y48430358D01*
X9724285Y48458929D01*
X9724285Y48487500D01*
X9710000Y48516072D01*
X9695714Y48530358D01*
X9667142Y48544643D01*
X9610000Y48558929D01*
X9581428Y48573215D01*
X9567142Y48587500D01*
X9552857Y48616072D01*
X9552857Y48644643D01*
X9567142Y48673215D01*
X9581428Y48687500D01*
X9610000Y48701786D01*
X9681428Y48701786D01*
X9724285Y48687500D01*
X9952857Y48558929D02*
X9995714Y48544643D01*
X10010000Y48530358D01*
X10024285Y48501786D01*
X10024285Y48458929D01*
X10010000Y48430358D01*
X9995714Y48416072D01*
X9967142Y48401786D01*
X9852857Y48401786D01*
X9852857Y48701786D01*
X9952857Y48701786D01*
X9981428Y48687500D01*
X9995714Y48673215D01*
X10010000Y48644643D01*
X10010000Y48616072D01*
X9995714Y48587500D01*
X9981428Y48573215D01*
X9952857Y48558929D01*
X9852857Y48558929D01*
X10081428Y48373215D02*
X10310000Y48373215D01*
X10481428Y48558929D02*
X10524285Y48544643D01*
X10538571Y48530358D01*
X10552857Y48501786D01*
X10552857Y48458929D01*
X10538571Y48430358D01*
X10524285Y48416072D01*
X10495714Y48401786D01*
X10381428Y48401786D01*
X10381428Y48701786D01*
X10481428Y48701786D01*
X10510000Y48687500D01*
X10524285Y48673215D01*
X10538571Y48644643D01*
X10538571Y48616072D01*
X10524285Y48587500D01*
X10510000Y48573215D01*
X10481428Y48558929D01*
X10381428Y48558929D01*
X10610000Y48373215D02*
X10838571Y48373215D01*
X10910000Y48401786D02*
X10910000Y48701786D01*
X11010000Y48487500D01*
X11110000Y48701786D01*
X11110000Y48401786D01*
X11252857Y48401786D02*
X11252857Y48601786D01*
X11252857Y48701786D02*
X11238571Y48687500D01*
X11252857Y48673215D01*
X11267142Y48687500D01*
X11252857Y48701786D01*
X11252857Y48673215D01*
X11524285Y48416072D02*
X11495714Y48401786D01*
X11438571Y48401786D01*
X11410000Y48416072D01*
X11395714Y48430358D01*
X11381428Y48458929D01*
X11381428Y48544643D01*
X11395714Y48573215D01*
X11410000Y48587500D01*
X11438571Y48601786D01*
X11495714Y48601786D01*
X11524285Y48587500D01*
X11652857Y48401786D02*
X11652857Y48601786D01*
X11652857Y48544643D02*
X11667142Y48573215D01*
X11681428Y48587500D01*
X11710000Y48601786D01*
X11738571Y48601786D01*
X11881428Y48401786D02*
X11852857Y48416072D01*
X11838571Y48430358D01*
X11824285Y48458929D01*
X11824285Y48544643D01*
X11838571Y48573215D01*
X11852857Y48587500D01*
X11881428Y48601786D01*
X11924285Y48601786D01*
X11952857Y48587500D01*
X11967142Y48573215D01*
X11981428Y48544643D01*
X11981428Y48458929D01*
X11967142Y48430358D01*
X11952857Y48416072D01*
X11924285Y48401786D01*
X11881428Y48401786D01*
X10410000Y49451786D02*
X10410000Y49237500D01*
X10395714Y49194643D01*
X10367142Y49166072D01*
X10324285Y49151786D01*
X10295714Y49151786D01*
X10681428Y49451786D02*
X10624285Y49451786D01*
X10595714Y49437500D01*
X10581428Y49423215D01*
X10552857Y49380358D01*
X10538571Y49323215D01*
X10538571Y49208929D01*
X10552857Y49180358D01*
X10567142Y49166072D01*
X10595714Y49151786D01*
X10652857Y49151786D01*
X10681428Y49166072D01*
X10695714Y49180358D01*
X10710000Y49208929D01*
X10710000Y49280358D01*
X10695714Y49308929D01*
X10681428Y49323215D01*
X10652857Y49337500D01*
X10595714Y49337500D01*
X10567142Y49323215D01*
X10552857Y49308929D01*
X10538571Y49280358D01*
%TO.C,JP5*%
X16965714Y18598572D02*
X16665714Y18598572D01*
X16665714Y18670000D01*
X16680000Y18712858D01*
X16708571Y18741429D01*
X16737142Y18755715D01*
X16794285Y18770000D01*
X16837142Y18770000D01*
X16894285Y18755715D01*
X16922857Y18741429D01*
X16951428Y18712858D01*
X16965714Y18670000D01*
X16965714Y18598572D01*
X16808571Y18898572D02*
X16808571Y18998572D01*
X16965714Y19041429D02*
X16965714Y18898572D01*
X16665714Y18898572D01*
X16665714Y19041429D01*
X16808571Y19270000D02*
X16822857Y19312858D01*
X16837142Y19327143D01*
X16865714Y19341429D01*
X16908571Y19341429D01*
X16937142Y19327143D01*
X16951428Y19312858D01*
X16965714Y19284286D01*
X16965714Y19170000D01*
X16665714Y19170000D01*
X16665714Y19270000D01*
X16680000Y19298572D01*
X16694285Y19312858D01*
X16722857Y19327143D01*
X16751428Y19327143D01*
X16780000Y19312858D01*
X16794285Y19298572D01*
X16808571Y19270000D01*
X16808571Y19170000D01*
X16994285Y19398572D02*
X16994285Y19627143D01*
X16808571Y19698572D02*
X16808571Y19798572D01*
X16965714Y19841429D02*
X16965714Y19698572D01*
X16665714Y19698572D01*
X16665714Y19841429D01*
X16965714Y19970000D02*
X16665714Y19970000D01*
X16965714Y20141429D01*
X16665714Y20141429D01*
X17235714Y19040000D02*
X17450000Y19040000D01*
X17492857Y19025715D01*
X17521428Y18997143D01*
X17535714Y18954286D01*
X17535714Y18925715D01*
X17535714Y19182858D02*
X17235714Y19182858D01*
X17235714Y19297143D01*
X17250000Y19325715D01*
X17264285Y19340000D01*
X17292857Y19354286D01*
X17335714Y19354286D01*
X17364285Y19340000D01*
X17378571Y19325715D01*
X17392857Y19297143D01*
X17392857Y19182858D01*
X17235714Y19625715D02*
X17235714Y19482858D01*
X17378571Y19468572D01*
X17364285Y19482858D01*
X17350000Y19511429D01*
X17350000Y19582858D01*
X17364285Y19611429D01*
X17378571Y19625715D01*
X17407142Y19640000D01*
X17478571Y19640000D01*
X17507142Y19625715D01*
X17521428Y19611429D01*
X17535714Y19582858D01*
X17535714Y19511429D01*
X17521428Y19482858D01*
X17507142Y19468572D01*
%TO.C,D2*%
X17965714Y15210000D02*
X17665714Y15210000D01*
X17665714Y15281429D01*
X17680000Y15324286D01*
X17708571Y15352858D01*
X17737142Y15367143D01*
X17794285Y15381429D01*
X17837142Y15381429D01*
X17894285Y15367143D01*
X17922857Y15352858D01*
X17951428Y15324286D01*
X17965714Y15281429D01*
X17965714Y15210000D01*
X17808571Y15610000D02*
X17822857Y15652858D01*
X17837142Y15667143D01*
X17865714Y15681429D01*
X17908571Y15681429D01*
X17937142Y15667143D01*
X17951428Y15652858D01*
X17965714Y15624286D01*
X17965714Y15510000D01*
X17665714Y15510000D01*
X17665714Y15610000D01*
X17680000Y15638572D01*
X17694285Y15652858D01*
X17722857Y15667143D01*
X17751428Y15667143D01*
X17780000Y15652858D01*
X17794285Y15638572D01*
X17808571Y15610000D01*
X17808571Y15510000D01*
X17680000Y15967143D02*
X17665714Y15938572D01*
X17665714Y15895715D01*
X17680000Y15852858D01*
X17708571Y15824286D01*
X17737142Y15810000D01*
X17794285Y15795715D01*
X17837142Y15795715D01*
X17894285Y15810000D01*
X17922857Y15824286D01*
X17951428Y15852858D01*
X17965714Y15895715D01*
X17965714Y15924286D01*
X17951428Y15967143D01*
X17937142Y15981429D01*
X17837142Y15981429D01*
X17837142Y15924286D01*
X17994285Y16038572D02*
X17994285Y16267143D01*
X17965714Y16481429D02*
X17965714Y16338572D01*
X17665714Y16338572D01*
X17808571Y16581429D02*
X17808571Y16681429D01*
X17965714Y16724286D02*
X17965714Y16581429D01*
X17665714Y16581429D01*
X17665714Y16724286D01*
X17965714Y16852858D02*
X17665714Y16852858D01*
X17665714Y16924286D01*
X17680000Y16967143D01*
X17708571Y16995715D01*
X17737142Y17010000D01*
X17794285Y17024286D01*
X17837142Y17024286D01*
X17894285Y17010000D01*
X17922857Y16995715D01*
X17951428Y16967143D01*
X17965714Y16924286D01*
X17965714Y16852858D01*
X17165714Y15828572D02*
X16865714Y15828572D01*
X16865714Y15900000D01*
X16880000Y15942858D01*
X16908571Y15971429D01*
X16937142Y15985715D01*
X16994285Y16000000D01*
X17037142Y16000000D01*
X17094285Y15985715D01*
X17122857Y15971429D01*
X17151428Y15942858D01*
X17165714Y15900000D01*
X17165714Y15828572D01*
X16894285Y16114286D02*
X16880000Y16128572D01*
X16865714Y16157143D01*
X16865714Y16228572D01*
X16880000Y16257143D01*
X16894285Y16271429D01*
X16922857Y16285715D01*
X16951428Y16285715D01*
X16994285Y16271429D01*
X17165714Y16100000D01*
X17165714Y16285715D01*
%TO.C,C17*%
X8945714Y13252858D02*
X8945714Y13438572D01*
X9060000Y13338572D01*
X9060000Y13381429D01*
X9074285Y13410000D01*
X9088571Y13424286D01*
X9117142Y13438572D01*
X9188571Y13438572D01*
X9217142Y13424286D01*
X9231428Y13410000D01*
X9245714Y13381429D01*
X9245714Y13295715D01*
X9231428Y13267143D01*
X9217142Y13252858D01*
X8945714Y13624286D02*
X8945714Y13652858D01*
X8960000Y13681429D01*
X8974285Y13695715D01*
X9002857Y13710000D01*
X9060000Y13724286D01*
X9131428Y13724286D01*
X9188571Y13710000D01*
X9217142Y13695715D01*
X9231428Y13681429D01*
X9245714Y13652858D01*
X9245714Y13624286D01*
X9231428Y13595715D01*
X9217142Y13581429D01*
X9188571Y13567143D01*
X9131428Y13552858D01*
X9060000Y13552858D01*
X9002857Y13567143D01*
X8974285Y13581429D01*
X8960000Y13595715D01*
X8945714Y13624286D01*
X9045714Y13852858D02*
X9345714Y13852858D01*
X9060000Y13852858D02*
X9045714Y13881429D01*
X9045714Y13938572D01*
X9060000Y13967143D01*
X9074285Y13981429D01*
X9102857Y13995715D01*
X9188571Y13995715D01*
X9217142Y13981429D01*
X9231428Y13967143D01*
X9245714Y13938572D01*
X9245714Y13881429D01*
X9231428Y13852858D01*
X9088571Y14224286D02*
X9088571Y14124286D01*
X9245714Y14124286D02*
X8945714Y14124286D01*
X8945714Y14267143D01*
X8637142Y13587143D02*
X8651428Y13572858D01*
X8665714Y13530000D01*
X8665714Y13501429D01*
X8651428Y13458572D01*
X8622857Y13430000D01*
X8594285Y13415715D01*
X8537142Y13401429D01*
X8494285Y13401429D01*
X8437142Y13415715D01*
X8408571Y13430000D01*
X8380000Y13458572D01*
X8365714Y13501429D01*
X8365714Y13530000D01*
X8380000Y13572858D01*
X8394285Y13587143D01*
X8665714Y13872858D02*
X8665714Y13701429D01*
X8665714Y13787143D02*
X8365714Y13787143D01*
X8408571Y13758572D01*
X8437142Y13730000D01*
X8451428Y13701429D01*
X8365714Y13972858D02*
X8365714Y14172858D01*
X8665714Y14044286D01*
%TO.C,C12*%
X6225714Y26704286D02*
X6225714Y26532858D01*
X6225714Y26618572D02*
X5925714Y26618572D01*
X5968571Y26590000D01*
X5997142Y26561429D01*
X6011428Y26532858D01*
X5925714Y26890000D02*
X5925714Y26918572D01*
X5940000Y26947143D01*
X5954285Y26961429D01*
X5982857Y26975715D01*
X6040000Y26990000D01*
X6111428Y26990000D01*
X6168571Y26975715D01*
X6197142Y26961429D01*
X6211428Y26947143D01*
X6225714Y26918572D01*
X6225714Y26890000D01*
X6211428Y26861429D01*
X6197142Y26847143D01*
X6168571Y26832858D01*
X6111428Y26818572D01*
X6040000Y26818572D01*
X5982857Y26832858D01*
X5954285Y26847143D01*
X5940000Y26861429D01*
X5925714Y26890000D01*
X5925714Y27175715D02*
X5925714Y27204286D01*
X5940000Y27232858D01*
X5954285Y27247143D01*
X5982857Y27261429D01*
X6040000Y27275715D01*
X6111428Y27275715D01*
X6168571Y27261429D01*
X6197142Y27247143D01*
X6211428Y27232858D01*
X6225714Y27204286D01*
X6225714Y27175715D01*
X6211428Y27147143D01*
X6197142Y27132858D01*
X6168571Y27118572D01*
X6111428Y27104286D01*
X6040000Y27104286D01*
X5982857Y27118572D01*
X5954285Y27132858D01*
X5940000Y27147143D01*
X5925714Y27175715D01*
X6025714Y27404286D02*
X6225714Y27404286D01*
X6054285Y27404286D02*
X6040000Y27418572D01*
X6025714Y27447143D01*
X6025714Y27490000D01*
X6040000Y27518572D01*
X6068571Y27532858D01*
X6225714Y27532858D01*
X5557142Y26787143D02*
X5571428Y26772858D01*
X5585714Y26730000D01*
X5585714Y26701429D01*
X5571428Y26658572D01*
X5542857Y26630000D01*
X5514285Y26615715D01*
X5457142Y26601429D01*
X5414285Y26601429D01*
X5357142Y26615715D01*
X5328571Y26630000D01*
X5300000Y26658572D01*
X5285714Y26701429D01*
X5285714Y26730000D01*
X5300000Y26772858D01*
X5314285Y26787143D01*
X5585714Y27072858D02*
X5585714Y26901429D01*
X5585714Y26987143D02*
X5285714Y26987143D01*
X5328571Y26958572D01*
X5357142Y26930000D01*
X5371428Y26901429D01*
X5314285Y27187143D02*
X5300000Y27201429D01*
X5285714Y27230000D01*
X5285714Y27301429D01*
X5300000Y27330000D01*
X5314285Y27344286D01*
X5342857Y27358572D01*
X5371428Y27358572D01*
X5414285Y27344286D01*
X5585714Y27172858D01*
X5585714Y27358572D01*
%TO.C,C13*%
X14687142Y40424286D02*
X14515714Y40424286D01*
X14601428Y40424286D02*
X14601428Y40724286D01*
X14572857Y40681429D01*
X14544285Y40652858D01*
X14515714Y40638572D01*
X14872857Y40724286D02*
X14901428Y40724286D01*
X14930000Y40710000D01*
X14944285Y40695715D01*
X14958571Y40667143D01*
X14972857Y40610000D01*
X14972857Y40538572D01*
X14958571Y40481429D01*
X14944285Y40452858D01*
X14930000Y40438572D01*
X14901428Y40424286D01*
X14872857Y40424286D01*
X14844285Y40438572D01*
X14830000Y40452858D01*
X14815714Y40481429D01*
X14801428Y40538572D01*
X14801428Y40610000D01*
X14815714Y40667143D01*
X14830000Y40695715D01*
X14844285Y40710000D01*
X14872857Y40724286D01*
X15230000Y40624286D02*
X15230000Y40424286D01*
X15101428Y40624286D02*
X15101428Y40467143D01*
X15115714Y40438572D01*
X15144285Y40424286D01*
X15187142Y40424286D01*
X15215714Y40438572D01*
X15230000Y40452858D01*
X14617142Y41182858D02*
X14602857Y41168572D01*
X14560000Y41154286D01*
X14531428Y41154286D01*
X14488571Y41168572D01*
X14460000Y41197143D01*
X14445714Y41225715D01*
X14431428Y41282858D01*
X14431428Y41325715D01*
X14445714Y41382858D01*
X14460000Y41411429D01*
X14488571Y41440000D01*
X14531428Y41454286D01*
X14560000Y41454286D01*
X14602857Y41440000D01*
X14617142Y41425715D01*
X14902857Y41154286D02*
X14731428Y41154286D01*
X14817142Y41154286D02*
X14817142Y41454286D01*
X14788571Y41411429D01*
X14760000Y41382858D01*
X14731428Y41368572D01*
X15002857Y41454286D02*
X15188571Y41454286D01*
X15088571Y41340000D01*
X15131428Y41340000D01*
X15160000Y41325715D01*
X15174285Y41311429D01*
X15188571Y41282858D01*
X15188571Y41211429D01*
X15174285Y41182858D01*
X15160000Y41168572D01*
X15131428Y41154286D01*
X15045714Y41154286D01*
X15017142Y41168572D01*
X15002857Y41182858D01*
%TO.C,C6*%
X4784285Y20804286D02*
X4612857Y20804286D01*
X4698571Y20804286D02*
X4698571Y21104286D01*
X4670000Y21061429D01*
X4641428Y21032858D01*
X4612857Y21018572D01*
X4970000Y21104286D02*
X4998571Y21104286D01*
X5027142Y21090000D01*
X5041428Y21075715D01*
X5055714Y21047143D01*
X5070000Y20990000D01*
X5070000Y20918572D01*
X5055714Y20861429D01*
X5041428Y20832858D01*
X5027142Y20818572D01*
X4998571Y20804286D01*
X4970000Y20804286D01*
X4941428Y20818572D01*
X4927142Y20832858D01*
X4912857Y20861429D01*
X4898571Y20918572D01*
X4898571Y20990000D01*
X4912857Y21047143D01*
X4927142Y21075715D01*
X4941428Y21090000D01*
X4970000Y21104286D01*
X5255714Y21104286D02*
X5284285Y21104286D01*
X5312857Y21090000D01*
X5327142Y21075715D01*
X5341428Y21047143D01*
X5355714Y20990000D01*
X5355714Y20918572D01*
X5341428Y20861429D01*
X5327142Y20832858D01*
X5312857Y20818572D01*
X5284285Y20804286D01*
X5255714Y20804286D01*
X5227142Y20818572D01*
X5212857Y20832858D01*
X5198571Y20861429D01*
X5184285Y20918572D01*
X5184285Y20990000D01*
X5198571Y21047143D01*
X5212857Y21075715D01*
X5227142Y21090000D01*
X5255714Y21104286D01*
X5484285Y21004286D02*
X5484285Y20804286D01*
X5484285Y20975715D02*
X5498571Y20990000D01*
X5527142Y21004286D01*
X5570000Y21004286D01*
X5598571Y20990000D01*
X5612857Y20961429D01*
X5612857Y20804286D01*
X5030000Y20292858D02*
X5015714Y20278572D01*
X4972857Y20264286D01*
X4944285Y20264286D01*
X4901428Y20278572D01*
X4872857Y20307143D01*
X4858571Y20335715D01*
X4844285Y20392858D01*
X4844285Y20435715D01*
X4858571Y20492858D01*
X4872857Y20521429D01*
X4901428Y20550000D01*
X4944285Y20564286D01*
X4972857Y20564286D01*
X5015714Y20550000D01*
X5030000Y20535715D01*
X5287142Y20564286D02*
X5230000Y20564286D01*
X5201428Y20550000D01*
X5187142Y20535715D01*
X5158571Y20492858D01*
X5144285Y20435715D01*
X5144285Y20321429D01*
X5158571Y20292858D01*
X5172857Y20278572D01*
X5201428Y20264286D01*
X5258571Y20264286D01*
X5287142Y20278572D01*
X5301428Y20292858D01*
X5315714Y20321429D01*
X5315714Y20392858D01*
X5301428Y20421429D01*
X5287142Y20435715D01*
X5258571Y20450000D01*
X5201428Y20450000D01*
X5172857Y20435715D01*
X5158571Y20421429D01*
X5144285Y20392858D01*
%TO.C,C11*%
X16650714Y29664286D02*
X16650714Y29492858D01*
X16650714Y29578572D02*
X16350714Y29578572D01*
X16393571Y29550000D01*
X16422142Y29521429D01*
X16436428Y29492858D01*
X16350714Y29850000D02*
X16350714Y29878572D01*
X16365000Y29907143D01*
X16379285Y29921429D01*
X16407857Y29935715D01*
X16465000Y29950000D01*
X16536428Y29950000D01*
X16593571Y29935715D01*
X16622142Y29921429D01*
X16636428Y29907143D01*
X16650714Y29878572D01*
X16650714Y29850000D01*
X16636428Y29821429D01*
X16622142Y29807143D01*
X16593571Y29792858D01*
X16536428Y29778572D01*
X16465000Y29778572D01*
X16407857Y29792858D01*
X16379285Y29807143D01*
X16365000Y29821429D01*
X16350714Y29850000D01*
X16350714Y30135715D02*
X16350714Y30164286D01*
X16365000Y30192858D01*
X16379285Y30207143D01*
X16407857Y30221429D01*
X16465000Y30235715D01*
X16536428Y30235715D01*
X16593571Y30221429D01*
X16622142Y30207143D01*
X16636428Y30192858D01*
X16650714Y30164286D01*
X16650714Y30135715D01*
X16636428Y30107143D01*
X16622142Y30092858D01*
X16593571Y30078572D01*
X16536428Y30064286D01*
X16465000Y30064286D01*
X16407857Y30078572D01*
X16379285Y30092858D01*
X16365000Y30107143D01*
X16350714Y30135715D01*
X16450714Y30364286D02*
X16650714Y30364286D01*
X16479285Y30364286D02*
X16465000Y30378572D01*
X16450714Y30407143D01*
X16450714Y30450000D01*
X16465000Y30478572D01*
X16493571Y30492858D01*
X16650714Y30492858D01*
X16027142Y29747143D02*
X16041428Y29732858D01*
X16055714Y29690000D01*
X16055714Y29661429D01*
X16041428Y29618572D01*
X16012857Y29590000D01*
X15984285Y29575715D01*
X15927142Y29561429D01*
X15884285Y29561429D01*
X15827142Y29575715D01*
X15798571Y29590000D01*
X15770000Y29618572D01*
X15755714Y29661429D01*
X15755714Y29690000D01*
X15770000Y29732858D01*
X15784285Y29747143D01*
X16055714Y30032858D02*
X16055714Y29861429D01*
X16055714Y29947143D02*
X15755714Y29947143D01*
X15798571Y29918572D01*
X15827142Y29890000D01*
X15841428Y29861429D01*
X16055714Y30318572D02*
X16055714Y30147143D01*
X16055714Y30232858D02*
X15755714Y30232858D01*
X15798571Y30204286D01*
X15827142Y30175715D01*
X15841428Y30147143D01*
%TO.C,C19*%
X5385714Y43830000D02*
X5385714Y43658572D01*
X5385714Y43744286D02*
X5085714Y43744286D01*
X5128571Y43715715D01*
X5157142Y43687143D01*
X5171428Y43658572D01*
X5185714Y44087143D02*
X5385714Y44087143D01*
X5185714Y43958572D02*
X5342857Y43958572D01*
X5371428Y43972858D01*
X5385714Y44001429D01*
X5385714Y44044286D01*
X5371428Y44072858D01*
X5357142Y44087143D01*
X5367142Y42767143D02*
X5381428Y42752858D01*
X5395714Y42710000D01*
X5395714Y42681429D01*
X5381428Y42638572D01*
X5352857Y42610000D01*
X5324285Y42595715D01*
X5267142Y42581429D01*
X5224285Y42581429D01*
X5167142Y42595715D01*
X5138571Y42610000D01*
X5110000Y42638572D01*
X5095714Y42681429D01*
X5095714Y42710000D01*
X5110000Y42752858D01*
X5124285Y42767143D01*
X5395714Y43052858D02*
X5395714Y42881429D01*
X5395714Y42967143D02*
X5095714Y42967143D01*
X5138571Y42938572D01*
X5167142Y42910000D01*
X5181428Y42881429D01*
X5395714Y43195715D02*
X5395714Y43252858D01*
X5381428Y43281429D01*
X5367142Y43295715D01*
X5324285Y43324286D01*
X5267142Y43338572D01*
X5152857Y43338572D01*
X5124285Y43324286D01*
X5110000Y43310000D01*
X5095714Y43281429D01*
X5095714Y43224286D01*
X5110000Y43195715D01*
X5124285Y43181429D01*
X5152857Y43167143D01*
X5224285Y43167143D01*
X5252857Y43181429D01*
X5267142Y43195715D01*
X5281428Y43224286D01*
X5281428Y43281429D01*
X5267142Y43310000D01*
X5252857Y43324286D01*
X5224285Y43338572D01*
%TO.C,R2*%
X7794285Y32604286D02*
X7622857Y32604286D01*
X7708571Y32604286D02*
X7708571Y32904286D01*
X7680000Y32861429D01*
X7651428Y32832858D01*
X7622857Y32818572D01*
X7922857Y32604286D02*
X7922857Y32904286D01*
X7951428Y32718572D02*
X8037142Y32604286D01*
X8037142Y32804286D02*
X7922857Y32690000D01*
X7760000Y32034286D02*
X7660000Y32177143D01*
X7588571Y32034286D02*
X7588571Y32334286D01*
X7702857Y32334286D01*
X7731428Y32320000D01*
X7745714Y32305715D01*
X7760000Y32277143D01*
X7760000Y32234286D01*
X7745714Y32205715D01*
X7731428Y32191429D01*
X7702857Y32177143D01*
X7588571Y32177143D01*
X7874285Y32305715D02*
X7888571Y32320000D01*
X7917142Y32334286D01*
X7988571Y32334286D01*
X8017142Y32320000D01*
X8031428Y32305715D01*
X8045714Y32277143D01*
X8045714Y32248572D01*
X8031428Y32205715D01*
X7860000Y32034286D01*
X8045714Y32034286D01*
%TO.C,R7*%
X16111428Y11464286D02*
X16111428Y11264286D01*
X16040000Y11578572D02*
X15968571Y11364286D01*
X16154285Y11364286D01*
X16240000Y11564286D02*
X16440000Y11564286D01*
X16311428Y11264286D01*
X16611428Y11564286D02*
X16640000Y11564286D01*
X16668571Y11550000D01*
X16682857Y11535715D01*
X16697142Y11507143D01*
X16711428Y11450000D01*
X16711428Y11378572D01*
X16697142Y11321429D01*
X16682857Y11292858D01*
X16668571Y11278572D01*
X16640000Y11264286D01*
X16611428Y11264286D01*
X16582857Y11278572D01*
X16568571Y11292858D01*
X16554285Y11321429D01*
X16540000Y11378572D01*
X16540000Y11450000D01*
X16554285Y11507143D01*
X16568571Y11535715D01*
X16582857Y11550000D01*
X16611428Y11564286D01*
X17011428Y11264286D02*
X16911428Y11407143D01*
X16840000Y11264286D02*
X16840000Y11564286D01*
X16954285Y11564286D01*
X16982857Y11550000D01*
X16997142Y11535715D01*
X17011428Y11507143D01*
X17011428Y11464286D01*
X16997142Y11435715D01*
X16982857Y11421429D01*
X16954285Y11407143D01*
X16840000Y11407143D01*
X16400000Y10714286D02*
X16300000Y10857143D01*
X16228571Y10714286D02*
X16228571Y11014286D01*
X16342857Y11014286D01*
X16371428Y11000000D01*
X16385714Y10985715D01*
X16400000Y10957143D01*
X16400000Y10914286D01*
X16385714Y10885715D01*
X16371428Y10871429D01*
X16342857Y10857143D01*
X16228571Y10857143D01*
X16500000Y11014286D02*
X16700000Y11014286D01*
X16571428Y10714286D01*
%TO.C,H3*%
X15864285Y554286D02*
X15864285Y854286D01*
X15964285Y640000D01*
X16064285Y854286D01*
X16064285Y554286D01*
X16250000Y554286D02*
X16221428Y568572D01*
X16207142Y582858D01*
X16192857Y611429D01*
X16192857Y697143D01*
X16207142Y725715D01*
X16221428Y740000D01*
X16250000Y754286D01*
X16292857Y754286D01*
X16321428Y740000D01*
X16335714Y725715D01*
X16350000Y697143D01*
X16350000Y611429D01*
X16335714Y582858D01*
X16321428Y568572D01*
X16292857Y554286D01*
X16250000Y554286D01*
X16607142Y754286D02*
X16607142Y554286D01*
X16478571Y754286D02*
X16478571Y597143D01*
X16492857Y568572D01*
X16521428Y554286D01*
X16564285Y554286D01*
X16592857Y568572D01*
X16607142Y582858D01*
X16750000Y754286D02*
X16750000Y554286D01*
X16750000Y725715D02*
X16764285Y740000D01*
X16792857Y754286D01*
X16835714Y754286D01*
X16864285Y740000D01*
X16878571Y711429D01*
X16878571Y554286D01*
X16978571Y754286D02*
X17092857Y754286D01*
X17021428Y854286D02*
X17021428Y597143D01*
X17035714Y568572D01*
X17064285Y554286D01*
X17092857Y554286D01*
X17192857Y554286D02*
X17192857Y754286D01*
X17192857Y854286D02*
X17178571Y840000D01*
X17192857Y825715D01*
X17207142Y840000D01*
X17192857Y854286D01*
X17192857Y825715D01*
X17335714Y754286D02*
X17335714Y554286D01*
X17335714Y725715D02*
X17350000Y740000D01*
X17378571Y754286D01*
X17421428Y754286D01*
X17450000Y740000D01*
X17464285Y711429D01*
X17464285Y554286D01*
X17735714Y754286D02*
X17735714Y511429D01*
X17721428Y482858D01*
X17707142Y468572D01*
X17678571Y454286D01*
X17635714Y454286D01*
X17607142Y468572D01*
X17735714Y568572D02*
X17707142Y554286D01*
X17650000Y554286D01*
X17621428Y568572D01*
X17607142Y582858D01*
X17592857Y611429D01*
X17592857Y697143D01*
X17607142Y725715D01*
X17621428Y740000D01*
X17650000Y754286D01*
X17707142Y754286D01*
X17735714Y740000D01*
X17878571Y554286D02*
X17878571Y854286D01*
X17878571Y711429D02*
X18050000Y711429D01*
X18050000Y554286D02*
X18050000Y854286D01*
X18235714Y554286D02*
X18207142Y568572D01*
X18192857Y582858D01*
X18178571Y611429D01*
X18178571Y697143D01*
X18192857Y725715D01*
X18207142Y740000D01*
X18235714Y754286D01*
X18278571Y754286D01*
X18307142Y740000D01*
X18321428Y725715D01*
X18335714Y697143D01*
X18335714Y611429D01*
X18321428Y582858D01*
X18307142Y568572D01*
X18278571Y554286D01*
X18235714Y554286D01*
X18507142Y554286D02*
X18478571Y568572D01*
X18464285Y597143D01*
X18464285Y854286D01*
X18735714Y568572D02*
X18707142Y554286D01*
X18650000Y554286D01*
X18621428Y568572D01*
X18607142Y597143D01*
X18607142Y711429D01*
X18621428Y740000D01*
X18650000Y754286D01*
X18707142Y754286D01*
X18735714Y740000D01*
X18750000Y711429D01*
X18750000Y682858D01*
X18607142Y654286D01*
X17071428Y1354286D02*
X17071428Y1654286D01*
X17071428Y1511429D02*
X17242857Y1511429D01*
X17242857Y1354286D02*
X17242857Y1654286D01*
X17357142Y1654286D02*
X17542857Y1654286D01*
X17442857Y1540000D01*
X17485714Y1540000D01*
X17514285Y1525715D01*
X17528571Y1511429D01*
X17542857Y1482858D01*
X17542857Y1411429D01*
X17528571Y1382858D01*
X17514285Y1368572D01*
X17485714Y1354286D01*
X17400000Y1354286D01*
X17371428Y1368572D01*
X17357142Y1382858D01*
%TO.C,R10*%
X10355714Y18094286D02*
X10355714Y17922858D01*
X10355714Y18008572D02*
X10055714Y18008572D01*
X10098571Y17980000D01*
X10127142Y17951429D01*
X10141428Y17922858D01*
X10355714Y18222858D02*
X10055714Y18222858D01*
X10241428Y18251429D02*
X10355714Y18337143D01*
X10155714Y18337143D02*
X10270000Y18222858D01*
X10375714Y17037143D02*
X10232857Y16937143D01*
X10375714Y16865715D02*
X10075714Y16865715D01*
X10075714Y16980000D01*
X10090000Y17008572D01*
X10104285Y17022858D01*
X10132857Y17037143D01*
X10175714Y17037143D01*
X10204285Y17022858D01*
X10218571Y17008572D01*
X10232857Y16980000D01*
X10232857Y16865715D01*
X10375714Y17322858D02*
X10375714Y17151429D01*
X10375714Y17237143D02*
X10075714Y17237143D01*
X10118571Y17208572D01*
X10147142Y17180000D01*
X10161428Y17151429D01*
X10075714Y17508572D02*
X10075714Y17537143D01*
X10090000Y17565715D01*
X10104285Y17580000D01*
X10132857Y17594286D01*
X10190000Y17608572D01*
X10261428Y17608572D01*
X10318571Y17594286D01*
X10347142Y17580000D01*
X10361428Y17565715D01*
X10375714Y17537143D01*
X10375714Y17508572D01*
X10361428Y17480000D01*
X10347142Y17465715D01*
X10318571Y17451429D01*
X10261428Y17437143D01*
X10190000Y17437143D01*
X10132857Y17451429D01*
X10104285Y17465715D01*
X10090000Y17480000D01*
X10075714Y17508572D01*
%TO.C,C10*%
X15904285Y26894286D02*
X15732857Y26894286D01*
X15818571Y26894286D02*
X15818571Y27194286D01*
X15790000Y27151429D01*
X15761428Y27122858D01*
X15732857Y27108572D01*
X16090000Y27194286D02*
X16118571Y27194286D01*
X16147142Y27180000D01*
X16161428Y27165715D01*
X16175714Y27137143D01*
X16190000Y27080000D01*
X16190000Y27008572D01*
X16175714Y26951429D01*
X16161428Y26922858D01*
X16147142Y26908572D01*
X16118571Y26894286D01*
X16090000Y26894286D01*
X16061428Y26908572D01*
X16047142Y26922858D01*
X16032857Y26951429D01*
X16018571Y27008572D01*
X16018571Y27080000D01*
X16032857Y27137143D01*
X16047142Y27165715D01*
X16061428Y27180000D01*
X16090000Y27194286D01*
X16375714Y27194286D02*
X16404285Y27194286D01*
X16432857Y27180000D01*
X16447142Y27165715D01*
X16461428Y27137143D01*
X16475714Y27080000D01*
X16475714Y27008572D01*
X16461428Y26951429D01*
X16447142Y26922858D01*
X16432857Y26908572D01*
X16404285Y26894286D01*
X16375714Y26894286D01*
X16347142Y26908572D01*
X16332857Y26922858D01*
X16318571Y26951429D01*
X16304285Y27008572D01*
X16304285Y27080000D01*
X16318571Y27137143D01*
X16332857Y27165715D01*
X16347142Y27180000D01*
X16375714Y27194286D01*
X16604285Y27094286D02*
X16604285Y26894286D01*
X16604285Y27065715D02*
X16618571Y27080000D01*
X16647142Y27094286D01*
X16690000Y27094286D01*
X16718571Y27080000D01*
X16732857Y27051429D01*
X16732857Y26894286D01*
X16037142Y27512858D02*
X16022857Y27498572D01*
X15980000Y27484286D01*
X15951428Y27484286D01*
X15908571Y27498572D01*
X15880000Y27527143D01*
X15865714Y27555715D01*
X15851428Y27612858D01*
X15851428Y27655715D01*
X15865714Y27712858D01*
X15880000Y27741429D01*
X15908571Y27770000D01*
X15951428Y27784286D01*
X15980000Y27784286D01*
X16022857Y27770000D01*
X16037142Y27755715D01*
X16322857Y27484286D02*
X16151428Y27484286D01*
X16237142Y27484286D02*
X16237142Y27784286D01*
X16208571Y27741429D01*
X16180000Y27712858D01*
X16151428Y27698572D01*
X16508571Y27784286D02*
X16537142Y27784286D01*
X16565714Y27770000D01*
X16580000Y27755715D01*
X16594285Y27727143D01*
X16608571Y27670000D01*
X16608571Y27598572D01*
X16594285Y27541429D01*
X16580000Y27512858D01*
X16565714Y27498572D01*
X16537142Y27484286D01*
X16508571Y27484286D01*
X16480000Y27498572D01*
X16465714Y27512858D01*
X16451428Y27541429D01*
X16437142Y27598572D01*
X16437142Y27670000D01*
X16451428Y27727143D01*
X16465714Y27755715D01*
X16480000Y27770000D01*
X16508571Y27784286D01*
%TO.C,U3*%
X10341428Y22624286D02*
X10241428Y22767143D01*
X10170000Y22624286D02*
X10170000Y22924286D01*
X10284285Y22924286D01*
X10312857Y22910000D01*
X10327142Y22895715D01*
X10341428Y22867143D01*
X10341428Y22824286D01*
X10327142Y22795715D01*
X10312857Y22781429D01*
X10284285Y22767143D01*
X10170000Y22767143D01*
X10470000Y22624286D02*
X10470000Y22924286D01*
X10584285Y22924286D01*
X10612857Y22910000D01*
X10627142Y22895715D01*
X10641428Y22867143D01*
X10641428Y22824286D01*
X10627142Y22795715D01*
X10612857Y22781429D01*
X10584285Y22767143D01*
X10470000Y22767143D01*
X10755714Y22895715D02*
X10770000Y22910000D01*
X10798571Y22924286D01*
X10870000Y22924286D01*
X10898571Y22910000D01*
X10912857Y22895715D01*
X10927142Y22867143D01*
X10927142Y22838572D01*
X10912857Y22795715D01*
X10741428Y22624286D01*
X10927142Y22624286D01*
X11112857Y22924286D02*
X11141428Y22924286D01*
X11170000Y22910000D01*
X11184285Y22895715D01*
X11198571Y22867143D01*
X11212857Y22810000D01*
X11212857Y22738572D01*
X11198571Y22681429D01*
X11184285Y22652858D01*
X11170000Y22638572D01*
X11141428Y22624286D01*
X11112857Y22624286D01*
X11084285Y22638572D01*
X11070000Y22652858D01*
X11055714Y22681429D01*
X11041428Y22738572D01*
X11041428Y22810000D01*
X11055714Y22867143D01*
X11070000Y22895715D01*
X11084285Y22910000D01*
X11112857Y22924286D01*
X11470000Y22824286D02*
X11470000Y22624286D01*
X11398571Y22938572D02*
X11327142Y22724286D01*
X11512857Y22724286D01*
X11684285Y22924286D02*
X11712857Y22924286D01*
X11741428Y22910000D01*
X11755714Y22895715D01*
X11770000Y22867143D01*
X11784285Y22810000D01*
X11784285Y22738572D01*
X11770000Y22681429D01*
X11755714Y22652858D01*
X11741428Y22638572D01*
X11712857Y22624286D01*
X11684285Y22624286D01*
X11655714Y22638572D01*
X11641428Y22652858D01*
X11627142Y22681429D01*
X11612857Y22738572D01*
X11612857Y22810000D01*
X11627142Y22867143D01*
X11641428Y22895715D01*
X11655714Y22910000D01*
X11684285Y22924286D01*
X10591428Y23794286D02*
X10591428Y23551429D01*
X10605714Y23522858D01*
X10620000Y23508572D01*
X10648571Y23494286D01*
X10705714Y23494286D01*
X10734285Y23508572D01*
X10748571Y23522858D01*
X10762857Y23551429D01*
X10762857Y23794286D01*
X10877142Y23794286D02*
X11062857Y23794286D01*
X10962857Y23680000D01*
X11005714Y23680000D01*
X11034285Y23665715D01*
X11048571Y23651429D01*
X11062857Y23622858D01*
X11062857Y23551429D01*
X11048571Y23522858D01*
X11034285Y23508572D01*
X11005714Y23494286D01*
X10920000Y23494286D01*
X10891428Y23508572D01*
X10877142Y23522858D01*
%TO.C,R5*%
X11699285Y28471429D02*
X11685000Y28485715D01*
X11670714Y28514286D01*
X11670714Y28585715D01*
X11685000Y28614286D01*
X11699285Y28628572D01*
X11727857Y28642858D01*
X11756428Y28642858D01*
X11799285Y28628572D01*
X11970714Y28457143D01*
X11970714Y28642858D01*
X11670714Y28742858D02*
X11670714Y28942858D01*
X11970714Y28814286D01*
X11970714Y29228572D02*
X11827857Y29128572D01*
X11970714Y29057143D02*
X11670714Y29057143D01*
X11670714Y29171429D01*
X11685000Y29200000D01*
X11699285Y29214286D01*
X11727857Y29228572D01*
X11770714Y29228572D01*
X11799285Y29214286D01*
X11813571Y29200000D01*
X11827857Y29171429D01*
X11827857Y29057143D01*
X11980714Y29870000D02*
X11837857Y29770000D01*
X11980714Y29698572D02*
X11680714Y29698572D01*
X11680714Y29812858D01*
X11695000Y29841429D01*
X11709285Y29855715D01*
X11737857Y29870000D01*
X11780714Y29870000D01*
X11809285Y29855715D01*
X11823571Y29841429D01*
X11837857Y29812858D01*
X11837857Y29698572D01*
X11680714Y30141429D02*
X11680714Y29998572D01*
X11823571Y29984286D01*
X11809285Y29998572D01*
X11795000Y30027143D01*
X11795000Y30098572D01*
X11809285Y30127143D01*
X11823571Y30141429D01*
X11852142Y30155715D01*
X11923571Y30155715D01*
X11952142Y30141429D01*
X11966428Y30127143D01*
X11980714Y30098572D01*
X11980714Y30027143D01*
X11966428Y29998572D01*
X11952142Y29984286D01*
%TO.C,C2*%
X12875714Y18084286D02*
X12875714Y17912858D01*
X12875714Y17998572D02*
X12575714Y17998572D01*
X12618571Y17970000D01*
X12647142Y17941429D01*
X12661428Y17912858D01*
X12575714Y18270000D02*
X12575714Y18298572D01*
X12590000Y18327143D01*
X12604285Y18341429D01*
X12632857Y18355715D01*
X12690000Y18370000D01*
X12761428Y18370000D01*
X12818571Y18355715D01*
X12847142Y18341429D01*
X12861428Y18327143D01*
X12875714Y18298572D01*
X12875714Y18270000D01*
X12861428Y18241429D01*
X12847142Y18227143D01*
X12818571Y18212858D01*
X12761428Y18198572D01*
X12690000Y18198572D01*
X12632857Y18212858D01*
X12604285Y18227143D01*
X12590000Y18241429D01*
X12575714Y18270000D01*
X12575714Y18555715D02*
X12575714Y18584286D01*
X12590000Y18612858D01*
X12604285Y18627143D01*
X12632857Y18641429D01*
X12690000Y18655715D01*
X12761428Y18655715D01*
X12818571Y18641429D01*
X12847142Y18627143D01*
X12861428Y18612858D01*
X12875714Y18584286D01*
X12875714Y18555715D01*
X12861428Y18527143D01*
X12847142Y18512858D01*
X12818571Y18498572D01*
X12761428Y18484286D01*
X12690000Y18484286D01*
X12632857Y18498572D01*
X12604285Y18512858D01*
X12590000Y18527143D01*
X12575714Y18555715D01*
X12675714Y18784286D02*
X12875714Y18784286D01*
X12704285Y18784286D02*
X12690000Y18798572D01*
X12675714Y18827143D01*
X12675714Y18870000D01*
X12690000Y18898572D01*
X12718571Y18912858D01*
X12875714Y18912858D01*
X12877142Y17170000D02*
X12891428Y17155715D01*
X12905714Y17112858D01*
X12905714Y17084286D01*
X12891428Y17041429D01*
X12862857Y17012858D01*
X12834285Y16998572D01*
X12777142Y16984286D01*
X12734285Y16984286D01*
X12677142Y16998572D01*
X12648571Y17012858D01*
X12620000Y17041429D01*
X12605714Y17084286D01*
X12605714Y17112858D01*
X12620000Y17155715D01*
X12634285Y17170000D01*
X12634285Y17284286D02*
X12620000Y17298572D01*
X12605714Y17327143D01*
X12605714Y17398572D01*
X12620000Y17427143D01*
X12634285Y17441429D01*
X12662857Y17455715D01*
X12691428Y17455715D01*
X12734285Y17441429D01*
X12905714Y17270000D01*
X12905714Y17455715D01*
%TO.C,U1*%
X8654285Y36814286D02*
X8725714Y36514286D01*
X8782857Y36728572D01*
X8840000Y36514286D01*
X8911428Y36814286D01*
X9011428Y36785715D02*
X9025714Y36800000D01*
X9054285Y36814286D01*
X9125714Y36814286D01*
X9154285Y36800000D01*
X9168571Y36785715D01*
X9182857Y36757143D01*
X9182857Y36728572D01*
X9168571Y36685715D01*
X8997142Y36514286D01*
X9182857Y36514286D01*
X9454285Y36814286D02*
X9311428Y36814286D01*
X9297142Y36671429D01*
X9311428Y36685715D01*
X9340000Y36700000D01*
X9411428Y36700000D01*
X9440000Y36685715D01*
X9454285Y36671429D01*
X9468571Y36642858D01*
X9468571Y36571429D01*
X9454285Y36542858D01*
X9440000Y36528572D01*
X9411428Y36514286D01*
X9340000Y36514286D01*
X9311428Y36528572D01*
X9297142Y36542858D01*
X9797142Y36485715D02*
X9768571Y36500000D01*
X9740000Y36528572D01*
X9697142Y36571429D01*
X9668571Y36585715D01*
X9640000Y36585715D01*
X9654285Y36514286D02*
X9625714Y36528572D01*
X9597142Y36557143D01*
X9582857Y36614286D01*
X9582857Y36714286D01*
X9597142Y36771429D01*
X9625714Y36800000D01*
X9654285Y36814286D01*
X9711428Y36814286D01*
X9740000Y36800000D01*
X9768571Y36771429D01*
X9782857Y36714286D01*
X9782857Y36614286D01*
X9768571Y36557143D01*
X9740000Y36528572D01*
X9711428Y36514286D01*
X9654285Y36514286D01*
X10068571Y36514286D02*
X9897142Y36514286D01*
X9982857Y36514286D02*
X9982857Y36814286D01*
X9954285Y36771429D01*
X9925714Y36742858D01*
X9897142Y36728572D01*
X10182857Y36785715D02*
X10197142Y36800000D01*
X10225714Y36814286D01*
X10297142Y36814286D01*
X10325714Y36800000D01*
X10340000Y36785715D01*
X10354285Y36757143D01*
X10354285Y36728572D01*
X10340000Y36685715D01*
X10168571Y36514286D01*
X10354285Y36514286D01*
X10525714Y36685715D02*
X10497142Y36700000D01*
X10482857Y36714286D01*
X10468571Y36742858D01*
X10468571Y36757143D01*
X10482857Y36785715D01*
X10497142Y36800000D01*
X10525714Y36814286D01*
X10582857Y36814286D01*
X10611428Y36800000D01*
X10625714Y36785715D01*
X10640000Y36757143D01*
X10640000Y36742858D01*
X10625714Y36714286D01*
X10611428Y36700000D01*
X10582857Y36685715D01*
X10525714Y36685715D01*
X10497142Y36671429D01*
X10482857Y36657143D01*
X10468571Y36628572D01*
X10468571Y36571429D01*
X10482857Y36542858D01*
X10497142Y36528572D01*
X10525714Y36514286D01*
X10582857Y36514286D01*
X10611428Y36528572D01*
X10625714Y36542858D01*
X10640000Y36571429D01*
X10640000Y36628572D01*
X10625714Y36657143D01*
X10611428Y36671429D01*
X10582857Y36685715D01*
X10854285Y36814286D02*
X10854285Y36600000D01*
X10840000Y36557143D01*
X10811428Y36528572D01*
X10768571Y36514286D01*
X10740000Y36514286D01*
X10954285Y36814286D02*
X11054285Y36514286D01*
X11154285Y36814286D01*
X11240000Y36528572D02*
X11282857Y36514286D01*
X11354285Y36514286D01*
X11382857Y36528572D01*
X11397142Y36542858D01*
X11411428Y36571429D01*
X11411428Y36600000D01*
X11397142Y36628572D01*
X11382857Y36642858D01*
X11354285Y36657143D01*
X11297142Y36671429D01*
X11268571Y36685715D01*
X11254285Y36700000D01*
X11240000Y36728572D01*
X11240000Y36757143D01*
X11254285Y36785715D01*
X11268571Y36800000D01*
X11297142Y36814286D01*
X11368571Y36814286D01*
X11411428Y36800000D01*
X9611428Y37534286D02*
X9611428Y37291429D01*
X9625714Y37262858D01*
X9640000Y37248572D01*
X9668571Y37234286D01*
X9725714Y37234286D01*
X9754285Y37248572D01*
X9768571Y37262858D01*
X9782857Y37291429D01*
X9782857Y37534286D01*
X10082857Y37234286D02*
X9911428Y37234286D01*
X9997142Y37234286D02*
X9997142Y37534286D01*
X9968571Y37491429D01*
X9940000Y37462858D01*
X9911428Y37448572D01*
%TO.C,C5*%
X10815714Y29025000D02*
X10815714Y28853572D01*
X10815714Y28939286D02*
X10515714Y28939286D01*
X10558571Y28910715D01*
X10587142Y28882143D01*
X10601428Y28853572D01*
X10615714Y29282143D02*
X10815714Y29282143D01*
X10615714Y29153572D02*
X10772857Y29153572D01*
X10801428Y29167858D01*
X10815714Y29196429D01*
X10815714Y29239286D01*
X10801428Y29267858D01*
X10787142Y29282143D01*
X10847142Y29975000D02*
X10861428Y29960715D01*
X10875714Y29917858D01*
X10875714Y29889286D01*
X10861428Y29846429D01*
X10832857Y29817858D01*
X10804285Y29803572D01*
X10747142Y29789286D01*
X10704285Y29789286D01*
X10647142Y29803572D01*
X10618571Y29817858D01*
X10590000Y29846429D01*
X10575714Y29889286D01*
X10575714Y29917858D01*
X10590000Y29960715D01*
X10604285Y29975000D01*
X10575714Y30246429D02*
X10575714Y30103572D01*
X10718571Y30089286D01*
X10704285Y30103572D01*
X10690000Y30132143D01*
X10690000Y30203572D01*
X10704285Y30232143D01*
X10718571Y30246429D01*
X10747142Y30260715D01*
X10818571Y30260715D01*
X10847142Y30246429D01*
X10861428Y30232143D01*
X10875714Y30203572D01*
X10875714Y30132143D01*
X10861428Y30103572D01*
X10847142Y30089286D01*
%TO.C,R1*%
X9834285Y32564286D02*
X9834285Y32864286D01*
X9905714Y32864286D01*
X9948571Y32850000D01*
X9977142Y32821429D01*
X9991428Y32792858D01*
X10005714Y32735715D01*
X10005714Y32692858D01*
X9991428Y32635715D01*
X9977142Y32607143D01*
X9948571Y32578572D01*
X9905714Y32564286D01*
X9834285Y32564286D01*
X10134285Y32564286D02*
X10134285Y32864286D01*
X10305714Y32564286D01*
X10305714Y32864286D01*
X10448571Y32564286D02*
X10448571Y32864286D01*
X10562857Y32864286D01*
X10591428Y32850000D01*
X10605714Y32835715D01*
X10620000Y32807143D01*
X10620000Y32764286D01*
X10605714Y32735715D01*
X10591428Y32721429D01*
X10562857Y32707143D01*
X10448571Y32707143D01*
X10150000Y32024286D02*
X10050000Y32167143D01*
X9978571Y32024286D02*
X9978571Y32324286D01*
X10092857Y32324286D01*
X10121428Y32310000D01*
X10135714Y32295715D01*
X10150000Y32267143D01*
X10150000Y32224286D01*
X10135714Y32195715D01*
X10121428Y32181429D01*
X10092857Y32167143D01*
X9978571Y32167143D01*
X10435714Y32024286D02*
X10264285Y32024286D01*
X10350000Y32024286D02*
X10350000Y32324286D01*
X10321428Y32281429D01*
X10292857Y32252858D01*
X10264285Y32238572D01*
%TO.C,C4*%
X14055714Y28980000D02*
X14055714Y28808572D01*
X14055714Y28894286D02*
X13755714Y28894286D01*
X13798571Y28865715D01*
X13827142Y28837143D01*
X13841428Y28808572D01*
X13855714Y29237143D02*
X14055714Y29237143D01*
X13855714Y29108572D02*
X14012857Y29108572D01*
X14041428Y29122858D01*
X14055714Y29151429D01*
X14055714Y29194286D01*
X14041428Y29222858D01*
X14027142Y29237143D01*
X14067142Y29850000D02*
X14081428Y29835715D01*
X14095714Y29792858D01*
X14095714Y29764286D01*
X14081428Y29721429D01*
X14052857Y29692858D01*
X14024285Y29678572D01*
X13967142Y29664286D01*
X13924285Y29664286D01*
X13867142Y29678572D01*
X13838571Y29692858D01*
X13810000Y29721429D01*
X13795714Y29764286D01*
X13795714Y29792858D01*
X13810000Y29835715D01*
X13824285Y29850000D01*
X13895714Y30107143D02*
X14095714Y30107143D01*
X13781428Y30035715D02*
X13995714Y29964286D01*
X13995714Y30150000D01*
%TO.C,C1*%
X6594285Y41994286D02*
X6422857Y41994286D01*
X6508571Y41994286D02*
X6508571Y42294286D01*
X6480000Y42251429D01*
X6451428Y42222858D01*
X6422857Y42208572D01*
X6780000Y42294286D02*
X6808571Y42294286D01*
X6837142Y42280000D01*
X6851428Y42265715D01*
X6865714Y42237143D01*
X6880000Y42180000D01*
X6880000Y42108572D01*
X6865714Y42051429D01*
X6851428Y42022858D01*
X6837142Y42008572D01*
X6808571Y41994286D01*
X6780000Y41994286D01*
X6751428Y42008572D01*
X6737142Y42022858D01*
X6722857Y42051429D01*
X6708571Y42108572D01*
X6708571Y42180000D01*
X6722857Y42237143D01*
X6737142Y42265715D01*
X6751428Y42280000D01*
X6780000Y42294286D01*
X7065714Y42294286D02*
X7094285Y42294286D01*
X7122857Y42280000D01*
X7137142Y42265715D01*
X7151428Y42237143D01*
X7165714Y42180000D01*
X7165714Y42108572D01*
X7151428Y42051429D01*
X7137142Y42022858D01*
X7122857Y42008572D01*
X7094285Y41994286D01*
X7065714Y41994286D01*
X7037142Y42008572D01*
X7022857Y42022858D01*
X7008571Y42051429D01*
X6994285Y42108572D01*
X6994285Y42180000D01*
X7008571Y42237143D01*
X7022857Y42265715D01*
X7037142Y42280000D01*
X7065714Y42294286D01*
X7294285Y42194286D02*
X7294285Y41994286D01*
X7294285Y42165715D02*
X7308571Y42180000D01*
X7337142Y42194286D01*
X7380000Y42194286D01*
X7408571Y42180000D01*
X7422857Y42151429D01*
X7422857Y41994286D01*
X6860000Y42582858D02*
X6845714Y42568572D01*
X6802857Y42554286D01*
X6774285Y42554286D01*
X6731428Y42568572D01*
X6702857Y42597143D01*
X6688571Y42625715D01*
X6674285Y42682858D01*
X6674285Y42725715D01*
X6688571Y42782858D01*
X6702857Y42811429D01*
X6731428Y42840000D01*
X6774285Y42854286D01*
X6802857Y42854286D01*
X6845714Y42840000D01*
X6860000Y42825715D01*
X7145714Y42554286D02*
X6974285Y42554286D01*
X7060000Y42554286D02*
X7060000Y42854286D01*
X7031428Y42811429D01*
X7002857Y42782858D01*
X6974285Y42768572D01*
%TO.C,J5*%
X10092857Y738572D02*
X10135714Y724286D01*
X10207142Y724286D01*
X10235714Y738572D01*
X10250000Y752858D01*
X10264285Y781429D01*
X10264285Y810000D01*
X10250000Y838572D01*
X10235714Y852858D01*
X10207142Y867143D01*
X10150000Y881429D01*
X10121428Y895715D01*
X10107142Y910000D01*
X10092857Y938572D01*
X10092857Y967143D01*
X10107142Y995715D01*
X10121428Y1010000D01*
X10150000Y1024286D01*
X10221428Y1024286D01*
X10264285Y1010000D01*
X10364285Y1024286D02*
X10435714Y724286D01*
X10492857Y938572D01*
X10550000Y724286D01*
X10621428Y1024286D01*
X10735714Y724286D02*
X10735714Y1024286D01*
X10807142Y1024286D01*
X10850000Y1010000D01*
X10878571Y981429D01*
X10892857Y952858D01*
X10907142Y895715D01*
X10907142Y852858D01*
X10892857Y795715D01*
X10878571Y767143D01*
X10850000Y738572D01*
X10807142Y724286D01*
X10735714Y724286D01*
X10390000Y1764286D02*
X10390000Y1550000D01*
X10375714Y1507143D01*
X10347142Y1478572D01*
X10304285Y1464286D01*
X10275714Y1464286D01*
X10675714Y1764286D02*
X10532857Y1764286D01*
X10518571Y1621429D01*
X10532857Y1635715D01*
X10561428Y1650000D01*
X10632857Y1650000D01*
X10661428Y1635715D01*
X10675714Y1621429D01*
X10690000Y1592858D01*
X10690000Y1521429D01*
X10675714Y1492858D01*
X10661428Y1478572D01*
X10632857Y1464286D01*
X10561428Y1464286D01*
X10532857Y1478572D01*
X10518571Y1492858D01*
%TO.C,JP1*%
X18170000Y38370000D02*
X18170000Y38512858D01*
X18255714Y38341429D02*
X17955714Y38441429D01*
X18255714Y38541429D01*
X18255714Y38812858D02*
X18112857Y38712858D01*
X18255714Y38641429D02*
X17955714Y38641429D01*
X17955714Y38755715D01*
X17970000Y38784286D01*
X17984285Y38798572D01*
X18012857Y38812858D01*
X18055714Y38812858D01*
X18084285Y38798572D01*
X18098571Y38784286D01*
X18112857Y38755715D01*
X18112857Y38641429D01*
X18098571Y38941429D02*
X18098571Y39041429D01*
X18255714Y39084286D02*
X18255714Y38941429D01*
X17955714Y38941429D01*
X17955714Y39084286D01*
X18098571Y39312858D02*
X18098571Y39212858D01*
X18255714Y39212858D02*
X17955714Y39212858D01*
X17955714Y39355715D01*
X18284285Y39398572D02*
X18284285Y39627143D01*
X18241428Y39684286D02*
X18255714Y39727143D01*
X18255714Y39798572D01*
X18241428Y39827143D01*
X18227142Y39841429D01*
X18198571Y39855715D01*
X18170000Y39855715D01*
X18141428Y39841429D01*
X18127142Y39827143D01*
X18112857Y39798572D01*
X18098571Y39741429D01*
X18084285Y39712858D01*
X18070000Y39698572D01*
X18041428Y39684286D01*
X18012857Y39684286D01*
X17984285Y39698572D01*
X17970000Y39712858D01*
X17955714Y39741429D01*
X17955714Y39812858D01*
X17970000Y39855715D01*
X18098571Y39984286D02*
X18098571Y40084286D01*
X18255714Y40127143D02*
X18255714Y39984286D01*
X17955714Y39984286D01*
X17955714Y40127143D01*
X18255714Y40398572D02*
X18255714Y40255715D01*
X17955714Y40255715D01*
X17335714Y39000000D02*
X17550000Y39000000D01*
X17592857Y38985715D01*
X17621428Y38957143D01*
X17635714Y38914286D01*
X17635714Y38885715D01*
X17635714Y39142858D02*
X17335714Y39142858D01*
X17335714Y39257143D01*
X17350000Y39285715D01*
X17364285Y39300000D01*
X17392857Y39314286D01*
X17435714Y39314286D01*
X17464285Y39300000D01*
X17478571Y39285715D01*
X17492857Y39257143D01*
X17492857Y39142858D01*
X17635714Y39600000D02*
X17635714Y39428572D01*
X17635714Y39514286D02*
X17335714Y39514286D01*
X17378571Y39485715D01*
X17407142Y39457143D01*
X17421428Y39428572D01*
%TO.C,R9*%
X18075714Y32982858D02*
X18075714Y32811429D01*
X18075714Y32897143D02*
X17775714Y32897143D01*
X17818571Y32868572D01*
X17847142Y32840000D01*
X17861428Y32811429D01*
X17775714Y33168572D02*
X17775714Y33197143D01*
X17790000Y33225715D01*
X17804285Y33240000D01*
X17832857Y33254286D01*
X17890000Y33268572D01*
X17961428Y33268572D01*
X18018571Y33254286D01*
X18047142Y33240000D01*
X18061428Y33225715D01*
X18075714Y33197143D01*
X18075714Y33168572D01*
X18061428Y33140000D01*
X18047142Y33125715D01*
X18018571Y33111429D01*
X17961428Y33097143D01*
X17890000Y33097143D01*
X17832857Y33111429D01*
X17804285Y33125715D01*
X17790000Y33140000D01*
X17775714Y33168572D01*
X18075714Y33397143D02*
X17775714Y33397143D01*
X18075714Y33568572D02*
X17904285Y33440000D01*
X17775714Y33568572D02*
X17947142Y33397143D01*
X17455714Y33150000D02*
X17312857Y33050000D01*
X17455714Y32978572D02*
X17155714Y32978572D01*
X17155714Y33092858D01*
X17170000Y33121429D01*
X17184285Y33135715D01*
X17212857Y33150000D01*
X17255714Y33150000D01*
X17284285Y33135715D01*
X17298571Y33121429D01*
X17312857Y33092858D01*
X17312857Y32978572D01*
X17455714Y33292858D02*
X17455714Y33350000D01*
X17441428Y33378572D01*
X17427142Y33392858D01*
X17384285Y33421429D01*
X17327142Y33435715D01*
X17212857Y33435715D01*
X17184285Y33421429D01*
X17170000Y33407143D01*
X17155714Y33378572D01*
X17155714Y33321429D01*
X17170000Y33292858D01*
X17184285Y33278572D01*
X17212857Y33264286D01*
X17284285Y33264286D01*
X17312857Y33278572D01*
X17327142Y33292858D01*
X17341428Y33321429D01*
X17341428Y33378572D01*
X17327142Y33407143D01*
X17312857Y33421429D01*
X17284285Y33435715D01*
%TO.C,C9*%
X11745714Y18104286D02*
X11745714Y17932858D01*
X11745714Y18018572D02*
X11445714Y18018572D01*
X11488571Y17990000D01*
X11517142Y17961429D01*
X11531428Y17932858D01*
X11445714Y18290000D02*
X11445714Y18318572D01*
X11460000Y18347143D01*
X11474285Y18361429D01*
X11502857Y18375715D01*
X11560000Y18390000D01*
X11631428Y18390000D01*
X11688571Y18375715D01*
X11717142Y18361429D01*
X11731428Y18347143D01*
X11745714Y18318572D01*
X11745714Y18290000D01*
X11731428Y18261429D01*
X11717142Y18247143D01*
X11688571Y18232858D01*
X11631428Y18218572D01*
X11560000Y18218572D01*
X11502857Y18232858D01*
X11474285Y18247143D01*
X11460000Y18261429D01*
X11445714Y18290000D01*
X11445714Y18575715D02*
X11445714Y18604286D01*
X11460000Y18632858D01*
X11474285Y18647143D01*
X11502857Y18661429D01*
X11560000Y18675715D01*
X11631428Y18675715D01*
X11688571Y18661429D01*
X11717142Y18647143D01*
X11731428Y18632858D01*
X11745714Y18604286D01*
X11745714Y18575715D01*
X11731428Y18547143D01*
X11717142Y18532858D01*
X11688571Y18518572D01*
X11631428Y18504286D01*
X11560000Y18504286D01*
X11502857Y18518572D01*
X11474285Y18532858D01*
X11460000Y18547143D01*
X11445714Y18575715D01*
X11545714Y18804286D02*
X11745714Y18804286D01*
X11574285Y18804286D02*
X11560000Y18818572D01*
X11545714Y18847143D01*
X11545714Y18890000D01*
X11560000Y18918572D01*
X11588571Y18932858D01*
X11745714Y18932858D01*
X11747142Y17170000D02*
X11761428Y17155715D01*
X11775714Y17112858D01*
X11775714Y17084286D01*
X11761428Y17041429D01*
X11732857Y17012858D01*
X11704285Y16998572D01*
X11647142Y16984286D01*
X11604285Y16984286D01*
X11547142Y16998572D01*
X11518571Y17012858D01*
X11490000Y17041429D01*
X11475714Y17084286D01*
X11475714Y17112858D01*
X11490000Y17155715D01*
X11504285Y17170000D01*
X11775714Y17312858D02*
X11775714Y17370000D01*
X11761428Y17398572D01*
X11747142Y17412858D01*
X11704285Y17441429D01*
X11647142Y17455715D01*
X11532857Y17455715D01*
X11504285Y17441429D01*
X11490000Y17427143D01*
X11475714Y17398572D01*
X11475714Y17341429D01*
X11490000Y17312858D01*
X11504285Y17298572D01*
X11532857Y17284286D01*
X11604285Y17284286D01*
X11632857Y17298572D01*
X11647142Y17312858D01*
X11661428Y17341429D01*
X11661428Y17398572D01*
X11647142Y17427143D01*
X11632857Y17441429D01*
X11604285Y17455715D01*
%TO.C,C8*%
X15685714Y18954286D02*
X15685714Y18782858D01*
X15685714Y18868572D02*
X15385714Y18868572D01*
X15428571Y18840000D01*
X15457142Y18811429D01*
X15471428Y18782858D01*
X15385714Y19140000D02*
X15385714Y19168572D01*
X15400000Y19197143D01*
X15414285Y19211429D01*
X15442857Y19225715D01*
X15500000Y19240000D01*
X15571428Y19240000D01*
X15628571Y19225715D01*
X15657142Y19211429D01*
X15671428Y19197143D01*
X15685714Y19168572D01*
X15685714Y19140000D01*
X15671428Y19111429D01*
X15657142Y19097143D01*
X15628571Y19082858D01*
X15571428Y19068572D01*
X15500000Y19068572D01*
X15442857Y19082858D01*
X15414285Y19097143D01*
X15400000Y19111429D01*
X15385714Y19140000D01*
X15385714Y19425715D02*
X15385714Y19454286D01*
X15400000Y19482858D01*
X15414285Y19497143D01*
X15442857Y19511429D01*
X15500000Y19525715D01*
X15571428Y19525715D01*
X15628571Y19511429D01*
X15657142Y19497143D01*
X15671428Y19482858D01*
X15685714Y19454286D01*
X15685714Y19425715D01*
X15671428Y19397143D01*
X15657142Y19382858D01*
X15628571Y19368572D01*
X15571428Y19354286D01*
X15500000Y19354286D01*
X15442857Y19368572D01*
X15414285Y19382858D01*
X15400000Y19397143D01*
X15385714Y19425715D01*
X15485714Y19654286D02*
X15685714Y19654286D01*
X15514285Y19654286D02*
X15500000Y19668572D01*
X15485714Y19697143D01*
X15485714Y19740000D01*
X15500000Y19768572D01*
X15528571Y19782858D01*
X15685714Y19782858D01*
X16217142Y19240000D02*
X16231428Y19225715D01*
X16245714Y19182858D01*
X16245714Y19154286D01*
X16231428Y19111429D01*
X16202857Y19082858D01*
X16174285Y19068572D01*
X16117142Y19054286D01*
X16074285Y19054286D01*
X16017142Y19068572D01*
X15988571Y19082858D01*
X15960000Y19111429D01*
X15945714Y19154286D01*
X15945714Y19182858D01*
X15960000Y19225715D01*
X15974285Y19240000D01*
X16074285Y19411429D02*
X16060000Y19382858D01*
X16045714Y19368572D01*
X16017142Y19354286D01*
X16002857Y19354286D01*
X15974285Y19368572D01*
X15960000Y19382858D01*
X15945714Y19411429D01*
X15945714Y19468572D01*
X15960000Y19497143D01*
X15974285Y19511429D01*
X16002857Y19525715D01*
X16017142Y19525715D01*
X16045714Y19511429D01*
X16060000Y19497143D01*
X16074285Y19468572D01*
X16074285Y19411429D01*
X16088571Y19382858D01*
X16102857Y19368572D01*
X16131428Y19354286D01*
X16188571Y19354286D01*
X16217142Y19368572D01*
X16231428Y19382858D01*
X16245714Y19411429D01*
X16245714Y19468572D01*
X16231428Y19497143D01*
X16217142Y19511429D01*
X16188571Y19525715D01*
X16131428Y19525715D01*
X16102857Y19511429D01*
X16088571Y19497143D01*
X16074285Y19468572D01*
%TO.C,C15*%
X14697142Y31064286D02*
X14525714Y31064286D01*
X14611428Y31064286D02*
X14611428Y31364286D01*
X14582857Y31321429D01*
X14554285Y31292858D01*
X14525714Y31278572D01*
X14882857Y31364286D02*
X14911428Y31364286D01*
X14940000Y31350000D01*
X14954285Y31335715D01*
X14968571Y31307143D01*
X14982857Y31250000D01*
X14982857Y31178572D01*
X14968571Y31121429D01*
X14954285Y31092858D01*
X14940000Y31078572D01*
X14911428Y31064286D01*
X14882857Y31064286D01*
X14854285Y31078572D01*
X14840000Y31092858D01*
X14825714Y31121429D01*
X14811428Y31178572D01*
X14811428Y31250000D01*
X14825714Y31307143D01*
X14840000Y31335715D01*
X14854285Y31350000D01*
X14882857Y31364286D01*
X15240000Y31264286D02*
X15240000Y31064286D01*
X15111428Y31264286D02*
X15111428Y31107143D01*
X15125714Y31078572D01*
X15154285Y31064286D01*
X15197142Y31064286D01*
X15225714Y31078572D01*
X15240000Y31092858D01*
X14597142Y31812858D02*
X14582857Y31798572D01*
X14540000Y31784286D01*
X14511428Y31784286D01*
X14468571Y31798572D01*
X14440000Y31827143D01*
X14425714Y31855715D01*
X14411428Y31912858D01*
X14411428Y31955715D01*
X14425714Y32012858D01*
X14440000Y32041429D01*
X14468571Y32070000D01*
X14511428Y32084286D01*
X14540000Y32084286D01*
X14582857Y32070000D01*
X14597142Y32055715D01*
X14882857Y31784286D02*
X14711428Y31784286D01*
X14797142Y31784286D02*
X14797142Y32084286D01*
X14768571Y32041429D01*
X14740000Y32012858D01*
X14711428Y31998572D01*
X15154285Y32084286D02*
X15011428Y32084286D01*
X14997142Y31941429D01*
X15011428Y31955715D01*
X15040000Y31970000D01*
X15111428Y31970000D01*
X15140000Y31955715D01*
X15154285Y31941429D01*
X15168571Y31912858D01*
X15168571Y31841429D01*
X15154285Y31812858D01*
X15140000Y31798572D01*
X15111428Y31784286D01*
X15040000Y31784286D01*
X15011428Y31798572D01*
X14997142Y31812858D01*
%TO.C,H2*%
X2864285Y654286D02*
X2864285Y954286D01*
X2964285Y740000D01*
X3064285Y954286D01*
X3064285Y654286D01*
X3250000Y654286D02*
X3221428Y668572D01*
X3207142Y682858D01*
X3192857Y711429D01*
X3192857Y797143D01*
X3207142Y825715D01*
X3221428Y840000D01*
X3250000Y854286D01*
X3292857Y854286D01*
X3321428Y840000D01*
X3335714Y825715D01*
X3350000Y797143D01*
X3350000Y711429D01*
X3335714Y682858D01*
X3321428Y668572D01*
X3292857Y654286D01*
X3250000Y654286D01*
X3607142Y854286D02*
X3607142Y654286D01*
X3478571Y854286D02*
X3478571Y697143D01*
X3492857Y668572D01*
X3521428Y654286D01*
X3564285Y654286D01*
X3592857Y668572D01*
X3607142Y682858D01*
X3750000Y854286D02*
X3750000Y654286D01*
X3750000Y825715D02*
X3764285Y840000D01*
X3792857Y854286D01*
X3835714Y854286D01*
X3864285Y840000D01*
X3878571Y811429D01*
X3878571Y654286D01*
X3978571Y854286D02*
X4092857Y854286D01*
X4021428Y954286D02*
X4021428Y697143D01*
X4035714Y668572D01*
X4064285Y654286D01*
X4092857Y654286D01*
X4192857Y654286D02*
X4192857Y854286D01*
X4192857Y954286D02*
X4178571Y940000D01*
X4192857Y925715D01*
X4207142Y940000D01*
X4192857Y954286D01*
X4192857Y925715D01*
X4335714Y854286D02*
X4335714Y654286D01*
X4335714Y825715D02*
X4350000Y840000D01*
X4378571Y854286D01*
X4421428Y854286D01*
X4450000Y840000D01*
X4464285Y811429D01*
X4464285Y654286D01*
X4735714Y854286D02*
X4735714Y611429D01*
X4721428Y582858D01*
X4707142Y568572D01*
X4678571Y554286D01*
X4635714Y554286D01*
X4607142Y568572D01*
X4735714Y668572D02*
X4707142Y654286D01*
X4650000Y654286D01*
X4621428Y668572D01*
X4607142Y682858D01*
X4592857Y711429D01*
X4592857Y797143D01*
X4607142Y825715D01*
X4621428Y840000D01*
X4650000Y854286D01*
X4707142Y854286D01*
X4735714Y840000D01*
X4878571Y654286D02*
X4878571Y954286D01*
X4878571Y811429D02*
X5050000Y811429D01*
X5050000Y654286D02*
X5050000Y954286D01*
X5235714Y654286D02*
X5207142Y668572D01*
X5192857Y682858D01*
X5178571Y711429D01*
X5178571Y797143D01*
X5192857Y825715D01*
X5207142Y840000D01*
X5235714Y854286D01*
X5278571Y854286D01*
X5307142Y840000D01*
X5321428Y825715D01*
X5335714Y797143D01*
X5335714Y711429D01*
X5321428Y682858D01*
X5307142Y668572D01*
X5278571Y654286D01*
X5235714Y654286D01*
X5507142Y654286D02*
X5478571Y668572D01*
X5464285Y697143D01*
X5464285Y954286D01*
X5735714Y668572D02*
X5707142Y654286D01*
X5650000Y654286D01*
X5621428Y668572D01*
X5607142Y697143D01*
X5607142Y811429D01*
X5621428Y840000D01*
X5650000Y854286D01*
X5707142Y854286D01*
X5735714Y840000D01*
X5750000Y811429D01*
X5750000Y782858D01*
X5607142Y754286D01*
X4071428Y1354286D02*
X4071428Y1654286D01*
X4071428Y1511429D02*
X4242857Y1511429D01*
X4242857Y1354286D02*
X4242857Y1654286D01*
X4371428Y1625715D02*
X4385714Y1640000D01*
X4414285Y1654286D01*
X4485714Y1654286D01*
X4514285Y1640000D01*
X4528571Y1625715D01*
X4542857Y1597143D01*
X4542857Y1568572D01*
X4528571Y1525715D01*
X4357142Y1354286D01*
X4542857Y1354286D01*
%TO.C,J2*%
X7787857Y47984286D02*
X7787857Y47741429D01*
X7802142Y47712858D01*
X7816428Y47698572D01*
X7845000Y47684286D01*
X7902142Y47684286D01*
X7930714Y47698572D01*
X7945000Y47712858D01*
X7959285Y47741429D01*
X7959285Y47984286D01*
X8087857Y47698572D02*
X8130714Y47684286D01*
X8202142Y47684286D01*
X8230714Y47698572D01*
X8245000Y47712858D01*
X8259285Y47741429D01*
X8259285Y47770000D01*
X8245000Y47798572D01*
X8230714Y47812858D01*
X8202142Y47827143D01*
X8145000Y47841429D01*
X8116428Y47855715D01*
X8102142Y47870000D01*
X8087857Y47898572D01*
X8087857Y47927143D01*
X8102142Y47955715D01*
X8116428Y47970000D01*
X8145000Y47984286D01*
X8216428Y47984286D01*
X8259285Y47970000D01*
X8487857Y47841429D02*
X8530714Y47827143D01*
X8545000Y47812858D01*
X8559285Y47784286D01*
X8559285Y47741429D01*
X8545000Y47712858D01*
X8530714Y47698572D01*
X8502142Y47684286D01*
X8387857Y47684286D01*
X8387857Y47984286D01*
X8487857Y47984286D01*
X8516428Y47970000D01*
X8530714Y47955715D01*
X8545000Y47927143D01*
X8545000Y47898572D01*
X8530714Y47870000D01*
X8516428Y47855715D01*
X8487857Y47841429D01*
X8387857Y47841429D01*
X8616428Y47655715D02*
X8845000Y47655715D01*
X9087857Y47712858D02*
X9073571Y47698572D01*
X9030714Y47684286D01*
X9002142Y47684286D01*
X8959285Y47698572D01*
X8930714Y47727143D01*
X8916428Y47755715D01*
X8902142Y47812858D01*
X8902142Y47855715D01*
X8916428Y47912858D01*
X8930714Y47941429D01*
X8959285Y47970000D01*
X9002142Y47984286D01*
X9030714Y47984286D01*
X9073571Y47970000D01*
X9087857Y47955715D01*
X9145000Y47655715D02*
X9373571Y47655715D01*
X9616428Y47684286D02*
X9516428Y47827143D01*
X9445000Y47684286D02*
X9445000Y47984286D01*
X9559285Y47984286D01*
X9587857Y47970000D01*
X9602142Y47955715D01*
X9616428Y47927143D01*
X9616428Y47884286D01*
X9602142Y47855715D01*
X9587857Y47841429D01*
X9559285Y47827143D01*
X9445000Y47827143D01*
X9859285Y47698572D02*
X9830714Y47684286D01*
X9773571Y47684286D01*
X9745000Y47698572D01*
X9730714Y47727143D01*
X9730714Y47841429D01*
X9745000Y47870000D01*
X9773571Y47884286D01*
X9830714Y47884286D01*
X9859285Y47870000D01*
X9873571Y47841429D01*
X9873571Y47812858D01*
X9730714Y47784286D01*
X10130714Y47698572D02*
X10102142Y47684286D01*
X10045000Y47684286D01*
X10016428Y47698572D01*
X10002142Y47712858D01*
X9987857Y47741429D01*
X9987857Y47827143D01*
X10002142Y47855715D01*
X10016428Y47870000D01*
X10045000Y47884286D01*
X10102142Y47884286D01*
X10130714Y47870000D01*
X10373571Y47698572D02*
X10345000Y47684286D01*
X10287857Y47684286D01*
X10259285Y47698572D01*
X10245000Y47727143D01*
X10245000Y47841429D01*
X10259285Y47870000D01*
X10287857Y47884286D01*
X10345000Y47884286D01*
X10373571Y47870000D01*
X10387857Y47841429D01*
X10387857Y47812858D01*
X10245000Y47784286D01*
X10516428Y47884286D02*
X10516428Y47584286D01*
X10516428Y47870000D02*
X10545000Y47884286D01*
X10602142Y47884286D01*
X10630714Y47870000D01*
X10645000Y47855715D01*
X10659285Y47827143D01*
X10659285Y47741429D01*
X10645000Y47712858D01*
X10630714Y47698572D01*
X10602142Y47684286D01*
X10545000Y47684286D01*
X10516428Y47698572D01*
X10745000Y47884286D02*
X10859285Y47884286D01*
X10787857Y47984286D02*
X10787857Y47727143D01*
X10802142Y47698572D01*
X10830714Y47684286D01*
X10859285Y47684286D01*
X11087857Y47684286D02*
X11087857Y47841429D01*
X11073571Y47870000D01*
X11045000Y47884286D01*
X10987857Y47884286D01*
X10959285Y47870000D01*
X11087857Y47698572D02*
X11059285Y47684286D01*
X10987857Y47684286D01*
X10959285Y47698572D01*
X10945000Y47727143D01*
X10945000Y47755715D01*
X10959285Y47784286D01*
X10987857Y47798572D01*
X11059285Y47798572D01*
X11087857Y47812858D01*
X11359285Y47698572D02*
X11330714Y47684286D01*
X11273571Y47684286D01*
X11245000Y47698572D01*
X11230714Y47712858D01*
X11216428Y47741429D01*
X11216428Y47827143D01*
X11230714Y47855715D01*
X11245000Y47870000D01*
X11273571Y47884286D01*
X11330714Y47884286D01*
X11359285Y47870000D01*
X11530714Y47684286D02*
X11502142Y47698572D01*
X11487857Y47727143D01*
X11487857Y47984286D01*
X11759285Y47698572D02*
X11730714Y47684286D01*
X11673571Y47684286D01*
X11645000Y47698572D01*
X11630714Y47727143D01*
X11630714Y47841429D01*
X11645000Y47870000D01*
X11673571Y47884286D01*
X11730714Y47884286D01*
X11759285Y47870000D01*
X11773571Y47841429D01*
X11773571Y47812858D01*
X11630714Y47784286D01*
X11830714Y47655715D02*
X12059285Y47655715D01*
X12130714Y47984286D02*
X12130714Y47741429D01*
X12145000Y47712858D01*
X12159285Y47698572D01*
X12187857Y47684286D01*
X12245000Y47684286D01*
X12273571Y47698572D01*
X12287857Y47712858D01*
X12302142Y47741429D01*
X12302142Y47984286D01*
X12430714Y47698572D02*
X12473571Y47684286D01*
X12545000Y47684286D01*
X12573571Y47698572D01*
X12587857Y47712858D01*
X12602142Y47741429D01*
X12602142Y47770000D01*
X12587857Y47798572D01*
X12573571Y47812858D01*
X12545000Y47827143D01*
X12487857Y47841429D01*
X12459285Y47855715D01*
X12445000Y47870000D01*
X12430714Y47898572D01*
X12430714Y47927143D01*
X12445000Y47955715D01*
X12459285Y47970000D01*
X12487857Y47984286D01*
X12559285Y47984286D01*
X12602142Y47970000D01*
X12830714Y47841429D02*
X12873571Y47827143D01*
X12887857Y47812858D01*
X12902142Y47784286D01*
X12902142Y47741429D01*
X12887857Y47712858D01*
X12873571Y47698572D01*
X12845000Y47684286D01*
X12730714Y47684286D01*
X12730714Y47984286D01*
X12830714Y47984286D01*
X12859285Y47970000D01*
X12873571Y47955715D01*
X12887857Y47927143D01*
X12887857Y47898572D01*
X12873571Y47870000D01*
X12859285Y47855715D01*
X12830714Y47841429D01*
X12730714Y47841429D01*
X13016428Y47955715D02*
X13030714Y47970000D01*
X13059285Y47984286D01*
X13130714Y47984286D01*
X13159285Y47970000D01*
X13173571Y47955715D01*
X13187857Y47927143D01*
X13187857Y47898572D01*
X13173571Y47855715D01*
X13002142Y47684286D01*
X13187857Y47684286D01*
X13316428Y47712858D02*
X13330714Y47698572D01*
X13316428Y47684286D01*
X13302142Y47698572D01*
X13316428Y47712858D01*
X13316428Y47684286D01*
X13516428Y47984286D02*
X13545000Y47984286D01*
X13573571Y47970000D01*
X13587857Y47955715D01*
X13602142Y47927143D01*
X13616428Y47870000D01*
X13616428Y47798572D01*
X13602142Y47741429D01*
X13587857Y47712858D01*
X13573571Y47698572D01*
X13545000Y47684286D01*
X13516428Y47684286D01*
X13487857Y47698572D01*
X13473571Y47712858D01*
X13459285Y47741429D01*
X13445000Y47798572D01*
X13445000Y47870000D01*
X13459285Y47927143D01*
X13473571Y47955715D01*
X13487857Y47970000D01*
X13516428Y47984286D01*
%TO.C,C16*%
X13075714Y38887143D02*
X13275714Y38887143D01*
X12961428Y38815715D02*
X13175714Y38744286D01*
X13175714Y38930000D01*
X12975714Y39015715D02*
X12975714Y39215715D01*
X13275714Y39087143D01*
X12975714Y39387143D02*
X12975714Y39415715D01*
X12990000Y39444286D01*
X13004285Y39458572D01*
X13032857Y39472858D01*
X13090000Y39487143D01*
X13161428Y39487143D01*
X13218571Y39472858D01*
X13247142Y39458572D01*
X13261428Y39444286D01*
X13275714Y39415715D01*
X13275714Y39387143D01*
X13261428Y39358572D01*
X13247142Y39344286D01*
X13218571Y39330000D01*
X13161428Y39315715D01*
X13090000Y39315715D01*
X13032857Y39330000D01*
X13004285Y39344286D01*
X12990000Y39358572D01*
X12975714Y39387143D01*
X13075714Y39615715D02*
X13375714Y39615715D01*
X13090000Y39615715D02*
X13075714Y39644286D01*
X13075714Y39701429D01*
X13090000Y39730000D01*
X13104285Y39744286D01*
X13132857Y39758572D01*
X13218571Y39758572D01*
X13247142Y39744286D01*
X13261428Y39730000D01*
X13275714Y39701429D01*
X13275714Y39644286D01*
X13261428Y39615715D01*
X13118571Y39987143D02*
X13118571Y39887143D01*
X13275714Y39887143D02*
X12975714Y39887143D01*
X12975714Y40030000D01*
X13887142Y39117143D02*
X13901428Y39102858D01*
X13915714Y39060000D01*
X13915714Y39031429D01*
X13901428Y38988572D01*
X13872857Y38960000D01*
X13844285Y38945715D01*
X13787142Y38931429D01*
X13744285Y38931429D01*
X13687142Y38945715D01*
X13658571Y38960000D01*
X13630000Y38988572D01*
X13615714Y39031429D01*
X13615714Y39060000D01*
X13630000Y39102858D01*
X13644285Y39117143D01*
X13915714Y39402858D02*
X13915714Y39231429D01*
X13915714Y39317143D02*
X13615714Y39317143D01*
X13658571Y39288572D01*
X13687142Y39260000D01*
X13701428Y39231429D01*
X13615714Y39660000D02*
X13615714Y39602858D01*
X13630000Y39574286D01*
X13644285Y39560000D01*
X13687142Y39531429D01*
X13744285Y39517143D01*
X13858571Y39517143D01*
X13887142Y39531429D01*
X13901428Y39545715D01*
X13915714Y39574286D01*
X13915714Y39631429D01*
X13901428Y39660000D01*
X13887142Y39674286D01*
X13858571Y39688572D01*
X13787142Y39688572D01*
X13758571Y39674286D01*
X13744285Y39660000D01*
X13730000Y39631429D01*
X13730000Y39574286D01*
X13744285Y39545715D01*
X13758571Y39531429D01*
X13787142Y39517143D01*
%TO.C,JP4*%
X15025714Y38477143D02*
X15325714Y38577143D01*
X15025714Y38677143D01*
X15325714Y38948572D02*
X15182857Y38848572D01*
X15325714Y38777143D02*
X15025714Y38777143D01*
X15025714Y38891429D01*
X15040000Y38920000D01*
X15054285Y38934286D01*
X15082857Y38948572D01*
X15125714Y38948572D01*
X15154285Y38934286D01*
X15168571Y38920000D01*
X15182857Y38891429D01*
X15182857Y38777143D01*
X15325714Y39234286D02*
X15325714Y39062858D01*
X15325714Y39148572D02*
X15025714Y39148572D01*
X15068571Y39120000D01*
X15097142Y39091429D01*
X15111428Y39062858D01*
X15354285Y39291429D02*
X15354285Y39520000D01*
X15297142Y39762858D02*
X15311428Y39748572D01*
X15325714Y39705715D01*
X15325714Y39677143D01*
X15311428Y39634286D01*
X15282857Y39605715D01*
X15254285Y39591429D01*
X15197142Y39577143D01*
X15154285Y39577143D01*
X15097142Y39591429D01*
X15068571Y39605715D01*
X15040000Y39634286D01*
X15025714Y39677143D01*
X15025714Y39705715D01*
X15040000Y39748572D01*
X15054285Y39762858D01*
X15168571Y39891429D02*
X15168571Y39991429D01*
X15325714Y40034286D02*
X15325714Y39891429D01*
X15025714Y39891429D01*
X15025714Y40034286D01*
X15585714Y39000000D02*
X15800000Y39000000D01*
X15842857Y38985715D01*
X15871428Y38957143D01*
X15885714Y38914286D01*
X15885714Y38885715D01*
X15885714Y39142858D02*
X15585714Y39142858D01*
X15585714Y39257143D01*
X15600000Y39285715D01*
X15614285Y39300000D01*
X15642857Y39314286D01*
X15685714Y39314286D01*
X15714285Y39300000D01*
X15728571Y39285715D01*
X15742857Y39257143D01*
X15742857Y39142858D01*
X15685714Y39571429D02*
X15885714Y39571429D01*
X15571428Y39500000D02*
X15785714Y39428572D01*
X15785714Y39614286D01*
%TO.C,R4*%
X9057142Y43444286D02*
X8914285Y43444286D01*
X8900000Y43301429D01*
X8914285Y43315715D01*
X8942857Y43330000D01*
X9014285Y43330000D01*
X9042857Y43315715D01*
X9057142Y43301429D01*
X9071428Y43272858D01*
X9071428Y43201429D01*
X9057142Y43172858D01*
X9042857Y43158572D01*
X9014285Y43144286D01*
X8942857Y43144286D01*
X8914285Y43158572D01*
X8900000Y43172858D01*
X9200000Y43172858D02*
X9214285Y43158572D01*
X9200000Y43144286D01*
X9185714Y43158572D01*
X9200000Y43172858D01*
X9200000Y43144286D01*
X9500000Y43144286D02*
X9328571Y43144286D01*
X9414285Y43144286D02*
X9414285Y43444286D01*
X9385714Y43401429D01*
X9357142Y43372858D01*
X9328571Y43358572D01*
X9628571Y43144286D02*
X9628571Y43444286D01*
X9800000Y43144286D02*
X9671428Y43315715D01*
X9800000Y43444286D02*
X9628571Y43272858D01*
X9300000Y42554286D02*
X9200000Y42697143D01*
X9128571Y42554286D02*
X9128571Y42854286D01*
X9242857Y42854286D01*
X9271428Y42840000D01*
X9285714Y42825715D01*
X9300000Y42797143D01*
X9300000Y42754286D01*
X9285714Y42725715D01*
X9271428Y42711429D01*
X9242857Y42697143D01*
X9128571Y42697143D01*
X9557142Y42754286D02*
X9557142Y42554286D01*
X9485714Y42868572D02*
X9414285Y42654286D01*
X9600000Y42654286D01*
%TO.C,Y1*%
X8430000Y12267143D02*
X8430000Y12124286D01*
X8330000Y12424286D02*
X8430000Y12267143D01*
X8530000Y12424286D01*
X8630000Y12124286D02*
X8630000Y12424286D01*
X8944285Y12152858D02*
X8930000Y12138572D01*
X8887142Y12124286D01*
X8858571Y12124286D01*
X8815714Y12138572D01*
X8787142Y12167143D01*
X8772857Y12195715D01*
X8758571Y12252858D01*
X8758571Y12295715D01*
X8772857Y12352858D01*
X8787142Y12381429D01*
X8815714Y12410000D01*
X8858571Y12424286D01*
X8887142Y12424286D01*
X8930000Y12410000D01*
X8944285Y12395715D01*
X9072857Y12238572D02*
X9301428Y12238572D01*
X9601428Y12124286D02*
X9430000Y12124286D01*
X9515714Y12124286D02*
X9515714Y12424286D01*
X9487142Y12381429D01*
X9458571Y12352858D01*
X9430000Y12338572D01*
X9715714Y12395715D02*
X9730000Y12410000D01*
X9758571Y12424286D01*
X9830000Y12424286D01*
X9858571Y12410000D01*
X9872857Y12395715D01*
X9887142Y12367143D01*
X9887142Y12338572D01*
X9872857Y12295715D01*
X9701428Y12124286D01*
X9887142Y12124286D01*
X10015714Y12124286D02*
X10015714Y12424286D01*
X10115714Y12210000D01*
X10215714Y12424286D01*
X10215714Y12124286D01*
X10344285Y12395715D02*
X10358571Y12410000D01*
X10387142Y12424286D01*
X10458571Y12424286D01*
X10487142Y12410000D01*
X10501428Y12395715D01*
X10515714Y12367143D01*
X10515714Y12338572D01*
X10501428Y12295715D01*
X10330000Y12124286D01*
X10515714Y12124286D01*
X10701428Y12424286D02*
X10730000Y12424286D01*
X10758571Y12410000D01*
X10772857Y12395715D01*
X10787142Y12367143D01*
X10801428Y12310000D01*
X10801428Y12238572D01*
X10787142Y12181429D01*
X10772857Y12152858D01*
X10758571Y12138572D01*
X10730000Y12124286D01*
X10701428Y12124286D01*
X10672857Y12138572D01*
X10658571Y12152858D01*
X10644285Y12181429D01*
X10630000Y12238572D01*
X10630000Y12310000D01*
X10644285Y12367143D01*
X10658571Y12395715D01*
X10672857Y12410000D01*
X10701428Y12424286D01*
X10930000Y12124286D02*
X10930000Y12424286D01*
X11044285Y12424286D01*
X11072857Y12410000D01*
X11087142Y12395715D01*
X11101428Y12367143D01*
X11101428Y12324286D01*
X11087142Y12295715D01*
X11072857Y12281429D01*
X11044285Y12267143D01*
X10930000Y12267143D01*
X11215714Y12395715D02*
X11230000Y12410000D01*
X11258571Y12424286D01*
X11330000Y12424286D01*
X11358571Y12410000D01*
X11372857Y12395715D01*
X11387142Y12367143D01*
X11387142Y12338572D01*
X11372857Y12295715D01*
X11201428Y12124286D01*
X11387142Y12124286D01*
X11730000Y12438572D02*
X11472857Y12052858D01*
X11801428Y12424286D02*
X12001428Y12124286D01*
X12001428Y12424286D02*
X11801428Y12124286D01*
X12072857Y12424286D02*
X12244285Y12424286D01*
X12158571Y12124286D02*
X12158571Y12424286D01*
X12315714Y12424286D02*
X12501428Y12424286D01*
X12401428Y12310000D01*
X12444285Y12310000D01*
X12472857Y12295715D01*
X12487142Y12281429D01*
X12501428Y12252858D01*
X12501428Y12181429D01*
X12487142Y12152858D01*
X12472857Y12138572D01*
X12444285Y12124286D01*
X12358571Y12124286D01*
X12330000Y12138572D01*
X12315714Y12152858D01*
X12615714Y12395715D02*
X12630000Y12410000D01*
X12658571Y12424286D01*
X12730000Y12424286D01*
X12758571Y12410000D01*
X12772857Y12395715D01*
X12787142Y12367143D01*
X12787142Y12338572D01*
X12772857Y12295715D01*
X12601428Y12124286D01*
X12787142Y12124286D01*
X13044285Y12324286D02*
X13044285Y12124286D01*
X12972857Y12438572D02*
X12901428Y12224286D01*
X13087142Y12224286D01*
X13201428Y12238572D02*
X13430000Y12238572D01*
X13730000Y12124286D02*
X13558571Y12124286D01*
X13644285Y12124286D02*
X13644285Y12424286D01*
X13615714Y12381429D01*
X13587142Y12352858D01*
X13558571Y12338572D01*
X13915714Y12424286D02*
X13944285Y12424286D01*
X13972857Y12410000D01*
X13987142Y12395715D01*
X14001428Y12367143D01*
X14015714Y12310000D01*
X14015714Y12238572D01*
X14001428Y12181429D01*
X13987142Y12152858D01*
X13972857Y12138572D01*
X13944285Y12124286D01*
X13915714Y12124286D01*
X13887142Y12138572D01*
X13872857Y12152858D01*
X13858571Y12181429D01*
X13844285Y12238572D01*
X13844285Y12310000D01*
X13858571Y12367143D01*
X13872857Y12395715D01*
X13887142Y12410000D01*
X13915714Y12424286D01*
X14358571Y12438572D02*
X14101428Y12052858D01*
X14615714Y12124286D02*
X14444285Y12124286D01*
X14530000Y12124286D02*
X14530000Y12424286D01*
X14501428Y12381429D01*
X14472857Y12352858D01*
X14444285Y12338572D01*
X14801428Y12424286D02*
X14830000Y12424286D01*
X14858571Y12410000D01*
X14872857Y12395715D01*
X14887142Y12367143D01*
X14901428Y12310000D01*
X14901428Y12238572D01*
X14887142Y12181429D01*
X14872857Y12152858D01*
X14858571Y12138572D01*
X14830000Y12124286D01*
X14801428Y12124286D01*
X14772857Y12138572D01*
X14758571Y12152858D01*
X14744285Y12181429D01*
X14730000Y12238572D01*
X14730000Y12310000D01*
X14744285Y12367143D01*
X14758571Y12395715D01*
X14772857Y12410000D01*
X14801428Y12424286D01*
X11287142Y13957143D02*
X11287142Y13814286D01*
X11187142Y14114286D02*
X11287142Y13957143D01*
X11387142Y14114286D01*
X11644285Y13814286D02*
X11472857Y13814286D01*
X11558571Y13814286D02*
X11558571Y14114286D01*
X11530000Y14071429D01*
X11501428Y14042858D01*
X11472857Y14028572D01*
%TO.C,R8*%
X3575714Y42691429D02*
X3775714Y42691429D01*
X3461428Y42620000D02*
X3675714Y42548572D01*
X3675714Y42734286D01*
X3475714Y42820000D02*
X3475714Y43020000D01*
X3775714Y42891429D01*
X3475714Y43191429D02*
X3475714Y43220000D01*
X3490000Y43248572D01*
X3504285Y43262858D01*
X3532857Y43277143D01*
X3590000Y43291429D01*
X3661428Y43291429D01*
X3718571Y43277143D01*
X3747142Y43262858D01*
X3761428Y43248572D01*
X3775714Y43220000D01*
X3775714Y43191429D01*
X3761428Y43162858D01*
X3747142Y43148572D01*
X3718571Y43134286D01*
X3661428Y43120000D01*
X3590000Y43120000D01*
X3532857Y43134286D01*
X3504285Y43148572D01*
X3490000Y43162858D01*
X3475714Y43191429D01*
X3775714Y43591429D02*
X3632857Y43491429D01*
X3775714Y43420000D02*
X3475714Y43420000D01*
X3475714Y43534286D01*
X3490000Y43562858D01*
X3504285Y43577143D01*
X3532857Y43591429D01*
X3575714Y43591429D01*
X3604285Y43577143D01*
X3618571Y43562858D01*
X3632857Y43534286D01*
X3632857Y43420000D01*
X4305714Y42970000D02*
X4162857Y42870000D01*
X4305714Y42798572D02*
X4005714Y42798572D01*
X4005714Y42912858D01*
X4020000Y42941429D01*
X4034285Y42955715D01*
X4062857Y42970000D01*
X4105714Y42970000D01*
X4134285Y42955715D01*
X4148571Y42941429D01*
X4162857Y42912858D01*
X4162857Y42798572D01*
X4134285Y43141429D02*
X4120000Y43112858D01*
X4105714Y43098572D01*
X4077142Y43084286D01*
X4062857Y43084286D01*
X4034285Y43098572D01*
X4020000Y43112858D01*
X4005714Y43141429D01*
X4005714Y43198572D01*
X4020000Y43227143D01*
X4034285Y43241429D01*
X4062857Y43255715D01*
X4077142Y43255715D01*
X4105714Y43241429D01*
X4120000Y43227143D01*
X4134285Y43198572D01*
X4134285Y43141429D01*
X4148571Y43112858D01*
X4162857Y43098572D01*
X4191428Y43084286D01*
X4248571Y43084286D01*
X4277142Y43098572D01*
X4291428Y43112858D01*
X4305714Y43141429D01*
X4305714Y43198572D01*
X4291428Y43227143D01*
X4277142Y43241429D01*
X4248571Y43255715D01*
X4191428Y43255715D01*
X4162857Y43241429D01*
X4148571Y43227143D01*
X4134285Y43198572D01*
%TO.C,D1*%
X18095714Y43372858D02*
X17795714Y43372858D01*
X17795714Y43487143D01*
X17810000Y43515715D01*
X17824285Y43530000D01*
X17852857Y43544286D01*
X17895714Y43544286D01*
X17924285Y43530000D01*
X17938571Y43515715D01*
X17952857Y43487143D01*
X17952857Y43372858D01*
X18095714Y43672858D02*
X17795714Y43672858D01*
X18010000Y43772858D01*
X17795714Y43872858D01*
X18095714Y43872858D01*
X17938571Y44015715D02*
X17938571Y44115715D01*
X18095714Y44158572D02*
X18095714Y44015715D01*
X17795714Y44015715D01*
X17795714Y44158572D01*
X17810000Y44444286D02*
X17795714Y44415715D01*
X17795714Y44372858D01*
X17810000Y44330000D01*
X17838571Y44301429D01*
X17867142Y44287143D01*
X17924285Y44272858D01*
X17967142Y44272858D01*
X18024285Y44287143D01*
X18052857Y44301429D01*
X18081428Y44330000D01*
X18095714Y44372858D01*
X18095714Y44401429D01*
X18081428Y44444286D01*
X18067142Y44458572D01*
X17967142Y44458572D01*
X17967142Y44401429D01*
X17895714Y44715715D02*
X18095714Y44715715D01*
X17781428Y44644286D02*
X17995714Y44572858D01*
X17995714Y44758572D01*
X17795714Y44930000D02*
X17795714Y44958572D01*
X17810000Y44987143D01*
X17824285Y45001429D01*
X17852857Y45015715D01*
X17910000Y45030000D01*
X17981428Y45030000D01*
X18038571Y45015715D01*
X18067142Y45001429D01*
X18081428Y44987143D01*
X18095714Y44958572D01*
X18095714Y44930000D01*
X18081428Y44901429D01*
X18067142Y44887143D01*
X18038571Y44872858D01*
X17981428Y44858572D01*
X17910000Y44858572D01*
X17852857Y44872858D01*
X17824285Y44887143D01*
X17810000Y44901429D01*
X17795714Y44930000D01*
X17795714Y45215715D02*
X17795714Y45244286D01*
X17810000Y45272858D01*
X17824285Y45287143D01*
X17852857Y45301429D01*
X17910000Y45315715D01*
X17981428Y45315715D01*
X18038571Y45301429D01*
X18067142Y45287143D01*
X18081428Y45272858D01*
X18095714Y45244286D01*
X18095714Y45215715D01*
X18081428Y45187143D01*
X18067142Y45172858D01*
X18038571Y45158572D01*
X17981428Y45144286D01*
X17910000Y45144286D01*
X17852857Y45158572D01*
X17824285Y45172858D01*
X17810000Y45187143D01*
X17795714Y45215715D01*
X17795714Y45587143D02*
X17795714Y45444286D01*
X17938571Y45430000D01*
X17924285Y45444286D01*
X17910000Y45472858D01*
X17910000Y45544286D01*
X17924285Y45572858D01*
X17938571Y45587143D01*
X17967142Y45601429D01*
X18038571Y45601429D01*
X18067142Y45587143D01*
X18081428Y45572858D01*
X18095714Y45544286D01*
X18095714Y45472858D01*
X18081428Y45444286D01*
X18067142Y45430000D01*
X17938571Y45730000D02*
X17938571Y45830000D01*
X18095714Y45872858D02*
X18095714Y45730000D01*
X17795714Y45730000D01*
X17795714Y45872858D01*
X17795714Y46087143D02*
X18010000Y46087143D01*
X18052857Y46072858D01*
X18081428Y46044286D01*
X18095714Y46001429D01*
X18095714Y45972858D01*
X16718571Y45724286D02*
X16718571Y46024286D01*
X16790000Y46024286D01*
X16832857Y46010000D01*
X16861428Y45981429D01*
X16875714Y45952858D01*
X16890000Y45895715D01*
X16890000Y45852858D01*
X16875714Y45795715D01*
X16861428Y45767143D01*
X16832857Y45738572D01*
X16790000Y45724286D01*
X16718571Y45724286D01*
X17175714Y45724286D02*
X17004285Y45724286D01*
X17090000Y45724286D02*
X17090000Y46024286D01*
X17061428Y45981429D01*
X17032857Y45952858D01*
X17004285Y45938572D01*
%TO.C,D3*%
X5115714Y45371429D02*
X4815714Y45371429D01*
X4815714Y45485715D01*
X4830000Y45514286D01*
X4844285Y45528572D01*
X4872857Y45542858D01*
X4915714Y45542858D01*
X4944285Y45528572D01*
X4958571Y45514286D01*
X4972857Y45485715D01*
X4972857Y45371429D01*
X4815714Y45728572D02*
X4815714Y45785715D01*
X4830000Y45814286D01*
X4858571Y45842858D01*
X4915714Y45857143D01*
X5015714Y45857143D01*
X5072857Y45842858D01*
X5101428Y45814286D01*
X5115714Y45785715D01*
X5115714Y45728572D01*
X5101428Y45700000D01*
X5072857Y45671429D01*
X5015714Y45657143D01*
X4915714Y45657143D01*
X4858571Y45671429D01*
X4830000Y45700000D01*
X4815714Y45728572D01*
X4815714Y45957143D02*
X5115714Y46028572D01*
X4901428Y46085715D01*
X5115714Y46142858D01*
X4815714Y46214286D01*
X5144285Y46257143D02*
X5144285Y46485715D01*
X5115714Y46700000D02*
X5115714Y46557143D01*
X4815714Y46557143D01*
X4958571Y46800000D02*
X4958571Y46900000D01*
X5115714Y46942858D02*
X5115714Y46800000D01*
X4815714Y46800000D01*
X4815714Y46942858D01*
X5115714Y47071429D02*
X4815714Y47071429D01*
X4815714Y47142858D01*
X4830000Y47185715D01*
X4858571Y47214286D01*
X4887142Y47228572D01*
X4944285Y47242858D01*
X4987142Y47242858D01*
X5044285Y47228572D01*
X5072857Y47214286D01*
X5101428Y47185715D01*
X5115714Y47142858D01*
X5115714Y47071429D01*
X4335714Y45978572D02*
X4035714Y45978572D01*
X4035714Y46050000D01*
X4050000Y46092858D01*
X4078571Y46121429D01*
X4107142Y46135715D01*
X4164285Y46150000D01*
X4207142Y46150000D01*
X4264285Y46135715D01*
X4292857Y46121429D01*
X4321428Y46092858D01*
X4335714Y46050000D01*
X4335714Y45978572D01*
X4035714Y46250000D02*
X4035714Y46435715D01*
X4150000Y46335715D01*
X4150000Y46378572D01*
X4164285Y46407143D01*
X4178571Y46421429D01*
X4207142Y46435715D01*
X4278571Y46435715D01*
X4307142Y46421429D01*
X4321428Y46407143D01*
X4335714Y46378572D01*
X4335714Y46292858D01*
X4321428Y46264286D01*
X4307142Y46250000D01*
%TO.C,H4*%
X15764285Y48554286D02*
X15764285Y48854286D01*
X15864285Y48640000D01*
X15964285Y48854286D01*
X15964285Y48554286D01*
X16150000Y48554286D02*
X16121428Y48568572D01*
X16107142Y48582858D01*
X16092857Y48611429D01*
X16092857Y48697143D01*
X16107142Y48725715D01*
X16121428Y48740000D01*
X16150000Y48754286D01*
X16192857Y48754286D01*
X16221428Y48740000D01*
X16235714Y48725715D01*
X16250000Y48697143D01*
X16250000Y48611429D01*
X16235714Y48582858D01*
X16221428Y48568572D01*
X16192857Y48554286D01*
X16150000Y48554286D01*
X16507142Y48754286D02*
X16507142Y48554286D01*
X16378571Y48754286D02*
X16378571Y48597143D01*
X16392857Y48568572D01*
X16421428Y48554286D01*
X16464285Y48554286D01*
X16492857Y48568572D01*
X16507142Y48582858D01*
X16650000Y48754286D02*
X16650000Y48554286D01*
X16650000Y48725715D02*
X16664285Y48740000D01*
X16692857Y48754286D01*
X16735714Y48754286D01*
X16764285Y48740000D01*
X16778571Y48711429D01*
X16778571Y48554286D01*
X16878571Y48754286D02*
X16992857Y48754286D01*
X16921428Y48854286D02*
X16921428Y48597143D01*
X16935714Y48568572D01*
X16964285Y48554286D01*
X16992857Y48554286D01*
X17092857Y48554286D02*
X17092857Y48754286D01*
X17092857Y48854286D02*
X17078571Y48840000D01*
X17092857Y48825715D01*
X17107142Y48840000D01*
X17092857Y48854286D01*
X17092857Y48825715D01*
X17235714Y48754286D02*
X17235714Y48554286D01*
X17235714Y48725715D02*
X17250000Y48740000D01*
X17278571Y48754286D01*
X17321428Y48754286D01*
X17350000Y48740000D01*
X17364285Y48711429D01*
X17364285Y48554286D01*
X17635714Y48754286D02*
X17635714Y48511429D01*
X17621428Y48482858D01*
X17607142Y48468572D01*
X17578571Y48454286D01*
X17535714Y48454286D01*
X17507142Y48468572D01*
X17635714Y48568572D02*
X17607142Y48554286D01*
X17550000Y48554286D01*
X17521428Y48568572D01*
X17507142Y48582858D01*
X17492857Y48611429D01*
X17492857Y48697143D01*
X17507142Y48725715D01*
X17521428Y48740000D01*
X17550000Y48754286D01*
X17607142Y48754286D01*
X17635714Y48740000D01*
X17778571Y48554286D02*
X17778571Y48854286D01*
X17778571Y48711429D02*
X17950000Y48711429D01*
X17950000Y48554286D02*
X17950000Y48854286D01*
X18135714Y48554286D02*
X18107142Y48568572D01*
X18092857Y48582858D01*
X18078571Y48611429D01*
X18078571Y48697143D01*
X18092857Y48725715D01*
X18107142Y48740000D01*
X18135714Y48754286D01*
X18178571Y48754286D01*
X18207142Y48740000D01*
X18221428Y48725715D01*
X18235714Y48697143D01*
X18235714Y48611429D01*
X18221428Y48582858D01*
X18207142Y48568572D01*
X18178571Y48554286D01*
X18135714Y48554286D01*
X18407142Y48554286D02*
X18378571Y48568572D01*
X18364285Y48597143D01*
X18364285Y48854286D01*
X18635714Y48568572D02*
X18607142Y48554286D01*
X18550000Y48554286D01*
X18521428Y48568572D01*
X18507142Y48597143D01*
X18507142Y48711429D01*
X18521428Y48740000D01*
X18550000Y48754286D01*
X18607142Y48754286D01*
X18635714Y48740000D01*
X18650000Y48711429D01*
X18650000Y48682858D01*
X18507142Y48654286D01*
X17071428Y49354286D02*
X17071428Y49654286D01*
X17071428Y49511429D02*
X17242857Y49511429D01*
X17242857Y49354286D02*
X17242857Y49654286D01*
X17514285Y49554286D02*
X17514285Y49354286D01*
X17442857Y49668572D02*
X17371428Y49454286D01*
X17557142Y49454286D01*
%TO.C,H1*%
X2764285Y48554286D02*
X2764285Y48854286D01*
X2864285Y48640000D01*
X2964285Y48854286D01*
X2964285Y48554286D01*
X3150000Y48554286D02*
X3121428Y48568572D01*
X3107142Y48582858D01*
X3092857Y48611429D01*
X3092857Y48697143D01*
X3107142Y48725715D01*
X3121428Y48740000D01*
X3150000Y48754286D01*
X3192857Y48754286D01*
X3221428Y48740000D01*
X3235714Y48725715D01*
X3250000Y48697143D01*
X3250000Y48611429D01*
X3235714Y48582858D01*
X3221428Y48568572D01*
X3192857Y48554286D01*
X3150000Y48554286D01*
X3507142Y48754286D02*
X3507142Y48554286D01*
X3378571Y48754286D02*
X3378571Y48597143D01*
X3392857Y48568572D01*
X3421428Y48554286D01*
X3464285Y48554286D01*
X3492857Y48568572D01*
X3507142Y48582858D01*
X3650000Y48754286D02*
X3650000Y48554286D01*
X3650000Y48725715D02*
X3664285Y48740000D01*
X3692857Y48754286D01*
X3735714Y48754286D01*
X3764285Y48740000D01*
X3778571Y48711429D01*
X3778571Y48554286D01*
X3878571Y48754286D02*
X3992857Y48754286D01*
X3921428Y48854286D02*
X3921428Y48597143D01*
X3935714Y48568572D01*
X3964285Y48554286D01*
X3992857Y48554286D01*
X4092857Y48554286D02*
X4092857Y48754286D01*
X4092857Y48854286D02*
X4078571Y48840000D01*
X4092857Y48825715D01*
X4107142Y48840000D01*
X4092857Y48854286D01*
X4092857Y48825715D01*
X4235714Y48754286D02*
X4235714Y48554286D01*
X4235714Y48725715D02*
X4250000Y48740000D01*
X4278571Y48754286D01*
X4321428Y48754286D01*
X4350000Y48740000D01*
X4364285Y48711429D01*
X4364285Y48554286D01*
X4635714Y48754286D02*
X4635714Y48511429D01*
X4621428Y48482858D01*
X4607142Y48468572D01*
X4578571Y48454286D01*
X4535714Y48454286D01*
X4507142Y48468572D01*
X4635714Y48568572D02*
X4607142Y48554286D01*
X4550000Y48554286D01*
X4521428Y48568572D01*
X4507142Y48582858D01*
X4492857Y48611429D01*
X4492857Y48697143D01*
X4507142Y48725715D01*
X4521428Y48740000D01*
X4550000Y48754286D01*
X4607142Y48754286D01*
X4635714Y48740000D01*
X4778571Y48554286D02*
X4778571Y48854286D01*
X4778571Y48711429D02*
X4950000Y48711429D01*
X4950000Y48554286D02*
X4950000Y48854286D01*
X5135714Y48554286D02*
X5107142Y48568572D01*
X5092857Y48582858D01*
X5078571Y48611429D01*
X5078571Y48697143D01*
X5092857Y48725715D01*
X5107142Y48740000D01*
X5135714Y48754286D01*
X5178571Y48754286D01*
X5207142Y48740000D01*
X5221428Y48725715D01*
X5235714Y48697143D01*
X5235714Y48611429D01*
X5221428Y48582858D01*
X5207142Y48568572D01*
X5178571Y48554286D01*
X5135714Y48554286D01*
X5407142Y48554286D02*
X5378571Y48568572D01*
X5364285Y48597143D01*
X5364285Y48854286D01*
X5635714Y48568572D02*
X5607142Y48554286D01*
X5550000Y48554286D01*
X5521428Y48568572D01*
X5507142Y48597143D01*
X5507142Y48711429D01*
X5521428Y48740000D01*
X5550000Y48754286D01*
X5607142Y48754286D01*
X5635714Y48740000D01*
X5650000Y48711429D01*
X5650000Y48682858D01*
X5507142Y48654286D01*
X4071428Y49354286D02*
X4071428Y49654286D01*
X4071428Y49511429D02*
X4242857Y49511429D01*
X4242857Y49354286D02*
X4242857Y49654286D01*
X4542857Y49354286D02*
X4371428Y49354286D01*
X4457142Y49354286D02*
X4457142Y49654286D01*
X4428571Y49611429D01*
X4400000Y49582858D01*
X4371428Y49568572D01*
X4071428Y49354286D02*
X4071428Y49654286D01*
X4071428Y49511429D02*
X4242857Y49511429D01*
X4242857Y49354286D02*
X4242857Y49654286D01*
X4542857Y49354286D02*
X4371428Y49354286D01*
X4457142Y49354286D02*
X4457142Y49654286D01*
X4428571Y49611429D01*
X4400000Y49582858D01*
X4371428Y49568572D01*
%TO.C,SW1*%
X3685714Y38208572D02*
X3542857Y38108572D01*
X3685714Y38037143D02*
X3385714Y38037143D01*
X3385714Y38151429D01*
X3400000Y38180000D01*
X3414285Y38194286D01*
X3442857Y38208572D01*
X3485714Y38208572D01*
X3514285Y38194286D01*
X3528571Y38180000D01*
X3542857Y38151429D01*
X3542857Y38037143D01*
X3671428Y38451429D02*
X3685714Y38422858D01*
X3685714Y38365715D01*
X3671428Y38337143D01*
X3642857Y38322858D01*
X3528571Y38322858D01*
X3500000Y38337143D01*
X3485714Y38365715D01*
X3485714Y38422858D01*
X3500000Y38451429D01*
X3528571Y38465715D01*
X3557142Y38465715D01*
X3585714Y38322858D01*
X3671428Y38580000D02*
X3685714Y38608572D01*
X3685714Y38665715D01*
X3671428Y38694286D01*
X3642857Y38708572D01*
X3628571Y38708572D01*
X3600000Y38694286D01*
X3585714Y38665715D01*
X3585714Y38622858D01*
X3571428Y38594286D01*
X3542857Y38580000D01*
X3528571Y38580000D01*
X3500000Y38594286D01*
X3485714Y38622858D01*
X3485714Y38665715D01*
X3500000Y38694286D01*
X3671428Y38951429D02*
X3685714Y38922858D01*
X3685714Y38865715D01*
X3671428Y38837143D01*
X3642857Y38822858D01*
X3528571Y38822858D01*
X3500000Y38837143D01*
X3485714Y38865715D01*
X3485714Y38922858D01*
X3500000Y38951429D01*
X3528571Y38965715D01*
X3557142Y38965715D01*
X3585714Y38822858D01*
X3485714Y39051429D02*
X3485714Y39165715D01*
X3385714Y39094286D02*
X3642857Y39094286D01*
X3671428Y39108572D01*
X3685714Y39137143D01*
X3685714Y39165715D01*
%TO.C,C18*%
X14765714Y13332858D02*
X14765714Y13518572D01*
X14880000Y13418572D01*
X14880000Y13461429D01*
X14894285Y13490000D01*
X14908571Y13504286D01*
X14937142Y13518572D01*
X15008571Y13518572D01*
X15037142Y13504286D01*
X15051428Y13490000D01*
X15065714Y13461429D01*
X15065714Y13375715D01*
X15051428Y13347143D01*
X15037142Y13332858D01*
X14765714Y13704286D02*
X14765714Y13732858D01*
X14780000Y13761429D01*
X14794285Y13775715D01*
X14822857Y13790000D01*
X14880000Y13804286D01*
X14951428Y13804286D01*
X15008571Y13790000D01*
X15037142Y13775715D01*
X15051428Y13761429D01*
X15065714Y13732858D01*
X15065714Y13704286D01*
X15051428Y13675715D01*
X15037142Y13661429D01*
X15008571Y13647143D01*
X14951428Y13632858D01*
X14880000Y13632858D01*
X14822857Y13647143D01*
X14794285Y13661429D01*
X14780000Y13675715D01*
X14765714Y13704286D01*
X14865714Y13932858D02*
X15165714Y13932858D01*
X14880000Y13932858D02*
X14865714Y13961429D01*
X14865714Y14018572D01*
X14880000Y14047143D01*
X14894285Y14061429D01*
X14922857Y14075715D01*
X15008571Y14075715D01*
X15037142Y14061429D01*
X15051428Y14047143D01*
X15065714Y14018572D01*
X15065714Y13961429D01*
X15051428Y13932858D01*
X14908571Y14304286D02*
X14908571Y14204286D01*
X15065714Y14204286D02*
X14765714Y14204286D01*
X14765714Y14347143D01*
X14457142Y13617143D02*
X14471428Y13602858D01*
X14485714Y13560000D01*
X14485714Y13531429D01*
X14471428Y13488572D01*
X14442857Y13460000D01*
X14414285Y13445715D01*
X14357142Y13431429D01*
X14314285Y13431429D01*
X14257142Y13445715D01*
X14228571Y13460000D01*
X14200000Y13488572D01*
X14185714Y13531429D01*
X14185714Y13560000D01*
X14200000Y13602858D01*
X14214285Y13617143D01*
X14485714Y13902858D02*
X14485714Y13731429D01*
X14485714Y13817143D02*
X14185714Y13817143D01*
X14228571Y13788572D01*
X14257142Y13760000D01*
X14271428Y13731429D01*
X14314285Y14074286D02*
X14300000Y14045715D01*
X14285714Y14031429D01*
X14257142Y14017143D01*
X14242857Y14017143D01*
X14214285Y14031429D01*
X14200000Y14045715D01*
X14185714Y14074286D01*
X14185714Y14131429D01*
X14200000Y14160000D01*
X14214285Y14174286D01*
X14242857Y14188572D01*
X14257142Y14188572D01*
X14285714Y14174286D01*
X14300000Y14160000D01*
X14314285Y14131429D01*
X14314285Y14074286D01*
X14328571Y14045715D01*
X14342857Y14031429D01*
X14371428Y14017143D01*
X14428571Y14017143D01*
X14457142Y14031429D01*
X14471428Y14045715D01*
X14485714Y14074286D01*
X14485714Y14131429D01*
X14471428Y14160000D01*
X14457142Y14174286D01*
X14428571Y14188572D01*
X14371428Y14188572D01*
X14342857Y14174286D01*
X14328571Y14160000D01*
X14314285Y14131429D01*
%TO.C,C7*%
X9835714Y28554286D02*
X9835714Y28382858D01*
X9835714Y28468572D02*
X9535714Y28468572D01*
X9578571Y28440000D01*
X9607142Y28411429D01*
X9621428Y28382858D01*
X9535714Y28740000D02*
X9535714Y28768572D01*
X9550000Y28797143D01*
X9564285Y28811429D01*
X9592857Y28825715D01*
X9650000Y28840000D01*
X9721428Y28840000D01*
X9778571Y28825715D01*
X9807142Y28811429D01*
X9821428Y28797143D01*
X9835714Y28768572D01*
X9835714Y28740000D01*
X9821428Y28711429D01*
X9807142Y28697143D01*
X9778571Y28682858D01*
X9721428Y28668572D01*
X9650000Y28668572D01*
X9592857Y28682858D01*
X9564285Y28697143D01*
X9550000Y28711429D01*
X9535714Y28740000D01*
X9535714Y29025715D02*
X9535714Y29054286D01*
X9550000Y29082858D01*
X9564285Y29097143D01*
X9592857Y29111429D01*
X9650000Y29125715D01*
X9721428Y29125715D01*
X9778571Y29111429D01*
X9807142Y29097143D01*
X9821428Y29082858D01*
X9835714Y29054286D01*
X9835714Y29025715D01*
X9821428Y28997143D01*
X9807142Y28982858D01*
X9778571Y28968572D01*
X9721428Y28954286D01*
X9650000Y28954286D01*
X9592857Y28968572D01*
X9564285Y28982858D01*
X9550000Y28997143D01*
X9535714Y29025715D01*
X9635714Y29254286D02*
X9835714Y29254286D01*
X9664285Y29254286D02*
X9650000Y29268572D01*
X9635714Y29297143D01*
X9635714Y29340000D01*
X9650000Y29368572D01*
X9678571Y29382858D01*
X9835714Y29382858D01*
X9847142Y29980000D02*
X9861428Y29965715D01*
X9875714Y29922858D01*
X9875714Y29894286D01*
X9861428Y29851429D01*
X9832857Y29822858D01*
X9804285Y29808572D01*
X9747142Y29794286D01*
X9704285Y29794286D01*
X9647142Y29808572D01*
X9618571Y29822858D01*
X9590000Y29851429D01*
X9575714Y29894286D01*
X9575714Y29922858D01*
X9590000Y29965715D01*
X9604285Y29980000D01*
X9575714Y30080000D02*
X9575714Y30280000D01*
X9875714Y30151429D01*
%TO.C,R6*%
X12729285Y28491429D02*
X12715000Y28505715D01*
X12700714Y28534286D01*
X12700714Y28605715D01*
X12715000Y28634286D01*
X12729285Y28648572D01*
X12757857Y28662858D01*
X12786428Y28662858D01*
X12829285Y28648572D01*
X13000714Y28477143D01*
X13000714Y28662858D01*
X12700714Y28762858D02*
X12700714Y28962858D01*
X13000714Y28834286D01*
X13000714Y29248572D02*
X12857857Y29148572D01*
X13000714Y29077143D02*
X12700714Y29077143D01*
X12700714Y29191429D01*
X12715000Y29220000D01*
X12729285Y29234286D01*
X12757857Y29248572D01*
X12800714Y29248572D01*
X12829285Y29234286D01*
X12843571Y29220000D01*
X12857857Y29191429D01*
X12857857Y29077143D01*
X12980714Y29880000D02*
X12837857Y29780000D01*
X12980714Y29708572D02*
X12680714Y29708572D01*
X12680714Y29822858D01*
X12695000Y29851429D01*
X12709285Y29865715D01*
X12737857Y29880000D01*
X12780714Y29880000D01*
X12809285Y29865715D01*
X12823571Y29851429D01*
X12837857Y29822858D01*
X12837857Y29708572D01*
X12680714Y30137143D02*
X12680714Y30080000D01*
X12695000Y30051429D01*
X12709285Y30037143D01*
X12752142Y30008572D01*
X12809285Y29994286D01*
X12923571Y29994286D01*
X12952142Y30008572D01*
X12966428Y30022858D01*
X12980714Y30051429D01*
X12980714Y30108572D01*
X12966428Y30137143D01*
X12952142Y30151429D01*
X12923571Y30165715D01*
X12852142Y30165715D01*
X12823571Y30151429D01*
X12809285Y30137143D01*
X12795000Y30108572D01*
X12795000Y30051429D01*
X12809285Y30022858D01*
X12823571Y30008572D01*
X12852142Y29994286D01*
%TO.C,J3*%
X1725714Y28135715D02*
X1425714Y28135715D01*
X1568571Y28135715D02*
X1568571Y28307143D01*
X1725714Y28307143D02*
X1425714Y28307143D01*
X1711428Y28564286D02*
X1725714Y28535715D01*
X1725714Y28478572D01*
X1711428Y28450000D01*
X1682857Y28435715D01*
X1568571Y28435715D01*
X1540000Y28450000D01*
X1525714Y28478572D01*
X1525714Y28535715D01*
X1540000Y28564286D01*
X1568571Y28578572D01*
X1597142Y28578572D01*
X1625714Y28435715D01*
X1725714Y28835715D02*
X1568571Y28835715D01*
X1540000Y28821429D01*
X1525714Y28792858D01*
X1525714Y28735715D01*
X1540000Y28707143D01*
X1711428Y28835715D02*
X1725714Y28807143D01*
X1725714Y28735715D01*
X1711428Y28707143D01*
X1682857Y28692858D01*
X1654285Y28692858D01*
X1625714Y28707143D01*
X1611428Y28735715D01*
X1611428Y28807143D01*
X1597142Y28835715D01*
X1725714Y29107143D02*
X1425714Y29107143D01*
X1711428Y29107143D02*
X1725714Y29078572D01*
X1725714Y29021429D01*
X1711428Y28992858D01*
X1697142Y28978572D01*
X1668571Y28964286D01*
X1582857Y28964286D01*
X1554285Y28978572D01*
X1540000Y28992858D01*
X1525714Y29021429D01*
X1525714Y29078572D01*
X1540000Y29107143D01*
X1711428Y29364286D02*
X1725714Y29335715D01*
X1725714Y29278572D01*
X1711428Y29250000D01*
X1682857Y29235715D01*
X1568571Y29235715D01*
X1540000Y29250000D01*
X1525714Y29278572D01*
X1525714Y29335715D01*
X1540000Y29364286D01*
X1568571Y29378572D01*
X1597142Y29378572D01*
X1625714Y29235715D01*
X1725714Y29507143D02*
X1525714Y29507143D01*
X1582857Y29507143D02*
X1554285Y29521429D01*
X1540000Y29535715D01*
X1525714Y29564286D01*
X1525714Y29592858D01*
X1754285Y29621429D02*
X1754285Y29850000D01*
X1725714Y30078572D02*
X1725714Y29907143D01*
X1725714Y29992858D02*
X1425714Y29992858D01*
X1468571Y29964286D01*
X1497142Y29935715D01*
X1511428Y29907143D01*
X1435714Y25470000D02*
X1650000Y25470000D01*
X1692857Y25455715D01*
X1721428Y25427143D01*
X1735714Y25384286D01*
X1735714Y25355715D01*
X1435714Y25584286D02*
X1435714Y25770000D01*
X1550000Y25670000D01*
X1550000Y25712858D01*
X1564285Y25741429D01*
X1578571Y25755715D01*
X1607142Y25770000D01*
X1678571Y25770000D01*
X1707142Y25755715D01*
X1721428Y25741429D01*
X1735714Y25712858D01*
X1735714Y25627143D01*
X1721428Y25598572D01*
X1707142Y25584286D01*
%TO.C,C14*%
X14570714Y33465715D02*
X14585000Y33480000D01*
X14613571Y33494286D01*
X14685000Y33494286D01*
X14713571Y33480000D01*
X14727857Y33465715D01*
X14742142Y33437143D01*
X14742142Y33408572D01*
X14727857Y33365715D01*
X14556428Y33194286D01*
X14742142Y33194286D01*
X14870714Y33222858D02*
X14885000Y33208572D01*
X14870714Y33194286D01*
X14856428Y33208572D01*
X14870714Y33222858D01*
X14870714Y33194286D01*
X14999285Y33465715D02*
X15013571Y33480000D01*
X15042142Y33494286D01*
X15113571Y33494286D01*
X15142142Y33480000D01*
X15156428Y33465715D01*
X15170714Y33437143D01*
X15170714Y33408572D01*
X15156428Y33365715D01*
X14985000Y33194286D01*
X15170714Y33194286D01*
X15427857Y33394286D02*
X15427857Y33194286D01*
X15299285Y33394286D02*
X15299285Y33237143D01*
X15313571Y33208572D01*
X15342142Y33194286D01*
X15385000Y33194286D01*
X15413571Y33208572D01*
X15427857Y33222858D01*
X15670714Y33351429D02*
X15570714Y33351429D01*
X15570714Y33194286D02*
X15570714Y33494286D01*
X15713571Y33494286D01*
X14882142Y33712858D02*
X14867857Y33698572D01*
X14825000Y33684286D01*
X14796428Y33684286D01*
X14753571Y33698572D01*
X14725000Y33727143D01*
X14710714Y33755715D01*
X14696428Y33812858D01*
X14696428Y33855715D01*
X14710714Y33912858D01*
X14725000Y33941429D01*
X14753571Y33970000D01*
X14796428Y33984286D01*
X14825000Y33984286D01*
X14867857Y33970000D01*
X14882142Y33955715D01*
X15167857Y33684286D02*
X14996428Y33684286D01*
X15082142Y33684286D02*
X15082142Y33984286D01*
X15053571Y33941429D01*
X15025000Y33912858D01*
X14996428Y33898572D01*
X15425000Y33884286D02*
X15425000Y33684286D01*
X15353571Y33998572D02*
X15282142Y33784286D01*
X15467857Y33784286D01*
%TO.C,R3*%
X12937142Y42844286D02*
X12794285Y42844286D01*
X12780000Y42701429D01*
X12794285Y42715715D01*
X12822857Y42730000D01*
X12894285Y42730000D01*
X12922857Y42715715D01*
X12937142Y42701429D01*
X12951428Y42672858D01*
X12951428Y42601429D01*
X12937142Y42572858D01*
X12922857Y42558572D01*
X12894285Y42544286D01*
X12822857Y42544286D01*
X12794285Y42558572D01*
X12780000Y42572858D01*
X13080000Y42572858D02*
X13094285Y42558572D01*
X13080000Y42544286D01*
X13065714Y42558572D01*
X13080000Y42572858D01*
X13080000Y42544286D01*
X13380000Y42544286D02*
X13208571Y42544286D01*
X13294285Y42544286D02*
X13294285Y42844286D01*
X13265714Y42801429D01*
X13237142Y42772858D01*
X13208571Y42758572D01*
X13508571Y42544286D02*
X13508571Y42844286D01*
X13680000Y42544286D02*
X13551428Y42715715D01*
X13680000Y42844286D02*
X13508571Y42672858D01*
X14330000Y42544286D02*
X14230000Y42687143D01*
X14158571Y42544286D02*
X14158571Y42844286D01*
X14272857Y42844286D01*
X14301428Y42830000D01*
X14315714Y42815715D01*
X14330000Y42787143D01*
X14330000Y42744286D01*
X14315714Y42715715D01*
X14301428Y42701429D01*
X14272857Y42687143D01*
X14158571Y42687143D01*
X14430000Y42844286D02*
X14615714Y42844286D01*
X14515714Y42730000D01*
X14558571Y42730000D01*
X14587142Y42715715D01*
X14601428Y42701429D01*
X14615714Y42672858D01*
X14615714Y42601429D01*
X14601428Y42572858D01*
X14587142Y42558572D01*
X14558571Y42544286D01*
X14472857Y42544286D01*
X14444285Y42558572D01*
X14430000Y42572858D01*
%TO.C,U2*%
X16665714Y34521429D02*
X16365714Y34521429D01*
X16580000Y34621429D01*
X16365714Y34721429D01*
X16665714Y34721429D01*
X16665714Y34864286D02*
X16365714Y34864286D01*
X16637142Y35178572D02*
X16651428Y35164286D01*
X16665714Y35121429D01*
X16665714Y35092858D01*
X16651428Y35050000D01*
X16622857Y35021429D01*
X16594285Y35007143D01*
X16537142Y34992858D01*
X16494285Y34992858D01*
X16437142Y35007143D01*
X16408571Y35021429D01*
X16380000Y35050000D01*
X16365714Y35092858D01*
X16365714Y35121429D01*
X16380000Y35164286D01*
X16394285Y35178572D01*
X16365714Y35450000D02*
X16365714Y35307143D01*
X16508571Y35292858D01*
X16494285Y35307143D01*
X16480000Y35335715D01*
X16480000Y35407143D01*
X16494285Y35435715D01*
X16508571Y35450000D01*
X16537142Y35464286D01*
X16608571Y35464286D01*
X16637142Y35450000D01*
X16651428Y35435715D01*
X16665714Y35407143D01*
X16665714Y35335715D01*
X16651428Y35307143D01*
X16637142Y35292858D01*
X16394285Y35578572D02*
X16380000Y35592858D01*
X16365714Y35621429D01*
X16365714Y35692858D01*
X16380000Y35721429D01*
X16394285Y35735715D01*
X16422857Y35750000D01*
X16451428Y35750000D01*
X16494285Y35735715D01*
X16665714Y35564286D01*
X16665714Y35750000D01*
X16665714Y36035715D02*
X16665714Y35864286D01*
X16665714Y35950000D02*
X16365714Y35950000D01*
X16408571Y35921429D01*
X16437142Y35892858D01*
X16451428Y35864286D01*
X16665714Y36178572D02*
X16665714Y36235715D01*
X16651428Y36264286D01*
X16637142Y36278572D01*
X16594285Y36307143D01*
X16537142Y36321429D01*
X16422857Y36321429D01*
X16394285Y36307143D01*
X16380000Y36292858D01*
X16365714Y36264286D01*
X16365714Y36207143D01*
X16380000Y36178572D01*
X16394285Y36164286D01*
X16422857Y36150000D01*
X16494285Y36150000D01*
X16522857Y36164286D01*
X16537142Y36178572D01*
X16551428Y36207143D01*
X16551428Y36264286D01*
X16537142Y36292858D01*
X16522857Y36307143D01*
X16494285Y36321429D01*
X16551428Y36450000D02*
X16551428Y36678572D01*
X16365714Y36792858D02*
X16365714Y36978572D01*
X16480000Y36878572D01*
X16480000Y36921429D01*
X16494285Y36950000D01*
X16508571Y36964286D01*
X16537142Y36978572D01*
X16608571Y36978572D01*
X16637142Y36964286D01*
X16651428Y36950000D01*
X16665714Y36921429D01*
X16665714Y36835715D01*
X16651428Y36807143D01*
X16637142Y36792858D01*
X16637142Y37107143D02*
X16651428Y37121429D01*
X16665714Y37107143D01*
X16651428Y37092858D01*
X16637142Y37107143D01*
X16665714Y37107143D01*
X16365714Y37221429D02*
X16365714Y37407143D01*
X16480000Y37307143D01*
X16480000Y37350000D01*
X16494285Y37378572D01*
X16508571Y37392858D01*
X16537142Y37407143D01*
X16608571Y37407143D01*
X16637142Y37392858D01*
X16651428Y37378572D01*
X16665714Y37350000D01*
X16665714Y37264286D01*
X16651428Y37235715D01*
X16637142Y37221429D01*
X16522857Y37592858D02*
X16665714Y37592858D01*
X16365714Y37492858D02*
X16522857Y37592858D01*
X16365714Y37692858D01*
X16665714Y37792858D02*
X16365714Y37792858D01*
X16580000Y37892858D01*
X16365714Y37992858D01*
X16665714Y37992858D01*
X16365714Y38278572D02*
X16365714Y38135715D01*
X16508571Y38121429D01*
X16494285Y38135715D01*
X16480000Y38164286D01*
X16480000Y38235715D01*
X16494285Y38264286D01*
X16508571Y38278572D01*
X16537142Y38292858D01*
X16608571Y38292858D01*
X16637142Y38278572D01*
X16651428Y38264286D01*
X16665714Y38235715D01*
X16665714Y38164286D01*
X16651428Y38135715D01*
X16637142Y38121429D01*
X15121428Y36494286D02*
X15121428Y36251429D01*
X15135714Y36222858D01*
X15150000Y36208572D01*
X15178571Y36194286D01*
X15235714Y36194286D01*
X15264285Y36208572D01*
X15278571Y36222858D01*
X15292857Y36251429D01*
X15292857Y36494286D01*
X15421428Y36465715D02*
X15435714Y36480000D01*
X15464285Y36494286D01*
X15535714Y36494286D01*
X15564285Y36480000D01*
X15578571Y36465715D01*
X15592857Y36437143D01*
X15592857Y36408572D01*
X15578571Y36365715D01*
X15407142Y36194286D01*
X15592857Y36194286D01*
%TO.C,R11*%
X8195714Y28567143D02*
X8195714Y28424286D01*
X8338571Y28410000D01*
X8324285Y28424286D01*
X8310000Y28452858D01*
X8310000Y28524286D01*
X8324285Y28552858D01*
X8338571Y28567143D01*
X8367142Y28581429D01*
X8438571Y28581429D01*
X8467142Y28567143D01*
X8481428Y28552858D01*
X8495714Y28524286D01*
X8495714Y28452858D01*
X8481428Y28424286D01*
X8467142Y28410000D01*
X8467142Y28710000D02*
X8481428Y28724286D01*
X8495714Y28710000D01*
X8481428Y28695715D01*
X8467142Y28710000D01*
X8495714Y28710000D01*
X8495714Y29010000D02*
X8495714Y28838572D01*
X8495714Y28924286D02*
X8195714Y28924286D01*
X8238571Y28895715D01*
X8267142Y28867143D01*
X8281428Y28838572D01*
X8495714Y29138572D02*
X8195714Y29138572D01*
X8495714Y29310000D02*
X8324285Y29181429D01*
X8195714Y29310000D02*
X8367142Y29138572D01*
X8465714Y29837143D02*
X8322857Y29737143D01*
X8465714Y29665715D02*
X8165714Y29665715D01*
X8165714Y29780000D01*
X8180000Y29808572D01*
X8194285Y29822858D01*
X8222857Y29837143D01*
X8265714Y29837143D01*
X8294285Y29822858D01*
X8308571Y29808572D01*
X8322857Y29780000D01*
X8322857Y29665715D01*
X8465714Y30122858D02*
X8465714Y29951429D01*
X8465714Y30037143D02*
X8165714Y30037143D01*
X8208571Y30008572D01*
X8237142Y29980000D01*
X8251428Y29951429D01*
X8465714Y30408572D02*
X8465714Y30237143D01*
X8465714Y30322858D02*
X8165714Y30322858D01*
X8208571Y30294286D01*
X8237142Y30265715D01*
X8251428Y30237143D01*
%TO.C,SW2*%
X3390714Y31677858D02*
X3633571Y31677858D01*
X3662142Y31692143D01*
X3676428Y31706429D01*
X3690714Y31735000D01*
X3690714Y31792143D01*
X3676428Y31820715D01*
X3662142Y31835000D01*
X3633571Y31849286D01*
X3390714Y31849286D01*
X3533571Y32092143D02*
X3547857Y32135000D01*
X3562142Y32149286D01*
X3590714Y32163572D01*
X3633571Y32163572D01*
X3662142Y32149286D01*
X3676428Y32135000D01*
X3690714Y32106429D01*
X3690714Y31992143D01*
X3390714Y31992143D01*
X3390714Y32092143D01*
X3405000Y32120715D01*
X3419285Y32135000D01*
X3447857Y32149286D01*
X3476428Y32149286D01*
X3505000Y32135000D01*
X3519285Y32120715D01*
X3533571Y32092143D01*
X3533571Y31992143D01*
X3390714Y32292143D02*
X3633571Y32292143D01*
X3662142Y32306429D01*
X3676428Y32320715D01*
X3690714Y32349286D01*
X3690714Y32406429D01*
X3676428Y32435000D01*
X3662142Y32449286D01*
X3633571Y32463572D01*
X3390714Y32463572D01*
X3390714Y32563572D02*
X3390714Y32735000D01*
X3690714Y32649286D02*
X3390714Y32649286D01*
D11*
%TO.C,J6*%
X13510000Y51089204D02*
X7510000Y51089204D01*
X14260000Y46787500D02*
X6760000Y46787500D01*
X11810000Y46687500D02*
X12010000Y46487500D01*
X12010000Y46277500D02*
X12010000Y46487500D01*
X11610000Y46277500D02*
X11610000Y46487500D01*
X14260000Y51787500D02*
X14260000Y46787500D01*
X11610000Y46487500D02*
X11810000Y46687500D01*
X6760000Y51787500D02*
X6760000Y46787500D01*
X14260000Y51789204D02*
X6760000Y51789204D01*
X12010000Y46277500D02*
X11610000Y46277500D01*
%TO.C,JP5*%
X17670000Y18765000D02*
X17130000Y18765000D01*
X17670000Y19815000D02*
X17670000Y18765000D01*
X17130000Y19815000D02*
X17670000Y19815000D01*
X17130000Y18765000D02*
X17130000Y19815000D01*
%TO.C,D2*%
X17430000Y16850000D02*
X16630000Y16850000D01*
X17430000Y15250000D02*
X17430000Y16850000D01*
X16630000Y16850000D02*
X16630000Y15550000D01*
X16630000Y15550000D02*
X16930000Y15250000D01*
X16930000Y15250000D02*
X17430000Y15250000D01*
%TO.C,C17*%
X8760000Y14280000D02*
X8760000Y13280000D01*
X8260000Y14280000D02*
X8760000Y14280000D01*
X8260000Y13280000D02*
X8260000Y14280000D01*
X8760000Y13280000D02*
X8260000Y13280000D01*
%TO.C,C12*%
X5180000Y27510000D02*
X5680000Y27510000D01*
X5680000Y27510000D02*
X5680000Y26510000D01*
X5680000Y26510000D02*
X5180000Y26510000D01*
X5180000Y26510000D02*
X5180000Y27510000D01*
%TO.C,C13*%
X14010000Y40890000D02*
X14010000Y41690000D01*
X15610000Y40890000D02*
X14010000Y40890000D01*
X14010000Y41690000D02*
X15610000Y41690000D01*
X15610000Y41690000D02*
X15610000Y40890000D01*
%TO.C,C6*%
X5580000Y20650000D02*
X5580000Y20150000D01*
X4580000Y20150000D02*
X4580000Y20650000D01*
X4580000Y20650000D02*
X5580000Y20650000D01*
X5580000Y20150000D02*
X4580000Y20150000D01*
%TO.C,C11*%
X15655000Y30430000D02*
X16155000Y30430000D01*
X15655000Y29430000D02*
X15655000Y30430000D01*
X16155000Y30430000D02*
X16155000Y29430000D01*
X16155000Y29430000D02*
X15655000Y29430000D01*
%TO.C,C19*%
X5490000Y42490000D02*
X4990000Y42490000D01*
X4990000Y43490000D02*
X5490000Y43490000D01*
X5490000Y43490000D02*
X5490000Y42490000D01*
X4990000Y42490000D02*
X4990000Y43490000D01*
%TO.C,R2*%
X7325000Y31900000D02*
X7325000Y32440000D01*
X8375000Y32440000D02*
X8375000Y31900000D01*
X8375000Y31900000D02*
X7325000Y31900000D01*
X7325000Y32440000D02*
X8375000Y32440000D01*
%TO.C,R7*%
X15945000Y10590000D02*
X15945000Y11130000D01*
X16995000Y11130000D02*
X16995000Y10590000D01*
X16995000Y10590000D02*
X15945000Y10590000D01*
X15945000Y11130000D02*
X16995000Y11130000D01*
%TO.C,R10*%
X10490000Y17745000D02*
X10490000Y16695000D01*
X9950000Y16695000D02*
X9950000Y17745000D01*
X10490000Y16695000D02*
X9950000Y16695000D01*
X9950000Y17745000D02*
X10490000Y17745000D01*
%TO.C,C10*%
X16730000Y27880000D02*
X16730000Y27380000D01*
X15730000Y27880000D02*
X16730000Y27880000D01*
X16730000Y27380000D02*
X15730000Y27380000D01*
X15730000Y27380000D02*
X15730000Y27880000D01*
%TO.C,U3*%
X8320000Y27130000D02*
X14320000Y27130000D01*
X7320000Y26130000D02*
X8320000Y27130000D01*
X7320000Y20130000D02*
X7320000Y26130000D01*
X14320000Y20130000D02*
X7320000Y20130000D01*
X14320000Y27130000D02*
X14320000Y20130000D01*
%TO.C,R5*%
X11555000Y30475000D02*
X12095000Y30475000D01*
X12095000Y30475000D02*
X12095000Y29425000D01*
X11555000Y29425000D02*
X11555000Y30475000D01*
X12095000Y29425000D02*
X11555000Y29425000D01*
%TO.C,C2*%
X12500000Y17730000D02*
X13000000Y17730000D01*
X12500000Y16730000D02*
X12500000Y17730000D01*
X13000000Y17730000D02*
X13000000Y16730000D01*
X13000000Y16730000D02*
X12500000Y16730000D01*
%TO.C,U1*%
X8245000Y34835000D02*
X7245000Y35835000D01*
X7245000Y40065000D02*
X12475000Y40065000D01*
X12475000Y40065000D02*
X12475000Y34835000D01*
X12475000Y34835000D02*
X8245000Y34835000D01*
X7245000Y35835000D02*
X7245000Y40065000D01*
%TO.C,C5*%
X10970000Y30525000D02*
X10970000Y29525000D01*
X10470000Y29525000D02*
X10470000Y30525000D01*
X10970000Y29525000D02*
X10470000Y29525000D01*
X10470000Y30525000D02*
X10970000Y30525000D01*
%TO.C,R1*%
X10705000Y31900000D02*
X9655000Y31900000D01*
X10705000Y32440000D02*
X10705000Y31900000D01*
X9655000Y32440000D02*
X10705000Y32440000D01*
X9655000Y31900000D02*
X9655000Y32440000D01*
%TO.C,C4*%
X13680000Y30440000D02*
X14180000Y30440000D01*
X14180000Y30440000D02*
X14180000Y29440000D01*
X14180000Y29440000D02*
X13680000Y29440000D01*
X13680000Y29440000D02*
X13680000Y30440000D01*
%TO.C,C1*%
X6410000Y42950000D02*
X7410000Y42950000D01*
X7410000Y42950000D02*
X7410000Y42450000D01*
X7410000Y42450000D02*
X6410000Y42450000D01*
X6410000Y42450000D02*
X6410000Y42950000D01*
%TO.C,J5*%
X14300000Y330000D02*
X7315000Y330000D01*
X14300000Y2870000D02*
X14300000Y330000D01*
X7315000Y330000D02*
X6680000Y965000D01*
X6680000Y965000D02*
X6680000Y2870000D01*
X6680000Y2870000D02*
X14300000Y2870000D01*
%TO.C,JP1*%
X17770000Y39775000D02*
X17770000Y38725000D01*
X17230000Y38725000D02*
X17230000Y39775000D01*
X17230000Y39775000D02*
X17770000Y39775000D01*
X17770000Y38725000D02*
X17230000Y38725000D01*
%TO.C,R9*%
X17570000Y33715000D02*
X17570000Y32665000D01*
X17570000Y32665000D02*
X17030000Y32665000D01*
X17030000Y33715000D02*
X17570000Y33715000D01*
X17030000Y32665000D02*
X17030000Y33715000D01*
%TO.C,C9*%
X11380000Y16720000D02*
X11380000Y17720000D01*
X11880000Y17720000D02*
X11880000Y16720000D01*
X11880000Y16720000D02*
X11380000Y16720000D01*
X11380000Y17720000D02*
X11880000Y17720000D01*
%TO.C,C8*%
X16350000Y18810000D02*
X15850000Y18810000D01*
X15850000Y19810000D02*
X16350000Y19810000D01*
X16350000Y19810000D02*
X16350000Y18810000D01*
X15850000Y18810000D02*
X15850000Y19810000D01*
%TO.C,C15*%
X15590000Y32320000D02*
X15590000Y31520000D01*
X13990000Y32320000D02*
X15590000Y32320000D01*
X13990000Y31520000D02*
X13990000Y32320000D01*
X15590000Y31520000D02*
X13990000Y31520000D01*
%TO.C,J2*%
X14910000Y45070000D02*
X6110000Y45070000D01*
X6110000Y45070000D02*
X6110000Y52170000D01*
X6110000Y52170000D02*
X14910000Y52170000D01*
X14910000Y52170000D02*
X14910000Y45070000D01*
X14710000Y51070000D02*
X6310000Y51070000D01*
%TO.C,C16*%
X13510000Y39820000D02*
X14010000Y39820000D01*
X14010000Y38820000D02*
X13510000Y38820000D01*
X13510000Y38820000D02*
X13510000Y39820000D01*
X14010000Y39820000D02*
X14010000Y38820000D01*
%TO.C,JP4*%
X16020000Y38725000D02*
X15480000Y38725000D01*
X16020000Y39775000D02*
X16020000Y38725000D01*
X15480000Y39775000D02*
X16020000Y39775000D01*
X15480000Y38725000D02*
X15480000Y39775000D01*
%TO.C,R4*%
X8825000Y42430000D02*
X8825000Y42970000D01*
X9875000Y42970000D02*
X9875000Y42430000D01*
X8825000Y42970000D02*
X9875000Y42970000D01*
X9875000Y42430000D02*
X8825000Y42430000D01*
%TO.C,Y1*%
X9830000Y13700000D02*
X10830000Y12700000D01*
X9830000Y12700000D02*
X13030000Y12700000D01*
X9830000Y15200000D02*
X9830000Y12700000D01*
X13030000Y15200000D02*
X9830000Y15200000D01*
X13030000Y12700000D02*
X13030000Y15200000D01*
%TO.C,R8*%
X3900000Y42495000D02*
X3900000Y43545000D01*
X4440000Y43545000D02*
X4440000Y42495000D01*
X4440000Y42495000D02*
X3900000Y42495000D01*
X3900000Y43545000D02*
X4440000Y43545000D01*
%TO.C,D1*%
X16900000Y44300000D02*
X16550000Y44800000D01*
X16200000Y43700000D02*
X16200000Y45500000D01*
X16900000Y44300000D02*
X16900000Y44100000D01*
X16200000Y45500000D02*
X17600000Y45500000D01*
X17600000Y45500000D02*
X17600000Y43700000D01*
X16550000Y44800000D02*
X17250000Y44800000D01*
X16900000Y44800000D02*
X16900000Y45050000D01*
X17600000Y43700000D02*
X16200000Y43700000D01*
X16550000Y44300000D02*
X17250000Y44300000D01*
X17250000Y44800000D02*
X16900000Y44300000D01*
%TO.C,D3*%
X3800000Y45700000D02*
X4100000Y45400000D01*
X3800000Y47000000D02*
X3800000Y45700000D01*
X4100000Y45400000D02*
X4600000Y45400000D01*
X4600000Y47000000D02*
X3800000Y47000000D01*
X4600000Y45400000D02*
X4600000Y47000000D01*
%TO.C,SW1*%
X6750000Y38600000D02*
X6750000Y40550000D01*
X3850000Y40550000D02*
X3850000Y36650000D01*
X5950000Y41050000D02*
X5950000Y40550000D01*
X5950000Y41050000D02*
X4650000Y41050000D01*
X6750000Y36650000D02*
X6750000Y38600000D01*
X4650000Y36150000D02*
X4650000Y36650000D01*
X5950000Y36150000D02*
X5950000Y36650000D01*
X4650000Y41050000D02*
X4650000Y40550000D01*
X6750000Y40550000D02*
X3850000Y40550000D01*
X5950000Y36150000D02*
X4650000Y36150000D01*
X3850000Y36650000D02*
X6750000Y36650000D01*
X6200000Y38600000D02*
G75*
G03*
X6200000Y38600000I-900000J0D01*
G01*
%TO.C,C18*%
X14580000Y14310000D02*
X14580000Y13310000D01*
X14580000Y13310000D02*
X14080000Y13310000D01*
X14080000Y13310000D02*
X14080000Y14310000D01*
X14080000Y14310000D02*
X14580000Y14310000D01*
%TO.C,C7*%
X9470000Y29530000D02*
X9470000Y30530000D01*
X9470000Y30530000D02*
X9970000Y30530000D01*
X9970000Y30530000D02*
X9970000Y29530000D01*
X9970000Y29530000D02*
X9470000Y29530000D01*
%TO.C,R6*%
X13095000Y30475000D02*
X13095000Y29425000D01*
X13095000Y29425000D02*
X12555000Y29425000D01*
X12555000Y30475000D02*
X13095000Y30475000D01*
X12555000Y29425000D02*
X12555000Y30475000D01*
%TO.C,J3*%
X2870000Y50970000D02*
X2870000Y170000D01*
X965000Y50970000D02*
X2870000Y50970000D01*
X330000Y50335000D02*
X965000Y50970000D01*
X330000Y170000D02*
X330000Y50335000D01*
X2870000Y170000D02*
X330000Y170000D01*
%TO.C,C14*%
X14035000Y32975000D02*
X16035000Y32975000D01*
X14035000Y33912500D02*
X14035000Y32975000D01*
X16035000Y34225000D02*
X14347500Y34225000D01*
X16035000Y32975000D02*
X16035000Y34225000D01*
X14347500Y34225000D02*
X14035000Y33912500D01*
%TO.C,R3*%
X14925000Y42970000D02*
X14925000Y42430000D01*
X14925000Y42430000D02*
X13875000Y42430000D01*
X13875000Y42430000D02*
X13875000Y42970000D01*
X13875000Y42970000D02*
X14925000Y42970000D01*
%TO.C,U2*%
X14550000Y34880000D02*
X14550000Y37780000D01*
X16150000Y35280000D02*
X15750000Y34880000D01*
X15750000Y34880000D02*
X14550000Y34880000D01*
X14550000Y37780000D02*
X16150000Y37780000D01*
X16150000Y37780000D02*
X16150000Y35280000D01*
%TO.C,R11*%
X8060000Y30555000D02*
X8600000Y30555000D01*
X8600000Y30555000D02*
X8600000Y29505000D01*
X8060000Y29505000D02*
X8060000Y30555000D01*
X8600000Y29505000D02*
X8060000Y29505000D01*
%TO.C,SW2*%
X6735000Y34185000D02*
X3835000Y34185000D01*
X4635000Y34685000D02*
X4635000Y34185000D01*
X4635000Y29785000D02*
X4635000Y30285000D01*
X4635000Y34685000D02*
X5935000Y34685000D01*
X6735000Y30285000D02*
X6735000Y34185000D01*
X3835000Y32235000D02*
X3835000Y30285000D01*
X4635000Y29785000D02*
X5935000Y29785000D01*
X5935000Y29785000D02*
X5935000Y30285000D01*
X5935000Y34685000D02*
X5935000Y34185000D01*
X3835000Y30285000D02*
X6735000Y30285000D01*
X3835000Y34185000D02*
X3835000Y32235000D01*
X6185000Y32235000D02*
G75*
G03*
X6185000Y32235000I-900000J0D01*
G01*
%TD*%
M02*
